<?xml version="1.0" encoding="UTF-8"?>
<svg id="Capa_2" data-name="Capa 2" xmlns="http://www.w3.org/2000/svg" viewBox="0 0 30.59 26.65">
  <defs>
    <style>
      .cls-1 {
        fill: #f1b649;
      }
    </style>
  </defs>
  <g id="Ordenador_escritorio" data-name="Ordenador escritorio">
    <g id="_1_Landing" data-name="1 Landing">
      <path class="cls-1" d="M0,25.76c-.04-.33.11-.55.36-.76,1.05-.88,2.09-1.78,3.15-2.65.29-.24.31-.44.15-.76-.92-1.86-1.61-3.81-1.9-5.87-.43-2.97.11-5.71,1.97-8.12,1.25-1.63,2.86-2.81,4.65-3.77,2.93-1.57,6.09-2.4,9.33-2.98C21.19.25,24.69-.02,28.21,0c.71,0,1.42-.03,2.12.08.08.1.17.2.25.3.04.51-.06,1-.14,1.49-.66,3.89-1.55,7.72-2.9,11.43-.91,2.49-2,4.9-3.49,7.11-.83,1.24-1.75,2.41-2.87,3.38-2.12,1.85-4.54,2.97-7.43,2.84-2.11-.09-4.05-.75-5.9-1.7-1-.51-1.95-1.11-2.87-1.76-.26-.18-.42-.14-.64.05-1.02.88-2.05,1.74-3.08,2.61-.27.23-.56.42-.95.28-.1-.12-.2-.24-.3-.36"/>
    </g>
  </g>
</svg>