<?xml version="1.0" encoding="UTF-8"?>
<svg id="Capa_2" data-name="Capa 2" xmlns="http://www.w3.org/2000/svg" viewBox="0 0 87.76 90.32">
  <defs>
    <style>
      .cls-1 {
        fill: #ab9f8a;
      }

      .cls-2 {
        opacity: .7;
      }
    </style>
  </defs>
  <g id="Ordenador_escritorio" data-name="Ordenador escritorio">
    <g id="_3_Opciones" data-name="3 Opciones">
      <g class="cls-2">
        <path class="cls-1" d="M84.19,68.88c-2.86-.83,2.67-3.37,1.9-6.03,0-2.75-2.1-4.97-4.68-4.97-.48,0-.87-.42-.87-.92s.39-.92.87-.92c6.62-.29,8.88,10.32,2.78,12.85"/>
        <path class="cls-1" d="M46.7,90.32c-.89.02-1.19-1.33-.41-1.73,1.49-.06,37.29-22.97,38.65-21.06.23.42.07,1.02-.35,1.25-.5.16-37.35,21.59-37.9,21.55"/>
        <path class="cls-1" d="M46.7,90.32c-.05.03-30.58-4.44-30.66-4.43-.48-.06-.81-.56-.74-1.04.06-.5.5-.85.98-.78,0,0,30.54,4.42,30.54,4.42,1.04.14.94,1.85-.12,1.84"/>
        <path class="cls-1" d="M53.64,62.3c-1.03.02-1.17-1.69-.13-1.83,0,0,26.82-4.34,26.82-4.34.47-.08.92.27.99.77,1.37,1.84-27.45,4.9-27.68,5.4"/>
        <path class="cls-1" d="M48.09,68.2c-1.12.02-1.12-1.86,0-1.84,2.58,0,4.69-2.24,4.69-4.98.01-4.89-4.17-3.89-4.59-5.96.07-.49.53-.84,1-.75,7.54,1.17,6.57,13.72-1.1,13.54"/>
        <path class="cls-1" d="M49.04,56.49c-.35-.52-23.98-3.82-22.63-5.61-.56-2.17,22.31,4.16,22.8,3.78,1,.18.86,1.85-.17,1.82"/>
        <path class="cls-1" d="M16.16,51.98c-1.12.02-1.13-1.86,0-1.84.68.38,12.51-.97,11.97.92.58,1.88-11.34.54-11.97.92Z"/>
        <path class="cls-1" d="M47.51,68.16c-.43-.45-19.48-.57-18.33-2.43-.71-2.05,17.89,1,18.39.59,1.09.08,1.02,1.86-.06,1.84"/>
        <path class="cls-1" d="M80.46,57.96c-2.72-.86,1.54-3.37,1.82-1,0,1.04-1.09.91-1.82,1"/>
        <path class="cls-1" d="M48.09,68.2c-1.37.38-2.1-1.67-.6-1.88,1.38-.36,2.14,1.66.6,1.88"/>
        <path class="cls-1" d="M.89,90.32c-1.12.02-1.12-1.86,0-1.84,0,0,9.72,0,9.72,0l.52-.55v-39.81l-.52-.55c-.71-.35-11.05.92-10.58-.92-.58-1.9,11.34-.53,11.97-.92.48,0,.87.41.87.92v42.76c0,.51-.39.92-.87.92H.89Z"/>
        <path class="cls-1" d="M42.53,34.29c-4.72.07-4.72-7.82,0-7.74.48,0,.87.42.87.93-.25,1.56-2.92.59-2.78,2.94,0,1.12.86,2.03,1.91,2.03,1.12-.02,1.12,1.86,0,1.84"/>
        <path class="cls-1" d="M56.41,34.29c-1.12.02-1.12-1.86,0-1.84,1.05,0,1.91-.91,1.91-2.03.13-2.37-2.52-1.38-2.78-2.94,0-.51.39-.93.87-.93,4.72-.07,4.72,7.82,0,7.74"/>
        <path class="cls-1" d="M42.53,28.39c-1.12.02-1.13-1.86,0-1.84,0,0,13.88,0,13.88,0,1.12-.02,1.13,1.86,0,1.84,0,0-13.88,0-13.88,0Z"/>
        <path class="cls-1" d="M42.53,34.29c-1.12.02-1.13-1.86,0-1.84,0,0,13.88,0,13.88,0,1.12-.02,1.13,1.86,0,1.84,0,0-13.88,0-13.88,0Z"/>
        <path class="cls-1" d="M59.19,61.4c-.48,0-.87-.41-.87-.92v-30.06c0-.5.39-.92.87-.92s.87.42.87.92v30.06c0,.51-.39.92-.87.92"/>
        <path class="cls-1" d="M39.76,54.56c-1.91,1.01-.42-23.81-.87-24.14,0-.5.39-.92.87-.92,1.91-1.01.42,23.81.87,24.14,0,.51-.39.92-.87.92"/>
        <path class="cls-1" d="M49.48,31.34c-1.8.86-.49-15.24-.87-15.68,0-.5.39-.92.87-.92s.87.42.87.92c-.38.51.95,16.47-.87,15.68"/>
        <path class="cls-1" d="M49.48,1.84c-4.99,1.71-10.37,20.43,0,20.28,10.37.15,4.99-18.58,0-20.28M49.48,23.97c-4.31,0-7.81-3.72-7.81-8.29,0-4.03,3.06-15.68,7.81-15.68s7.81,11.64,7.81,15.68c0,4.57-3.5,8.29-7.81,8.29"/>
      </g>
    </g>
  </g>
</svg>