<?xml version="1.0" encoding="UTF-8"?>
<svg id="Capa_2" data-name="Capa 2" xmlns="http://www.w3.org/2000/svg" viewBox="0 0 132.5 39.63">
  <defs>
    <style>
      .cls-1 {
        fill: #f2e9ce;
      }
    </style>
  </defs>
  <g id="Slide_3" data-name="Slide 3">
    <g id="Opciones_2" data-name="Opciones 2">
      <g>
        <path class="cls-1" d="M0,12.57c2.25-1.79,3.93-3.36,5.03-4.73s1.65-2.55,1.65-3.55c0-.67-.19-1.23-.57-1.67-.38-.44-.86-.65-1.43-.65-.5,0-.93.14-1.27.41-.34.27-.62.7-.83,1.28l-.54-.23c-.14-.06-.25-.14-.31-.24-.07-.09-.1-.21-.1-.36,0-.46.32-.89.97-1.27s1.39-.58,2.24-.58c1.01,0,1.85.31,2.51.93s.99,1.41.99,2.36c0,.62-.15,1.21-.44,1.78-.3.57-.79,1.2-1.48,1.89-.29.29-.81.78-1.56,1.47-.75.69-1.57,1.42-2.46,2.2l-.31.29h3.86c.63,0,1.05-.09,1.24-.26.2-.17.37-.51.51-1.01l.6.12c-.13.39-.25.79-.36,1.22-.1.43-.2.88-.28,1.35-.9-.05-1.67-.08-2.33-.1-.66-.02-1.28-.03-1.86-.03-.84,0-1.5,0-1.97.03s-.87.05-1.21.1l-.29-.76Z"/>
        <path class="cls-1" d="M11.91,11.11l.49.54c.15.16.26.29.31.4s.08.23.08.35c0,.16-.05.31-.15.44s-.27.26-.51.39l-.65.34-.5-.53c-.15-.15-.25-.28-.32-.4s-.1-.25-.1-.37c0-.16.05-.31.14-.43.1-.13.25-.25.46-.36l.74-.38Z"/>
        <path class="cls-1" d="M16.37,11.43c.39.45.77.77,1.13.97.36.2.74.3,1.14.3.77,0,1.42-.34,1.94-1.01s.78-1.51.78-2.5c0-.68-.17-1.22-.51-1.61s-.8-.59-1.39-.59c-.29,0-.61.05-.97.15-.36.1-.8.27-1.33.51l-.52-.48,1.49-5.84c.76.06,1.34.11,1.74.13s.76.04,1.06.04c.43,0,.88-.01,1.34-.04.46-.03.94-.06,1.44-.11l-.56,1.48c-.47.05-1.01.08-1.61.11s-1.29.04-2.08.04h-.81l-1.02,3.64c.5-.24.96-.42,1.38-.53.42-.12.82-.17,1.19-.17.81,0,1.47.27,1.99.82s.77,1.25.77,2.1c0,.54-.11,1.08-.33,1.62-.22.54-.53,1.03-.94,1.48-.49.54-1.07.98-1.74,1.29-.68.32-1.35.47-2.02.47s-1.21-.12-1.67-.36c-.47-.24-.7-.52-.7-.83,0-.1.02-.2.07-.29.05-.1.13-.2.23-.3l.5-.48Z"/>
        <path class="cls-1" d="M29.07,13.58c.19-.87.4-1.94.62-3.23.03-.17.05-.29.06-.37l.17-.91c.09-.54.17-1.03.22-1.47s.08-.73.08-.88c0-.18-.04-.32-.11-.44-.07-.11-.16-.17-.27-.17-.06,0-.16.03-.28.09-.12.06-.33.19-.62.37l-.25-.47c.15-.11.35-.26.61-.46.75-.57,1.26-.86,1.52-.86.25,0,.44.1.59.31.15.21.22.49.22.84,0,.28-.04.75-.11,1.43-.01.1-.02.18-.03.23.19-.21.45-.49.78-.86,1.18-1.3,1.98-1.95,2.4-1.95.35,0,.63.15.84.44s.33.68.33,1.16c0,.17,0,.36-.02.56-.01.2-.04.45-.07.73.09-.11.23-.26.4-.47,1.37-1.62,2.32-2.43,2.86-2.43.35,0,.64.15.86.44.22.29.33.68.33,1.15,0,.68-.14,1.62-.42,2.83-.28,1.21-.42,2.04-.42,2.47,0,.18.03.32.09.43.06.11.13.16.22.16.08,0,.21-.08.42-.25.2-.17.44-.4.72-.7l.3.54c-.72.75-1.21,1.22-1.46,1.41-.25.19-.47.29-.65.29-.33,0-.59-.12-.77-.37-.18-.25-.27-.6-.27-1.05,0-.66.15-1.61.44-2.85s.44-2.07.44-2.51c0-.21-.04-.38-.11-.49s-.18-.18-.32-.18-.37.15-.71.46c-.34.31-1.02,1.01-2.04,2.1-.21,1.1-.36,2-.46,2.68s-.18,1.29-.22,1.8l-1.55.41c.35-1.8.62-3.3.81-4.48s.29-1.94.29-2.27c0-.22-.04-.39-.12-.51-.08-.12-.18-.19-.29-.19-.16,0-.93.67-2.29,2.02l-.41.4c-.22,1.14-.38,2.06-.49,2.75s-.19,1.3-.24,1.82l-1.57.46Z"/>
        <path class="cls-1" d="M41.7,12.57c2.25-1.79,3.93-3.36,5.03-4.73s1.65-2.55,1.65-3.55c0-.67-.19-1.23-.57-1.67-.38-.44-.86-.65-1.43-.65-.5,0-.93.14-1.27.41-.34.27-.62.7-.83,1.28l-.54-.23c-.14-.06-.25-.14-.31-.24-.07-.09-.1-.21-.1-.36,0-.46.32-.89.97-1.27s1.39-.58,2.24-.58c1.01,0,1.85.31,2.51.93s.99,1.41.99,2.36c0,.62-.15,1.21-.44,1.78-.3.57-.79,1.2-1.48,1.89-.29.29-.81.78-1.56,1.47-.75.69-1.57,1.42-2.46,2.2l-.31.29h3.86c.63,0,1.05-.09,1.24-.26.2-.17.37-.51.51-1.01l.6.12c-.13.39-.25.79-.36,1.22-.1.43-.2.88-.28,1.35-.9-.05-1.67-.08-2.33-.1-.66-.02-1.28-.03-1.86-.03-.84,0-1.5,0-1.97.03s-.87.05-1.21.1l-.29-.76Z"/>
        <path class="cls-1" d="M61.3,6.34l-.47.46c-.39-.39-.7-.65-.93-.78s-.47-.19-.71-.19c-.54,0-1.01.4-1.41,1.2-.4.8-.6,1.79-.6,2.96,0,.79.1,1.38.31,1.78s.51.6.91.6c.22,0,.53-.13.91-.38.39-.26.79-.61,1.22-1.05l.36.62c-.68.72-1.26,1.24-1.74,1.56-.48.32-.92.48-1.32.48-.63,0-1.14-.28-1.52-.83-.38-.55-.57-1.29-.57-2.23,0-1.61.41-2.96,1.24-4.06.82-1.1,1.84-1.65,3.04-1.65.44,0,.82.09,1.13.28s.47.4.47.64c0,.09-.03.19-.07.28-.05.09-.14.2-.27.33Z"/>
        <path class="cls-1" d="M66.68,4.83c.87,0,1.54.27,1.99.81s.68,1.33.68,2.38c0,.6-.12,1.23-.35,1.91-.23.68-.55,1.29-.95,1.83-.43.59-.91,1.04-1.46,1.35-.54.31-1.11.47-1.71.47-.79,0-1.41-.28-1.88-.85-.46-.57-.7-1.33-.7-2.29,0-.71.11-1.4.34-2.07s.56-1.28.98-1.83c.42-.54.9-.97,1.44-1.27.54-.3,1.07-.45,1.6-.45ZM66.3,5.68c-.68,0-1.27.47-1.76,1.4s-.74,2.08-.74,3.45c0,.72.12,1.27.37,1.65.25.38.61.57,1.08.57.71,0,1.32-.46,1.82-1.38.5-.92.75-2.04.75-3.38,0-.79-.13-1.38-.38-1.76-.25-.38-.64-.57-1.16-.57Z"/>
        <path class="cls-1" d="M73.17,7.35l1.42-1.39c.5-.47.88-.79,1.13-.94.26-.15.5-.23.73-.23.39,0,.7.17.94.51s.37.79.37,1.34-.14,1.45-.43,2.63c-.29,1.19-.43,2.03-.43,2.54,0,.15.03.27.09.35.06.08.14.12.25.12.05,0,.12-.02.2-.07.08-.04.16-.1.23-.18l.67-.65.31.47-.96.98c-.23.23-.46.42-.68.55s-.42.2-.59.2c-.29,0-.53-.13-.72-.38-.19-.26-.28-.59-.28-1.01,0-.5.15-1.38.45-2.63.3-1.26.45-2.17.45-2.75,0-.22-.05-.39-.14-.52-.09-.13-.21-.2-.36-.2-.23,0-.93.54-2.1,1.63-.31.29-.55.51-.73.68l-.55,3.09-.05.26c-.12.63-.2,1.11-.22,1.44l-1.56.39c.39-1.68.69-3.14.92-4.39.22-1.24.34-2.06.34-2.44,0-.23-.03-.4-.08-.51-.05-.1-.14-.15-.25-.15-.07,0-.19.04-.35.12s-.36.2-.61.36l-.24-.47c.06-.05.16-.13.28-.23.9-.73,1.51-1.09,1.81-1.09s.51.11.65.33c.14.22.21.56.21,1.02,0,.16,0,.35-.03.55s-.04.42-.08.65Z"/>
        <path class="cls-1" d="M87.61,8.75l-2.68,1.39v.09c0,.7.11,1.23.33,1.59.22.36.54.54.95.54.25,0,.55-.11.93-.33.37-.22.85-.58,1.43-1.07l.31.55c-.84.77-1.5,1.31-2,1.61s-.94.45-1.35.45c-.62,0-1.12-.27-1.5-.8-.38-.53-.58-1.23-.58-2.1,0-.62.1-1.28.3-1.98.2-.71.46-1.32.79-1.85.4-.64.87-1.14,1.39-1.49s1.06-.53,1.62-.53,1.04.18,1.43.54c.38.36.58.8.58,1.31,0,.42-.12.76-.35,1.03-.23.27-.76.62-1.59,1.04ZM84.97,9.36l.09-.04c2.08-1.07,3.12-1.89,3.12-2.47,0-.31-.11-.58-.33-.81-.22-.23-.48-.34-.78-.34-.46,0-.88.32-1.24.96-.37.64-.65,1.54-.85,2.71Z"/>
        <path class="cls-1" d="M95.49,6.28l-.49.47-.06-.05c-.67-.61-1.17-.91-1.52-.91s-.6.1-.81.29-.32.45-.32.75c0,.47.41,1.04,1.22,1.72.1.08.17.14.22.18.6.52,1,.92,1.19,1.21.19.29.29.61.29.95,0,.65-.32,1.26-.96,1.82-.64.56-1.37.84-2.19.84-.58,0-1.06-.1-1.44-.3s-.57-.44-.57-.73c0-.11.02-.21.05-.29s.11-.18.24-.31l.47-.43c.39.43.71.73.97.9s.51.25.76.25c.37,0,.68-.12.95-.37.26-.25.39-.54.39-.88,0-.39-.4-.94-1.2-1.65-.21-.19-.37-.33-.48-.44-.47-.42-.79-.77-.97-1.05s-.26-.57-.26-.85c0-.63.32-1.21.95-1.76s1.33-.82,2.09-.82c.5,0,.92.09,1.26.28.34.19.5.41.5.66,0,.1-.02.19-.06.28s-.1.17-.18.24Z"/>
        <path class="cls-1" d="M99.43,3.89l.65.23c-.11.35-.2.7-.29,1.06-.09.36-.17.75-.24,1.15l-.14.89.16-.18c1.32-1.43,2.29-2.14,2.88-2.14.54,0,.98.27,1.31.8.34.53.5,1.24.5,2.13,0,.67-.13,1.36-.39,2.08s-.6,1.35-1.04,1.9c-.45.56-.93.99-1.45,1.29-.52.3-1.05.44-1.59.44-.21,0-.41-.03-.62-.08-.21-.06-.44-.14-.69-.26l-.43,2.81c-.02.11-.03.2-.04.29,0,.09-.01.16-.01.23,0,.29.07.48.21.58.14.1.4.15.79.15h.28l-.12.61c-.35-.02-.69-.04-1.03-.05s-.68-.02-1.02-.02c-.21,0-.62.01-1.25.04-.28.01-.49.02-.64.03l.11-.61h.27c.33,0,.56-.06.69-.19.13-.13.22-.39.29-.78l1.48-8.71c.02-.09.04-.22.07-.4.11-.63.21-1.14.31-1.53l-1.49,1.04-.16-.59c.46-.33.91-.69,1.35-1.05s.88-.76,1.3-1.16ZM98.64,12.23c.28.16.54.28.79.35s.49.11.72.11c.72,0,1.34-.48,1.85-1.46.51-.97.76-2.15.76-3.53,0-.53-.07-.92-.2-1.19s-.34-.4-.61-.4c-.34,0-1.09.54-2.24,1.61-.2.18-.35.32-.47.42l-.61,4.07Z"/>
        <path class="cls-1" d="M113.31,11.85l-.56.54c-.42.42-.75.71-1,.87-.25.16-.47.24-.67.24-.3,0-.54-.13-.71-.38-.18-.25-.26-.6-.26-1.05,0-.17,0-.35.02-.53s.03-.37.05-.55c-1.1,1.07-1.87,1.75-2.31,2.06s-.8.46-1.09.46c-.45,0-.78-.19-1.01-.58-.23-.39-.34-.96-.34-1.72,0-.69.09-1.36.27-2,.18-.64.44-1.25.79-1.81.5-.8,1.07-1.41,1.72-1.83s1.33-.63,2.06-.63c.16,0,.33.02.52.05s.39.08.6.14l1.23-.52c-.35,1.65-.62,3.13-.83,4.45s-.31,2.17-.31,2.58c0,.19.03.33.09.42.06.09.16.14.29.14.09,0,.22-.06.38-.18s.42-.35.79-.7l.29.54ZM110.24,10.01c.11-.53.21-1.11.32-1.75.11-.63.22-1.34.35-2.14-.27-.15-.49-.26-.66-.31-.17-.06-.33-.08-.5-.08-.76,0-1.42.51-2,1.53s-.86,2.22-.86,3.61c0,.44.05.77.15.99.1.22.24.33.44.33s.53-.18.98-.54,1.04-.91,1.77-1.64Z"/>
        <path class="cls-1" d="M119.5,6.34l-.47.46c-.39-.39-.7-.65-.93-.78s-.47-.19-.71-.19c-.54,0-1.01.4-1.41,1.2-.4.8-.6,1.79-.6,2.96,0,.79.1,1.38.31,1.78s.51.6.91.6c.22,0,.53-.13.91-.38.39-.26.79-.61,1.22-1.05l.36.62c-.68.72-1.26,1.24-1.74,1.56-.48.32-.92.48-1.32.48-.63,0-1.14-.28-1.52-.83-.38-.55-.57-1.29-.57-2.23,0-1.61.41-2.96,1.24-4.06.82-1.1,1.84-1.65,3.04-1.65.44,0,.82.09,1.13.28s.47.4.47.64c0,.09-.03.19-.07.28-.05.09-.14.2-.27.33Z"/>
        <path class="cls-1" d="M124.01,11.33l.31.52c-.72.74-1.22,1.22-1.5,1.42s-.53.31-.75.31c-.31,0-.56-.13-.75-.39-.19-.26-.28-.61-.28-1.05,0-.55.17-1.47.52-2.76.35-1.29.52-2.22.52-2.79,0-.15-.04-.26-.11-.35s-.16-.13-.27-.13c-.09,0-.22.04-.37.11s-.34.19-.57.35l-.26-.47,1.17-.85c.22-.16.42-.28.58-.36s.32-.11.47-.11c.28,0,.49.11.66.34.16.23.24.53.24.93,0,.43-.15,1.27-.46,2.51l-.16.63c-.16.66-.29,1.21-.37,1.64s-.13.73-.13.9c0,.15.03.27.1.36s.15.14.25.14c.09,0,.22-.06.37-.18s.42-.36.8-.74ZM123.94,0l.5.56c.14.15.24.28.29.39.06.12.08.23.08.35,0,.12-.04.24-.13.35-.09.11-.21.22-.37.32l-.77.43-.56-.67c-.12-.15-.19-.26-.23-.35s-.05-.17-.05-.27c0-.13.04-.25.11-.36.07-.1.19-.2.36-.3l.77-.46Z"/>
        <path class="cls-1" d="M129.82,4.83c.87,0,1.54.27,1.99.81s.68,1.33.68,2.38c0,.6-.12,1.23-.35,1.91-.23.68-.55,1.29-.95,1.83-.43.59-.91,1.04-1.46,1.35-.54.31-1.11.47-1.71.47-.79,0-1.41-.28-1.88-.85-.46-.57-.7-1.33-.7-2.29,0-.71.11-1.4.34-2.07s.56-1.28.98-1.83c.42-.54.9-.97,1.44-1.27.54-.3,1.07-.45,1.6-.45ZM129.45,5.68c-.68,0-1.27.47-1.76,1.4s-.74,2.08-.74,3.45c0,.72.12,1.27.37,1.65.25.38.61.57,1.08.57.71,0,1.32-.46,1.82-1.38.5-.92.75-2.04.75-3.38,0-.79-.13-1.38-.38-1.76-.25-.38-.64-.57-1.16-.57Z"/>
        <path class="cls-1" d="M24.62,25.49l.65.23c-.11.35-.2.7-.29,1.06-.09.36-.17.75-.24,1.15l-.14.89.16-.18c1.32-1.43,2.29-2.14,2.88-2.14.54,0,.98.27,1.31.8.34.53.5,1.24.5,2.13,0,.67-.13,1.36-.39,2.08s-.6,1.35-1.04,1.9c-.45.56-.93.99-1.45,1.29-.52.3-1.05.44-1.59.44-.21,0-.41-.03-.62-.08-.21-.06-.44-.14-.69-.26l-.43,2.81c-.02.11-.03.2-.04.29,0,.09-.01.16-.01.23,0,.29.07.48.21.58.14.1.4.15.79.15h.28l-.12.61c-.35-.02-.69-.04-1.03-.05s-.68-.02-1.02-.02c-.21,0-.62.01-1.25.04-.28.01-.49.02-.64.03l.11-.61h.27c.33,0,.56-.06.69-.19.13-.13.22-.39.29-.78l1.48-8.71c.02-.09.04-.22.07-.4.11-.63.21-1.14.31-1.53l-1.49,1.04-.16-.59c.46-.33.91-.69,1.35-1.05s.88-.76,1.3-1.16ZM23.83,33.83c.28.16.54.28.79.35s.49.11.72.11c.72,0,1.34-.48,1.85-1.46.51-.97.76-2.15.76-3.53,0-.53-.07-.92-.2-1.19s-.34-.4-.61-.4c-.34,0-1.09.54-2.24,1.61-.2.18-.35.32-.47.42l-.61,4.07Z"/>
        <path class="cls-1" d="M38.5,33.45l-.56.54c-.42.42-.75.71-1,.87-.25.16-.47.24-.67.24-.3,0-.54-.13-.71-.38-.18-.25-.26-.6-.26-1.05,0-.17,0-.35.02-.53s.03-.37.05-.55c-1.1,1.07-1.87,1.75-2.31,2.06s-.8.46-1.09.46c-.45,0-.78-.19-1.01-.58-.23-.39-.34-.96-.34-1.72,0-.69.09-1.36.27-2,.18-.64.44-1.25.79-1.81.5-.8,1.07-1.41,1.72-1.83s1.33-.63,2.06-.63c.16,0,.33.02.52.05s.39.08.6.14l1.23-.52c-.35,1.65-.62,3.13-.83,4.45s-.31,2.17-.31,2.58c0,.19.03.33.09.42.06.09.16.14.29.14.09,0,.22-.06.38-.18s.42-.35.79-.7l.29.54ZM35.43,31.61c.11-.53.21-1.11.32-1.75.11-.63.22-1.34.35-2.14-.27-.15-.49-.26-.66-.31-.17-.06-.33-.08-.5-.08-.76,0-1.42.51-2,1.53s-.86,2.22-.86,3.61c0,.44.05.77.15.99.1.22.24.33.44.33s.53-.18.98-.54,1.04-.91,1.77-1.64Z"/>
        <path class="cls-1" d="M39.55,35.16c.37-1.52.66-2.87.86-4.04.21-1.17.31-2.05.31-2.64,0-.25-.04-.44-.11-.57-.07-.12-.18-.19-.32-.19-.11,0-.4.15-.89.46l-.07.04-.31-.5.13-.1c1.05-.79,1.74-1.19,2.05-1.19.29,0,.49.09.62.28.13.19.19.49.19.92,0,.38-.01.73-.04,1.05-.02.33-.06.61-.11.84.8-1.32,1.37-2.17,1.71-2.54s.66-.55.95-.55c.2,0,.37.07.5.22s.2.33.2.54c0,.13-.03.29-.1.47-.07.19-.21.49-.43.92-.11-.15-.21-.25-.33-.33s-.22-.11-.33-.11c-.22,0-.47.15-.77.45s-.76.91-1.39,1.81c-.2.81-.37,1.58-.5,2.31-.13.73-.24,1.42-.31,2.07l-1.53.36Z"/>
        <path class="cls-1" d="M53.66,33.45l-.56.54c-.42.42-.75.71-1,.87-.25.16-.47.24-.67.24-.3,0-.54-.13-.71-.38-.18-.25-.26-.6-.26-1.05,0-.17,0-.35.02-.53s.03-.37.05-.55c-1.1,1.07-1.87,1.75-2.31,2.06s-.8.46-1.09.46c-.45,0-.78-.19-1.01-.58-.23-.39-.34-.96-.34-1.72,0-.69.09-1.36.27-2,.18-.64.44-1.25.79-1.81.5-.8,1.07-1.41,1.72-1.83s1.33-.63,2.06-.63c.16,0,.33.02.52.05s.39.08.6.14l1.23-.52c-.35,1.65-.62,3.13-.83,4.45s-.31,2.17-.31,2.58c0,.19.03.33.09.42.06.09.16.14.29.14.09,0,.22-.06.38-.18s.42-.35.79-.7l.29.54ZM50.59,31.61c.11-.53.21-1.11.32-1.75.11-.63.22-1.34.35-2.14-.27-.15-.49-.26-.66-.31-.17-.06-.33-.08-.5-.08-.76,0-1.42.51-2,1.53s-.86,2.22-.86,3.61c0,.44.05.77.15.99.1.22.24.33.44.33s.53-.18.98-.54,1.04-.91,1.77-1.64Z"/>
        <path class="cls-1" d="M63.15,28.39c.83.04,1.48.3,1.96.78s.72,1.11.72,1.88c0,1.12-.49,2.11-1.47,2.96-.98.86-2.11,1.28-3.39,1.28-.77,0-1.42-.12-1.93-.37-.51-.25-.77-.54-.77-.88,0-.11.03-.22.08-.32s.14-.21.26-.31l.48-.43c.38.45.77.79,1.17,1.01s.81.33,1.24.33c.79,0,1.45-.28,1.97-.83.52-.56.79-1.25.79-2.07s-.23-1.39-.68-1.82c-.45-.43-1.09-.65-1.92-.65-.08,0-.25,0-.52.02-.13.01-.24.02-.31.02l.14-.71c.99-.01,1.82-.28,2.48-.8.66-.52.99-1.16.99-1.91,0-.61-.18-1.11-.53-1.49s-.81-.58-1.36-.58c-.44,0-.81.13-1.12.4s-.56.67-.75,1.2l-.45-.22c-.13-.06-.23-.13-.29-.22s-.09-.2-.09-.33c0-.43.31-.82.94-1.19.62-.36,1.35-.54,2.17-.54.94,0,1.7.24,2.28.71s.86,1.1.86,1.86c0,.7-.26,1.33-.79,1.9s-1.25,1.01-2.18,1.33Z"/>
        <path class="cls-1" d="M77.57,27.94l-.47.46c-.39-.39-.7-.65-.93-.78s-.47-.19-.71-.19c-.54,0-1.01.4-1.41,1.2-.4.8-.6,1.79-.6,2.96,0,.79.1,1.38.31,1.78s.51.6.91.6c.22,0,.53-.13.91-.38.39-.26.79-.61,1.22-1.05l.36.62c-.68.72-1.26,1.24-1.74,1.56-.48.32-.92.48-1.32.48-.63,0-1.14-.28-1.52-.83-.38-.55-.57-1.29-.57-2.23,0-1.61.41-2.96,1.24-4.06.82-1.1,1.84-1.65,3.04-1.65.44,0,.82.09,1.13.28s.47.4.47.64c0,.09-.03.19-.07.28-.05.09-.14.2-.27.33Z"/>
        <path class="cls-1" d="M86.39,33.45l-.56.54c-.42.42-.75.71-1,.87-.25.16-.47.24-.67.24-.3,0-.54-.13-.71-.38-.18-.25-.26-.6-.26-1.05,0-.17,0-.35.02-.53s.03-.37.05-.55c-1.1,1.07-1.87,1.75-2.31,2.06s-.8.46-1.09.46c-.45,0-.78-.19-1.01-.58-.23-.39-.34-.96-.34-1.72,0-.69.09-1.36.27-2,.18-.64.44-1.25.79-1.81.5-.8,1.07-1.41,1.72-1.83s1.33-.63,2.06-.63c.16,0,.33.02.52.05s.39.08.6.14l1.23-.52c-.35,1.65-.62,3.13-.83,4.45s-.31,2.17-.31,2.58c0,.19.03.33.09.42.06.09.16.14.29.14.09,0,.22-.06.38-.18s.42-.35.79-.7l.29.54ZM83.33,31.61c.11-.53.21-1.11.32-1.75.11-.63.22-1.34.35-2.14-.27-.15-.49-.26-.66-.31-.17-.06-.33-.08-.5-.08-.76,0-1.42.51-2,1.53s-.86,2.22-.86,3.61c0,.44.05.77.15.99.1.22.24.33.44.33s.53-.18.98-.54,1.04-.91,1.77-1.64Z"/>
        <path class="cls-1" d="M90.33,28.46l-.77,5.19c-.13.9-.27,1.63-.41,2.21s-.31,1.04-.5,1.4c-.38.73-.87,1.31-1.45,1.73-.59.42-1.2.63-1.84.63-.35,0-.64-.08-.88-.24s-.36-.35-.36-.58c0-.13.02-.24.07-.33.04-.09.12-.19.24-.29l.38-.34c.24.29.47.49.68.62s.43.19.67.19c.43,0,.78-.24,1.03-.72s.51-1.49.77-3.04l.36-2.01c.2-1.18.37-2.22.5-3.14s.2-1.44.2-1.56c0-.14-.03-.25-.1-.34s-.15-.13-.25-.13c-.11,0-.38.13-.81.38-.12.07-.21.12-.27.16l-.27-.5,1.01-.67c.35-.22.63-.39.86-.49.22-.11.41-.16.57-.16.23,0,.4.08.52.25.12.16.18.4.18.71,0,.14,0,.3-.03.48s-.05.38-.09.6ZM90.51,21.6l.5.56c.14.15.24.28.29.39.06.12.08.23.08.35,0,.12-.04.24-.13.35-.09.11-.21.22-.37.32l-.77.43-.56-.67c-.12-.15-.19-.26-.23-.35s-.05-.17-.05-.27c0-.13.04-.25.11-.36.07-.1.19-.2.36-.3l.77-.46Z"/>
        <path class="cls-1" d="M100.01,33.45l-.56.54c-.42.42-.75.71-1,.87-.25.16-.47.24-.67.24-.3,0-.54-.13-.71-.38-.18-.25-.26-.6-.26-1.05,0-.17,0-.35.02-.53s.03-.37.05-.55c-1.1,1.07-1.87,1.75-2.31,2.06s-.8.46-1.09.46c-.45,0-.78-.19-1.01-.58-.23-.39-.34-.96-.34-1.72,0-.69.09-1.36.27-2,.18-.64.44-1.25.79-1.81.5-.8,1.07-1.41,1.72-1.83s1.33-.63,2.06-.63c.16,0,.33.02.52.05s.39.08.6.14l1.23-.52c-.35,1.65-.62,3.13-.83,4.45s-.31,2.17-.31,2.58c0,.19.03.33.09.42.06.09.16.14.29.14.09,0,.22-.06.38-.18s.42-.35.79-.7l.29.54ZM96.94,31.61c.11-.53.21-1.11.32-1.75.11-.63.22-1.34.35-2.14-.27-.15-.49-.26-.66-.31-.17-.06-.33-.08-.5-.08-.76,0-1.42.51-2,1.53s-.86,2.22-.86,3.61c0,.44.05.77.15.99.1.22.24.33.44.33s.53-.18.98-.54,1.04-.91,1.77-1.64Z"/>
        <path class="cls-1" d="M105.83,27.88l-.49.47-.06-.05c-.67-.61-1.17-.91-1.52-.91s-.6.1-.81.29-.32.45-.32.75c0,.47.41,1.04,1.22,1.72.1.08.17.14.22.18.6.52,1,.92,1.19,1.21.19.29.29.61.29.95,0,.65-.32,1.26-.96,1.82-.64.56-1.37.84-2.19.84-.58,0-1.06-.1-1.44-.3s-.57-.44-.57-.73c0-.11.02-.21.05-.29s.11-.18.24-.31l.47-.43c.39.43.71.73.97.9s.51.25.76.25c.37,0,.68-.12.95-.37.26-.25.39-.54.39-.88,0-.39-.4-.94-1.2-1.65-.21-.19-.37-.33-.48-.44-.47-.42-.79-.77-.97-1.05s-.26-.57-.26-.85c0-.63.32-1.21.95-1.76s1.33-.82,2.09-.82c.5,0,.92.09,1.26.28.34.19.5.41.5.66,0,.1-.02.19-.06.28s-.1.17-.18.24Z"/>
        <path class="cls-1" d="M108.84,32.71l.49.54c.15.16.26.29.31.4s.08.23.08.35c0,.16-.05.31-.15.44s-.27.26-.51.39l-.65.34-.5-.53c-.15-.15-.25-.28-.32-.4s-.1-.25-.1-.37c0-.16.05-.31.14-.43.1-.13.25-.25.46-.36l.74-.38Z"/>
      </g>
    </g>
  </g>
</svg>