<?xml version="1.0" encoding="UTF-8"?>
<svg id="Capa_2" data-name="Capa 2" xmlns="http://www.w3.org/2000/svg" viewBox="0 0 109.28 103.47">
  <defs>
    <style>
      .cls-1 {
        fill: #f2e9ce;
      }
    </style>
  </defs>
  <g id="Slide_3" data-name="Slide 3">
    <g id="Opciones_2" data-name="Opciones 2">
      <g>
        <path class="cls-1" d="M16.32,2.01l-.38.34c-.38-.47-.74-.81-1.09-1.01s-.74-.31-1.16-.31c-.94,0-1.73.47-2.36,1.4s-1.11,2.3-1.42,4.1c.55-.54,1.09-.95,1.61-1.21.52-.26,1.06-.39,1.62-.39.72,0,1.32.28,1.78.83s.7,1.26.7,2.13c0,1.31-.42,2.44-1.26,3.39-.84.95-1.86,1.42-3.06,1.42-.96,0-1.72-.36-2.3-1.07-.58-.71-.87-1.67-.87-2.86s.18-2.34.54-3.5.86-2.16,1.49-2.98c.54-.7,1.16-1.25,1.88-1.63.71-.39,1.45-.58,2.21-.58.66,0,1.24.14,1.72.41.48.28.73.58.73.92,0,.09-.03.19-.09.29-.06.1-.16.21-.29.31ZM9.77,7.54c-.02.22-.03.42-.04.62,0,.2-.01.39-.01.58,0,.97.17,1.72.52,2.25.35.53.83.8,1.46.8.74,0,1.33-.3,1.78-.91.45-.61.67-1.4.67-2.39,0-.77-.16-1.37-.47-1.78-.31-.41-.76-.62-1.33-.62-.42,0-.85.12-1.29.37s-.87.6-1.28,1.07Z"/>
        <path class="cls-1" d="M22.14,5.82c.83.04,1.48.3,1.96.78s.72,1.11.72,1.88c0,1.12-.49,2.11-1.47,2.96-.98.86-2.11,1.28-3.39,1.28-.77,0-1.42-.12-1.93-.37-.51-.25-.77-.54-.77-.88,0-.11.03-.22.08-.32s.14-.21.26-.31l.48-.43c.38.45.77.79,1.17,1.01s.81.33,1.24.33c.79,0,1.45-.28,1.97-.83.52-.56.79-1.25.79-2.07s-.23-1.39-.68-1.82c-.45-.43-1.09-.65-1.92-.65-.08,0-.25,0-.52.02-.13.01-.24.02-.31.02l.14-.71c.99-.01,1.82-.28,2.48-.8.66-.52.99-1.16.99-1.91,0-.61-.18-1.11-.53-1.49s-.81-.58-1.36-.58c-.44,0-.81.13-1.12.4s-.56.67-.75,1.2l-.45-.22c-.13-.06-.23-.13-.29-.22s-.09-.2-.09-.33c0-.43.31-.82.94-1.19.62-.36,1.35-.54,2.17-.54.94,0,1.7.24,2.28.71s.86,1.1.86,1.86c0,.7-.26,1.33-.79,1.9s-1.25,1.01-2.18,1.33Z"/>
        <path class="cls-1" d="M28.86,10.13l.49.54c.15.16.26.29.31.4s.08.23.08.35c0,.16-.05.31-.15.44s-.27.26-.51.39l-.65.34-.5-.53c-.15-.15-.25-.28-.32-.4s-.1-.25-.1-.37c0-.16.05-.31.14-.43.1-.13.25-.25.46-.36l.74-.38Z"/>
        <path class="cls-1" d="M40.89,2.01l-.38.34c-.38-.47-.74-.81-1.09-1.01s-.74-.31-1.16-.31c-.94,0-1.73.47-2.36,1.4s-1.11,2.3-1.42,4.1c.55-.54,1.09-.95,1.61-1.21.52-.26,1.06-.39,1.62-.39.72,0,1.32.28,1.78.83s.7,1.26.7,2.13c0,1.31-.42,2.44-1.26,3.39-.84.95-1.86,1.42-3.06,1.42-.96,0-1.72-.36-2.3-1.07-.58-.71-.87-1.67-.87-2.86s.18-2.34.54-3.5.86-2.16,1.49-2.98c.54-.7,1.16-1.25,1.88-1.63.71-.39,1.45-.58,2.21-.58.66,0,1.24.14,1.72.41.48.28.73.58.73.92,0,.09-.03.19-.09.29-.06.1-.16.21-.29.31ZM34.34,7.54c-.02.22-.03.42-.04.62,0,.2-.01.39-.01.58,0,.97.17,1.72.52,2.25.35.53.83.8,1.46.8.74,0,1.33-.3,1.78-.91.45-.61.67-1.4.67-2.39,0-.77-.16-1.37-.47-1.78-.31-.41-.76-.62-1.33-.62-.42,0-.85.12-1.29.37s-.87.6-1.28,1.07Z"/>
        <path class="cls-1" d="M43.22,11.72h.36c.36,0,.63-.03.82-.09.19-.06.32-.16.39-.3.21-.36.49-1.58.84-3.65l.06-.31.28-1.62c.04-.18.16-.92.37-2.24.15-.88.26-1.6.35-2.15-.42,0-.81.01-1.17.04s-.7.06-1.02.11l-.08-.63c.67-.09,1.35-.2,2.02-.35s1.34-.32,2.01-.51c-.18.88-.35,1.77-.52,2.67-.16.89-.32,1.8-.47,2.71l-.33,2.02c-.19,1.17-.33,2.02-.4,2.54-.07.52-.11.86-.11,1.02,0,.3.1.51.29.62s.55.17,1.06.17h.16l-.13.6c-.5-.04-.95-.07-1.37-.09-.41-.02-.77-.03-1.06-.03-.32,0-.69.01-1.11.03s-.88.05-1.39.09l.14-.63Z"/>
        <path class="cls-1" d="M55.85,12.6c.19-.87.4-1.94.62-3.23.03-.17.05-.29.06-.37l.17-.91c.09-.54.17-1.03.22-1.47s.08-.73.08-.88c0-.18-.04-.32-.11-.44-.07-.11-.16-.17-.27-.17-.06,0-.16.03-.28.09-.12.06-.33.19-.62.37l-.25-.47c.15-.11.35-.26.61-.46.75-.57,1.26-.86,1.52-.86.25,0,.44.1.59.31.15.21.22.49.22.84,0,.28-.04.75-.11,1.43-.01.1-.02.18-.03.23.19-.21.45-.49.78-.86,1.18-1.3,1.98-1.95,2.4-1.95.35,0,.63.15.84.44s.33.68.33,1.16c0,.17,0,.36-.02.56-.01.2-.04.45-.07.73.09-.11.23-.26.4-.47,1.37-1.62,2.32-2.43,2.86-2.43.35,0,.64.15.86.44.22.29.33.68.33,1.15,0,.68-.14,1.62-.42,2.83-.28,1.21-.42,2.04-.42,2.47,0,.18.03.32.09.43.06.11.13.16.22.16.08,0,.21-.08.42-.25.2-.17.44-.4.72-.7l.3.54c-.72.75-1.21,1.22-1.46,1.41-.25.19-.47.29-.65.29-.33,0-.59-.12-.77-.37-.18-.25-.27-.6-.27-1.05,0-.66.15-1.61.44-2.85s.44-2.07.44-2.51c0-.21-.04-.38-.11-.49s-.18-.18-.32-.18-.37.15-.71.46c-.34.31-1.02,1.01-2.04,2.1-.21,1.1-.36,2-.46,2.68s-.18,1.29-.22,1.8l-1.55.41c.35-1.8.62-3.3.81-4.48s.29-1.94.29-2.27c0-.22-.04-.39-.12-.51-.08-.12-.18-.19-.29-.19-.16,0-.93.67-2.29,2.02l-.41.4c-.22,1.14-.38,2.06-.49,2.75s-.19,1.3-.24,1.82l-1.57.46Z"/>
        <path class="cls-1" d="M68.5,6.66c1.41-.99,2.47-1.87,3.16-2.63.7-.77,1.05-1.43,1.05-2,0-.38-.12-.68-.36-.93-.24-.24-.54-.36-.9-.36-.33,0-.6.08-.81.22-.21.15-.39.39-.52.72l-.34-.13c-.08-.04-.14-.08-.18-.13s-.06-.12-.06-.19c0-.26.2-.5.6-.72.4-.21.87-.32,1.41-.32.64,0,1.17.17,1.59.52s.63.78.63,1.31c0,.35-.09.68-.28.99-.18.32-.5.68-.94,1.08-.02.01-.07.05-.16.12-.74.63-1.53,1.27-2.36,1.92l-.2.17h2.43c.4,0,.66-.05.79-.14.12-.1.24-.29.33-.58l.38.07c-.07.16-.13.35-.19.54s-.13.5-.22.9h-.11c-1.13-.05-1.97-.07-2.52-.07-.46,0-.85,0-1.17.02s-.6.03-.85.05l-.18-.43Z"/>
        <path class="cls-1" d="M84.45,5.36l-.47.46c-.39-.39-.7-.65-.93-.78s-.47-.19-.71-.19c-.54,0-1.01.4-1.41,1.2-.4.8-.6,1.79-.6,2.96,0,.79.1,1.38.31,1.78s.51.6.91.6c.22,0,.53-.13.91-.38.39-.26.79-.61,1.22-1.05l.36.62c-.68.72-1.26,1.24-1.74,1.56-.48.32-.92.48-1.32.48-.63,0-1.14-.28-1.52-.83-.38-.55-.57-1.29-.57-2.23,0-1.61.41-2.96,1.24-4.06.82-1.1,1.84-1.65,3.04-1.65.44,0,.82.09,1.13.28s.47.4.47.64c0,.09-.03.19-.07.28-.05.09-.14.2-.27.33Z"/>
        <path class="cls-1" d="M89.83,3.85c.87,0,1.54.27,1.99.81s.68,1.33.68,2.38c0,.6-.12,1.23-.35,1.91-.23.68-.55,1.29-.95,1.83-.43.59-.91,1.04-1.46,1.35-.54.31-1.11.47-1.71.47-.79,0-1.41-.28-1.88-.85-.46-.57-.7-1.33-.7-2.29,0-.71.11-1.4.34-2.07s.56-1.28.98-1.83c.42-.54.9-.97,1.44-1.27.54-.3,1.07-.45,1.6-.45ZM89.46,4.7c-.68,0-1.27.47-1.76,1.4s-.74,2.08-.74,3.45c0,.72.12,1.27.37,1.65.25.38.61.57,1.08.57.71,0,1.32-.46,1.82-1.38.5-.92.75-2.04.75-3.38,0-.79-.13-1.38-.38-1.76-.25-.38-.64-.57-1.16-.57Z"/>
        <path class="cls-1" d="M96.32,6.37l1.42-1.39c.5-.47.88-.79,1.13-.94.26-.15.5-.23.73-.23.39,0,.7.17.94.51s.37.79.37,1.34-.14,1.45-.43,2.63c-.29,1.19-.43,2.03-.43,2.54,0,.15.03.27.09.35.06.08.14.12.25.12.05,0,.12-.02.2-.07.08-.04.16-.1.23-.18l.67-.65.31.47-.96.98c-.23.23-.46.42-.68.55s-.42.2-.59.2c-.29,0-.53-.13-.72-.38-.19-.26-.28-.59-.28-1.01,0-.5.15-1.38.45-2.63.3-1.26.45-2.17.45-2.75,0-.22-.05-.39-.14-.52-.09-.13-.21-.2-.36-.2-.23,0-.93.54-2.1,1.63-.31.29-.55.51-.73.68l-.55,3.09-.05.26c-.12.63-.2,1.11-.22,1.44l-1.56.39c.39-1.68.69-3.14.92-4.39.22-1.24.34-2.06.34-2.44,0-.23-.03-.4-.08-.51-.05-.1-.14-.15-.25-.15-.07,0-.19.04-.35.12s-.36.2-.61.36l-.24-.47c.06-.05.16-.13.28-.23.9-.73,1.51-1.09,1.81-1.09s.51.11.65.33c.14.22.21.56.21,1.02,0,.16,0,.35-.03.55s-.04.42-.08.65Z"/>
        <path class="cls-1" d="M4.16,29.38l-2.68,1.39v.09c0,.7.11,1.23.33,1.59.22.36.54.54.95.54.25,0,.55-.11.93-.33.37-.22.85-.58,1.43-1.07l.31.55c-.84.77-1.5,1.31-2,1.61s-.94.45-1.35.45c-.62,0-1.12-.27-1.5-.8-.38-.53-.58-1.23-.58-2.1,0-.62.1-1.28.3-1.98.2-.71.46-1.32.79-1.85.4-.64.87-1.14,1.39-1.49s1.06-.53,1.62-.53,1.04.18,1.43.54c.38.36.58.8.58,1.31,0,.42-.12.76-.35,1.03-.23.27-.76.62-1.59,1.04ZM1.52,29.98l.09-.04c2.08-1.07,3.12-1.89,3.12-2.47,0-.31-.11-.58-.33-.81-.22-.23-.48-.34-.78-.34-.46,0-.88.32-1.24.96-.37.64-.65,1.54-.85,2.71Z"/>
        <path class="cls-1" d="M12.04,26.91l-.49.47-.06-.05c-.67-.61-1.17-.91-1.52-.91s-.6.1-.81.29-.32.45-.32.75c0,.47.41,1.04,1.22,1.72.1.08.17.14.22.18.6.52,1,.92,1.19,1.21.19.29.29.61.29.95,0,.65-.32,1.26-.96,1.82-.64.56-1.37.84-2.19.84-.58,0-1.06-.1-1.44-.3s-.57-.44-.57-.73c0-.11.02-.21.05-.29s.11-.18.24-.31l.47-.43c.39.43.71.73.97.9s.51.25.76.25c.37,0,.68-.12.95-.37.26-.25.39-.54.39-.88,0-.39-.4-.94-1.2-1.65-.21-.19-.37-.33-.48-.44-.47-.42-.79-.77-.97-1.05s-.26-.57-.26-.85c0-.63.32-1.21.95-1.76s1.33-.82,2.09-.82c.5,0,.92.09,1.26.28.34.19.5.41.5.66,0,.1-.02.19-.06.28s-.1.17-.18.24Z"/>
        <path class="cls-1" d="M15.98,24.52l.65.23c-.11.35-.2.7-.29,1.06-.09.36-.17.75-.24,1.15l-.14.89.16-.18c1.32-1.43,2.29-2.14,2.88-2.14.54,0,.98.27,1.31.8.34.53.5,1.24.5,2.13,0,.67-.13,1.36-.39,2.08s-.6,1.35-1.04,1.9c-.45.56-.93.99-1.45,1.29-.52.3-1.05.44-1.59.44-.21,0-.41-.03-.62-.08-.21-.06-.44-.14-.69-.26l-.43,2.81c-.02.11-.03.2-.04.29,0,.09-.01.16-.01.23,0,.29.07.48.21.58.14.1.4.15.79.15h.28l-.12.61c-.35-.02-.69-.04-1.03-.05s-.68-.02-1.02-.02c-.21,0-.62.01-1.25.04-.28.01-.49.02-.64.03l.11-.61h.27c.33,0,.56-.06.69-.19.13-.13.22-.39.29-.78l1.48-8.71c.02-.09.04-.22.07-.4.11-.63.21-1.14.31-1.53l-1.49,1.04-.16-.59c.46-.33.91-.69,1.35-1.05s.88-.76,1.3-1.16ZM15.19,32.85c.28.16.54.28.79.35s.49.11.72.11c.72,0,1.34-.48,1.85-1.46.51-.97.76-2.15.76-3.53,0-.53-.07-.92-.2-1.19s-.34-.4-.61-.4c-.34,0-1.09.54-2.24,1.61-.2.18-.35.32-.47.42l-.61,4.07Z"/>
        <path class="cls-1" d="M29.86,32.47l-.56.54c-.42.42-.75.71-1,.87-.25.16-.47.24-.67.24-.3,0-.54-.13-.71-.38-.18-.25-.26-.6-.26-1.05,0-.17,0-.35.02-.53s.03-.37.05-.55c-1.1,1.07-1.87,1.75-2.31,2.06s-.8.46-1.09.46c-.45,0-.78-.19-1.01-.58-.23-.39-.34-.96-.34-1.72,0-.69.09-1.36.27-2,.18-.64.44-1.25.79-1.81.5-.8,1.07-1.41,1.72-1.83s1.33-.63,2.06-.63c.16,0,.33.02.52.05s.39.08.6.14l1.23-.52c-.35,1.65-.62,3.13-.83,4.45s-.31,2.17-.31,2.58c0,.19.03.33.09.42.06.09.16.14.29.14.09,0,.22-.06.38-.18s.42-.35.79-.7l.29.54ZM26.79,30.63c.11-.53.21-1.11.32-1.75.11-.63.22-1.34.35-2.14-.27-.15-.49-.26-.66-.31-.17-.06-.33-.08-.5-.08-.76,0-1.42.51-2,1.53s-.86,2.22-.86,3.61c0,.44.05.77.15.99.1.22.24.33.44.33s.53-.18.98-.54,1.04-.91,1.77-1.64Z"/>
        <path class="cls-1" d="M36.04,26.96l-.47.46c-.39-.39-.7-.65-.93-.78s-.47-.19-.71-.19c-.54,0-1.01.4-1.41,1.2-.4.8-.6,1.79-.6,2.96,0,.79.1,1.38.31,1.78s.51.6.91.6c.22,0,.53-.13.91-.38.39-.26.79-.61,1.22-1.05l.36.62c-.68.72-1.26,1.24-1.74,1.56-.48.32-.92.48-1.32.48-.63,0-1.14-.28-1.52-.83-.38-.55-.57-1.29-.57-2.23,0-1.61.41-2.96,1.24-4.06.82-1.1,1.84-1.65,3.04-1.65.44,0,.82.09,1.13.28s.47.4.47.64c0,.09-.03.19-.07.28-.05.09-.14.2-.27.33Z"/>
        <path class="cls-1" d="M40.56,31.95l.31.52c-.72.74-1.22,1.22-1.5,1.42s-.53.31-.75.31c-.31,0-.56-.13-.75-.39-.19-.26-.28-.61-.28-1.05,0-.55.17-1.47.52-2.76.35-1.29.52-2.22.52-2.79,0-.15-.04-.26-.11-.35s-.16-.13-.27-.13c-.09,0-.22.04-.37.11s-.34.19-.57.35l-.26-.47,1.17-.85c.22-.16.42-.28.58-.36s.32-.11.47-.11c.28,0,.49.11.66.34.16.23.24.53.24.93,0,.43-.15,1.27-.46,2.51l-.16.63c-.16.66-.29,1.21-.37,1.64s-.13.73-.13.9c0,.15.03.27.1.36s.15.14.25.14c.09,0,.22-.06.37-.18s.42-.36.8-.74ZM40.49,20.62l.5.56c.14.15.24.28.29.39.06.12.08.23.08.35,0,.12-.04.24-.13.35-.09.11-.21.22-.37.32l-.77.43-.56-.67c-.12-.15-.19-.26-.23-.35s-.05-.17-.05-.27c0-.13.04-.25.11-.36.07-.1.19-.2.36-.3l.77-.46Z"/>
        <path class="cls-1" d="M46.37,25.45c.87,0,1.54.27,1.99.81s.68,1.33.68,2.38c0,.6-.12,1.23-.35,1.91-.23.68-.55,1.29-.95,1.83-.43.59-.91,1.04-1.46,1.35-.54.31-1.11.47-1.71.47-.79,0-1.41-.28-1.88-.85-.46-.57-.7-1.33-.7-2.29,0-.71.11-1.4.34-2.07s.56-1.28.98-1.83c.42-.54.9-.97,1.44-1.27.54-.3,1.07-.45,1.6-.45ZM45.99,26.3c-.68,0-1.27.47-1.76,1.4s-.74,2.08-.74,3.45c0,.72.12,1.27.37,1.65.25.38.61.57,1.08.57.71,0,1.32-.46,1.82-1.38.5-.92.75-2.04.75-3.38,0-.79-.13-1.38-.38-1.76-.25-.38-.64-.57-1.16-.57Z"/>
        <path class="cls-1" d="M56.79,24.52l.65.23c-.11.35-.2.7-.29,1.06-.09.36-.17.75-.24,1.15l-.14.89.16-.18c1.32-1.43,2.29-2.14,2.88-2.14.54,0,.98.27,1.31.8.34.53.5,1.24.5,2.13,0,.67-.13,1.36-.39,2.08s-.6,1.35-1.04,1.9c-.45.56-.93.99-1.45,1.29-.52.3-1.05.44-1.59.44-.21,0-.41-.03-.62-.08-.21-.06-.44-.14-.69-.26l-.43,2.81c-.02.11-.03.2-.04.29,0,.09-.01.16-.01.23,0,.29.07.48.21.58.14.1.4.15.79.15h.28l-.12.61c-.35-.02-.69-.04-1.03-.05s-.68-.02-1.02-.02c-.21,0-.62.01-1.25.04-.28.01-.49.02-.64.03l.11-.61h.27c.33,0,.56-.06.69-.19.13-.13.22-.39.29-.78l1.48-8.71c.02-.09.04-.22.07-.4.11-.63.21-1.14.31-1.53l-1.49,1.04-.16-.59c.46-.33.91-.69,1.35-1.05s.88-.76,1.3-1.16ZM56,32.85c.28.16.54.28.79.35s.49.11.72.11c.72,0,1.34-.48,1.85-1.46.51-.97.76-2.15.76-3.53,0-.53-.07-.92-.2-1.19s-.34-.4-.61-.4c-.34,0-1.09.54-2.24,1.61-.2.18-.35.32-.47.42l-.61,4.07Z"/>
        <path class="cls-1" d="M70.66,32.47l-.56.54c-.42.42-.75.71-1,.87-.25.16-.47.24-.67.24-.3,0-.54-.13-.71-.38-.18-.25-.26-.6-.26-1.05,0-.17,0-.35.02-.53s.03-.37.05-.55c-1.1,1.07-1.87,1.75-2.31,2.06s-.8.46-1.09.46c-.45,0-.78-.19-1.01-.58-.23-.39-.34-.96-.34-1.72,0-.69.09-1.36.27-2,.18-.64.44-1.25.79-1.81.5-.8,1.07-1.41,1.72-1.83s1.33-.63,2.06-.63c.16,0,.33.02.52.05s.39.08.6.14l1.23-.52c-.35,1.65-.62,3.13-.83,4.45s-.31,2.17-.31,2.58c0,.19.03.33.09.42.06.09.16.14.29.14.09,0,.22-.06.38-.18s.42-.35.79-.7l.29.54ZM67.6,30.63c.11-.53.21-1.11.32-1.75.11-.63.22-1.34.35-2.14-.27-.15-.49-.26-.66-.31-.17-.06-.33-.08-.5-.08-.76,0-1.42.51-2,1.53s-.86,2.22-.86,3.61c0,.44.05.77.15.99.1.22.24.33.44.33s.53-.18.98-.54,1.04-.91,1.77-1.64Z"/>
        <path class="cls-1" d="M71.71,34.19c.37-1.52.66-2.87.86-4.04.21-1.17.31-2.05.31-2.64,0-.25-.04-.44-.11-.57-.07-.12-.18-.19-.32-.19-.11,0-.4.15-.89.46l-.07.04-.31-.5.13-.1c1.05-.79,1.74-1.19,2.05-1.19.29,0,.49.09.62.28.13.19.19.49.19.92,0,.38-.01.73-.04,1.05-.02.33-.06.61-.11.84.8-1.32,1.37-2.17,1.71-2.54s.66-.55.95-.55c.2,0,.37.07.5.22s.2.33.2.54c0,.13-.03.29-.1.47-.07.19-.21.49-.43.92-.11-.15-.21-.25-.33-.33s-.22-.11-.33-.11c-.22,0-.47.15-.77.45s-.76.91-1.39,1.81c-.2.81-.37,1.58-.5,2.31-.13.73-.24,1.42-.31,2.07l-1.53.36Z"/>
        <path class="cls-1" d="M85.83,32.47l-.56.54c-.42.42-.75.71-1,.87-.25.16-.47.24-.67.24-.3,0-.54-.13-.71-.38-.18-.25-.26-.6-.26-1.05,0-.17,0-.35.02-.53s.03-.37.05-.55c-1.1,1.07-1.87,1.75-2.31,2.06s-.8.46-1.09.46c-.45,0-.78-.19-1.01-.58-.23-.39-.34-.96-.34-1.72,0-.69.09-1.36.27-2,.18-.64.44-1.25.79-1.81.5-.8,1.07-1.41,1.72-1.83s1.33-.63,2.06-.63c.16,0,.33.02.52.05s.39.08.6.14l1.23-.52c-.35,1.65-.62,3.13-.83,4.45s-.31,2.17-.31,2.58c0,.19.03.33.09.42.06.09.16.14.29.14.09,0,.22-.06.38-.18s.42-.35.79-.7l.29.54ZM82.76,30.63c.11-.53.21-1.11.32-1.75.11-.63.22-1.34.35-2.14-.27-.15-.49-.26-.66-.31-.17-.06-.33-.08-.5-.08-.76,0-1.42.51-2,1.53s-.86,2.22-.86,3.61c0,.44.05.77.15.99.1.22.24.33.44.33s.53-.18.98-.54,1.04-.91,1.77-1.64Z"/>
        <path class="cls-1" d="M91.84,33.32h.36c.36,0,.63-.03.82-.09.19-.06.32-.16.39-.3.21-.36.49-1.58.84-3.65l.06-.31.28-1.62c.04-.18.16-.92.37-2.24.15-.88.26-1.6.35-2.15-.42,0-.81.01-1.17.04s-.7.06-1.02.11l-.08-.63c.67-.09,1.35-.2,2.02-.35s1.34-.32,2.01-.51c-.18.88-.35,1.77-.52,2.67-.16.89-.32,1.8-.47,2.71l-.33,2.02c-.19,1.17-.33,2.02-.4,2.54-.07.52-.11.86-.11,1.02,0,.3.1.51.29.62s.55.17,1.06.17h.16l-.13.6c-.5-.04-.95-.07-1.37-.09-.41-.02-.77-.03-1.06-.03-.32,0-.69.01-1.11.03s-.88.05-1.39.09l.14-.63Z"/>
        <path class="cls-1" d="M106.15,21.6c.98,0,1.75.38,2.3,1.13s.83,1.8.83,3.13c0,1.09-.15,2.16-.46,3.2-.31,1.05-.74,1.98-1.3,2.81-.55.8-1.15,1.42-1.8,1.84-.65.42-1.31.63-1.98.63-1,0-1.78-.37-2.32-1.12-.55-.74-.82-1.79-.82-3.15,0-1.11.15-2.18.46-3.23s.74-1.97,1.3-2.79c.55-.8,1.15-1.41,1.81-1.83.65-.42,1.32-.64,1.99-.64ZM105.63,22.59c-.9,0-1.68.72-2.36,2.15-.68,1.43-1.02,3.15-1.02,5.14,0,1.11.17,1.97.5,2.58.33.61.81.91,1.42.91.45,0,.86-.15,1.24-.46.38-.31.72-.76,1.03-1.37.36-.73.65-1.58.86-2.55s.31-1.94.31-2.91c0-1.14-.17-2.01-.5-2.6s-.83-.89-1.48-.89Z"/>
        <path class="cls-1" d="M35.74,49.57l1.42-1.39c.5-.47.88-.79,1.13-.94.26-.15.5-.23.73-.23.39,0,.7.17.94.51s.37.79.37,1.34-.14,1.45-.43,2.63c-.29,1.19-.43,2.03-.43,2.54,0,.15.03.27.09.35.06.08.14.12.25.12.05,0,.12-.02.2-.07.08-.04.16-.1.23-.18l.67-.65.31.47-.96.98c-.23.23-.46.42-.68.55s-.42.2-.59.2c-.29,0-.53-.13-.72-.38-.19-.26-.28-.59-.28-1.01,0-.5.15-1.38.45-2.63.3-1.26.45-2.17.45-2.75,0-.22-.05-.39-.14-.52-.09-.13-.21-.2-.36-.2-.23,0-.93.54-2.1,1.63-.31.29-.55.51-.73.68l-.55,3.09-.05.26c-.12.63-.2,1.11-.22,1.44l-1.56.39c.39-1.68.69-3.14.92-4.39.22-1.24.34-2.06.34-2.44,0-.23-.03-.4-.08-.51-.05-.1-.14-.15-.25-.15-.07,0-.19.04-.35.12s-.36.2-.61.36l-.24-.47c.06-.05.16-.13.28-.23.9-.73,1.51-1.09,1.81-1.09s.51.11.65.33c.14.22.21.56.21,1.02,0,.16,0,.35-.03.55s-.04.42-.08.65Z"/>
        <path class="cls-1" d="M45.67,53.55l.31.52c-.72.74-1.22,1.22-1.5,1.42s-.53.31-.75.31c-.31,0-.56-.13-.75-.39-.19-.26-.28-.61-.28-1.05,0-.55.17-1.47.52-2.76.35-1.29.52-2.22.52-2.79,0-.15-.04-.26-.11-.35s-.16-.13-.27-.13c-.09,0-.22.04-.37.11s-.34.19-.57.35l-.26-.47,1.17-.85c.22-.16.42-.28.58-.36s.32-.11.47-.11c.28,0,.49.11.66.34.16.23.24.53.24.93,0,.43-.15,1.27-.46,2.51l-.16.63c-.16.66-.29,1.21-.37,1.64s-.13.73-.13.9c0,.15.03.27.1.36s.15.14.25.14c.09,0,.22-.06.37-.18s.42-.36.8-.74ZM45.6,42.22l.5.56c.14.15.24.28.29.39.06.12.08.23.08.35,0,.12-.04.24-.13.35-.09.11-.21.22-.37.32l-.77.43-.56-.67c-.12-.15-.19-.26-.23-.35s-.05-.17-.05-.27c0-.13.04-.25.11-.36.07-.1.19-.2.36-.3l.77-.46Z"/>
        <path class="cls-1" d="M52.6,48.56l-.47.46c-.39-.39-.7-.65-.93-.78s-.47-.19-.71-.19c-.54,0-1.01.4-1.41,1.2-.4.8-.6,1.79-.6,2.96,0,.79.1,1.38.31,1.78s.51.6.91.6c.22,0,.53-.13.91-.38.39-.26.79-.61,1.22-1.05l.36.62c-.68.72-1.26,1.24-1.74,1.56-.48.32-.92.48-1.32.48-.63,0-1.14-.28-1.52-.83-.38-.55-.57-1.29-.57-2.23,0-1.61.41-2.96,1.24-4.06.82-1.1,1.84-1.65,3.04-1.65.44,0,.82.09,1.13.28s.47.4.47.64c0,.09-.03.19-.07.28-.05.09-.14.2-.27.33Z"/>
        <path class="cls-1" d="M57.68,41.85c-.28,1.25-.47,2.12-.57,2.62-.11.5-.18.87-.23,1.11l-.77,4.01,1.48-1.41c.49-.47.87-.78,1.12-.93.26-.15.5-.22.73-.22.39,0,.71.17.95.5s.37.78.37,1.34-.14,1.45-.43,2.63c-.29,1.19-.43,2.03-.43,2.54,0,.15.03.27.09.35.06.08.14.12.25.12.06,0,.13-.02.2-.07.08-.04.16-.1.24-.18l.66-.65.31.47-.95.98c-.23.23-.46.42-.69.55-.23.13-.42.2-.59.2-.29,0-.52-.13-.71-.38-.19-.26-.28-.59-.28-1.01,0-.5.15-1.38.45-2.63.3-1.26.45-2.17.45-2.75,0-.22-.05-.39-.14-.52-.09-.13-.21-.2-.36-.2-.22,0-.77.41-1.66,1.23-.5.46-.91.83-1.22,1.11l-.54,3.07c-.01.09-.03.22-.06.39-.11.57-.17,1-.18,1.31l-1.56.4c.25-1.11.57-2.71.94-4.78l.1-.54.4-2.2c.22-1.25.41-2.33.55-3.24s.22-1.42.22-1.55c0-.21-.05-.36-.14-.45-.09-.1-.23-.14-.43-.14-.1,0-.18,0-.24,0-.06,0-.12,0-.19.01l-.05-.52c.51-.07,1.01-.15,1.5-.24s.97-.2,1.43-.32Z"/>
        <path class="cls-1" d="M66.96,47.05c.87,0,1.54.27,1.99.81s.68,1.33.68,2.38c0,.6-.12,1.23-.35,1.91-.23.68-.55,1.29-.95,1.83-.43.59-.91,1.04-1.46,1.35-.54.31-1.11.47-1.71.47-.79,0-1.41-.28-1.88-.85-.46-.57-.7-1.33-.7-2.29,0-.71.11-1.4.34-2.07s.56-1.28.98-1.83c.42-.54.9-.97,1.44-1.27.54-.3,1.07-.45,1.6-.45ZM66.58,47.9c-.68,0-1.27.47-1.76,1.4s-.74,2.08-.74,3.45c0,.72.12,1.27.37,1.65.25.38.61.57,1.08.57.71,0,1.32-.46,1.82-1.38.5-.92.75-2.04.75-3.38,0-.79-.13-1.38-.38-1.76-.25-.38-.64-.57-1.16-.57Z"/>
        <path class="cls-1" d="M75.88,48.51l-.49.47-.06-.05c-.67-.61-1.17-.91-1.52-.91s-.6.1-.81.29-.32.45-.32.75c0,.47.41,1.04,1.22,1.72.1.08.17.14.22.18.6.52,1,.92,1.19,1.21.19.29.29.61.29.95,0,.65-.32,1.26-.96,1.82-.64.56-1.37.84-2.19.84-.58,0-1.06-.1-1.44-.3s-.57-.44-.57-.73c0-.11.02-.21.05-.29s.11-.18.24-.31l.47-.43c.39.43.71.73.97.9s.51.25.76.25c.37,0,.68-.12.95-.37.26-.25.39-.54.39-.88,0-.39-.4-.94-1.2-1.65-.21-.19-.37-.33-.48-.44-.47-.42-.79-.77-.97-1.05s-.26-.57-.26-.85c0-.63.32-1.21.95-1.76s1.33-.82,2.09-.82c.5,0,.92.09,1.26.28.34.19.5.41.5.66,0,.1-.02.19-.06.28s-.1.17-.18.24Z"/>
        <path class="cls-1" d="M6.45,70.16l-.47.46c-.39-.39-.7-.65-.93-.78s-.47-.19-.71-.19c-.54,0-1.01.4-1.41,1.2-.4.8-.6,1.79-.6,2.96,0,.79.1,1.38.31,1.78s.51.6.91.6c.22,0,.53-.13.91-.38.39-.26.79-.61,1.22-1.05l.36.62c-.68.72-1.26,1.24-1.74,1.56-.48.32-.92.48-1.32.48-.63,0-1.14-.28-1.52-.83-.38-.55-.57-1.29-.57-2.23,0-1.61.41-2.96,1.24-4.06.82-1.1,1.84-1.65,3.04-1.65.44,0,.82.09,1.13.28s.47.4.47.64c0,.09-.03.19-.07.28-.05.09-.14.2-.27.33Z"/>
        <path class="cls-1" d="M15.63,75.67l-1.21,1.13c-.22.21-.41.36-.58.45s-.35.13-.53.13c-.26,0-.48-.13-.64-.38-.16-.26-.24-.6-.24-1.02,0-.12,0-.27.03-.44.02-.17.06-.44.13-.81-1.08,1.11-1.85,1.83-2.3,2.16s-.83.5-1.15.5c-.33,0-.61-.16-.83-.47s-.33-.71-.33-1.2c0-.41.18-1.33.53-2.77.09-.34.15-.6.19-.77.12-.49.21-.88.27-1.17s.09-.52.09-.66c0-.12-.03-.21-.09-.29s-.13-.11-.22-.11c-.06,0-.17.04-.34.12s-.4.21-.7.38l-.25-.48c.54-.4,1.02-.72,1.43-.94s.7-.34.87-.34c.24,0,.43.1.57.31.14.21.21.49.21.85,0,.46-.18,1.34-.54,2.65-.36,1.31-.54,2.3-.54,2.95,0,.21.04.36.11.45.07.1.18.15.33.15.16,0,.44-.16.84-.49.4-.33,1.06-.95,1.99-1.87.22-1.05.4-1.95.54-2.68.14-.73.25-1.38.32-1.96l1.58-.38-.19.87c-.33,1.42-.52,2.22-.54,2.38l-.21,1.12c-.11.53-.19,1.04-.25,1.53-.06.49-.09.83-.09,1.03,0,.13.03.24.08.32s.12.11.21.11c.08,0,.23-.08.46-.24s.48-.37.76-.64l.27.5Z"/>
        <path class="cls-1" d="M24.32,75.67l-.56.54c-.42.42-.75.71-1,.87-.25.16-.47.24-.67.24-.3,0-.54-.13-.71-.38-.18-.25-.26-.6-.26-1.05,0-.17,0-.35.02-.53s.03-.37.05-.55c-1.1,1.07-1.87,1.75-2.31,2.06s-.8.46-1.09.46c-.45,0-.78-.19-1.01-.58-.23-.39-.34-.96-.34-1.72,0-.69.09-1.36.27-2,.18-.64.44-1.25.79-1.81.5-.8,1.07-1.41,1.72-1.83s1.33-.63,2.06-.63c.16,0,.33.02.52.05s.39.08.6.14l1.23-.52c-.35,1.65-.62,3.13-.83,4.45s-.31,2.17-.31,2.58c0,.19.03.33.09.42.06.09.16.14.29.14.09,0,.22-.06.38-.18s.42-.35.79-.7l.29.54ZM21.26,73.83c.11-.53.21-1.11.32-1.75.11-.63.22-1.34.35-2.14-.27-.15-.49-.26-.66-.31-.17-.06-.33-.08-.5-.08-.76,0-1.42.51-2,1.53s-.86,2.22-.86,3.61c0,.44.05.77.15.99.1.22.24.33.44.33s.53-.18.98-.54,1.04-.91,1.77-1.64ZM22.3,63.89l1.34.69-3.08,3.1-.57-.31,2.3-3.49Z"/>
        <path class="cls-1" d="M29.89,74.9l-1.49,1.35c-.44.4-.79.67-1.05.83s-.5.23-.73.23c-.53,0-.93-.22-1.21-.67-.28-.45-.42-1.09-.42-1.94,0-1.66.42-3.09,1.26-4.29s1.84-1.79,3-1.79c.23,0,.47.03.72.09.24.06.5.15.76.27l.5-3.18c.02-.12.03-.25.04-.37,0-.13.01-.25.01-.38,0-.23-.05-.4-.14-.48s-.27-.13-.52-.13c-.08,0-.15,0-.23,0-.08,0-.17,0-.26.01l-.04-.52c.49-.05.98-.11,1.47-.19.49-.08.99-.18,1.5-.3-.54,2.81-.99,5.35-1.34,7.62s-.53,3.64-.53,4.13c0,.3.03.51.08.63.06.12.15.18.28.18.07,0,.15-.03.25-.09.1-.06.22-.16.37-.29l.54-.48.29.5-1.01.99c-.35.34-.61.56-.76.65s-.31.14-.46.14c-.31,0-.54-.15-.68-.44s-.21-.75-.21-1.36c0-.13,0-.26,0-.37,0-.11.01-.22.03-.34ZM29.87,74l.66-3.98c-.32-.19-.61-.32-.86-.41-.25-.08-.49-.13-.7-.13-.72,0-1.33.46-1.82,1.38-.49.92-.74,2.07-.74,3.45,0,.56.07.98.2,1.27.13.29.33.43.58.43.18,0,.5-.18.98-.54s1.04-.85,1.7-1.48Z"/>
        <path class="cls-1" d="M34.13,77.39c.37-1.52.66-2.87.86-4.04.21-1.17.31-2.05.31-2.64,0-.25-.04-.44-.11-.57-.07-.12-.18-.19-.32-.19-.11,0-.4.15-.89.46l-.07.04-.31-.5.13-.1c1.05-.79,1.74-1.19,2.05-1.19.29,0,.49.09.62.28.13.19.19.49.19.92,0,.38-.01.73-.04,1.05-.02.33-.06.61-.11.84.8-1.32,1.37-2.17,1.71-2.54s.66-.55.95-.55c.2,0,.37.07.5.22s.2.33.2.54c0,.13-.03.29-.1.47-.07.19-.21.49-.43.92-.11-.15-.21-.25-.33-.33s-.22-.11-.33-.11c-.22,0-.47.15-.77.45s-.76.91-1.39,1.81c-.2.81-.37,1.58-.5,2.31-.13.73-.24,1.42-.31,2.07l-1.53.36Z"/>
        <path class="cls-1" d="M48.94,75.67l-1.21,1.13c-.22.21-.41.36-.58.45s-.35.13-.53.13c-.26,0-.48-.13-.64-.38-.16-.26-.24-.6-.24-1.02,0-.12,0-.27.03-.44.02-.17.06-.44.13-.81-1.08,1.11-1.85,1.83-2.3,2.16s-.83.5-1.15.5c-.33,0-.61-.16-.83-.47s-.33-.71-.33-1.2c0-.41.18-1.33.53-2.77.09-.34.15-.6.19-.77.12-.49.21-.88.27-1.17s.09-.52.09-.66c0-.12-.03-.21-.09-.29s-.13-.11-.22-.11c-.06,0-.17.04-.34.12s-.4.21-.7.38l-.25-.48c.54-.4,1.02-.72,1.43-.94s.7-.34.87-.34c.24,0,.43.1.57.31.14.21.21.49.21.85,0,.46-.18,1.34-.54,2.65-.36,1.31-.54,2.3-.54,2.95,0,.21.04.36.11.45.07.1.18.15.33.15.16,0,.44-.16.84-.49.4-.33,1.06-.95,1.99-1.87.22-1.05.4-1.95.54-2.68.14-.73.25-1.38.32-1.96l1.58-.38-.19.87c-.33,1.42-.52,2.22-.54,2.38l-.21,1.12c-.11.53-.19,1.04-.25,1.53-.06.49-.09.83-.09,1.03,0,.13.03.24.08.32s.12.11.21.11c.08,0,.23-.08.46-.24s.48-.37.76-.64l.27.5Z"/>
        <path class="cls-1" d="M52.48,67.72l.65.23c-.11.35-.2.7-.29,1.06-.09.36-.17.75-.24,1.15l-.14.89.16-.18c1.32-1.43,2.29-2.14,2.88-2.14.54,0,.98.27,1.31.8.34.53.5,1.24.5,2.13,0,.67-.13,1.36-.39,2.08s-.6,1.35-1.04,1.9c-.45.56-.93.99-1.45,1.29-.52.3-1.05.44-1.59.44-.21,0-.41-.03-.62-.08-.21-.06-.44-.14-.69-.26l-.43,2.81c-.02.11-.03.2-.04.29,0,.09-.01.16-.01.23,0,.29.07.48.21.58.14.1.4.15.79.15h.28l-.12.61c-.35-.02-.69-.04-1.03-.05s-.68-.02-1.02-.02c-.21,0-.62.01-1.25.04-.28.01-.49.02-.64.03l.11-.61h.27c.33,0,.56-.06.69-.19.13-.13.22-.39.29-.78l1.48-8.71c.02-.09.04-.22.07-.4.11-.63.21-1.14.31-1.53l-1.49,1.04-.16-.59c.46-.33.91-.69,1.35-1.05s.88-.76,1.3-1.16ZM51.69,76.05c.28.16.54.28.79.35s.49.11.72.11c.72,0,1.34-.48,1.85-1.46.51-.97.76-2.15.76-3.53,0-.53-.07-.92-.2-1.19s-.34-.4-.61-.4c-.34,0-1.09.54-2.24,1.61-.2.18-.35.32-.47.42l-.61,4.07Z"/>
        <path class="cls-1" d="M62.26,75.71l-.82.77c-.37.35-.66.59-.87.72-.21.13-.4.2-.56.2-.34,0-.6-.13-.78-.38s-.27-.62-.27-1.1c0-.39.13-1.26.4-2.61.15-.74.26-1.33.34-1.77l.36-1.98c.23-1.28.41-2.32.53-3.12.12-.8.19-1.28.19-1.45,0-.19-.04-.33-.13-.41s-.23-.13-.41-.13c-.04,0-.11,0-.21,0s-.19,0-.25,0l-.05-.48c.38-.05.8-.12,1.26-.22.46-.09.99-.21,1.61-.35-.64,3.19-1.16,5.94-1.57,8.24-.41,2.3-.61,3.6-.61,3.9,0,.16.03.29.09.39.06.1.15.15.25.15.06,0,.15-.03.25-.1s.23-.16.39-.3l.6-.48.27.48Z"/>
        <path class="cls-1" d="M67.46,72.58l-2.68,1.39v.09c0,.7.11,1.23.33,1.59.22.36.54.54.95.54.25,0,.55-.11.93-.33.37-.22.85-.58,1.43-1.07l.31.55c-.84.77-1.5,1.31-2,1.61s-.94.45-1.35.45c-.62,0-1.12-.27-1.5-.8-.38-.53-.58-1.23-.58-2.1,0-.62.1-1.28.3-1.98.2-.71.46-1.32.79-1.85.4-.64.87-1.14,1.39-1.49s1.06-.53,1.62-.53,1.04.18,1.43.54c.38.36.58.8.58,1.31,0,.42-.12.76-.35,1.03-.23.27-.76.62-1.59,1.04ZM64.82,73.18l.09-.04c2.08-1.07,3.12-1.89,3.12-2.47,0-.31-.11-.58-.33-.81-.22-.23-.48-.34-.78-.34-.46,0-.88.32-1.24.96-.37.64-.65,1.54-.85,2.71Z"/>
        <path class="cls-1" d="M75.34,70.11l-.49.47-.06-.05c-.67-.61-1.17-.91-1.52-.91s-.6.1-.81.29-.32.45-.32.75c0,.47.41,1.04,1.22,1.72.1.08.17.14.22.18.6.52,1,.92,1.19,1.21.19.29.29.61.29.95,0,.65-.32,1.26-.96,1.82-.64.56-1.37.84-2.19.84-.58,0-1.06-.1-1.44-.3s-.57-.44-.57-.73c0-.11.02-.21.05-.29s.11-.18.24-.31l.47-.43c.39.43.71.73.97.9s.51.25.76.25c.37,0,.68-.12.95-.37.26-.25.39-.54.39-.88,0-.39-.4-.94-1.2-1.65-.21-.19-.37-.33-.48-.44-.47-.42-.79-.77-.97-1.05s-.26-.57-.26-.85c0-.63.32-1.21.95-1.76s1.33-.82,2.09-.82c.5,0,.92.09,1.26.28.34.19.5.41.5.66,0,.1-.02.19-.06.28s-.1.17-.18.24Z"/>
        <path class="cls-1" d="M78.25,74.97l.41.43c.2.21.33.39.4.54.07.15.11.31.11.49,0,.48-.25,1.01-.75,1.6s-1.15,1.08-1.94,1.48l-.41-.47c.52-.33.9-.64,1.14-.91.24-.27.36-.53.36-.78,0-.22-.1-.45-.29-.69s-.29-.44-.29-.59c0-.13.05-.26.14-.39s.23-.23.41-.33l.7-.38Z"/>
        <path class="cls-1" d="M90.96,70.16l-.47.46c-.39-.39-.7-.65-.93-.78s-.47-.19-.71-.19c-.54,0-1.01.4-1.41,1.2-.4.8-.6,1.79-.6,2.96,0,.79.1,1.38.31,1.78s.51.6.91.6c.22,0,.53-.13.91-.38.39-.26.79-.61,1.22-1.05l.36.62c-.68.72-1.26,1.24-1.74,1.56-.48.32-.92.48-1.32.48-.63,0-1.14-.28-1.52-.83-.38-.55-.57-1.29-.57-2.23,0-1.61.41-2.96,1.24-4.06.82-1.1,1.84-1.65,3.04-1.65.44,0,.82.09,1.13.28s.47.4.47.64c0,.09-.03.19-.07.28-.05.09-.14.2-.27.33Z"/>
        <path class="cls-1" d="M96.34,68.65c.87,0,1.54.27,1.99.81s.68,1.33.68,2.38c0,.6-.12,1.23-.35,1.91-.23.68-.55,1.29-.95,1.83-.43.59-.91,1.04-1.46,1.35-.54.31-1.11.47-1.71.47-.79,0-1.41-.28-1.88-.85-.46-.57-.7-1.33-.7-2.29,0-.71.11-1.4.34-2.07s.56-1.28.98-1.83c.42-.54.9-.97,1.44-1.27.54-.3,1.07-.45,1.6-.45ZM95.96,69.5c-.68,0-1.27.47-1.76,1.4s-.74,2.08-.74,3.45c0,.72.12,1.27.37,1.65.25.38.61.57,1.08.57.71,0,1.32-.46,1.82-1.38.5-.92.75-2.04.75-3.38,0-.79-.13-1.38-.38-1.76-.25-.38-.64-.57-1.16-.57Z"/>
        <path class="cls-1" d="M102.83,71.17l1.42-1.39c.5-.47.88-.79,1.13-.94.26-.15.5-.23.73-.23.39,0,.7.17.94.51s.37.79.37,1.34-.14,1.45-.43,2.63c-.29,1.19-.43,2.03-.43,2.54,0,.15.03.27.09.35.06.08.14.12.25.12.05,0,.12-.02.2-.07.08-.04.16-.1.23-.18l.67-.65.31.47-.96.98c-.23.23-.46.42-.68.55s-.42.2-.59.2c-.29,0-.53-.13-.72-.38-.19-.26-.28-.59-.28-1.01,0-.5.15-1.38.45-2.63.3-1.26.45-2.17.45-2.75,0-.22-.05-.39-.14-.52-.09-.13-.21-.2-.36-.2-.23,0-.93.54-2.1,1.63-.31.29-.55.51-.73.68l-.55,3.09-.05.26c-.12.63-.2,1.11-.22,1.44l-1.56.39c.39-1.68.69-3.14.92-4.39.22-1.24.34-2.06.34-2.44,0-.23-.03-.4-.08-.51-.05-.1-.14-.15-.25-.15-.07,0-.19.04-.35.12s-.36.2-.61.36l-.24-.47c.06-.05.16-.13.28-.23.9-.73,1.51-1.09,1.81-1.09s.51.11.65.33c.14.22.21.56.21,1.02,0,.16,0,.35-.03.55s-.04.42-.08.65Z"/>
        <path class="cls-1" d="M9.64,85.03c-.14.67-.27,1.29-.38,1.87s-.2,1.08-.27,1.49l-.66,3.86.95-.87c.56-.5.99-.84,1.3-1,.3-.16.6-.24.9-.24.57,0,1.02.24,1.33.72.31.48.47,1.15.47,2.02,0,1.64-.5,3.07-1.49,4.29-.99,1.22-2.13,1.83-3.41,1.83-.49,0-.92-.11-1.3-.33-.37-.22-.7-.56-.97-1.02l1.67-10.24c.04-.21.06-.38.08-.52s.03-.24.03-.31c0-.19-.05-.33-.14-.42-.09-.08-.24-.13-.45-.13-.11,0-.2,0-.25,0s-.12.01-.18.03l-.05-.48c.41-.06.84-.13,1.3-.22s.97-.2,1.52-.34ZM7.68,97.4c.19.22.39.38.61.49.22.11.45.16.7.16.79,0,1.45-.46,1.97-1.38.52-.92.79-2.1.79-3.53,0-.57-.08-1-.22-1.29-.15-.29-.37-.44-.66-.44-.22,0-.54.14-.95.41s-.97.73-1.68,1.35l-.4,2.56c-.06.36-.1.67-.12.93s-.04.51-.04.74Z"/>
        <path class="cls-1" d="M22.14,97.27l-.56.54c-.42.42-.75.71-1,.87-.25.16-.47.24-.67.24-.3,0-.54-.13-.71-.38-.18-.25-.26-.6-.26-1.05,0-.17,0-.35.02-.53s.03-.37.05-.55c-1.1,1.07-1.87,1.75-2.31,2.06s-.8.46-1.09.46c-.45,0-.78-.19-1.01-.58-.23-.39-.34-.96-.34-1.72,0-.69.09-1.36.27-2,.18-.64.44-1.25.79-1.81.5-.8,1.07-1.41,1.72-1.83s1.33-.63,2.06-.63c.16,0,.33.02.52.05s.39.08.6.14l1.23-.52c-.35,1.65-.62,3.13-.83,4.45s-.31,2.17-.31,2.58c0,.19.03.33.09.42.06.09.16.14.29.14.09,0,.22-.06.38-.18s.42-.35.79-.7l.29.54ZM19.07,95.44c.11-.53.21-1.11.32-1.75.11-.63.22-1.34.35-2.14-.27-.15-.49-.26-.66-.31-.17-.06-.33-.08-.5-.08-.76,0-1.42.51-2,1.53s-.86,2.22-.86,3.61c0,.44.05.77.15.99.1.22.24.33.44.33s.53-.18.98-.54,1.04-.91,1.77-1.64Z"/>
        <path class="cls-1" d="M25.52,92.77l1.42-1.39c.5-.47.88-.79,1.13-.94.26-.15.5-.23.73-.23.39,0,.7.17.94.51s.37.79.37,1.34-.14,1.45-.43,2.63c-.29,1.19-.43,2.03-.43,2.54,0,.15.03.27.09.35.06.08.14.12.25.12.05,0,.12-.02.2-.07.08-.04.16-.1.23-.18l.67-.65.31.47-.96.98c-.23.23-.46.42-.68.55s-.42.2-.59.2c-.29,0-.53-.13-.72-.38-.19-.26-.28-.59-.28-1.01,0-.5.15-1.38.45-2.63.3-1.26.45-2.17.45-2.75,0-.22-.05-.39-.14-.52-.09-.13-.21-.2-.36-.2-.23,0-.93.54-2.1,1.63-.31.29-.55.51-.73.68l-.55,3.09-.05.26c-.12.63-.2,1.11-.22,1.44l-1.56.39c.39-1.68.69-3.14.92-4.39.22-1.24.34-2.06.34-2.44,0-.23-.03-.4-.08-.51-.05-.1-.14-.15-.25-.15-.07,0-.19.04-.35.12s-.36.2-.61.36l-.24-.47c.06-.05.16-.13.28-.23.9-.73,1.51-1.09,1.81-1.09s.51.11.65.33c.14.22.21.56.21,1.02,0,.16,0,.35-.03.55s-.04.42-.08.65Z"/>
        <path class="cls-1" d="M37.43,91.76l-.47.46c-.39-.39-.7-.65-.93-.78s-.47-.19-.71-.19c-.54,0-1.01.4-1.41,1.2-.4.8-.6,1.79-.6,2.96,0,.79.1,1.38.31,1.78s.51.6.91.6c.22,0,.53-.13.91-.38.39-.26.79-.61,1.22-1.05l.36.62c-.68.72-1.26,1.24-1.74,1.56-.48.32-.92.48-1.32.48-.63,0-1.14-.28-1.52-.83-.38-.55-.57-1.29-.57-2.23,0-1.61.41-2.96,1.24-4.06.82-1.1,1.84-1.65,3.04-1.65.44,0,.82.09,1.13.28s.47.4.47.64c0,.09-.03.19-.07.28-.05.09-.14.2-.27.33Z"/>
        <path class="cls-1" d="M46.25,97.27l-.56.54c-.42.42-.75.71-1,.87-.25.16-.47.24-.67.24-.3,0-.54-.13-.71-.38-.18-.25-.26-.6-.26-1.05,0-.17,0-.35.02-.53s.03-.37.05-.55c-1.1,1.07-1.87,1.75-2.31,2.06s-.8.46-1.09.46c-.45,0-.78-.19-1.01-.58-.23-.39-.34-.96-.34-1.72,0-.69.09-1.36.27-2,.18-.64.44-1.25.79-1.81.5-.8,1.07-1.41,1.72-1.83s1.33-.63,2.06-.63c.16,0,.33.02.52.05s.39.08.6.14l1.23-.52c-.35,1.65-.62,3.13-.83,4.45s-.31,2.17-.31,2.58c0,.19.03.33.09.42.06.09.16.14.29.14.09,0,.22-.06.38-.18s.42-.35.79-.7l.29.54ZM43.19,95.44c.11-.53.21-1.11.32-1.75.11-.63.22-1.34.35-2.14-.27-.15-.49-.26-.66-.31-.17-.06-.33-.08-.5-.08-.76,0-1.42.51-2,1.53s-.86,2.22-.86,3.61c0,.44.05.77.15.99.1.22.24.33.44.33s.53-.18.98-.54,1.04-.91,1.77-1.64Z"/>
        <path class="cls-1" d="M49.91,101.54c.17.22.35.39.55.51s.4.18.6.18c.54,0,1.02-.43,1.45-1.3.43-.87.64-1.93.64-3.19,0-1.54-.13-2.92-.38-4.13s-.5-1.82-.76-1.82c-.11,0-.22.06-.34.18s-.32.37-.58.74l-.41-.41c.39-.66.74-1.17,1.06-1.52s.59-.53.81-.53c.53,0,.96.59,1.31,1.77.34,1.18.51,2.71.51,4.58,0,.27,0,.54-.02.81s-.03.54-.05.8l.24-.53c1.37-3.05,2.05-4.91,2.05-5.56,0-.17-.03-.32-.08-.46s-.14-.27-.26-.4l.56-.6c.13-.15.26-.25.37-.32s.23-.1.34-.1c.19,0,.33.06.44.18s.16.29.16.5c0,.38-.3,1.28-.89,2.7-.59,1.43-1.35,3-2.27,4.72-1.01,1.87-1.87,3.19-2.57,3.96-.71.77-1.4,1.16-2.08,1.16-.36,0-.65-.08-.87-.24-.21-.16-.32-.38-.32-.65,0-.1.02-.2.07-.29.04-.09.13-.2.26-.32l.47-.44Z"/>
        <path class="cls-1" d="M70.62,97.27l-.56.54c-.42.42-.75.71-1,.87-.25.16-.47.24-.67.24-.3,0-.54-.13-.71-.38-.18-.25-.26-.6-.26-1.05,0-.17,0-.35.02-.53s.03-.37.05-.55c-1.1,1.07-1.87,1.75-2.31,2.06s-.8.46-1.09.46c-.45,0-.78-.19-1.01-.58-.23-.39-.34-.96-.34-1.72,0-.69.09-1.36.27-2,.18-.64.44-1.25.79-1.81.5-.8,1.07-1.41,1.72-1.83s1.33-.63,2.06-.63c.16,0,.33.02.52.05s.39.08.6.14l1.23-.52c-.35,1.65-.62,3.13-.83,4.45s-.31,2.17-.31,2.58c0,.19.03.33.09.42.06.09.16.14.29.14.09,0,.22-.06.38-.18s.42-.35.79-.7l.29.54ZM67.55,95.44c.11-.53.21-1.11.32-1.75.11-.63.22-1.34.35-2.14-.27-.15-.49-.26-.66-.31-.17-.06-.33-.08-.5-.08-.76,0-1.42.51-2,1.53s-.86,2.22-.86,3.61c0,.44.05.77.15.99.1.22.24.33.44.33s.53-.18.98-.54,1.04-.91,1.77-1.64ZM68.59,85.49l1.34.69-3.08,3.1-.57-.31,2.3-3.49Z"/>
        <path class="cls-1" d="M71.66,98.99c.37-1.52.66-2.87.86-4.04.21-1.17.31-2.05.31-2.64,0-.25-.04-.44-.11-.57-.07-.12-.18-.19-.32-.19-.11,0-.4.15-.89.46l-.07.04-.31-.5.13-.1c1.05-.79,1.74-1.19,2.05-1.19.29,0,.49.09.62.28.13.19.19.49.19.92,0,.38-.01.73-.04,1.05-.02.33-.06.61-.11.84.8-1.32,1.37-2.17,1.71-2.54s.66-.55.95-.55c.2,0,.37.07.5.22s.2.33.2.54c0,.13-.03.29-.1.47-.07.19-.21.49-.43.92-.11-.15-.21-.25-.33-.33s-.22-.11-.33-.11c-.22,0-.47.15-.77.45s-.76.91-1.39,1.81c-.2.81-.37,1.58-.5,2.31-.13.73-.24,1.42-.31,2.07l-1.53.36Z"/>
        <path class="cls-1" d="M81.83,85.03c-.14.67-.27,1.29-.38,1.87s-.2,1.08-.27,1.49l-.66,3.86.95-.87c.56-.5.99-.84,1.3-1,.3-.16.6-.24.9-.24.57,0,1.02.24,1.33.72.31.48.47,1.15.47,2.02,0,1.64-.5,3.07-1.49,4.29-.99,1.22-2.13,1.83-3.41,1.83-.49,0-.92-.11-1.3-.33-.37-.22-.7-.56-.97-1.02l1.67-10.24c.04-.21.06-.38.08-.52s.03-.24.03-.31c0-.19-.05-.33-.14-.42-.09-.08-.24-.13-.45-.13-.11,0-.2,0-.25,0s-.12.01-.18.03l-.05-.48c.41-.06.84-.13,1.3-.22s.97-.2,1.52-.34ZM79.87,97.4c.19.22.39.38.61.49.22.11.45.16.7.16.79,0,1.45-.46,1.97-1.38.52-.92.79-2.1.79-3.53,0-.57-.08-1-.22-1.29-.15-.29-.37-.44-.66-.44-.22,0-.54.14-.95.41s-.97.73-1.68,1.35l-.4,2.56c-.06.36-.1.67-.12.93s-.04.51-.04.74Z"/>
        <path class="cls-1" d="M90.88,90.25c.87,0,1.54.27,1.99.81s.68,1.33.68,2.38c0,.6-.12,1.23-.35,1.91-.23.68-.55,1.29-.95,1.83-.43.59-.91,1.04-1.46,1.35-.54.31-1.11.47-1.71.47-.79,0-1.41-.28-1.88-.85-.46-.57-.7-1.33-.7-2.29,0-.71.11-1.4.34-2.07s.56-1.28.98-1.83c.42-.54.9-.97,1.44-1.27.54-.3,1.07-.45,1.6-.45ZM90.51,91.1c-.68,0-1.27.47-1.76,1.4s-.74,2.08-.74,3.45c0,.72.12,1.27.37,1.65.25.38.61.57,1.08.57.71,0,1.32-.46,1.82-1.38.5-.92.75-2.04.75-3.38,0-.79-.13-1.38-.38-1.76-.25-.38-.64-.57-1.16-.57Z"/>
        <path class="cls-1" d="M98.4,97.31l-.82.77c-.37.35-.66.59-.87.72-.21.13-.4.2-.56.2-.34,0-.6-.13-.78-.38s-.27-.62-.27-1.1c0-.39.13-1.26.4-2.61.15-.74.26-1.33.34-1.77l.36-1.98c.23-1.28.41-2.32.53-3.12.12-.8.19-1.28.19-1.45,0-.19-.04-.33-.13-.41s-.23-.13-.41-.13c-.04,0-.11,0-.21,0s-.19,0-.25,0l-.05-.48c.38-.05.8-.12,1.26-.22.46-.09.99-.21,1.61-.35-.64,3.19-1.16,5.94-1.57,8.24-.41,2.3-.61,3.6-.61,3.9,0,.16.03.29.09.39.06.1.15.15.25.15.06,0,.15-.03.25-.1s.23-.16.39-.3l.6-.48.27.48Z"/>
        <path class="cls-1" d="M101.27,96.53l.49.54c.15.16.26.29.31.4s.08.23.08.35c0,.16-.05.31-.15.44s-.27.26-.51.39l-.65.34-.5-.53c-.15-.15-.25-.28-.32-.4s-.1-.25-.1-.37c0-.16.05-.31.14-.43.1-.13.25-.25.46-.36l.74-.38Z"/>
      </g>
    </g>
  </g>
</svg>