<?xml version="1.0" encoding="UTF-8"?>
<svg id="Capa_2" data-name="Capa 2" xmlns="http://www.w3.org/2000/svg" viewBox="0 0 101.29 47.99">
  <defs>
    <style>
      .cls-1 {
        fill: #f2e9ce;
      }
    </style>
  </defs>
  <g id="Slide_3" data-name="Slide 3">
    <g id="Opciones_2" data-name="Opciones 2">
      <g id="Nicho_Premium" data-name="Nicho Premium">
        <g>
          <path class="cls-1" d="M21.56,4.32c0-.61-.03-1.09-.09-1.44-.06-.35-.16-.62-.3-.8-.14-.18-.33-.3-.57-.34s-.55-.07-.91-.07c-.12,0-.18-.07-.18-.21,0-.12.06-.18.18-.18h3.29c.14,0,.24.05.3.14l8.65,11.18h.05V4.32c0-.61-.03-1.09-.1-1.44-.07-.35-.19-.62-.37-.8s-.42-.3-.72-.34c-.3-.05-.7-.07-1.19-.07-.12,0-.18-.07-.18-.21,0-.12.06-.18.18-.18h4.82c.14,0,.21.06.21.18,0,.14-.07.21-.21.21-.37,0-.67.02-.9.07-.24.05-.42.16-.56.34-.14.18-.24.45-.3.8-.06.35-.09.83-.09,1.44v12.85c0,.12-.07.18-.21.18h-.16c-.12,0-.21-.05-.27-.14l-9.72-12.23h-.04v9.23c0,.61.03,1.09.1,1.45s.19.63.37.81c.17.18.41.3.72.34s.7.07,1.19.07c.12,0,.18.07.18.21,0,.12-.06.18-.18.18h-4.84c-.12,0-.18-.06-.18-.18,0-.14.06-.21.18-.21.37,0,.67-.02.91-.07s.43-.16.57-.34c.14-.18.24-.45.3-.81.06-.36.09-.84.09-1.45V4.32Z"/>
          <path class="cls-1" d="M37.42,9.17c0-.37-.02-.67-.06-.9s-.11-.42-.23-.56c-.11-.14-.27-.23-.47-.29-.2-.05-.46-.08-.78-.08-.09,0-.14-.05-.14-.14,0-.11.05-.17.14-.21.44-.05.84-.1,1.19-.16.35-.06.68-.13.99-.19.31-.07.61-.15.9-.24.29-.09.59-.19.89-.3.12-.03.2-.05.23-.05.15,0,.23.08.23.23v7.93c0,.61.02,1.09.07,1.44s.13.62.24.8c.11.18.27.3.47.35.2.05.44.08.73.08.14,0,.21.07.21.21,0,.12-.07.18-.21.18h-5.91c-.11,0-.16-.06-.16-.18,0-.14.05-.21.16-.21.3,0,.55-.03.75-.08.2-.05.35-.17.47-.35.11-.18.19-.45.23-.8s.06-.83.06-1.44v-5.05ZM36.63,2.38c0-.53.17-.96.5-1.28.33-.32.84-.48,1.53-.48.64,0,1.13.16,1.47.48.34.32.51.75.51,1.28s-.17.96-.51,1.29c-.34.33-.83.49-1.47.49-.69,0-1.2-.16-1.53-.49-.33-.33-.5-.76-.5-1.29Z"/>
          <path class="cls-1" d="M43.43,11.75c0-.91.16-1.73.47-2.45.31-.72.73-1.31,1.27-1.79.53-.48,1.16-.85,1.88-1.1.72-.25,1.5-.38,2.32-.38.59,0,1.12.06,1.58.17.46.11.84.26,1.16.43.32.17.56.37.72.59.16.22.24.44.24.65,0,.26-.08.46-.25.59-.17.14-.36.21-.57.21-.3,0-.56-.11-.76-.34-.21-.23-.41-.48-.62-.75-.21-.27-.43-.53-.67-.75s-.55-.34-.91-.34c-.82,0-1.51.42-2.05,1.25-.55.83-.82,2.05-.82,3.67s.32,2.81.95,3.71c.63.91,1.55,1.36,2.75,1.36.61,0,1.22-.15,1.84-.46s1.12-.83,1.52-1.58c.05-.08.11-.11.18-.11.03,0,.06,0,.09.02.09.03.14.08.14.16,0,.03,0,.06-.02.09-.44.92-1.04,1.63-1.78,2.14-.75.51-1.76.77-3.04.77-.76,0-1.48-.12-2.16-.35-.68-.24-1.27-.59-1.78-1.06-.51-.47-.91-1.07-1.21-1.79-.3-.72-.45-1.57-.45-2.55Z"/>
          <path class="cls-1" d="M56.65,3.04c0-.38-.02-.69-.07-.91-.04-.23-.12-.41-.24-.55-.11-.14-.27-.23-.47-.27-.2-.04-.45-.08-.75-.09-.09,0-.14-.05-.14-.14,0-.14.05-.21.14-.23.44-.05.84-.1,1.19-.16.35-.06.68-.12.99-.18.31-.06.61-.13.9-.21.29-.08.59-.16.89-.25.12-.03.2-.05.23-.05.15,0,.23.08.23.23v6.08l-.07,3.45h.07c.05-.23.14-.55.3-.96s.37-.82.64-1.22c.27-.4.62-.75,1.04-1.04.42-.29.91-.43,1.47-.43.4,0,.8.06,1.21.18.41.12.79.35,1.13.69.34.34.62.8.84,1.39.22.59.33,1.36.33,2.31v3.45c0,.62.02,1.12.06,1.49.04.37.11.64.23.83s.27.31.47.37c.2.05.45.08.75.08.11,0,.16.07.16.21,0,.12-.05.18-.16.18h-5.5c-.11,0-.16-.06-.16-.18,0-.11.05-.17.16-.21.2-.03.37-.09.5-.18.14-.09.25-.24.34-.45.09-.21.16-.48.19-.82s.06-.78.06-1.31v-3.38c0-.67-.05-1.22-.14-1.66-.09-.43-.21-.78-.35-1.05s-.32-.45-.51-.56c-.2-.11-.41-.16-.64-.16-.27,0-.54.11-.79.34-.25.23-.48.51-.7.86-.21.34-.4.71-.56,1.1-.16.39-.29.74-.38,1.06v3.54c0,.52.02.95.06,1.29.04.34.1.61.19.81.09.2.21.34.37.42s.34.13.57.15c.12,0,.18.07.18.21,0,.12-.06.18-.18.18h-5.59c-.11,0-.16-.06-.16-.18,0-.14.05-.21.16-.21.3,0,.55-.03.75-.08.2-.05.35-.17.47-.35.11-.18.19-.45.23-.8s.06-.83.06-1.44V3.04Z"/>
          <path class="cls-1" d="M69.61,11.79c0-.88.14-1.68.43-2.4.29-.72.7-1.33,1.22-1.83.52-.5,1.15-.89,1.87-1.17.72-.27,1.51-.41,2.36-.41.9,0,1.71.13,2.44.4.73.27,1.35.65,1.86,1.16.51.5.9,1.11,1.18,1.83.27.72.41,1.52.41,2.42s-.15,1.68-.43,2.38c-.29.7-.69,1.3-1.21,1.79-.52.5-1.14.88-1.86,1.14-.72.27-1.52.4-2.39.4s-1.69-.13-2.41-.39c-.72-.26-1.34-.63-1.86-1.12-.52-.49-.92-1.09-1.2-1.79-.28-.71-.42-1.51-.42-2.41ZM72.62,10.81c0,.61.06,1.28.18,2,.12.72.31,1.4.56,2.02.25.62.58,1.15.98,1.58s.88.64,1.43.64c.78,0,1.4-.37,1.87-1.12.47-.75.71-1.79.71-3.13,0-.61-.06-1.29-.17-2.03-.11-.75-.3-1.44-.55-2.09-.25-.65-.57-1.19-.96-1.62-.39-.43-.86-.65-1.43-.65-.78,0-1.41.4-1.89,1.19-.49.79-.73,1.87-.73,3.22Z"/>
          <path class="cls-1" d="M2.05,34.8c0-.61-.03-1.09-.09-1.44-.06-.35-.16-.62-.3-.8-.14-.18-.33-.3-.57-.34s-.55-.07-.91-.07c-.12,0-.18-.07-.18-.21,0-.12.06-.18.18-.18.44,0,.98,0,1.62-.01.64,0,1.29-.02,1.95-.03.66-.01,1.3-.03,1.91-.03s1.12-.01,1.53-.01c1.05,0,1.97.08,2.76.23.79.15,1.46.4,2,.73.54.34.95.77,1.22,1.31.27.54.41,1.21.41,2s-.19,1.54-.58,2.14c-.39.6-.92,1.1-1.61,1.5-.68.4-1.49.69-2.42.89-.93.2-1.93.3-3.01.32-.18,0-.27-.09-.27-.27,0-.17.09-.25.27-.25.55-.03,1.08-.12,1.61-.26.53-.14.99-.38,1.4-.7.41-.32.75-.74,1-1.26.26-.52.39-1.17.39-1.94s-.1-1.37-.31-1.87-.48-.9-.83-1.2c-.35-.3-.76-.51-1.23-.63-.47-.12-.97-.18-1.51-.18-.21,0-.44,0-.67.01s-.44.02-.6.03v12.43c0,.61.03,1.09.08,1.45.05.36.17.63.35.81.18.18.44.3.78.34.33.05.78.07,1.35.07.12,0,.18.07.18.21,0,.12-.06.18-.18.18H.18c-.12,0-.18-.06-.18-.18,0-.14.06-.21.18-.21.37,0,.67-.02.91-.07s.43-.16.57-.34c.14-.18.24-.45.3-.81.06-.36.09-.84.09-1.45v-9.9Z"/>
          <path class="cls-1" d="M16.85,39.64c0-.37-.03-.67-.09-.9-.06-.24-.16-.42-.29-.55s-.3-.22-.51-.27c-.21-.05-.48-.09-.8-.1-.09,0-.14-.05-.14-.14,0-.11.05-.17.14-.21.44-.05.85-.1,1.22-.16s.72-.13,1.05-.19.64-.15.94-.24c.3-.09.6-.19.92-.3.09-.03.17-.05.23-.05.15,0,.23.08.23.23v3.5h.04c.09-.29.21-.65.35-1.07.14-.43.35-.84.62-1.25.27-.4.61-.75,1.03-1.04.42-.29.95-.43,1.59-.43.47,0,.82.13,1.05.38.23.25.34.53.33.83,0,.31-.13.58-.38.83-.24.25-.6.38-1.07.38-1,0-1.77.16-2.31.47-.53.31-.95.75-1.25,1.31v4.02c0,.61.04,1.09.12,1.45s.22.63.42.81c.2.18.46.3.8.34.33.05.75.07,1.26.07.14,0,.21.07.21.21,0,.12-.07.18-.21.18h-7.17c-.11,0-.16-.06-.16-.18,0-.14.05-.21.16-.21.3,0,.56-.03.78-.08.21-.05.38-.17.51-.35.13-.18.22-.45.29-.8.06-.35.09-.83.09-1.44v-5.05Z"/>
          <path class="cls-1" d="M25.86,42.32c0-.94.13-1.78.38-2.49.25-.72.6-1.32,1.06-1.82.46-.5,1-.87,1.64-1.12.64-.25,1.35-.38,2.12-.38.84,0,1.55.12,2.15.38.59.25,1.08.58,1.46.98.38.4.66.85.83,1.34.17.49.26.97.26,1.44,0,.31-.12.46-.37.46h-6.57c0,.84.07,1.61.21,2.32.14.71.35,1.33.65,1.85.3.53.68.94,1.14,1.23.46.3,1.02.45,1.68.45.61,0,1.21-.15,1.8-.46s1.1-.85,1.51-1.62c.04-.06.11-.09.21-.09.11.05.16.12.16.23,0,.05,0,.09-.02.14-.44.88-1.05,1.58-1.84,2.08-.78.5-1.81.75-3.07.75-.78,0-1.49-.12-2.15-.35-.65-.24-1.22-.59-1.7-1.07-.48-.48-.86-1.07-1.13-1.78-.27-.71-.41-1.53-.41-2.46ZM33.03,40.74c-.03-1.23-.22-2.17-.57-2.8-.35-.63-.84-.95-1.46-.95s-1.15.31-1.53.91c-.38.61-.59,1.55-.62,2.83h4.18Z"/>
          <path class="cls-1" d="M39.26,39.64c0-.37-.03-.67-.09-.9-.06-.24-.16-.42-.29-.55s-.3-.22-.51-.27c-.21-.05-.48-.09-.8-.1-.09,0-.14-.05-.14-.14,0-.11.05-.17.14-.21.9-.11,1.66-.23,2.27-.37.62-.14,1.24-.31,1.86-.53.09-.03.17-.05.23-.05.15,0,.23.08.23.23v3.34h.04c.08-.33.19-.71.35-1.13.16-.42.38-.82.67-1.19s.64-.69,1.06-.94c.42-.25.92-.38,1.5-.38.35,0,.7.05,1.06.15.36.1.69.28,1,.54.31.26.58.62.8,1.07s.37,1.04.45,1.76h.05c.08-.32.19-.69.34-1.1s.36-.8.63-1.15.61-.66,1.02-.9c.41-.24.91-.37,1.48-.37.4,0,.79.06,1.2.18s.76.35,1.08.69c.32.34.58.8.79,1.39.21.59.31,1.36.31,2.31v3.66c0,.61.03,1.09.09,1.44.06.35.16.62.29.8.13.18.3.3.5.35.21.05.46.08.76.08.12,0,.18.07.18.21,0,.12-.06.18-.18.18h-5.75c-.14,0-.21-.06-.21-.18,0-.14.07-.21.21-.21.21,0,.39-.03.54-.09.14-.06.27-.19.37-.38.1-.19.17-.46.22-.81s.07-.81.07-1.39v-3.59c0-.67-.05-1.22-.14-1.66-.09-.43-.22-.78-.38-1.05-.16-.27-.34-.45-.54-.56-.2-.11-.41-.16-.64-.16-.29,0-.55.11-.78.32-.23.21-.43.48-.62.8-.18.32-.34.67-.48,1.05-.14.38-.26.75-.37,1.1v3.75c0,.59.02,1.07.06,1.42s.11.62.21.8c.1.18.23.3.39.37.16.06.35.09.58.09.12,0,.18.07.18.21,0,.12-.06.18-.18.18h-5.34c-.14,0-.21-.06-.21-.18,0-.14.07-.21.21-.21.21,0,.39-.03.54-.09.14-.06.27-.19.38-.38.11-.19.18-.46.23-.81s.07-.81.07-1.39v-3.59c0-.67-.05-1.22-.14-1.66-.09-.43-.22-.78-.38-1.05s-.34-.45-.55-.56c-.21-.11-.42-.16-.63-.16-.3,0-.58.11-.83.33s-.48.5-.67.83c-.2.34-.37.7-.51,1.1s-.27.76-.38,1.1v3.66c0,.59.02,1.07.07,1.42s.12.62.23.8c.11.18.24.3.41.37.17.06.37.09.62.09.12,0,.18.07.18.21,0,.12-.06.18-.18.18h-5.89c-.11,0-.16-.06-.16-.18,0-.14.05-.21.16-.21.3,0,.56-.03.78-.08.21-.05.38-.17.51-.35.13-.18.22-.45.29-.8.06-.35.09-.83.09-1.44v-5.05Z"/>
          <path class="cls-1" d="M60.54,39.64c0-.37-.02-.67-.06-.9s-.11-.42-.23-.56c-.11-.14-.27-.23-.47-.29-.2-.05-.46-.08-.78-.08-.09,0-.14-.05-.14-.14,0-.11.05-.17.14-.21.44-.05.84-.1,1.19-.16.35-.06.68-.13.99-.19.31-.07.61-.15.9-.24.29-.09.59-.19.89-.3.12-.03.2-.05.23-.05.15,0,.23.08.23.23v7.93c0,.61.02,1.09.07,1.44s.13.62.24.8c.11.18.27.3.47.35.2.05.44.08.73.08.14,0,.21.07.21.21,0,.12-.07.18-.21.18h-5.91c-.11,0-.16-.06-.16-.18,0-.14.05-.21.16-.21.3,0,.55-.03.75-.08.2-.05.35-.17.47-.35.11-.18.19-.45.23-.8s.06-.83.06-1.44v-5.05ZM59.74,32.86c0-.53.17-.96.5-1.28.33-.32.84-.48,1.53-.48.64,0,1.13.16,1.47.48.34.32.51.75.51,1.28s-.17.96-.51,1.29c-.34.33-.83.49-1.47.49-.69,0-1.2-.16-1.53-.49-.33-.33-.5-.76-.5-1.29Z"/>
          <path class="cls-1" d="M68,39.71c0-.76-.13-1.26-.38-1.51s-.69-.37-1.31-.39c-.09,0-.14-.05-.14-.14,0-.11.05-.17.14-.21.44-.05.85-.1,1.22-.16s.72-.13,1.05-.19.64-.15.94-.24c.3-.09.6-.19.92-.3.09-.03.17-.05.23-.05.15,0,.23.08.23.23v6.9c0,1.19.17,2.03.5,2.53s.72.74,1.16.74c.29,0,.56-.08.81-.25s.48-.39.67-.66c.2-.27.37-.58.52-.93s.27-.68.37-1.02v-4.37c0-.76-.12-1.26-.35-1.51-.24-.24-.67-.37-1.29-.39-.12,0-.18-.05-.18-.14,0-.11.07-.17.21-.21.44-.05.84-.1,1.21-.16s.71-.13,1.04-.19.64-.15.94-.24c.3-.09.61-.19.92-.3.01-.02.05-.03.1-.03s.09-.01.13-.01c.15,0,.23.08.23.23v7.61c0,.94.06,1.61.17,1.99s.35.57.7.57c.38,0,.74-.24,1.07-.71.03-.08.08-.09.16-.05.06.06.07.14.02.23-.09.17-.2.34-.33.53-.13.18-.29.35-.48.49-.19.14-.42.27-.7.37-.27.1-.61.15-1,.15-.73,0-1.28-.22-1.64-.66-.37-.44-.57-1.01-.62-1.71l-.07-.87h-.05c-.08.29-.2.62-.37,1-.17.37-.4.73-.68,1.06-.29.34-.64.62-1.04.86s-.88.35-1.43.35c-.4,0-.81-.05-1.23-.14-.43-.09-.81-.29-1.16-.59-.35-.3-.64-.74-.87-1.3-.23-.56-.34-1.32-.34-2.26v-3.95Z"/>
          <path class="cls-1" d="M82.73,39.64c0-.37-.03-.67-.09-.9-.06-.24-.16-.42-.29-.55s-.3-.22-.51-.27c-.21-.05-.48-.09-.8-.1-.09,0-.14-.05-.14-.14,0-.11.05-.17.14-.21.9-.11,1.66-.23,2.27-.37.62-.14,1.24-.31,1.86-.53.09-.03.17-.05.23-.05.15,0,.23.08.23.23v3.34h.04c.08-.33.19-.71.35-1.13.16-.42.38-.82.67-1.19s.64-.69,1.06-.94c.42-.25.92-.38,1.5-.38.35,0,.7.05,1.06.15.36.1.69.28,1,.54.31.26.58.62.8,1.07s.37,1.04.45,1.76h.05c.08-.32.19-.69.34-1.1s.36-.8.63-1.15.61-.66,1.02-.9c.41-.24.91-.37,1.48-.37.4,0,.79.06,1.2.18s.76.35,1.08.69c.32.34.58.8.79,1.39.21.59.31,1.36.31,2.31v3.66c0,.61.03,1.09.09,1.44.06.35.16.62.29.8.13.18.3.3.5.35.21.05.46.08.76.08.12,0,.18.07.18.21,0,.12-.06.18-.18.18h-5.75c-.14,0-.21-.06-.21-.18,0-.14.07-.21.21-.21.21,0,.39-.03.54-.09.14-.06.27-.19.37-.38.1-.19.17-.46.22-.81s.07-.81.07-1.39v-3.59c0-.67-.05-1.22-.14-1.66-.09-.43-.22-.78-.38-1.05-.16-.27-.34-.45-.54-.56-.2-.11-.41-.16-.64-.16-.29,0-.55.11-.78.32-.23.21-.43.48-.62.8-.18.32-.34.67-.48,1.05-.14.38-.26.75-.37,1.1v3.75c0,.59.02,1.07.06,1.42s.11.62.21.8c.1.18.23.3.39.37.16.06.35.09.58.09.12,0,.18.07.18.21,0,.12-.06.18-.18.18h-5.34c-.14,0-.21-.06-.21-.18,0-.14.07-.21.21-.21.21,0,.39-.03.54-.09.14-.06.27-.19.38-.38.11-.19.18-.46.23-.81s.07-.81.07-1.39v-3.59c0-.67-.05-1.22-.14-1.66-.09-.43-.22-.78-.38-1.05s-.34-.45-.55-.56c-.21-.11-.42-.16-.63-.16-.3,0-.58.11-.83.33s-.48.5-.67.83c-.2.34-.37.7-.51,1.1s-.27.76-.38,1.1v3.66c0,.59.02,1.07.07,1.42s.12.62.23.8c.11.18.24.3.41.37.17.06.37.09.62.09.12,0,.18.07.18.21,0,.12-.06.18-.18.18h-5.89c-.11,0-.16-.06-.16-.18,0-.14.05-.21.16-.21.3,0,.56-.03.78-.08.21-.05.38-.17.51-.35.13-.18.22-.45.29-.8.06-.35.09-.83.09-1.44v-5.05Z"/>
        </g>
      </g>
    </g>
  </g>
</svg>