<?xml version="1.0" encoding="UTF-8"?>
<svg id="Capa_2" data-name="Capa 2" xmlns="http://www.w3.org/2000/svg" viewBox="0 0 104.94 53.47">
  <defs>
    <style>
      .cls-1 {
        fill: #f2e9ce;
      }
    </style>
  </defs>
  <g id="Slide_3" data-name="Slide 3">
    <g id="Opciones_2" data-name="Opciones 2">
      <g id="Mausoleo_Triple" data-name="Mausoleo Triple">
        <g>
          <path class="cls-1" d="M3.38,4.32c.06-.59.06-1.07.01-1.42-.05-.35-.15-.62-.3-.8-.14-.18-.34-.3-.58-.35-.24-.05-.52-.08-.82-.08-.12,0-.18-.07-.18-.21,0-.12.06-.18.18-.18h3.77s.09.02.15.06c.05.04.09.07.13.1l5.36,12.25h.05L15.5,1.46c.06-.12.15-.18.27-.18h4.38c.12,0,.18.06.18.18,0,.14-.06.21-.18.21-.32,0-.6.03-.83.08-.24.05-.43.17-.57.35-.14.18-.24.45-.29.8s-.04.82.02,1.42l.96,9.9c.06.61.13,1.09.22,1.45.08.36.2.63.34.81.14.18.33.3.57.34.24.05.54.07.9.07.12,0,.18.07.18.21,0,.12-.06.18-.18.18h-7.35c-.14,0-.21-.06-.21-.18,0-.14.07-.21.21-.21.43,0,.79-.02,1.08-.07s.53-.16.71-.34c.17-.18.29-.45.35-.81s.06-.84,0-1.45l-.94-10.29h-.05l-4.57,13.05c-.11.21-.26.32-.46.32h-.55c-.2,0-.37-.11-.5-.32L3.83,5.1h-.05l-.94,9.12c-.06.61-.07,1.09-.03,1.45s.13.63.29.81c.15.18.37.3.65.34.28.05.63.07,1.04.07.14,0,.21.07.21.21,0,.12-.07.18-.21.18H.16c-.11,0-.16-.06-.16-.18,0-.14.05-.21.16-.21.37,0,.67-.02.91-.07s.44-.16.59-.34c.15-.18.28-.45.38-.81.1-.36.18-.84.24-1.45l1.1-9.9Z"/>
          <path class="cls-1" d="M22.94,15.18c0-.78.22-1.39.65-1.85.43-.46.97-.83,1.62-1.11.65-.28,1.35-.51,2.1-.69.75-.17,1.45-.36,2.09-.56v-1.62c0-.35-.02-.69-.07-1.02-.05-.33-.13-.62-.24-.87-.11-.25-.28-.45-.49-.61s-.48-.23-.8-.23c-.38,0-.69.14-.92.42-.24.28-.45.59-.65.94-.2.34-.41.66-.64.94-.23.28-.53.42-.91.42-.61,0-.91-.3-.91-.92,0-.37.12-.69.35-.97.24-.28.54-.52.9-.71s.77-.34,1.22-.45c.45-.11.89-.16,1.31-.16.64,0,1.25.07,1.83.21.58.14,1.09.38,1.53.72s.79.82,1.05,1.42c.26.6.39,1.36.39,2.27v4.14c0,.72.05,1.2.16,1.44.11.24.28.37.53.37.18,0,.36-.07.52-.21.17-.14.33-.33.5-.57.01-.05.04-.07.07-.07.01,0,.04.01.07.05.05.03.07.07.07.11,0,.01,0,.04-.02.07-.24.44-.54.79-.89,1.03-.35.24-.87.37-1.55.37-.76,0-1.3-.21-1.62-.62-.32-.41-.5-.92-.55-1.51l-.02-1.12h-.09c-.09.43-.25.84-.47,1.23s-.49.74-.81,1.04-.69.53-1.11.71c-.42.18-.88.26-1.38.26-.38,0-.74-.04-1.08-.13-.34-.08-.64-.22-.9-.4-.26-.18-.46-.42-.6-.71-.14-.29-.22-.65-.22-1.07ZM25.75,14.7c0,.44.11.79.34,1.05.23.26.55.39.96.39.29,0,.57-.09.84-.26.27-.17.52-.42.73-.72s.39-.68.54-1.12c.14-.44.22-.92.24-1.44v-1.28c-.46.18-.9.38-1.33.58-.43.21-.82.44-1.16.71-.34.27-.62.57-.83.9s-.32.73-.32,1.19Z"/>
          <path class="cls-1" d="M36.27,9.24c0-.76-.13-1.26-.38-1.51s-.69-.37-1.31-.39c-.09,0-.14-.05-.14-.14,0-.11.05-.17.14-.21.44-.05.85-.1,1.22-.16s.72-.13,1.05-.19.64-.15.94-.24c.3-.09.6-.19.92-.3.09-.03.17-.05.23-.05.15,0,.23.08.23.23v6.9c0,1.19.17,2.03.5,2.53s.72.74,1.16.74c.29,0,.56-.08.81-.25s.48-.39.67-.66c.2-.27.37-.58.52-.93s.27-.68.37-1.02v-4.37c0-.76-.12-1.26-.35-1.51-.24-.24-.67-.37-1.29-.39-.12,0-.18-.05-.18-.14,0-.11.07-.17.21-.21.44-.05.84-.1,1.21-.16s.71-.13,1.04-.19.64-.15.94-.24c.3-.09.61-.19.92-.3.01-.02.05-.03.1-.03s.09-.01.13-.01c.15,0,.23.08.23.23v7.61c0,.94.06,1.61.17,1.99s.35.57.7.57c.38,0,.74-.24,1.07-.71.03-.08.08-.09.16-.05.06.06.07.14.02.23-.09.17-.2.34-.33.53-.13.18-.29.35-.48.49-.19.14-.42.27-.7.37-.27.1-.61.15-1,.15-.73,0-1.28-.22-1.64-.66-.37-.44-.57-1.01-.62-1.71l-.07-.87h-.05c-.08.29-.2.62-.37,1-.17.37-.4.73-.68,1.06-.29.34-.64.62-1.04.86s-.88.35-1.43.35c-.4,0-.81-.05-1.23-.14-.43-.09-.81-.29-1.16-.59-.35-.3-.64-.74-.87-1.3-.23-.56-.34-1.32-.34-2.26v-3.95Z"/>
          <path class="cls-1" d="M50.06,9.28c0-.64.12-1.17.35-1.59.24-.42.55-.75.95-1.01.4-.25.84-.43,1.35-.53.5-.1,1.01-.15,1.53-.15,1.02,0,1.82.15,2.41.43.59.29.88.78.88,1.46,0,.29-.06.54-.19.77-.13.22-.3.33-.51.33-.12,0-.25-.07-.38-.21-.13-.14-.24-.3-.33-.48-.17-.55-.45-.96-.83-1.25s-.8-.42-1.24-.42c-.47,0-.86.1-1.16.31-.3.21-.46.6-.46,1.18,0,.32.08.6.25.85.17.24.38.46.64.65.26.19.54.36.86.51.31.15.62.3.92.46.35.18.7.38,1.04.58.34.21.65.44.92.71.27.27.49.58.66.94.17.36.25.79.25,1.29,0,.59-.12,1.1-.35,1.53s-.56.78-.98,1.05-.91.48-1.47.61c-.56.13-1.17.19-1.83.19-1.05,0-1.88-.15-2.5-.46s-.92-.82-.92-1.55c0-.3.09-.58.27-.83.18-.25.41-.38.68-.38.24,0,.37.11.37.32,0,.12-.02.22-.05.29s-.05.18-.05.33c0,.32.07.58.21.79.14.21.32.37.54.5s.46.22.71.27.49.08.72.08c.58,0,1.06-.13,1.45-.39.39-.26.58-.73.58-1.42,0-.35-.08-.65-.23-.9-.15-.25-.35-.47-.61-.66s-.52-.37-.82-.53-.6-.32-.9-.47c-.33-.17-.66-.35-.98-.54s-.61-.41-.87-.66-.47-.54-.63-.87c-.16-.33-.24-.71-.24-1.16Z"/>
          <path class="cls-1" d="M60.08,11.79c0-.88.14-1.68.43-2.4.29-.72.7-1.33,1.22-1.83.52-.5,1.15-.89,1.87-1.17.72-.27,1.51-.41,2.36-.41.9,0,1.71.13,2.44.4.73.27,1.35.65,1.86,1.16.51.5.9,1.11,1.18,1.83.27.72.41,1.52.41,2.42s-.15,1.68-.43,2.38c-.29.7-.69,1.3-1.21,1.79-.52.5-1.14.88-1.86,1.14-.72.27-1.52.4-2.39.4s-1.69-.13-2.41-.39c-.72-.26-1.34-.63-1.86-1.12-.52-.49-.92-1.09-1.2-1.79-.28-.71-.42-1.51-.42-2.41ZM63.09,10.81c0,.61.06,1.28.18,2,.12.72.31,1.4.56,2.02.25.62.58,1.15.98,1.58s.88.64,1.43.64c.78,0,1.4-.37,1.87-1.12.47-.75.71-1.79.71-3.13,0-.61-.06-1.29-.17-2.03-.11-.75-.3-1.44-.55-2.09-.25-.65-.57-1.19-.96-1.62-.39-.43-.86-.65-1.43-.65-.78,0-1.41.4-1.89,1.19-.49.79-.73,1.87-.73,3.22Z"/>
          <path class="cls-1" d="M73.46,16.89c.3,0,.56-.03.78-.08.21-.05.38-.17.51-.35.13-.18.22-.45.29-.8.06-.35.09-.83.09-1.44V3.04c0-.38-.03-.69-.09-.93-.06-.24-.16-.42-.29-.55-.13-.13-.3-.22-.51-.26-.21-.04-.48-.08-.8-.09-.09,0-.14-.05-.14-.14,0-.14.05-.21.14-.23.9-.11,1.66-.22,2.27-.34s1.24-.27,1.86-.46c.09-.03.17-.05.23-.05.15,0,.23.08.23.23v13.99c0,.61.03,1.09.08,1.44.05.35.14.62.26.8.12.18.29.3.49.35.21.05.46.08.76.08.12,0,.18.07.18.21,0,.12-.06.18-.18.18h-6.16c-.11,0-.16-.06-.16-.18,0-.14.05-.21.16-.21Z"/>
          <path class="cls-1" d="M81.22,11.84c0-.94.13-1.78.38-2.49.25-.72.6-1.32,1.06-1.82.46-.5,1-.87,1.64-1.12.64-.25,1.35-.38,2.12-.38.84,0,1.55.12,2.15.38.59.25,1.08.58,1.46.98.38.4.66.85.83,1.34.17.49.26.97.26,1.44,0,.31-.12.46-.37.46h-6.57c0,.84.07,1.61.21,2.32.14.71.35,1.33.65,1.85.3.53.68.94,1.14,1.23.46.3,1.02.45,1.68.45.61,0,1.21-.15,1.8-.46s1.1-.85,1.51-1.62c.04-.06.11-.09.21-.09.11.05.16.12.16.23,0,.05,0,.09-.02.14-.44.88-1.05,1.58-1.84,2.08-.78.5-1.81.75-3.07.75-.78,0-1.49-.12-2.15-.35-.65-.24-1.22-.59-1.7-1.07-.48-.48-.86-1.07-1.13-1.78-.27-.71-.41-1.53-.41-2.46ZM88.39,10.26c-.03-1.23-.22-2.17-.57-2.8-.35-.63-.84-.95-1.46-.95s-1.15.31-1.53.91c-.38.61-.59,1.55-.62,2.83h4.18Z"/>
          <path class="cls-1" d="M93.16,11.79c0-.88.14-1.68.43-2.4.29-.72.7-1.33,1.22-1.83.52-.5,1.15-.89,1.87-1.17.72-.27,1.51-.41,2.36-.41.9,0,1.71.13,2.44.4.73.27,1.35.65,1.86,1.16.51.5.9,1.11,1.18,1.83.27.72.41,1.52.41,2.42s-.15,1.68-.43,2.38c-.29.7-.69,1.3-1.21,1.79-.52.5-1.14.88-1.86,1.14-.72.27-1.52.4-2.39.4s-1.69-.13-2.41-.39c-.72-.26-1.34-.63-1.86-1.12-.52-.49-.92-1.09-1.2-1.79-.28-.71-.42-1.51-.42-2.41ZM96.17,10.81c0,.61.06,1.28.18,2,.12.72.31,1.4.56,2.02.25.62.58,1.15.98,1.58s.88.64,1.43.64c.78,0,1.4-.37,1.87-1.12.47-.75.71-1.79.71-3.13,0-.61-.06-1.29-.17-2.03-.11-.75-.3-1.44-.55-2.09-.25-.65-.57-1.19-.96-1.62-.39-.43-.86-.65-1.43-.65-.78,0-1.41.4-1.89,1.19-.49.79-.73,1.87-.73,3.22Z"/>
          <path class="cls-1" d="M25.87,32.31h-.64c-1.11,0-1.97.3-2.57.91-.6.61-1.05,1.4-1.34,2.38-.04.09-.13.14-.25.14-.04,0-.09-.02-.12-.05-.04-.03-.05-.07-.03-.11l.37-3.63c.03-.12.11-.18.23-.18h11.85c.15,0,.23.06.23.18l.39,3.63c0,.11-.06.16-.18.16s-.21-.05-.25-.14c-.29-.97-.73-1.77-1.33-2.38-.6-.61-1.46-.91-2.57-.91h-.62v12.39c0,.61.03,1.09.09,1.45s.17.63.33.81c.16.18.37.3.64.34.27.05.61.07,1.04.07.12,0,.18.07.18.21,0,.12-.06.18-.18.18h-7.37c-.11,0-.16-.06-.16-.18,0-.14.05-.21.16-.21.43,0,.78-.02,1.05-.07.27-.05.49-.16.65-.34.16-.18.27-.45.33-.81.06-.36.09-.84.09-1.45v-12.39Z"/>
          <path class="cls-1" d="M35.26,39.64c0-.37-.03-.67-.09-.9-.06-.24-.16-.42-.29-.55s-.3-.22-.51-.27c-.21-.05-.48-.09-.8-.1-.09,0-.14-.05-.14-.14,0-.11.05-.17.14-.21.44-.05.85-.1,1.22-.16s.72-.13,1.05-.19.64-.15.94-.24c.3-.09.6-.19.92-.3.09-.03.17-.05.23-.05.15,0,.23.08.23.23v3.5h.04c.09-.29.21-.65.35-1.07.14-.43.35-.84.62-1.25.27-.4.61-.75,1.03-1.04.42-.29.95-.43,1.59-.43.47,0,.82.13,1.05.38.23.25.34.53.33.83,0,.31-.13.58-.38.83-.24.25-.6.38-1.07.38-1,0-1.77.16-2.31.47-.53.31-.95.75-1.25,1.31v4.02c0,.61.04,1.09.12,1.45s.22.63.42.81c.2.18.46.3.8.34.33.05.75.07,1.26.07.14,0,.21.07.21.21,0,.12-.07.18-.21.18h-7.17c-.11,0-.16-.06-.16-.18,0-.14.05-.21.16-.21.3,0,.56-.03.78-.08.21-.05.38-.17.51-.35.13-.18.22-.45.29-.8.06-.35.09-.83.09-1.44v-5.05Z"/>
          <path class="cls-1" d="M45.73,39.64c0-.37-.02-.67-.06-.9s-.11-.42-.23-.56c-.11-.14-.27-.23-.47-.29-.2-.05-.46-.08-.78-.08-.09,0-.14-.05-.14-.14,0-.11.05-.17.14-.21.44-.05.84-.1,1.19-.16.35-.06.68-.13.99-.19.31-.07.61-.15.9-.24.29-.09.59-.19.89-.3.12-.03.2-.05.23-.05.15,0,.23.08.23.23v7.93c0,.61.02,1.09.07,1.44s.13.62.24.8c.11.18.27.3.47.35.2.05.44.08.73.08.14,0,.21.07.21.21,0,.12-.07.18-.21.18h-5.91c-.11,0-.16-.06-.16-.18,0-.14.05-.21.16-.21.3,0,.55-.03.75-.08.2-.05.35-.17.47-.35.11-.18.19-.45.23-.8s.06-.83.06-1.44v-5.05ZM44.93,32.86c0-.53.17-.96.5-1.28.33-.32.84-.48,1.53-.48.64,0,1.13.16,1.47.48.34.32.51.75.51,1.28s-.17.96-.51,1.29c-.34.33-.83.49-1.47.49-.69,0-1.2-.16-1.53-.49-.33-.33-.5-.76-.5-1.29Z"/>
          <path class="cls-1" d="M53.2,39.64c0-.37-.03-.67-.09-.9-.06-.24-.16-.42-.29-.55s-.3-.22-.51-.27c-.21-.05-.48-.09-.8-.1-.09,0-.14-.05-.14-.14,0-.12.05-.19.14-.21.9-.11,1.66-.23,2.27-.37.62-.14,1.24-.31,1.86-.53.09-.03.17-.05.23-.05.15,0,.23.08.23.23v2.7h.04c.14-.32.31-.66.51-1.01.21-.35.46-.67.78-.95s.67-.52,1.08-.71c.41-.19.89-.29,1.44-.29,1.37,0,2.42.46,3.14,1.38s1.08,2.33,1.08,4.24c0,1.05-.16,1.95-.47,2.69-.31.74-.72,1.34-1.23,1.81-.51.47-1.08.81-1.72,1.03-.64.22-1.28.33-1.92.33-.82,0-1.56-.22-2.21-.66-.08-.05-.11-.11-.11-.21,0-.05,0-.09.02-.14.05-.09.09-.14.14-.14s.09.02.14.07c.43.3.87.46,1.32.46.91,0,1.68-.45,2.29-1.34.62-.89.92-2.21.92-3.97,0-1.57-.22-2.74-.65-3.52s-1.02-1.17-1.75-1.17c-.33,0-.64.09-.92.26-.28.18-.54.4-.76.69-.23.28-.44.61-.63.97-.19.37-.37.75-.54,1.14v9.88c0,.61.03,1.1.08,1.46.05.37.14.64.27.83.13.19.3.32.51.38s.47.09.78.09c.12,0,.18.07.18.21,0,.12-.06.18-.18.18h-6.21c-.11,0-.16-.06-.16-.18,0-.14.05-.21.16-.21.3,0,.56-.03.78-.09s.38-.19.51-.38c.13-.19.22-.47.29-.83.06-.37.09-.85.09-1.46v-10.68Z"/>
          <path class="cls-1" d="M66,47.37c.3,0,.56-.03.78-.08.21-.05.38-.17.51-.35.13-.18.22-.45.29-.8.06-.35.09-.83.09-1.44v-11.18c0-.38-.03-.69-.09-.93-.06-.24-.16-.42-.29-.55-.13-.13-.3-.22-.51-.26-.21-.04-.48-.08-.8-.09-.09,0-.14-.05-.14-.14,0-.14.05-.21.14-.23.9-.11,1.66-.22,2.27-.34s1.24-.27,1.86-.46c.09-.03.17-.05.23-.05.15,0,.23.08.23.23v13.99c0,.61.03,1.09.08,1.44.05.35.14.62.26.8.12.18.29.3.49.35.21.05.46.08.76.08.12,0,.18.07.18.21,0,.12-.06.18-.18.18h-6.16c-.11,0-.16-.06-.16-.18,0-.14.05-.21.16-.21Z"/>
          <path class="cls-1" d="M73.77,42.32c0-.94.13-1.78.38-2.49.25-.72.6-1.32,1.06-1.82.46-.5,1-.87,1.64-1.12.64-.25,1.35-.38,2.12-.38.84,0,1.55.12,2.15.38.59.25,1.08.58,1.46.98.38.4.66.85.83,1.34.17.49.26.97.26,1.44,0,.31-.12.46-.37.46h-6.57c0,.84.07,1.61.21,2.32.14.71.35,1.33.65,1.85.3.53.68.94,1.14,1.23.46.3,1.02.45,1.68.45.61,0,1.21-.15,1.8-.46s1.1-.85,1.51-1.62c.04-.06.11-.09.21-.09.11.05.16.12.16.23,0,.05,0,.09-.02.14-.44.88-1.05,1.58-1.84,2.08-.78.5-1.81.75-3.07.75-.78,0-1.49-.12-2.15-.35-.65-.24-1.22-.59-1.7-1.07-.48-.48-.86-1.07-1.13-1.78-.27-.71-.41-1.53-.41-2.46ZM80.93,40.74c-.03-1.23-.22-2.17-.57-2.8-.35-.63-.84-.95-1.46-.95s-1.15.31-1.53.91c-.38.61-.59,1.55-.62,2.83h4.18Z"/>
        </g>
      </g>
    </g>
  </g>
</svg>