<?xml version="1.0" encoding="UTF-8"?>
<svg id="Capa_2" data-name="Capa 2" xmlns="http://www.w3.org/2000/svg" viewBox="0 0 85.08 48.03">
  <defs>
    <style>
      .cls-1 {
        fill: #f2e9ce;
      }
    </style>
  </defs>
  <g id="Slide_3" data-name="Slide 3">
    <g id="Opciones_2" data-name="Opciones 2">
      <g id="Nicho_Sencillo" data-name="Nicho Sencillo">
        <g>
          <path class="cls-1" d="M13.34,4.32c0-.61-.03-1.09-.09-1.44-.06-.35-.16-.62-.3-.8-.14-.18-.33-.3-.57-.34s-.55-.07-.91-.07c-.12,0-.18-.07-.18-.21,0-.12.06-.18.18-.18h3.29c.14,0,.24.05.3.14l8.65,11.18h.05V4.32c0-.61-.03-1.09-.1-1.44-.07-.35-.19-.62-.37-.8s-.42-.3-.72-.34c-.3-.05-.7-.07-1.19-.07-.12,0-.18-.07-.18-.21,0-.12.06-.18.18-.18h4.82c.14,0,.21.06.21.18,0,.14-.07.21-.21.21-.37,0-.67.02-.9.07-.24.05-.42.16-.56.34-.14.18-.24.45-.3.8-.06.35-.09.83-.09,1.44v12.85c0,.12-.07.18-.21.18h-.16c-.12,0-.21-.05-.27-.14L13.98,4.98h-.04v9.23c0,.61.03,1.09.1,1.45s.19.63.37.81c.17.18.41.3.72.34s.7.07,1.19.07c.12,0,.18.07.18.21,0,.12-.06.18-.18.18h-4.84c-.12,0-.18-.06-.18-.18,0-.14.06-.21.18-.21.37,0,.67-.02.91-.07s.43-.16.57-.34c.14-.18.24-.45.3-.81.06-.36.09-.84.09-1.45V4.32Z"/>
          <path class="cls-1" d="M29.21,9.17c0-.37-.02-.67-.06-.9s-.11-.42-.23-.56c-.11-.14-.27-.23-.47-.29-.2-.05-.46-.08-.78-.08-.09,0-.14-.05-.14-.14,0-.11.05-.17.14-.21.44-.05.84-.1,1.19-.16.35-.06.68-.13.99-.19.31-.07.61-.15.9-.24.29-.09.59-.19.89-.3.12-.03.2-.05.23-.05.15,0,.23.08.23.23v7.93c0,.61.02,1.09.07,1.44s.13.62.24.8c.11.18.27.3.47.35.2.05.44.08.73.08.14,0,.21.07.21.21,0,.12-.07.18-.21.18h-5.91c-.11,0-.16-.06-.16-.18,0-.14.05-.21.16-.21.3,0,.55-.03.75-.08.2-.05.35-.17.47-.35.11-.18.19-.45.23-.8s.06-.83.06-1.44v-5.05ZM28.41,2.38c0-.53.17-.96.5-1.28.33-.32.84-.48,1.53-.48.64,0,1.13.16,1.47.48.34.32.51.75.51,1.28s-.17.96-.51,1.29c-.34.33-.83.49-1.47.49-.69,0-1.2-.16-1.53-.49-.33-.33-.5-.76-.5-1.29Z"/>
          <path class="cls-1" d="M35.21,11.75c0-.91.16-1.73.47-2.45.31-.72.73-1.31,1.27-1.79.53-.48,1.16-.85,1.88-1.1.72-.25,1.5-.38,2.32-.38.59,0,1.12.06,1.58.17.46.11.84.26,1.16.43.32.17.56.37.72.59.16.22.24.44.24.65,0,.26-.08.46-.25.59-.17.14-.36.21-.57.21-.3,0-.56-.11-.76-.34-.21-.23-.41-.48-.62-.75-.21-.27-.43-.53-.67-.75s-.55-.34-.91-.34c-.82,0-1.51.42-2.05,1.25-.55.83-.82,2.05-.82,3.67s.32,2.81.95,3.71c.63.91,1.55,1.36,2.75,1.36.61,0,1.22-.15,1.84-.46s1.12-.83,1.52-1.58c.05-.08.11-.11.18-.11.03,0,.06,0,.09.02.09.03.14.08.14.16,0,.03,0,.06-.02.09-.44.92-1.04,1.63-1.78,2.14-.75.51-1.76.77-3.04.77-.76,0-1.48-.12-2.16-.35-.68-.24-1.27-.59-1.78-1.06-.51-.47-.91-1.07-1.21-1.79-.3-.72-.45-1.57-.45-2.55Z"/>
          <path class="cls-1" d="M48.43,3.04c0-.38-.02-.69-.07-.91-.04-.23-.12-.41-.24-.55-.11-.14-.27-.23-.47-.27-.2-.04-.45-.08-.75-.09-.09,0-.14-.05-.14-.14,0-.14.05-.21.14-.23.44-.05.84-.1,1.19-.16.35-.06.68-.12.99-.18.31-.06.61-.13.9-.21.29-.08.59-.16.89-.25.12-.03.2-.05.23-.05.15,0,.23.08.23.23v6.08l-.07,3.45h.07c.05-.23.14-.55.3-.96s.37-.82.64-1.22c.27-.4.62-.75,1.04-1.04.42-.29.91-.43,1.47-.43.4,0,.8.06,1.21.18.41.12.79.35,1.13.69.34.34.62.8.84,1.39.22.59.33,1.36.33,2.31v3.45c0,.62.02,1.12.06,1.49.04.37.11.64.23.83s.27.31.47.37c.2.05.45.08.75.08.11,0,.16.07.16.21,0,.12-.05.18-.16.18h-5.5c-.11,0-.16-.06-.16-.18,0-.11.05-.17.16-.21.2-.03.37-.09.5-.18.14-.09.25-.24.34-.45.09-.21.16-.48.19-.82s.06-.78.06-1.31v-3.38c0-.67-.05-1.22-.14-1.66-.09-.43-.21-.78-.35-1.05s-.32-.45-.51-.56c-.2-.11-.41-.16-.64-.16-.27,0-.54.11-.79.34-.25.23-.48.51-.7.86-.21.34-.4.71-.56,1.1-.16.39-.29.74-.38,1.06v3.54c0,.52.02.95.06,1.29.04.34.1.61.19.81.09.2.21.34.37.42s.34.13.57.15c.12,0,.18.07.18.21,0,.12-.06.18-.18.18h-5.59c-.11,0-.16-.06-.16-.18,0-.14.05-.21.16-.21.3,0,.55-.03.75-.08.2-.05.35-.17.47-.35.11-.18.19-.45.23-.8s.06-.83.06-1.44V3.04Z"/>
          <path class="cls-1" d="M61.39,11.79c0-.88.14-1.68.43-2.4.29-.72.7-1.33,1.22-1.83.52-.5,1.15-.89,1.87-1.17.72-.27,1.51-.41,2.36-.41.9,0,1.71.13,2.44.4.73.27,1.35.65,1.86,1.16.51.5.9,1.11,1.18,1.83.27.72.41,1.52.41,2.42s-.15,1.68-.43,2.38c-.29.7-.69,1.3-1.21,1.79-.52.5-1.14.88-1.86,1.14-.72.27-1.52.4-2.39.4s-1.69-.13-2.41-.39c-.72-.26-1.34-.63-1.86-1.12-.52-.49-.92-1.09-1.2-1.79-.28-.71-.42-1.51-.42-2.41ZM64.41,10.81c0,.61.06,1.28.18,2,.12.72.31,1.4.56,2.02.25.62.58,1.15.98,1.58s.88.64,1.43.64c.78,0,1.4-.37,1.87-1.12.47-.75.71-1.79.71-3.13,0-.61-.06-1.29-.17-2.03-.11-.75-.3-1.44-.55-2.09-.25-.65-.57-1.19-.96-1.62-.39-.43-.86-.65-1.43-.65-.78,0-1.41.4-1.89,1.19-.49.79-.73,1.87-.73,3.22Z"/>
          <path class="cls-1" d="M0,35.39c0-.7.15-1.3.45-1.79s.69-.9,1.19-1.21c.49-.31,1.05-.54,1.67-.69.62-.14,1.24-.22,1.88-.22.44,0,.85.02,1.22.06s.73.08,1.07.11c.34.04.68.08,1.02.11s.68.06,1.05.06c.12,0,.19.05.21.16l.43,4.32c.03.09-.03.14-.18.14-.12,0-.2-.04-.23-.14-.47-1.45-1.05-2.52-1.75-3.22-.69-.7-1.62-1.05-2.8-1.05-.37,0-.71.06-1.03.18-.32.12-.6.29-.84.5-.24.21-.43.46-.57.75-.14.29-.21.61-.21.96,0,.67.2,1.22.6,1.65s.91.8,1.52,1.13c.61.33,1.26.64,1.96.95.7.3,1.35.67,1.96,1.1.61.43,1.12.96,1.52,1.59.4.63.6,1.44.6,2.41,0,.79-.14,1.49-.41,2.08-.27.59-.66,1.09-1.15,1.49-.5.4-1.08.7-1.77.9-.68.21-1.44.31-2.26.31-.5,0-.93-.02-1.29-.05s-.7-.06-1.02-.09c-.32-.03-.65-.06-.98-.09-.33-.03-.73-.05-1.19-.05-.14,0-.21-.05-.21-.16L.02,43.28c0-.12.07-.18.21-.18.11,0,.18.06.23.18.26.72.52,1.33.79,1.85.27.52.58.95.94,1.29.36.34.77.6,1.23.77.46.17,1.02.25,1.66.25.41,0,.8-.06,1.17-.18s.7-.31.98-.56c.28-.25.51-.57.68-.96.17-.39.26-.84.26-1.36,0-.7-.2-1.28-.61-1.74s-.91-.87-1.52-1.22c-.61-.36-1.26-.7-1.96-1.03-.7-.33-1.35-.71-1.96-1.14s-1.12-.96-1.52-1.57c-.4-.61-.61-1.37-.61-2.29Z"/>
          <path class="cls-1" d="M12.76,42.32c0-.94.13-1.78.38-2.49.25-.72.6-1.32,1.06-1.82.46-.5,1-.87,1.64-1.12.64-.25,1.35-.38,2.12-.38.84,0,1.55.12,2.15.38.59.25,1.08.58,1.46.98.38.4.66.85.83,1.34.17.49.26.97.26,1.44,0,.31-.12.46-.37.46h-6.57c0,.84.07,1.61.21,2.32.14.71.35,1.33.65,1.85.3.53.68.94,1.14,1.23.46.3,1.02.45,1.68.45.61,0,1.21-.15,1.8-.46s1.1-.85,1.51-1.62c.04-.06.11-.09.21-.09.11.05.16.12.16.23,0,.05,0,.09-.02.14-.44.88-1.05,1.58-1.84,2.08-.78.5-1.81.75-3.07.75-.78,0-1.49-.12-2.15-.35-.65-.24-1.22-.59-1.7-1.07-.48-.48-.86-1.07-1.13-1.78-.27-.71-.41-1.53-.41-2.46ZM19.93,40.74c-.03-1.23-.22-2.17-.57-2.8-.35-.63-.84-.95-1.46-.95s-1.15.31-1.53.91c-.38.61-.59,1.55-.62,2.83h4.18Z"/>
          <path class="cls-1" d="M26,39.69c0-.38-.02-.69-.07-.91-.04-.23-.12-.41-.24-.54s-.27-.22-.47-.27c-.2-.05-.45-.08-.75-.08-.09,0-.14-.05-.14-.16,0-.05.01-.09.03-.14s.06-.07.1-.07c.44-.06.84-.12,1.19-.18.35-.06.68-.12.99-.19.31-.07.61-.14.9-.23.29-.08.59-.18.89-.29.12-.03.2-.05.23-.05.15,0,.23.08.23.23v3.31h.05c.06-.26.17-.59.32-.99.15-.4.36-.8.63-1.19.27-.39.6-.72,1-1.01s.89-.42,1.45-.42c.4,0,.8.06,1.21.18.41.12.79.35,1.13.69.34.34.62.8.84,1.39.22.59.33,1.36.33,2.31v3.61c0,.61.02,1.09.06,1.44s.11.62.23.8c.11.18.27.3.47.35.2.05.45.08.75.08.11,0,.16.07.16.21,0,.12-.05.18-.16.18h-5.5c-.11,0-.16-.06-.16-.18,0-.11.05-.17.16-.21.18-.01.34-.06.48-.13.14-.07.25-.2.34-.39.09-.19.16-.46.21-.8s.07-.8.07-1.36v-3.54c0-.67-.05-1.23-.14-1.67-.09-.44-.21-.79-.35-1.05s-.32-.44-.51-.55c-.2-.11-.41-.16-.64-.16-.27,0-.54.11-.79.33-.25.22-.48.5-.7.83-.21.33-.4.7-.56,1.1-.16.4-.29.76-.38,1.1v3.61c0,.58.02,1.04.07,1.39s.12.62.22.81c.1.19.22.32.38.38.15.06.33.09.53.09.12,0,.18.07.18.21,0,.12-.06.18-.18.18h-5.59c-.11,0-.16-.06-.16-.18,0-.14.05-.21.16-.21.3,0,.55-.03.75-.08.2-.05.35-.17.47-.35.11-.18.19-.45.23-.8s.06-.83.06-1.44v-5.01Z"/>
          <path class="cls-1" d="M38.97,42.23c0-.91.16-1.73.47-2.45.31-.72.73-1.31,1.27-1.79.53-.48,1.16-.85,1.88-1.1.72-.25,1.5-.38,2.32-.38.59,0,1.12.06,1.58.17.46.11.84.26,1.16.43.32.17.56.37.72.59.16.22.24.44.24.65,0,.26-.08.46-.25.59-.17.14-.36.21-.57.21-.3,0-.56-.11-.76-.34-.21-.23-.41-.48-.62-.75-.21-.27-.43-.53-.67-.75s-.55-.34-.91-.34c-.82,0-1.51.42-2.05,1.25-.55.83-.82,2.05-.82,3.67s.32,2.81.95,3.71c.63.91,1.55,1.36,2.75,1.36.61,0,1.22-.15,1.84-.46s1.12-.83,1.52-1.58c.05-.08.11-.11.18-.11.03,0,.06,0,.09.02.09.03.14.08.14.16,0,.03,0,.06-.02.09-.44.92-1.04,1.63-1.78,2.14-.75.51-1.76.77-3.04.77-.76,0-1.48-.12-2.16-.35-.68-.24-1.27-.59-1.78-1.06-.51-.47-.91-1.07-1.21-1.79-.3-.72-.45-1.57-.45-2.55Z"/>
          <path class="cls-1" d="M52.18,39.64c0-.37-.02-.67-.06-.9s-.11-.42-.23-.56c-.11-.14-.27-.23-.47-.29-.2-.05-.46-.08-.78-.08-.09,0-.14-.05-.14-.14,0-.11.05-.17.14-.21.44-.05.84-.1,1.19-.16.35-.06.68-.13.99-.19.31-.07.61-.15.9-.24.29-.09.59-.19.89-.3.12-.03.2-.05.23-.05.15,0,.23.08.23.23v7.93c0,.61.02,1.09.07,1.44s.13.62.24.8c.11.18.27.3.47.35.2.05.44.08.73.08.14,0,.21.07.21.21,0,.12-.07.18-.21.18h-5.91c-.11,0-.16-.06-.16-.18,0-.14.05-.21.16-.21.3,0,.55-.03.75-.08.2-.05.35-.17.47-.35.11-.18.19-.45.23-.8s.06-.83.06-1.44v-5.05ZM51.38,32.86c0-.53.17-.96.5-1.28.33-.32.84-.48,1.53-.48.64,0,1.13.16,1.47.48.34.32.51.75.51,1.28s-.17.96-.51,1.29c-.34.33-.83.49-1.47.49-.69,0-1.2-.16-1.53-.49-.33-.33-.5-.76-.5-1.29Z"/>
          <path class="cls-1" d="M57.98,47.37c.3,0,.56-.03.78-.08.21-.05.38-.17.51-.35.13-.18.22-.45.29-.8.06-.35.09-.83.09-1.44v-11.18c0-.38-.03-.69-.09-.93-.06-.24-.16-.42-.29-.55-.13-.13-.3-.22-.51-.26-.21-.04-.48-.08-.8-.09-.09,0-.14-.05-.14-.14,0-.14.05-.21.14-.23.9-.11,1.66-.22,2.27-.34s1.24-.27,1.86-.46c.09-.03.17-.05.23-.05.15,0,.23.08.23.23v13.99c0,.61.03,1.09.08,1.44.05.35.14.62.26.8.12.18.29.3.49.35.21.05.46.08.76.08.12,0,.18.07.18.21,0,.12-.06.18-.18.18h-6.16c-.11,0-.16-.06-.16-.18,0-.14.05-.21.16-.21Z"/>
          <path class="cls-1" d="M65.54,47.37c.3,0,.56-.03.78-.08.21-.05.38-.17.51-.35.13-.18.22-.45.29-.8.06-.35.09-.83.09-1.44v-11.18c0-.38-.03-.69-.09-.93-.06-.24-.16-.42-.29-.55-.13-.13-.3-.22-.51-.26-.21-.04-.48-.08-.8-.09-.09,0-.14-.05-.14-.14,0-.14.05-.21.14-.23.9-.11,1.66-.22,2.27-.34s1.24-.27,1.86-.46c.09-.03.17-.05.23-.05.15,0,.23.08.23.23v13.99c0,.61.03,1.09.08,1.44.05.35.14.62.26.8.12.18.29.3.49.35.21.05.46.08.76.08.12,0,.18.07.18.21,0,.12-.06.18-.18.18h-6.16c-.11,0-.16-.06-.16-.18,0-.14.05-.21.16-.21Z"/>
          <path class="cls-1" d="M73.3,42.27c0-.88.14-1.68.43-2.4.29-.72.7-1.33,1.22-1.83.52-.5,1.15-.89,1.87-1.17.72-.27,1.51-.41,2.36-.41.9,0,1.71.13,2.44.4.73.27,1.35.65,1.86,1.16.51.5.9,1.11,1.18,1.83.27.72.41,1.52.41,2.42s-.15,1.68-.43,2.38c-.29.7-.69,1.3-1.21,1.79-.52.5-1.14.88-1.86,1.14-.72.27-1.52.4-2.39.4s-1.69-.13-2.41-.39c-.72-.26-1.34-.63-1.86-1.12-.52-.49-.92-1.09-1.2-1.79-.28-.71-.42-1.51-.42-2.41ZM76.31,41.29c0,.61.06,1.28.18,2,.12.72.31,1.4.56,2.02.25.62.58,1.15.98,1.58s.88.64,1.43.64c.78,0,1.4-.37,1.87-1.12.47-.75.71-1.79.71-3.13,0-.61-.06-1.29-.17-2.03-.11-.75-.3-1.44-.55-2.09-.25-.65-.57-1.19-.96-1.62-.39-.43-.86-.65-1.43-.65-.78,0-1.41.4-1.89,1.19-.49.79-.73,1.87-.73,3.22Z"/>
        </g>
      </g>
    </g>
  </g>
</svg>