<?xml version="1.0" encoding="UTF-8"?>
<svg id="Capa_2" data-name="Capa 2" xmlns="http://www.w3.org/2000/svg" viewBox="0 0 161.05 47.99">
  <defs>
    <style>
      .cls-1 {
        fill: #f2e9ce;
      }
    </style>
  </defs>
  <g id="Slide_3" data-name="Slide 3">
    <g id="Opciones_2" data-name="Opciones 2">
      <g id="Lote_Nichos_Memorial" data-name="Lote Nichos Memorial">
        <g>
          <path class="cls-1" d="M2.05,4.32c0-.61-.03-1.09-.09-1.44-.06-.35-.16-.62-.3-.8-.14-.18-.33-.3-.57-.34s-.55-.07-.91-.07c-.12,0-.18-.07-.18-.21,0-.12.06-.18.18-.18h6.89c.12,0,.18.06.18.18,0,.14-.06.21-.18.21-.37,0-.67.02-.91.07-.24.05-.43.16-.57.34s-.24.45-.3.8c-.06.35-.09.83-.09,1.44v9.9c0,.61.05,1.08.16,1.41.11.33.25.57.45.72s.42.24.68.27c.27.03.57.05.9.05h1.69c.99,0,1.82-.29,2.5-.86s1.15-1.5,1.43-2.78c.03-.14.1-.21.21-.21.12,0,.18.04.18.14v.07l-.46,4.07c-.03.12-.1.18-.21.18H.18c-.12,0-.18-.06-.18-.18,0-.14.06-.21.18-.21.37,0,.67-.02.91-.07s.43-.16.57-.34c.14-.18.24-.45.3-.81.06-.36.09-.84.09-1.45V4.32Z"/>
          <path class="cls-1" d="M14.86,11.79c0-.88.14-1.68.43-2.4.29-.72.7-1.33,1.22-1.83.52-.5,1.15-.89,1.87-1.17.72-.27,1.51-.41,2.36-.41.9,0,1.71.13,2.44.4.73.27,1.35.65,1.86,1.16.51.5.9,1.11,1.18,1.83.27.72.41,1.52.41,2.42s-.15,1.68-.43,2.38c-.29.7-.69,1.3-1.21,1.79-.52.5-1.14.88-1.86,1.14-.72.27-1.52.4-2.39.4s-1.69-.13-2.41-.39c-.72-.26-1.34-.63-1.86-1.12-.52-.49-.92-1.09-1.2-1.79-.28-.71-.42-1.51-.42-2.41ZM17.87,10.81c0,.61.06,1.28.18,2,.12.72.31,1.4.56,2.02.25.62.58,1.15.98,1.58s.88.64,1.43.64c.78,0,1.4-.37,1.87-1.12.47-.75.71-1.79.71-3.13,0-.61-.06-1.29-.17-2.03-.11-.75-.3-1.44-.55-2.09-.25-.65-.57-1.19-.96-1.62-.39-.43-.86-.65-1.43-.65-.78,0-1.41.4-1.89,1.19-.49.79-.73,1.87-.73,3.22Z"/>
          <path class="cls-1" d="M29.58,7.16h-1.37c-.09,0-.14-.05-.14-.16,0-.05.02-.09.07-.14l3.63-3.7c.09-.06.17-.09.25-.09.2,0,.3.09.3.27v2.97h2.83c.11,0,.14.06.09.18l-.14.5c-.03.11-.11.16-.23.16h-2.56v6.47c0,.55.03,1.01.1,1.38.07.37.17.67.31.88.14.21.3.37.48.46.18.09.39.14.62.14.3,0,.6-.07.89-.22.29-.14.59-.42.89-.81.06-.06.13-.08.21-.04.17.11.19.24.07.39-.35.53-.78.95-1.28,1.26-.5.3-1.19.46-2.08.46-.46,0-.88-.07-1.27-.21-.39-.14-.72-.36-.99-.67-.27-.31-.49-.73-.64-1.25-.15-.52-.22-1.16-.21-1.92l.16-6.31Z"/>
          <path class="cls-1" d="M36.8,11.84c0-.94.13-1.78.38-2.49.25-.72.6-1.32,1.06-1.82.46-.5,1-.87,1.64-1.12.64-.25,1.35-.38,2.12-.38.84,0,1.55.12,2.15.38.59.25,1.08.58,1.46.98.38.4.66.85.83,1.34.17.49.26.97.26,1.44,0,.31-.12.46-.37.46h-6.57c0,.84.07,1.61.21,2.32.14.71.35,1.33.65,1.85.3.53.68.94,1.14,1.23.46.3,1.02.45,1.68.45.61,0,1.21-.15,1.8-.46s1.1-.85,1.51-1.62c.04-.06.11-.09.21-.09.11.05.16.12.16.23,0,.05,0,.09-.02.14-.44.88-1.05,1.58-1.84,2.08-.78.5-1.81.75-3.07.75-.78,0-1.49-.12-2.15-.35-.65-.24-1.22-.59-1.7-1.07-.48-.48-.86-1.07-1.13-1.78-.27-.71-.41-1.53-.41-2.46ZM43.97,10.26c-.03-1.23-.22-2.17-.57-2.8-.35-.63-.84-.95-1.46-.95s-1.15.31-1.53.91c-.38.61-.59,1.55-.62,2.83h4.18Z"/>
          <path class="cls-1" d="M57.94,4.32c.06-.59.06-1.07.01-1.42-.05-.35-.15-.62-.3-.8-.14-.18-.34-.3-.58-.35-.24-.05-.52-.08-.82-.08-.12,0-.18-.07-.18-.21,0-.12.06-.18.18-.18h3.77s.09.02.15.06c.05.04.09.07.13.1l5.36,12.25h.05l4.36-12.23c.06-.12.15-.18.27-.18h4.38c.12,0,.18.06.18.18,0,.14-.06.21-.18.21-.32,0-.6.03-.83.08-.24.05-.43.17-.57.35-.14.18-.24.45-.29.8s-.04.82.02,1.42l.96,9.9c.06.61.13,1.09.22,1.45.08.36.2.63.34.81.14.18.33.3.57.34.24.05.54.07.9.07.12,0,.18.07.18.21,0,.12-.06.18-.18.18h-7.35c-.14,0-.21-.06-.21-.18,0-.14.07-.21.21-.21.43,0,.79-.02,1.08-.07s.53-.16.71-.34c.17-.18.29-.45.35-.81s.06-.84,0-1.45l-.94-10.29h-.05l-4.57,13.05c-.11.21-.26.32-.46.32h-.55c-.2,0-.37-.11-.5-.32l-5.39-11.89h-.05l-.94,9.12c-.06.61-.07,1.09-.03,1.45s.13.63.29.81c.15.18.37.3.65.34.28.05.63.07,1.04.07.14,0,.21.07.21.21,0,.12-.07.18-.21.18h-4.63c-.11,0-.16-.06-.16-.18,0-.14.05-.21.16-.21.37,0,.67-.02.91-.07s.44-.16.59-.34c.15-.18.28-.45.38-.81.1-.36.18-.84.24-1.45l1.1-9.9Z"/>
          <path class="cls-1" d="M77.57,11.84c0-.94.13-1.78.38-2.49.25-.72.6-1.32,1.06-1.82.46-.5,1-.87,1.64-1.12.64-.25,1.35-.38,2.12-.38.84,0,1.55.12,2.15.38.59.25,1.08.58,1.46.98.38.4.66.85.83,1.34.17.49.26.97.26,1.44,0,.31-.12.46-.37.46h-6.57c0,.84.07,1.61.21,2.32.14.71.35,1.33.65,1.85.3.53.68.94,1.14,1.23.46.3,1.02.45,1.68.45.61,0,1.21-.15,1.8-.46s1.1-.85,1.51-1.62c.04-.06.11-.09.21-.09.11.05.16.12.16.23,0,.05,0,.09-.02.14-.44.88-1.05,1.58-1.84,2.08-.78.5-1.81.75-3.07.75-.78,0-1.49-.12-2.15-.35-.65-.24-1.22-.59-1.7-1.07-.48-.48-.86-1.07-1.13-1.78-.27-.71-.41-1.53-.41-2.46ZM84.74,10.26c-.03-1.23-.22-2.17-.57-2.8-.35-.63-.84-.95-1.46-.95s-1.15.31-1.53.91c-.38.61-.59,1.55-.62,2.83h4.18Z"/>
          <path class="cls-1" d="M90.97,9.17c0-.37-.03-.67-.09-.9-.06-.24-.16-.42-.29-.55s-.3-.22-.51-.27c-.21-.05-.48-.09-.8-.1-.09,0-.14-.05-.14-.14,0-.11.05-.17.14-.21.9-.11,1.66-.23,2.27-.37.62-.14,1.24-.31,1.86-.53.09-.03.17-.05.23-.05.15,0,.23.08.23.23v3.34h.04c.08-.33.19-.71.35-1.13.16-.42.38-.82.67-1.19s.64-.69,1.06-.94c.42-.25.92-.38,1.5-.38.35,0,.7.05,1.06.15.36.1.69.28,1,.54.31.26.58.62.8,1.07s.37,1.04.45,1.76h.05c.08-.32.19-.69.34-1.1s.36-.8.63-1.15.61-.66,1.02-.9c.41-.24.91-.37,1.48-.37.4,0,.79.06,1.2.18s.76.35,1.08.69c.32.34.58.8.79,1.39.21.59.31,1.36.31,2.31v3.66c0,.61.03,1.09.09,1.44.06.35.16.62.29.8.13.18.3.3.5.35.21.05.46.08.76.08.12,0,.18.07.18.21,0,.12-.06.18-.18.18h-5.75c-.14,0-.21-.06-.21-.18,0-.14.07-.21.21-.21.21,0,.39-.03.54-.09.14-.06.27-.19.37-.38.1-.19.17-.46.22-.81s.07-.81.07-1.39v-3.59c0-.67-.05-1.22-.14-1.66-.09-.43-.22-.78-.38-1.05-.16-.27-.34-.45-.54-.56-.2-.11-.41-.16-.64-.16-.29,0-.55.11-.78.32-.23.21-.43.48-.62.8-.18.32-.34.67-.48,1.05-.14.38-.26.75-.37,1.1v3.75c0,.59.02,1.07.06,1.42s.11.62.21.8c.1.18.23.3.39.37.16.06.35.09.58.09.12,0,.18.07.18.21,0,.12-.06.18-.18.18h-5.34c-.14,0-.21-.06-.21-.18,0-.14.07-.21.21-.21.21,0,.39-.03.54-.09.14-.06.27-.19.38-.38.11-.19.18-.46.23-.81s.07-.81.07-1.39v-3.59c0-.67-.05-1.22-.14-1.66-.09-.43-.22-.78-.38-1.05s-.34-.45-.55-.56c-.21-.11-.42-.16-.63-.16-.3,0-.58.11-.83.33s-.48.5-.67.83c-.2.34-.37.7-.51,1.1s-.27.76-.38,1.1v3.66c0,.59.02,1.07.07,1.42s.12.62.23.8c.11.18.24.3.41.37.17.06.37.09.62.09.12,0,.18.07.18.21,0,.12-.06.18-.18.18h-5.89c-.11,0-.16-.06-.16-.18,0-.14.05-.21.16-.21.3,0,.56-.03.78-.08.21-.05.38-.17.51-.35.13-.18.22-.45.29-.8.06-.35.09-.83.09-1.44v-5.05Z"/>
          <path class="cls-1" d="M110.94,11.79c0-.88.14-1.68.43-2.4.29-.72.7-1.33,1.22-1.83.52-.5,1.15-.89,1.87-1.17.72-.27,1.51-.41,2.36-.41.9,0,1.71.13,2.44.4.73.27,1.35.65,1.86,1.16.51.5.9,1.11,1.18,1.83.27.72.41,1.52.41,2.42s-.15,1.68-.43,2.38c-.29.7-.69,1.3-1.21,1.79-.52.5-1.14.88-1.86,1.14-.72.27-1.52.4-2.39.4s-1.69-.13-2.41-.39c-.72-.26-1.34-.63-1.86-1.12-.52-.49-.92-1.09-1.2-1.79-.28-.71-.42-1.51-.42-2.41ZM113.95,10.81c0,.61.06,1.28.18,2,.12.72.31,1.4.56,2.02.25.62.58,1.15.98,1.58s.88.64,1.43.64c.78,0,1.4-.37,1.87-1.12.47-.75.71-1.79.71-3.13,0-.61-.06-1.29-.17-2.03-.11-.75-.3-1.44-.55-2.09-.25-.65-.57-1.19-.96-1.62-.39-.43-.86-.65-1.43-.65-.78,0-1.41.4-1.89,1.19-.49.79-.73,1.87-.73,3.22Z"/>
          <path class="cls-1" d="M125.98,9.17c0-.37-.03-.67-.09-.9-.06-.24-.16-.42-.29-.55s-.3-.22-.51-.27c-.21-.05-.48-.09-.8-.1-.09,0-.14-.05-.14-.14,0-.11.05-.17.14-.21.44-.05.85-.1,1.22-.16s.72-.13,1.05-.19.64-.15.94-.24c.3-.09.6-.19.92-.3.09-.03.17-.05.23-.05.15,0,.23.08.23.23v3.5h.04c.09-.29.21-.65.35-1.07.14-.43.35-.84.62-1.25.27-.4.61-.75,1.03-1.04.42-.29.95-.43,1.59-.43.47,0,.82.13,1.05.38.23.25.34.53.33.83,0,.31-.13.58-.38.83-.24.25-.6.38-1.07.38-1,0-1.77.16-2.31.47-.53.31-.95.75-1.25,1.31v4.02c0,.61.04,1.09.12,1.45s.22.63.42.81c.2.18.46.3.8.34.33.05.75.07,1.26.07.14,0,.21.07.21.21,0,.12-.07.18-.21.18h-7.17c-.11,0-.16-.06-.16-.18,0-.14.05-.21.16-.21.3,0,.56-.03.78-.08.21-.05.38-.17.51-.35.13-.18.22-.45.29-.8.06-.35.09-.83.09-1.44v-5.05Z"/>
          <path class="cls-1" d="M136.46,9.17c0-.37-.02-.67-.06-.9s-.11-.42-.23-.56c-.11-.14-.27-.23-.47-.29-.2-.05-.46-.08-.78-.08-.09,0-.14-.05-.14-.14,0-.11.05-.17.14-.21.44-.05.84-.1,1.19-.16.35-.06.68-.13.99-.19.31-.07.61-.15.9-.24.29-.09.59-.19.89-.3.12-.03.2-.05.23-.05.15,0,.23.08.23.23v7.93c0,.61.02,1.09.07,1.44s.13.62.24.8c.11.18.27.3.47.35.2.05.44.08.73.08.14,0,.21.07.21.21,0,.12-.07.18-.21.18h-5.91c-.11,0-.16-.06-.16-.18,0-.14.05-.21.16-.21.3,0,.55-.03.75-.08.2-.05.35-.17.47-.35.11-.18.19-.45.23-.8s.06-.83.06-1.44v-5.05ZM135.66,2.38c0-.53.17-.96.5-1.28.33-.32.84-.48,1.53-.48.64,0,1.13.16,1.47.48.34.32.51.75.51,1.28s-.17.96-.51,1.29c-.34.33-.83.49-1.47.49-.69,0-1.2-.16-1.53-.49-.33-.33-.5-.76-.5-1.29Z"/>
          <path class="cls-1" d="M142.4,15.18c0-.78.22-1.39.65-1.85.43-.46.97-.83,1.62-1.11.65-.28,1.35-.51,2.1-.69.75-.17,1.45-.36,2.09-.56v-1.62c0-.35-.02-.69-.07-1.02-.05-.33-.13-.62-.24-.87-.11-.25-.28-.45-.49-.61s-.48-.23-.8-.23c-.38,0-.69.14-.92.42-.24.28-.45.59-.65.94-.2.34-.41.66-.64.94-.23.28-.53.42-.91.42-.61,0-.91-.3-.91-.92,0-.37.12-.69.35-.97.24-.28.54-.52.9-.71s.77-.34,1.22-.45c.45-.11.89-.16,1.31-.16.64,0,1.25.07,1.83.21.58.14,1.09.38,1.53.72s.79.82,1.05,1.42c.26.6.39,1.36.39,2.27v4.14c0,.72.05,1.2.16,1.44.11.24.28.37.53.37.18,0,.36-.07.52-.21.17-.14.33-.33.5-.57.01-.05.04-.07.07-.07.01,0,.04.01.07.05.05.03.07.07.07.11,0,.01,0,.04-.02.07-.24.44-.54.79-.89,1.03-.35.24-.87.37-1.55.37-.76,0-1.3-.21-1.62-.62-.32-.41-.5-.92-.55-1.51l-.02-1.12h-.09c-.09.43-.25.84-.47,1.23s-.49.74-.81,1.04-.69.53-1.11.71c-.42.18-.88.26-1.38.26-.38,0-.74-.04-1.08-.13-.34-.08-.64-.22-.9-.4-.26-.18-.46-.42-.6-.71-.14-.29-.22-.65-.22-1.07ZM145.2,14.7c0,.44.11.79.34,1.05.23.26.55.39.96.39.29,0,.57-.09.84-.26.27-.17.52-.42.73-.72s.39-.68.54-1.12c.14-.44.22-.92.24-1.44v-1.28c-.46.18-.9.38-1.33.58-.43.21-.82.44-1.16.71-.34.27-.62.57-.83.9s-.32.73-.32,1.19Z"/>
          <path class="cls-1" d="M154.7,16.89c.3,0,.56-.03.78-.08.21-.05.38-.17.51-.35.13-.18.22-.45.29-.8.06-.35.09-.83.09-1.44V3.04c0-.38-.03-.69-.09-.93-.06-.24-.16-.42-.29-.55-.13-.13-.3-.22-.51-.26-.21-.04-.48-.08-.8-.09-.09,0-.14-.05-.14-.14,0-.14.05-.21.14-.23.9-.11,1.66-.22,2.27-.34s1.24-.27,1.86-.46c.09-.03.17-.05.23-.05.15,0,.23.08.23.23v13.99c0,.61.03,1.09.08,1.44.05.35.14.62.26.8.12.18.29.3.49.35.21.05.46.08.76.08.12,0,.18.07.18.21,0,.12-.06.18-.18.18h-6.16c-.11,0-.16-.06-.16-.18,0-.14.05-.21.16-.21Z"/>
          <path class="cls-1" d="M46.17,34.8c0-.61-.03-1.09-.09-1.44-.06-.35-.16-.62-.3-.8-.14-.18-.33-.3-.57-.34s-.55-.07-.91-.07c-.12,0-.18-.07-.18-.21,0-.12.06-.18.18-.18h3.29c.14,0,.24.05.3.14l8.65,11.18h.05v-8.28c0-.61-.03-1.09-.1-1.44-.07-.35-.19-.62-.37-.8s-.42-.3-.72-.34c-.3-.05-.7-.07-1.19-.07-.12,0-.18-.07-.18-.21,0-.12.06-.18.18-.18h4.82c.14,0,.21.06.21.18,0,.14-.07.21-.21.21-.37,0-.67.02-.9.07-.24.05-.42.16-.56.34-.14.18-.24.45-.3.8-.06.35-.09.83-.09,1.44v12.85c0,.12-.07.18-.21.18h-.16c-.12,0-.21-.05-.27-.14l-9.72-12.23h-.04v9.23c0,.61.03,1.09.1,1.45s.19.63.37.81c.17.18.41.3.72.34s.7.07,1.19.07c.12,0,.18.07.18.21,0,.12-.06.18-.18.18h-4.84c-.12,0-.18-.06-.18-.18,0-.14.06-.21.18-.21.37,0,.67-.02.91-.07s.43-.16.57-.34c.14-.18.24-.45.3-.81.06-.36.09-.84.09-1.45v-9.9Z"/>
          <path class="cls-1" d="M62.03,39.64c0-.37-.02-.67-.06-.9s-.11-.42-.23-.56c-.11-.14-.27-.23-.47-.29-.2-.05-.46-.08-.78-.08-.09,0-.14-.05-.14-.14,0-.11.05-.17.14-.21.44-.05.84-.1,1.19-.16.35-.06.68-.13.99-.19.31-.07.61-.15.9-.24.29-.09.59-.19.89-.3.12-.03.2-.05.23-.05.15,0,.23.08.23.23v7.93c0,.61.02,1.09.07,1.44s.13.62.24.8c.11.18.27.3.47.35.2.05.44.08.73.08.14,0,.21.07.21.21,0,.12-.07.18-.21.18h-5.91c-.11,0-.16-.06-.16-.18,0-.14.05-.21.16-.21.3,0,.55-.03.75-.08.2-.05.35-.17.47-.35.11-.18.19-.45.23-.8s.06-.83.06-1.44v-5.05ZM61.23,32.86c0-.53.17-.96.5-1.28.33-.32.84-.48,1.53-.48.64,0,1.13.16,1.47.48.34.32.51.75.51,1.28s-.17.96-.51,1.29c-.34.33-.83.49-1.47.49-.69,0-1.2-.16-1.53-.49-.33-.33-.5-.76-.5-1.29Z"/>
          <path class="cls-1" d="M68.04,42.23c0-.91.16-1.73.47-2.45.31-.72.73-1.31,1.27-1.79.53-.48,1.16-.85,1.88-1.1.72-.25,1.5-.38,2.32-.38.59,0,1.12.06,1.58.17.46.11.84.26,1.16.43.32.17.56.37.72.59.16.22.24.44.24.65,0,.26-.08.46-.25.59-.17.14-.36.21-.57.21-.3,0-.56-.11-.76-.34-.21-.23-.41-.48-.62-.75-.21-.27-.43-.53-.67-.75s-.55-.34-.91-.34c-.82,0-1.51.42-2.05,1.25-.55.83-.82,2.05-.82,3.67s.32,2.81.95,3.71c.63.91,1.55,1.36,2.75,1.36.61,0,1.22-.15,1.84-.46s1.12-.83,1.52-1.58c.05-.08.11-.11.18-.11.03,0,.06,0,.09.02.09.03.14.08.14.16,0,.03,0,.06-.02.09-.44.92-1.04,1.63-1.78,2.14-.75.51-1.76.77-3.04.77-.76,0-1.48-.12-2.16-.35-.68-.24-1.27-.59-1.78-1.06-.51-.47-.91-1.07-1.21-1.79-.3-.72-.45-1.57-.45-2.55Z"/>
          <path class="cls-1" d="M81.25,33.52c0-.38-.02-.69-.07-.91-.04-.23-.12-.41-.24-.55-.11-.14-.27-.23-.47-.27-.2-.04-.45-.08-.75-.09-.09,0-.14-.05-.14-.14,0-.14.05-.21.14-.23.44-.05.84-.1,1.19-.16.35-.06.68-.12.99-.18.31-.06.61-.13.9-.21.29-.08.59-.16.89-.25.12-.03.2-.05.23-.05.15,0,.23.08.23.23v6.08l-.07,3.45h.07c.05-.23.14-.55.3-.96s.37-.82.64-1.22c.27-.4.62-.75,1.04-1.04.42-.29.91-.43,1.47-.43.4,0,.8.06,1.21.18.41.12.79.35,1.13.69.34.34.62.8.84,1.39.22.59.33,1.36.33,2.31v3.45c0,.62.02,1.12.06,1.49.04.37.11.64.23.83s.27.31.47.37c.2.05.45.08.75.08.11,0,.16.07.16.21,0,.12-.05.18-.16.18h-5.5c-.11,0-.16-.06-.16-.18,0-.11.05-.17.16-.21.2-.03.37-.09.5-.18.14-.09.25-.24.34-.45.09-.21.16-.48.19-.82s.06-.78.06-1.31v-3.38c0-.67-.05-1.22-.14-1.66-.09-.43-.21-.78-.35-1.05s-.32-.45-.51-.56c-.2-.11-.41-.16-.64-.16-.27,0-.54.11-.79.34-.25.23-.48.51-.7.86-.21.34-.4.71-.56,1.1-.16.39-.29.74-.38,1.06v3.54c0,.52.02.95.06,1.29.04.34.1.61.19.81.09.2.21.34.37.42s.34.13.57.15c.12,0,.18.07.18.21,0,.12-.06.18-.18.18h-5.59c-.11,0-.16-.06-.16-.18,0-.14.05-.21.16-.21.3,0,.55-.03.75-.08.2-.05.35-.17.47-.35.11-.18.19-.45.23-.8s.06-.83.06-1.44v-11.18Z"/>
          <path class="cls-1" d="M94.22,42.27c0-.88.14-1.68.43-2.4.29-.72.7-1.33,1.22-1.83.52-.5,1.15-.89,1.87-1.17.72-.27,1.51-.41,2.36-.41.9,0,1.71.13,2.44.4.73.27,1.35.65,1.86,1.16.51.5.9,1.11,1.18,1.83.27.72.41,1.52.41,2.42s-.15,1.68-.43,2.38c-.29.7-.69,1.3-1.21,1.79-.52.5-1.14.88-1.86,1.14-.72.27-1.52.4-2.39.4s-1.69-.13-2.41-.39c-.72-.26-1.34-.63-1.86-1.12-.52-.49-.92-1.09-1.2-1.79-.28-.71-.42-1.51-.42-2.41ZM97.23,41.29c0,.61.06,1.28.18,2,.12.72.31,1.4.56,2.02.25.62.58,1.15.98,1.58s.88.64,1.43.64c.78,0,1.4-.37,1.87-1.12.47-.75.71-1.79.71-3.13,0-.61-.06-1.29-.17-2.03-.11-.75-.3-1.44-.55-2.09-.25-.65-.57-1.19-.96-1.62-.39-.43-.86-.65-1.43-.65-.78,0-1.41.4-1.89,1.19-.49.79-.73,1.87-.73,3.22Z"/>
          <path class="cls-1" d="M108.33,39.76c0-.64.12-1.17.35-1.59.24-.42.55-.75.95-1.01.4-.25.84-.43,1.35-.53.5-.1,1.01-.15,1.53-.15,1.02,0,1.82.15,2.41.43.59.29.88.78.88,1.46,0,.29-.06.54-.19.77-.13.22-.3.33-.51.33-.12,0-.25-.07-.38-.21-.13-.14-.24-.3-.33-.48-.17-.55-.45-.96-.83-1.25s-.8-.42-1.24-.42c-.47,0-.86.1-1.16.31-.3.21-.46.6-.46,1.18,0,.32.08.6.25.85.17.24.38.46.64.65.26.19.54.36.86.51.31.15.62.3.92.46.35.18.7.38,1.04.58.34.21.65.44.92.71.27.27.49.58.66.94.17.36.25.79.25,1.29,0,.59-.12,1.1-.35,1.53s-.56.78-.98,1.05-.91.48-1.47.61c-.56.13-1.17.19-1.83.19-1.05,0-1.88-.15-2.5-.46s-.92-.82-.92-1.55c0-.3.09-.58.27-.83.18-.25.41-.38.68-.38.24,0,.37.11.37.32,0,.12-.02.22-.05.29s-.05.18-.05.33c0,.32.07.58.21.79.14.21.32.37.54.5s.46.22.71.27.49.08.72.08c.58,0,1.06-.13,1.45-.39.39-.26.58-.73.58-1.42,0-.35-.08-.65-.23-.9-.15-.25-.35-.47-.61-.66s-.52-.37-.82-.53-.6-.32-.9-.47c-.33-.17-.66-.35-.98-.54s-.61-.41-.87-.66-.47-.54-.63-.87c-.16-.33-.24-.71-.24-1.16Z"/>
        </g>
      </g>
    </g>
  </g>
</svg>