<?xml version="1.0" encoding="UTF-8"?>
<svg id="Capa_2" data-name="Capa 2" xmlns="http://www.w3.org/2000/svg" viewBox="0 0 81.92 101.3">
  <defs>
    <style>
      .cls-1 {
        fill: none;
        opacity: .7;
        stroke: #ab9f8a;
        stroke-miterlimit: 10;
        stroke-width: .8px;
      }
    </style>
  </defs>
  <g id="Ordenador_escritorio" data-name="Ordenador escritorio">
    <g id="_3_Opciones" data-name="3 Opciones">
      <path class="cls-1" d="M44.8,27.57l1.04,1.68c4-1.4,9.92-2.1,17.59-2.1,1.62,0,3.34.03,5.12.09,5.7.21,9.8-2.8,10.87-7.94v-.03c1.44-7.7-4.21-13.89-10.06-16.38h-.03c-1.34-.55-2.74-.82-4.16-.82-10.61,0-19.75,15.07-23.2,21.59l-.13.51v.78l1.74.77c6.61-5.98,14.23-9.81,22.07-11.09.09-.02.19-.03.27-.03.37,0,.83.14.93.78.11.63-.31,1.11-.77,1.21h0c-10.23,1.81-17.67,7.59-21.27,10.97M45.63,29.84l-1.44-2.36.15-.13c3.58-3.4,11.16-9.37,21.66-11.23.19-.04.45-.26.39-.66-.04-.23-.13-.37-.46-.37-.06,0-.13,0-.2.02-7.78,1.27-15.36,5.1-21.94,11.07l-.12.11-2.31-1.03v-1.19s.16-.62.16-.62c3.49-6.57,12.76-21.87,23.65-21.87,1.48,0,2.94.28,4.34.85h.03c6.02,2.57,11.83,8.96,10.35,16.93v.03c-1.09,5.22-5.12,8.34-10.79,8.34-.19,0-.38,0-.57,0-1.77-.07-3.49-.1-5.1-.1-7.74,0-13.66.73-17.61,2.15l-.19.07ZM18.76,27.25c7.89,0,13.62.79,17.04,2.34l1.12-1.64c-3.61-3.38-11.04-9.15-21.26-10.95-.45-.1-.87-.74-.79-1.19.08-.4.62-.8,1.07-.8.04,0,.08,0,.12,0h.03c7.82,1.29,15.45,5.12,22.06,11.1l1.74-.77v-.78l-.1-.47c-.8-1.68-3.68-6.99-7.65-11.83-5.33-6.5-10.57-9.79-15.57-9.79-1.42,0-2.83.27-4.17.81C6.37,5.6.86,12.07,2.51,19.51c1.07,5.14,5.15,8.15,10.87,7.93h.07c1.88-.2,3.56-.2,5.32-.2M35.97,30.19l-.19-.09c-3.33-1.58-9.06-2.38-17.02-2.38-1.75,0-3.41,0-5.27.18h-.09c-.21.02-.39.02-.58.02-5.67,0-9.7-3.1-10.79-8.32C.32,11.92,6.01,5.22,12.22,2.83c1.4-.56,2.86-.85,4.35-.85,5.15,0,10.52,3.35,15.94,9.97,4.03,4.91,6.94,10.29,7.72,11.96l.02.05.12.57v1.12l-2.31,1.03-.12-.1c-6.57-5.98-14.16-9.81-21.94-11.08h-.07c-.25,0-.56.26-.6.4-.03.18.22.57.41.62,10.49,1.86,18.06,7.83,21.66,11.23l.15.15-1.58,2.31ZM12.37,64.65c-2.09,0-3.87,1.78-3.87,3.88v11.82c0,10.15,8.26,18.42,18.42,18.42h28.1c10.16,0,18.42-8.27,18.42-18.42v-11.82c0-2.1-1.78-3.88-3.88-3.88H12.37ZM55.01,99.25h-28.1c-10.42,0-18.9-8.47-18.9-18.89v-11.82c0-2.37,2-4.36,4.36-4.36h57.18c2.37,0,4.36,1.99,4.36,4.36v11.82c0,10.42-8.47,18.89-18.89,18.89M12.37,63.39c-2.89,0-5.33,2.45-5.33,5.33v11.82c0,10.95,8.91,19.86,19.87,19.86h28.1c10.95,0,19.87-8.91,19.87-19.86v-11.82c0-2.89-2.45-5.33-5.33-5.33h-26.85l-1.35-1.35v-26.85c0-.5,0-1.67,1.32-2.68,2.09-1.77,7.46-3.88,21.1-3.88,1.48,0,3.05.03,4.66.08.15,0,.3,0,.44,0,6.12,0,10.66-3.51,11.86-9.15.72-3.13.16-6.72-1.53-9.84-1.34-2.48-4.03-5.86-9.21-7.87-1.55-.6-3.13-.91-4.7-.91-4.76,0-12.32,2.89-21.27,16.63l-.09.15-2.57-.76V6.89c0-.36-.13-.48-.49-.48s-.49.12-.49.48v10.07l-2.58.74-.1-.15C33.79,11.33,25.86.89,16.68.89c-1.58,0-3.18.32-4.74.97C3.03,5.3-.2,13.48,1.19,19.77c1.16,5.64,5.54,9.15,11.43,9.15.27,0,.56,0,.83-.03h.03c1.7-.06,3.36-.09,4.92-.09,14.03,0,19.14,2.17,20.97,4,.76.76,1.2,1.7,1.2,2.57v26.66l-1.35,1.35H12.37ZM55.01,100.9h-28.1c-11.23,0-20.36-9.13-20.36-20.35v-11.82c0-3.15,2.67-5.82,5.81-5.82h26.65l1.07-1.07v-26.45c0-.74-.38-1.56-1.06-2.23-1.75-1.76-6.76-3.86-20.62-3.86-1.55,0-3.2.03-4.9.08h-.03c-.28.02-.57.03-.85.03-6.13,0-10.7-3.65-11.9-9.52C-.72,13.39,2.61,4.95,11.75,1.4c1.62-.66,3.27-1,4.92-1,9.34,0,17.34,10.41,21.33,16.74l1.89-.55V6.89c0-.63.33-.97.97-.97s.97.33.97.97v9.71l1.88.56C52.74,3.37,60.43.47,65.29.47c1.63,0,3.27.31,4.88.93,5.31,2.06,8.07,5.53,9.46,8.09,1.74,3.22,2.32,6.93,1.57,10.17-1.27,6.02-6.2,9.7-12.79,9.52-1.6-.05-3.16-.08-4.64-.08-13.5,0-18.76,2.05-20.79,3.77-1.15.88-1.15,1.85-1.15,2.31v26.65l1.07,1.07h26.65c3.15,0,5.81,2.67,5.81,5.82v11.82c0,11.22-9.12,20.35-20.35,20.35"/>
    </g>
  </g>
</svg>