<?xml version="1.0" encoding="UTF-8"?>
<svg id="Capa_2" data-name="Capa 2" xmlns="http://www.w3.org/2000/svg" viewBox="0 0 101.62 101.35">
  <defs>
    <style>
      .cls-1 {
        fill: #ab9f8a;
        opacity: .7;
      }
    </style>
  </defs>
  <g id="Ordenador_escritorio" data-name="Ordenador escritorio">
    <g id="_3_Opciones" data-name="3 Opciones">
      <path class="cls-1" d="M4.25,57.98v8.66l.63.62h67.22l.63-.62v-8.66l-.63-.63H4.87l-.63.63ZM6.82,69.55v6.87l.63.62h3.15l.62-.62v-6.87l-.62-.63h-3.15l-.63.63ZM12.89,69.55v6.87l.62.62h49.94l.63-.62v-6.87l-.63-.63H13.51l-.62.63ZM65.74,69.55v6.87l.63.62h3.15l.62-.62v-6.87l-.62-.63h-3.15l-.63.63ZM1.67,79.33v3.14l.62.63h72.38l.63-.63v-3.14l-.63-.63H2.29l-.62.63ZM6.82,85.38v13.69l.63.62h3.15l.62-.62v-13.69l-.62-.63h-3.15l-.63.63ZM65.74,85.38v13.69l.63.62h3.15l.62-.62v-13.69l-.62-.63h-3.15l-.63.63ZM64.91,101.35c-.46,0-.83-.37-.83-.83v-15.14l-.63-.63H13.51l-.62.63v15.14c0,.46-.38.83-.83.83h-6.07c-.46,0-.83-.37-.83-.83v-15.14l-.63-.63H.83c-.46,0-.83-.37-.83-.82v-6.05c0-.46.37-.83.83-.83h3.7l.63-.62v-6.87l-.63-.63h-1.12c-.46,0-.83-.37-.83-.83v-11.56c0-.46.37-.83.83-.83h70.14c.46,0,.83.37.83.83v11.56c0,.46-.37.83-.83.83h-1.13l-.62.63v6.87l.62.62h3.7c.46,0,.83.37.83.83v6.05c0,.45-.37.82-.83.82h-3.7l-.62.63v15.14c0,.46-.37.83-.83.83h-6.07ZM80.99,6.01l.32,1.16h14.03l.32-1.16-7.02-4.04h-.63l-7.02,4.04ZM81.91,9.58l1.78,9.27.61.51h8.06l.61-.51,1.78-9.27-.61-.74h-11.62l-.62.74ZM88.33,66.06c-2.16,0-3.93,1.76-3.93,3.91v29.1l.63.62h6.6l.63-.62v-29.1c0-2.16-1.76-3.91-3.92-3.91M78.13,101.35c-.46,0-.83-.37-.83-.83s.37-.83.83-.83h3.99l.63-.62v-29.1c0-2.58,1.76-4.81,4.28-5.42l.48-.6V21.65l-.62-.63h-3.78c-.4,0-.74-.29-.82-.67l-2.11-11.01-.62-.51h-3.68c-.37,0-.71-.25-.8-.61-.1-.36.06-.75.39-.94L87.91.11c.13-.07.27-.11.42-.11.14,0,.29.04.41.11l12.46,7.18c.32.18.48.57.39.94-.1.36-.43.61-.8.61h-3.68l-.61.51-2.12,11.01c-.07.39-.42.67-.82.67h-3.78l-.62.63v42.3l.48.6c2.52.61,4.28,2.84,4.28,5.42v29.1l.63.62h3.99c.46,0,.83.37.83.83s-.37.83-.83.83h-20.4Z"/>
    </g>
  </g>
</svg>