<?xml version="1.0" encoding="UTF-8"?>
<svg id="Capa_2" data-name="Capa 2" xmlns="http://www.w3.org/2000/svg" viewBox="0 0 45.5 48.97">
  <defs>
    <style>
      .cls-1 {
        fill: #ab9f8a;
      }
    </style>
  </defs>
  <g id="Ordenador_escritorio" data-name="Ordenador escritorio">
    <path class="cls-1" d="M30.61,16.11c.19,0,.36.1.46.26.08.12.1.27.06.41-.04.13-.12.25-.24.32-3.26,1.9-5.93,4.88-7.93,8.88v.1l.27.5.09.06c1.24.19,2.44.28,3.58.28,4.01,0,7.39-1.15,10.05-3.43,6.46-5.52,7.37-16.34,7.45-20.73l-.06-.1-.51-.32h-.12c-1.29.6-3.22,1.04-5.25,1.5h-.06c-5.18,1.2-12.27,2.84-15.46,8.2-1.82,3.05-2.22,7.1-1.19,12.04l.1.09.66.1.12-.06c2.02-3.54,4.61-6.24,7.7-8.03.09-.05.18-.08.28-.08M1.66,18.21l-.48.34-.05.1c.13,3.45.94,9.74,4.87,13.1,1.74,1.47,3.93,2.23,6.54,2.23.6,0,1.23-.04,1.87-.12l.09-.06.27-.51v-.11c-1.29-2.4-2.96-4.21-4.96-5.38-.25-.15-.34-.48-.19-.73.1-.16.27-.26.47-.26.1,0,.19.03.27.07,1.86,1.08,3.45,2.64,4.71,4.63l.12.06.66-.13.09-.1c.46-2.83.15-5.17-.92-6.96-2.07-3.5-6.55-4.53-10.15-5.35l-.21-.05c-1.13-.26-2.1-.48-2.87-.78l-.11.02ZM18.22,48.97l-.08-.02h-.02s-.06-.02-.1-.03h-.02c-.16-.1-.27-.24-.3-.42v-.08c-.03-.59-.06-1.8-.03-3.37v-.03c-.14-2.57-.6-6.36-2.02-9.9l-.05-.06-.39-.21-.08-.02c-.96.16-1.83.23-2.61.23-2.87,0-5.31-.84-7.25-2.51C2.26,29.99,1,25.9.46,22.92-.15,19.49.02,16.66.03,16.63c.02-.26.21-.47.48-.5.02,0,.04,0,.06,0,.24,0,.45.16.52.38v.02s.04.08.04.08h0c.29.49,1.44.83,3.92,1.4h.02c3.6.83,8.54,1.97,10.86,5.85,1.5,2.51,1.68,5.9.53,10.08v.04s.02.23.02.23v.04c.38.85.7,1.77,1.01,2.81l.12.08.7-.04.11-.1c.6-3.7,1.56-7.07,2.85-10.01v-.04s.03-.23.03-.23v-.04c-1.77-6.31-1.53-11.4.72-15.15,3.45-5.76,10.81-7.45,16.19-8.69h.02c3.63-.83,5.86-1.41,6.19-2.43.08-.22.29-.38.52-.38h.06c.26.04.46.24.48.5.02.18.25,4.37-.65,9.39-1.44,8.06-4.69,12.28-7.16,14.39-2.88,2.47-6.5,3.72-10.75,3.72-1.29,0-2.7-.12-4.33-.38l-.08.02-.39.21-.05.06c-2.64,6.35-3.2,13.43-3.3,17.08v.03c.09,1.81.05,3.05.03,3.39v.1c-.04.23-.22.41-.46.45-.03,0-.05,0-.08.01h-.03Z"/>
  </g>
</svg>