<?xml version="1.0" encoding="UTF-8"?>
<svg id="Capa_2" data-name="Capa 2" xmlns="http://www.w3.org/2000/svg" viewBox="0 0 336.82 47.93">
  <defs>
    <style>
      .cls-1 {
        fill: #fff;
        stroke: #263530;
        stroke-miterlimit: 10;
        stroke-width: 2px;
      }

      .cls-2 {
        fill: #263530;
      }
    </style>
  </defs>
  <g id="Slide_1" data-name="Slide 1">
    <g id="Menú">
      <g id="Headline">
        <g id="Plantar_un_memorial" data-name="Plantar un memorial">
          <rect class="cls-1" x="1" y="1" width="334.82" height="45.93" rx="7.53" ry="7.53"/>
          <g>
            <path class="cls-2" d="M23.33,32.76c.07,0,.14.01.2.02.07,0,.17,0,.3,0,.6,0,1.01-.18,1.23-.55.21-.37.32-1.21.32-2.53v-.97c0-.45,0-.8-.01-1.04,0-.25-.02-.48-.03-.71l-.02-2.72v-3.95c0-.58-.12-.99-.36-1.24-.24-.25-.64-.37-1.2-.37h-.23v-1.04c.62.05,1.19.09,1.71.11.52.02,1.01.03,1.46.03.7,0,1.5-.02,2.4-.07.9-.05,1.44-.07,1.62-.07,1.93,0,3.45.42,4.56,1.27s1.66,2,1.66,3.45c0,1.53-.57,2.74-1.72,3.63-1.14.9-2.71,1.34-4.71,1.34-.33,0-.92-.04-1.77-.11-.17-.02-.29-.03-.36-.03v2.79c0,1.22.12,1.98.36,2.29.24.3.71.46,1.43.46h.4v1.01c-.75-.04-1.44-.08-2.09-.1-.65-.02-1.25-.03-1.79-.03-.24,0-.64.01-1.2.03s-1.28.06-2.16.1v-.99ZM28.37,25.88c.28.04.54.08.77.1.24.02.46.03.66.03,1.31,0,2.31-.3,3-.89.69-.6,1.04-1.45,1.04-2.56,0-1.03-.33-1.85-.98-2.44-.66-.59-1.55-.89-2.69-.89-.26,0-.53.01-.81.03s-.59.06-.95.12c-.01.94-.03,1.88-.03,2.84,0,.96-.01,2.18-.01,3.66Z"/>
            <path class="cls-2" d="M42.61,16.36c-.05,1.39-.09,2.72-.11,3.99s-.03,2.47-.03,3.63v4.99c0,1.15.02,1.94.06,2.4.04.45.09.76.17.93s.21.29.42.37.47.12.79.12h.26v.97c-.72-.04-1.35-.08-1.88-.1-.53-.02-.97-.03-1.31-.03-.32,0-.72.01-1.2.03s-1.05.06-1.69.1v-.97s.1,0,.18.01c.08,0,.14.01.17.01.93,0,1.4-1.16,1.4-3.48,0-.37.01-.66.01-.86l.02-5.13v-3.03c0-.84-.07-1.4-.2-1.67-.13-.28-.38-.42-.73-.42-.1,0-.2,0-.32.02-.11.01-.22.03-.33.05l-.12-.9c.8-.13,1.57-.27,2.31-.44.73-.16,1.45-.36,2.14-.57Z"/>
            <path class="cls-2" d="M56.68,31.84l.42.85c-.68.45-1.3.78-1.85,1-.55.22-1.03.33-1.46.33-.52,0-.92-.13-1.19-.4-.28-.27-.43-.67-.48-1.21-.82.57-1.51.98-2.08,1.23-.56.25-1.07.38-1.52.38-.79,0-1.46-.31-2.02-.92-.56-.61-.83-1.34-.83-2.2,0-1.44,1.61-2.53,4.84-3.27.7-.16,1.25-.3,1.65-.39,0-.19.01-.37.02-.54,0-.18,0-.35,0-.51,0-.8-.16-1.39-.47-1.75s-.81-.55-1.5-.55c-.44,0-.83.09-1.15.27-.32.18-.49.39-.51.63,0,.04-.01.09-.01.15-.04.75-.52,1.12-1.42,1.12-.34,0-.6-.06-.78-.17s-.27-.28-.27-.49c0-.6.55-1.27,1.67-2.02,1.11-.74,2.28-1.12,3.49-1.12s2.09.31,2.71.93c.62.62.93,1.52.93,2.71,0,.36-.03,1.1-.08,2.23-.06,1.13-.08,2.08-.08,2.85,0,.46.06.79.18.99s.31.3.56.3c.14,0,.32-.04.53-.11s.45-.18.71-.33ZM52.18,28.39c-.17.04-.41.11-.72.2-2.15.59-3.23,1.29-3.23,2.1,0,.45.15.83.44,1.13.29.3.66.45,1.11.45.29,0,.61-.07.98-.21.36-.14.84-.39,1.43-.73v-2.94Z"/>
            <path class="cls-2" d="M62.02,22.25l-.18,1.84c.9-.64,1.67-1.11,2.31-1.4s1.21-.44,1.71-.44c1.18,0,2.07.34,2.67,1.03.6.69.9,1.7.9,3.04,0,.25,0,.84-.02,1.77-.02.92-.02,1.72-.02,2.4,0,1.1.08,1.76.24,1.99s.49.34.98.34h.24l-.02.94c-.67-.04-1.24-.08-1.72-.1-.47-.02-.86-.03-1.15-.03-.32,0-.71.01-1.17.03s-1,.06-1.61.1v-.94h.13c.93,0,1.41-.94,1.43-2.81v-2.5c0-1.3-.15-2.17-.45-2.62s-.81-.67-1.54-.67c-.39,0-.81.08-1.26.24-.45.16-.95.41-1.49.75-.03.67-.05,1.37-.07,2.1-.02.73-.02,1.5-.02,2.34v.92c0,1.01.08,1.64.24,1.89.16.25.48.37.97.37h.18v.94c-.63-.04-1.19-.08-1.66-.1-.47-.02-.88-.03-1.21-.03s-.72.01-1.2.03c-.47.02-1.02.06-1.65.1v-.94h.26c.93,0,1.41-.94,1.42-2.82,0-.22,0-.4.01-.52l.02-2.32v-.99c0-.85-.07-1.39-.2-1.65-.13-.25-.37-.38-.73-.38-.07,0-.22.01-.45.03-.04,0-.08.01-.1.01l-.07-.88c.62-.1,1.28-.23,1.98-.4s1.46-.39,2.29-.65Z"/>
            <path class="cls-2" d="M75.43,20.32l.99.28c-.05.42-.08.82-.12,1.2-.03.38-.05.74-.06,1.08.99,0,1.72,0,2.2-.02s.93-.04,1.33-.07l-.29,1.53c-.47-.04-.98-.07-1.53-.08-.55-.02-1.12-.02-1.71-.02-.02.99-.04,1.83-.05,2.53-.01.7-.02,1.25-.02,1.65,0,1.64.12,2.71.36,3.21.24.5.66.75,1.26.75.24,0,.52-.05.82-.15s.66-.25,1.05-.45l.44.94c-.83.46-1.57.82-2.21,1.06-.65.24-1.18.36-1.6.36-.96,0-1.67-.3-2.13-.9-.46-.6-.69-1.54-.69-2.8,0-.25.02-1.06.06-2.44.04-1.38.06-2.64.06-3.77-.01,0-.19,0-.54.02s-.74.03-1.2.04v-1.08c.87-.13,1.6-.43,2.2-.9.59-.48,1.05-1.13,1.38-1.97Z"/>
            <path class="cls-2" d="M92.31,31.84l.42.85c-.68.45-1.3.78-1.85,1-.55.22-1.03.33-1.46.33-.52,0-.92-.13-1.19-.4-.28-.27-.43-.67-.48-1.21-.82.57-1.51.98-2.08,1.23-.56.25-1.07.38-1.52.38-.79,0-1.46-.31-2.02-.92-.56-.61-.83-1.34-.83-2.2,0-1.44,1.61-2.53,4.84-3.27.7-.16,1.25-.3,1.65-.39,0-.19.01-.37.02-.54,0-.18,0-.35,0-.51,0-.8-.16-1.39-.47-1.75s-.81-.55-1.5-.55c-.44,0-.83.09-1.15.27-.32.18-.49.39-.51.63,0,.04-.01.09-.01.15-.04.75-.52,1.12-1.42,1.12-.34,0-.6-.06-.78-.17s-.27-.28-.27-.49c0-.6.55-1.27,1.67-2.02,1.11-.74,2.28-1.12,3.49-1.12s2.09.31,2.71.93c.62.62.93,1.52.93,2.71,0,.36-.03,1.1-.08,2.23-.06,1.13-.08,2.08-.08,2.85,0,.46.06.79.18.99s.31.3.56.3c.14,0,.32-.04.53-.11s.45-.18.71-.33ZM87.8,28.39c-.17.04-.41.11-.72.2-2.15.59-3.23,1.29-3.23,2.1,0,.45.15.83.44,1.13.29.3.66.45,1.11.45.29,0,.61-.07.98-.21.36-.14.84-.39,1.43-.73v-2.94Z"/>
            <path class="cls-2" d="M97.65,22.18c-.05.7-.09,1.31-.12,1.81s-.05.94-.06,1.31c.67-1.12,1.25-1.88,1.73-2.3.48-.42,1.01-.62,1.58-.62.4,0,.75.15,1.04.44.29.29.44.64.44,1.06,0,.38-.09.69-.28.91-.18.22-.43.34-.74.34-.17,0-.41-.06-.72-.19-.31-.12-.55-.19-.73-.19-.34,0-.68.13-1.02.38s-.73.68-1.19,1.28c0,.24,0,.61-.01,1.1,0,.49-.01.87-.01,1.12v1.25c0,1.3.12,2.11.35,2.44.23.33.69.5,1.37.5.04,0,.12,0,.22-.01.1,0,.18-.01.24-.01v.94h-.03c-1.68-.1-2.77-.16-3.27-.16-.4,0-1.41.05-3.04.15h-.23v-.95h.3c.56,0,.95-.14,1.15-.42s.3-.94.3-1.98v-3.8c0-1.12-.07-1.82-.21-2.08-.14-.27-.4-.4-.79-.4-.04,0-.13,0-.25.03-.12.02-.22.03-.29.04l-.09-.9c.71-.11,1.43-.26,2.14-.44s1.45-.4,2.2-.66Z"/>
            <path class="cls-2" d="M114.15,22.33c-.05,1.33-.09,2.54-.12,3.62s-.04,1.98-.04,2.7c0,1.3.15,2.21.46,2.73.31.52.82.77,1.55.77.36,0,.77-.08,1.22-.25.45-.16.94-.4,1.46-.72.02-1.07.04-1.98.05-2.73s.02-1.34.02-1.79v-.51c0-.93-.08-1.51-.25-1.74-.17-.23-.48-.35-.95-.35-.08,0-.17,0-.25,0-.08,0-.17,0-.26.02l-.07-.9c.79-.07,1.56-.16,2.31-.27.75-.1,1.49-.23,2.21-.37-.05,1.74-.09,3.06-.11,3.96-.02.9-.03,1.74-.03,2.52v1.03c0,.97.06,1.59.18,1.84.12.25.36.38.72.38.09,0,.19,0,.3-.02.11-.02.22-.04.34-.07l.11.92-4.32.97v-1.73c-.87.63-1.61,1.07-2.22,1.34s-1.22.39-1.79.39c-1.13,0-1.97-.35-2.52-1.05-.55-.7-.83-1.76-.83-3.18,0-.3,0-.55,0-.74s0-.39.02-.58l.04-1.53c0-.15,0-.34.01-.58,0-.24.01-.4.01-.5,0-.74-.06-1.24-.19-1.5-.13-.26-.36-.39-.69-.39-.14,0-.34.01-.6.03-.03,0-.05.01-.07.01l-.07-.92c.71-.09,1.43-.2,2.16-.34.72-.14,1.45-.3,2.19-.48Z"/>
            <path class="cls-2" d="M128.72,22.25l-.18,1.84c.9-.64,1.67-1.11,2.31-1.4s1.21-.44,1.71-.44c1.18,0,2.07.34,2.67,1.03.6.69.9,1.7.9,3.04,0,.25,0,.84-.02,1.77-.02.92-.02,1.72-.02,2.4,0,1.1.08,1.76.24,1.99s.49.34.98.34h.24l-.02.94c-.67-.04-1.24-.08-1.72-.1-.47-.02-.86-.03-1.15-.03-.32,0-.71.01-1.17.03s-1,.06-1.61.1v-.94h.13c.93,0,1.41-.94,1.43-2.81v-2.5c0-1.3-.15-2.17-.45-2.62s-.81-.67-1.54-.67c-.39,0-.81.08-1.26.24-.45.16-.95.41-1.49.75-.03.67-.05,1.37-.07,2.1-.02.73-.02,1.5-.02,2.34v.92c0,1.01.08,1.64.24,1.89.16.25.48.37.97.37h.18v.94c-.63-.04-1.19-.08-1.66-.1-.47-.02-.88-.03-1.21-.03s-.72.01-1.2.03c-.47.02-1.02.06-1.65.1v-.94h.26c.93,0,1.41-.94,1.42-2.82,0-.22,0-.4.01-.52l.02-2.32v-.99c0-.85-.07-1.39-.2-1.65-.13-.25-.37-.38-.73-.38-.07,0-.22.01-.45.03-.04,0-.08.01-.1.01l-.07-.88c.62-.1,1.28-.23,1.98-.4s1.46-.39,2.29-.65Z"/>
            <path class="cls-2" d="M156.74,31.84l.42.85c-.68.45-1.3.78-1.85,1-.55.22-1.03.33-1.46.33-.52,0-.92-.13-1.19-.4-.28-.27-.43-.67-.48-1.21-.82.57-1.51.98-2.08,1.23-.56.25-1.07.38-1.52.38-.79,0-1.46-.31-2.02-.92-.56-.61-.83-1.34-.83-2.2,0-1.44,1.61-2.53,4.84-3.27.7-.16,1.25-.3,1.65-.39,0-.19.01-.37.02-.54,0-.18,0-.35,0-.51,0-.8-.16-1.39-.47-1.75s-.81-.55-1.5-.55c-.44,0-.83.09-1.15.27-.32.18-.49.39-.51.63,0,.04-.01.09-.01.15-.04.75-.52,1.12-1.42,1.12-.34,0-.6-.06-.78-.17s-.27-.28-.27-.49c0-.6.55-1.27,1.67-2.02,1.11-.74,2.28-1.12,3.49-1.12s2.09.31,2.71.93c.62.62.93,1.52.93,2.71,0,.36-.03,1.1-.08,2.23-.06,1.13-.08,2.08-.08,2.85,0,.46.06.79.18.99s.31.3.56.3c.14,0,.32-.04.53-.11s.45-.18.71-.33ZM152.23,28.39c-.17.04-.41.11-.72.2-2.15.59-3.23,1.29-3.23,2.1,0,.45.15.83.44,1.13.29.3.66.45,1.11.45.29,0,.61-.07.98-.21.36-.14.84-.39,1.43-.73v-2.94ZM152.12,16.06l2.2,1.22-4.03,3.74-1.11-.4,2.93-4.56Z"/>
            <path class="cls-2" d="M162.07,22.18c-.05.7-.09,1.31-.12,1.81s-.05.94-.06,1.31c.67-1.12,1.25-1.88,1.73-2.3.48-.42,1.01-.62,1.58-.62.4,0,.75.15,1.04.44.29.29.44.64.44,1.06,0,.38-.09.69-.28.91-.18.22-.43.34-.74.34-.17,0-.41-.06-.72-.19-.31-.12-.55-.19-.73-.19-.34,0-.68.13-1.02.38s-.73.68-1.19,1.28c0,.24,0,.61-.01,1.1,0,.49-.01.87-.01,1.12v1.25c0,1.3.12,2.11.35,2.44.23.33.69.5,1.37.5.04,0,.12,0,.22-.01.1,0,.18-.01.24-.01v.94h-.03c-1.68-.1-2.77-.16-3.27-.16-.4,0-1.41.05-3.04.15h-.23v-.95h.3c.56,0,.95-.14,1.15-.42s.3-.94.3-1.98v-3.8c0-1.12-.07-1.82-.21-2.08-.14-.27-.4-.4-.79-.4-.04,0-.13,0-.25.03-.12.02-.22.03-.29.04l-.09-.9c.71-.11,1.43-.26,2.14-.44s1.45-.4,2.2-.66Z"/>
            <path class="cls-2" d="M171.72,16.34c-.06,1.39-.11,2.69-.13,3.91-.03,1.22-.05,2.38-.05,3.47.66-.47,1.27-.82,1.85-1.04.58-.22,1.16-.34,1.73-.34,1.35,0,2.5.52,3.43,1.55.93,1.03,1.4,2.31,1.4,3.83,0,1.84-.65,3.35-1.94,4.53s-2.98,1.76-5.07,1.76c-.71,0-1.42-.05-2.11-.16s-1.37-.26-2.02-.47c.04-2.53.08-4.61.1-6.24s.03-2.81.03-3.55v-1.43c0-1.7-.08-2.79-.23-3.26-.15-.48-.44-.71-.86-.71-.03,0-.08,0-.16.02-.08.01-.19.02-.32.04l-.09-.93c.73-.1,1.46-.24,2.2-.39.73-.16,1.48-.35,2.24-.57ZM171.72,32.02c.32.18.63.31.95.4.32.09.64.13.97.13,1.08,0,1.92-.36,2.54-1.08.62-.72.93-1.7.93-2.95,0-1.33-.3-2.38-.89-3.17s-1.38-1.18-2.38-1.18c-.36,0-.73.06-1.1.18-.37.12-.76.3-1.16.55,0,.41-.01.83-.02,1.26s0,.98,0,1.65c0,1.39.01,2.38.03,2.97.02.59.06,1,.12,1.23Z"/>
            <path class="cls-2" d="M187.55,22.27c1.77,0,3.22.54,4.35,1.62,1.13,1.08,1.69,2.45,1.69,4.1,0,1.74-.59,3.19-1.77,4.35-1.18,1.16-2.65,1.75-4.41,1.75s-3.2-.55-4.31-1.64c-1.11-1.09-1.67-2.49-1.67-4.2s.6-3.09,1.79-4.25c1.19-1.16,2.64-1.74,4.33-1.74ZM187.33,23.74c-.93,0-1.64.34-2.15,1.03-.51.68-.76,1.65-.76,2.9,0,1.52.29,2.73.87,3.62.58.89,1.36,1.34,2.34,1.34s1.67-.36,2.21-1.08.81-1.7.81-2.95c0-1.49-.3-2.67-.9-3.54-.6-.87-1.4-1.31-2.41-1.31Z"/>
            <path class="cls-2" d="M199.37,16.36c-.05,1.39-.09,2.72-.11,3.99s-.03,2.47-.03,3.63v4.99c0,1.15.02,1.94.06,2.4.04.45.09.76.17.93s.21.29.42.37.47.12.79.12h.26v.97c-.72-.04-1.35-.08-1.88-.1-.53-.02-.97-.03-1.31-.03-.32,0-.72.01-1.2.03s-1.05.06-1.69.1v-.97s.1,0,.18.01c.08,0,.14.01.17.01.93,0,1.4-1.16,1.4-3.48,0-.37.01-.66.01-.86l.02-5.13v-3.03c0-.84-.07-1.4-.2-1.67-.13-.28-.38-.42-.73-.42-.1,0-.2,0-.32.02-.11.01-.22.03-.33.05l-.12-.9c.8-.13,1.57-.27,2.31-.44.73-.16,1.45-.36,2.14-.57Z"/>
            <path class="cls-2" d="M219.55,28.76l2.96-6.63c.62-1.41,1.04-2.4,1.24-2.98.2-.58.3-1.02.3-1.32v-.11c.08,0,.19,0,.34.01,1.15.05,1.98.08,2.48.08.28,0,.85-.02,1.73-.06.36-.02.64-.03.84-.03v1.01c-.78,0-1.29.1-1.54.29-.25.19-.38.6-.38,1.22,0,.3.02.8.05,1.5.03.7.07,1.47.12,2.3l.16,2.73c.13,1.99.22,3.31.28,3.96.06.65.12,1.08.18,1.29.06.23.21.41.46.53.25.12.57.19.97.19h.28v1.01c-.65-.04-1.27-.07-1.87-.08-.6-.02-1.16-.03-1.67-.03-.29,0-.68,0-1.16.02s-1.2.04-2.17.09v-1.01h.35c.62,0,1.04-.1,1.28-.31s.36-.58.36-1.11c0-.18,0-.36,0-.56,0-.19-.02-.44-.04-.74l-.46-8.96-4.09,9.2c-.39.88-.67,1.56-.82,2.02-.16.46-.28.9-.36,1.32h-1.22c-.07-.31-.16-.64-.28-.99s-.3-.82-.55-1.4l-4.13-9.87c-.22,2.43-.39,4.46-.5,6.11-.12,1.65-.17,2.76-.17,3.35,0,.8.11,1.33.33,1.58.22.25.65.38,1.3.38h.32v1.01c-.74-.04-1.34-.07-1.8-.09-.46-.02-.86-.02-1.2-.02-.18,0-.44,0-.77.02-.34.01-1.01.04-2.02.1v-1.01s.03,0,.07.01c.2.02.33.03.41.03.99,0,1.6-1.38,1.82-4.13.06-.75.11-1.34.15-1.77l.26-2.7c.09-1.06.16-1.95.21-2.66.05-.71.08-1.16.08-1.36,0-.55-.11-.93-.32-1.13-.21-.2-.63-.3-1.25-.3h-.29v-1.01c.48.03.95.05,1.39.07.45.02.86.02,1.24.02.3,0,.93-.02,1.9-.06.39-.02.7-.03.93-.03v.09c0,.58.88,2.92,2.64,7.02.71,1.65,1.27,2.96,1.68,3.93Z"/>
            <path class="cls-2" d="M241.72,27.76h-4.71c-.81.01-1.41.02-1.81.03-.4.01-.77.04-1.11.07,0,1.34.33,2.39,1,3.16s1.59,1.15,2.76,1.15c.56,0,1.12-.09,1.68-.26.55-.18,1.11-.44,1.68-.8l.51.97c-.87.69-1.73,1.2-2.57,1.54-.84.34-1.68.51-2.51.51-1.57,0-2.86-.52-3.87-1.57-1.01-1.04-1.51-2.39-1.51-4.03,0-1.78.55-3.27,1.64-4.46,1.09-1.19,2.43-1.79,4.02-1.79,1.42,0,2.57.5,3.45,1.5.88,1,1.33,2.33,1.35,3.99ZM239.04,26.39c-.16-.88-.45-1.56-.86-2.05-.42-.49-.92-.74-1.5-.74-.69,0-1.26.27-1.72.8-.45.53-.73,1.28-.85,2.23h.71c.93,0,1.73-.02,2.42-.06.68-.04,1.28-.1,1.79-.19Z"/>
            <path class="cls-2" d="M247.61,22.27c-.03.24-.06.63-.1,1.18-.02.25-.03.44-.03.56.92-.63,1.68-1.08,2.29-1.34.61-.27,1.17-.4,1.68-.4.69,0,1.28.16,1.77.47.49.31.88.78,1.19,1.42.92-.67,1.71-1.16,2.36-1.45.66-.29,1.26-.44,1.83-.44,1.05,0,1.87.35,2.44,1.06.58.7.86,1.71.86,3.02v.97l-.04,2.82c0,.05,0,.2-.01.46,0,.25-.01.48-.01.68,0,.64.08,1.05.25,1.25.17.19.5.29.99.29h.28v.94c-.6-.04-1.15-.08-1.63-.1s-.91-.03-1.28-.03c-.26,0-.62.01-1.07.03-.45.02-.98.06-1.6.1v-.94s.09.01.15.02c.05,0,.13,0,.23,0,.46,0,.77-.15.92-.46.15-.3.23-1.06.23-2.29v-1.26c0-.26,0-.61.02-1.04.01-.43.02-.73.02-.89,0-.93-.16-1.61-.49-2.04-.32-.43-.83-.65-1.51-.65-.32,0-.7.08-1.14.24-.44.16-.93.4-1.47.72l-.04,5.18c0,.34,0,.68-.02,1.01v.07c0,.58.07.95.21,1.12.14.17.42.26.85.26h.28v.94c-.59-.04-1.13-.08-1.62-.1s-.92-.03-1.29-.03c-.21,0-.52.01-.93.03s-.91.06-1.5.1v-.94s.09.01.15.02c.05,0,.12,0,.21,0,.43,0,.72-.16.87-.47s.23-1.01.23-2.1v-3.4c0-.93-.16-1.6-.47-2.02s-.8-.63-1.47-.63c-.34,0-.73.08-1.16.23-.44.15-.92.38-1.46.69,0,.25-.02.6-.02,1.07-.05,2.13-.07,3.6-.07,4.4,0,1.03.07,1.66.22,1.88.15.22.45.33.91.33h.33v.94c-.65-.04-1.22-.08-1.71-.1s-.91-.03-1.25-.03-.98.03-1.95.09c-.33.02-.58.04-.75.04v-.94s.27,0,.27,0c.93,0,1.39-.92,1.4-2.76,0-.22.01-.4.01-.53v-3.36c0-.85-.07-1.41-.2-1.66s-.37-.38-.73-.38c-.05,0-.12,0-.21.02-.09.01-.2.03-.32.05l-.1-.88c.54-.1,1.12-.23,1.75-.39.62-.15,1.45-.37,2.46-.65Z"/>
            <path class="cls-2" d="M270.76,22.27c1.77,0,3.22.54,4.35,1.62,1.13,1.08,1.69,2.45,1.69,4.1,0,1.74-.59,3.19-1.77,4.35-1.18,1.16-2.65,1.75-4.41,1.75s-3.2-.55-4.31-1.64c-1.11-1.09-1.67-2.49-1.67-4.2s.6-3.09,1.79-4.25c1.19-1.16,2.64-1.74,4.33-1.74ZM270.53,23.74c-.93,0-1.64.34-2.15,1.03-.51.68-.76,1.65-.76,2.9,0,1.52.29,2.73.87,3.62.58.89,1.36,1.34,2.34,1.34s1.67-.36,2.21-1.08.81-1.7.81-2.95c0-1.49-.3-2.67-.9-3.54-.6-.87-1.4-1.31-2.41-1.31Z"/>
            <path class="cls-2" d="M282.47,22.18c-.05.7-.09,1.31-.12,1.81s-.05.94-.06,1.31c.67-1.12,1.25-1.88,1.73-2.3.48-.42,1.01-.62,1.58-.62.4,0,.75.15,1.04.44.29.29.44.64.44,1.06,0,.38-.09.69-.28.91-.18.22-.43.34-.74.34-.17,0-.41-.06-.72-.19-.31-.12-.55-.19-.73-.19-.34,0-.68.13-1.02.38s-.73.68-1.19,1.28c0,.24,0,.61-.01,1.1,0,.49-.01.87-.01,1.12v1.25c0,1.3.12,2.11.35,2.44.23.33.69.5,1.37.5.04,0,.12,0,.22-.01.1,0,.18-.01.24-.01v.94h-.03c-1.68-.1-2.77-.16-3.27-.16-.4,0-1.41.05-3.04.15h-.23v-.95h.3c.56,0,.95-.14,1.15-.42s.3-.94.3-1.98v-3.8c0-1.12-.07-1.82-.21-2.08-.14-.27-.4-.4-.79-.4-.04,0-.13,0-.25.03-.12.02-.22.03-.29.04l-.09-.9c.71-.11,1.43-.26,2.14-.44s1.45-.4,2.2-.66Z"/>
            <path class="cls-2" d="M292.49,22.25c-.04,1.62-.08,3.03-.11,4.23s-.04,2.19-.04,2.96v1.31c0,.88.09,1.44.26,1.68.18.24.51.37,1.01.37.04,0,.1,0,.17-.01s.14-.01.2-.01v.97c-.69-.04-1.3-.08-1.82-.1s-.95-.03-1.29-.03c-.29,0-.67.01-1.16.03-.49.02-1.06.06-1.73.1v-.97h.24c.96,0,1.45-.88,1.46-2.65v-.66l.02-2.39v-.99c0-.84-.07-1.38-.2-1.62s-.4-.36-.79-.36c-.05,0-.17,0-.36.02-.08,0-.15.02-.19.02l-.17-.9c.8-.1,1.57-.24,2.3-.4s1.47-.37,2.19-.61ZM290.91,16.61l1.03.7c.26.17.45.35.57.54s.19.39.19.61-.05.42-.15.58c-.1.16-.27.33-.52.5l-1.09.74-1.02-.67c-.27-.17-.47-.35-.6-.54s-.2-.38-.2-.58c0-.22.05-.42.16-.6s.3-.36.58-.55l1.06-.72Z"/>
            <path class="cls-2" d="M306.53,31.84l.42.85c-.68.45-1.3.78-1.85,1-.55.22-1.03.33-1.46.33-.52,0-.92-.13-1.19-.4-.28-.27-.43-.67-.48-1.21-.82.57-1.51.98-2.08,1.23-.56.25-1.07.38-1.52.38-.79,0-1.46-.31-2.02-.92-.56-.61-.83-1.34-.83-2.2,0-1.44,1.61-2.53,4.84-3.27.7-.16,1.25-.3,1.65-.39,0-.19.01-.37.02-.54,0-.18,0-.35,0-.51,0-.8-.16-1.39-.47-1.75s-.81-.55-1.5-.55c-.44,0-.83.09-1.15.27-.32.18-.49.39-.51.63,0,.04-.01.09-.01.15-.04.75-.52,1.12-1.42,1.12-.34,0-.6-.06-.78-.17s-.27-.28-.27-.49c0-.6.55-1.27,1.67-2.02,1.11-.74,2.28-1.12,3.49-1.12s2.09.31,2.71.93c.62.62.93,1.52.93,2.71,0,.36-.03,1.1-.08,2.23-.06,1.13-.08,2.08-.08,2.85,0,.46.06.79.18.99s.31.3.56.3c.14,0,.32-.04.53-.11s.45-.18.71-.33ZM302.03,28.39c-.17.04-.41.11-.72.2-2.15.59-3.23,1.29-3.23,2.1,0,.45.15.83.44,1.13.29.3.66.45,1.11.45.29,0,.61-.07.98-.21.36-.14.84-.39,1.43-.73v-2.94Z"/>
            <path class="cls-2" d="M311.97,16.36c-.05,1.39-.09,2.72-.11,3.99s-.03,2.47-.03,3.63v4.99c0,1.15.02,1.94.06,2.4.04.45.09.76.17.93s.21.29.42.37.47.12.79.12h.26v.97c-.72-.04-1.35-.08-1.88-.1-.53-.02-.97-.03-1.31-.03-.32,0-.72.01-1.2.03s-1.05.06-1.69.1v-.97s.1,0,.18.01c.08,0,.14.01.17.01.93,0,1.4-1.16,1.4-3.48,0-.37.01-.66.01-.86l.02-5.13v-3.03c0-.84-.07-1.4-.2-1.67-.13-.28-.38-.42-.73-.42-.1,0-.2,0-.32.02-.11.01-.22.03-.33.05l-.12-.9c.8-.13,1.57-.27,2.31-.44.73-.16,1.45-.36,2.14-.57Z"/>
          </g>
        </g>
      </g>
    </g>
  </g>
</svg>