<?xml version="1.0" encoding="UTF-8"?>
<svg id="Capa_2" data-name="Capa 2" xmlns="http://www.w3.org/2000/svg" viewBox="0 0 1222.36 89.08">
  <defs>
    <style>
      .cls-1 {
        fill: #263530;
      }
    </style>
  </defs>
  <g id="Slide_2" data-name="Slide 2">
    <g>
      <path class="cls-1" d="M20.31,57.54c1.47-4.42,2.76-8.56,3.87-12.41,1.1-3.85,2.2-7.41,3.27-10.67,1.08-3.26,2.2-6.23,3.36-8.92,1.16-2.69,2.52-5.07,4.08-7.14,1.56-2.07,3.39-3.84,5.48-5.31,2.1-1.47,4.62-2.61,7.56-3.4v.42c-1.87,1.13-3.61,2.79-5.23,4.97-1.62,2.18-2.96,5.06-4.04,8.63-1.47,4.82-2.96,9.49-4.46,14.03-1.5,4.53-3.07,8.61-4.72,12.24-1.64,3.63-3.36,6.67-5.14,9.14-1.78,2.47-3.7,4.04-5.74,4.72,1.93.4,3.85.59,5.78.59,1.47,0,2.98-.07,4.51-.21,1.53-.14,3.03-.27,4.5-.38.91,0,1.36.31,1.36.94,0,.34-.16.74-.47,1.19-.31.45-.71.86-1.19,1.23-.48.37-1.02.68-1.62.94s-1.2.38-1.83.38c-3.06,0-6.11-.08-9.14-.25-3.03-.17-6.19-.25-9.48-.25-1.64,0-3.33.03-5.06.08-1.73.06-3.5.2-5.31.42-.45,0-.68-.51-.68-1.53,0-.79.14-1.53.43-2.21.28-.68.62-1.02,1.02-1.02.96.06,2.11.21,3.44.47,1.33.25,2.68.38,4.04.38,2.44,0,4.72-.5,6.84-1.49,2.12-.99,3.64-2.85,4.55-5.57ZM15.81,16.92c2.44-1.25,5.14-2.44,8.12-3.57,2.98-1.13,5.99-2.12,9.05-2.97,3.06-.85,6.05-1.53,8.97-2.04,2.92-.51,5.54-.76,7.86-.76,2.66,0,5.27.21,7.82.64,2.55.43,4.83,1.11,6.84,2.04,2.01.94,3.64,2.15,4.89,3.66,1.25,1.5,1.87,3.36,1.87,5.57,0,2.78-.58,5.24-1.74,7.4-1.16,2.15-2.69,4.07-4.59,5.74-1.9,1.67-4.09,3.09-6.59,4.25-2.49,1.16-5.06,2.11-7.69,2.85-2.63.74-5.24,1.29-7.82,1.66-2.58.37-4.94.55-7.1.55-.34,0-.51-.17-.51-.51,0-.68.34-1.02,1.02-1.02,2.83-.11,5.82-.59,8.97-1.45,3.15-.85,6.05-2.12,8.71-3.82,2.66-1.7,4.87-3.8,6.63-6.29,1.76-2.49,2.64-5.41,2.64-8.75,0-2.04-.57-3.74-1.7-5.1-1.13-1.36-2.58-2.44-4.33-3.23-1.76-.79-3.71-1.35-5.86-1.66-2.15-.31-4.25-.47-6.29-.47-2.89,0-5.77.59-8.63,1.78-2.86,1.19-5.58,2.58-8.16,4.17-2.58,1.59-4.94,3.19-7.1,4.8-2.15,1.62-3.97,2.88-5.44,3.78-.57,0-.98-.25-1.23-.76s-.38-1.13-.38-1.87c0-.96.18-1.9.55-2.8.37-.91.78-1.5,1.23-1.79Z"/>
      <path class="cls-1" d="M79.39,26.01c1.53-4.53,3.49-8.43,5.87-11.69,2.38-3.26,5-5.95,7.86-8.07,2.86-2.12,5.85-3.7,8.97-4.72,3.12-1.02,6.15-1.53,9.09-1.53,1.81,0,3.07.23,3.78.68.71.46,1.06,1.02,1.06,1.7s-.18,1.29-.55,1.83c-.37.54-.84,1.02-1.4,1.44-.57.42-1.2.75-1.91.98-.71.23-1.43.34-2.17.34-.91,0-1.74-.17-2.51-.51-.77-.34-1.49-.71-2.17-1.1-.68-.4-1.32-.77-1.91-1.11-.6-.34-1.18-.51-1.74-.51-1.87,0-3.5.5-4.89,1.49-1.39.99-2.64,2.35-3.74,4.08-1.1,1.73-2.11,3.75-3.02,6.08-.91,2.32-1.78,4.79-2.63,7.4l-9.1,27.62c-1.81,5.38-2.72,9.18-2.72,11.39,0,1.98.74,2.98,2.21,2.98.74,0,1.47-.3,2.21-.89.74-.6,1.49-1.4,2.25-2.42s1.57-2.18,2.42-3.49c.85-1.3,1.73-2.66,2.64-4.08.23-.28.47-.33.72-.13.26.2.33.41.21.64-1.08,1.87-2.15,3.67-3.23,5.4-1.08,1.73-2.2,3.26-3.36,4.59-1.16,1.33-2.37,2.39-3.61,3.19-1.25.79-2.61,1.19-4.08,1.19-1.76,0-3.06-.57-3.91-1.7-.85-1.13-1.27-2.75-1.27-4.85,0-2.83.88-6.88,2.64-12.15l7.99-24.06Z"/>
      <path class="cls-1" d="M89.42,58.22c0-3.57.71-7.25,2.12-11.05,1.42-3.8,3.4-7.27,5.95-10.41,2.55-3.15,5.57-5.72,9.05-7.74,3.48-2.01,7.27-3.02,11.35-3.02,2.15,0,3.9.28,5.23.85,1.33.57,2.51,1.42,3.53,2.55h.17c.51-.34,1.08-.76,1.7-1.28.62-.51,1.25-.99,1.87-1.44.51-.4,1.02-.6,1.53-.6h.59c.45,0,.68.17.68.51,0,.11-.03.23-.08.34l-7.91,24.31c-1.59,4.82-2.41,7.78-2.46,8.88-.06,1.1-.08,1.71-.08,1.83,0,1.87.79,2.81,2.38,2.81.74,0,1.47-.33,2.21-.98.74-.65,1.5-1.5,2.29-2.55.79-1.05,1.6-2.22,2.42-3.53.82-1.3,1.66-2.58,2.51-3.83.11-.11.23-.17.34-.17s.27.06.47.17c.2.11.3.23.3.34,0,.06-.03.11-.08.17-1.08,1.87-2.17,3.68-3.27,5.44-1.1,1.76-2.22,3.29-3.36,4.59-1.13,1.3-2.34,2.35-3.61,3.15-1.27.79-2.65,1.19-4.12,1.19-2.44,0-3.74-.75-3.91-2.25s-.25-2.48-.25-2.93c0-2.61.76-6.32,2.29-11.13l2.72-7.48h-.17c-1.7,3.63-3.43,6.88-5.19,9.78-1.76,2.89-3.54,5.35-5.35,7.39-1.81,2.04-3.65,3.61-5.52,4.72-1.87,1.11-3.77,1.66-5.69,1.66-3.12,0-5.67-.79-7.65-2.38-1.98-1.59-2.97-4.22-2.97-7.91ZM96.39,59.5c0,1.25.16,2.29.47,3.15.31.85.72,1.53,1.23,2.04.51.51,1.1.88,1.78,1.1.68.23,1.39.34,2.12.34,1.53,0,3.13-.61,4.8-1.83,1.67-1.22,3.37-2.93,5.1-5.14,1.73-2.21,3.47-4.87,5.23-7.99,1.76-3.12,3.48-6.57,5.19-10.37l1.36-4.17c.4-1.42.59-2.66.59-3.74,0-1.13-.31-2.27-.93-3.4-.62-1.13-2.24-1.7-4.85-1.7-2.1,0-4.11.54-6.04,1.62-1.93,1.08-3.71,2.49-5.35,4.25-1.64,1.76-3.13,3.75-4.46,5.99-1.33,2.24-2.45,4.53-3.36,6.88-.91,2.35-1.62,4.66-2.12,6.93-.51,2.27-.77,4.28-.77,6.04Z"/>
      <path class="cls-1" d="M147.05,37.4c.17-.62.31-1.16.42-1.62.11-.45.17-.91.17-1.36,0-1.3-.5-2.22-1.49-2.76-.99-.54-2.39-.81-4.21-.81-.17,0-.25-.11-.25-.34,0-.4.23-.65.68-.76,2.72-.4,5.19-.83,7.4-1.32,2.21-.48,4.36-1.12,6.46-1.91.34-.11.6-.17.77-.17.45,0,.59.23.42.68l-8.5,25.42h.26c1.76-3.23,3.43-6.42,5.01-9.56,1.59-3.15,3.19-5.96,4.8-8.46,1.61-2.49,3.33-4.5,5.14-6.04,1.81-1.53,3.8-2.29,5.95-2.29,1.02,0,1.98.1,2.89.3.91.2,1.69.58,2.34,1.15.65.57,1.18,1.3,1.57,2.21.4.91.59,2.1.59,3.57,0,1.19-.16,2.59-.47,4.21-.31,1.62-.81,3.47-1.49,5.57l-2.63,8.16c-.79,2.38-1.4,4.46-1.83,6.25-.42,1.78-.64,3.24-.64,4.38,0,1.93.74,2.89,2.21,2.89.74,0,1.47-.33,2.21-.98.74-.65,1.49-1.5,2.25-2.55.77-1.05,1.56-2.22,2.38-3.53.82-1.3,1.69-2.58,2.59-3.83.23-.23.4-.34.51-.34.23,0,.38.11.47.34.09.23.1.4.04.51-1.13,1.87-2.24,3.67-3.31,5.4-1.08,1.73-2.2,3.26-3.36,4.59-1.16,1.33-2.37,2.39-3.61,3.19-1.25.79-2.61,1.19-4.08,1.19-3.51,0-5.27-1.98-5.27-5.95,0-2.89.94-7.14,2.81-12.75l2.29-6.8c.79-2.38,1.37-4.38,1.74-5.99.37-1.62.55-2.93.55-3.95,0-1.64-.37-2.73-1.1-3.27-.74-.54-1.62-.81-2.64-.81-1.42,0-2.99,1.05-4.72,3.14-1.73,2.1-3.51,4.72-5.35,7.86-1.84,3.14-3.65,6.53-5.44,10.16-1.79,3.63-3.44,6.97-4.97,10.03l-2.21,6.71c-.28.85-.79,1.22-1.53,1.1l-3.83-.42c-.51-.11-.89-.35-1.15-.72-.25-.37-.27-.83-.04-1.4l9.18-28.3Z"/>
      <path class="cls-1" d="M196.18,29.33h-5.27c-.17,0-.27-.04-.3-.13-.03-.08.01-.18.13-.3l1.19-1.45c.28-.28.71-.42,1.27-.42h3.74l2.81-7.99c.79-.45,1.7-1.09,2.72-1.91,1.02-.82,1.96-1.71,2.81-2.68.85,0,1.43.13,1.74.38.31.25.35.72.13,1.4l-3.57,10.79h10.62c.4,0,.51.17.34.51l-.68,1.28c-.28.34-.71.51-1.27.51h-9.77l-7.14,21.93c-1.3,4.19-1.96,7.37-1.96,9.52,0,2.66.88,4,2.64,4,.74,0,1.47-.33,2.21-.98.74-.65,1.49-1.5,2.25-2.55.77-1.05,1.56-2.22,2.38-3.53.82-1.3,1.69-2.58,2.59-3.83.4-.45.69-.52.89-.21.2.31.24.55.13.72-1.13,1.87-2.24,3.67-3.32,5.4-1.08,1.73-2.2,3.26-3.36,4.59-1.16,1.33-2.37,2.39-3.61,3.19-1.25.79-2.61,1.19-4.08,1.19-3.91,0-5.86-2.29-5.86-6.88,0-2.83.85-6.74,2.55-11.73l7.06-20.83Z"/>
      <path class="cls-1" d="M210.03,58.22c0-3.57.71-7.25,2.12-11.05,1.42-3.8,3.4-7.27,5.95-10.41,2.55-3.15,5.57-5.72,9.05-7.74,3.48-2.01,7.27-3.02,11.35-3.02,2.15,0,3.9.28,5.23.85,1.33.57,2.51,1.42,3.53,2.55h.17c.51-.34,1.08-.76,1.7-1.28.62-.51,1.25-.99,1.87-1.44.51-.4,1.02-.6,1.53-.6h.59c.45,0,.68.17.68.51,0,.11-.03.23-.08.34l-7.91,24.31c-1.59,4.82-2.41,7.78-2.46,8.88-.06,1.1-.08,1.71-.08,1.83,0,1.87.79,2.81,2.38,2.81.74,0,1.47-.33,2.21-.98.74-.65,1.5-1.5,2.29-2.55.79-1.05,1.6-2.22,2.42-3.53.82-1.3,1.66-2.58,2.51-3.83.11-.11.23-.17.34-.17s.27.06.47.17c.2.11.3.23.3.34,0,.06-.03.11-.08.17-1.08,1.87-2.17,3.68-3.27,5.44-1.1,1.76-2.22,3.29-3.36,4.59-1.13,1.3-2.34,2.35-3.61,3.15-1.27.79-2.65,1.19-4.12,1.19-2.44,0-3.74-.75-3.91-2.25s-.25-2.48-.25-2.93c0-2.61.76-6.32,2.29-11.13l2.72-7.48h-.17c-1.7,3.63-3.43,6.88-5.19,9.78-1.76,2.89-3.54,5.35-5.35,7.39-1.81,2.04-3.65,3.61-5.52,4.72-1.87,1.11-3.77,1.66-5.69,1.66-3.12,0-5.67-.79-7.65-2.38-1.98-1.59-2.97-4.22-2.97-7.91ZM217,59.5c0,1.25.16,2.29.47,3.15.31.85.72,1.53,1.23,2.04.51.51,1.1.88,1.78,1.1.68.23,1.39.34,2.12.34,1.53,0,3.13-.61,4.8-1.83,1.67-1.22,3.37-2.93,5.1-5.14,1.73-2.21,3.47-4.87,5.23-7.99,1.76-3.12,3.48-6.57,5.19-10.37l1.36-4.17c.4-1.42.59-2.66.59-3.74,0-1.13-.31-2.27-.93-3.4-.62-1.13-2.24-1.7-4.85-1.7-2.1,0-4.11.54-6.04,1.62-1.93,1.08-3.71,2.49-5.35,4.25-1.64,1.76-3.13,3.75-4.46,5.99-1.33,2.24-2.45,4.53-3.36,6.88-.91,2.35-1.62,4.66-2.12,6.93-.51,2.27-.77,4.28-.77,6.04Z"/>
      <path class="cls-1" d="M267.58,37.4c.28-.68.47-1.29.55-1.83.08-.54.13-1.03.13-1.49,0-1.25-.48-2.1-1.44-2.55-.96-.45-2.38-.68-4.25-.68-.34,0-.45-.17-.34-.51.17-.28.4-.48.68-.59,2.72-.4,5.14-.83,7.27-1.32,2.12-.48,4.24-1.12,6.33-1.91.23-.11.48-.17.77-.17.45,0,.59.23.42.68l-5.61,17.68h.25c1.02-1.81,2.21-3.81,3.57-5.99,1.36-2.18,2.89-4.24,4.59-6.16,1.7-1.93,3.57-3.53,5.61-4.8,2.04-1.28,4.25-1.91,6.63-1.91,1.02,0,1.77.23,2.25.68.48.45.72.99.72,1.61,0,.96-.48,1.94-1.44,2.93-.96.99-2.27,1.49-3.91,1.49-2.04,0-3.94.38-5.69,1.15-1.76.77-3.42,1.81-4.97,3.15-1.56,1.33-3.02,2.9-4.38,4.72-1.36,1.81-2.64,3.77-3.83,5.86l-6.54,19.72c-.28.85-.79,1.22-1.53,1.1l-3.74-.42c-1.25-.17-1.67-.88-1.27-2.12l9.18-28.3Z"/>
      <path class="cls-1" d="M320.7,37.4c.28-.79.5-1.52.64-2.17.14-.65.21-1.2.21-1.66,0-1.19-.41-1.98-1.23-2.38-.82-.4-2.05-.6-3.7-.6-.34,0-.45-.14-.34-.42.17-.4.42-.62.76-.68,2.72-.4,5.03-.83,6.93-1.32,1.9-.48,3.9-1.12,5.99-1.91.23-.11.48-.17.77-.17.45,0,.6.23.43.68l-8.25,25.42c-.62,1.93-1.08,3.61-1.36,5.06-.28,1.44-.42,2.68-.42,3.7,0,1.93.37,3.23,1.1,3.91.74.68,1.56,1.02,2.46,1.02,1.47,0,3.07-.91,4.8-2.72,1.73-1.81,3.48-4.12,5.27-6.93s3.54-5.92,5.27-9.35c1.73-3.43,3.3-6.73,4.72-9.9l.68-2.55c.28-.91.5-1.79.64-2.63.14-.85.31-1.63.51-2.34.2-.71.51-1.33.94-1.87.42-.54,1.01-.98,1.74-1.32.06,0,.27-.01.64-.04.37-.03.77-.06,1.19-.08.43-.03.82-.04,1.19-.04h.64c.11,0,.3.01.55.04.25.03.51.07.76.13.25.06.47.13.64.21s.23.18.17.3l-7.99,24.48c-.79,2.38-1.4,4.45-1.83,6.21-.43,1.76-.64,3.2-.64,4.33,0,1.98.74,2.98,2.21,2.98.74,0,1.47-.33,2.21-.98.74-.65,1.49-1.5,2.25-2.55.77-1.05,1.57-2.22,2.42-3.53.85-1.3,1.73-2.58,2.63-3.83.17-.23.34-.34.51-.34.23,0,.38.11.47.34.08.23.07.4-.04.51-1.08,1.87-2.15,3.67-3.23,5.4-1.08,1.73-2.2,3.26-3.36,4.59-1.16,1.33-2.37,2.39-3.61,3.19-1.25.79-2.61,1.19-4.08,1.19-3.4,0-5.1-1.81-5.1-5.44,0-1.53.27-3.39.81-5.57.54-2.18,1.32-4.75,2.34-7.69l3.06-8.67h-.26c-1.19,2.72-2.56,5.67-4.12,8.84-1.56,3.17-3.26,6.12-5.1,8.84-1.84,2.72-3.81,4.99-5.91,6.8-2.1,1.81-4.31,2.72-6.63,2.72-.91,0-1.81-.13-2.72-.38-.91-.25-1.73-.69-2.46-1.32-.74-.62-1.35-1.46-1.83-2.51-.48-1.05-.72-2.37-.72-3.95,0-2.21.54-4.96,1.61-8.25l4.76-14.79Z"/>
      <path class="cls-1" d="M368.81,37.4c.17-.62.31-1.16.42-1.62.11-.45.17-.91.17-1.36,0-1.3-.5-2.22-1.49-2.76-.99-.54-2.39-.81-4.21-.81-.17,0-.25-.11-.25-.34,0-.4.23-.65.68-.76,2.72-.4,5.19-.83,7.4-1.32,2.21-.48,4.36-1.12,6.46-1.91.34-.11.6-.17.77-.17.45,0,.59.23.42.68l-8.5,25.42h.26c1.76-3.23,3.43-6.42,5.01-9.56,1.59-3.15,3.19-5.96,4.8-8.46,1.61-2.49,3.33-4.5,5.14-6.04,1.81-1.53,3.8-2.29,5.95-2.29,1.02,0,1.98.1,2.89.3.91.2,1.69.58,2.34,1.15.65.57,1.18,1.3,1.57,2.21.4.91.59,2.1.59,3.57,0,1.19-.16,2.59-.47,4.21-.31,1.62-.81,3.47-1.49,5.57l-2.63,8.16c-.79,2.38-1.4,4.46-1.83,6.25-.42,1.78-.64,3.24-.64,4.38,0,1.93.74,2.89,2.21,2.89.74,0,1.47-.33,2.21-.98.74-.65,1.49-1.5,2.25-2.55.77-1.05,1.56-2.22,2.38-3.53.82-1.3,1.69-2.58,2.59-3.83.23-.23.4-.34.51-.34.23,0,.38.11.47.34.09.23.1.4.04.51-1.13,1.87-2.24,3.67-3.31,5.4-1.08,1.73-2.2,3.26-3.36,4.59-1.16,1.33-2.37,2.39-3.61,3.19-1.25.79-2.61,1.19-4.08,1.19-3.51,0-5.27-1.98-5.27-5.95,0-2.89.94-7.14,2.81-12.75l2.29-6.8c.79-2.38,1.37-4.38,1.74-5.99.37-1.62.55-2.93.55-3.95,0-1.64-.37-2.73-1.1-3.27-.74-.54-1.62-.81-2.64-.81-1.42,0-2.99,1.05-4.72,3.14-1.73,2.1-3.51,4.72-5.35,7.86-1.84,3.14-3.65,6.53-5.44,10.16-1.79,3.63-3.44,6.97-4.97,10.03l-2.21,6.71c-.28.85-.79,1.22-1.53,1.1l-3.83-.42c-.51-.11-.89-.35-1.15-.72-.25-.37-.27-.83-.04-1.4l9.18-28.3Z"/>
      <path class="cls-1" d="M425.76,58.22c0-3.57.71-7.25,2.12-11.05,1.42-3.8,3.4-7.27,5.95-10.41,2.55-3.15,5.57-5.72,9.05-7.74,3.48-2.01,7.27-3.02,11.35-3.02,2.15,0,3.9.28,5.23.85,1.33.57,2.51,1.42,3.53,2.55h.17c.51-.34,1.08-.76,1.7-1.28.62-.51,1.25-.99,1.87-1.44.51-.4,1.02-.6,1.53-.6h.59c.45,0,.68.17.68.51,0,.11-.03.23-.08.34l-7.91,24.31c-1.59,4.82-2.41,7.78-2.46,8.88-.06,1.1-.08,1.71-.08,1.83,0,1.87.79,2.81,2.38,2.81.74,0,1.47-.33,2.21-.98.74-.65,1.5-1.5,2.29-2.55.79-1.05,1.6-2.22,2.42-3.53.82-1.3,1.66-2.58,2.51-3.83.11-.11.23-.17.34-.17s.27.06.47.17c.2.11.3.23.3.34,0,.06-.03.11-.08.17-1.08,1.87-2.17,3.68-3.27,5.44-1.1,1.76-2.22,3.29-3.36,4.59-1.13,1.3-2.34,2.35-3.61,3.15-1.27.79-2.65,1.19-4.12,1.19-2.44,0-3.74-.75-3.91-2.25s-.25-2.48-.25-2.93c0-2.61.76-6.32,2.29-11.13l2.72-7.48h-.17c-1.7,3.63-3.43,6.88-5.19,9.78-1.76,2.89-3.54,5.35-5.35,7.39-1.81,2.04-3.65,3.61-5.52,4.72-1.87,1.11-3.77,1.66-5.69,1.66-3.12,0-5.67-.79-7.65-2.38-1.98-1.59-2.97-4.22-2.97-7.91ZM432.73,59.5c0,1.25.16,2.29.47,3.15.31.85.72,1.53,1.23,2.04.51.51,1.1.88,1.78,1.1.68.23,1.39.34,2.12.34,1.53,0,3.13-.61,4.8-1.83,1.67-1.22,3.37-2.93,5.1-5.14,1.73-2.21,3.47-4.87,5.23-7.99,1.76-3.12,3.48-6.57,5.19-10.37l1.36-4.17c.4-1.42.59-2.66.59-3.74,0-1.13-.31-2.27-.93-3.4-.62-1.13-2.24-1.7-4.85-1.7-2.1,0-4.11.54-6.04,1.62-1.93,1.08-3.71,2.49-5.35,4.25-1.64,1.76-3.13,3.75-4.46,5.99-1.33,2.24-2.45,4.53-3.36,6.88-.91,2.35-1.62,4.66-2.12,6.93-.51,2.27-.77,4.28-.77,6.04ZM466.9,8.75c.91-1.19,1.98-1.79,3.23-1.79.79,0,1.32.11,1.57.34s.38.48.38.76c0,.45-.21.93-.64,1.45-.43.51-.86.96-1.32,1.36-.34.34-.88.82-1.61,1.45-.74.62-1.56,1.3-2.46,2.04-.91.74-1.87,1.49-2.89,2.25-1.02.77-2,1.47-2.93,2.12-.94.65-1.79,1.18-2.55,1.57-.77.4-1.35.59-1.74.59s-.6-.11-.6-.34c0-.17.17-.37.51-.6,1.3-1.02,2.45-1.98,3.44-2.89.99-.91,1.91-1.79,2.76-2.63.85-.85,1.66-1.74,2.42-2.68.77-.93,1.57-1.94,2.42-3.02Z"/>
      <path class="cls-1" d="M483.3,37.4c.28-.68.47-1.29.55-1.83.08-.54.13-1.03.13-1.49,0-1.25-.48-2.1-1.44-2.55-.96-.45-2.38-.68-4.25-.68-.34,0-.45-.17-.34-.51.17-.28.4-.48.68-.59,2.72-.4,5.14-.83,7.27-1.32,2.12-.48,4.24-1.12,6.33-1.91.23-.11.48-.17.77-.17.45,0,.59.23.42.68l-5.61,17.68h.25c1.02-1.81,2.21-3.81,3.57-5.99,1.36-2.18,2.89-4.24,4.59-6.16,1.7-1.93,3.57-3.53,5.61-4.8,2.04-1.28,4.25-1.91,6.63-1.91,1.02,0,1.77.23,2.25.68.48.45.72.99.72,1.61,0,.96-.48,1.94-1.44,2.93-.96.99-2.27,1.49-3.91,1.49-2.04,0-3.94.38-5.69,1.15-1.76.77-3.42,1.81-4.97,3.15-1.56,1.33-3.02,2.9-4.38,4.72-1.36,1.81-2.64,3.77-3.83,5.86l-6.54,19.72c-.28.85-.79,1.22-1.53,1.1l-3.74-.42c-1.25-.17-1.67-.88-1.27-2.12l9.18-28.3Z"/>
      <path class="cls-1" d="M519.26,25.75c1.53-4.53,3.49-8.42,5.87-11.64,2.38-3.23,5-5.89,7.86-7.99,2.86-2.1,5.84-3.64,8.93-4.63,3.09-.99,6.1-1.49,9.05-1.49,1.81,0,3.07.23,3.78.68.71.46,1.06.99,1.06,1.62,0,.68-.21,1.3-.64,1.87-.42.57-.94,1.06-1.53,1.49-.6.42-1.25.75-1.96.98-.71.23-1.35.34-1.91.34-.91,0-1.74-.17-2.51-.51-.77-.34-1.49-.71-2.17-1.1-.68-.4-1.32-.77-1.91-1.11-.6-.34-1.18-.51-1.74-.51-1.87,0-3.5.5-4.89,1.49-1.39.99-2.64,2.35-3.74,4.08-1.1,1.73-2.1,3.75-2.98,6.08-.88,2.32-1.77,4.79-2.68,7.4l-11.22,32.81h.25c1.59-3.06,3.43-6.32,5.53-9.77,2.1-3.46,4.31-6.63,6.63-9.52,2.32-2.89,4.73-5.28,7.23-7.18,2.49-1.9,4.93-2.85,7.31-2.85,2.78,0,4.99.82,6.63,2.47,1.64,1.64,2.46,4.14,2.46,7.48,0,3.97-.77,7.89-2.29,11.77-1.53,3.88-3.64,7.35-6.33,10.41-2.69,3.06-5.84,5.54-9.44,7.44-3.6,1.9-7.49,2.85-11.69,2.85-1.42,0-2.83-.14-4.25-.42-1.42-.28-2.78-.69-4.08-1.23-1.3-.54-2.52-1.2-3.65-2-1.13-.79-2.12-1.7-2.98-2.72l11.98-36.55ZM514.16,62.56c2.49,2.83,5.35,4.25,8.59,4.25s6.1-1.02,8.8-3.06c2.69-2.04,5.03-4.58,7.01-7.61,1.98-3.03,3.53-6.29,4.63-9.78,1.1-3.48,1.66-6.67,1.66-9.56,0-2.15-.42-3.92-1.27-5.31-.85-1.39-2.27-2.08-4.25-2.08-1.47,0-3.17.81-5.1,2.42-1.93,1.61-3.95,3.82-6.08,6.63-2.12,2.8-4.31,6.09-6.55,9.86-2.24,3.77-4.43,7.78-6.59,12.03l-.85,2.21Z"/>
      <path class="cls-1" d="M555.04,55.42c0-3.23.59-6.59,1.78-10.07s2.86-6.67,5.02-9.56c2.15-2.89,4.7-5.28,7.65-7.18,2.95-1.9,6.18-2.85,9.69-2.85,4.08,0,7.24,1.16,9.48,3.49,2.24,2.32,3.36,5.61,3.36,9.86,0,3.29-.58,6.67-1.74,10.16-1.16,3.48-2.81,6.67-4.93,9.56-2.12,2.89-4.67,5.26-7.65,7.1-2.98,1.84-6.25,2.76-9.82,2.76-4.02,0-7.17-1.15-9.44-3.44-2.27-2.29-3.4-5.57-3.4-9.82ZM562.1,57.29c0,3.29.64,5.75,1.91,7.4s2.96,2.46,5.06,2.46c2.44,0,4.63-1.02,6.59-3.06s3.63-4.58,5.02-7.61c1.39-3.03,2.45-6.29,3.19-9.77.74-3.49,1.1-6.7,1.1-9.65,0-3.23-.61-5.7-1.83-7.4-1.22-1.7-2.82-2.55-4.8-2.55-1.64,0-3.17.48-4.59,1.45-1.42.96-2.73,2.24-3.95,3.82-1.22,1.59-2.3,3.42-3.23,5.48-.94,2.07-1.74,4.22-2.42,6.46-.68,2.24-1.19,4.48-1.53,6.72-.34,2.24-.51,4.32-.51,6.25Z"/>
      <path class="cls-1" d="M606.29,26.01c1.53-4.53,3.49-8.43,5.87-11.69,2.38-3.26,5-5.95,7.86-8.07,2.86-2.12,5.85-3.7,8.97-4.72,3.12-1.02,6.15-1.53,9.09-1.53,1.81,0,3.07.23,3.78.68.71.46,1.06,1.02,1.06,1.7s-.18,1.29-.55,1.83c-.37.54-.84,1.02-1.4,1.44-.57.42-1.2.75-1.91.98-.71.23-1.43.34-2.17.34-.91,0-1.74-.17-2.51-.51-.77-.34-1.49-.71-2.17-1.1s-1.32-.77-1.91-1.11c-.6-.34-1.18-.51-1.74-.51-1.87,0-3.5.5-4.89,1.49-1.39.99-2.64,2.35-3.74,4.08-1.11,1.73-2.11,3.75-3.02,6.08-.91,2.32-1.79,4.79-2.63,7.4l-9.1,27.62c-1.81,5.38-2.72,9.18-2.72,11.39,0,1.98.74,2.98,2.21,2.98.74,0,1.47-.3,2.21-.89.74-.6,1.49-1.4,2.25-2.42.76-1.02,1.57-2.18,2.42-3.49.85-1.3,1.73-2.66,2.64-4.08.23-.28.47-.33.72-.13.26.2.33.41.21.64-1.08,1.87-2.15,3.67-3.23,5.4-1.08,1.73-2.2,3.26-3.36,4.59-1.16,1.33-2.37,2.39-3.61,3.19-1.25.79-2.61,1.19-4.08,1.19-1.76,0-3.06-.57-3.91-1.7-.85-1.13-1.27-2.75-1.27-4.85,0-2.83.88-6.88,2.64-12.15l7.99-24.06Z"/>
      <path class="cls-1" d="M646.75,37.15c.51-1.47.76-2.66.76-3.57,0-1.13-.42-1.91-1.27-2.34-.85-.42-2.32-.64-4.42-.64-.23,0-.34-.08-.34-.25v-.17c.06-.34.28-.57.68-.68,1.64-.17,3.09-.37,4.33-.59,1.25-.23,2.39-.47,3.44-.72,1.05-.25,2.07-.54,3.06-.85.99-.31,2-.67,3.02-1.06.23-.11.48-.17.77-.17s.42.14.42.43v.25c-.17.4-.33.82-.47,1.27-.14.45-.3.91-.47,1.36l-1.87,5.95c-.17.45-.33.91-.47,1.36-.14.45-.27.88-.38,1.28l-5.52,16.58h.25c1.7-3.34,3.44-6.71,5.23-10.12s3.61-6.47,5.48-9.22c1.87-2.75,3.78-5,5.74-6.76,1.96-1.75,3.95-2.63,5.99-2.63,3.06,0,5.47.84,7.23,2.51,1.76,1.67,2.63,4.24,2.63,7.69s-.68,7.25-2.04,11.05c-1.36,3.8-3.23,7.25-5.61,10.37-2.38,3.12-5.21,5.67-8.5,7.65-3.29,1.98-6.88,2.97-10.79,2.97-2.95,0-5.41-.76-7.39-2.29-.23-.11-.34-.25-.34-.42,0-.11.06-.25.17-.42.11-.17.23-.27.34-.3.11-.03.2-.04.25-.04.17,0,.31.06.42.17,1.47,1.19,3.23,1.78,5.27,1.78s3.97-.51,5.78-1.53c1.81-1.02,3.51-2.37,5.1-4.04,1.59-1.67,3.03-3.58,4.33-5.74,1.3-2.15,2.41-4.38,3.31-6.67.91-2.29,1.62-4.56,2.12-6.8.51-2.24.77-4.29.77-6.16,0-2.55-.48-4.41-1.45-5.57-.96-1.16-2.12-1.74-3.49-1.74-1.59,0-3.3,1.04-5.14,3.1-1.84,2.07-3.74,4.68-5.7,7.82-1.96,3.15-3.92,6.62-5.91,10.41-1.98,3.8-3.91,7.42-5.78,10.88l-5.7,17.17c-.57,1.64-.99,3.03-1.27,4.17-.28,1.13-.43,2.1-.43,2.89,0,1.3.4,2.17,1.19,2.59.79.42,1.93.64,3.4.64.28,0,.42.09.42.26,0,.11-.03.2-.08.25-.06.4-.31.59-.77.59h-19.46c-.28,0-.42-.14-.42-.42v-.17c.17-.34.42-.51.76-.51,1.19,0,2.22-.11,3.1-.34.88-.23,1.69-.71,2.42-1.44.74-.74,1.43-1.79,2.08-3.15.65-1.36,1.35-3.14,2.08-5.35l13.09-40.54Z"/>
      <path class="cls-1" d="M683.64,58.22c0-3.57.71-7.25,2.12-11.05,1.42-3.8,3.4-7.27,5.95-10.41,2.55-3.15,5.57-5.72,9.05-7.74,3.48-2.01,7.27-3.02,11.35-3.02,2.15,0,3.9.28,5.23.85,1.33.57,2.51,1.42,3.53,2.55h.17c.51-.34,1.08-.76,1.7-1.28.62-.51,1.25-.99,1.87-1.44.51-.4,1.02-.6,1.53-.6h.59c.45,0,.68.17.68.51,0,.11-.03.23-.08.34l-7.91,24.31c-1.59,4.82-2.41,7.78-2.46,8.88-.06,1.1-.08,1.71-.08,1.83,0,1.87.79,2.81,2.38,2.81.74,0,1.47-.33,2.21-.98.74-.65,1.5-1.5,2.29-2.55.79-1.05,1.6-2.22,2.42-3.53.82-1.3,1.66-2.58,2.51-3.83.11-.11.23-.17.34-.17s.27.06.47.17c.2.11.3.23.3.34,0,.06-.03.11-.08.17-1.08,1.87-2.17,3.68-3.27,5.44-1.11,1.76-2.22,3.29-3.36,4.59-1.13,1.3-2.34,2.35-3.61,3.15-1.27.79-2.65,1.19-4.12,1.19-2.44,0-3.74-.75-3.91-2.25s-.25-2.48-.25-2.93c0-2.61.76-6.32,2.29-11.13l2.72-7.48h-.17c-1.7,3.63-3.43,6.88-5.18,9.78-1.76,2.89-3.54,5.35-5.36,7.39s-3.65,3.61-5.52,4.72c-1.87,1.11-3.77,1.66-5.7,1.66-3.12,0-5.67-.79-7.65-2.38-1.98-1.59-2.97-4.22-2.97-7.91ZM690.61,59.5c0,1.25.16,2.29.47,3.15.31.85.72,1.53,1.23,2.04.51.51,1.11.88,1.79,1.1.68.23,1.39.34,2.12.34,1.53,0,3.13-.61,4.8-1.83,1.67-1.22,3.37-2.93,5.1-5.14,1.73-2.21,3.47-4.87,5.23-7.99,1.76-3.12,3.49-6.57,5.19-10.37l1.36-4.17c.4-1.42.59-2.66.59-3.74,0-1.13-.31-2.27-.93-3.4-.62-1.13-2.24-1.7-4.84-1.7-2.1,0-4.11.54-6.04,1.62-1.93,1.08-3.71,2.49-5.36,4.25-1.64,1.76-3.13,3.75-4.46,5.99-1.33,2.24-2.45,4.53-3.36,6.88-.91,2.35-1.62,4.66-2.12,6.93-.51,2.27-.77,4.28-.77,6.04Z"/>
      <path class="cls-1" d="M741.19,37.4c.28-.68.47-1.29.55-1.83.08-.54.13-1.03.13-1.49,0-1.25-.48-2.1-1.44-2.55-.96-.45-2.38-.68-4.25-.68-.34,0-.45-.17-.34-.51.17-.28.4-.48.68-.59,2.72-.4,5.14-.83,7.27-1.32,2.12-.48,4.24-1.12,6.33-1.91.23-.11.48-.17.77-.17.45,0,.59.23.42.68l-5.61,17.68h.25c1.02-1.81,2.21-3.81,3.57-5.99,1.36-2.18,2.89-4.24,4.59-6.16,1.7-1.93,3.57-3.53,5.61-4.8,2.04-1.28,4.25-1.91,6.63-1.91,1.02,0,1.77.23,2.25.68.48.45.72.99.72,1.61,0,.96-.48,1.94-1.44,2.93-.96.99-2.27,1.49-3.91,1.49-2.04,0-3.94.38-5.7,1.15-1.76.77-3.42,1.81-4.97,3.15-1.56,1.33-3.02,2.9-4.38,4.72-1.36,1.81-2.64,3.77-3.83,5.86l-6.54,19.72c-.28.85-.79,1.22-1.53,1.1l-3.74-.42c-1.25-.17-1.67-.88-1.27-2.12l9.18-28.3Z"/>
      <path class="cls-1" d="M764.65,58.22c0-3.57.71-7.25,2.12-11.05,1.42-3.8,3.4-7.27,5.95-10.41,2.55-3.15,5.57-5.72,9.05-7.74,3.48-2.01,7.27-3.02,11.35-3.02,2.15,0,3.9.28,5.23.85,1.33.57,2.51,1.42,3.53,2.55h.17c.51-.34,1.08-.76,1.7-1.28.62-.51,1.25-.99,1.87-1.44.51-.4,1.02-.6,1.53-.6h.59c.45,0,.68.17.68.51,0,.11-.03.23-.08.34l-7.91,24.31c-1.59,4.82-2.41,7.78-2.46,8.88-.06,1.1-.08,1.71-.08,1.83,0,1.87.79,2.81,2.38,2.81.74,0,1.47-.33,2.21-.98.74-.65,1.5-1.5,2.29-2.55.79-1.05,1.6-2.22,2.42-3.53.82-1.3,1.66-2.58,2.51-3.83.11-.11.23-.17.34-.17s.27.06.47.17c.2.11.3.23.3.34,0,.06-.03.11-.08.17-1.08,1.87-2.17,3.68-3.27,5.44-1.11,1.76-2.22,3.29-3.36,4.59-1.13,1.3-2.34,2.35-3.61,3.15-1.27.79-2.65,1.19-4.12,1.19-2.44,0-3.74-.75-3.91-2.25s-.25-2.48-.25-2.93c0-2.61.76-6.32,2.29-11.13l2.72-7.48h-.17c-1.7,3.63-3.43,6.88-5.18,9.78-1.76,2.89-3.54,5.35-5.36,7.39s-3.65,3.61-5.52,4.72c-1.87,1.11-3.77,1.66-5.7,1.66-3.12,0-5.67-.79-7.65-2.38-1.98-1.59-2.97-4.22-2.97-7.91ZM771.61,59.5c0,1.25.16,2.29.47,3.15.31.85.72,1.53,1.23,2.04.51.51,1.11.88,1.79,1.1.68.23,1.39.34,2.12.34,1.53,0,3.13-.61,4.8-1.83,1.67-1.22,3.37-2.93,5.1-5.14,1.73-2.21,3.47-4.87,5.23-7.99,1.76-3.12,3.49-6.57,5.19-10.37l1.36-4.17c.4-1.42.59-2.66.59-3.74,0-1.13-.31-2.27-.93-3.4-.62-1.13-2.24-1.7-4.84-1.7-2.1,0-4.11.54-6.04,1.62-1.93,1.08-3.71,2.49-5.36,4.25-1.64,1.76-3.13,3.75-4.46,5.99-1.33,2.24-2.45,4.53-3.36,6.88-.91,2.35-1.62,4.66-2.12,6.93-.51,2.27-.77,4.28-.77,6.04Z"/>
      <path class="cls-1" d="M844.29,29.33h-5.27c-.17,0-.27-.04-.3-.13-.03-.08.01-.18.13-.3l1.19-1.45c.28-.28.71-.42,1.28-.42h3.74l2.81-7.99c.79-.45,1.7-1.09,2.72-1.91s1.96-1.71,2.8-2.68c.85,0,1.43.13,1.74.38.31.25.35.72.13,1.4l-3.57,10.79h10.62c.4,0,.51.17.34.51l-.68,1.28c-.28.34-.71.51-1.27.51h-9.78l-7.14,21.93c-1.3,4.19-1.96,7.37-1.96,9.52,0,2.66.88,4,2.63,4,.74,0,1.47-.33,2.21-.98.74-.65,1.49-1.5,2.25-2.55.76-1.05,1.56-2.22,2.38-3.53.82-1.3,1.69-2.58,2.59-3.83.4-.45.69-.52.89-.21.2.31.24.55.13.72-1.13,1.87-2.24,3.67-3.32,5.4s-2.2,3.26-3.36,4.59c-1.16,1.33-2.37,2.39-3.61,3.19-1.25.79-2.61,1.19-4.08,1.19-3.91,0-5.86-2.29-5.86-6.88,0-2.83.85-6.74,2.55-11.73l7.05-20.83Z"/>
      <path class="cls-1" d="M868.6,37.4c.28-.68.47-1.29.55-1.83.08-.54.13-1.03.13-1.49,0-1.25-.48-2.1-1.44-2.55-.96-.45-2.38-.68-4.25-.68-.34,0-.45-.17-.34-.51.17-.28.4-.48.68-.59,2.72-.4,5.14-.83,7.27-1.32,2.12-.48,4.24-1.12,6.33-1.91.23-.11.48-.17.77-.17.45,0,.59.23.42.68l-5.61,17.68h.25c1.02-1.81,2.21-3.81,3.57-5.99,1.36-2.18,2.89-4.24,4.59-6.16,1.7-1.93,3.57-3.53,5.61-4.8,2.04-1.28,4.25-1.91,6.63-1.91,1.02,0,1.77.23,2.25.68.48.45.72.99.72,1.61,0,.96-.48,1.94-1.44,2.93-.96.99-2.27,1.49-3.91,1.49-2.04,0-3.94.38-5.7,1.15-1.76.77-3.42,1.81-4.97,3.15-1.56,1.33-3.02,2.9-4.38,4.72-1.36,1.81-2.64,3.77-3.83,5.86l-6.54,19.72c-.28.85-.79,1.22-1.53,1.1l-3.74-.42c-1.25-.17-1.67-.88-1.27-2.12l9.18-28.3Z"/>
      <path class="cls-1" d="M892.06,58.22c0-3.57.71-7.25,2.12-11.05,1.42-3.8,3.4-7.27,5.95-10.41,2.55-3.15,5.57-5.72,9.05-7.74,3.48-2.01,7.27-3.02,11.35-3.02,2.15,0,3.9.28,5.23.85,1.33.57,2.51,1.42,3.53,2.55h.17c.51-.34,1.08-.76,1.7-1.28.62-.51,1.25-.99,1.87-1.44.51-.4,1.02-.6,1.53-.6h.59c.45,0,.68.17.68.51,0,.11-.03.23-.08.34l-7.91,24.31c-1.59,4.82-2.41,7.78-2.46,8.88-.06,1.1-.08,1.71-.08,1.83,0,1.87.79,2.81,2.38,2.81.74,0,1.47-.33,2.21-.98.74-.65,1.5-1.5,2.29-2.55.79-1.05,1.6-2.22,2.42-3.53.82-1.3,1.66-2.58,2.51-3.83.11-.11.23-.17.34-.17s.27.06.47.17c.2.11.3.23.3.34,0,.06-.03.11-.08.17-1.08,1.87-2.17,3.68-3.27,5.44-1.11,1.76-2.22,3.29-3.36,4.59-1.13,1.3-2.34,2.35-3.61,3.15-1.27.79-2.65,1.19-4.12,1.19-2.44,0-3.74-.75-3.91-2.25s-.25-2.48-.25-2.93c0-2.61.76-6.32,2.29-11.13l2.72-7.48h-.17c-1.7,3.63-3.43,6.88-5.18,9.78-1.76,2.89-3.54,5.35-5.36,7.39s-3.65,3.61-5.52,4.72c-1.87,1.11-3.77,1.66-5.7,1.66-3.12,0-5.67-.79-7.65-2.38-1.98-1.59-2.97-4.22-2.97-7.91ZM899.03,59.5c0,1.25.16,2.29.47,3.15.31.85.72,1.53,1.23,2.04.51.51,1.11.88,1.79,1.1.68.23,1.39.34,2.12.34,1.53,0,3.13-.61,4.8-1.83,1.67-1.22,3.37-2.93,5.1-5.14,1.73-2.21,3.47-4.87,5.23-7.99,1.76-3.12,3.49-6.57,5.19-10.37l1.36-4.17c.4-1.42.59-2.66.59-3.74,0-1.13-.31-2.27-.93-3.4-.62-1.13-2.24-1.7-4.84-1.7-2.1,0-4.11.54-6.04,1.62-1.93,1.08-3.71,2.49-5.36,4.25-1.64,1.76-3.13,3.75-4.46,5.99-1.33,2.24-2.45,4.53-3.36,6.88-.91,2.35-1.62,4.66-2.12,6.93-.51,2.27-.77,4.28-.77,6.04Z"/>
      <path class="cls-1" d="M945.86,40.54c0-2.44.6-4.56,1.79-6.38,1.19-1.81,2.71-3.33,4.55-4.55,1.84-1.22,3.88-2.12,6.12-2.72,2.24-.59,4.41-.89,6.5-.89,1.3,0,2.52.07,3.66.21,1.13.14,2.12.4,2.97.76.85.37,1.53.87,2.04,1.49.51.62.77,1.39.77,2.3,0,1.08-.27,1.88-.81,2.42s-1.12.81-1.74.81c-.74,0-1.33-.37-1.78-1.1,0-.96-.21-1.76-.64-2.38-.42-.62-.95-1.13-1.57-1.53-.62-.4-1.32-.67-2.08-.81-.76-.14-1.52-.21-2.25-.21-1.36,0-2.68.2-3.95.6-1.27.4-2.41.98-3.4,1.74-.99.76-1.8,1.7-2.42,2.8-.62,1.11-.94,2.39-.94,3.87,0,.91.24,1.71.72,2.42.48.71,1.09,1.35,1.83,1.91.74.57,1.58,1.08,2.55,1.53.96.45,1.9.94,2.8,1.45.96.51,1.93,1.05,2.89,1.62.96.57,1.83,1.19,2.59,1.87.77.68,1.39,1.46,1.87,2.34.48.88.72,1.91.72,3.1,0,2.66-.67,4.96-2,6.88-1.33,1.93-3.02,3.53-5.06,4.8-2.04,1.28-4.28,2.22-6.72,2.85s-4.79.93-7.05.93c-1.81,0-3.5-.16-5.06-.47-1.56-.31-2.8-.86-3.74-1.66-.94-.79-1.4-1.87-1.4-3.23,0-.57.13-1.22.38-1.96.25-.74.58-1.43.98-2.08.4-.65.85-1.2,1.36-1.66.51-.45,1.05-.68,1.61-.68.62,0,.85.28.68.85-.28.79-.57,1.46-.85,2-.28.54-.42,1.29-.42,2.25s.24,1.74.72,2.34c.48.59,1.09,1.06,1.83,1.4s1.54.58,2.42.72c.88.14,1.71.21,2.51.21,1.47,0,2.95-.23,4.42-.68,1.47-.45,2.8-1.1,4-1.96,1.19-.85,2.15-1.91,2.89-3.19.74-1.27,1.1-2.73,1.1-4.38,0-.96-.23-1.8-.68-2.51-.45-.71-1.03-1.36-1.74-1.96-.71-.59-1.52-1.13-2.42-1.62-.91-.48-1.81-.95-2.72-1.4-.96-.51-1.91-1.03-2.85-1.57-.93-.54-1.77-1.13-2.51-1.79-.74-.65-1.33-1.39-1.78-2.21-.46-.82-.68-1.8-.68-2.93Z"/>
      <path class="cls-1" d="M976.89,55.33c0-3.57.67-7.11,2-10.62,1.33-3.51,3.19-6.67,5.57-9.48s5.17-5.07,8.37-6.8c3.2-1.73,6.67-2.59,10.41-2.59,3.4,0,5.92.58,7.56,1.74,1.64,1.16,2.47,2.45,2.47,3.87,0,.85-.26,1.6-.77,2.25-.51.65-1.25.98-2.21.98-.85,0-1.47-.38-1.87-1.15-.4-.76-.81-1.58-1.23-2.46-.42-.88-.99-1.7-1.7-2.46-.71-.76-1.83-1.15-3.36-1.15-2.78,0-5.27.91-7.48,2.72-2.21,1.81-4.08,4.11-5.61,6.89s-2.71,5.78-3.53,9.01c-.82,3.23-1.23,6.26-1.23,9.09,0,3.63.71,6.33,2.12,8.12,1.42,1.79,3.26,2.68,5.53,2.68,2.89,0,5.52-.85,7.9-2.55s4.73-4.05,7.06-7.05c.23-.23.45-.34.68-.34.34,0,.51.14.51.43,0,.17-.06.31-.17.42-1.25,1.7-2.52,3.27-3.83,4.72-1.3,1.44-2.72,2.69-4.25,3.74-1.53,1.05-3.19,1.87-4.97,2.46-1.78.6-3.78.89-5.99.89-3.4,0-6.25-1.15-8.54-3.44-2.3-2.29-3.44-5.59-3.44-9.9Z"/>
      <path class="cls-1" d="M1014.28,57.46c0-3.51.71-7.14,2.12-10.88,1.42-3.74,3.33-7.14,5.74-10.2,2.41-3.06,5.24-5.57,8.5-7.52,3.26-1.96,6.76-2.93,10.5-2.93,3,0,5.33.58,6.97,1.74,1.64,1.16,2.46,2.71,2.46,4.63,0,1.76-.45,3.32-1.36,4.67-.91,1.36-2.11,2.55-3.61,3.57-1.5,1.02-3.22,1.9-5.14,2.63-1.93.74-3.88,1.36-5.87,1.87-1.98.51-3.94.94-5.87,1.28-1.93.34-3.63.65-5.1.93-.62,1.98-1.12,3.88-1.49,5.7-.37,1.81-.55,3.43-.55,4.84,0,2.61.57,4.62,1.7,6.04,1.13,1.42,2.86,2.12,5.18,2.12,1.59,0,3.12-.31,4.59-.93,1.47-.62,2.86-1.47,4.17-2.55,1.3-1.08,2.54-2.32,3.7-3.74,1.16-1.42,2.22-2.89,3.19-4.42.17-.28.45-.43.85-.43.34,0,.51.08.51.26s-.08.37-.25.59c-1.08,1.7-2.27,3.37-3.57,5.01-1.3,1.64-2.78,3.13-4.42,4.46-1.64,1.33-3.44,2.41-5.4,3.23-1.96.82-4.12,1.23-6.5,1.23-3.57,0-6.3-.99-8.2-2.97-1.9-1.98-2.85-4.73-2.85-8.25ZM1023.98,45.99c1.98-.51,4.21-1.11,6.67-1.79,2.46-.68,4.76-1.59,6.88-2.72,2.12-1.13,3.91-2.54,5.35-4.21,1.45-1.67,2.17-3.73,2.17-6.16,0-1.19-.4-2.12-1.19-2.81-.79-.68-1.93-1.02-3.4-1.02-1.76,0-3.44.55-5.06,1.66-1.62,1.11-3.13,2.54-4.55,4.29-1.42,1.76-2.71,3.74-3.87,5.95-1.16,2.21-2.17,4.48-3.02,6.8Z"/>
      <path class="cls-1" d="M1060.95,37.4c.17-.62.31-1.16.42-1.62.11-.45.17-.91.17-1.36,0-1.3-.5-2.22-1.49-2.76-.99-.54-2.39-.81-4.21-.81-.17,0-.25-.11-.25-.34,0-.4.23-.65.68-.76,2.72-.4,5.18-.83,7.39-1.32,2.21-.48,4.36-1.12,6.46-1.91.34-.11.6-.17.77-.17.45,0,.59.23.42.68l-8.5,25.42h.25c1.76-3.23,3.43-6.42,5.01-9.56,1.59-3.15,3.19-5.96,4.8-8.46,1.62-2.49,3.33-4.5,5.14-6.04,1.81-1.53,3.8-2.29,5.95-2.29,1.02,0,1.98.1,2.89.3.91.2,1.69.58,2.34,1.15.65.57,1.17,1.3,1.57,2.21.4.91.59,2.1.59,3.57,0,1.19-.16,2.59-.47,4.21-.31,1.62-.81,3.47-1.49,5.57l-2.63,8.16c-.79,2.38-1.4,4.46-1.83,6.25-.42,1.78-.64,3.24-.64,4.38,0,1.93.74,2.89,2.21,2.89.74,0,1.47-.33,2.21-.98.74-.65,1.49-1.5,2.25-2.55.76-1.05,1.56-2.22,2.38-3.53.82-1.3,1.69-2.58,2.59-3.83.23-.23.4-.34.51-.34.23,0,.38.11.47.34.09.23.1.4.04.51-1.13,1.87-2.24,3.67-3.32,5.4-1.08,1.73-2.2,3.26-3.36,4.59-1.16,1.33-2.37,2.39-3.61,3.19-1.25.79-2.61,1.19-4.08,1.19-3.51,0-5.27-1.98-5.27-5.95,0-2.89.93-7.14,2.8-12.75l2.29-6.8c.79-2.38,1.37-4.38,1.74-5.99.37-1.62.55-2.93.55-3.95,0-1.64-.37-2.73-1.1-3.27-.74-.54-1.62-.81-2.64-.81-1.42,0-2.99,1.05-4.72,3.14-1.73,2.1-3.51,4.72-5.36,7.86-1.84,3.14-3.65,6.53-5.44,10.16-1.79,3.63-3.44,6.97-4.97,10.03l-2.21,6.71c-.28.85-.79,1.22-1.53,1.1l-3.83-.42c-.51-.11-.89-.35-1.15-.72-.25-.37-.27-.83-.04-1.4l9.18-28.3Z"/>
      <path class="cls-1" d="M1098.18,57.8c0-2.38.34-4.82,1.02-7.31.68-2.49,1.66-4.92,2.93-7.27,1.28-2.35,2.78-4.58,4.5-6.67,1.73-2.1,3.63-3.92,5.7-5.48,2.07-1.56,4.29-2.79,6.67-3.7,2.38-.91,4.82-1.36,7.31-1.36,1.87,0,3.61.34,5.23,1.02,1.62.68,2.99,1.73,4.12,3.14l1.79-5.27c1.47-4.31,3.4-8.02,5.78-11.13s4.97-5.7,7.78-7.74,5.75-3.56,8.84-4.55c3.09-.99,6.11-1.49,9.05-1.49,1.81,0,3.07.23,3.78.68.71.46,1.06.99,1.06,1.62,0,.68-.21,1.3-.64,1.87-.42.57-.93,1.06-1.53,1.49-.6.42-1.25.75-1.96.98-.71.23-1.35.34-1.91.34-.91,0-1.74-.17-2.51-.51-.77-.34-1.49-.71-2.17-1.1s-1.33-.77-1.96-1.11c-.62-.34-1.22-.51-1.79-.51-1.87,0-3.53.57-4.97,1.7-1.45,1.13-2.72,2.59-3.83,4.38-1.11,1.79-2.1,3.81-2.98,6.08-.88,2.27-1.69,4.56-2.42,6.88l-9.27,28.47c-1.42,4.36-2.22,7.71-2.42,10.03-.2,2.32.52,3.49,2.17,3.49.74,0,1.47-.33,2.21-.98.74-.65,1.49-1.5,2.25-2.55.76-1.05,1.57-2.22,2.42-3.53.85-1.3,1.73-2.58,2.64-3.83.34-.45.61-.52.81-.21.2.31.24.55.13.72-1.08,1.87-2.15,3.67-3.23,5.4-1.08,1.73-2.2,3.26-3.36,4.59-1.16,1.33-2.37,2.39-3.61,3.19-1.25.79-2.61,1.19-4.08,1.19-2.83,0-4.39-1.5-4.67-4.5-.28-3,.51-7.42,2.38-13.26l2.72-8.25h-.25c-1.81,4.02-3.56,7.64-5.23,10.84-1.67,3.2-3.37,5.91-5.1,8.12-1.73,2.21-3.54,3.9-5.44,5.06-1.9,1.16-4.04,1.74-6.42,1.74-3.34,0-6.11-.83-8.29-2.51-2.18-1.67-3.27-4.41-3.27-8.2ZM1105.32,57.88c0,3,.74,5.13,2.21,6.38,1.47,1.25,3.17,1.87,5.1,1.87,1.59,0,3.24-.79,4.97-2.38,1.73-1.59,3.49-3.74,5.27-6.46s3.6-5.91,5.44-9.56c1.84-3.66,3.67-7.55,5.48-11.69l1.19-3.74c-1.76-2.72-4.22-4.08-7.4-4.08-3,0-5.85,1.01-8.54,3.02-2.69,2.01-5.06,4.52-7.1,7.52-2.04,3-3.66,6.22-4.84,9.65-1.19,3.43-1.79,6.59-1.79,9.48Z"/>
      <path class="cls-1" d="M1147.65,57.46c0-3.51.71-7.14,2.12-10.88,1.42-3.74,3.33-7.14,5.74-10.2,2.41-3.06,5.24-5.57,8.5-7.52,3.26-1.96,6.76-2.93,10.5-2.93,3,0,5.33.58,6.97,1.74,1.64,1.16,2.46,2.71,2.46,4.63,0,1.76-.45,3.32-1.36,4.67-.91,1.36-2.11,2.55-3.61,3.57-1.5,1.02-3.22,1.9-5.14,2.63-1.93.74-3.88,1.36-5.87,1.87-1.98.51-3.94.94-5.86,1.28-1.93.34-3.63.65-5.1.93-.62,1.98-1.12,3.88-1.49,5.7-.37,1.81-.55,3.43-.55,4.84,0,2.61.57,4.62,1.7,6.04,1.13,1.42,2.86,2.12,5.18,2.12,1.59,0,3.12-.31,4.59-.93,1.47-.62,2.86-1.47,4.17-2.55,1.3-1.08,2.54-2.32,3.7-3.74,1.16-1.42,2.22-2.89,3.19-4.42.17-.28.45-.43.85-.43.34,0,.51.08.51.26s-.08.37-.25.59c-1.08,1.7-2.27,3.37-3.57,5.01-1.3,1.64-2.78,3.13-4.42,4.46-1.64,1.33-3.44,2.41-5.4,3.23-1.96.82-4.12,1.23-6.5,1.23-3.57,0-6.3-.99-8.2-2.97-1.9-1.98-2.85-4.73-2.85-8.25ZM1157.34,45.99c1.98-.51,4.21-1.11,6.67-1.79s4.76-1.59,6.88-2.72c2.12-1.13,3.91-2.54,5.36-4.21,1.44-1.67,2.17-3.73,2.17-6.16,0-1.19-.4-2.12-1.19-2.81-.79-.68-1.93-1.02-3.4-1.02-1.76,0-3.44.55-5.06,1.66-1.62,1.11-3.13,2.54-4.55,4.29-1.42,1.76-2.71,3.74-3.87,5.95-1.16,2.21-2.17,4.48-3.02,6.8Z"/>
      <path class="cls-1" d="M1194.23,37.4c.28-.68.47-1.29.55-1.83.08-.54.13-1.03.13-1.49,0-1.25-.48-2.1-1.44-2.55-.96-.45-2.38-.68-4.25-.68-.34,0-.45-.17-.34-.51.17-.28.4-.48.68-.59,2.72-.4,5.14-.83,7.27-1.32,2.12-.48,4.24-1.12,6.33-1.91.23-.11.48-.17.77-.17.45,0,.59.23.42.68l-5.61,17.68h.25c1.02-1.81,2.21-3.81,3.57-5.99,1.36-2.18,2.89-4.24,4.59-6.16,1.7-1.93,3.57-3.53,5.61-4.8,2.04-1.28,4.25-1.91,6.63-1.91,1.02,0,1.77.23,2.25.68.48.45.72.99.72,1.61,0,.96-.48,1.94-1.44,2.93-.96.99-2.27,1.49-3.91,1.49-2.04,0-3.94.38-5.7,1.15-1.76.77-3.42,1.81-4.97,3.15-1.56,1.33-3.02,2.9-4.38,4.72-1.36,1.81-2.64,3.77-3.83,5.86l-6.54,19.72c-.28.85-.79,1.22-1.53,1.1l-3.74-.42c-1.25-.17-1.67-.88-1.27-2.12l9.18-28.3Z"/>
    </g>
  </g>
</svg>