<?xml version="1.0" encoding="UTF-8"?>
<svg id="Capa_2" data-name="Capa 2" xmlns="http://www.w3.org/2000/svg" viewBox="0 0 149.25 152.92">
  <defs>
    <style>
      .cls-1 {
        fill: #688c4f;
      }
    </style>
  </defs>
  <g id="Slide_2" data-name="Slide 2">
    <g id="Carrusel_IMG_3_R" data-name="Carrusel IMG 3 R">
      <path class="cls-1" d="M147.54,53.72c-1.32-.46-2.78.24-3.24,1.57l-5.43,15.6c-19.86.43-51.73,8.28-64.19,25.18-5.07,6.87-8.01,15-10.85,22.86-1.6,4.41-3.25,8.98-5.23,13.12-2.1,4.41-1.84,9.5.69,13.62,2.54,4.12,6.96,6.65,11.85,6.76,1.96.04,4.01.12,6.13.2,3.6.14,7.42.28,11.3.28,11.53,0,23.55-1.29,31.68-7.92,17.39-14.19,26.04-48.76,23.05-71.32l5.81-16.72c.46-1.33-.24-2.78-1.57-3.24ZM117.02,141.05c-9.38,7.65-26.12,7.02-39.57,6.49-2.15-.08-4.23-.16-6.21-.21-3.19-.07-5.97-1.65-7.62-4.33-1.65-2.68-1.81-5.87-.43-8.76,2.09-4.38,3.78-9.06,5.42-13.58,2.72-7.52,5.54-15.29,10.16-21.56,10.74-14.56,38.86-21.93,57.36-22.99-3.17,5.24-6.84,10.85-10.94,16.47l-31.39,2.74c-1.4.12-2.44,1.36-2.32,2.76.11,1.33,1.23,2.33,2.54,2.33.07,0,.15,0,.22,0l26.83-2.34c-5.84,7.46-12.46,14.77-19.77,21.14-.15-.03-.29-.09-.45-.09h-15.56c-1.41,0-2.55,1.14-2.55,2.55s1.14,2.55,2.55,2.55h9.79c-3.11,2.34-6.31,4.51-9.64,6.41-1.22.7-1.65,2.26-.95,3.48.7,1.22,2.26,1.64,3.48.95,7.31-4.19,14.1-9.49,20.35-15.36l-1.37,10.88c-.18,1.4.81,2.67,2.21,2.85.11.01.22.02.32.02,1.27,0,2.36-.94,2.53-2.23l2.08-16.48c.03-.24-.02-.47-.05-.7,9.89-10.38,18.2-21.99,24.72-32.46.38,20.79-7.8,48.11-21.74,59.48ZM24.89,78.66c7.03,5.73,17.36,6.84,27.26,6.84,3.31,0,6.58-.12,9.65-.24,1.81-.07,3.56-.14,5.23-.17,4.29-.1,8.19-2.32,10.42-5.95,2.23-3.62,2.46-8.1.61-11.98-1.68-3.52-3.02-7.24-4.45-11.17-2.44-6.73-4.96-13.69-9.31-19.59C53.64,21.96,26.54,15.21,9.5,14.78L4.96,1.71C4.49.38,3.03-.32,1.71.14.38.61-.32,2.06.14,3.39l4.93,14.18c-2.52,19.34,4.9,48.93,19.81,61.09ZM31.77,66.64c.16,1.29,1.26,2.23,2.53,2.23.11,0,.21,0,.32-.02,1.4-.18,2.38-1.45,2.21-2.85l-1.04-8.25c5.14,4.75,10.7,9.03,16.67,12.44,1.22.69,2.78.27,3.48-.95.7-1.22.28-2.78-.95-3.48-11.5-6.59-21.51-16.59-29.74-27l22.03,1.92c.07,0,.15,0,.22,0,1.31,0,2.42-1,2.54-2.33.12-1.4-.91-2.64-2.32-2.76l-26.61-2.33c-3.29-4.53-6.25-9.03-8.84-13.28,15.7,1.04,38.98,7.28,47.94,19.42,3.92,5.31,6.3,11.91,8.62,18.3,1.4,3.87,2.85,7.88,4.64,11.63,1.12,2.34.99,4.93-.35,7.11s-3.6,3.46-6.19,3.52c-1.7.04-3.47.11-5.31.18-11.4.44-25.61.98-33.49-5.46-11.53-9.4-18.41-31.71-18.42-49.18,5.44,8.62,12.28,18.05,20.35,26.54-.01.17-.06.33-.04.51l1.77,14.06Z"/>
    </g>
  </g>
</svg>