<?xml version="1.0" encoding="UTF-8"?>
<svg id="Capa_2" data-name="Capa 2" xmlns="http://www.w3.org/2000/svg" viewBox="0 0 727.64 126.34">
  <defs>
    <style>
      .cls-1 {
        fill: #263530;
      }
    </style>
  </defs>
  <g id="Slide_2" data-name="Slide 2">
    <g id="Carrusel_IMG_3" data-name="Carrusel IMG 3">
      <g>
        <path class="cls-1" d="M12.56,29.57c.84-.64,2.57-2.61,5.19-5.9l.35-.47L31.85,5.92c-.34,0-.92,0-1.74-.02-.82-.01-1.48-.02-1.98-.02h-.96c-3.61,0-5.91.3-6.92.91-1.01.6-1.72,1.74-2.14,3.42l-1.53-.37c.31-.96.61-1.94.88-2.95.27-1.01.51-2.05.74-3.13.55.1,1.1.18,1.66.24.56.05,1.22.08,1.98.08h.35c.8-.03,1.55-.04,2.26-.04,4.43,0,7.39-.02,8.88-.06,1.49-.04,2.62-.11,3.39-.22l.57,1.2c-.9.81-2.58,2.8-5.03,5.96-1.02,1.34-1.83,2.37-2.42,3.11l-11.54,14.49c1.04.04,2,.07,2.9.1s1.71.04,2.45.04h1.2c3.64,0,5.97-.32,6.98-.97,1.01-.65,1.69-1.86,2.04-3.63l1.53.37c-.37,1.09-.68,2.17-.94,3.23-.26,1.07-.47,2.13-.63,3.2-1.95-.11-3.77-.18-5.46-.24-1.69-.05-3.3-.08-4.85-.08s-3.1.03-4.83.08c-1.72.05-3.58.13-5.58.24l-.55-1.28Z"/>
        <path class="cls-1" d="M48.19,11.68c1.95,0,3.44.61,4.45,1.82s1.52,2.99,1.52,5.32c0,1.34-.26,2.76-.79,4.28-.53,1.51-1.23,2.88-2.12,4.1-.96,1.31-2.04,2.32-3.25,3.02s-2.49,1.05-3.82,1.05c-1.76,0-3.16-.64-4.2-1.91s-1.56-2.98-1.56-5.11c0-1.59.26-3.13.77-4.64.51-1.51,1.25-2.87,2.2-4.09.94-1.22,2.01-2.16,3.21-2.83,1.2-.67,2.4-1,3.59-1ZM47.34,13.59c-1.52,0-2.83,1.04-3.93,3.13-1.1,2.09-1.65,4.66-1.65,7.72,0,1.61.28,2.85.83,3.7s1.37,1.28,2.43,1.28c1.6,0,2.96-1.03,4.08-3.08,1.12-2.05,1.68-4.57,1.68-7.55,0-1.77-.28-3.08-.85-3.93-.56-.85-1.43-1.27-2.6-1.27Z"/>
        <path class="cls-1" d="M62.7,17.32l3.19-3.11c1.11-1.06,1.96-1.76,2.53-2.1s1.11-.51,1.62-.51c.87,0,1.57.38,2.11,1.14.54.76.82,1.76.82,3.01s-.32,3.24-.96,5.89-.96,4.54-.96,5.67c0,.34.07.6.2.78s.32.27.57.27c.12,0,.27-.05.44-.15s.35-.23.52-.4l1.49-1.46.69,1.04-2.14,2.18c-.51.52-1.02.94-1.52,1.24-.5.3-.95.45-1.33.45-.66,0-1.19-.29-1.6-.86s-.62-1.32-.62-2.25c0-1.11.33-3.08,1-5.89.67-2.81,1-4.86,1-6.14,0-.49-.1-.88-.3-1.17-.2-.29-.48-.44-.82-.44-.51,0-2.08,1.21-4.7,3.64-.7.64-1.24,1.15-1.63,1.51l-1.24,6.92c-.03.13-.07.33-.12.59-.28,1.4-.44,2.48-.49,3.22l-3.5.87c.87-3.76,1.55-7.03,2.05-9.81.5-2.78.76-4.6.76-5.47,0-.52-.06-.9-.18-1.13-.12-.23-.31-.34-.57-.34-.16,0-.42.09-.78.28-.36.18-.82.45-1.37.81l-.53-1.04c.14-.12.35-.29.63-.51,2.02-1.63,3.37-2.44,4.05-2.44s1.14.25,1.46.74c.31.49.47,1.25.47,2.29,0,.37-.02.78-.06,1.24s-.1.94-.18,1.46Z"/>
        <path class="cls-1" d="M94.55,27.39l-1.26,1.22c-.93.93-1.68,1.58-2.23,1.94s-1.06.54-1.5.54c-.67,0-1.2-.29-1.59-.86s-.59-1.35-.59-2.35c0-.38.01-.77.04-1.18s.07-.82.12-1.24c-2.46,2.39-4.19,3.92-5.16,4.6-.98.68-1.79,1.02-2.45,1.02-1,0-1.75-.43-2.25-1.3-.5-.87-.76-2.15-.76-3.85,0-1.55.2-3.04.6-4.47.4-1.44.99-2.79,1.76-4.06,1.11-1.78,2.4-3.15,3.84-4.09,1.45-.94,2.98-1.42,4.61-1.42.35,0,.74.04,1.16.11.42.07.87.18,1.34.32l2.75-1.16c-.77,3.7-1.39,7.01-1.85,9.95s-.69,4.86-.69,5.78c0,.42.07.73.21.94.14.21.35.32.64.32.21,0,.49-.13.85-.39.35-.26.94-.79,1.77-1.57l.65,1.2ZM87.69,23.28c.24-1.19.48-2.49.72-3.9s.5-3,.78-4.79c-.6-.34-1.09-.57-1.46-.7-.37-.12-.74-.19-1.11-.19-1.69,0-3.18,1.14-4.46,3.42-1.29,2.28-1.93,4.97-1.93,8.08,0,.98.11,1.72.32,2.21.22.49.55.74.99.74s1.19-.4,2.2-1.2c1.01-.8,2.33-2.03,3.95-3.68Z"/>
        <path class="cls-1" d="M107.57,14.94l-1.1,1.04-.14-.12c-1.49-1.36-2.63-2.04-3.4-2.04s-1.34.22-1.82.66c-.48.44-.72,1-.72,1.68,0,1.05.91,2.33,2.73,3.85.22.18.39.32.49.41,1.35,1.15,2.24,2.06,2.67,2.71.43.66.64,1.36.64,2.12,0,1.46-.72,2.81-2.15,4.07-1.44,1.26-3.07,1.89-4.91,1.89-1.3,0-2.37-.22-3.22-.67-.85-.45-1.28-.99-1.28-1.63,0-.25.04-.46.12-.65.08-.18.26-.41.53-.69l1.04-.96c.87.96,1.59,1.63,2.16,2.01s1.14.57,1.69.57c.83,0,1.53-.28,2.11-.84.58-.56.88-1.22.88-1.98,0-.87-.9-2.1-2.69-3.7-.47-.42-.83-.75-1.08-.98-1.05-.94-1.77-1.73-2.16-2.36-.39-.63-.59-1.26-.59-1.91,0-1.4.71-2.71,2.13-3.93,1.42-1.22,2.98-1.83,4.67-1.83,1.13,0,2.07.21,2.82.63.75.42,1.13.91,1.13,1.47,0,.22-.05.43-.14.62-.09.19-.23.37-.41.54Z"/>
        <path class="cls-1" d="M125.21,9.6l1.46.51c-.24.77-.45,1.57-.64,2.38s-.37,1.67-.54,2.58l-.31,1.99.35-.39c2.96-3.2,5.11-4.8,6.45-4.8,1.21,0,2.19.6,2.94,1.79.75,1.19,1.13,2.78,1.13,4.76,0,1.49-.29,3.04-.87,4.65-.58,1.61-1.35,3.03-2.32,4.26-1,1.26-2.08,2.22-3.23,2.88-1.16.66-2.35.99-3.57.99-.46,0-.92-.06-1.4-.19-.47-.12-.99-.32-1.55-.58l-.96,6.29c-.04.24-.07.45-.09.65-.02.2-.03.37-.03.51,0,.64.15,1.08.46,1.31.31.23.89.34,1.76.34h.63l-.28,1.36c-.77-.05-1.54-.09-2.3-.12-.76-.03-1.52-.04-2.28-.04-.46,0-1.39.03-2.79.1-.62.03-1.09.04-1.44.06l.24-1.36h.61c.75,0,1.26-.14,1.54-.43.28-.29.5-.87.66-1.75l3.3-19.49c.04-.2.09-.49.16-.88.24-1.4.46-2.54.69-3.42l-3.34,2.32-.35-1.32c1.02-.75,2.03-1.53,3.02-2.36.99-.83,1.96-1.69,2.9-2.6ZM123.44,28.24c.62.35,1.21.62,1.77.79.56.17,1.1.25,1.61.25,1.61,0,2.99-1.08,4.13-3.25s1.71-4.8,1.71-7.89c0-1.18-.15-2.07-.45-2.66-.3-.59-.75-.88-1.36-.88-.76,0-2.43,1.2-5.01,3.6-.45.41-.79.72-1.04.94l-1.36,9.1Z"/>
        <path class="cls-1" d="M156.25,27.39l-1.26,1.22c-.93.93-1.67,1.58-2.23,1.94-.56.36-1.06.54-1.5.54-.67,0-1.2-.29-1.59-.86-.39-.57-.59-1.35-.59-2.35,0-.38.01-.77.04-1.18.03-.41.07-.82.12-1.24-2.46,2.39-4.19,3.92-5.16,4.6-.98.68-1.79,1.02-2.45,1.02-1,0-1.75-.43-2.25-1.3-.51-.87-.76-2.15-.76-3.85,0-1.55.2-3.04.6-4.47.4-1.44.99-2.79,1.76-4.06,1.12-1.78,2.4-3.15,3.84-4.09,1.45-.94,2.99-1.42,4.61-1.42.35,0,.74.04,1.16.11.42.07.87.18,1.34.32l2.75-1.16c-.77,3.7-1.39,7.01-1.85,9.95s-.69,4.86-.69,5.78c0,.42.07.73.21.94.14.21.35.32.64.32.21,0,.49-.13.85-.39s.94-.79,1.77-1.57l.65,1.2ZM149.39,23.28c.24-1.19.48-2.49.72-3.9.24-1.41.5-3,.78-4.79-.6-.34-1.09-.57-1.46-.7-.37-.12-.74-.19-1.11-.19-1.69,0-3.18,1.14-4.46,3.42-1.29,2.28-1.93,4.97-1.93,8.08,0,.98.11,1.72.33,2.21.22.49.55.74.99.74s1.19-.4,2.2-1.2c1.01-.8,2.33-2.03,3.95-3.68Z"/>
        <path class="cls-1" d="M158.59,31.23c.83-3.41,1.47-6.42,1.93-9.04.46-2.62.69-4.58.69-5.91,0-.56-.08-.99-.25-1.27-.16-.28-.4-.42-.72-.42-.24,0-.9.34-1.99,1.02l-.16.1-.69-1.12.29-.22c2.36-1.77,3.89-2.65,4.58-2.65.64,0,1.1.21,1.39.62.28.41.42,1.1.42,2.05,0,.84-.03,1.62-.08,2.35-.05.73-.13,1.35-.24,1.88,1.79-2.96,3.07-4.85,3.83-5.67.76-.82,1.47-1.23,2.12-1.23.45,0,.82.16,1.12.49.3.33.45.73.45,1.2,0,.29-.08.64-.23,1.05-.15.41-.47,1.1-.95,2.06-.24-.33-.48-.57-.73-.73-.25-.16-.5-.24-.75-.24-.49,0-1.06.34-1.72,1.01s-1.7,2.03-3.12,4.06c-.45,1.81-.82,3.53-1.12,5.16-.3,1.63-.53,3.18-.69,4.63l-3.42.81Z"/>
        <path class="cls-1" d="M190.17,27.39l-1.26,1.22c-.93.93-1.67,1.58-2.23,1.94-.56.36-1.06.54-1.5.54-.67,0-1.2-.29-1.59-.86-.39-.57-.59-1.35-.59-2.35,0-.38.01-.77.04-1.18.03-.41.06-.82.12-1.24-2.46,2.39-4.19,3.92-5.16,4.6-.98.68-1.79,1.02-2.45,1.02-1,0-1.75-.43-2.25-1.3-.5-.87-.76-2.15-.76-3.85,0-1.55.2-3.04.6-4.47.4-1.44.99-2.79,1.76-4.06,1.11-1.78,2.39-3.15,3.84-4.09,1.45-.94,2.99-1.42,4.61-1.42.35,0,.74.04,1.16.11.42.07.87.18,1.34.32l2.75-1.16c-.77,3.7-1.39,7.01-1.85,9.95s-.69,4.86-.69,5.78c0,.42.07.73.21.94.14.21.35.32.64.32.21,0,.49-.13.85-.39s.94-.79,1.77-1.57l.65,1.2ZM183.31,23.28c.24-1.19.47-2.49.72-3.9s.5-3,.78-4.79c-.6-.34-1.09-.57-1.46-.7-.37-.12-.74-.19-1.11-.19-1.69,0-3.18,1.14-4.46,3.42-1.29,2.28-1.93,4.97-1.93,8.08,0,.98.11,1.72.32,2.21.22.49.55.74.99.74s1.19-.4,2.2-1.2c1.01-.8,2.33-2.03,3.95-3.68Z"/>
        <path class="cls-1" d="M212.84,15.06l-1.04,1.02c-.87-.88-1.56-1.46-2.07-1.75-.52-.29-1.05-.43-1.58-.43-1.21,0-2.25.89-3.15,2.68-.89,1.79-1.34,4-1.34,6.62,0,1.76.23,3.08.69,3.97s1.13,1.34,2.03,1.34c.5,0,1.18-.29,2.04-.86s1.78-1.35,2.73-2.35l.81,1.4c-1.52,1.61-2.82,2.78-3.89,3.49-1.08.71-2.06,1.07-2.95,1.07-1.42,0-2.55-.62-3.39-1.85-.85-1.23-1.27-2.9-1.27-4.99,0-3.59.92-6.62,2.76-9.08,1.84-2.46,4.11-3.7,6.81-3.7.98,0,1.83.21,2.53.63.7.42,1.05.9,1.05,1.44,0,.21-.06.42-.17.63-.11.21-.31.45-.6.73Z"/>
        <path class="cls-1" d="M224.22,20.47l-6,3.11v.2c0,1.56.25,2.75.74,3.56.49.81,1.2,1.22,2.13,1.22.55,0,1.24-.25,2.08-.74.83-.49,1.9-1.29,3.2-2.39l.69,1.24c-1.88,1.73-3.37,2.93-4.47,3.6-1.11.67-2.12,1-3.02,1-1.38,0-2.5-.6-3.35-1.79-.86-1.19-1.29-2.76-1.29-4.7,0-1.38.23-2.85.68-4.43.45-1.58,1.04-2.96,1.76-4.14.9-1.44,1.94-2.56,3.11-3.34,1.17-.79,2.37-1.18,3.62-1.18s2.34.4,3.2,1.21c.86.81,1.29,1.79,1.29,2.94,0,.93-.26,1.7-.78,2.31-.52.61-1.7,1.39-3.56,2.33ZM218.31,21.83l.2-.1c4.65-2.39,6.98-4.23,6.98-5.53,0-.69-.25-1.3-.75-1.81-.5-.51-1.08-.77-1.75-.77-1.03,0-1.96.71-2.78,2.14-.82,1.43-1.46,3.45-1.9,6.06Z"/>
        <path class="cls-1" d="M231.17,31.23c.83-3.41,1.47-6.42,1.93-9.04.46-2.62.69-4.58.69-5.91,0-.56-.08-.99-.25-1.27-.16-.28-.4-.42-.72-.42-.24,0-.9.34-1.99,1.02l-.16.1-.69-1.12.29-.22c2.36-1.77,3.89-2.65,4.58-2.65.64,0,1.1.21,1.39.62s.42,1.1.42,2.05c0,.84-.03,1.62-.08,2.35-.05.73-.13,1.35-.24,1.88,1.8-2.96,3.07-4.85,3.83-5.67s1.47-1.23,2.12-1.23c.45,0,.82.16,1.12.49.3.33.45.73.45,1.2,0,.29-.08.64-.23,1.05-.15.41-.47,1.1-.95,2.06-.24-.33-.48-.57-.73-.73-.25-.16-.5-.24-.75-.24-.49,0-1.06.34-1.72,1.01s-1.7,2.03-3.12,4.06c-.45,1.81-.82,3.53-1.12,5.16-.3,1.63-.53,3.18-.69,4.63l-3.42.81Z"/>
        <path class="cls-1" d="M254.38,20.47l-6.01,3.11v.2c0,1.56.25,2.75.74,3.56.49.81,1.2,1.22,2.13,1.22.55,0,1.24-.25,2.07-.74.83-.49,1.9-1.29,3.2-2.39l.69,1.24c-1.88,1.73-3.37,2.93-4.47,3.6s-2.11,1-3.02,1c-1.38,0-2.5-.6-3.36-1.79-.86-1.19-1.29-2.76-1.29-4.7,0-1.38.23-2.85.68-4.43.45-1.58,1.04-2.96,1.76-4.14.9-1.44,1.94-2.56,3.11-3.34,1.17-.79,2.37-1.18,3.62-1.18s2.34.4,3.2,1.21c.86.81,1.29,1.79,1.29,2.94,0,.93-.26,1.7-.78,2.31-.52.61-1.71,1.39-3.56,2.33ZM248.47,21.83l.2-.1c4.65-2.39,6.98-4.23,6.98-5.53,0-.69-.25-1.3-.75-1.81-.5-.51-1.08-.77-1.75-.77-1.03,0-1.96.71-2.78,2.14-.82,1.43-1.46,3.45-1.9,6.06Z"/>
        <path class="cls-1" d="M261.04,31.26c.42-1.94.89-4.35,1.4-7.22.07-.38.11-.66.14-.83l.37-2.03c.21-1.22.37-2.31.49-3.28.12-.97.18-1.62.18-1.97,0-.39-.08-.72-.24-.97-.16-.26-.36-.38-.61-.38-.14,0-.35.07-.63.21-.28.14-.73.42-1.38.83l-.57-1.04c.33-.24.78-.58,1.36-1.02,1.68-1.28,2.81-1.93,3.4-1.93.55,0,.99.23,1.32.7s.49,1.09.49,1.88c0,.62-.08,1.68-.25,3.21-.03.22-.05.39-.06.51.42-.46,1-1.1,1.75-1.93,2.63-2.91,4.42-4.37,5.37-4.37.77,0,1.4.33,1.89.99s.73,1.53.73,2.61c0,.38-.01.8-.04,1.25s-.08,1-.16,1.64c.21-.24.51-.58.9-1.04,3.05-3.63,5.18-5.45,6.39-5.45.79,0,1.43.33,1.92.98s.74,1.51.74,2.58c0,1.52-.31,3.63-.94,6.34s-.94,4.55-.94,5.54c0,.39.06.71.2.95.13.24.29.36.49.36.17,0,.48-.19.93-.56.45-.37.99-.89,1.6-1.56l.67,1.2c-1.61,1.68-2.7,2.73-3.27,3.16-.57.43-1.06.64-1.46.64-.75,0-1.32-.28-1.73-.84-.41-.56-.61-1.34-.61-2.35,0-1.48.33-3.6.98-6.37.66-2.77.98-4.64.98-5.62,0-.47-.08-.84-.26-1.1-.17-.26-.41-.39-.71-.39s-.83.34-1.59,1.03c-.76.69-2.28,2.25-4.56,4.69-.46,2.46-.8,4.46-1.03,6-.23,1.53-.4,2.88-.5,4.03l-3.46.92c.77-4.04,1.38-7.38,1.81-10.03.43-2.65.65-4.34.65-5.07,0-.48-.09-.87-.26-1.15-.18-.28-.4-.42-.66-.42-.37,0-2.08,1.51-5.13,4.52l-.92.91c-.48,2.56-.85,4.61-1.1,6.15s-.43,2.9-.53,4.07l-3.52,1.02Z"/>
        <path class="cls-1" d="M299.85,11.68c1.95,0,3.44.61,4.45,1.82,1.02,1.21,1.52,2.99,1.52,5.32,0,1.34-.26,2.76-.79,4.28-.52,1.51-1.23,2.88-2.12,4.1-.96,1.31-2.04,2.32-3.25,3.02-1.21.7-2.49,1.05-3.83,1.05-1.76,0-3.16-.64-4.2-1.91-1.04-1.27-1.56-2.98-1.56-5.11,0-1.59.25-3.13.77-4.64s1.25-2.87,2.2-4.09c.94-1.22,2.01-2.16,3.21-2.83,1.2-.67,2.39-1,3.59-1ZM299.01,13.59c-1.52,0-2.83,1.04-3.93,3.13-1.1,2.09-1.65,4.66-1.65,7.72,0,1.61.28,2.85.84,3.7.56.85,1.37,1.28,2.43,1.28,1.6,0,2.96-1.03,4.08-3.08,1.12-2.05,1.68-4.57,1.68-7.55,0-1.77-.28-3.08-.85-3.93s-1.43-1.27-2.6-1.27Z"/>
        <path class="cls-1" d="M314.37,17.32l3.19-3.11c1.11-1.06,1.96-1.76,2.53-2.1s1.11-.51,1.62-.51c.87,0,1.57.38,2.11,1.14.54.76.82,1.76.82,3.01s-.32,3.24-.96,5.89c-.64,2.65-.96,4.54-.96,5.67,0,.34.07.6.2.78s.32.27.57.27c.12,0,.27-.05.44-.15.18-.1.35-.23.52-.4l1.49-1.46.69,1.04-2.14,2.18c-.51.52-1.02.94-1.52,1.24-.5.3-.95.45-1.33.45-.66,0-1.19-.29-1.6-.86-.41-.57-.62-1.32-.62-2.25,0-1.11.33-3.08,1-5.89s1-4.86,1-6.14c0-.49-.1-.88-.3-1.17s-.47-.44-.82-.44c-.51,0-2.08,1.21-4.7,3.64-.7.64-1.24,1.15-1.63,1.51l-1.24,6.92c-.03.13-.07.33-.12.59-.28,1.4-.44,2.48-.49,3.22l-3.5.87c.87-3.76,1.55-7.03,2.05-9.81.5-2.78.76-4.6.76-5.47,0-.52-.06-.9-.18-1.13-.12-.23-.31-.34-.57-.34-.16,0-.42.09-.78.28s-.82.45-1.37.81l-.53-1.04c.14-.12.35-.29.63-.51,2.02-1.63,3.37-2.44,4.05-2.44s1.14.25,1.46.74c.31.49.47,1.25.47,2.29,0,.37-.02.78-.06,1.24-.04.46-.1.94-.18,1.46Z"/>
        <path class="cls-1" d="M336.58,26.23l.69,1.16c-1.61,1.67-2.73,2.73-3.36,3.19s-1.19.69-1.67.69c-.69,0-1.25-.29-1.67-.88s-.63-1.37-.63-2.35c0-1.23.39-3.29,1.17-6.17.78-2.88,1.17-4.96,1.17-6.23,0-.33-.08-.59-.24-.79s-.36-.29-.61-.29c-.21,0-.49.08-.83.26-.34.17-.77.43-1.28.79l-.59-1.04,2.62-1.91c.5-.37.93-.63,1.3-.8.37-.16.71-.25,1.04-.25.62,0,1.1.25,1.46.76.36.5.54,1.2.54,2.07,0,.96-.34,2.83-1.02,5.62-.16.63-.28,1.1-.35,1.42-.37,1.48-.65,2.71-.84,3.68s-.29,1.64-.29,2.01c0,.33.07.6.22.81.14.21.33.31.55.31.21,0,.49-.13.83-.39.34-.26.94-.81,1.79-1.65ZM336.43.88l1.12,1.26c.31.33.53.62.66.88.12.26.19.51.19.78,0,.28-.09.54-.29.79s-.47.48-.84.71l-1.73.96-1.26-1.49c-.26-.33-.43-.59-.51-.78-.08-.19-.12-.39-.12-.6,0-.3.08-.57.24-.8s.43-.46.81-.68l1.73-1.02Z"/>
        <path class="cls-1" d="M357.29,27.39l-1.26,1.22c-.93.93-1.67,1.58-2.23,1.94-.56.36-1.06.54-1.5.54-.67,0-1.2-.29-1.59-.86-.39-.57-.59-1.35-.59-2.35,0-.38.01-.77.04-1.18.03-.41.06-.82.12-1.24-2.46,2.39-4.19,3.92-5.16,4.6-.98.68-1.79,1.02-2.45,1.02-1,0-1.75-.43-2.25-1.3-.5-.87-.76-2.15-.76-3.85,0-1.55.2-3.04.6-4.47.4-1.44.99-2.79,1.76-4.06,1.11-1.78,2.39-3.15,3.84-4.09,1.45-.94,2.99-1.42,4.61-1.42.35,0,.74.04,1.16.11.42.07.87.18,1.34.32l2.75-1.16c-.77,3.7-1.39,7.01-1.85,9.95s-.69,4.86-.69,5.78c0,.42.07.73.21.94.14.21.35.32.64.32.21,0,.49-.13.85-.39s.94-.79,1.77-1.57l.65,1.2ZM350.43,23.28c.24-1.19.47-2.49.72-3.9s.5-3,.78-4.79c-.6-.34-1.09-.57-1.46-.7-.37-.12-.74-.19-1.11-.19-1.69,0-3.18,1.14-4.46,3.42-1.29,2.28-1.93,4.97-1.93,8.08,0,.98.11,1.72.32,2.21.22.49.55.74.99.74s1.19-.4,2.2-1.2c1.01-.8,2.33-2.03,3.95-3.68Z"/>
        <path class="cls-1" d="M370.31,14.94l-1.1,1.04-.14-.12c-1.49-1.36-2.63-2.04-3.4-2.04s-1.34.22-1.82.66c-.48.44-.72,1-.72,1.68,0,1.05.91,2.33,2.73,3.85.22.18.39.32.49.41,1.35,1.15,2.24,2.06,2.67,2.71.43.66.64,1.36.64,2.12,0,1.46-.72,2.81-2.15,4.07-1.44,1.26-3.07,1.89-4.91,1.89-1.3,0-2.37-.22-3.22-.67s-1.28-.99-1.28-1.63c0-.25.04-.46.12-.65.08-.18.26-.41.53-.69l1.04-.96c.87.96,1.59,1.63,2.16,2.01.58.38,1.14.57,1.69.57.83,0,1.53-.28,2.11-.84.58-.56.88-1.22.88-1.98,0-.87-.9-2.1-2.69-3.7-.47-.42-.83-.75-1.08-.98-1.05-.94-1.77-1.73-2.16-2.36s-.59-1.26-.59-1.91c0-1.4.71-2.71,2.13-3.93,1.42-1.22,2.98-1.83,4.67-1.83,1.13,0,2.07.21,2.82.63.75.42,1.13.91,1.13,1.47,0,.22-.05.43-.14.62-.09.19-.23.37-.41.54Z"/>
        <path class="cls-1" d="M376.82,25.82l.92.96c.45.47.75.88.9,1.21.16.33.24.7.24,1.09,0,1.08-.56,2.27-1.67,3.58-1.12,1.31-2.56,2.41-4.35,3.3l-.92-1.04c1.17-.75,2.02-1.42,2.55-2.03s.8-1.19.8-1.75c0-.48-.21-1-.64-1.55-.43-.55-.64-.99-.64-1.32,0-.3.1-.59.31-.87.21-.27.52-.52.92-.75l1.57-.85Z"/>
        <path class="cls-1" d="M404.42,14.94l-1.1,1.04-.14-.12c-1.49-1.36-2.63-2.04-3.4-2.04-.73,0-1.34.22-1.82.66-.48.44-.72,1-.72,1.68,0,1.05.91,2.33,2.73,3.85.22.18.39.32.49.41,1.35,1.15,2.24,2.06,2.66,2.71s.64,1.36.64,2.12c0,1.46-.72,2.81-2.15,4.07-1.44,1.26-3.07,1.89-4.91,1.89-1.3,0-2.37-.22-3.22-.67-.85-.45-1.28-.99-1.28-1.63,0-.25.04-.46.12-.65.08-.18.26-.41.53-.69l1.04-.96c.87.96,1.59,1.63,2.16,2.01s1.14.57,1.69.57c.83,0,1.53-.28,2.11-.84.58-.56.88-1.22.88-1.98,0-.87-.9-2.1-2.69-3.7-.47-.42-.83-.75-1.08-.98-1.05-.94-1.77-1.73-2.16-2.36-.39-.63-.59-1.26-.59-1.91,0-1.4.71-2.71,2.13-3.93,1.42-1.22,2.98-1.83,4.67-1.83,1.13,0,2.07.21,2.82.63.75.42,1.13.91,1.13,1.47,0,.22-.05.43-.14.62-.09.19-.23.37-.41.54Z"/>
        <path class="cls-1" d="M416.39,20.47l-6,3.11v.2c0,1.56.25,2.75.74,3.56.49.81,1.2,1.22,2.13,1.22.55,0,1.24-.25,2.08-.74.83-.49,1.9-1.29,3.2-2.39l.69,1.24c-1.88,1.73-3.37,2.93-4.47,3.6-1.11.67-2.12,1-3.02,1-1.38,0-2.5-.6-3.35-1.79-.86-1.19-1.29-2.76-1.29-4.7,0-1.38.23-2.85.68-4.43.45-1.58,1.04-2.96,1.76-4.14.9-1.44,1.94-2.56,3.11-3.34,1.17-.79,2.37-1.18,3.62-1.18s2.34.4,3.2,1.21c.86.81,1.29,1.79,1.29,2.94,0,.93-.26,1.7-.78,2.31-.52.61-1.7,1.39-3.56,2.33ZM410.48,21.83l.2-.1c4.65-2.39,6.98-4.23,6.98-5.53,0-.69-.25-1.3-.75-1.81-.5-.51-1.08-.77-1.75-.77-1.03,0-1.96.71-2.78,2.14-.82,1.43-1.46,3.45-1.9,6.06Z"/>
        <path class="cls-1" d="M428.57,17.32l3.19-3.11c1.11-1.06,1.96-1.76,2.53-2.1s1.11-.51,1.62-.51c.87,0,1.57.38,2.11,1.14.54.76.82,1.76.82,3.01s-.32,3.24-.96,5.89-.96,4.54-.96,5.67c0,.34.06.6.2.78.13.18.32.27.57.27.12,0,.26-.05.44-.15.18-.1.35-.23.52-.4l1.49-1.46.69,1.04-2.14,2.18c-.51.52-1.02.94-1.52,1.24-.5.3-.95.45-1.33.45-.66,0-1.19-.29-1.6-.86s-.62-1.32-.62-2.25c0-1.11.33-3.08,1-5.89.67-2.81,1-4.86,1-6.14,0-.49-.1-.88-.3-1.17s-.47-.44-.82-.44c-.51,0-2.08,1.21-4.7,3.64-.69.64-1.24,1.15-1.63,1.51l-1.24,6.92c-.03.13-.07.33-.12.59-.28,1.4-.44,2.48-.49,3.22l-3.5.87c.87-3.76,1.55-7.03,2.05-9.81.51-2.78.76-4.6.76-5.47,0-.52-.06-.9-.18-1.13-.12-.23-.31-.34-.57-.34-.16,0-.42.09-.78.28-.36.18-.82.45-1.37.81l-.53-1.04c.14-.12.35-.29.63-.51,2.02-1.63,3.37-2.44,4.05-2.44s1.14.25,1.46.74c.31.49.47,1.25.47,2.29,0,.37-.02.78-.06,1.24-.04.46-.1.94-.18,1.46Z"/>
        <path class="cls-1" d="M453.82,25.66l-3.34,3.03c-.98.89-1.77,1.51-2.35,1.85-.58.34-1.13.51-1.64.51-1.18,0-2.08-.5-2.71-1.5-.63-1-.94-2.45-.94-4.34,0-3.72.94-6.92,2.82-9.6,1.88-2.67,4.12-4.01,6.71-4.01.52,0,1.06.07,1.6.21.54.14,1.11.34,1.7.6l1.12-7.12c.04-.28.07-.55.09-.83.02-.28.03-.57.03-.86,0-.52-.1-.88-.31-1.08-.21-.2-.6-.29-1.16-.29-.17,0-.34,0-.52,0-.18,0-.37.02-.58.03l-.08-1.16c1.09-.11,2.19-.25,3.29-.43,1.11-.18,2.22-.41,3.35-.67-1.22,6.29-2.22,11.97-3.01,17.04-.79,5.07-1.18,8.14-1.18,9.23,0,.67.06,1.14.19,1.41.12.27.33.4.62.4.16,0,.34-.07.56-.2s.49-.35.82-.65l1.2-1.08.65,1.12-2.26,2.22c-.79.76-1.36,1.25-1.71,1.46-.35.21-.7.31-1.02.31-.69,0-1.2-.33-1.52-.98-.32-.66-.48-1.67-.48-3.05,0-.3,0-.57.02-.82.01-.24.03-.5.06-.76ZM453.78,23.66l1.47-8.91c-.72-.42-1.36-.72-1.93-.91-.56-.19-1.09-.29-1.57-.29-1.61,0-2.97,1.03-4.07,3.1-1.1,2.07-1.65,4.64-1.65,7.72,0,1.25.15,2.19.44,2.83s.73.96,1.31.96c.39,0,1.12-.4,2.19-1.2,1.07-.8,2.34-1.9,3.8-3.3Z"/>
        <path class="cls-1" d="M471.66,20.47l-6,3.11v.2c0,1.56.25,2.75.74,3.56.49.81,1.2,1.22,2.13,1.22.55,0,1.24-.25,2.08-.74.83-.49,1.9-1.29,3.2-2.39l.69,1.24c-1.88,1.73-3.37,2.93-4.47,3.6-1.11.67-2.12,1-3.02,1-1.38,0-2.5-.6-3.35-1.79-.86-1.19-1.29-2.76-1.29-4.7,0-1.38.23-2.85.68-4.43.45-1.58,1.04-2.96,1.76-4.14.9-1.44,1.94-2.56,3.11-3.34,1.17-.79,2.37-1.18,3.62-1.18s2.34.4,3.2,1.21c.86.81,1.29,1.79,1.29,2.94,0,.93-.26,1.7-.78,2.31-.52.61-1.7,1.39-3.56,2.33ZM465.75,21.83l.2-.1c4.65-2.39,6.98-4.23,6.98-5.53,0-.69-.25-1.3-.75-1.81-.5-.51-1.08-.77-1.75-.77-1.03,0-1.96.71-2.78,2.14-.82,1.43-1.46,3.45-1.9,6.06Z"/>
        <path class="cls-1" d="M478.61,31.23c.83-3.41,1.47-6.42,1.93-9.04.46-2.62.69-4.58.69-5.91,0-.56-.08-.99-.25-1.27-.16-.28-.4-.42-.72-.42-.24,0-.9.34-1.99,1.02l-.16.1-.69-1.12.29-.22c2.36-1.77,3.89-2.65,4.58-2.65.64,0,1.1.21,1.39.62s.42,1.1.42,2.05c0,.84-.03,1.62-.08,2.35-.05.73-.13,1.35-.24,1.88,1.8-2.96,3.07-4.85,3.83-5.67s1.47-1.23,2.12-1.23c.45,0,.82.16,1.12.49.3.33.45.73.45,1.2,0,.29-.08.64-.23,1.05-.15.41-.47,1.1-.95,2.06-.24-.33-.48-.57-.73-.73-.25-.16-.5-.24-.75-.24-.49,0-1.06.34-1.72,1.01s-1.7,2.03-3.12,4.06c-.45,1.81-.82,3.53-1.12,5.16-.3,1.63-.53,3.18-.69,4.63l-3.42.81Z"/>
        <path class="cls-1" d="M502.48,11.68c1.95,0,3.44.61,4.45,1.82,1.02,1.21,1.52,2.99,1.52,5.32,0,1.34-.26,2.76-.79,4.28-.52,1.51-1.23,2.88-2.12,4.1-.96,1.31-2.04,2.32-3.25,3.02-1.21.7-2.49,1.05-3.83,1.05-1.76,0-3.16-.64-4.2-1.91-1.04-1.27-1.56-2.98-1.56-5.11,0-1.59.25-3.13.77-4.64s1.25-2.87,2.2-4.09c.94-1.22,2.01-2.16,3.21-2.83,1.2-.67,2.39-1,3.59-1ZM501.64,13.59c-1.52,0-2.83,1.04-3.93,3.13-1.1,2.09-1.65,4.66-1.65,7.72,0,1.61.28,2.85.84,3.7.56.85,1.37,1.28,2.43,1.28,1.6,0,2.96-1.03,4.08-3.08,1.12-2.05,1.68-4.57,1.68-7.55,0-1.77-.28-3.08-.85-3.93s-1.43-1.27-2.6-1.27Z"/>
        <path class="cls-1" d="M522.44,14.94l-1.1,1.04-.14-.12c-1.49-1.36-2.63-2.04-3.4-2.04-.73,0-1.34.22-1.82.66-.48.44-.72,1-.72,1.68,0,1.05.91,2.33,2.73,3.85.22.18.39.32.49.41,1.35,1.15,2.24,2.06,2.66,2.71s.64,1.36.64,2.12c0,1.46-.72,2.81-2.15,4.07-1.44,1.26-3.07,1.89-4.91,1.89-1.3,0-2.37-.22-3.22-.67-.85-.45-1.28-.99-1.28-1.63,0-.25.04-.46.12-.65.08-.18.26-.41.53-.69l1.04-.96c.87.96,1.59,1.63,2.16,2.01.58.38,1.14.57,1.69.57.83,0,1.53-.28,2.11-.84.58-.56.88-1.22.88-1.98,0-.87-.9-2.1-2.69-3.7-.47-.42-.83-.75-1.08-.98-1.05-.94-1.77-1.73-2.16-2.36s-.59-1.26-.59-1.91c0-1.4.71-2.71,2.13-3.93,1.42-1.22,2.98-1.83,4.67-1.83,1.13,0,2.07.21,2.82.63.75.42,1.13.91,1.13,1.47,0,.22-.05.43-.14.62-.09.19-.23.37-.41.54Z"/>
        <path class="cls-1" d="M541.97,26.23l.69,1.16c-1.61,1.67-2.73,2.73-3.36,3.19s-1.19.69-1.67.69c-.7,0-1.25-.29-1.67-.88s-.63-1.37-.63-2.35c0-1.23.39-3.29,1.17-6.17.78-2.88,1.17-4.96,1.17-6.23,0-.33-.08-.59-.24-.79s-.36-.29-.61-.29c-.21,0-.49.08-.83.26-.34.17-.77.43-1.28.79l-.59-1.04,2.62-1.91c.5-.37.93-.63,1.3-.8.37-.16.71-.25,1.04-.25.62,0,1.1.25,1.46.76.36.5.54,1.2.54,2.07,0,.96-.34,2.83-1.02,5.62-.16.63-.28,1.1-.35,1.42-.37,1.48-.65,2.71-.84,3.68s-.29,1.64-.29,2.01c0,.33.07.6.22.81.14.21.33.31.55.31.21,0,.48-.13.83-.39.34-.26.94-.81,1.79-1.65ZM541.81.88l1.12,1.26c.31.33.53.62.66.88.12.26.19.51.19.78,0,.28-.1.54-.29.79-.19.25-.47.48-.84.71l-1.73.96-1.26-1.49c-.26-.33-.43-.59-.51-.78-.08-.19-.12-.39-.12-.6,0-.3.08-.57.24-.8s.43-.46.81-.68l1.73-1.02Z"/>
        <path class="cls-1" d="M551.19,17.32l3.19-3.11c1.12-1.06,1.96-1.76,2.53-2.1s1.11-.51,1.62-.51c.87,0,1.57.38,2.11,1.14.54.76.82,1.76.82,3.01s-.32,3.24-.96,5.89c-.64,2.65-.96,4.54-.96,5.67,0,.34.07.6.2.78.13.18.32.27.57.27.12,0,.26-.05.44-.15.18-.1.35-.23.52-.4l1.49-1.46.69,1.04-2.14,2.18c-.51.52-1.02.94-1.52,1.24-.5.3-.95.45-1.33.45-.66,0-1.19-.29-1.6-.86-.41-.57-.62-1.32-.62-2.25,0-1.11.33-3.08,1-5.89.67-2.81,1-4.86,1-6.14,0-.49-.1-.88-.3-1.17-.2-.29-.48-.44-.82-.44-.51,0-2.08,1.21-4.7,3.64-.69.64-1.24,1.15-1.63,1.51l-1.24,6.92c-.03.13-.07.33-.12.59-.28,1.4-.44,2.48-.49,3.22l-3.5.87c.87-3.76,1.55-7.03,2.05-9.81.5-2.78.76-4.6.76-5.47,0-.52-.06-.9-.18-1.13s-.31-.34-.57-.34c-.16,0-.42.09-.78.28-.36.18-.82.45-1.37.81l-.53-1.04c.14-.12.35-.29.63-.51,2.02-1.63,3.37-2.44,4.05-2.44s1.14.25,1.46.74c.31.49.47,1.25.47,2.29,0,.37-.02.78-.06,1.24s-.1.94-.18,1.46Z"/>
        <path class="cls-1" d="M566.03,31.26c.42-1.94.89-4.35,1.4-7.22.07-.38.11-.66.14-.83l.37-2.03c.21-1.22.37-2.31.49-3.28.12-.97.18-1.62.18-1.97,0-.39-.08-.72-.24-.97s-.36-.38-.61-.38c-.14,0-.35.07-.63.21s-.73.42-1.38.83l-.57-1.04c.33-.24.78-.58,1.36-1.02,1.68-1.28,2.81-1.93,3.4-1.93.55,0,.99.23,1.32.7.33.46.49,1.09.49,1.88,0,.62-.09,1.68-.26,3.21-.03.22-.05.39-.06.51.42-.46,1-1.1,1.75-1.93,2.63-2.91,4.42-4.37,5.37-4.37.77,0,1.4.33,1.89.99.48.66.73,1.53.73,2.61,0,.38-.01.8-.04,1.25-.03.45-.08,1-.16,1.64.21-.24.51-.58.9-1.04,3.05-3.63,5.18-5.45,6.39-5.45.79,0,1.43.33,1.92.98.49.66.74,1.51.74,2.58,0,1.52-.31,3.63-.94,6.34-.63,2.71-.94,4.55-.94,5.54,0,.39.07.71.2.95.13.24.29.36.49.36.17,0,.48-.19.93-.56.45-.37.99-.89,1.6-1.56l.67,1.2c-1.61,1.68-2.7,2.73-3.27,3.16-.57.43-1.06.64-1.46.64-.75,0-1.32-.28-1.73-.84-.41-.56-.61-1.34-.61-2.35,0-1.48.33-3.6.98-6.37.66-2.77.98-4.64.98-5.62,0-.47-.08-.84-.26-1.1-.17-.26-.41-.39-.71-.39s-.83.34-1.59,1.03c-.76.69-2.28,2.25-4.56,4.69-.46,2.46-.8,4.46-1.03,6-.23,1.53-.4,2.88-.5,4.03l-3.46.92c.77-4.04,1.38-7.38,1.81-10.03.43-2.65.65-4.34.65-5.07,0-.48-.09-.87-.27-1.15-.18-.28-.4-.42-.66-.42-.37,0-2.08,1.51-5.13,4.52l-.92.91c-.48,2.56-.85,4.61-1.1,6.15-.25,1.55-.43,2.9-.53,4.07l-3.52,1.02Z"/>
        <path class="cls-1" d="M604.19,20.47l-6.01,3.11v.2c0,1.56.25,2.75.74,3.56s1.2,1.22,2.13,1.22c.55,0,1.24-.25,2.07-.74.83-.49,1.9-1.29,3.2-2.39l.69,1.24c-1.88,1.73-3.37,2.93-4.47,3.6s-2.11,1-3.02,1c-1.38,0-2.5-.6-3.35-1.79-.86-1.19-1.29-2.76-1.29-4.7,0-1.38.23-2.85.68-4.43.45-1.58,1.04-2.96,1.76-4.14.9-1.44,1.94-2.56,3.11-3.34,1.17-.79,2.37-1.18,3.62-1.18s2.34.4,3.2,1.21c.86.81,1.29,1.79,1.29,2.94,0,.93-.26,1.7-.78,2.31s-1.7,1.39-3.56,2.33ZM598.28,21.83l.2-.1c4.65-2.39,6.98-4.23,6.98-5.53,0-.69-.25-1.3-.75-1.81-.5-.51-1.08-.77-1.74-.77-1.03,0-1.96.71-2.79,2.14-.82,1.43-1.46,3.45-1.9,6.06Z"/>
        <path class="cls-1" d="M611.14,31.23c.83-3.41,1.47-6.42,1.93-9.04s.69-4.58.69-5.91c0-.56-.08-.99-.25-1.27-.16-.28-.4-.42-.72-.42-.24,0-.9.34-1.99,1.02l-.16.1-.69-1.12.29-.22c2.36-1.77,3.89-2.65,4.58-2.65.64,0,1.1.21,1.39.62.28.41.42,1.1.42,2.05,0,.84-.03,1.62-.08,2.35s-.13,1.35-.24,1.88c1.8-2.96,3.07-4.85,3.83-5.67.76-.82,1.47-1.23,2.12-1.23.45,0,.82.16,1.12.49.3.33.45.73.45,1.2,0,.29-.08.64-.23,1.05-.15.41-.47,1.1-.95,2.06-.24-.33-.48-.57-.73-.73-.25-.16-.5-.24-.75-.24-.49,0-1.06.34-1.72,1.01s-1.7,2.03-3.12,4.06c-.45,1.81-.82,3.53-1.12,5.16s-.53,3.18-.69,4.63l-3.42.81Z"/>
        <path class="cls-1" d="M636.68,14.94l-1.1,1.04-.14-.12c-1.49-1.36-2.63-2.04-3.4-2.04s-1.34.22-1.82.66c-.48.44-.72,1-.72,1.68,0,1.05.91,2.33,2.73,3.85.22.18.39.32.49.41,1.35,1.15,2.24,2.06,2.67,2.71.43.66.64,1.36.64,2.12,0,1.46-.72,2.81-2.15,4.07-1.44,1.26-3.07,1.89-4.91,1.89-1.3,0-2.37-.22-3.22-.67s-1.28-.99-1.28-1.63c0-.25.04-.46.12-.65.08-.18.26-.41.53-.69l1.04-.96c.87.96,1.59,1.63,2.16,2.01.58.38,1.14.57,1.69.57.83,0,1.53-.28,2.11-.84.58-.56.88-1.22.88-1.98,0-.87-.9-2.1-2.69-3.7-.47-.42-.83-.75-1.08-.98-1.05-.94-1.77-1.73-2.16-2.36s-.59-1.26-.59-1.91c0-1.4.71-2.71,2.13-3.93,1.42-1.22,2.98-1.83,4.67-1.83,1.13,0,2.07.21,2.82.63.75.42,1.13.91,1.13,1.47,0,.22-.05.43-.14.62-.09.19-.23.37-.41.54Z"/>
        <path class="cls-1" d="M649.31,11.68c1.95,0,3.44.61,4.45,1.82s1.52,2.99,1.52,5.32c0,1.34-.26,2.76-.79,4.28-.52,1.51-1.23,2.88-2.12,4.1-.96,1.31-2.04,2.32-3.25,3.02s-2.49,1.05-3.82,1.05c-1.76,0-3.16-.64-4.2-1.91-1.04-1.27-1.56-2.98-1.56-5.11,0-1.59.26-3.13.77-4.64s1.25-2.87,2.2-4.09c.94-1.22,2.02-2.16,3.21-2.83,1.2-.67,2.4-1,3.59-1ZM648.46,13.59c-1.52,0-2.83,1.04-3.93,3.13s-1.65,4.66-1.65,7.72c0,1.61.28,2.85.83,3.7.56.85,1.37,1.28,2.43,1.28,1.6,0,2.96-1.03,4.08-3.08,1.12-2.05,1.68-4.57,1.68-7.55,0-1.77-.28-3.08-.85-3.93s-1.43-1.27-2.59-1.27Z"/>
        <path class="cls-1" d="M669.27,14.94l-1.1,1.04-.14-.12c-1.49-1.36-2.63-2.04-3.4-2.04s-1.34.22-1.82.66c-.48.44-.72,1-.72,1.68,0,1.05.91,2.33,2.73,3.85.22.18.39.32.49.41,1.35,1.15,2.24,2.06,2.67,2.71.43.66.64,1.36.64,2.12,0,1.46-.72,2.81-2.15,4.07-1.44,1.26-3.07,1.89-4.91,1.89-1.3,0-2.37-.22-3.22-.67s-1.28-.99-1.28-1.63c0-.25.04-.46.12-.65.08-.18.26-.41.53-.69l1.04-.96c.87.96,1.59,1.63,2.16,2.01.58.38,1.14.57,1.69.57.83,0,1.53-.28,2.11-.84.58-.56.88-1.22.88-1.98,0-.87-.9-2.1-2.69-3.7-.47-.42-.83-.75-1.08-.98-1.05-.94-1.77-1.73-2.16-2.36s-.59-1.26-.59-1.91c0-1.4.71-2.71,2.13-3.93,1.42-1.22,2.98-1.83,4.67-1.83,1.13,0,2.07.21,2.82.63.75.42,1.13.91,1.13,1.47,0,.22-.05.43-.14.62-.09.19-.23.37-.41.54Z"/>
        <path class="cls-1" d="M690.06,20.47l-6.01,3.11v.2c0,1.56.25,2.75.74,3.56s1.2,1.22,2.13,1.22c.55,0,1.24-.25,2.07-.74.83-.49,1.9-1.29,3.2-2.39l.69,1.24c-1.88,1.73-3.37,2.93-4.47,3.6s-2.11,1-3.02,1c-1.38,0-2.5-.6-3.35-1.79-.86-1.19-1.29-2.76-1.29-4.7,0-1.38.23-2.85.68-4.43.45-1.58,1.04-2.96,1.76-4.14.9-1.44,1.94-2.56,3.11-3.34,1.17-.79,2.37-1.18,3.62-1.18s2.34.4,3.2,1.21c.86.81,1.29,1.79,1.29,2.94,0,.93-.26,1.7-.78,2.31s-1.7,1.39-3.56,2.33ZM684.15,21.83l.2-.1c4.65-2.39,6.98-4.23,6.98-5.53,0-.69-.25-1.3-.75-1.81-.5-.51-1.08-.77-1.74-.77-1.03,0-1.96.71-2.79,2.14-.82,1.43-1.46,3.45-1.9,6.06Z"/>
        <path class="cls-1" d="M702.24,17.32l3.19-3.11c1.12-1.06,1.96-1.76,2.53-2.1s1.11-.51,1.62-.51c.87,0,1.57.38,2.11,1.14.54.76.82,1.76.82,3.01s-.32,3.24-.96,5.89c-.64,2.65-.96,4.54-.96,5.67,0,.34.07.6.2.78.13.18.32.27.57.27.12,0,.26-.05.44-.15.18-.1.35-.23.52-.4l1.49-1.46.69,1.04-2.14,2.18c-.51.52-1.02.94-1.52,1.24-.5.3-.95.45-1.33.45-.66,0-1.19-.29-1.6-.86-.41-.57-.62-1.32-.62-2.25,0-1.11.33-3.08,1-5.89.67-2.81,1-4.86,1-6.14,0-.49-.1-.88-.3-1.17-.2-.29-.48-.44-.82-.44-.51,0-2.08,1.21-4.7,3.64-.69.64-1.24,1.15-1.63,1.51l-1.24,6.92c-.03.13-.07.33-.12.59-.28,1.4-.44,2.48-.49,3.22l-3.5.87c.87-3.76,1.55-7.03,2.05-9.81.5-2.78.76-4.6.76-5.47,0-.52-.06-.9-.18-1.13s-.31-.34-.57-.34c-.16,0-.42.09-.78.28-.36.18-.82.45-1.37.81l-.53-1.04c.14-.12.35-.29.63-.51,2.02-1.63,3.37-2.44,4.05-2.44s1.14.25,1.46.74c.31.49.47,1.25.47,2.29,0,.37-.02.78-.06,1.24s-.1.94-.18,1.46Z"/>
        <path class="cls-1" d="M9.31,63.18l-6,3.11v.2c0,1.56.25,2.75.74,3.56.49.81,1.2,1.22,2.13,1.22.55,0,1.24-.25,2.08-.74.83-.49,1.9-1.29,3.2-2.39l.69,1.24c-1.88,1.73-3.37,2.93-4.47,3.6-1.11.67-2.12,1-3.02,1-1.38,0-2.5-.6-3.35-1.79-.86-1.19-1.29-2.76-1.29-4.7,0-1.38.23-2.85.68-4.43.45-1.58,1.04-2.96,1.76-4.14.9-1.44,1.94-2.56,3.11-3.34,1.17-.79,2.37-1.18,3.62-1.18s2.34.4,3.2,1.21c.86.81,1.29,1.79,1.29,2.94,0,.93-.26,1.7-.78,2.31-.52.61-1.7,1.39-3.56,2.33ZM3.4,64.54l.2-.1c4.65-2.39,6.98-4.23,6.98-5.53,0-.69-.25-1.3-.75-1.81-.5-.51-1.08-.77-1.75-.77-1.03,0-1.96.71-2.78,2.14-.82,1.43-1.46,3.45-1.9,6.06Z"/>
        <path class="cls-1" d="M23.79,70.18l-1.83,1.73c-.83.79-1.47,1.33-1.95,1.62-.47.29-.89.44-1.26.44-.76,0-1.34-.28-1.74-.85-.4-.56-.6-1.38-.6-2.46,0-.88.29-2.82.88-5.84.33-1.66.58-2.98.77-3.95l.81-4.42c.51-2.87.91-5.2,1.19-6.98.28-1.78.42-2.86.42-3.25,0-.42-.1-.73-.29-.92-.2-.2-.51-.29-.92-.29-.08,0-.24,0-.47.02s-.43.02-.57.02l-.12-1.08c.85-.12,1.79-.28,2.81-.48,1.02-.2,2.22-.46,3.6-.78-1.43,7.14-2.6,13.29-3.51,18.42s-1.37,8.05-1.37,8.73c0,.37.07.66.21.88.14.22.32.32.56.32.14,0,.33-.07.57-.22.24-.14.53-.37.87-.67l1.34-1.08.61,1.08Z"/>
        <path class="cls-1" d="M41.12,52.31l1.46.51c-.24.77-.45,1.57-.64,2.38-.19.81-.37,1.67-.54,2.58l-.32,1.99.35-.39c2.96-3.2,5.11-4.8,6.45-4.8,1.21,0,2.19.6,2.94,1.79.75,1.19,1.13,2.78,1.13,4.76,0,1.49-.29,3.04-.87,4.65-.58,1.61-1.35,3.03-2.32,4.26-1,1.26-2.08,2.22-3.23,2.88-1.16.66-2.35.99-3.57.99-.46,0-.92-.06-1.4-.19s-.99-.32-1.55-.58l-.96,6.29c-.04.24-.07.45-.09.65-.02.2-.03.37-.03.51,0,.64.15,1.08.46,1.31s.89.34,1.76.34h.63l-.28,1.36c-.77-.05-1.54-.09-2.3-.12s-1.52-.04-2.28-.04c-.46,0-1.39.03-2.79.1-.62.03-1.09.04-1.44.06l.24-1.36h.61c.75,0,1.26-.14,1.54-.43.28-.29.5-.87.66-1.75l3.3-19.49c.04-.2.09-.49.16-.88.24-1.4.46-2.54.69-3.42l-3.34,2.32-.35-1.32c1.02-.75,2.03-1.53,3.02-2.36.99-.83,1.96-1.69,2.9-2.6ZM39.35,70.95c.62.35,1.21.62,1.77.79.56.17,1.1.25,1.61.25,1.61,0,2.99-1.08,4.13-3.25s1.71-4.8,1.71-7.89c0-1.18-.15-2.07-.45-2.66s-.75-.88-1.36-.88c-.76,0-2.43,1.2-5.01,3.6-.45.41-.79.72-1.04.94l-1.36,9.1Z"/>
        <path class="cls-1" d="M72.16,70.1l-1.26,1.22c-.93.93-1.68,1.58-2.23,1.94s-1.06.54-1.5.54c-.67,0-1.2-.29-1.59-.86s-.59-1.35-.59-2.35c0-.38.01-.77.04-1.18s.07-.82.12-1.24c-2.46,2.39-4.19,3.92-5.16,4.6-.98.68-1.79,1.02-2.45,1.02-1,0-1.75-.43-2.25-1.3-.5-.87-.76-2.15-.76-3.85,0-1.55.2-3.04.6-4.47.4-1.44.99-2.79,1.76-4.06,1.11-1.78,2.4-3.15,3.84-4.09,1.45-.94,2.98-1.42,4.61-1.42.35,0,.74.04,1.16.11.42.07.87.18,1.34.32l2.75-1.16c-.77,3.7-1.39,7.01-1.85,9.95s-.69,4.86-.69,5.78c0,.42.07.73.21.94.14.21.35.32.64.32.21,0,.49-.13.85-.39.35-.26.94-.79,1.77-1.57l.65,1.2ZM65.3,65.99c.24-1.19.48-2.49.72-3.9s.5-3,.78-4.79c-.6-.34-1.09-.57-1.46-.7-.37-.12-.74-.19-1.11-.19-1.69,0-3.18,1.14-4.46,3.42-1.29,2.28-1.93,4.97-1.93,8.08,0,.98.11,1.72.32,2.21.22.49.55.74.99.74s1.19-.4,2.2-1.2c1.01-.8,2.33-2.03,3.95-3.68Z"/>
        <path class="cls-1" d="M81.58,68.94l.69,1.16c-1.61,1.67-2.73,2.73-3.36,3.19-.63.46-1.19.69-1.67.69-.69,0-1.25-.29-1.67-.88-.42-.58-.63-1.37-.63-2.35,0-1.23.39-3.29,1.17-6.17.78-2.88,1.17-4.96,1.17-6.23,0-.33-.08-.59-.24-.79-.16-.2-.36-.29-.61-.29-.21,0-.49.08-.83.26-.34.17-.77.43-1.28.79l-.59-1.04,2.62-1.91c.5-.37.93-.63,1.3-.8.37-.16.71-.25,1.04-.25.62,0,1.1.25,1.46.76s.54,1.2.54,2.07c0,.96-.34,2.83-1.02,5.62-.16.63-.28,1.1-.35,1.42-.37,1.48-.65,2.71-.84,3.68-.19.97-.29,1.64-.29,2.01,0,.33.07.6.22.81.14.21.33.31.55.31.21,0,.49-.13.83-.39.34-.26.94-.81,1.79-1.65ZM81.43,43.6l1.12,1.26c.31.33.53.62.66.88s.19.51.19.78c0,.28-.1.54-.29.79-.19.25-.47.48-.84.71l-1.73.96-1.26-1.49c-.26-.33-.43-.59-.51-.78-.08-.19-.12-.39-.12-.6,0-.3.08-.57.24-.8.16-.23.43-.46.81-.68l1.73-1.02Z"/>
        <path class="cls-1" d="M96.25,57.66l-1.1,1.04-.14-.12c-1.49-1.36-2.63-2.04-3.4-2.04s-1.34.22-1.82.66c-.48.44-.72,1-.72,1.68,0,1.05.91,2.33,2.73,3.85.22.18.39.32.49.41,1.35,1.15,2.24,2.06,2.67,2.71.43.66.64,1.36.64,2.12,0,1.46-.72,2.81-2.15,4.07-1.44,1.26-3.07,1.89-4.91,1.89-1.3,0-2.37-.22-3.22-.67-.85-.45-1.28-.99-1.28-1.63,0-.25.04-.46.12-.65.08-.18.26-.41.53-.69l1.04-.96c.87.96,1.59,1.63,2.16,2.01s1.14.57,1.69.57c.83,0,1.53-.28,2.11-.84.58-.56.88-1.22.88-1.98,0-.87-.9-2.1-2.69-3.7-.47-.42-.83-.75-1.08-.98-1.05-.94-1.77-1.73-2.16-2.36-.39-.63-.59-1.26-.59-1.91,0-1.4.71-2.71,2.13-3.93,1.42-1.22,2.98-1.83,4.67-1.83,1.13,0,2.07.21,2.82.63.75.42,1.13.91,1.13,1.47,0,.22-.05.43-.14.62-.09.19-.23.37-.41.54Z"/>
        <path class="cls-1" d="M116.58,70.1l-1.26,1.22c-.93.93-1.67,1.58-2.23,1.94s-1.06.54-1.5.54c-.67,0-1.2-.29-1.59-.86-.39-.57-.59-1.35-.59-2.35,0-.38.01-.77.04-1.18s.07-.82.12-1.24c-2.46,2.39-4.19,3.92-5.16,4.6-.98.68-1.79,1.02-2.45,1.02-1,0-1.75-.43-2.25-1.3s-.76-2.15-.76-3.85c0-1.55.2-3.04.6-4.47.4-1.44.99-2.79,1.76-4.06,1.11-1.78,2.4-3.15,3.84-4.09,1.45-.94,2.99-1.42,4.61-1.42.35,0,.74.04,1.16.11.42.07.87.18,1.34.32l2.75-1.16c-.77,3.7-1.39,7.01-1.85,9.95s-.69,4.86-.69,5.78c0,.42.07.73.21.94.14.21.35.32.64.32.21,0,.49-.13.85-.39.35-.26.94-.79,1.77-1.57l.65,1.2ZM109.72,65.99c.24-1.19.47-2.49.72-3.9.24-1.41.5-3,.78-4.79-.6-.34-1.09-.57-1.46-.7-.37-.12-.74-.19-1.11-.19-1.69,0-3.18,1.14-4.46,3.42-1.29,2.28-1.93,4.97-1.93,8.08,0,.98.11,1.72.33,2.21.22.49.55.74.99.74s1.19-.4,2.2-1.2c1.01-.8,2.33-2.03,3.95-3.68Z"/>
        <path class="cls-1" d="M125.39,58.95l-1.73,11.6c-.29,2.01-.6,3.65-.92,4.95-.33,1.29-.7,2.34-1.12,3.14-.85,1.64-1.94,2.93-3.25,3.87-1.32.94-2.69,1.42-4.12,1.42-.77,0-1.43-.18-1.97-.53-.54-.35-.81-.79-.81-1.3,0-.29.05-.53.15-.74.1-.2.28-.42.54-.66l.85-.77c.54.64,1.04,1.1,1.51,1.39.47.28.97.42,1.49.42.97,0,1.74-.53,2.3-1.6s1.14-3.34,1.73-6.81l.81-4.5c.45-2.64.82-4.98,1.12-7.03.3-2.05.45-3.21.45-3.49,0-.31-.07-.57-.22-.76-.14-.19-.33-.29-.55-.29-.25,0-.85.28-1.81.85-.26.16-.47.28-.61.35l-.61-1.12,2.26-1.5c.77-.5,1.41-.87,1.92-1.1.5-.24.93-.35,1.27-.35.51,0,.9.18,1.17.55.27.37.4.9.4,1.59,0,.31-.02.68-.06,1.08-.04.41-.1.85-.2,1.34ZM125.8,43.6l1.12,1.26c.31.33.53.62.66.88.12.26.19.51.19.78,0,.28-.1.54-.29.79s-.47.48-.84.71l-1.73.96-1.26-1.49c-.26-.33-.43-.59-.51-.78-.08-.19-.12-.39-.12-.6,0-.3.08-.57.24-.8s.43-.46.81-.68l1.73-1.02Z"/>
        <path class="cls-1" d="M138.67,63.18l-6.01,3.11v.2c0,1.56.25,2.75.74,3.56s1.2,1.22,2.13,1.22c.55,0,1.24-.25,2.07-.74.83-.49,1.9-1.29,3.2-2.39l.69,1.24c-1.88,1.73-3.37,2.93-4.47,3.6s-2.11,1-3.02,1c-1.38,0-2.5-.6-3.35-1.79-.86-1.19-1.29-2.76-1.29-4.7,0-1.38.23-2.85.68-4.43.45-1.58,1.04-2.96,1.76-4.14.9-1.44,1.94-2.56,3.11-3.34,1.17-.79,2.37-1.18,3.62-1.18s2.34.4,3.2,1.21c.86.81,1.29,1.79,1.29,2.94,0,.93-.26,1.7-.78,2.31s-1.7,1.39-3.56,2.33ZM132.77,64.54l.2-.1c4.65-2.39,6.98-4.23,6.98-5.53,0-.69-.25-1.3-.75-1.81-.5-.51-1.08-.77-1.74-.77-1.03,0-1.96.71-2.79,2.14-.82,1.43-1.46,3.45-1.9,6.06Z"/>
        <path class="cls-1" d="M151.46,79.64c.38.5.79.88,1.24,1.14.45.26.89.39,1.34.39,1.21,0,2.29-.97,3.24-2.9s1.44-4.31,1.44-7.13c0-3.45-.28-6.52-.85-9.23-.56-2.71-1.13-4.06-1.69-4.06-.24,0-.49.13-.77.4s-.71.82-1.3,1.66l-.92-.92c.87-1.48,1.66-2.62,2.38-3.41.72-.79,1.32-1.19,1.81-1.19,1.18,0,2.15,1.32,2.92,3.96.77,2.64,1.15,6.06,1.15,10.25,0,.6-.01,1.21-.04,1.81-.03.6-.07,1.2-.12,1.79l.53-1.18c3.05-6.83,4.58-10.98,4.58-12.45,0-.38-.06-.72-.18-1.03-.12-.31-.31-.61-.59-.89l1.26-1.34c.3-.33.58-.56.83-.71.25-.14.5-.22.77-.22.42,0,.75.14.98.41.24.28.35.65.35,1.12,0,.84-.67,2.85-2,6.05-1.33,3.19-3.02,6.71-5.08,10.55-2.25,4.18-4.17,7.13-5.75,8.86-1.58,1.72-3.13,2.59-4.65,2.59-.81,0-1.46-.18-1.94-.54s-.72-.84-.72-1.45c0-.22.05-.44.15-.64.1-.2.29-.44.58-.72l1.04-.98Z"/>
        <path class="cls-1" d="M198.6,70.1l-2.71,2.54c-.49.47-.92.81-1.31,1-.39.2-.78.29-1.19.29-.59,0-1.07-.29-1.43-.86s-.54-1.33-.54-2.29c0-.28.02-.61.07-.99.04-.39.14-.99.29-1.82-2.43,2.48-4.14,4.09-5.15,4.84s-1.87,1.12-2.58,1.12c-.75,0-1.37-.35-1.87-1.04-.5-.69-.75-1.59-.75-2.67,0-.92.39-2.98,1.18-6.19.2-.76.34-1.34.43-1.73.28-1.09.48-1.96.61-2.62s.2-1.16.2-1.49c0-.26-.07-.47-.2-.64s-.29-.25-.49-.25c-.13,0-.39.09-.77.28-.38.18-.91.47-1.57.85l-.55-1.08c1.22-.91,2.29-1.61,3.21-2.11.92-.5,1.57-.76,1.95-.76.54,0,.96.23,1.27.69s.46,1.09.46,1.91c0,1.02-.4,3-1.21,5.94-.81,2.94-1.21,5.14-1.21,6.61,0,.46.08.8.24,1.01.16.22.4.32.73.32.37,0,.99-.36,1.88-1.09s2.37-2.12,4.45-4.18c.5-2.36.9-4.36,1.21-5.99.31-1.63.55-3.09.72-4.38l3.54-.85-.43,1.95c-.75,3.19-1.15,4.96-1.22,5.33l-.47,2.52c-.24,1.19-.42,2.33-.56,3.42-.14,1.09-.21,1.85-.21,2.3,0,.3.06.54.18.71.12.17.28.26.47.26.18,0,.52-.18,1.02-.53.5-.35,1.07-.83,1.71-1.43l.61,1.12Z"/>
        <path class="cls-1" d="M206.56,60.03l3.19-3.11c1.11-1.06,1.96-1.76,2.53-2.1s1.11-.51,1.62-.51c.87,0,1.57.38,2.11,1.14.54.76.82,1.76.82,3.01s-.32,3.24-.96,5.89-.96,4.54-.96,5.67c0,.34.07.6.2.78s.32.27.57.27c.12,0,.27-.05.44-.15s.35-.23.52-.4l1.49-1.46.69,1.04-2.14,2.18c-.51.52-1.02.94-1.52,1.24-.5.3-.95.45-1.33.45-.66,0-1.19-.29-1.6-.86s-.62-1.32-.62-2.25c0-1.11.33-3.08,1-5.89.67-2.81,1-4.86,1-6.14,0-.49-.1-.88-.3-1.17-.2-.29-.48-.44-.82-.44-.51,0-2.08,1.21-4.7,3.64-.7.64-1.24,1.15-1.63,1.51l-1.24,6.92c-.03.13-.07.33-.12.59-.28,1.4-.44,2.48-.49,3.22l-3.5.87c.87-3.76,1.55-7.03,2.05-9.81.5-2.78.76-4.6.76-5.47,0-.52-.06-.9-.18-1.13-.12-.23-.31-.34-.57-.34-.16,0-.42.09-.78.28-.36.18-.82.45-1.37.81l-.53-1.04c.14-.12.35-.29.63-.51,2.02-1.63,3.37-2.44,4.05-2.44s1.14.25,1.46.74c.31.49.47,1.25.47,2.29,0,.37-.02.78-.06,1.24s-.1.94-.18,1.46Z"/>
        <path class="cls-1" d="M238.42,70.1l-1.26,1.22c-.93.93-1.68,1.58-2.23,1.94s-1.06.54-1.5.54c-.67,0-1.2-.29-1.59-.86s-.59-1.35-.59-2.35c0-.38.01-.77.04-1.18s.07-.82.12-1.24c-2.46,2.39-4.19,3.92-5.16,4.6-.98.68-1.79,1.02-2.45,1.02-1,0-1.75-.43-2.25-1.3-.5-.87-.76-2.15-.76-3.85,0-1.55.2-3.04.6-4.47.4-1.44.99-2.79,1.76-4.06,1.11-1.78,2.4-3.15,3.84-4.09,1.45-.94,2.98-1.42,4.61-1.42.35,0,.74.04,1.16.11.42.07.87.18,1.34.32l2.75-1.16c-.77,3.7-1.39,7.01-1.85,9.95s-.69,4.86-.69,5.78c0,.42.07.73.21.94.14.21.35.32.64.32.21,0,.49-.13.85-.39.35-.26.94-.79,1.77-1.57l.65,1.2ZM231.55,65.99c.24-1.19.48-2.49.72-3.9s.5-3,.78-4.79c-.6-.34-1.09-.57-1.46-.7-.37-.12-.74-.19-1.11-.19-1.69,0-3.18,1.14-4.46,3.42-1.29,2.28-1.93,4.97-1.93,8.08,0,.98.11,1.72.32,2.21.22.49.55.74.99.74s1.19-.4,2.2-1.2c1.01-.8,2.33-2.03,3.95-3.68Z"/>
        <path class="cls-1" d="M253.28,74.19c.03-.62.05-1.13.06-1.55.01-.42.02-.82.02-1.2,0-2.31-.09-4.62-.26-6.94s-.4-4.27-.66-5.84c-.09-.55-.23-.97-.4-1.26-.18-.29-.39-.43-.64-.43-.34,0-1.01.49-2,1.46l-.14.12-.73-1.08c1.11-1.22,1.98-2.06,2.61-2.53.62-.46,1.18-.7,1.68-.7,1.78,0,2.81,4.92,3.09,14.77.01.67.03,1.19.04,1.55,1.85-3.18,3.3-5.89,4.35-8.11,1.05-2.22,1.57-3.68,1.57-4.38,0-.33-.06-.63-.18-.9-.12-.27-.31-.53-.59-.8l1.18-1.26c.3-.33.58-.56.83-.69.25-.13.52-.2.83-.2.41,0,.73.17.98.5.25.33.37.77.37,1.31,0,1.13-1.61,4.42-4.82,9.89l-1.14,1.95-3.34,5.72-2.69.59Z"/>
        <path class="cls-1" d="M284.74,70.1l-1.26,1.22c-.93.93-1.67,1.58-2.23,1.94-.56.36-1.06.54-1.5.54-.67,0-1.2-.29-1.59-.86-.39-.57-.59-1.35-.59-2.35,0-.38.01-.77.04-1.18.03-.41.06-.82.12-1.24-2.46,2.39-4.19,3.92-5.16,4.6-.98.68-1.79,1.02-2.45,1.02-1,0-1.75-.43-2.25-1.3-.5-.87-.76-2.15-.76-3.85,0-1.55.2-3.04.6-4.47.4-1.44.99-2.79,1.76-4.06,1.11-1.78,2.39-3.15,3.84-4.09,1.45-.94,2.99-1.42,4.61-1.42.35,0,.74.04,1.16.11.42.07.87.18,1.34.32l2.75-1.16c-.77,3.7-1.39,7.01-1.85,9.95s-.69,4.86-.69,5.78c0,.42.07.73.21.94.14.21.35.32.64.32.21,0,.49-.13.85-.39s.94-.79,1.77-1.57l.65,1.2ZM277.88,65.99c.24-1.19.47-2.49.72-3.9s.5-3,.78-4.79c-.6-.34-1.09-.57-1.46-.7-.37-.12-.74-.19-1.11-.19-1.69,0-3.18,1.14-4.46,3.42-1.29,2.28-1.93,4.97-1.93,8.08,0,.98.11,1.72.32,2.21.22.49.55.74.99.74s1.19-.4,2.2-1.2c1.01-.8,2.33-2.03,3.95-3.68Z"/>
        <path class="cls-1" d="M287.08,73.94c.83-3.41,1.47-6.42,1.93-9.04s.69-4.58.69-5.91c0-.56-.08-.99-.25-1.27-.16-.28-.4-.42-.72-.42-.24,0-.9.34-1.99,1.02l-.16.1-.69-1.12.29-.22c2.36-1.77,3.89-2.65,4.58-2.65.64,0,1.1.21,1.39.62.28.41.42,1.1.42,2.05,0,.84-.03,1.62-.08,2.35s-.13,1.35-.24,1.88c1.8-2.96,3.07-4.85,3.83-5.67.76-.82,1.47-1.23,2.12-1.23.45,0,.82.16,1.12.49.3.33.45.73.45,1.2,0,.29-.08.64-.23,1.05-.15.41-.47,1.1-.95,2.06-.24-.33-.48-.57-.73-.73-.25-.16-.5-.24-.75-.24-.49,0-1.06.34-1.72,1.01s-1.7,2.03-3.12,4.06c-.45,1.81-.82,3.53-1.12,5.16s-.53,3.18-.69,4.63l-3.42.81Z"/>
        <path class="cls-1" d="M309.03,68.94l.69,1.16c-1.61,1.67-2.73,2.73-3.36,3.19s-1.19.69-1.67.69c-.7,0-1.25-.29-1.67-.88s-.63-1.37-.63-2.35c0-1.23.39-3.29,1.17-6.17.78-2.88,1.17-4.96,1.17-6.23,0-.33-.08-.59-.24-.79s-.36-.29-.61-.29c-.21,0-.49.08-.83.26-.34.17-.77.43-1.28.79l-.59-1.04,2.62-1.91c.5-.37.93-.63,1.3-.8.37-.16.71-.25,1.04-.25.62,0,1.1.25,1.46.76.36.5.54,1.2.54,2.07,0,.96-.34,2.83-1.02,5.62-.16.63-.28,1.1-.35,1.42-.37,1.48-.65,2.71-.84,3.68s-.29,1.64-.29,2.01c0,.33.07.6.22.81.14.21.33.31.55.31.21,0,.48-.13.83-.39.34-.26.94-.81,1.79-1.65ZM308.87,43.6l1.12,1.26c.31.33.53.62.66.88.12.26.19.51.19.78,0,.28-.1.54-.29.79-.19.25-.47.48-.84.71l-1.73.96-1.26-1.49c-.26-.33-.43-.59-.51-.78-.08-.19-.12-.39-.12-.6,0-.3.08-.57.24-.8s.43-.46.81-.68l1.73-1.02Z"/>
        <path class="cls-1" d="M321.36,63.18l-6,3.11v.2c0,1.56.25,2.75.74,3.56s1.2,1.22,2.13,1.22c.55,0,1.24-.25,2.08-.74.83-.49,1.9-1.29,3.2-2.39l.69,1.24c-1.88,1.73-3.37,2.93-4.47,3.6-1.11.67-2.11,1-3.02,1-1.38,0-2.5-.6-3.35-1.79-.86-1.19-1.29-2.76-1.29-4.7,0-1.38.23-2.85.68-4.43s1.04-2.96,1.76-4.14c.9-1.44,1.94-2.56,3.11-3.34,1.17-.79,2.37-1.18,3.62-1.18s2.34.4,3.2,1.21c.86.81,1.29,1.79,1.29,2.94,0,.93-.26,1.7-.78,2.31-.52.61-1.7,1.39-3.56,2.33ZM315.46,64.54l.2-.1c4.65-2.39,6.98-4.23,6.98-5.53,0-.69-.25-1.3-.75-1.81-.5-.51-1.08-.77-1.75-.77-1.03,0-1.96.71-2.78,2.14-.82,1.43-1.46,3.45-1.9,6.06Z"/>
        <path class="cls-1" d="M338.42,68.37l-3.34,3.03c-.98.89-1.77,1.51-2.35,1.85-.58.34-1.13.51-1.64.51-1.18,0-2.08-.5-2.71-1.5s-.94-2.45-.94-4.34c0-3.72.94-6.92,2.82-9.6,1.88-2.67,4.12-4.01,6.71-4.01.52,0,1.06.07,1.6.21s1.11.34,1.7.6l1.12-7.12c.04-.28.07-.55.09-.83.02-.28.03-.57.03-.86,0-.52-.1-.88-.31-1.08-.21-.2-.6-.29-1.16-.29-.17,0-.34,0-.52,0-.18,0-.37.02-.58.03l-.08-1.16c1.09-.11,2.19-.25,3.29-.43,1.11-.18,2.22-.41,3.35-.67-1.22,6.29-2.22,11.97-3.01,17.04s-1.18,8.14-1.18,9.23c0,.67.06,1.14.19,1.41.12.27.33.4.62.4.16,0,.34-.07.56-.2.22-.13.49-.35.82-.65l1.2-1.08.65,1.12-2.26,2.22c-.79.76-1.36,1.25-1.71,1.46-.35.21-.7.31-1.02.31-.69,0-1.2-.33-1.52-.98-.32-.66-.48-1.67-.48-3.05,0-.3,0-.57.02-.82.01-.24.03-.5.06-.76ZM338.38,66.37l1.47-8.91c-.72-.42-1.36-.72-1.93-.91-.56-.19-1.09-.29-1.57-.29-1.61,0-2.97,1.03-4.07,3.1-1.1,2.07-1.65,4.64-1.65,7.72,0,1.25.15,2.19.44,2.83s.73.96,1.31.96c.39,0,1.12-.4,2.19-1.2,1.07-.8,2.34-1.9,3.8-3.3Z"/>
        <path class="cls-1" d="M364.63,70.1l-1.26,1.22c-.93.93-1.67,1.58-2.23,1.94s-1.06.54-1.5.54c-.67,0-1.2-.29-1.59-.86-.39-.57-.59-1.35-.59-2.35,0-.38.01-.77.04-1.18s.07-.82.12-1.24c-2.46,2.39-4.19,3.92-5.16,4.6-.98.68-1.79,1.02-2.45,1.02-1,0-1.75-.43-2.25-1.3s-.76-2.15-.76-3.85c0-1.55.2-3.04.6-4.47.4-1.44.99-2.79,1.76-4.06,1.11-1.78,2.4-3.15,3.84-4.09,1.45-.94,2.99-1.42,4.61-1.42.35,0,.74.04,1.16.11.42.07.87.18,1.34.32l2.75-1.16c-.77,3.7-1.39,7.01-1.85,9.95s-.69,4.86-.69,5.78c0,.42.07.73.21.94.14.21.35.32.64.32.21,0,.49-.13.85-.39.35-.26.94-.79,1.77-1.57l.65,1.2ZM357.77,65.99c.24-1.19.47-2.49.72-3.9.24-1.41.5-3,.78-4.79-.6-.34-1.09-.57-1.46-.7-.37-.12-.74-.19-1.11-.19-1.69,0-3.18,1.14-4.46,3.42-1.29,2.28-1.93,4.97-1.93,8.08,0,.98.11,1.72.33,2.21.22.49.55.74.99.74s1.19-.4,2.2-1.2c1.01-.8,2.33-2.03,3.95-3.68Z"/>
        <path class="cls-1" d="M377.08,68.37l-3.34,3.03c-.98.89-1.77,1.51-2.35,1.85-.58.34-1.13.51-1.64.51-1.18,0-2.08-.5-2.71-1.5s-.94-2.45-.94-4.34c0-3.72.94-6.92,2.82-9.6,1.88-2.67,4.12-4.01,6.71-4.01.53,0,1.06.07,1.6.21.54.14,1.11.34,1.7.6l1.12-7.12c.04-.28.07-.55.09-.83.02-.28.03-.57.03-.86,0-.52-.11-.88-.31-1.08-.21-.2-.6-.29-1.16-.29-.17,0-.34,0-.52,0-.18,0-.37.02-.58.03l-.08-1.16c1.09-.11,2.19-.25,3.29-.43s2.22-.41,3.35-.67c-1.22,6.29-2.22,11.97-3.01,17.04-.79,5.07-1.18,8.14-1.18,9.23,0,.67.06,1.14.19,1.41.12.27.33.4.62.4.16,0,.34-.07.56-.2s.49-.35.82-.65l1.2-1.08.65,1.12-2.26,2.22c-.79.76-1.36,1.25-1.71,1.46-.35.21-.69.31-1.02.31-.7,0-1.2-.33-1.52-.98-.32-.66-.48-1.67-.48-3.05,0-.3,0-.57.02-.82.01-.24.03-.5.06-.76ZM377.04,66.37l1.47-8.91c-.72-.42-1.36-.72-1.93-.91-.56-.19-1.09-.29-1.57-.29-1.61,0-2.97,1.03-4.07,3.1-1.1,2.07-1.65,4.64-1.65,7.72,0,1.25.15,2.19.44,2.83s.73.96,1.31.96c.39,0,1.12-.4,2.19-1.2,1.07-.8,2.34-1.9,3.8-3.3Z"/>
        <path class="cls-1" d="M405.51,68.37l-3.34,3.03c-.98.89-1.77,1.51-2.35,1.85s-1.13.51-1.64.51c-1.18,0-2.08-.5-2.71-1.5-.63-1-.94-2.45-.94-4.34,0-3.72.94-6.92,2.82-9.6,1.88-2.67,4.12-4.01,6.71-4.01.52,0,1.06.07,1.6.21s1.11.34,1.7.6l1.12-7.12c.04-.28.07-.55.09-.83.02-.28.03-.57.03-.86,0-.52-.11-.88-.31-1.08-.21-.2-.6-.29-1.16-.29-.17,0-.34,0-.52,0-.18,0-.37.02-.58.03l-.08-1.16c1.09-.11,2.19-.25,3.29-.43s2.22-.41,3.35-.67c-1.22,6.29-2.22,11.97-3.01,17.04-.79,5.07-1.18,8.14-1.18,9.23,0,.67.06,1.14.19,1.41.12.27.33.4.62.4.16,0,.34-.07.56-.2.22-.13.49-.35.82-.65l1.2-1.08.65,1.12-2.26,2.22c-.79.76-1.36,1.25-1.71,1.46-.35.21-.69.31-1.02.31-.7,0-1.2-.33-1.52-.98s-.48-1.67-.48-3.05c0-.3,0-.57.02-.82.01-.24.03-.5.06-.76ZM405.47,66.37l1.47-8.91c-.72-.42-1.36-.72-1.93-.91-.56-.19-1.09-.29-1.57-.29-1.61,0-2.97,1.03-4.07,3.1-1.1,2.07-1.65,4.64-1.65,7.72,0,1.25.15,2.19.44,2.83s.73.96,1.31.96c.39,0,1.12-.4,2.19-1.2,1.07-.8,2.34-1.9,3.8-3.3Z"/>
        <path class="cls-1" d="M423.36,63.18l-6,3.11v.2c0,1.56.25,2.75.74,3.56.49.81,1.2,1.22,2.13,1.22.55,0,1.24-.25,2.08-.74.83-.49,1.9-1.29,3.2-2.39l.69,1.24c-1.88,1.73-3.37,2.93-4.47,3.6-1.11.67-2.12,1-3.02,1-1.38,0-2.5-.6-3.35-1.79-.86-1.19-1.29-2.76-1.29-4.7,0-1.38.23-2.85.68-4.43.45-1.58,1.04-2.96,1.76-4.14.9-1.44,1.94-2.56,3.11-3.34,1.17-.79,2.37-1.18,3.62-1.18s2.34.4,3.2,1.21c.86.81,1.29,1.79,1.29,2.94,0,.93-.26,1.7-.78,2.31-.52.61-1.7,1.39-3.56,2.33ZM417.45,64.54l.2-.1c4.65-2.39,6.98-4.23,6.98-5.53,0-.69-.25-1.3-.75-1.81-.5-.51-1.08-.77-1.75-.77-1.03,0-1.96.71-2.78,2.14-.82,1.43-1.46,3.45-1.9,6.06Z"/>
        <path class="cls-1" d="M455.85,70.1l-1.26,1.22c-.93.93-1.67,1.58-2.23,1.94-.56.36-1.06.54-1.5.54-.67,0-1.2-.29-1.59-.86-.39-.57-.59-1.35-.59-2.35,0-.38.01-.77.04-1.18.03-.41.07-.82.12-1.24-2.46,2.39-4.19,3.92-5.16,4.6-.98.68-1.79,1.02-2.45,1.02-1,0-1.75-.43-2.25-1.3-.51-.87-.76-2.15-.76-3.85,0-1.55.2-3.04.6-4.47.4-1.44.99-2.79,1.76-4.06,1.12-1.78,2.4-3.15,3.84-4.09,1.45-.94,2.99-1.42,4.61-1.42.35,0,.74.04,1.16.11.42.07.87.18,1.34.32l2.75-1.16c-.77,3.7-1.39,7.01-1.85,9.95s-.69,4.86-.69,5.78c0,.42.07.73.21.94.14.21.35.32.64.32.21,0,.49-.13.85-.39s.94-.79,1.77-1.57l.65,1.2ZM448.99,65.99c.24-1.19.48-2.49.72-3.9.24-1.41.5-3,.78-4.79-.6-.34-1.09-.57-1.46-.7-.37-.12-.74-.19-1.11-.19-1.69,0-3.18,1.14-4.46,3.42-1.29,2.28-1.93,4.97-1.93,8.08,0,.98.11,1.72.33,2.21.22.49.55.74.99.74s1.19-.4,2.2-1.2c1.01-.8,2.33-2.03,3.95-3.68Z"/>
        <path class="cls-1" d="M457.9,73.98c.42-1.94.88-4.35,1.4-7.22.06-.38.11-.66.14-.83l.37-2.03c.21-1.22.37-2.31.49-3.28.12-.97.18-1.62.18-1.97,0-.39-.08-.72-.24-.97-.16-.26-.36-.38-.61-.38-.14,0-.35.07-.63.21-.28.14-.73.42-1.38.83l-.57-1.04c.33-.24.78-.58,1.36-1.02,1.68-1.28,2.81-1.93,3.4-1.93.55,0,.99.23,1.32.7.33.46.49,1.09.49,1.88,0,.62-.08,1.68-.25,3.21-.03.22-.05.39-.06.51.42-.46,1-1.1,1.75-1.93,2.63-2.91,4.42-4.37,5.37-4.37.77,0,1.4.33,1.89.99.48.66.73,1.53.73,2.61,0,.38-.01.8-.04,1.25-.03.45-.08,1-.16,1.64.21-.24.51-.58.9-1.04,3.05-3.63,5.19-5.45,6.39-5.45.79,0,1.43.33,1.92.98.49.66.74,1.51.74,2.58,0,1.52-.32,3.63-.94,6.34s-.94,4.55-.94,5.54c0,.39.07.71.2.95.13.24.29.36.49.36.17,0,.48-.19.93-.56.45-.37.99-.89,1.6-1.56l.67,1.2c-1.61,1.68-2.7,2.73-3.27,3.16-.57.43-1.06.64-1.46.64-.75,0-1.32-.28-1.73-.84-.41-.56-.61-1.34-.61-2.35,0-1.48.33-3.6.98-6.37.66-2.77.98-4.64.98-5.62,0-.47-.09-.84-.26-1.1-.17-.26-.41-.39-.71-.39s-.83.34-1.59,1.03c-.76.69-2.28,2.25-4.56,4.69-.46,2.46-.8,4.46-1.03,6-.23,1.53-.4,2.88-.5,4.03l-3.46.92c.77-4.04,1.38-7.38,1.81-10.03.43-2.65.65-4.34.65-5.07,0-.48-.09-.87-.26-1.15-.18-.28-.4-.42-.66-.42-.37,0-2.08,1.51-5.13,4.52l-.92.91c-.49,2.56-.85,4.61-1.1,6.15-.25,1.55-.43,2.9-.53,4.07l-3.52,1.02Z"/>
        <path class="cls-1" d="M496.05,63.18l-6,3.11v.2c0,1.56.25,2.75.74,3.56s1.2,1.22,2.13,1.22c.55,0,1.24-.25,2.08-.74.83-.49,1.9-1.29,3.2-2.39l.69,1.24c-1.88,1.73-3.37,2.93-4.47,3.6-1.11.67-2.11,1-3.02,1-1.38,0-2.5-.6-3.35-1.79-.86-1.19-1.29-2.76-1.29-4.7,0-1.38.23-2.85.68-4.43s1.04-2.96,1.76-4.14c.9-1.44,1.94-2.56,3.11-3.34,1.17-.79,2.37-1.18,3.62-1.18s2.34.4,3.2,1.21c.86.81,1.29,1.79,1.29,2.94,0,.93-.26,1.7-.78,2.31-.52.61-1.7,1.39-3.56,2.33ZM490.14,64.54l.2-.1c4.65-2.39,6.98-4.23,6.98-5.53,0-.69-.25-1.3-.75-1.81-.5-.51-1.08-.77-1.75-.77-1.03,0-1.96.71-2.78,2.14-.82,1.43-1.46,3.45-1.9,6.06Z"/>
        <path class="cls-1" d="M508.23,60.03l3.19-3.11c1.11-1.06,1.96-1.76,2.53-2.1s1.11-.51,1.62-.51c.87,0,1.57.38,2.11,1.14.54.76.82,1.76.82,3.01s-.32,3.24-.96,5.89c-.64,2.65-.96,4.54-.96,5.67,0,.34.07.6.2.78s.32.27.57.27c.12,0,.27-.05.44-.15.18-.1.35-.23.52-.4l1.49-1.46.69,1.04-2.14,2.18c-.51.52-1.02.94-1.52,1.24-.5.3-.95.45-1.33.45-.66,0-1.19-.29-1.6-.86-.41-.57-.62-1.32-.62-2.25,0-1.11.33-3.08,1-5.89s1-4.86,1-6.14c0-.49-.1-.88-.3-1.17s-.47-.44-.82-.44c-.51,0-2.08,1.21-4.7,3.64-.7.64-1.24,1.15-1.63,1.51l-1.24,6.92c-.03.13-.07.33-.12.59-.28,1.4-.44,2.48-.49,3.22l-3.5.87c.87-3.76,1.55-7.03,2.05-9.81.5-2.78.76-4.6.76-5.47,0-.52-.06-.9-.18-1.13-.12-.23-.31-.34-.57-.34-.16,0-.42.09-.78.28s-.82.45-1.37.81l-.53-1.04c.14-.12.35-.29.63-.51,2.02-1.63,3.37-2.44,4.05-2.44s1.14.25,1.46.74c.31.49.47,1.25.47,2.29,0,.37-.02.78-.06,1.24-.04.46-.1.94-.18,1.46Z"/>
        <path class="cls-1" d="M530.45,68.94l.69,1.16c-1.61,1.67-2.73,2.73-3.36,3.19s-1.19.69-1.67.69c-.69,0-1.25-.29-1.67-.88s-.63-1.37-.63-2.35c0-1.23.39-3.29,1.17-6.17.78-2.88,1.17-4.96,1.17-6.23,0-.33-.08-.59-.24-.79s-.36-.29-.61-.29c-.21,0-.49.08-.83.26-.34.17-.77.43-1.28.79l-.59-1.04,2.62-1.91c.5-.37.93-.63,1.3-.8.37-.16.71-.25,1.04-.25.62,0,1.1.25,1.46.76.36.5.54,1.2.54,2.07,0,.96-.34,2.83-1.02,5.62-.16.63-.28,1.1-.35,1.42-.37,1.48-.65,2.71-.84,3.68s-.29,1.64-.29,2.01c0,.33.07.6.22.81.14.21.33.31.55.31.21,0,.49-.13.83-.39.34-.26.94-.81,1.79-1.65ZM530.3,43.6l1.12,1.26c.31.33.53.62.66.88.12.26.19.51.19.78,0,.28-.09.54-.29.79s-.47.48-.84.71l-1.73.96-1.26-1.49c-.26-.33-.43-.59-.51-.78-.08-.19-.12-.39-.12-.6,0-.3.08-.57.24-.8s.43-.46.81-.68l1.73-1.02Z"/>
        <path class="cls-1" d="M544.55,68.37l-3.34,3.03c-.98.89-1.77,1.51-2.35,1.85-.58.34-1.13.51-1.64.51-1.18,0-2.08-.5-2.71-1.5s-.94-2.45-.94-4.34c0-3.72.94-6.92,2.82-9.6,1.88-2.67,4.12-4.01,6.71-4.01.52,0,1.06.07,1.6.21s1.11.34,1.7.6l1.12-7.12c.04-.28.07-.55.09-.83.02-.28.03-.57.03-.86,0-.52-.1-.88-.31-1.08-.21-.2-.6-.29-1.16-.29-.17,0-.34,0-.52,0-.18,0-.37.02-.58.03l-.08-1.16c1.09-.11,2.19-.25,3.29-.43,1.11-.18,2.22-.41,3.35-.67-1.22,6.29-2.22,11.97-3.01,17.04s-1.18,8.14-1.18,9.23c0,.67.06,1.14.19,1.41.12.27.33.4.62.4.16,0,.34-.07.56-.2.22-.13.49-.35.82-.65l1.2-1.08.65,1.12-2.26,2.22c-.79.76-1.36,1.25-1.71,1.46-.35.21-.7.31-1.02.31-.69,0-1.2-.33-1.52-.98-.32-.66-.48-1.67-.48-3.05,0-.3,0-.57.02-.82.01-.24.03-.5.06-.76ZM544.51,66.37l1.47-8.91c-.72-.42-1.36-.72-1.93-.91-.56-.19-1.09-.29-1.57-.29-1.61,0-2.97,1.03-4.07,3.1-1.1,2.07-1.65,4.64-1.65,7.72,0,1.25.15,2.19.44,2.83s.73.96,1.31.96c.39,0,1.12-.4,2.19-1.2,1.07-.8,2.34-1.9,3.8-3.3Z"/>
        <path class="cls-1" d="M570.76,70.1l-1.26,1.22c-.93.93-1.67,1.58-2.23,1.94s-1.06.54-1.5.54c-.67,0-1.2-.29-1.59-.86-.39-.57-.59-1.35-.59-2.35,0-.38.01-.77.04-1.18s.07-.82.12-1.24c-2.46,2.39-4.19,3.92-5.16,4.6-.98.68-1.79,1.02-2.45,1.02-1,0-1.75-.43-2.25-1.3s-.76-2.15-.76-3.85c0-1.55.2-3.04.6-4.47.4-1.44.99-2.79,1.76-4.06,1.11-1.78,2.4-3.15,3.84-4.09,1.45-.94,2.99-1.42,4.61-1.42.35,0,.74.04,1.16.11.42.07.87.18,1.34.32l2.75-1.16c-.77,3.7-1.39,7.01-1.85,9.95s-.69,4.86-.69,5.78c0,.42.07.73.21.94.14.21.35.32.64.32.21,0,.49-.13.85-.39.35-.26.94-.79,1.77-1.57l.65,1.2ZM563.9,65.99c.24-1.19.47-2.49.72-3.9.24-1.41.5-3,.78-4.79-.6-.34-1.09-.57-1.46-.7-.37-.12-.74-.19-1.11-.19-1.69,0-3.18,1.14-4.46,3.42-1.29,2.28-1.93,4.97-1.93,8.08,0,.98.11,1.72.33,2.21.22.49.55.74.99.74s1.19-.4,2.2-1.2c1.01-.8,2.33-2.03,3.95-3.68Z"/>
        <path class="cls-1" d="M583.21,68.37l-3.34,3.03c-.98.89-1.77,1.51-2.35,1.85-.58.34-1.13.51-1.64.51-1.18,0-2.08-.5-2.71-1.5s-.94-2.45-.94-4.34c0-3.72.94-6.92,2.82-9.6,1.88-2.67,4.12-4.01,6.71-4.01.53,0,1.06.07,1.6.21.54.14,1.11.34,1.7.6l1.12-7.12c.04-.28.07-.55.09-.83.02-.28.03-.57.03-.86,0-.52-.11-.88-.31-1.08-.21-.2-.6-.29-1.16-.29-.17,0-.34,0-.52,0-.18,0-.37.02-.58.03l-.08-1.16c1.09-.11,2.19-.25,3.29-.43s2.22-.41,3.35-.67c-1.22,6.29-2.22,11.97-3.01,17.04-.79,5.07-1.18,8.14-1.18,9.23,0,.67.06,1.14.19,1.41.12.27.33.4.62.4.16,0,.34-.07.56-.2s.49-.35.82-.65l1.2-1.08.65,1.12-2.26,2.22c-.79.76-1.36,1.25-1.71,1.46-.35.21-.69.31-1.02.31-.7,0-1.2-.33-1.52-.98-.32-.66-.48-1.67-.48-3.05,0-.3,0-.57.02-.82.01-.24.03-.5.06-.76ZM583.17,66.37l1.47-8.91c-.72-.42-1.36-.72-1.93-.91-.56-.19-1.09-.29-1.57-.29-1.61,0-2.97,1.03-4.07,3.1-1.1,2.07-1.65,4.64-1.65,7.72,0,1.25.15,2.19.44,2.83s.73.96,1.31.96c.39,0,1.12-.4,2.19-1.2,1.07-.8,2.34-1.9,3.8-3.3Z"/>
        <path class="cls-1" d="M601.05,63.18l-6.01,3.11v.2c0,1.56.25,2.75.74,3.56.49.81,1.2,1.22,2.13,1.22.55,0,1.24-.25,2.07-.74.83-.49,1.9-1.29,3.2-2.39l.69,1.24c-1.88,1.73-3.37,2.93-4.47,3.6s-2.11,1-3.02,1c-1.38,0-2.5-.6-3.36-1.79-.86-1.19-1.29-2.76-1.29-4.7,0-1.38.23-2.85.68-4.43.45-1.58,1.04-2.96,1.76-4.14.9-1.44,1.94-2.56,3.11-3.34,1.17-.79,2.37-1.18,3.62-1.18s2.34.4,3.2,1.21c.86.81,1.29,1.79,1.29,2.94,0,.93-.26,1.7-.78,2.31-.52.61-1.71,1.39-3.56,2.33ZM595.15,64.54l.2-.1c4.65-2.39,6.98-4.23,6.98-5.53,0-.69-.25-1.3-.75-1.81-.5-.51-1.08-.77-1.75-.77-1.03,0-1.96.71-2.78,2.14-.82,1.43-1.46,3.45-1.9,6.06Z"/>
        <path class="cls-1" d="M618.68,57.66l-1.1,1.04-.14-.12c-1.49-1.36-2.63-2.04-3.4-2.04-.73,0-1.34.22-1.82.66-.48.44-.72,1-.72,1.68,0,1.05.91,2.33,2.73,3.85.22.18.39.32.49.41,1.35,1.15,2.24,2.06,2.66,2.71s.64,1.36.64,2.12c0,1.46-.72,2.81-2.15,4.07-1.44,1.26-3.07,1.89-4.91,1.89-1.3,0-2.37-.22-3.22-.67-.85-.45-1.28-.99-1.28-1.63,0-.25.04-.46.12-.65.08-.18.26-.41.53-.69l1.04-.96c.87.96,1.59,1.63,2.16,2.01s1.14.57,1.69.57c.83,0,1.53-.28,2.11-.84.58-.56.88-1.22.88-1.98,0-.87-.9-2.1-2.69-3.7-.47-.42-.83-.75-1.08-.98-1.05-.94-1.77-1.73-2.16-2.36-.39-.63-.59-1.26-.59-1.91,0-1.4.71-2.71,2.13-3.93,1.42-1.22,2.98-1.83,4.67-1.83,1.13,0,2.07.21,2.82.63.75.42,1.13.91,1.13,1.47,0,.22-.05.43-.14.62-.09.19-.23.37-.41.54Z"/>
        <path class="cls-1" d="M648.65,70.1l-2.71,2.54c-.49.47-.92.81-1.31,1-.39.2-.78.29-1.19.29-.59,0-1.06-.29-1.43-.86-.36-.57-.54-1.33-.54-2.29,0-.28.02-.61.07-.99.04-.39.14-.99.29-1.82-2.43,2.48-4.14,4.09-5.15,4.84s-1.87,1.12-2.58,1.12c-.75,0-1.37-.35-1.87-1.04-.5-.69-.75-1.59-.75-2.67,0-.92.39-2.98,1.18-6.19.2-.76.34-1.34.43-1.73.28-1.09.48-1.96.61-2.62.13-.66.2-1.16.2-1.49,0-.26-.07-.47-.2-.64-.13-.16-.29-.25-.49-.25-.13,0-.39.09-.77.28s-.91.47-1.57.85l-.55-1.08c1.22-.91,2.29-1.61,3.21-2.11s1.57-.76,1.95-.76c.54,0,.96.23,1.27.69.31.46.46,1.09.46,1.91,0,1.02-.4,3-1.21,5.94-.81,2.94-1.21,5.14-1.21,6.61,0,.46.08.8.24,1.01.16.22.4.32.73.32.37,0,.99-.36,1.88-1.09s2.37-2.12,4.45-4.18c.5-2.36.9-4.36,1.21-5.99.31-1.63.55-3.09.72-4.38l3.54-.85-.43,1.95c-.75,3.19-1.15,4.96-1.22,5.33l-.47,2.52c-.24,1.19-.42,2.33-.56,3.42s-.21,1.85-.21,2.3c0,.3.06.54.18.71.12.17.28.26.47.26.18,0,.52-.18,1.02-.53.5-.35,1.07-.83,1.71-1.43l.61,1.12ZM643.69,43.73l3.01,1.55-6.88,6.94-1.28-.69,5.15-7.81Z"/>
        <path class="cls-1" d="M656.61,60.03l3.19-3.11c1.12-1.06,1.96-1.76,2.53-2.1s1.11-.51,1.62-.51c.87,0,1.57.38,2.11,1.14.54.76.82,1.76.82,3.01s-.32,3.24-.96,5.89c-.64,2.65-.96,4.54-.96,5.67,0,.34.07.6.2.78.13.18.32.27.57.27.12,0,.26-.05.44-.15.18-.1.35-.23.52-.4l1.49-1.46.69,1.04-2.14,2.18c-.51.52-1.02.94-1.52,1.24-.5.3-.95.45-1.33.45-.66,0-1.19-.29-1.6-.86-.41-.57-.62-1.32-.62-2.25,0-1.11.33-3.08,1-5.89.67-2.81,1-4.86,1-6.14,0-.49-.1-.88-.3-1.17-.2-.29-.48-.44-.82-.44-.51,0-2.08,1.21-4.7,3.64-.69.64-1.24,1.15-1.63,1.51l-1.24,6.92c-.03.13-.07.33-.12.59-.28,1.4-.44,2.48-.49,3.22l-3.5.87c.87-3.76,1.55-7.03,2.05-9.81.5-2.78.76-4.6.76-5.47,0-.52-.06-.9-.18-1.13s-.31-.34-.57-.34c-.16,0-.42.09-.78.28-.36.18-.82.45-1.37.81l-.53-1.04c.14-.12.35-.29.63-.51,2.02-1.63,3.37-2.44,4.05-2.44s1.14.25,1.46.74c.31.49.47,1.25.47,2.29,0,.37-.02.78-.06,1.24s-.1.94-.18,1.46Z"/>
        <path class="cls-1" d="M678.83,68.94l.69,1.16c-1.61,1.67-2.73,2.73-3.36,3.19s-1.19.69-1.67.69c-.7,0-1.25-.29-1.67-.88s-.63-1.37-.63-2.35c0-1.23.39-3.29,1.17-6.17.78-2.88,1.17-4.96,1.17-6.23,0-.33-.08-.59-.24-.79s-.36-.29-.61-.29c-.21,0-.49.08-.83.26-.34.17-.77.43-1.28.79l-.59-1.04,2.62-1.91c.5-.37.93-.63,1.3-.8.37-.16.71-.25,1.04-.25.62,0,1.1.25,1.46.76.36.5.54,1.2.54,2.07,0,.96-.34,2.83-1.02,5.62-.16.63-.28,1.1-.35,1.42-.37,1.48-.65,2.71-.84,3.68s-.29,1.64-.29,2.01c0,.33.07.6.22.81.14.21.33.31.55.31.21,0,.48-.13.83-.39.34-.26.94-.81,1.79-1.65ZM678.67,43.6l1.12,1.26c.31.33.53.62.66.88.12.26.19.51.19.78,0,.28-.1.54-.29.79-.19.25-.47.48-.84.71l-1.73.96-1.26-1.49c-.26-.33-.43-.59-.51-.78-.08-.19-.12-.39-.12-.6,0-.3.08-.57.24-.8s.43-.46.81-.68l1.73-1.02Z"/>
        <path class="cls-1" d="M694.33,57.77l-1.04,1.02c-.87-.88-1.56-1.46-2.07-1.75-.52-.29-1.04-.43-1.58-.43-1.21,0-2.26.89-3.15,2.68-.89,1.79-1.34,4-1.34,6.62,0,1.76.23,3.08.69,3.97.46.89,1.13,1.34,2.03,1.34.5,0,1.18-.29,2.04-.86s1.78-1.35,2.73-2.35l.81,1.4c-1.52,1.61-2.82,2.78-3.89,3.49-1.08.71-2.06,1.07-2.95,1.07-1.42,0-2.55-.62-3.39-1.85-.85-1.23-1.27-2.9-1.27-4.99,0-3.59.92-6.62,2.76-9.08,1.84-2.46,4.11-3.7,6.81-3.7.98,0,1.83.21,2.53.63.7.42,1.05.9,1.05,1.44,0,.21-.06.42-.17.63-.11.21-.31.45-.6.73Z"/>
        <path class="cls-1" d="M714.07,70.1l-1.26,1.22c-.93.93-1.67,1.58-2.23,1.94-.56.36-1.06.54-1.5.54-.67,0-1.2-.29-1.59-.86-.39-.57-.59-1.35-.59-2.35,0-.38.01-.77.04-1.18.03-.41.07-.82.12-1.24-2.46,2.39-4.19,3.92-5.16,4.6-.98.68-1.79,1.02-2.45,1.02-1,0-1.75-.43-2.25-1.3-.51-.87-.76-2.15-.76-3.85,0-1.55.2-3.04.6-4.47.4-1.44.99-2.79,1.76-4.06,1.12-1.78,2.4-3.15,3.84-4.09,1.45-.94,2.99-1.42,4.61-1.42.35,0,.74.04,1.16.11.42.07.87.18,1.34.32l2.75-1.16c-.77,3.7-1.39,7.01-1.85,9.95s-.69,4.86-.69,5.78c0,.42.07.73.21.94.14.21.35.32.64.32.21,0,.49-.13.85-.39s.94-.79,1.77-1.57l.65,1.2ZM707.21,65.99c.24-1.19.48-2.49.72-3.9.24-1.41.5-3,.78-4.79-.6-.34-1.09-.57-1.46-.7-.37-.12-.74-.19-1.11-.19-1.69,0-3.18,1.14-4.46,3.42-1.29,2.28-1.93,4.97-1.93,8.08,0,.98.11,1.72.33,2.21.22.49.55.74.99.74s1.19-.4,2.2-1.2c1.01-.8,2.33-2.03,3.95-3.68Z"/>
        <path class="cls-1" d="M727.08,57.66l-1.1,1.04-.14-.12c-1.49-1.36-2.63-2.04-3.4-2.04-.73,0-1.34.22-1.82.66-.48.44-.72,1-.72,1.68,0,1.05.91,2.33,2.73,3.85.22.18.39.32.49.41,1.35,1.15,2.24,2.06,2.66,2.71s.64,1.36.64,2.12c0,1.46-.72,2.81-2.15,4.07-1.44,1.26-3.07,1.89-4.91,1.89-1.3,0-2.37-.22-3.22-.67-.85-.45-1.28-.99-1.28-1.63,0-.25.04-.46.12-.65.08-.18.26-.41.53-.69l1.04-.96c.87.96,1.59,1.63,2.16,2.01.58.38,1.14.57,1.69.57.83,0,1.53-.28,2.11-.84.58-.56.88-1.22.88-1.98,0-.87-.9-2.1-2.69-3.7-.47-.42-.83-.75-1.08-.98-1.05-.94-1.77-1.73-2.16-2.36s-.59-1.26-.59-1.91c0-1.4.71-2.71,2.13-3.93,1.42-1.22,2.98-1.83,4.67-1.83,1.13,0,2.07.21,2.82.63.75.42,1.13.91,1.13,1.47,0,.22-.05.43-.14.62-.09.19-.23.37-.41.54Z"/>
        <path class="cls-1" d="M173.39,105.89l-6,3.11v.2c0,1.56.25,2.75.74,3.56.49.81,1.2,1.22,2.13,1.22.55,0,1.24-.25,2.08-.74.83-.49,1.9-1.29,3.2-2.39l.69,1.24c-1.88,1.73-3.37,2.93-4.47,3.6-1.11.67-2.12,1-3.02,1-1.38,0-2.5-.6-3.35-1.79-.86-1.19-1.29-2.76-1.29-4.7,0-1.38.23-2.85.68-4.43.45-1.58,1.04-2.96,1.76-4.14.9-1.44,1.94-2.56,3.11-3.34,1.17-.79,2.37-1.18,3.62-1.18s2.34.4,3.2,1.21c.86.81,1.29,1.79,1.29,2.94,0,.93-.26,1.7-.78,2.31-.52.61-1.7,1.39-3.56,2.33ZM167.48,107.25l.2-.1c4.65-2.39,6.98-4.23,6.98-5.53,0-.69-.25-1.3-.75-1.81-.5-.51-1.08-.77-1.75-.77-1.03,0-1.96.71-2.78,2.14-.82,1.43-1.46,3.45-1.9,6.06Z"/>
        <path class="cls-1" d="M185.57,102.75l3.19-3.11c1.11-1.06,1.96-1.76,2.53-2.1s1.11-.51,1.62-.51c.87,0,1.57.38,2.11,1.14.54.76.82,1.76.82,3.01s-.32,3.24-.96,5.89-.96,4.54-.96,5.67c0,.34.06.6.2.78.13.18.32.27.57.27.12,0,.26-.05.44-.15.18-.1.35-.23.52-.4l1.49-1.46.69,1.04-2.14,2.18c-.51.52-1.02.94-1.52,1.24-.5.3-.95.45-1.33.45-.66,0-1.19-.29-1.6-.86s-.62-1.32-.62-2.25c0-1.11.33-3.08,1-5.89.67-2.81,1-4.86,1-6.14,0-.49-.1-.88-.3-1.17s-.47-.44-.82-.44c-.51,0-2.08,1.21-4.7,3.64-.69.64-1.24,1.15-1.63,1.51l-1.24,6.92c-.03.13-.07.33-.12.59-.28,1.4-.44,2.48-.49,3.22l-3.5.87c.87-3.76,1.55-7.03,2.05-9.81.51-2.78.76-4.6.76-5.47,0-.52-.06-.9-.18-1.13-.12-.23-.31-.34-.57-.34-.16,0-.42.09-.78.28-.36.18-.82.45-1.37.81l-.53-1.04c.14-.12.35-.29.63-.51,2.02-1.63,3.37-2.44,4.05-2.44s1.14.25,1.46.74c.31.49.47,1.25.47,2.29,0,.37-.02.78-.06,1.24-.04.46-.1.94-.18,1.46Z"/>
        <path class="cls-1" d="M200.71,116.65c.83-3.41,1.47-6.42,1.93-9.04.46-2.62.69-4.58.69-5.91,0-.56-.08-.99-.25-1.27-.16-.28-.4-.42-.72-.42-.24,0-.9.34-1.99,1.02l-.16.1-.69-1.12.29-.22c2.36-1.77,3.89-2.65,4.58-2.65.64,0,1.1.21,1.39.62s.42,1.1.42,2.05c0,.84-.03,1.62-.08,2.35-.05.73-.13,1.35-.24,1.88,1.8-2.96,3.07-4.85,3.83-5.67s1.47-1.23,2.12-1.23c.45,0,.82.16,1.12.49.3.33.45.73.45,1.2,0,.29-.08.64-.23,1.05-.15.41-.47,1.1-.95,2.06-.24-.33-.48-.57-.73-.73-.25-.16-.5-.24-.75-.24-.49,0-1.06.34-1.72,1.01s-1.7,2.03-3.12,4.06c-.45,1.81-.82,3.53-1.12,5.16-.3,1.63-.53,3.18-.69,4.63l-3.42.81Z"/>
        <path class="cls-1" d="M222.66,111.65l.69,1.16c-1.61,1.67-2.73,2.73-3.36,3.19-.63.46-1.19.69-1.67.69-.69,0-1.25-.29-1.67-.88-.42-.58-.63-1.37-.63-2.35,0-1.23.39-3.29,1.17-6.17.78-2.88,1.17-4.96,1.17-6.23,0-.33-.08-.59-.24-.79-.16-.2-.36-.29-.61-.29-.21,0-.49.08-.83.26-.34.17-.77.43-1.28.79l-.59-1.04,2.62-1.91c.5-.37.93-.63,1.3-.8.37-.16.71-.25,1.04-.25.62,0,1.1.25,1.46.76s.54,1.2.54,2.07c0,.96-.34,2.83-1.02,5.62-.16.63-.28,1.1-.35,1.42-.37,1.48-.65,2.71-.84,3.68-.19.97-.29,1.64-.29,2.01,0,.33.07.6.22.81.14.21.33.31.55.31.21,0,.49-.13.83-.39.34-.26.94-.81,1.79-1.65ZM222.5,86.31l1.12,1.26c.31.33.53.62.66.88s.19.51.19.78c0,.28-.1.54-.29.79-.19.25-.47.48-.84.71l-1.73.96-1.26-1.49c-.26-.33-.43-.59-.51-.78-.08-.19-.12-.39-.12-.6,0-.3.08-.57.24-.8.16-.23.43-.46.81-.68l1.73-1.02Z"/>
        <path class="cls-1" d="M236.15,111.2c-1.72,1.85-3.14,3.19-4.27,4.02s-2.06,1.25-2.81,1.25c-1.05,0-1.87-.53-2.46-1.58-.59-1.06-.88-2.51-.88-4.38,0-3.6,1-6.75,3.01-9.43,2.01-2.68,4.33-4.02,6.96-4.02.52,0,1.06.07,1.59.22.54.14,1.12.37,1.75.67l2.71-1.57c-.41,1.76-.92,4.58-1.55,8.48l-.1.63-1.38,8.49c-.54,3.3-.9,5.59-1.09,6.86-.19,1.27-.29,2.07-.29,2.4,0,.62.14,1.04.43,1.29.29.24.79.36,1.51.36h.39l-.33,1.34c-.84-.04-1.59-.07-2.25-.09s-1.21-.03-1.64-.03c-.66,0-1.39.02-2.2.06-.81.04-1.72.1-2.71.18l.29-1.4h.24c1.85,0,2.96-1.1,3.34-3.3.01-.11.03-.19.04-.26l1.69-10.19ZM236.42,108.94l1.46-8.93c-.64-.34-1.22-.59-1.74-.76-.52-.16-1-.25-1.45-.25-.94,0-1.75.28-2.43.85-.67.56-1.26,1.45-1.76,2.65-.45,1.08-.8,2.3-1.07,3.68-.27,1.38-.4,2.66-.4,3.85s.13,2.03.4,2.67c.27.64.64.95,1.11.95.43,0,1.11-.37,2.03-1.1.92-.73,2.2-1.94,3.85-3.62Z"/>
        <path class="cls-1" d="M262.61,112.81l-2.71,2.54c-.49.47-.92.81-1.31,1-.39.2-.78.29-1.19.29-.59,0-1.07-.29-1.43-.86-.36-.57-.54-1.33-.54-2.29,0-.28.02-.61.07-.99s.14-.99.29-1.82c-2.43,2.48-4.14,4.09-5.15,4.84-1.01.75-1.87,1.12-2.58,1.12-.75,0-1.37-.35-1.87-1.04-.5-.69-.75-1.59-.75-2.67,0-.92.39-2.98,1.18-6.19.2-.76.34-1.34.43-1.73.28-1.09.48-1.96.61-2.62.13-.66.2-1.16.2-1.49,0-.26-.07-.47-.2-.64-.13-.16-.29-.25-.49-.25-.13,0-.39.09-.77.28-.38.18-.9.47-1.57.85l-.55-1.08c1.22-.91,2.29-1.61,3.21-2.11.92-.5,1.57-.76,1.95-.76.54,0,.96.23,1.27.69.31.46.46,1.09.46,1.91,0,1.02-.4,3-1.21,5.94-.81,2.94-1.21,5.14-1.21,6.61,0,.46.08.8.24,1.01.16.22.4.32.73.32.37,0,.99-.36,1.88-1.09s2.37-2.12,4.45-4.18c.5-2.36.9-4.36,1.21-5.99s.55-3.09.72-4.38l3.54-.85-.43,1.95c-.75,3.19-1.15,4.96-1.22,5.33l-.47,2.52c-.24,1.19-.42,2.33-.56,3.42-.14,1.09-.21,1.85-.21,2.3,0,.3.06.54.18.71.12.17.28.26.47.26.18,0,.53-.18,1.02-.53.5-.35,1.07-.83,1.71-1.43l.61,1.12Z"/>
        <path class="cls-1" d="M273.69,105.89l-6.01,3.11v.2c0,1.56.25,2.75.74,3.56.49.81,1.2,1.22,2.13,1.22.55,0,1.24-.25,2.07-.74.83-.49,1.9-1.29,3.2-2.39l.69,1.24c-1.88,1.73-3.37,2.93-4.47,3.6s-2.11,1-3.02,1c-1.38,0-2.5-.6-3.36-1.79-.86-1.19-1.29-2.76-1.29-4.7,0-1.38.23-2.85.68-4.43.45-1.58,1.04-2.96,1.76-4.14.9-1.44,1.94-2.56,3.11-3.34,1.17-.79,2.37-1.18,3.62-1.18s2.34.4,3.2,1.21c.86.81,1.29,1.79,1.29,2.94,0,.93-.26,1.7-.78,2.31-.52.61-1.71,1.39-3.56,2.33ZM267.78,107.25l.2-.1c4.65-2.39,6.98-4.23,6.98-5.53,0-.69-.25-1.3-.75-1.81-.5-.51-1.08-.77-1.75-.77-1.03,0-1.96.71-2.78,2.14-.82,1.43-1.46,3.45-1.9,6.06Z"/>
        <path class="cls-1" d="M292.15,100.48l-1.04,1.02c-.87-.88-1.56-1.46-2.07-1.75-.52-.29-1.05-.43-1.58-.43-1.21,0-2.25.89-3.15,2.68-.89,1.79-1.34,4-1.34,6.62,0,1.76.23,3.08.69,3.97s1.13,1.34,2.03,1.34c.5,0,1.18-.29,2.04-.86s1.78-1.35,2.73-2.35l.81,1.4c-1.52,1.61-2.82,2.78-3.89,3.49-1.08.71-2.06,1.07-2.95,1.07-1.42,0-2.55-.62-3.39-1.85-.85-1.23-1.27-2.9-1.27-4.99,0-3.59.92-6.62,2.76-9.08,1.84-2.46,4.11-3.7,6.81-3.7.98,0,1.83.21,2.53.63.7.42,1.05.9,1.05,1.44,0,.21-.06.42-.17.63-.11.21-.31.45-.6.73Z"/>
        <path class="cls-1" d="M303.52,105.89l-6,3.11v.2c0,1.56.25,2.75.74,3.56.49.81,1.2,1.22,2.13,1.22.55,0,1.24-.25,2.08-.74.83-.49,1.9-1.29,3.2-2.39l.69,1.24c-1.88,1.73-3.37,2.93-4.47,3.6-1.11.67-2.12,1-3.02,1-1.38,0-2.5-.6-3.35-1.79-.86-1.19-1.29-2.76-1.29-4.7,0-1.38.23-2.85.68-4.43.45-1.58,1.04-2.96,1.76-4.14.9-1.44,1.94-2.56,3.11-3.34,1.17-.79,2.37-1.18,3.62-1.18s2.34.4,3.2,1.21c.86.81,1.29,1.79,1.29,2.94,0,.93-.26,1.7-.78,2.31-.52.61-1.7,1.39-3.56,2.33ZM297.61,107.25l.2-.1c4.65-2.39,6.98-4.23,6.98-5.53,0-.69-.25-1.3-.75-1.81-.5-.51-1.08-.77-1.75-.77-1.03,0-1.96.71-2.78,2.14-.82,1.43-1.46,3.45-1.9,6.06Z"/>
        <path class="cls-1" d="M315.7,102.75l3.19-3.11c1.11-1.06,1.96-1.76,2.53-2.1s1.11-.51,1.62-.51c.87,0,1.57.38,2.11,1.14.54.76.82,1.76.82,3.01s-.32,3.24-.96,5.89-.96,4.54-.96,5.67c0,.34.06.6.2.78.13.18.32.27.57.27.12,0,.26-.05.44-.15.18-.1.35-.23.52-.4l1.49-1.46.69,1.04-2.14,2.18c-.51.52-1.02.94-1.52,1.24-.5.3-.95.45-1.33.45-.66,0-1.19-.29-1.6-.86s-.62-1.32-.62-2.25c0-1.11.33-3.08,1-5.89.67-2.81,1-4.86,1-6.14,0-.49-.1-.88-.3-1.17s-.47-.44-.82-.44c-.51,0-2.08,1.21-4.7,3.64-.69.64-1.24,1.15-1.63,1.51l-1.24,6.92c-.03.13-.07.33-.12.59-.28,1.4-.44,2.48-.49,3.22l-3.5.87c.87-3.76,1.55-7.03,2.05-9.81.51-2.78.76-4.6.76-5.47,0-.52-.06-.9-.18-1.13-.12-.23-.31-.34-.57-.34-.16,0-.42.09-.78.28-.36.18-.82.45-1.37.81l-.53-1.04c.14-.12.35-.29.63-.51,2.02-1.63,3.37-2.44,4.05-2.44s1.14.25,1.46.74c.31.49.47,1.25.47,2.29,0,.37-.02.78-.06,1.24-.04.46-.1.94-.18,1.46Z"/>
        <path class="cls-1" d="M347.2,112.89l-1.83,1.73c-.83.79-1.47,1.33-1.95,1.62-.47.29-.89.44-1.26.44-.76,0-1.34-.28-1.74-.85-.4-.56-.6-1.38-.6-2.46,0-.88.29-2.82.88-5.84.33-1.66.58-2.98.77-3.95l.81-4.42c.51-2.87.91-5.2,1.19-6.98.28-1.78.42-2.86.42-3.25,0-.42-.1-.73-.29-.92-.2-.2-.5-.29-.92-.29-.08,0-.24,0-.47.02s-.43.02-.57.02l-.12-1.08c.85-.12,1.79-.28,2.81-.48,1.02-.2,2.22-.46,3.6-.78-1.43,7.14-2.6,13.29-3.51,18.42-.91,5.14-1.37,8.05-1.37,8.73,0,.37.07.66.21.88.14.22.32.32.56.32.14,0,.33-.07.57-.22.24-.14.52-.37.87-.67l1.34-1.08.61,1.08Z"/>
        <path class="cls-1" d="M367.22,112.81l-1.26,1.22c-.93.93-1.68,1.58-2.23,1.94s-1.06.54-1.5.54c-.67,0-1.2-.29-1.59-.86s-.59-1.35-.59-2.35c0-.38.01-.77.04-1.18s.07-.82.12-1.24c-2.46,2.39-4.19,3.92-5.16,4.6-.98.68-1.79,1.02-2.45,1.02-1,0-1.75-.43-2.25-1.3-.5-.87-.76-2.15-.76-3.85,0-1.55.2-3.04.6-4.47.4-1.44.99-2.79,1.76-4.06,1.11-1.78,2.4-3.15,3.84-4.09,1.45-.94,2.98-1.42,4.61-1.42.35,0,.74.04,1.16.11.42.07.87.18,1.34.32l2.75-1.16c-.77,3.7-1.39,7.01-1.85,9.95s-.69,4.86-.69,5.78c0,.42.07.73.21.94.14.21.35.32.64.32.21,0,.49-.13.85-.39.35-.26.94-.79,1.77-1.57l.65,1.2ZM360.36,108.7c.24-1.19.48-2.49.72-3.9s.5-3,.78-4.79c-.6-.34-1.09-.57-1.46-.7-.37-.12-.74-.19-1.11-.19-1.69,0-3.18,1.14-4.46,3.42-1.29,2.28-1.93,4.97-1.93,8.08,0,.98.11,1.72.32,2.21.22.49.55.74.99.74s1.19-.4,2.2-1.2c1.01-.8,2.33-2.03,3.95-3.68Z"/>
        <path class="cls-1" d="M386.73,105.89l-6,3.11v.2c0,1.56.25,2.75.74,3.56s1.2,1.22,2.13,1.22c.55,0,1.24-.25,2.08-.74.83-.49,1.9-1.29,3.2-2.39l.69,1.24c-1.88,1.73-3.37,2.93-4.47,3.6-1.11.67-2.11,1-3.02,1-1.38,0-2.5-.6-3.35-1.79-.86-1.19-1.29-2.76-1.29-4.7,0-1.38.23-2.85.68-4.43s1.04-2.96,1.76-4.14c.9-1.44,1.94-2.56,3.11-3.34,1.17-.79,2.37-1.18,3.62-1.18s2.34.4,3.2,1.21c.86.81,1.29,1.79,1.29,2.94,0,.93-.26,1.7-.78,2.31-.52.61-1.7,1.39-3.56,2.33ZM380.83,107.25l.2-.1c4.65-2.39,6.98-4.23,6.98-5.53,0-.69-.25-1.3-.75-1.81-.5-.51-1.08-.77-1.75-.77-1.03,0-1.96.71-2.78,2.14-.82,1.43-1.46,3.45-1.9,6.06Z"/>
        <path class="cls-1" d="M410.91,100.05l-.85.73c-.29-.35-.58-.63-.87-.82-.29-.19-.55-.29-.79-.29-.62,0-1.93,1.46-3.95,4.37-.42.62-.75,1.09-1,1.44.26.72.6,1.69,1,2.91,1.27,3.7,2.2,5.54,2.79,5.54.35,0,1.02-.48,2.01-1.46.26-.25.46-.45.61-.59l.69,1.12c-1.25,1.49-2.19,2.49-2.84,3-.65.5-1.26.76-1.84.76-1.18,0-2.41-1.82-3.68-5.47-.39-1.13-.71-2.02-.94-2.67-.26.38-.62.92-1.08,1.61-2.88,4.35-4.97,6.53-6.25,6.53-.67,0-1.23-.19-1.69-.56-.46-.37-.69-.8-.69-1.29,0-.26.06-.51.18-.74.12-.23.3-.46.55-.68l.92-.81c.47.53.82.86,1.05,1.01.23.15.46.23.68.23.55,0,1.86-1.48,3.91-4.44.76-1.1,1.36-1.97,1.81-2.59-.24-.64-.55-1.51-.94-2.6-1.11-3.11-1.94-4.66-2.48-4.66-.29,0-.99.41-2.1,1.24-.14.11-.26.19-.35.26l-.65-1.12c.26-.22.62-.53,1.08-.92,1.65-1.46,2.85-2.18,3.6-2.18,1.11,0,2.2,1.57,3.24,4.7.32.97.58,1.74.79,2.3l.28-.41c2.84-4.39,4.98-6.59,6.41-6.59.6,0,1.1.17,1.5.52.39.35.59.79.59,1.33,0,.24-.06.46-.18.69-.12.22-.29.43-.51.61Z"/>
        <path class="cls-1" d="M419.74,95.02l1.46.51c-.24.77-.45,1.57-.64,2.38-.19.81-.37,1.67-.54,2.58l-.32,1.99.35-.39c2.96-3.2,5.11-4.8,6.45-4.8,1.21,0,2.19.6,2.94,1.79.75,1.19,1.13,2.78,1.13,4.76,0,1.49-.29,3.04-.87,4.65-.58,1.61-1.35,3.03-2.32,4.26-1,1.26-2.08,2.22-3.23,2.88-1.16.66-2.35.99-3.57.99-.46,0-.92-.06-1.4-.19s-.99-.32-1.55-.58l-.96,6.29c-.04.24-.07.45-.09.65-.02.2-.03.37-.03.51,0,.64.15,1.08.46,1.31s.89.34,1.76.34h.63l-.28,1.36c-.77-.05-1.54-.09-2.3-.12s-1.52-.04-2.28-.04c-.46,0-1.39.03-2.79.1-.62.03-1.09.04-1.44.06l.24-1.36h.61c.75,0,1.26-.14,1.54-.43.28-.29.5-.87.66-1.75l3.3-19.49c.04-.2.09-.49.16-.88.24-1.4.46-2.54.69-3.42l-3.34,2.32-.35-1.32c1.02-.75,2.03-1.53,3.02-2.36.99-.83,1.96-1.69,2.9-2.6ZM417.97,113.66c.62.35,1.21.62,1.77.79.56.17,1.1.25,1.61.25,1.61,0,2.99-1.08,4.13-3.25s1.71-4.8,1.71-7.89c0-1.18-.15-2.07-.45-2.66s-.75-.88-1.36-.88c-.76,0-2.43,1.2-5.01,3.6-.45.41-.79.72-1.04.94l-1.36,9.1Z"/>
        <path class="cls-1" d="M442.42,105.89l-6,3.11v.2c0,1.56.25,2.75.74,3.56.49.81,1.2,1.22,2.13,1.22.55,0,1.24-.25,2.08-.74.83-.49,1.9-1.29,3.2-2.39l.69,1.24c-1.88,1.73-3.37,2.93-4.47,3.6-1.11.67-2.12,1-3.02,1-1.38,0-2.5-.6-3.35-1.79-.86-1.19-1.29-2.76-1.29-4.7,0-1.38.23-2.85.68-4.43.45-1.58,1.04-2.96,1.76-4.14.9-1.44,1.94-2.56,3.11-3.34,1.17-.79,2.37-1.18,3.62-1.18s2.34.4,3.2,1.21c.86.81,1.29,1.79,1.29,2.94,0,.93-.26,1.7-.78,2.31-.52.61-1.7,1.39-3.56,2.33ZM436.51,107.25l.2-.1c4.65-2.39,6.98-4.23,6.98-5.53,0-.69-.25-1.3-.75-1.81-.5-.51-1.08-.77-1.75-.77-1.03,0-1.96.71-2.78,2.14-.82,1.43-1.46,3.45-1.9,6.06Z"/>
        <path class="cls-1" d="M449.37,116.65c.83-3.41,1.47-6.42,1.93-9.04.46-2.62.69-4.58.69-5.91,0-.56-.08-.99-.25-1.27-.16-.28-.4-.42-.72-.42-.24,0-.9.34-1.99,1.02l-.16.1-.69-1.12.29-.22c2.36-1.77,3.89-2.65,4.58-2.65.64,0,1.1.21,1.39.62s.42,1.1.42,2.05c0,.84-.03,1.62-.08,2.35-.05.73-.13,1.35-.24,1.88,1.8-2.96,3.07-4.85,3.83-5.67s1.47-1.23,2.12-1.23c.45,0,.82.16,1.12.49.3.33.45.73.45,1.2,0,.29-.08.64-.23,1.05-.15.41-.47,1.1-.95,2.06-.24-.33-.48-.57-.73-.73-.25-.16-.5-.24-.75-.24-.49,0-1.06.34-1.72,1.01s-1.7,2.03-3.12,4.06c-.45,1.81-.82,3.53-1.12,5.16-.3,1.63-.53,3.18-.69,4.63l-3.42.81Z"/>
        <path class="cls-1" d="M471.32,111.65l.69,1.16c-1.61,1.67-2.73,2.73-3.36,3.19-.63.46-1.19.69-1.67.69-.69,0-1.25-.29-1.67-.88-.42-.58-.63-1.37-.63-2.35,0-1.23.39-3.29,1.17-6.17.78-2.88,1.17-4.96,1.17-6.23,0-.33-.08-.59-.24-.79-.16-.2-.36-.29-.61-.29-.21,0-.49.08-.83.26-.34.17-.77.43-1.28.79l-.59-1.04,2.62-1.91c.5-.37.93-.63,1.3-.8.37-.16.71-.25,1.04-.25.62,0,1.1.25,1.46.76s.54,1.2.54,2.07c0,.96-.34,2.83-1.02,5.62-.16.63-.28,1.1-.35,1.42-.37,1.48-.65,2.71-.84,3.68-.19.97-.29,1.64-.29,2.01,0,.33.07.6.22.81.14.21.33.31.55.31.21,0,.49-.13.83-.39.34-.26.94-.81,1.79-1.65ZM471.16,86.31l1.12,1.26c.31.33.53.62.66.88s.19.51.19.78c0,.28-.1.54-.29.79-.19.25-.47.48-.84.71l-1.73.96-1.26-1.49c-.26-.33-.43-.59-.51-.78-.08-.19-.12-.39-.12-.6,0-.3.08-.57.24-.8.16-.23.43-.46.81-.68l1.73-1.02Z"/>
        <path class="cls-1" d="M483.65,105.89l-6.01,3.11v.2c0,1.56.25,2.75.74,3.56.49.81,1.2,1.22,2.13,1.22.55,0,1.24-.25,2.07-.74.83-.49,1.9-1.29,3.2-2.39l.69,1.24c-1.88,1.73-3.37,2.93-4.47,3.6s-2.11,1-3.02,1c-1.38,0-2.5-.6-3.36-1.79-.86-1.19-1.29-2.76-1.29-4.7,0-1.38.23-2.85.68-4.43.45-1.58,1.04-2.96,1.76-4.14.9-1.44,1.94-2.56,3.11-3.34,1.17-.79,2.37-1.18,3.62-1.18s2.34.4,3.2,1.21c.86.81,1.29,1.79,1.29,2.94,0,.93-.26,1.7-.78,2.31-.52.61-1.71,1.39-3.56,2.33ZM477.75,107.25l.2-.1c4.65-2.39,6.98-4.23,6.98-5.53,0-.69-.25-1.3-.75-1.81-.5-.51-1.08-.77-1.75-.77-1.03,0-1.96.71-2.78,2.14-.82,1.43-1.46,3.45-1.9,6.06Z"/>
        <path class="cls-1" d="M495.84,102.75l3.19-3.11c1.11-1.06,1.96-1.76,2.53-2.1s1.11-.51,1.62-.51c.87,0,1.57.38,2.11,1.14.54.76.82,1.76.82,3.01s-.32,3.24-.96,5.89-.96,4.54-.96,5.67c0,.34.07.6.2.78s.32.27.57.27c.12,0,.27-.05.44-.15s.35-.23.52-.4l1.49-1.46.69,1.04-2.14,2.18c-.51.52-1.02.94-1.52,1.24-.5.3-.95.45-1.33.45-.66,0-1.19-.29-1.6-.86s-.62-1.32-.62-2.25c0-1.11.33-3.08,1-5.89.67-2.81,1-4.86,1-6.14,0-.49-.1-.88-.3-1.17-.2-.29-.48-.44-.82-.44-.51,0-2.08,1.21-4.7,3.64-.7.64-1.24,1.15-1.63,1.51l-1.24,6.92c-.03.13-.07.33-.12.59-.28,1.4-.44,2.48-.49,3.22l-3.5.87c.87-3.76,1.55-7.03,2.05-9.81.5-2.78.76-4.6.76-5.47,0-.52-.06-.9-.18-1.13-.12-.23-.31-.34-.57-.34-.16,0-.42.09-.78.28-.36.18-.82.45-1.37.81l-.53-1.04c.14-.12.35-.29.63-.51,2.02-1.63,3.37-2.44,4.05-2.44s1.14.25,1.46.74c.31.49.47,1.25.47,2.29,0,.37-.02.78-.06,1.24s-.1.94-.18,1.46Z"/>
        <path class="cls-1" d="M522.48,100.48l-1.04,1.02c-.87-.88-1.56-1.46-2.07-1.75-.52-.29-1.05-.43-1.58-.43-1.21,0-2.25.89-3.15,2.68-.89,1.79-1.34,4-1.34,6.62,0,1.76.23,3.08.69,3.97s1.13,1.34,2.03,1.34c.5,0,1.18-.29,2.04-.86s1.78-1.35,2.73-2.35l.81,1.4c-1.52,1.61-2.82,2.78-3.89,3.49-1.08.71-2.06,1.07-2.95,1.07-1.42,0-2.55-.62-3.39-1.85-.85-1.23-1.27-2.9-1.27-4.99,0-3.59.92-6.62,2.76-9.08,1.84-2.46,4.11-3.7,6.81-3.7.98,0,1.83.21,2.53.63.7.42,1.05.9,1.05,1.44,0,.21-.06.42-.17.63-.11.21-.31.45-.6.73Z"/>
        <path class="cls-1" d="M532.59,111.65l.69,1.16c-1.61,1.67-2.73,2.73-3.36,3.19-.63.46-1.19.69-1.67.69-.7,0-1.25-.29-1.67-.88-.42-.58-.63-1.37-.63-2.35,0-1.23.39-3.29,1.17-6.17.78-2.88,1.17-4.96,1.17-6.23,0-.33-.08-.59-.24-.79-.16-.2-.36-.29-.61-.29-.21,0-.48.08-.83.26-.34.17-.77.43-1.28.79l-.59-1.04,2.62-1.91c.5-.37.93-.63,1.3-.8.37-.16.71-.25,1.04-.25.62,0,1.1.25,1.46.76.36.5.54,1.2.54,2.07,0,.96-.34,2.83-1.02,5.62-.16.63-.28,1.1-.35,1.42-.37,1.48-.65,2.71-.84,3.68-.19.97-.29,1.64-.29,2.01,0,.33.07.6.22.81.14.21.33.31.55.31.21,0,.48-.13.83-.39.34-.26.94-.81,1.79-1.65ZM532.43,86.31l1.12,1.26c.31.33.54.62.66.88s.19.51.19.78c0,.28-.09.54-.29.79-.19.25-.47.48-.84.71l-1.73.96-1.26-1.49c-.26-.33-.43-.59-.51-.78-.08-.19-.12-.39-.12-.6,0-.3.08-.57.24-.8.16-.23.43-.46.81-.68l1.73-1.02Z"/>
        <path class="cls-1" d="M553.29,112.81l-1.26,1.22c-.93.93-1.68,1.58-2.23,1.94s-1.06.54-1.5.54c-.67,0-1.2-.29-1.59-.86s-.59-1.35-.59-2.35c0-.38.01-.77.04-1.18s.07-.82.12-1.24c-2.46,2.39-4.19,3.92-5.16,4.6-.98.68-1.79,1.02-2.45,1.02-1,0-1.75-.43-2.25-1.3-.5-.87-.76-2.15-.76-3.85,0-1.55.2-3.04.6-4.47.4-1.44.99-2.79,1.76-4.06,1.11-1.78,2.4-3.15,3.84-4.09,1.45-.94,2.98-1.42,4.61-1.42.35,0,.74.04,1.16.11.42.07.87.18,1.34.32l2.75-1.16c-.77,3.7-1.39,7.01-1.85,9.95s-.69,4.86-.69,5.78c0,.42.07.73.21.94.14.21.35.32.64.32.21,0,.49-.13.85-.39.35-.26.94-.79,1.77-1.57l.65,1.2ZM546.43,108.7c.24-1.19.48-2.49.72-3.9s.5-3,.78-4.79c-.6-.34-1.09-.57-1.46-.7-.37-.12-.74-.19-1.11-.19-1.69,0-3.18,1.14-4.46,3.42-1.29,2.28-1.93,4.97-1.93,8.08,0,.98.11,1.72.32,2.21.22.49.55.74.99.74s1.19-.4,2.2-1.2c1.01-.8,2.33-2.03,3.95-3.68Z"/>
        <path class="cls-1" d="M558.76,111.16l1.1,1.22c.34.35.57.66.7.91s.19.51.19.79c0,.37-.12.7-.34.98s-.61.58-1.15.87l-1.46.77-1.12-1.18c-.33-.33-.56-.63-.71-.89s-.22-.55-.22-.84c0-.37.11-.69.33-.97.22-.28.56-.55,1.03-.8l1.65-.85Z"/>
      </g>
    </g>
  </g>
</svg>