<?xml version="1.0" encoding="UTF-8"?>
<svg id="Capa_2" data-name="Capa 2" xmlns="http://www.w3.org/2000/svg" xmlns:xlink="http://www.w3.org/1999/xlink" viewBox="0 0 900 121.5">
  <defs>
    <style>
      .cls-1 {
        clip-path: url(#clippath);
      }

      .cls-2 {
        fill: #b3933f;
      }
    </style>
    <clipPath id="clippath">
      <path class="cls-2" d="M129.15,89.61v24.6l-18.27-24.6h-4.31v31.33h4.31v-24.6l18.27,24.6h4.31v-31.33h-4.31ZM140.57,120.94h4.51v-31.33h-4.51v31.33ZM202.31,89.61v13.6h-16.71v-13.6h-4.51v31.33h4.51v-14.06h16.71v14.06h4.51v-31.33h-4.51ZM298.1,89.61l-8.18,14.96-8.18-14.96h-4.8l10.73,18.96v12.37h4.51v-12.37l10.73-18.96h-4.8ZM343.62,89.61l-11.17,22.16-11.17-22.16h-4.07l-2.35,31.33h4.31l1.57-24.41,9.41,18.77h4.61l9.41-18.77,1.57,24.41h4.31l-2.35-31.33h-4.07ZM368.76,93.56l6.27,16.32h-12.54l6.27-16.32ZM366.55,89.61l-12.99,31.33h4.61l2.94-7.57h15.24l2.99,7.57h4.61l-12.99-31.33h-4.41ZM407.91,89.61v20.42c0,2.35-.7,4.26-2.08,5.74-1.39,1.47-3.46,2.21-6.2,2.21s-4.81-.74-6.2-2.21c-1.39-1.47-2.08-3.39-2.08-5.74v-20.42h-4.51v20.23c0,1.63.28,3.16.83,4.59.55,1.43,1.37,2.67,2.45,3.72,1.08,1.05,2.41,1.87,3.99,2.47,1.59.6,3.42.89,5.51.89s3.93-.3,5.51-.89c1.59-.59,2.92-1.42,3.99-2.47,1.08-1.05,1.89-2.29,2.45-3.72.55-1.43.83-2.95.83-4.59v-20.23h-4.51ZM477.93,89.61v31.33h18.13v-3.53h-13.62v-27.8h-4.51ZM500.08,89.61v31.33h18.33v-3.53h-13.82v-10.73h13.08v-3.53h-13.08v-10.02h13.67v-3.53h-18.18ZM598.86,94.74h2.01c2.16,0,3.86.38,5.12,1.15,1.26.77,1.89,1.97,1.89,3.6,0,1.76-.65,3.06-1.96,3.9-1.31.85-3.1,1.27-5.39,1.27h-1.67v-9.93ZM592,89.61v31.33h6.86v-11.15h1.32c2.03,0,3.93-.21,5.71-.64,1.78-.42,3.32-1.07,4.63-1.93,1.31-.86,2.34-1.94,3.09-3.22.75-1.29,1.13-2.79,1.13-4.52s-.35-3.16-1.05-4.4c-.7-1.24-1.67-2.27-2.92-3.08-1.24-.82-2.7-1.42-4.38-1.81-1.68-.39-3.5-.59-5.46-.59h-8.92ZM624.83,94.74h2.84c2.09,0,3.79.36,5.1,1.08,1.31.72,1.96,1.88,1.96,3.48,0,1.73-.72,3.03-2.16,3.91-1.44.88-3.33,1.32-5.68,1.32h-2.06v-9.78ZM617.97,89.61v31.33h6.86v-11.43h2.2l9.46,11.43h8.53l-11.03-12.65c2.45-.82,4.33-1.98,5.64-3.5,1.31-1.52,1.96-3.39,1.96-5.62,0-1.6-.34-2.99-1.03-4.19-.69-1.19-1.64-2.19-2.87-2.99-1.23-.8-2.69-1.39-4.39-1.79-1.7-.39-3.56-.59-5.59-.59h-9.75ZM647.47,89.61v31.33h19.75v-5.22h-12.89v-8.09h12.15v-5.22h-12.15v-7.57h12.74v-5.22h-19.6ZM699.7,89.61l-10,20.23-10-20.23h-6.17l-2.4,31.33h6.71l1.13-19.47,7.2,14.21h7.06l7.2-14.21,1.13,19.47h6.71l-2.4-31.33h-6.17ZM713.32,120.94h6.86v-31.33h-6.86v31.33ZM746.3,89.61v20.36c0,1.98-.56,3.53-1.67,4.64-1.11,1.11-2.76,1.67-4.95,1.67s-3.84-.56-4.95-1.67c-1.11-1.11-1.67-2.66-1.67-4.64v-20.36h-6.86v20.04c0,1.79.31,3.41.93,4.87.62,1.46,1.5,2.71,2.65,3.74,1.14,1.03,2.55,1.83,4.21,2.4,1.67.56,3.56.85,5.68.85s3.98-.28,5.66-.85c1.68-.56,3.1-1.36,4.24-2.4,1.14-1.03,2.03-2.28,2.65-3.74.62-1.46.93-3.08.93-4.87v-20.04h-6.86ZM786.43,89.61l-10,20.23-9.99-20.23h-6.17l-2.4,31.33h6.71l1.13-19.47,7.2,14.21h7.06l7.2-14.21,1.13,19.47h6.71l-2.4-31.33h-6.17ZM160.14,90.27c-2.11.82-3.88,1.94-5.32,3.39-1.44,1.44-2.54,3.15-3.31,5.13-.77,1.97-1.15,4.14-1.15,6.49s.38,4.52,1.15,6.49c.77,1.98,1.87,3.69,3.31,5.13,1.44,1.44,3.21,2.57,5.32,3.39,2.11.82,4.5,1.22,7.18,1.22,1.47,0,3-.13,4.61-.4,1.6-.27,2.94-.62,4.02-1.06l-.73-3.34c-1.11.38-2.3.68-3.58.92-1.27.23-2.53.35-3.77.35-4.08,0-7.27-1.1-9.55-3.29-2.29-2.19-3.43-5.33-3.43-9.41s1.14-7.21,3.43-9.41c2.29-2.19,5.47-3.29,9.55-3.29,1.24,0,2.5.12,3.77.35,1.27.23,2.47.54,3.58.92l.73-3.34c-1.08-.44-2.42-.79-4.02-1.06-1.6-.27-3.14-.4-4.61-.4-2.68,0-5.07.41-7.18,1.22M222.94,117.03c-1.44-.66-2.63-1.57-3.58-2.73-.95-1.16-1.67-2.52-2.16-4.07-.49-1.55-.73-3.21-.73-4.96s.24-3.41.73-4.96c.49-1.55,1.21-2.9,2.16-4.05.95-1.14,2.14-2.05,3.58-2.73,1.44-.67,3.09-1.01,4.95-1.01s3.51.34,4.95,1.01c1.44.67,2.63,1.58,3.58,2.73.95,1.14,1.67,2.49,2.15,4.05.49,1.55.74,3.21.74,4.96s-.25,3.41-.74,4.96c-.49,1.55-1.21,2.91-2.15,4.07-.95,1.16-2.14,2.07-3.58,2.73-1.44.66-3.09.99-4.95.99s-3.51-.33-4.95-.99M221.08,90.36c-1.99.88-3.66,2.05-5,3.53-1.34,1.47-2.36,3.2-3.06,5.18-.7,1.97-1.05,4.05-1.05,6.21s.35,4.23,1.05,6.21c.7,1.97,1.72,3.7,3.06,5.17,1.34,1.47,3.01,2.65,5,3.53,1.99.88,4.26,1.32,6.81,1.32s4.82-.44,6.81-1.32c1.99-.88,3.66-2.05,5-3.53,1.34-1.47,2.36-3.2,3.06-5.17.7-1.98,1.05-4.05,1.05-6.21s-.35-4.23-1.05-6.21c-.7-1.98-1.72-3.7-3.06-5.18-1.34-1.47-3.01-2.65-5-3.53-1.99-.88-4.26-1.32-6.81-1.32s-4.82.44-6.81,1.32M253.81,89.56c-1.27.35-2.37.86-3.28,1.55-.91.69-1.63,1.55-2.13,2.59-.51,1.03-.76,2.23-.76,3.58,0,1.19.24,2.23.71,3.13.47.89,1.1,1.69,1.89,2.4.79.71,1.69,1.33,2.72,1.88,1.03.55,2.1,1.07,3.21,1.58.98.44,1.9.86,2.77,1.27.86.41,1.62.87,2.28,1.39s1.17,1.1,1.54,1.74c.37.64.56,1.42.56,2.33,0,1.63-.65,2.88-1.96,3.74-1.31.86-3.02,1.29-5.15,1.29-1.47,0-2.93-.17-4.38-.52-1.45-.34-2.79-.78-3.99-1.32l-.88,3.43c1.37.63,2.88,1.1,4.53,1.41,1.65.31,3.26.47,4.83.47s3.1-.2,4.49-.61c1.39-.41,2.6-.99,3.62-1.74,1.03-.75,1.85-1.66,2.45-2.73.6-1.07.91-2.27.91-3.62s-.33-2.65-.98-3.72c-.65-1.07-1.47-2-2.45-2.8-.98-.8-2.06-1.49-3.23-2.07-1.18-.58-2.29-1.12-3.33-1.62-1.05-.5-1.94-.95-2.67-1.34-.73-.39-1.32-.8-1.76-1.22-.44-.42-.76-.88-.96-1.36-.2-.49-.29-1.06-.29-1.71,0-2.95,1.98-4.42,5.93-4.42,1.37,0,2.73.17,4.07.52,1.34.34,2.53.78,3.58,1.32l.83-3.43c-1.11-.56-2.41-1.02-3.9-1.36-1.49-.34-3.01-.52-4.58-.52s-2.94.17-4.21.52M423.93,89.56c-1.27.35-2.37.86-3.28,1.55-.92.69-1.63,1.55-2.13,2.59-.51,1.03-.76,2.23-.76,3.58,0,1.19.24,2.23.71,3.13.47.89,1.1,1.69,1.89,2.4.78.71,1.69,1.33,2.72,1.88,1.03.55,2.1,1.07,3.21,1.58.98.44,1.9.86,2.77,1.27.86.41,1.62.87,2.28,1.39.65.52,1.17,1.1,1.54,1.74.38.64.56,1.42.56,2.33,0,1.63-.65,2.88-1.96,3.74-1.31.86-3.02,1.29-5.15,1.29-1.47,0-2.93-.17-4.39-.52-1.45-.34-2.78-.78-3.99-1.32l-.88,3.43c1.37.63,2.88,1.1,4.53,1.41,1.65.31,3.26.47,4.83.47s3.09-.2,4.48-.61c1.39-.41,2.6-.99,3.63-1.74,1.03-.75,1.84-1.66,2.45-2.73.6-1.07.91-2.27.91-3.62s-.33-2.65-.98-3.72c-.65-1.07-1.47-2-2.45-2.8-.98-.8-2.06-1.49-3.23-2.07s-2.29-1.12-3.33-1.62c-1.05-.5-1.94-.95-2.67-1.34-.73-.39-1.32-.8-1.76-1.22-.44-.42-.76-.88-.96-1.36-.2-.49-.29-1.06-.29-1.71,0-2.95,1.98-4.42,5.93-4.42,1.37,0,2.73.17,4.07.52,1.34.34,2.53.78,3.58,1.32l.83-3.43c-1.11-.56-2.41-1.02-3.9-1.36-1.49-.34-3.01-.52-4.58-.52s-2.94.17-4.21.52M451.91,117.03c-1.44-.66-2.63-1.57-3.58-2.73-.95-1.16-1.67-2.52-2.15-4.07-.49-1.55-.74-3.21-.74-4.96s.25-3.41.74-4.96c.49-1.55,1.21-2.9,2.15-4.05.95-1.14,2.14-2.05,3.58-2.73,1.44-.67,3.09-1.01,4.95-1.01s3.51.34,4.95,1.01c1.44.67,2.63,1.58,3.58,2.73s1.67,2.49,2.16,4.05c.49,1.55.73,3.21.73,4.96s-.24,3.41-.73,4.96c-.49,1.55-1.21,2.91-2.16,4.07-.95,1.16-2.14,2.07-3.58,2.73-1.44.66-3.09.99-4.95.99s-3.51-.33-4.95-.99M450.05,90.36c-1.99.88-3.66,2.05-5,3.53-1.34,1.47-2.36,3.2-3.06,5.18-.7,1.97-1.05,4.05-1.05,6.21s.35,4.23,1.05,6.21c.7,1.97,1.72,3.7,3.06,5.17,1.34,1.47,3.01,2.65,5,3.53,1.99.88,4.26,1.32,6.81,1.32s4.82-.44,6.81-1.32c1.99-.88,3.66-2.05,5-3.53,1.34-1.47,2.36-3.2,3.06-5.17.7-1.98,1.05-4.05,1.05-6.21s-.35-4.23-1.05-6.21c-.7-1.98-1.72-3.7-3.06-5.18-1.34-1.47-3.01-2.65-5-3.53s-4.26-1.32-6.81-1.32-4.82.44-6.81,1.32M533.35,117.03c-1.44-.66-2.63-1.57-3.58-2.73-.95-1.16-1.67-2.52-2.15-4.07-.49-1.55-.74-3.21-.74-4.96s.25-3.41.74-4.96c.49-1.55,1.21-2.9,2.15-4.05.95-1.14,2.14-2.05,3.58-2.73,1.44-.67,3.09-1.01,4.95-1.01s3.51.34,4.95,1.01c1.44.67,2.63,1.58,3.58,2.73s1.67,2.49,2.16,4.05c.49,1.55.73,3.21.73,4.96s-.24,3.41-.73,4.96c-.49,1.55-1.21,2.91-2.16,4.07-.95,1.16-2.14,2.07-3.58,2.73-1.44.66-3.09.99-4.95.99s-3.51-.33-4.95-.99M531.49,90.36c-1.99.88-3.66,2.05-5,3.53-1.34,1.47-2.36,3.2-3.06,5.18-.7,1.97-1.05,4.05-1.05,6.21s.35,4.23,1.05,6.21c.7,1.97,1.72,3.7,3.06,5.17,1.34,1.47,3.01,2.65,5,3.53,1.99.88,4.26,1.32,6.81,1.32s4.82-.44,6.81-1.32c1.99-.88,3.66-2.05,5-3.53,1.34-1.47,2.36-3.2,3.06-5.17.7-1.98,1.05-4.05,1.05-6.21s-.35-4.23-1.05-6.21c-.7-1.98-1.72-3.7-3.06-5.18-1.34-1.47-3.01-2.65-5-3.53s-4.26-1.32-6.81-1.32-4.82.44-6.81,1.32M564.22,89.56c-1.27.35-2.37.86-3.28,1.55-.92.69-1.63,1.55-2.13,2.59-.51,1.03-.76,2.23-.76,3.58,0,1.19.24,2.23.71,3.13.47.89,1.1,1.69,1.89,2.4.78.71,1.69,1.33,2.72,1.88,1.03.55,2.1,1.07,3.21,1.58.98.44,1.9.86,2.77,1.27.87.41,1.62.87,2.28,1.39.65.52,1.17,1.1,1.54,1.74.38.64.56,1.42.56,2.33,0,1.63-.65,2.88-1.96,3.74-1.31.86-3.02,1.29-5.15,1.29-1.47,0-2.93-.17-4.39-.52-1.45-.34-2.78-.78-3.99-1.32l-.88,3.43c1.37.63,2.88,1.1,4.53,1.41,1.65.31,3.26.47,4.83.47s3.09-.2,4.48-.61c1.39-.41,2.6-.99,3.63-1.74,1.03-.75,1.85-1.66,2.45-2.73.6-1.07.91-2.27.91-3.62s-.33-2.65-.98-3.72c-.65-1.07-1.47-2-2.45-2.8-.98-.8-2.06-1.49-3.23-2.07-1.18-.58-2.29-1.12-3.33-1.62-1.05-.5-1.94-.95-2.67-1.34-.73-.39-1.32-.8-1.76-1.22-.44-.42-.76-.88-.96-1.36-.2-.49-.29-1.06-.29-1.71,0-2.95,1.98-4.42,5.93-4.42,1.37,0,2.73.17,4.07.52,1.34.34,2.53.78,3.58,1.32l.83-3.43c-1.11-.56-2.41-1.02-3.9-1.36-1.49-.34-3.01-.52-4.58-.52s-2.94.17-4.21.52M659.9,56.18c-1.45-.17-2.64-.4-3.54-.68-.85-.26-1.53-.56-1.96-.85-.41-.29-.72-.56-.9-.83,0,0-.1-.14-.19-.58-.09-.43-.16-.89-.21-1.39l-.15-1.7c-.04-.55-.07-1.04-.07-1.47,0-.27-.01-.75-.02-1.43v-.65c-.04-1-.06-2.24-.09-3.7-.03-1.46-.04-3.1-.04-4.9V13.57c0-1.48.01-2.82.04-4.03.03-1.22.04-2.16.04-2.82,0-.45.14-.51.17-.53.13-.04.36-.1.67-.16.34-.07.75-.13,1.2-.17.48-.05.95-.09,1.4-.11.45-.02.87-.04,1.25-.04,2.15,0,4.35.09,6.51.26,2.09.17,4.14.55,6.09,1.13,1.94.58,3.87,1.43,5.73,2.52,1.83,1.07,3.61,2.53,5.28,4.31.72.78,1.49,1.75,2.3,2.89.8,1.12,1.56,2.47,2.25,3.99.69,1.53,1.26,3.26,1.68,5.14.43,1.88.64,4.02.64,6.36,0,1.71-.12,3.42-.35,5.07-.25,1.67-.62,3.28-1.12,4.79-.5,1.52-1.11,2.95-1.83,4.26-.7,1.28-1.49,2.37-2.36,3.25-2.12,2.15-4.67,3.83-7.58,4.99-2.93,1.16-6.1,1.74-9.42,1.74-2.13,0-3.96-.09-5.43-.26M655.25,1.1c-1.09.02-2.1.05-3.02.08-.92.02-1.72.05-2.39.07-.65.03-1.08.04-1.26.04-.1,0-.42-.01-.96-.04-.58-.02-1.28-.05-2.1-.07-.82-.03-1.71-.05-2.65-.08-.95-.02-1.85-.04-2.71-.04-2.07,0-2.23,1.26-2.23,1.64,0,.72.51,1.49,1.63,1.49.34,0,.75.01,1.25.04.55.03.84.1,1.08.17.91.18,1.54.5,1.78.89.31.51.51,1.34.6,2.49.05.59.08,1.23.11,1.89.02.67.03,1.57.03,2.69v25.04c0,3.63-.01,6.88-.04,9.73-.03,2.82-.13,5.04-.33,6.57-.14,1.03-.33,1.91-.58,2.59-.16.42-.38.63-.85.73-.31.09-.63.15-.97.19-.35.05-.68.07-.98.07-1.12,0-1.63.75-1.63,1.49,0,.39.16,1.64,2.23,1.64.57,0,1.26-.03,2.07-.08.77-.05,1.52-.07,2.32-.07.77-.05,1.42-.08,1.94-.08h.97c.19,0,.83.05,1.92.15,1.14.1,2.54.21,4.2.31,1.59.1,3.32.2,5.18.3,1.87.1,3.63.16,5.24.16,3.23,0,6.14-.3,8.66-.9,2.5-.6,4.73-1.36,6.62-2.27,1.89-.91,3.53-1.91,4.85-2.97,1.3-1.03,2.38-2.01,3.2-2.9,1.07-1.13,2.12-2.48,3.13-4,1.01-1.52,1.9-3.22,2.66-5.06.77-1.85,1.39-3.89,1.84-6.05.46-2.18.69-4.52.69-6.96s-.21-4.53-.61-6.5c-.4-1.95-.96-3.79-1.66-5.46-.69-1.63-1.5-3.13-2.41-4.46-.88-1.28-1.83-2.47-2.83-3.54-2.32-2.41-4.91-4.26-7.7-5.49-2.75-1.21-5.56-2.09-8.35-2.61-2.78-.52-5.49-.79-8.04-.82-2.51-.02-4.69-.04-6.53-.04-1.15,0-2.28.01-3.38.04M296.41,31.41c-1.79-.27-2.45-.56-2.73-.76V5.93c.3-.06.8-.15,1.61-.24.88-.1,1.87-.14,2.95-.14,3.74,0,6.58,1.2,8.68,3.65,2.11,2.47,3.18,5.99,3.18,10.46,0,2.72-.41,5.04-1.22,6.9-.79,1.81-1.77,3.13-2.89,3.93h0c-.73.53-1.5.85-2.34,1-.92.16-1.82.25-2.65.25-1.6,0-3.14-.11-4.58-.33M296.35,1.1l-2.72.07c-.58.01-1.13.03-1.63.05l-.84.03c-.7.02-1.14.04-1.34.04-.1,0-.41-.02-.97-.04l-.52-.02c-.46-.02-.99-.04-1.57-.06-.82-.02-1.71-.05-2.64-.07-.95-.03-1.86-.04-2.71-.04-2.07,0-2.23,1.26-2.23,1.64,0,.72.51,1.49,1.63,1.49.34,0,.75.01,1.25.04.54.03.81.09.94.13l.13.04c.91.19,1.55.5,1.78.88.21.35.49,1.08.6,2.51.05.59.09,1.22.11,1.89.02.67.04,1.57.04,2.69v25.04c0,3.64-.01,6.88-.04,9.73-.03,2.83-.14,5.04-.33,6.57-.14,1.04-.34,1.91-.58,2.59-.15.42-.37.62-.84.72-.3.09-.62.15-.96.19-.35.04-.68.06-.99.06-1.13,0-1.63.75-1.63,1.49,0,.38.16,1.64,2.23,1.64.56,0,1.24,0,2.05-.04l2.31-.08c.75-.02,1.65-.06,2.65-.11.09,0,.41.01.96.04.57.03,1.3.06,2.18.08l2.87.08c1.05.03,2.1.04,3.16.04,2.07,0,2.23-1.25,2.23-1.64,0-.74-.5-1.49-1.63-1.49-.33,0-.81-.02-1.45-.07-.62-.05-1.2-.12-1.77-.22-1.15-.15-1.36-.62-1.43-.77-.3-.65-.49-1.48-.58-2.51-.2-1.57-.31-3.79-.33-6.58-.02-2.85-.04-6.09-.04-9.73v-1.38l8.65.14c.06,0,.12.04.18.09.35.5.82,1.15,1.41,1.95.62.83,1.28,1.75,2,2.75.72,1.01,1.48,2.07,2.28,3.18.79,1.12,1.59,2.21,2.39,3.28,2.12,2.86,3.96,5.25,5.47,7.11,1.57,1.94,3.23,3.4,4.9,4.29,1.04.61,2.21,1.04,3.47,1.26,1.2.21,2.84.31,5.02.31h5.29c.83,0,1.36-.05,1.72-.16.68-.21,1.1-.78,1.1-1.48,0-.74-.53-1.49-1.71-1.49-.24,0-.59,0-1.06-.03-.47-.02-1.04-.08-1.68-.18-.86-.14-2.03-.52-3.48-1.14-1.4-.59-3.09-1.94-5.01-3.99-2.13-2.32-4.49-5.15-7.02-8.42l-7.85-10.17c3.05-2.98,5.26-5.89,6.55-8.64,1.4-2.97,2.11-5.99,2.11-8.96,0-1.42-.2-2.75-.61-3.96-.39-1.17-.88-2.24-1.44-3.16-.56-.93-1.17-1.74-1.81-2.4-.63-.67-1.18-1.19-1.71-1.61-2.11-1.56-4.45-2.55-6.97-2.95-2.4-.39-4.85-.58-7.28-.58-.61,0-1.36.01-2.26.04M353.31,1.1l-4.3.15c-.54.03-.86.04-.95.04s-.42-.02-.97-.04l-4.37-.15c-.86-.02-1.59-.04-2.19-.04-2.07,0-2.23,1.26-2.23,1.64,0,.74.51,1.49,1.63,1.49.22,0,.53.02.93.07.4.04.77.11,1.14.2.38.09,1.55.36,1.73,3.32.05.59.09,1.22.11,1.89.03.67.04,1.57.04,2.68v25.04c0,3.63,0,6.87-.04,9.72-.02,2.77-.13,4.99-.32,6.58-.14,1.03-.34,1.9-.59,2.59-.15.42-.37.62-.85.72-.29.09-.61.15-.96.19-.35.04-.68.07-.98.07-1.13,0-1.63.75-1.63,1.49,0,.38.16,1.64,2.23,1.64.55,0,1.23-.01,2.04-.04l2.31-.07c.75-.03,1.41-.05,1.99-.08.54-.03.86-.04.96-.04s.41.01.96.04c.58.02,1.3.05,2.18.08l2.88.07c1.05.02,2.1.04,3.15.04,2.06,0,2.22-1.25,2.22-1.64,0-.72-.51-1.49-1.63-1.49-.33,0-.82-.02-1.46-.07-.62-.04-1.19-.11-1.76-.22-1.15-.15-1.36-.61-1.43-.77-.3-.64-.49-1.47-.58-2.5-.19-1.55-.3-3.77-.33-6.59-.02-2.85-.04-6.09-.04-9.72V12.36c0-1.12.01-2.01.03-2.68.03-.67.06-1.3.11-1.9.11-1.45.38-2.2.58-2.58.08-.15.32-.6,1.38-.81.38-.09.7-.15.94-.17.24-.02.46-.04.69-.04,1.12,0,1.63-.77,1.63-1.49,0-.39-.16-1.64-2.22-1.64-.56,0-1.24.01-2.05.04M443,1.1l-4.82.15c-.62.03-.98.04-1.07.04s-.42-.02-1.02-.04l-4.69-.15c-.95-.02-1.86-.04-2.71-.04-2.06,0-2.22,1.26-2.22,1.64,0,.72.51,1.49,1.63,1.49.34,0,.75.01,1.26.04.53.02.8.09.94.13l.13.04c.91.19,1.55.5,1.78.88.21.35.49,1.08.6,2.5.05.59.09,1.22.11,1.88.02.67.04,1.57.04,2.69v25.04c0,3.63-.02,6.88-.04,9.72-.02,2.77-.13,4.99-.32,6.57-.14,1.04-.34,1.91-.59,2.59-.15.42-.37.62-.84.72-.3.09-.62.15-.96.19-.35.04-.68.07-.98.07-1.12,0-1.63.75-1.63,1.49,0,.38.16,1.64,2.22,1.64.56,0,1.23-.01,2.01-.04.78-.03,1.55-.07,2.24-.11.76,0,1.44-.02,2.02-.04.55-.03.89-.04,1.04-.04,1.08,0,2.21,0,3.41.04,1.17.02,2.55.09,4.16.19,1.59.05,3.39.1,5.37.15,1.99.05,4.34.08,7.03.08,1.01,0,1.83-.03,2.44-.08.7-.06,1.25-.19,1.68-.41.5-.26.87-.62,1.09-1.07.15-.29.3-.68.49-1.26.15-.57.29-1.26.43-2.11.12-.78.25-1.55.37-2.31.13-.78.21-1.49.27-2.12.05-.65.08-1.08.08-1.29,0-1.96-1.04-2.17-1.48-2.17s-1.44.18-1.69,1.88c-.09.61-.29,1.32-.61,2.1-.31.76-.68,1.41-1.11,1.94-.73.9-1.71,1.42-3.02,1.59-1.5.2-3.25.3-5.19.3-1.45,0-2.63-.04-3.61-.11-.97-.07-1.79-.16-2.42-.28-.57-.11-1.02-.25-1.34-.43-.34-.18-.62-.39-.87-.64-.18-.17-.77-.97-1.02-4.33-.2-2.62-.3-6.75-.3-12.27V12.36c0-1.11.01-2.01.04-2.68.03-.67.06-1.3.11-1.9.11-1.45.38-2.2.58-2.58.21-.39.71-.66,1.53-.81.37-.09.77-.14,1.2-.16.45-.03.79-.04,1.02-.04,1.12,0,1.63-.77,1.63-1.49,0-.39-.16-1.64-2.23-1.64-.56,0-1.27.01-2.16.04M738.41.79s-.07.04-.15.07c-.63.14-1.66.26-2.98.35-.45,0-1.56.01-3.34.04-1.76.03-3.64.04-5.65.04h-8.03s-3.05-.15-3.05-.15c-.86-.05-1.78-.08-2.75-.08h-2.68c-2.07,0-2.23,1.26-2.23,1.64,0,.72.51,1.49,1.63,1.49.33,0,.75,0,1.25.04.56.03.84.1,1.08.17.91.18,1.54.5,1.78.88.21.35.49,1.07.6,2.5.05.59.08,1.22.11,1.89.02.67.03,1.57.03,2.69v25.04c0,3.63-.01,6.88-.04,9.72-.03,2.87-.13,5.03-.33,6.58-.14,1.03-.33,1.9-.58,2.59-.15.42-.37.63-.84.73-.3.08-.61.15-.97.19-.35.04-.68.07-.99.07-1.13,0-1.63.75-1.63,1.49,0,.39.16,1.64,2.23,1.64.57,0,1.26-.03,2.08-.08.77-.05,1.52-.07,2.32-.07.77-.05,1.41-.08,1.94-.08h.97c.54,0,1.27.01,2.21.04.93.02,2.11.08,3.57.19,1.44.05,3.2.1,5.26.15,2.07.05,4.53.07,7.37.07.77,0,1.39-.02,1.85-.04.57-.03,1.04-.13,1.48-.32.5-.23.88-.57,1.14-1.01.19-.33.37-.79.55-1.44.11-.45.21-1.06.32-1.87l.3-2.32c.1-.78.19-1.5.26-2.13.08-.69.12-1.12.12-1.29,0-.28-.01-.57-.04-.85-.07-.78-.66-1.32-1.44-1.32-.86,0-1.42.66-1.69,2.01-.23,1.43-.55,2.51-.98,3.23-.38.64-.95,1.11-1.74,1.43-.88.36-1.97.57-3.24.64-1.37.07-2.56.11-3.52.11-1.8,0-3.24-.07-4.26-.22-.92-.13-1.62-.37-2.1-.71-.43-.32-.72-.75-.89-1.33-.2-.72-.32-1.71-.37-2.9v-19.05c.33,0,.79.02,1.36.04l3.14.07c1.11.03,2.19.07,3.26.12,1.04.04,1.8.1,2.28.14,1.61.17,2.12.55,2.26.7.38.41.62.81.73,1.22.13.42.2.79.22,1.09.02.36.03.73.03,1.12,0,1.18.78,1.71,1.56,1.71.58,0,1.31-.36,1.47-1.38.05-.38.08-.74.08-1.09,0-.12.01-.31.03-.57v-.16c.03-.38.06-.81.08-1.31l.07-1.43c.03-.45.06-.87.11-1.3.1-1.21.22-2.13.35-2.73.17-.79.25-1.26.25-1.59,0-1.13-.71-1.64-1.41-1.64-.58,0-1.09.37-1.9,1.34-.19.23-.43.36-.75.41-.53.1-1.22.2-2.09.29-.4.05-1.19.08-2.36.11-1.18.02-2.44.04-3.74.04h-5.04V6.08h1.17c.96,0,2.01.01,3.14.04h.21c1.07.03,2.09.05,3.07.07,1.34.03,1.75.08,1.91.1,2.38.3,3.22.67,3.5.85.48.32.79.68.97,1.11.15.35.25.76.29,1.19.04.52.07.89.07,1.13,0,1.49.88,2.02,1.63,2.02.57,0,1.05-.34,1.29-.9.09-.22.18-.46.24-.74.06-.26.1-.65.13-1.2.02-.46.06-.95.11-1.47.05-.54.09-1.05.12-1.52.02-.48.04-.82.03-.94.1-1,.21-1.74.34-2.2.18-.63.26-1.1.26-1.46,0-1.63-1.11-1.71-1.33-1.71-.41,0-.78.11-1.11.34M114.21.79s-.08.05-.16.07c-.46.1-1.36.24-2.98.36-.29,0-.85,0-1.69.02l-1.64.02c-1.76.03-3.64.04-5.65.04h-8.03s-3.05-.15-3.05-.15c-.86-.05-1.78-.07-2.74-.07h-2.68c-2.07,0-2.23,1.26-2.23,1.64,0,.72.51,1.49,1.63,1.49.33,0,.75.01,1.25.04.54.03.81.09.94.13l.14.04c.91.19,1.55.5,1.78.88.21.36.49,1.08.6,2.5.04.6.08,1.23.11,1.89.02.67.04,1.57.04,2.69v25.04c0,3.63-.01,6.88-.04,9.73-.03,2.82-.14,5.03-.33,6.57-.14,1.03-.33,1.91-.58,2.59-.15.42-.37.62-.84.72-.3.08-.61.15-.97.19-.35.04-.68.07-.99.07-1.12,0-1.63.77-1.63,1.49,0,.38.16,1.64,2.23,1.64.57,0,1.26-.03,2.08-.08.77-.05,1.52-.07,2.31-.07.77-.05,1.42-.08,1.94-.08h.97c.53,0,1.27,0,2.2.04.93.03,2.11.09,3.57.19,1.44.05,3.2.1,5.26.15,2.04.05,4.45.08,7.37.08.77,0,1.39-.02,1.85-.04.56-.03,1.06-.14,1.47-.32.5-.22.88-.56,1.14-1.01.2-.33.37-.78.56-1.45.1-.44.21-1.05.32-1.86l.3-2.32c.1-.78.19-1.5.26-2.13.08-.7.12-1.13.12-1.29,0-.28-.01-.57-.04-.86-.07-.79-.65-1.31-1.44-1.31-.86,0-1.43.66-1.69,2.01-.23,1.43-.56,2.52-.98,3.23-.39.64-.96,1.11-1.74,1.43-.88.36-1.97.58-3.24.65-3.65.2-6.18.12-7.78-.1-.92-.13-1.62-.37-2.1-.72-.43-.32-.72-.75-.88-1.32-.2-.74-.33-1.73-.37-2.9v-19.05c.21,0,.47.01.78.02h.58c.97.04,2.01.07,3.13.09,1.11.03,2.19.06,3.25.11,1.04.05,1.81.1,2.28.15,1.61.17,2.12.55,2.26.7.38.41.62.81.73,1.22.13.43.2.8.22,1.08.02.36.03.73.03,1.12,0,1.18.78,1.71,1.55,1.71.59,0,1.32-.36,1.47-1.36.06-.39.09-.76.09-1.11,0-.14.01-.39.03-.72l.15-2.74c.03-.46.06-.88.11-1.31.1-1.22.21-2.14.35-2.74.17-.76.25-1.25.25-1.59,0-1.13-.71-1.64-1.4-1.64-.58,0-1.1.37-1.91,1.35-.19.22-.42.35-.74.41-.53.1-1.23.2-2.08.29-.26.03-.91.08-2.37.11-1.18.03-2.43.04-3.74.04h-5.04V6.08h1.17c.96,0,2.01.02,3.14.04,1.14.02,2.24.05,3.28.08,1.33.03,1.75.08,1.9.1,2.39.31,3.23.67,3.51.86.47.32.79.67.97,1.11.15.34.25.74.29,1.19.05.51.07.88.07,1.12,0,1.92,1.36,2.02,1.63,2.02.56,0,1.05-.33,1.3-.91.09-.22.17-.46.23-.72.06-.26.11-.65.14-1.21.02-.46.06-.96.11-1.48.05-.54.08-1.03.12-1.52v-.18c.02-.38.04-.66.03-.75.09-1,.21-1.74.34-2.2.18-.63.26-1.09.26-1.46,0-1.63-1.11-1.72-1.33-1.72-.41,0-.78.11-1.11.34M832.36,14.9l6.35,18.36h-12.24l5.89-18.36ZM772.32,31.42c-1.79-.27-2.45-.57-2.73-.76V5.93c.36-.07.91-.15,1.61-.24.86-.1,1.85-.14,2.94-.14,3.74,0,6.58,1.2,8.68,3.66,2.11,2.47,3.18,5.99,3.18,10.46,0,2.72-.41,5.04-1.22,6.9-.8,1.81-1.77,3.14-2.89,3.92h0c-.73.53-1.49.85-2.34,1-1.09.19-2.13.27-3.14.27-1.44,0-2.79-.16-4.09-.35M832.01,1.05c-.23.41-.55,1.18-1.05,2.59l-16.91,47.04c-.66,1.83-1.41,3.37-2.24,4.59-.63.94-1.53,1.52-2.78,1.79-.87-.14-2.04-.53-3.48-1.14-1.4-.59-3.09-1.93-5.01-3.99-2.14-2.32-4.5-5.15-7.02-8.42-2.38-3.08-5-6.47-7.86-10.17,3.06-2.98,5.26-5.89,6.55-8.64,1.4-2.97,2.11-5.98,2.11-8.96,0-1.42-.21-2.75-.61-3.96-.39-1.17-.88-2.23-1.44-3.16-.58-.94-1.18-1.75-1.81-2.41-.62-.66-1.18-1.19-1.71-1.61-2.11-1.55-4.46-2.54-6.97-2.95-2.4-.39-4.85-.59-7.28-.59-.6,0-1.36.01-2.26.04l-2.72.08c-.92.02-1.75.05-2.47.07-.7.03-1.14.04-1.34.04-.1,0-.42-.01-.96-.04-.58-.03-1.28-.05-2.1-.07-.82-.03-1.71-.05-2.66-.08-.95-.02-1.86-.04-2.71-.04-2.07,0-2.23,1.26-2.23,1.64,0,.74.5,1.49,1.63,1.49.34,0,.76.01,1.25.04.55.03.84.1,1.08.17.93.19,1.54.49,1.78.89.21.35.49,1.07.6,2.5.05.59.08,1.23.11,1.88.02.67.04,1.57.04,2.69v25.04c0,3.63-.02,6.88-.04,9.72-.03,2.8-.14,5.01-.33,6.57-.14,1.05-.34,1.92-.58,2.59-.15.42-.37.62-.84.72-.3.08-.62.15-.96.19-.35.04-.68.07-.99.07-1.13,0-1.63.75-1.63,1.49,0,.39.16,1.64,2.22,1.64.56,0,1.24-.02,2.05-.04l2.31-.07c.75-.02,1.65-.06,2.65-.11.09,0,.41.02.97.04.57.02,1.3.05,2.17.07l2.87.07c1.05.02,2.1.04,3.16.04,2.07,0,2.23-1.26,2.23-1.64,0-.74-.51-1.49-1.64-1.49-.33,0-.81-.02-1.45-.07-.61-.04-1.18-.12-1.76-.22-1.15-.15-1.36-.62-1.44-.77-.3-.64-.49-1.47-.58-2.5-.2-1.56-.31-3.71-.33-6.58-.03-2.85-.04-6.09-.04-9.72v-1.38l8.65.14c.05,0,.12.05.17.09.35.5.82,1.15,1.42,1.95.62.83,1.29,1.75,2,2.75.72,1.01,1.48,2.08,2.28,3.19.8,1.11,1.6,2.21,2.39,3.27,2.2,2.95,3.98,5.28,5.47,7.11,1.57,1.94,3.23,3.39,4.9,4.29,1.05.62,2.22,1.05,3.48,1.27,1.21.21,2.9.32,5.02.32h6.37v-.09l1.72-.06c.45-.02.85-.03,1.2-.05.55-.03.92-.04,1.11-.04s.5,0,.94.03l3.26.15c.61.03,1.15.04,1.61.04,1.99,0,2.15-1.25,2.15-1.64,0-.69-.47-1.49-1.78-1.49h-.75c-.47,0-.93-.13-1.39-.4-.24-.14-.4-.32-.4-.77,0-1.29.33-2.88.99-4.75l4.44-13.31h15.6l6.86,18.45c.17.41.16.58.17.58-.03.07-.06.1-.03.1-1.1.37-1.18,1.23-1.18,1.5,0,.62.41,1.38,1.56,1.45l1.67.11c1.3.05,2.58.09,3.86.11,1.28.03,2.45.04,3.52.04h4.36c.48,0,.92-.05,1.31-.14.75-.2,1.22-.77,1.22-1.49s-.47-1.49-1.78-1.49c-.37,0-.8-.02-1.28-.07-.43-.04-.89-.15-1.44-.35-.33-.09-.69-.24-1.08-.44-.35-.19-.76-.54-1.19-1.05-.49-.57-1.02-1.36-1.61-2.35-.58-1-1.2-2.33-1.83-3.94-.74-1.92-1.67-4.32-2.79-7.2-1.11-2.88-2.29-5.92-3.5-9.12-1.22-3.2-2.45-6.45-3.68-9.73-1.24-3.28-2.37-6.29-3.39-9.05-1.02-2.75-1.89-5.08-2.61-6.98-.73-1.9-1.19-3.11-1.39-3.6-.62-1.63-.89-2.15-1.05-2.4-.5-.81-1.12-.98-1.55-.98-.37,0-1.07.14-1.56,1.05M618.06,59.11s.05,0,.07,0c-.02.01-.03.03-.05.04l-.02-.04ZM617.63,58.22v.02s.01,0,.01,0v-.02ZM602.38,14.9l6.35,18.36h-12.24l5.89-18.36ZM556.94,1.81l-20.99,45.57-21.85-45.65c-.53-1.15-1.22-1.73-2.05-1.73-.6,0-1.64.3-1.85,2.28l-5.36,49.4c-.14,1.41-.36,2.73-.65,3.91-.2.85-.66,1.29-1.5,1.46-.49.1-.89.15-1.19.17-.29.02-.57.04-.85.04-1.73,0-1.78,1.27-1.78,1.41,0,.4.17,1.71,2.3,1.71.51,0,1.09-.02,1.75-.04l3.59-.15c.47-.03.77-.04.91-.04s.43.01.88.04l3.85.15c.76.03,1.49.04,2.2.04,2.21,0,2.38-1.31,2.38-1.71,0-.7-.5-1.41-1.63-1.41-.22,0-.56-.02-1.02-.07-.43-.04-.95-.13-1.63-.29-.3-.06-.55-.2-.76-.46-.22-.28-.32-.55-.32-.87v-1.97c0-.62.02-1.22.07-1.8l2.68-31.65c.41.92.87,1.94,1.38,3.05.69,1.51,1.42,3.13,2.2,4.84.77,1.72,1.5,3.33,2.2,4.82l1.79,3.83c.5,1.07.8,1.71.9,1.91.09.18.42.84.99,1.99l.28.55c.74,1.49,1.59,3.19,2.53,5.11.94,1.92,1.87,3.82,2.79,5.72.91,1.88,1.63,3.3,2.13,4.21.67,1.32,1.2,2.31,1.53,2.85.19.3.75,1.21,1.7,1.21.53,0,1.28-.23,1.82-1.33.25-.5.78-1.6,1.58-3.28l16.82-36.3,3.27,35.93c.09.62.11,1.16.07,1.61,0,.04,0,.07-.01.1-.55.25-.89.76-.89,1.4s.41,1.18,1.09,1.43c.36.13.95.24,1.96.36.7.05,1.67.11,2.9.16,1.23.05,2.49.09,3.79.12,1.3.02,2.5.04,3.59.04h2.24c.55,0,1.04-.07,1.45-.21.41-.14.72-.38.92-.69.29.44.91.82,2.21.82.9,0,1.81-.01,2.71-.04l3.4-.1c.44-.02.85-.03,1.2-.05.55-.03.92-.04,1.11-.04s.51,0,.95.03l3.26.15c.61.03,1.15.04,1.61.04,2,0,2.15-1.25,2.15-1.64,0-.69-.47-1.49-1.78-1.49h-.75c-.47,0-.93-.13-1.39-.4-.24-.14-.41-.32-.41-.77,0-1.29.33-2.88.99-4.75l4.44-13.31h15.59l6.87,18.45c.17.4.16.57.17.58-.03.07-.06.11-.03.11-1.1.37-1.18,1.24-1.18,1.5,0,.62.41,1.38,1.57,1.45l1.67.11c1.29.05,2.58.09,3.85.11,1.28.03,2.45.04,3.53.04h4.36c.48,0,.91-.05,1.31-.14.75-.2,1.22-.77,1.22-1.49s-.46-1.49-1.78-1.49c-.37,0-.8-.02-1.28-.07-.43-.04-.88-.15-1.44-.35-.33-.09-.69-.24-1.08-.44-.35-.19-.76-.54-1.19-1.05-.5-.58-1.04-1.37-1.61-2.35-.59-1.02-1.21-2.34-1.83-3.94l-2.79-7.2c-1.11-2.88-2.28-5.92-3.5-9.13-1.22-3.2-2.45-6.45-3.69-9.73-1.24-3.28-2.37-6.29-3.39-9.05-1.02-2.75-1.89-5.08-2.61-6.98-.73-1.9-1.19-3.1-1.38-3.61-.63-1.64-.9-2.15-1.05-2.4-.5-.81-1.12-.98-1.55-.98-.37,0-1.07.14-1.57,1.05-.23.4-.55,1.2-1.04,2.58l-16.92,47.04c-.66,1.82-1.41,3.37-2.23,4.59-.7,1.04-1.75,1.65-3.23,1.87-.27.05-.6.08-1,.1-.42.02-.75.03-.99.03-.74,0-1.22.3-1.48.7-.25-.36-.71-.62-1.39-.62-.38,0-1-.03-1.84-.07-.79-.05-1.69-.23-2.69-.56-.61-.19-1.08-.51-1.44-.99-.43-.53-.76-1.14-.99-1.79-.26-.72-.46-1.45-.59-2.18-.14-.76-.23-1.48-.29-2.2l-4.99-46.59c-.09-.81-.32-2.96-1.93-2.96-.85,0-1.54.62-2.05,1.81M58.08,1.81l-20.99,45.58L15.24,1.74C14.71.58,14.02,0,13.18,0c-.6,0-1.63.3-1.85,2.28l-5.37,49.4c-.14,1.42-.36,2.73-.65,3.91-.21.85-.66,1.29-1.5,1.46-.5.1-.91.15-1.2.18-.3.02-.58.03-.85.03-1.73,0-1.78,1.27-1.78,1.41,0,.4.17,1.71,2.3,1.71.5,0,1.09-.01,1.75-.04l3.59-.15c.47-.02.77-.03.92-.03s.43,0,.87.03c.43.02.94.04,1.54.07l2.32.09c.76.02,1.49.04,2.19.04,2.21,0,2.38-1.31,2.38-1.71,0-.7-.51-1.41-1.63-1.41-.22,0-.56-.03-1.02-.07-.43-.04-.95-.13-1.62-.28-.31-.06-.55-.21-.76-.47-.22-.28-.33-.55-.33-.87v-1.97c0-.63.02-1.23.07-1.81l2.68-31.65c.41.92.87,1.94,1.38,3.06.69,1.51,1.42,3.13,2.2,4.84.77,1.72,1.51,3.33,2.2,4.82.7,1.5,1.29,2.77,1.79,3.83.5,1.07.8,1.71.9,1.91.1.2.52,1.05,1.27,2.54.74,1.49,1.59,3.19,2.53,5.11.94,1.92,1.87,3.82,2.79,5.72.94,1.93,1.64,3.32,2.13,4.22.69,1.36,1.21,2.32,1.53,2.84.18.3.75,1.21,1.7,1.21.43,0,1.25-.17,1.82-1.33.25-.51.77-1.6,1.58-3.28l16.82-36.3,3.27,35.93c.09.62.11,1.17.07,1.62,0,.04,0,.07-.01.1-.55.25-.88.76-.88,1.4s.41,1.18,1.09,1.43c.36.13.93.24,1.96.36.7.05,1.67.1,2.89.15,1.23.05,2.49.09,3.79.12,1.3.02,2.5.04,3.6.04h2.23c.57,0,1.05-.07,1.44-.21.72-.24,1.15-.81,1.15-1.51s-.5-1.41-1.63-1.41c-.39,0-1-.02-1.84-.07-.78-.04-1.68-.23-2.69-.56-.61-.19-1.08-.51-1.44-.98-.43-.53-.76-1.14-.99-1.79-.26-.72-.46-1.45-.59-2.19-.14-.74-.23-1.47-.28-2.2L62.06,2.97c-.09-.81-.33-2.96-1.93-2.96-.85,0-1.54.62-2.05,1.81M185.88,1.81l-20.99,45.58L143.04,1.74c-.53-1.15-1.22-1.74-2.05-1.74-.6,0-1.63.3-1.85,2.28l-5.36,49.4c-.15,1.43-.37,2.74-.65,3.92-.2.85-.66,1.29-1.5,1.46-.5.1-.9.15-1.2.18-.29.02-.57.03-.84.03-1.73,0-1.78,1.27-1.78,1.41,0,.4.17,1.71,2.3,1.71.5,0,1.09-.01,1.75-.04l3.59-.15c.47-.02.78-.03.92-.03s.43,0,.87.03c.43.02.94.04,1.53.07l2.33.09c.76.02,1.49.04,2.19.04,2.21,0,2.38-1.31,2.38-1.71,0-.7-.5-1.41-1.63-1.41-.23,0-.56-.03-1.02-.07-.43-.04-.95-.13-1.62-.29-.31-.06-.55-.21-.76-.47-.22-.28-.33-.55-.33-.87v-1.97c0-.62.02-1.23.07-1.81l2.68-31.65c.41.92.87,1.94,1.38,3.05.69,1.51,1.42,3.13,2.2,4.84.77,1.72,1.51,3.33,2.2,4.82.7,1.5,1.29,2.77,1.79,3.83.5,1.07.8,1.7.91,1.92l1.27,2.54c.74,1.49,1.59,3.19,2.53,5.11.94,1.92,1.87,3.82,2.79,5.72.91,1.88,1.63,3.31,2.13,4.22.69,1.36,1.21,2.31,1.53,2.84.18.3.75,1.21,1.7,1.21.44,0,1.25-.17,1.82-1.34.25-.51.77-1.59,1.57-3.28l16.83-36.3,3.27,35.93c.09.62.11,1.17.07,1.62,0,.04,0,.07-.01.1-.55.25-.89.76-.89,1.4s.41,1.18,1.09,1.43c.36.13.92.24,1.97.37.7.05,1.67.1,2.89.15,1.23.05,2.49.09,3.79.12,1.3.02,2.5.04,3.6.04h2.24c.57,0,1.05-.07,1.45-.21.72-.24,1.15-.81,1.15-1.51s-.5-1.41-1.63-1.41c-.38,0-1-.02-1.84-.07-.78-.04-1.68-.23-2.69-.56-.61-.19-1.08-.52-1.44-.98-.42-.54-.76-1.14-.99-1.79-.26-.72-.46-1.46-.59-2.19-.14-.78-.24-1.5-.28-2.2l-4.99-46.59c-.09-.81-.33-2.96-1.92-2.96-.85,0-1.55.62-2.05,1.81M390.92,14.9l6.35,18.35h-12.24l5.89-18.35ZM390.56,1.06c-.23.41-.56,1.21-1.04,2.58l-16.92,47.04c-.66,1.82-1.41,3.36-2.23,4.58-.7,1.05-1.75,1.66-3.24,1.87-.27.05-.59.08-.99.1-.42.02-.75.03-.99.03-1.17,0-1.7.75-1.7,1.49,0,.61.32,1.64,2.45,1.64.9,0,1.8-.01,2.71-.04l3.19-.1c.53-.02,1-.04,1.41-.05.55-.03.92-.04,1.11-.04s.5,0,.95.03l3.27.15c.61.02,1.14.04,1.6.04,2.05,0,2.15-1.37,2.15-1.64,0-.55-.37-1.49-1.78-1.49h-.75c-.47,0-.93-.13-1.39-.39-.25-.14-.41-.32-.41-.77,0-1.29.33-2.88.99-4.75l4.44-13.31h15.6l6.86,18.45c.17.41.16.58.16.58-.03.06-.05.09-.06.11-1.06.37-1.15,1.23-1.15,1.49,0,.68.49,1.39,1.56,1.44l1.68.12c1.3.05,2.58.09,3.86.11,1.28.02,2.45.04,3.52.04h4.36c.49,0,.93-.05,1.3-.14.76-.19,1.23-.77,1.23-1.5,0-.69-.47-1.49-1.78-1.49-.37,0-.79-.02-1.29-.07-.43-.04-.87-.14-1.44-.35-.33-.08-.68-.23-1.07-.44-.35-.19-.75-.54-1.19-1.05-.48-.56-1.02-1.35-1.61-2.35-.58-.99-1.2-2.32-1.83-3.94l-2.79-7.19c-1.12-2.87-2.28-5.91-3.5-9.12-1.22-3.21-2.45-6.46-3.69-9.74-1.24-3.28-2.37-6.29-3.39-9.04-1.02-2.75-1.89-5.08-2.61-6.98-.73-1.9-1.19-3.1-1.38-3.6-.63-1.63-.9-2.15-1.05-2.41-.5-.81-1.12-.98-1.55-.98-.37,0-1.06.14-1.57,1.05M880.74,1.05c-2.01.7-3.76,1.72-5.19,3.02-1.45,1.31-2.57,2.88-3.35,4.68-.77,1.79-1.17,3.79-1.17,5.95,0,1.37.15,2.73.44,4.05.29,1.32.82,2.72,1.59,4.14.74,1.39,1.78,2.84,3.08,4.33,1.27,1.45,2.94,3.04,4.96,4.74l3.35,2.8c1.55,1.33,2.88,2.55,3.96,3.63,1.04,1.03,1.88,2.05,2.51,3.02.61.93,1.05,1.91,1.33,2.89.27,1,.41,2.12.41,3.33,0,1.09-.2,2.19-.61,3.29-.4,1.07-.99,2.04-1.77,2.88-.76.82-1.77,1.52-2.98,2.08-1.2.54-2.64.82-4.27.82-1.17,0-2.31-.13-3.42-.39-1.09-.25-2.1-.66-3.02-1.21-.89-.53-1.65-1.23-2.26-2.09-.61-.86-1.05-1.94-1.32-3.19-.09-.53-.15-.99-.17-1.43-.03-.46-.03-.85-.03-1.19,0-1.38-.84-1.87-1.56-1.87-.45,0-1.52.21-1.63,2.16-.05.61-.13,1.62-.22,3.04-.1,1.43-.15,3.09-.15,5.07,0,1.49.1,2.01.19,2.3.19.63.7,1.13,1.51,1.49,1.61.78,3.34,1.32,5.12,1.64,1.75.3,3.54.46,5.32.46,2.11,0,4.2-.25,6.21-.75,2.06-.51,3.96-1.4,5.64-2.62,1.39-.98,2.54-2.09,3.41-3.31.86-1.2,1.56-2.43,2.06-3.66.49-1.23.84-2.42,1.02-3.55.18-1.11.28-2.08.28-2.9,0-1.57-.16-3.11-.47-4.57-.32-1.49-.93-3-1.8-4.47-.85-1.44-2.02-2.97-3.49-4.54-1.45-1.55-3.31-3.24-5.51-5.03l-2.09-1.67c-1.75-1.38-3.22-2.63-4.36-3.72-1.11-1.06-2.01-2.05-2.67-2.96-.62-.87-1.06-1.72-1.3-2.52-.25-.84-.37-1.75-.37-2.71,0-2.49.75-4.35,2.3-5.7,1.58-1.38,3.49-2.06,5.84-2.06,1.58,0,2.92.15,3.96.45,1.06.31,1.91.66,2.53,1.05.62.4,1.07.77,1.33,1.12.44.57.54.77.61.9.13.2.32.64.5,1.52.17.82.28,1.44.33,1.89.06.35.12.63.17.82.13.5.58,1.03,1.44,1.03,1.56,0,1.56-2.09,1.56-2.77,0-2.54.05-4.47.14-5.72.1-1.34.16-2.1.16-2.31,0-.78-.55-1.56-1.78-1.56-.26,0-.55-.02-.87-.07-.35-.04-.86-.15-1.47-.28-.99-.27-2.09-.47-3.24-.6-1.15-.13-2.48-.19-3.95-.19-2.48,0-4.75.35-6.75,1.04M232.16,54.56c-2.73-1.29-5.16-3.16-7.22-5.57-2.07-2.42-3.71-5.39-4.88-8.83-1.17-3.45-1.77-7.36-1.77-11.64,0-4.01.53-7.55,1.58-10.53,1.04-2.96,2.5-5.46,4.33-7.44,1.82-1.97,4.01-3.46,6.51-4.43,2.53-.99,5.33-1.48,8.31-1.48,2.78,0,5.49.58,8.07,1.73,2.58,1.14,4.89,2.85,6.87,5.08,1.99,2.23,3.61,5.07,4.83,8.42,1.22,3.36,1.84,7.29,1.84,11.69,0,5.34-.73,9.7-2.18,12.95-1.45,3.26-3.22,5.8-5.25,7.56-2.03,1.76-4.16,2.95-6.34,3.53-2.23.6-4.17.91-5.76.91-3.2,0-6.22-.65-8.95-1.95M229.92,1.38c-2.87.91-5.47,2.16-7.73,3.73-2.26,1.56-4.23,3.41-5.85,5.48-1.6,2.04-2.95,4.22-4.03,6.48-1.07,2.26-1.87,4.59-2.39,6.93-.51,2.34-.77,4.58-.77,6.66,0,3.52.57,7.13,1.69,10.72,1.12,3.62,2.92,6.96,5.33,9.93,2.42,2.98,5.56,5.45,9.32,7.32,3.78,1.88,8.36,2.84,13.61,2.84,4.59,0,8.85-.86,12.64-2.55,3.78-1.69,7.05-4.01,9.72-6.91,2.67-2.89,4.76-6.32,6.21-10.18,1.45-3.85,2.19-8.02,2.19-12.37s-.78-8.65-2.32-12.26c-1.54-3.62-3.69-6.75-6.39-9.29-2.69-2.53-5.93-4.5-9.63-5.86-3.68-1.35-7.71-2.03-11.98-2.03-3.52,0-6.75.46-9.63,1.38"/>
    </clipPath>
  </defs>
  <g id="Slide_1" data-name="Slide 1">
    <g id="Dorado_CM" data-name="Dorado CM">
      <path class="cls-2" d="M129.15,89.61v24.6l-18.27-24.6h-4.31v31.33h4.31v-24.6l18.27,24.6h4.31v-31.33h-4.31ZM140.57,120.94h4.51v-31.33h-4.51v31.33ZM202.31,89.61v13.6h-16.71v-13.6h-4.51v31.33h4.51v-14.06h16.71v14.06h4.51v-31.33h-4.51ZM298.1,89.61l-8.18,14.96-8.18-14.96h-4.8l10.73,18.96v12.37h4.51v-12.37l10.73-18.96h-4.8ZM343.62,89.61l-11.17,22.16-11.17-22.16h-4.07l-2.35,31.33h4.31l1.57-24.41,9.41,18.77h4.61l9.41-18.77,1.57,24.41h4.31l-2.35-31.33h-4.07ZM368.76,93.56l6.27,16.32h-12.54l6.27-16.32ZM366.55,89.61l-12.99,31.33h4.61l2.94-7.57h15.24l2.99,7.57h4.61l-12.99-31.33h-4.41ZM407.91,89.61v20.42c0,2.35-.7,4.26-2.08,5.74-1.39,1.47-3.46,2.21-6.2,2.21s-4.81-.74-6.2-2.21c-1.39-1.47-2.08-3.39-2.08-5.74v-20.42h-4.51v20.23c0,1.63.28,3.16.83,4.59.55,1.43,1.37,2.67,2.45,3.72,1.08,1.05,2.41,1.87,3.99,2.47,1.59.6,3.42.89,5.51.89s3.93-.3,5.51-.89c1.59-.59,2.92-1.42,3.99-2.47,1.08-1.05,1.89-2.29,2.45-3.72.55-1.43.83-2.95.83-4.59v-20.23h-4.51ZM477.93,89.61v31.33h18.13v-3.53h-13.62v-27.8h-4.51ZM500.08,89.61v31.33h18.33v-3.53h-13.82v-10.73h13.08v-3.53h-13.08v-10.02h13.67v-3.53h-18.18ZM598.86,94.74h2.01c2.16,0,3.86.38,5.12,1.15,1.26.77,1.89,1.97,1.89,3.6,0,1.76-.65,3.06-1.96,3.9-1.31.85-3.1,1.27-5.39,1.27h-1.67v-9.93ZM592,89.61v31.33h6.86v-11.15h1.32c2.03,0,3.93-.21,5.71-.64,1.78-.42,3.32-1.07,4.63-1.93,1.31-.86,2.34-1.94,3.09-3.22.75-1.29,1.13-2.79,1.13-4.52s-.35-3.16-1.05-4.4c-.7-1.24-1.67-2.27-2.92-3.08-1.24-.82-2.7-1.42-4.38-1.81-1.68-.39-3.5-.59-5.46-.59h-8.92ZM624.83,94.74h2.84c2.09,0,3.79.36,5.1,1.08,1.31.72,1.96,1.88,1.96,3.48,0,1.73-.72,3.03-2.16,3.91-1.44.88-3.33,1.32-5.68,1.32h-2.06v-9.78ZM617.97,89.61v31.33h6.86v-11.43h2.2l9.46,11.43h8.53l-11.03-12.65c2.45-.82,4.33-1.98,5.64-3.5,1.31-1.52,1.96-3.39,1.96-5.62,0-1.6-.34-2.99-1.03-4.19-.69-1.19-1.64-2.19-2.87-2.99-1.23-.8-2.69-1.39-4.39-1.79-1.7-.39-3.56-.59-5.59-.59h-9.75ZM647.47,89.61v31.33h19.75v-5.22h-12.89v-8.09h12.15v-5.22h-12.15v-7.57h12.74v-5.22h-19.6ZM699.7,89.61l-10,20.23-10-20.23h-6.17l-2.4,31.33h6.71l1.13-19.47,7.2,14.21h7.06l7.2-14.21,1.13,19.47h6.71l-2.4-31.33h-6.17ZM713.32,120.94h6.86v-31.33h-6.86v31.33ZM746.3,89.61v20.36c0,1.98-.56,3.53-1.67,4.64-1.11,1.11-2.76,1.67-4.95,1.67s-3.84-.56-4.95-1.67c-1.11-1.11-1.67-2.66-1.67-4.64v-20.36h-6.86v20.04c0,1.79.31,3.41.93,4.87.62,1.46,1.5,2.71,2.65,3.74,1.14,1.03,2.55,1.83,4.21,2.4,1.67.56,3.56.85,5.68.85s3.98-.28,5.66-.85c1.68-.56,3.1-1.36,4.24-2.4,1.14-1.03,2.03-2.28,2.65-3.74.62-1.46.93-3.08.93-4.87v-20.04h-6.86ZM786.43,89.61l-10,20.23-9.99-20.23h-6.17l-2.4,31.33h6.71l1.13-19.47,7.2,14.21h7.06l7.2-14.21,1.13,19.47h6.71l-2.4-31.33h-6.17ZM160.14,90.27c-2.11.82-3.88,1.94-5.32,3.39-1.44,1.44-2.54,3.15-3.31,5.13-.77,1.97-1.15,4.14-1.15,6.49s.38,4.52,1.15,6.49c.77,1.98,1.87,3.69,3.31,5.13,1.44,1.44,3.21,2.57,5.32,3.39,2.11.82,4.5,1.22,7.18,1.22,1.47,0,3-.13,4.61-.4,1.6-.27,2.94-.62,4.02-1.06l-.73-3.34c-1.11.38-2.3.68-3.58.92-1.27.23-2.53.35-3.77.35-4.08,0-7.27-1.1-9.55-3.29-2.29-2.19-3.43-5.33-3.43-9.41s1.14-7.21,3.43-9.41c2.29-2.19,5.47-3.29,9.55-3.29,1.24,0,2.5.12,3.77.35,1.27.23,2.47.54,3.58.92l.73-3.34c-1.08-.44-2.42-.79-4.02-1.06-1.6-.27-3.14-.4-4.61-.4-2.68,0-5.07.41-7.18,1.22M222.94,117.03c-1.44-.66-2.63-1.57-3.58-2.73-.95-1.16-1.67-2.52-2.16-4.07-.49-1.55-.73-3.21-.73-4.96s.24-3.41.73-4.96c.49-1.55,1.21-2.9,2.16-4.05.95-1.14,2.14-2.05,3.58-2.73,1.44-.67,3.09-1.01,4.95-1.01s3.51.34,4.95,1.01c1.44.67,2.63,1.58,3.58,2.73.95,1.14,1.67,2.49,2.15,4.05.49,1.55.74,3.21.74,4.96s-.25,3.41-.74,4.96c-.49,1.55-1.21,2.91-2.15,4.07-.95,1.16-2.14,2.07-3.58,2.73-1.44.66-3.09.99-4.95.99s-3.51-.33-4.95-.99M221.08,90.36c-1.99.88-3.66,2.05-5,3.53-1.34,1.47-2.36,3.2-3.06,5.18-.7,1.97-1.05,4.05-1.05,6.21s.35,4.23,1.05,6.21c.7,1.97,1.72,3.7,3.06,5.17,1.34,1.47,3.01,2.65,5,3.53,1.99.88,4.26,1.32,6.81,1.32s4.82-.44,6.81-1.32c1.99-.88,3.66-2.05,5-3.53,1.34-1.47,2.36-3.2,3.06-5.17.7-1.98,1.05-4.05,1.05-6.21s-.35-4.23-1.05-6.21c-.7-1.98-1.72-3.7-3.06-5.18-1.34-1.47-3.01-2.65-5-3.53-1.99-.88-4.26-1.32-6.81-1.32s-4.82.44-6.81,1.32M253.81,89.56c-1.27.35-2.37.86-3.28,1.55-.91.69-1.63,1.55-2.13,2.59-.51,1.03-.76,2.23-.76,3.58,0,1.19.24,2.23.71,3.13.47.89,1.1,1.69,1.89,2.4.79.71,1.69,1.33,2.72,1.88,1.03.55,2.1,1.07,3.21,1.58.98.44,1.9.86,2.77,1.27.86.41,1.62.87,2.28,1.39s1.17,1.1,1.54,1.74c.37.64.56,1.42.56,2.33,0,1.63-.65,2.88-1.96,3.74-1.31.86-3.02,1.29-5.15,1.29-1.47,0-2.93-.17-4.38-.52-1.45-.34-2.79-.78-3.99-1.32l-.88,3.43c1.37.63,2.88,1.1,4.53,1.41,1.65.31,3.26.47,4.83.47s3.1-.2,4.49-.61c1.39-.41,2.6-.99,3.62-1.74,1.03-.75,1.85-1.66,2.45-2.73.6-1.07.91-2.27.91-3.62s-.33-2.65-.98-3.72c-.65-1.07-1.47-2-2.45-2.8-.98-.8-2.06-1.49-3.23-2.07-1.18-.58-2.29-1.12-3.33-1.62-1.05-.5-1.94-.95-2.67-1.34-.73-.39-1.32-.8-1.76-1.22-.44-.42-.76-.88-.96-1.36-.2-.49-.29-1.06-.29-1.71,0-2.95,1.98-4.42,5.93-4.42,1.37,0,2.73.17,4.07.52,1.34.34,2.53.78,3.58,1.32l.83-3.43c-1.11-.56-2.41-1.02-3.9-1.36-1.49-.34-3.01-.52-4.58-.52s-2.94.17-4.21.52M423.93,89.56c-1.27.35-2.37.86-3.28,1.55-.92.69-1.63,1.55-2.13,2.59-.51,1.03-.76,2.23-.76,3.58,0,1.19.24,2.23.71,3.13.47.89,1.1,1.69,1.89,2.4.78.71,1.69,1.33,2.72,1.88,1.03.55,2.1,1.07,3.21,1.58.98.44,1.9.86,2.77,1.27.86.41,1.62.87,2.28,1.39.65.52,1.17,1.1,1.54,1.74.38.64.56,1.42.56,2.33,0,1.63-.65,2.88-1.96,3.74-1.31.86-3.02,1.29-5.15,1.29-1.47,0-2.93-.17-4.39-.52-1.45-.34-2.78-.78-3.99-1.32l-.88,3.43c1.37.63,2.88,1.1,4.53,1.41,1.65.31,3.26.47,4.83.47s3.09-.2,4.48-.61c1.39-.41,2.6-.99,3.63-1.74,1.03-.75,1.84-1.66,2.45-2.73.6-1.07.91-2.27.91-3.62s-.33-2.65-.98-3.72c-.65-1.07-1.47-2-2.45-2.8-.98-.8-2.06-1.49-3.23-2.07s-2.29-1.12-3.33-1.62c-1.05-.5-1.94-.95-2.67-1.34-.73-.39-1.32-.8-1.76-1.22-.44-.42-.76-.88-.96-1.36-.2-.49-.29-1.06-.29-1.71,0-2.95,1.98-4.42,5.93-4.42,1.37,0,2.73.17,4.07.52,1.34.34,2.53.78,3.58,1.32l.83-3.43c-1.11-.56-2.41-1.02-3.9-1.36-1.49-.34-3.01-.52-4.58-.52s-2.94.17-4.21.52M451.91,117.03c-1.44-.66-2.63-1.57-3.58-2.73-.95-1.16-1.67-2.52-2.15-4.07-.49-1.55-.74-3.21-.74-4.96s.25-3.41.74-4.96c.49-1.55,1.21-2.9,2.15-4.05.95-1.14,2.14-2.05,3.58-2.73,1.44-.67,3.09-1.01,4.95-1.01s3.51.34,4.95,1.01c1.44.67,2.63,1.58,3.58,2.73s1.67,2.49,2.16,4.05c.49,1.55.73,3.21.73,4.96s-.24,3.41-.73,4.96c-.49,1.55-1.21,2.91-2.16,4.07-.95,1.16-2.14,2.07-3.58,2.73-1.44.66-3.09.99-4.95.99s-3.51-.33-4.95-.99M450.05,90.36c-1.99.88-3.66,2.05-5,3.53-1.34,1.47-2.36,3.2-3.06,5.18-.7,1.97-1.05,4.05-1.05,6.21s.35,4.23,1.05,6.21c.7,1.97,1.72,3.7,3.06,5.17,1.34,1.47,3.01,2.65,5,3.53,1.99.88,4.26,1.32,6.81,1.32s4.82-.44,6.81-1.32c1.99-.88,3.66-2.05,5-3.53,1.34-1.47,2.36-3.2,3.06-5.17.7-1.98,1.05-4.05,1.05-6.21s-.35-4.23-1.05-6.21c-.7-1.98-1.72-3.7-3.06-5.18-1.34-1.47-3.01-2.65-5-3.53s-4.26-1.32-6.81-1.32-4.82.44-6.81,1.32M533.35,117.03c-1.44-.66-2.63-1.57-3.58-2.73-.95-1.16-1.67-2.52-2.15-4.07-.49-1.55-.74-3.21-.74-4.96s.25-3.41.74-4.96c.49-1.55,1.21-2.9,2.15-4.05.95-1.14,2.14-2.05,3.58-2.73,1.44-.67,3.09-1.01,4.95-1.01s3.51.34,4.95,1.01c1.44.67,2.63,1.58,3.58,2.73s1.67,2.49,2.16,4.05c.49,1.55.73,3.21.73,4.96s-.24,3.41-.73,4.96c-.49,1.55-1.21,2.91-2.16,4.07-.95,1.16-2.14,2.07-3.58,2.73-1.44.66-3.09.99-4.95.99s-3.51-.33-4.95-.99M531.49,90.36c-1.99.88-3.66,2.05-5,3.53-1.34,1.47-2.36,3.2-3.06,5.18-.7,1.97-1.05,4.05-1.05,6.21s.35,4.23,1.05,6.21c.7,1.97,1.72,3.7,3.06,5.17,1.34,1.47,3.01,2.65,5,3.53,1.99.88,4.26,1.32,6.81,1.32s4.82-.44,6.81-1.32c1.99-.88,3.66-2.05,5-3.53,1.34-1.47,2.36-3.2,3.06-5.17.7-1.98,1.05-4.05,1.05-6.21s-.35-4.23-1.05-6.21c-.7-1.98-1.72-3.7-3.06-5.18-1.34-1.47-3.01-2.65-5-3.53s-4.26-1.32-6.81-1.32-4.82.44-6.81,1.32M564.22,89.56c-1.27.35-2.37.86-3.28,1.55-.92.69-1.63,1.55-2.13,2.59-.51,1.03-.76,2.23-.76,3.58,0,1.19.24,2.23.71,3.13.47.89,1.1,1.69,1.89,2.4.78.71,1.69,1.33,2.72,1.88,1.03.55,2.1,1.07,3.21,1.58.98.44,1.9.86,2.77,1.27.87.41,1.62.87,2.28,1.39.65.52,1.17,1.1,1.54,1.74.38.64.56,1.42.56,2.33,0,1.63-.65,2.88-1.96,3.74-1.31.86-3.02,1.29-5.15,1.29-1.47,0-2.93-.17-4.39-.52-1.45-.34-2.78-.78-3.99-1.32l-.88,3.43c1.37.63,2.88,1.1,4.53,1.41,1.65.31,3.26.47,4.83.47s3.09-.2,4.48-.61c1.39-.41,2.6-.99,3.63-1.74,1.03-.75,1.85-1.66,2.45-2.73.6-1.07.91-2.27.91-3.62s-.33-2.65-.98-3.72c-.65-1.07-1.47-2-2.45-2.8-.98-.8-2.06-1.49-3.23-2.07-1.18-.58-2.29-1.12-3.33-1.62-1.05-.5-1.94-.95-2.67-1.34-.73-.39-1.32-.8-1.76-1.22-.44-.42-.76-.88-.96-1.36-.2-.49-.29-1.06-.29-1.71,0-2.95,1.98-4.42,5.93-4.42,1.37,0,2.73.17,4.07.52,1.34.34,2.53.78,3.58,1.32l.83-3.43c-1.11-.56-2.41-1.02-3.9-1.36-1.49-.34-3.01-.52-4.58-.52s-2.94.17-4.21.52M659.9,56.18c-1.45-.17-2.64-.4-3.54-.68-.85-.26-1.53-.56-1.96-.85-.41-.29-.72-.56-.9-.83,0,0-.1-.14-.19-.58-.09-.43-.16-.89-.21-1.39l-.15-1.7c-.04-.55-.07-1.04-.07-1.47,0-.27-.01-.75-.02-1.43v-.65c-.04-1-.06-2.24-.09-3.7-.03-1.46-.04-3.1-.04-4.9V13.57c0-1.48.01-2.82.04-4.03.03-1.22.04-2.16.04-2.82,0-.45.14-.51.17-.53.13-.04.36-.1.67-.16.34-.07.75-.13,1.2-.17.48-.05.95-.09,1.4-.11.45-.02.87-.04,1.25-.04,2.15,0,4.35.09,6.51.26,2.09.17,4.14.55,6.09,1.13,1.94.58,3.87,1.43,5.73,2.52,1.83,1.07,3.61,2.53,5.28,4.31.72.78,1.49,1.75,2.3,2.89.8,1.12,1.56,2.47,2.25,3.99.69,1.53,1.26,3.26,1.68,5.14.43,1.88.64,4.02.64,6.36,0,1.71-.12,3.42-.35,5.07-.25,1.67-.62,3.28-1.12,4.79-.5,1.52-1.11,2.95-1.83,4.26-.7,1.28-1.49,2.37-2.36,3.25-2.12,2.15-4.67,3.83-7.58,4.99-2.93,1.16-6.1,1.74-9.42,1.74-2.13,0-3.96-.09-5.43-.26M655.25,1.1c-1.09.02-2.1.05-3.02.08-.92.02-1.72.05-2.39.07-.65.03-1.08.04-1.26.04-.1,0-.42-.01-.96-.04-.58-.02-1.28-.05-2.1-.07-.82-.03-1.71-.05-2.65-.08-.95-.02-1.85-.04-2.71-.04-2.07,0-2.23,1.26-2.23,1.64,0,.72.51,1.49,1.63,1.49.34,0,.75.01,1.25.04.55.03.84.1,1.08.17.91.18,1.54.5,1.78.89.31.51.51,1.34.6,2.49.05.59.08,1.23.11,1.89.02.67.03,1.57.03,2.69v25.04c0,3.63-.01,6.88-.04,9.73-.03,2.82-.13,5.04-.33,6.57-.14,1.03-.33,1.91-.58,2.59-.16.42-.38.63-.85.73-.31.09-.63.15-.97.19-.35.05-.68.07-.98.07-1.12,0-1.63.75-1.63,1.49,0,.39.16,1.64,2.23,1.64.57,0,1.26-.03,2.07-.08.77-.05,1.52-.07,2.32-.07.77-.05,1.42-.08,1.94-.08h.97c.19,0,.83.05,1.92.15,1.14.1,2.54.21,4.2.31,1.59.1,3.32.2,5.18.3,1.87.1,3.63.16,5.24.16,3.23,0,6.14-.3,8.66-.9,2.5-.6,4.73-1.36,6.62-2.27,1.89-.91,3.53-1.91,4.85-2.97,1.3-1.03,2.38-2.01,3.2-2.9,1.07-1.13,2.12-2.48,3.13-4,1.01-1.52,1.9-3.22,2.66-5.06.77-1.85,1.39-3.89,1.84-6.05.46-2.18.69-4.52.69-6.96s-.21-4.53-.61-6.5c-.4-1.95-.96-3.79-1.66-5.46-.69-1.63-1.5-3.13-2.41-4.46-.88-1.28-1.83-2.47-2.83-3.54-2.32-2.41-4.91-4.26-7.7-5.49-2.75-1.21-5.56-2.09-8.35-2.61-2.78-.52-5.49-.79-8.04-.82-2.51-.02-4.69-.04-6.53-.04-1.15,0-2.28.01-3.38.04M296.41,31.41c-1.79-.27-2.45-.56-2.73-.76V5.93c.3-.06.8-.15,1.61-.24.88-.1,1.87-.14,2.95-.14,3.74,0,6.58,1.2,8.68,3.65,2.11,2.47,3.18,5.99,3.18,10.46,0,2.72-.41,5.04-1.22,6.9-.79,1.81-1.77,3.13-2.89,3.93h0c-.73.53-1.5.85-2.34,1-.92.16-1.82.25-2.65.25-1.6,0-3.14-.11-4.58-.33M296.35,1.1l-2.72.07c-.58.01-1.13.03-1.63.05l-.84.03c-.7.02-1.14.04-1.34.04-.1,0-.41-.02-.97-.04l-.52-.02c-.46-.02-.99-.04-1.57-.06-.82-.02-1.71-.05-2.64-.07-.95-.03-1.86-.04-2.71-.04-2.07,0-2.23,1.26-2.23,1.64,0,.72.51,1.49,1.63,1.49.34,0,.75.01,1.25.04.54.03.81.09.94.13l.13.04c.91.19,1.55.5,1.78.88.21.35.49,1.08.6,2.51.05.59.09,1.22.11,1.89.02.67.04,1.57.04,2.69v25.04c0,3.64-.01,6.88-.04,9.73-.03,2.83-.14,5.04-.33,6.57-.14,1.04-.34,1.91-.58,2.59-.15.42-.37.62-.84.72-.3.09-.62.15-.96.19-.35.04-.68.06-.99.06-1.13,0-1.63.75-1.63,1.49,0,.38.16,1.64,2.23,1.64.56,0,1.24,0,2.05-.04l2.31-.08c.75-.02,1.65-.06,2.65-.11.09,0,.41.01.96.04.57.03,1.3.06,2.18.08l2.87.08c1.05.03,2.1.04,3.16.04,2.07,0,2.23-1.25,2.23-1.64,0-.74-.5-1.49-1.63-1.49-.33,0-.81-.02-1.45-.07-.62-.05-1.2-.12-1.77-.22-1.15-.15-1.36-.62-1.43-.77-.3-.65-.49-1.48-.58-2.51-.2-1.57-.31-3.79-.33-6.58-.02-2.85-.04-6.09-.04-9.73v-1.38l8.65.14c.06,0,.12.04.18.09.35.5.82,1.15,1.41,1.95.62.83,1.28,1.75,2,2.75.72,1.01,1.48,2.07,2.28,3.18.79,1.12,1.59,2.21,2.39,3.28,2.12,2.86,3.96,5.25,5.47,7.11,1.57,1.94,3.23,3.4,4.9,4.29,1.04.61,2.21,1.04,3.47,1.26,1.2.21,2.84.31,5.02.31h5.29c.83,0,1.36-.05,1.72-.16.68-.21,1.1-.78,1.1-1.48,0-.74-.53-1.49-1.71-1.49-.24,0-.59,0-1.06-.03-.47-.02-1.04-.08-1.68-.18-.86-.14-2.03-.52-3.48-1.14-1.4-.59-3.09-1.94-5.01-3.99-2.13-2.32-4.49-5.15-7.02-8.42l-7.85-10.17c3.05-2.98,5.26-5.89,6.55-8.64,1.4-2.97,2.11-5.99,2.11-8.96,0-1.42-.2-2.75-.61-3.96-.39-1.17-.88-2.24-1.44-3.16-.56-.93-1.17-1.74-1.81-2.4-.63-.67-1.18-1.19-1.71-1.61-2.11-1.56-4.45-2.55-6.97-2.95-2.4-.39-4.85-.58-7.28-.58-.61,0-1.36.01-2.26.04M353.31,1.1l-4.3.15c-.54.03-.86.04-.95.04s-.42-.02-.97-.04l-4.37-.15c-.86-.02-1.59-.04-2.19-.04-2.07,0-2.23,1.26-2.23,1.64,0,.74.51,1.49,1.63,1.49.22,0,.53.02.93.07.4.04.77.11,1.14.2.38.09,1.55.36,1.73,3.32.05.59.09,1.22.11,1.89.03.67.04,1.57.04,2.68v25.04c0,3.63,0,6.87-.04,9.72-.02,2.77-.13,4.99-.32,6.58-.14,1.03-.34,1.9-.59,2.59-.15.42-.37.62-.85.72-.29.09-.61.15-.96.19-.35.04-.68.07-.98.07-1.13,0-1.63.75-1.63,1.49,0,.38.16,1.64,2.23,1.64.55,0,1.23-.01,2.04-.04l2.31-.07c.75-.03,1.41-.05,1.99-.08.54-.03.86-.04.96-.04s.41.01.96.04c.58.02,1.3.05,2.18.08l2.88.07c1.05.02,2.1.04,3.15.04,2.06,0,2.22-1.25,2.22-1.64,0-.72-.51-1.49-1.63-1.49-.33,0-.82-.02-1.46-.07-.62-.04-1.19-.11-1.76-.22-1.15-.15-1.36-.61-1.43-.77-.3-.64-.49-1.47-.58-2.5-.19-1.55-.3-3.77-.33-6.59-.02-2.85-.04-6.09-.04-9.72V12.36c0-1.12.01-2.01.03-2.68.03-.67.06-1.3.11-1.9.11-1.45.38-2.2.58-2.58.08-.15.32-.6,1.38-.81.38-.09.7-.15.94-.17.24-.02.46-.04.69-.04,1.12,0,1.63-.77,1.63-1.49,0-.39-.16-1.64-2.22-1.64-.56,0-1.24.01-2.05.04M443,1.1l-4.82.15c-.62.03-.98.04-1.07.04s-.42-.02-1.02-.04l-4.69-.15c-.95-.02-1.86-.04-2.71-.04-2.06,0-2.22,1.26-2.22,1.64,0,.72.51,1.49,1.63,1.49.34,0,.75.01,1.26.04.53.02.8.09.94.13l.13.04c.91.19,1.55.5,1.78.88.21.35.49,1.08.6,2.5.05.59.09,1.22.11,1.88.02.67.04,1.57.04,2.69v25.04c0,3.63-.02,6.88-.04,9.72-.02,2.77-.13,4.99-.32,6.57-.14,1.04-.34,1.91-.59,2.59-.15.42-.37.62-.84.72-.3.09-.62.15-.96.19-.35.04-.68.07-.98.07-1.12,0-1.63.75-1.63,1.49,0,.38.16,1.64,2.22,1.64.56,0,1.23-.01,2.01-.04.78-.03,1.55-.07,2.24-.11.76,0,1.44-.02,2.02-.04.55-.03.89-.04,1.04-.04,1.08,0,2.21,0,3.41.04,1.17.02,2.55.09,4.16.19,1.59.05,3.39.1,5.37.15,1.99.05,4.34.08,7.03.08,1.01,0,1.83-.03,2.44-.08.7-.06,1.25-.19,1.68-.41.5-.26.87-.62,1.09-1.07.15-.29.3-.68.49-1.26.15-.57.29-1.26.43-2.11.12-.78.25-1.55.37-2.31.13-.78.21-1.49.27-2.12.05-.65.08-1.08.08-1.29,0-1.96-1.04-2.17-1.48-2.17s-1.44.18-1.69,1.88c-.09.61-.29,1.32-.61,2.1-.31.76-.68,1.41-1.11,1.94-.73.9-1.71,1.42-3.02,1.59-1.5.2-3.25.3-5.19.3-1.45,0-2.63-.04-3.61-.11-.97-.07-1.79-.16-2.42-.28-.57-.11-1.02-.25-1.34-.43-.34-.18-.62-.39-.87-.64-.18-.17-.77-.97-1.02-4.33-.2-2.62-.3-6.75-.3-12.27V12.36c0-1.11.01-2.01.04-2.68.03-.67.06-1.3.11-1.9.11-1.45.38-2.2.58-2.58.21-.39.71-.66,1.53-.81.37-.09.77-.14,1.2-.16.45-.03.79-.04,1.02-.04,1.12,0,1.63-.77,1.63-1.49,0-.39-.16-1.64-2.23-1.64-.56,0-1.27.01-2.16.04M738.41.79s-.07.04-.15.07c-.63.14-1.66.26-2.98.35-.45,0-1.56.01-3.34.04-1.76.03-3.64.04-5.65.04h-8.03s-3.05-.15-3.05-.15c-.86-.05-1.78-.08-2.75-.08h-2.68c-2.07,0-2.23,1.26-2.23,1.64,0,.72.51,1.49,1.63,1.49.33,0,.75,0,1.25.04.56.03.84.1,1.08.17.91.18,1.54.5,1.78.88.21.35.49,1.07.6,2.5.05.59.08,1.22.11,1.89.02.67.03,1.57.03,2.69v25.04c0,3.63-.01,6.88-.04,9.72-.03,2.87-.13,5.03-.33,6.58-.14,1.03-.33,1.9-.58,2.59-.15.42-.37.63-.84.73-.3.08-.61.15-.97.19-.35.04-.68.07-.99.07-1.13,0-1.63.75-1.63,1.49,0,.39.16,1.64,2.23,1.64.57,0,1.26-.03,2.08-.08.77-.05,1.52-.07,2.32-.07.77-.05,1.41-.08,1.94-.08h.97c.54,0,1.27.01,2.21.04.93.02,2.11.08,3.57.19,1.44.05,3.2.1,5.26.15,2.07.05,4.53.07,7.37.07.77,0,1.39-.02,1.85-.04.57-.03,1.04-.13,1.48-.32.5-.23.88-.57,1.14-1.01.19-.33.37-.79.55-1.44.11-.45.21-1.06.32-1.87l.3-2.32c.1-.78.19-1.5.26-2.13.08-.69.12-1.12.12-1.29,0-.28-.01-.57-.04-.85-.07-.78-.66-1.32-1.44-1.32-.86,0-1.42.66-1.69,2.01-.23,1.43-.55,2.51-.98,3.23-.38.64-.95,1.11-1.74,1.43-.88.36-1.97.57-3.24.64-1.37.07-2.56.11-3.52.11-1.8,0-3.24-.07-4.26-.22-.92-.13-1.62-.37-2.1-.71-.43-.32-.72-.75-.89-1.33-.2-.72-.32-1.71-.37-2.9v-19.05c.33,0,.79.02,1.36.04l3.14.07c1.11.03,2.19.07,3.26.12,1.04.04,1.8.1,2.28.14,1.61.17,2.12.55,2.26.7.38.41.62.81.73,1.22.13.42.2.79.22,1.09.02.36.03.73.03,1.12,0,1.18.78,1.71,1.56,1.71.58,0,1.31-.36,1.47-1.38.05-.38.08-.74.08-1.09,0-.12.01-.31.03-.57v-.16c.03-.38.06-.81.08-1.31l.07-1.43c.03-.45.06-.87.11-1.3.1-1.21.22-2.13.35-2.73.17-.79.25-1.26.25-1.59,0-1.13-.71-1.64-1.41-1.64-.58,0-1.09.37-1.9,1.34-.19.23-.43.36-.75.41-.53.1-1.22.2-2.09.29-.4.05-1.19.08-2.36.11-1.18.02-2.44.04-3.74.04h-5.04V6.08h1.17c.96,0,2.01.01,3.14.04h.21c1.07.03,2.09.05,3.07.07,1.34.03,1.75.08,1.91.1,2.38.3,3.22.67,3.5.85.48.32.79.68.97,1.11.15.35.25.76.29,1.19.04.52.07.89.07,1.13,0,1.49.88,2.02,1.63,2.02.57,0,1.05-.34,1.29-.9.09-.22.18-.46.24-.74.06-.26.1-.65.13-1.2.02-.46.06-.95.11-1.47.05-.54.09-1.05.12-1.52.02-.48.04-.82.03-.94.1-1,.21-1.74.34-2.2.18-.63.26-1.1.26-1.46,0-1.63-1.11-1.71-1.33-1.71-.41,0-.78.11-1.11.34M114.21.79s-.08.05-.16.07c-.46.1-1.36.24-2.98.36-.29,0-.85,0-1.69.02l-1.64.02c-1.76.03-3.64.04-5.65.04h-8.03s-3.05-.15-3.05-.15c-.86-.05-1.78-.07-2.74-.07h-2.68c-2.07,0-2.23,1.26-2.23,1.64,0,.72.51,1.49,1.63,1.49.33,0,.75.01,1.25.04.54.03.81.09.94.13l.14.04c.91.19,1.55.5,1.78.88.21.36.49,1.08.6,2.5.04.6.08,1.23.11,1.89.02.67.04,1.57.04,2.69v25.04c0,3.63-.01,6.88-.04,9.73-.03,2.82-.14,5.03-.33,6.57-.14,1.03-.33,1.91-.58,2.59-.15.42-.37.62-.84.72-.3.08-.61.15-.97.19-.35.04-.68.07-.99.07-1.12,0-1.63.77-1.63,1.49,0,.38.16,1.64,2.23,1.64.57,0,1.26-.03,2.08-.08.77-.05,1.52-.07,2.31-.07.77-.05,1.42-.08,1.94-.08h.97c.53,0,1.27,0,2.2.04.93.03,2.11.09,3.57.19,1.44.05,3.2.1,5.26.15,2.04.05,4.45.08,7.37.08.77,0,1.39-.02,1.85-.04.56-.03,1.06-.14,1.47-.32.5-.22.88-.56,1.14-1.01.2-.33.37-.78.56-1.45.1-.44.21-1.05.32-1.86l.3-2.32c.1-.78.19-1.5.26-2.13.08-.7.12-1.13.12-1.29,0-.28-.01-.57-.04-.86-.07-.79-.65-1.31-1.44-1.31-.86,0-1.43.66-1.69,2.01-.23,1.43-.56,2.52-.98,3.23-.39.64-.96,1.11-1.74,1.43-.88.36-1.97.58-3.24.65-3.65.2-6.18.12-7.78-.1-.92-.13-1.62-.37-2.1-.72-.43-.32-.72-.75-.88-1.32-.2-.74-.33-1.73-.37-2.9v-19.05c.21,0,.47.01.78.02h.58c.97.04,2.01.07,3.13.09,1.11.03,2.19.06,3.25.11,1.04.05,1.81.1,2.28.15,1.61.17,2.12.55,2.26.7.38.41.62.81.73,1.22.13.43.2.8.22,1.08.02.36.03.73.03,1.12,0,1.18.78,1.71,1.55,1.71.59,0,1.32-.36,1.47-1.36.06-.39.09-.76.09-1.11,0-.14.01-.39.03-.72l.15-2.74c.03-.46.06-.88.11-1.31.1-1.22.21-2.14.35-2.74.17-.76.25-1.25.25-1.59,0-1.13-.71-1.64-1.4-1.64-.58,0-1.1.37-1.91,1.35-.19.22-.42.35-.74.41-.53.1-1.23.2-2.08.29-.26.03-.91.08-2.37.11-1.18.03-2.43.04-3.74.04h-5.04V6.08h1.17c.96,0,2.01.02,3.14.04,1.14.02,2.24.05,3.28.08,1.33.03,1.75.08,1.9.1,2.39.31,3.23.67,3.51.86.47.32.79.67.97,1.11.15.34.25.74.29,1.19.05.51.07.88.07,1.12,0,1.92,1.36,2.02,1.63,2.02.56,0,1.05-.33,1.3-.91.09-.22.17-.46.23-.72.06-.26.11-.65.14-1.21.02-.46.06-.96.11-1.48.05-.54.08-1.03.12-1.52v-.18c.02-.38.04-.66.03-.75.09-1,.21-1.74.34-2.2.18-.63.26-1.09.26-1.46,0-1.63-1.11-1.72-1.33-1.72-.41,0-.78.11-1.11.34M832.36,14.9l6.35,18.36h-12.24l5.89-18.36ZM772.32,31.42c-1.79-.27-2.45-.57-2.73-.76V5.93c.36-.07.91-.15,1.61-.24.86-.1,1.85-.14,2.94-.14,3.74,0,6.58,1.2,8.68,3.66,2.11,2.47,3.18,5.99,3.18,10.46,0,2.72-.41,5.04-1.22,6.9-.8,1.81-1.77,3.14-2.89,3.92h0c-.73.53-1.49.85-2.34,1-1.09.19-2.13.27-3.14.27-1.44,0-2.79-.16-4.09-.35M832.01,1.05c-.23.41-.55,1.18-1.05,2.59l-16.91,47.04c-.66,1.83-1.41,3.37-2.24,4.59-.63.94-1.53,1.52-2.78,1.79-.87-.14-2.04-.53-3.48-1.14-1.4-.59-3.09-1.93-5.01-3.99-2.14-2.32-4.5-5.15-7.02-8.42-2.38-3.08-5-6.47-7.86-10.17,3.06-2.98,5.26-5.89,6.55-8.64,1.4-2.97,2.11-5.98,2.11-8.96,0-1.42-.21-2.75-.61-3.96-.39-1.17-.88-2.23-1.44-3.16-.58-.94-1.18-1.75-1.81-2.41-.62-.66-1.18-1.19-1.71-1.61-2.11-1.55-4.46-2.54-6.97-2.95-2.4-.39-4.85-.59-7.28-.59-.6,0-1.36.01-2.26.04l-2.72.08c-.92.02-1.75.05-2.47.07-.7.03-1.14.04-1.34.04-.1,0-.42-.01-.96-.04-.58-.03-1.28-.05-2.1-.07-.82-.03-1.71-.05-2.66-.08-.95-.02-1.86-.04-2.71-.04-2.07,0-2.23,1.26-2.23,1.64,0,.74.5,1.49,1.63,1.49.34,0,.76.01,1.25.04.55.03.84.1,1.08.17.93.19,1.54.49,1.78.89.21.35.49,1.07.6,2.5.05.59.08,1.23.11,1.88.02.67.04,1.57.04,2.69v25.04c0,3.63-.02,6.88-.04,9.72-.03,2.8-.14,5.01-.33,6.57-.14,1.05-.34,1.92-.58,2.59-.15.42-.37.62-.84.72-.3.08-.62.15-.96.19-.35.04-.68.07-.99.07-1.13,0-1.63.75-1.63,1.49,0,.39.16,1.64,2.22,1.64.56,0,1.24-.02,2.05-.04l2.31-.07c.75-.02,1.65-.06,2.65-.11.09,0,.41.02.97.04.57.02,1.3.05,2.17.07l2.87.07c1.05.02,2.1.04,3.16.04,2.07,0,2.23-1.26,2.23-1.64,0-.74-.51-1.49-1.64-1.49-.33,0-.81-.02-1.45-.07-.61-.04-1.18-.12-1.76-.22-1.15-.15-1.36-.62-1.44-.77-.3-.64-.49-1.47-.58-2.5-.2-1.56-.31-3.71-.33-6.58-.03-2.85-.04-6.09-.04-9.72v-1.38l8.65.14c.05,0,.12.05.17.09.35.5.82,1.15,1.42,1.95.62.83,1.29,1.75,2,2.75.72,1.01,1.48,2.08,2.28,3.19.8,1.11,1.6,2.21,2.39,3.27,2.2,2.95,3.98,5.28,5.47,7.11,1.57,1.94,3.23,3.39,4.9,4.29,1.05.62,2.22,1.05,3.48,1.27,1.21.21,2.9.32,5.02.32h6.37v-.09l1.72-.06c.45-.02.85-.03,1.2-.05.55-.03.92-.04,1.11-.04s.5,0,.94.03l3.26.15c.61.03,1.15.04,1.61.04,1.99,0,2.15-1.25,2.15-1.64,0-.69-.47-1.49-1.78-1.49h-.75c-.47,0-.93-.13-1.39-.4-.24-.14-.4-.32-.4-.77,0-1.29.33-2.88.99-4.75l4.44-13.31h15.6l6.86,18.45c.17.41.16.58.17.58-.03.07-.06.1-.03.1-1.1.37-1.18,1.23-1.18,1.5,0,.62.41,1.38,1.56,1.45l1.67.11c1.3.05,2.58.09,3.86.11,1.28.03,2.45.04,3.52.04h4.36c.48,0,.92-.05,1.31-.14.75-.2,1.22-.77,1.22-1.49s-.47-1.49-1.78-1.49c-.37,0-.8-.02-1.28-.07-.43-.04-.89-.15-1.44-.35-.33-.09-.69-.24-1.08-.44-.35-.19-.76-.54-1.19-1.05-.49-.57-1.02-1.36-1.61-2.35-.58-1-1.2-2.33-1.83-3.94-.74-1.92-1.67-4.32-2.79-7.2-1.11-2.88-2.29-5.92-3.5-9.12-1.22-3.2-2.45-6.45-3.68-9.73-1.24-3.28-2.37-6.29-3.39-9.05-1.02-2.75-1.89-5.08-2.61-6.98-.73-1.9-1.19-3.11-1.39-3.6-.62-1.63-.89-2.15-1.05-2.4-.5-.81-1.12-.98-1.55-.98-.37,0-1.07.14-1.56,1.05M618.06,59.11s.05,0,.07,0c-.02.01-.03.03-.05.04l-.02-.04ZM617.63,58.22v.02s.01,0,.01,0v-.02ZM602.38,14.9l6.35,18.36h-12.24l5.89-18.36ZM556.94,1.81l-20.99,45.57-21.85-45.65c-.53-1.15-1.22-1.73-2.05-1.73-.6,0-1.64.3-1.85,2.28l-5.36,49.4c-.14,1.41-.36,2.73-.65,3.91-.2.85-.66,1.29-1.5,1.46-.49.1-.89.15-1.19.17-.29.02-.57.04-.85.04-1.73,0-1.78,1.27-1.78,1.41,0,.4.17,1.71,2.3,1.71.51,0,1.09-.02,1.75-.04l3.59-.15c.47-.03.77-.04.91-.04s.43.01.88.04l3.85.15c.76.03,1.49.04,2.2.04,2.21,0,2.38-1.31,2.38-1.71,0-.7-.5-1.41-1.63-1.41-.22,0-.56-.02-1.02-.07-.43-.04-.95-.13-1.63-.29-.3-.06-.55-.2-.76-.46-.22-.28-.32-.55-.32-.87v-1.97c0-.62.02-1.22.07-1.8l2.68-31.65c.41.92.87,1.94,1.38,3.05.69,1.51,1.42,3.13,2.2,4.84.77,1.72,1.5,3.33,2.2,4.82l1.79,3.83c.5,1.07.8,1.71.9,1.91.09.18.42.84.99,1.99l.28.55c.74,1.49,1.59,3.19,2.53,5.11.94,1.92,1.87,3.82,2.79,5.72.91,1.88,1.63,3.3,2.13,4.21.67,1.32,1.2,2.31,1.53,2.85.19.3.75,1.21,1.7,1.21.53,0,1.28-.23,1.82-1.33.25-.5.78-1.6,1.58-3.28l16.82-36.3,3.27,35.93c.09.62.11,1.16.07,1.61,0,.04,0,.07-.01.1-.55.25-.89.76-.89,1.4s.41,1.18,1.09,1.43c.36.13.95.24,1.96.36.7.05,1.67.11,2.9.16,1.23.05,2.49.09,3.79.12,1.3.02,2.5.04,3.59.04h2.24c.55,0,1.04-.07,1.45-.21.41-.14.72-.38.92-.69.29.44.91.82,2.21.82.9,0,1.81-.01,2.71-.04l3.4-.1c.44-.02.85-.03,1.2-.05.55-.03.92-.04,1.11-.04s.51,0,.95.03l3.26.15c.61.03,1.15.04,1.61.04,2,0,2.15-1.25,2.15-1.64,0-.69-.47-1.49-1.78-1.49h-.75c-.47,0-.93-.13-1.39-.4-.24-.14-.41-.32-.41-.77,0-1.29.33-2.88.99-4.75l4.44-13.31h15.59l6.87,18.45c.17.4.16.57.17.58-.03.07-.06.11-.03.11-1.1.37-1.18,1.24-1.18,1.5,0,.62.41,1.38,1.57,1.45l1.67.11c1.29.05,2.58.09,3.85.11,1.28.03,2.45.04,3.53.04h4.36c.48,0,.91-.05,1.31-.14.75-.2,1.22-.77,1.22-1.49s-.46-1.49-1.78-1.49c-.37,0-.8-.02-1.28-.07-.43-.04-.88-.15-1.44-.35-.33-.09-.69-.24-1.08-.44-.35-.19-.76-.54-1.19-1.05-.5-.58-1.04-1.37-1.61-2.35-.59-1.02-1.21-2.34-1.83-3.94l-2.79-7.2c-1.11-2.88-2.28-5.92-3.5-9.13-1.22-3.2-2.45-6.45-3.69-9.73-1.24-3.28-2.37-6.29-3.39-9.05-1.02-2.75-1.89-5.08-2.61-6.98-.73-1.9-1.19-3.1-1.38-3.61-.63-1.64-.9-2.15-1.05-2.4-.5-.81-1.12-.98-1.55-.98-.37,0-1.07.14-1.57,1.05-.23.4-.55,1.2-1.04,2.58l-16.92,47.04c-.66,1.82-1.41,3.37-2.23,4.59-.7,1.04-1.75,1.65-3.23,1.87-.27.05-.6.08-1,.1-.42.02-.75.03-.99.03-.74,0-1.22.3-1.48.7-.25-.36-.71-.62-1.39-.62-.38,0-1-.03-1.84-.07-.79-.05-1.69-.23-2.69-.56-.61-.19-1.08-.51-1.44-.99-.43-.53-.76-1.14-.99-1.79-.26-.72-.46-1.45-.59-2.18-.14-.76-.23-1.48-.29-2.2l-4.99-46.59c-.09-.81-.32-2.96-1.93-2.96-.85,0-1.54.62-2.05,1.81M58.08,1.81l-20.99,45.58L15.24,1.74C14.71.58,14.02,0,13.18,0c-.6,0-1.63.3-1.85,2.28l-5.37,49.4c-.14,1.42-.36,2.73-.65,3.91-.21.85-.66,1.29-1.5,1.46-.5.1-.91.15-1.2.18-.3.02-.58.03-.85.03-1.73,0-1.78,1.27-1.78,1.41,0,.4.17,1.71,2.3,1.71.5,0,1.09-.01,1.75-.04l3.59-.15c.47-.02.77-.03.92-.03s.43,0,.87.03c.43.02.94.04,1.54.07l2.32.09c.76.02,1.49.04,2.19.04,2.21,0,2.38-1.31,2.38-1.71,0-.7-.51-1.41-1.63-1.41-.22,0-.56-.03-1.02-.07-.43-.04-.95-.13-1.62-.28-.31-.06-.55-.21-.76-.47-.22-.28-.33-.55-.33-.87v-1.97c0-.63.02-1.23.07-1.81l2.68-31.65c.41.92.87,1.94,1.38,3.06.69,1.51,1.42,3.13,2.2,4.84.77,1.72,1.51,3.33,2.2,4.82.7,1.5,1.29,2.77,1.79,3.83.5,1.07.8,1.71.9,1.91.1.2.52,1.05,1.27,2.54.74,1.49,1.59,3.19,2.53,5.11.94,1.92,1.87,3.82,2.79,5.72.94,1.93,1.64,3.32,2.13,4.22.69,1.36,1.21,2.32,1.53,2.84.18.3.75,1.21,1.7,1.21.43,0,1.25-.17,1.82-1.33.25-.51.77-1.6,1.58-3.28l16.82-36.3,3.27,35.93c.09.62.11,1.17.07,1.62,0,.04,0,.07-.01.1-.55.25-.88.76-.88,1.4s.41,1.18,1.09,1.43c.36.13.93.24,1.96.36.7.05,1.67.1,2.89.15,1.23.05,2.49.09,3.79.12,1.3.02,2.5.04,3.6.04h2.23c.57,0,1.05-.07,1.44-.21.72-.24,1.15-.81,1.15-1.51s-.5-1.41-1.63-1.41c-.39,0-1-.02-1.84-.07-.78-.04-1.68-.23-2.69-.56-.61-.19-1.08-.51-1.44-.98-.43-.53-.76-1.14-.99-1.79-.26-.72-.46-1.45-.59-2.19-.14-.74-.23-1.47-.28-2.2L62.06,2.97c-.09-.81-.33-2.96-1.93-2.96-.85,0-1.54.62-2.05,1.81M185.88,1.81l-20.99,45.58L143.04,1.74c-.53-1.15-1.22-1.74-2.05-1.74-.6,0-1.63.3-1.85,2.28l-5.36,49.4c-.15,1.43-.37,2.74-.65,3.92-.2.85-.66,1.29-1.5,1.46-.5.1-.9.15-1.2.18-.29.02-.57.03-.84.03-1.73,0-1.78,1.27-1.78,1.41,0,.4.17,1.71,2.3,1.71.5,0,1.09-.01,1.75-.04l3.59-.15c.47-.02.78-.03.92-.03s.43,0,.87.03c.43.02.94.04,1.53.07l2.33.09c.76.02,1.49.04,2.19.04,2.21,0,2.38-1.31,2.38-1.71,0-.7-.5-1.41-1.63-1.41-.23,0-.56-.03-1.02-.07-.43-.04-.95-.13-1.62-.29-.31-.06-.55-.21-.76-.47-.22-.28-.33-.55-.33-.87v-1.97c0-.62.02-1.23.07-1.81l2.68-31.65c.41.92.87,1.94,1.38,3.05.69,1.51,1.42,3.13,2.2,4.84.77,1.72,1.51,3.33,2.2,4.82.7,1.5,1.29,2.77,1.79,3.83.5,1.07.8,1.7.91,1.92l1.27,2.54c.74,1.49,1.59,3.19,2.53,5.11.94,1.92,1.87,3.82,2.79,5.72.91,1.88,1.63,3.31,2.13,4.22.69,1.36,1.21,2.31,1.53,2.84.18.3.75,1.21,1.7,1.21.44,0,1.25-.17,1.82-1.34.25-.51.77-1.59,1.57-3.28l16.83-36.3,3.27,35.93c.09.62.11,1.17.07,1.62,0,.04,0,.07-.01.1-.55.25-.89.76-.89,1.4s.41,1.18,1.09,1.43c.36.13.92.24,1.97.37.7.05,1.67.1,2.89.15,1.23.05,2.49.09,3.79.12,1.3.02,2.5.04,3.6.04h2.24c.57,0,1.05-.07,1.45-.21.72-.24,1.15-.81,1.15-1.51s-.5-1.41-1.63-1.41c-.38,0-1-.02-1.84-.07-.78-.04-1.68-.23-2.69-.56-.61-.19-1.08-.52-1.44-.98-.42-.54-.76-1.14-.99-1.79-.26-.72-.46-1.46-.59-2.19-.14-.78-.24-1.5-.28-2.2l-4.99-46.59c-.09-.81-.33-2.96-1.92-2.96-.85,0-1.55.62-2.05,1.81M390.92,14.9l6.35,18.35h-12.24l5.89-18.35ZM390.56,1.06c-.23.41-.56,1.21-1.04,2.58l-16.92,47.04c-.66,1.82-1.41,3.36-2.23,4.58-.7,1.05-1.75,1.66-3.24,1.87-.27.05-.59.08-.99.1-.42.02-.75.03-.99.03-1.17,0-1.7.75-1.7,1.49,0,.61.32,1.64,2.45,1.64.9,0,1.8-.01,2.71-.04l3.19-.1c.53-.02,1-.04,1.41-.05.55-.03.92-.04,1.11-.04s.5,0,.95.03l3.27.15c.61.02,1.14.04,1.6.04,2.05,0,2.15-1.37,2.15-1.64,0-.55-.37-1.49-1.78-1.49h-.75c-.47,0-.93-.13-1.39-.39-.25-.14-.41-.32-.41-.77,0-1.29.33-2.88.99-4.75l4.44-13.31h15.6l6.86,18.45c.17.41.16.58.16.58-.03.06-.05.09-.06.11-1.06.37-1.15,1.23-1.15,1.49,0,.68.49,1.39,1.56,1.44l1.68.12c1.3.05,2.58.09,3.86.11,1.28.02,2.45.04,3.52.04h4.36c.49,0,.93-.05,1.3-.14.76-.19,1.23-.77,1.23-1.5,0-.69-.47-1.49-1.78-1.49-.37,0-.79-.02-1.29-.07-.43-.04-.87-.14-1.44-.35-.33-.08-.68-.23-1.07-.44-.35-.19-.75-.54-1.19-1.05-.48-.56-1.02-1.35-1.61-2.35-.58-.99-1.2-2.32-1.83-3.94l-2.79-7.19c-1.12-2.87-2.28-5.91-3.5-9.12-1.22-3.21-2.45-6.46-3.69-9.74-1.24-3.28-2.37-6.29-3.39-9.04-1.02-2.75-1.89-5.08-2.61-6.98-.73-1.9-1.19-3.1-1.38-3.6-.63-1.63-.9-2.15-1.05-2.41-.5-.81-1.12-.98-1.55-.98-.37,0-1.06.14-1.57,1.05M880.74,1.05c-2.01.7-3.76,1.72-5.19,3.02-1.45,1.31-2.57,2.88-3.35,4.68-.77,1.79-1.17,3.79-1.17,5.95,0,1.37.15,2.73.44,4.05.29,1.32.82,2.72,1.59,4.14.74,1.39,1.78,2.84,3.08,4.33,1.27,1.45,2.94,3.04,4.96,4.74l3.35,2.8c1.55,1.33,2.88,2.55,3.96,3.63,1.04,1.03,1.88,2.05,2.51,3.02.61.93,1.05,1.91,1.33,2.89.27,1,.41,2.12.41,3.33,0,1.09-.2,2.19-.61,3.29-.4,1.07-.99,2.04-1.77,2.88-.76.82-1.77,1.52-2.98,2.08-1.2.54-2.64.82-4.27.82-1.17,0-2.31-.13-3.42-.39-1.09-.25-2.1-.66-3.02-1.21-.89-.53-1.65-1.23-2.26-2.09-.61-.86-1.05-1.94-1.32-3.19-.09-.53-.15-.99-.17-1.43-.03-.46-.03-.85-.03-1.19,0-1.38-.84-1.87-1.56-1.87-.45,0-1.52.21-1.63,2.16-.05.61-.13,1.62-.22,3.04-.1,1.43-.15,3.09-.15,5.07,0,1.49.1,2.01.19,2.3.19.63.7,1.13,1.51,1.49,1.61.78,3.34,1.32,5.12,1.64,1.75.3,3.54.46,5.32.46,2.11,0,4.2-.25,6.21-.75,2.06-.51,3.96-1.4,5.64-2.62,1.39-.98,2.54-2.09,3.41-3.31.86-1.2,1.56-2.43,2.06-3.66.49-1.23.84-2.42,1.02-3.55.18-1.11.28-2.08.28-2.9,0-1.57-.16-3.11-.47-4.57-.32-1.49-.93-3-1.8-4.47-.85-1.44-2.02-2.97-3.49-4.54-1.45-1.55-3.31-3.24-5.51-5.03l-2.09-1.67c-1.75-1.38-3.22-2.63-4.36-3.72-1.11-1.06-2.01-2.05-2.67-2.96-.62-.87-1.06-1.72-1.3-2.52-.25-.84-.37-1.75-.37-2.71,0-2.49.75-4.35,2.3-5.7,1.58-1.38,3.49-2.06,5.84-2.06,1.58,0,2.92.15,3.96.45,1.06.31,1.91.66,2.53,1.05.62.4,1.07.77,1.33,1.12.44.57.54.77.61.9.13.2.32.64.5,1.52.17.82.28,1.44.33,1.89.06.35.12.63.17.82.13.5.58,1.03,1.44,1.03,1.56,0,1.56-2.09,1.56-2.77,0-2.54.05-4.47.14-5.72.1-1.34.16-2.1.16-2.31,0-.78-.55-1.56-1.78-1.56-.26,0-.55-.02-.87-.07-.35-.04-.86-.15-1.47-.28-.99-.27-2.09-.47-3.24-.6-1.15-.13-2.48-.19-3.95-.19-2.48,0-4.75.35-6.75,1.04M232.16,54.56c-2.73-1.29-5.16-3.16-7.22-5.57-2.07-2.42-3.71-5.39-4.88-8.83-1.17-3.45-1.77-7.36-1.77-11.64,0-4.01.53-7.55,1.58-10.53,1.04-2.96,2.5-5.46,4.33-7.44,1.82-1.97,4.01-3.46,6.51-4.43,2.53-.99,5.33-1.48,8.31-1.48,2.78,0,5.49.58,8.07,1.73,2.58,1.14,4.89,2.85,6.87,5.08,1.99,2.23,3.61,5.07,4.83,8.42,1.22,3.36,1.84,7.29,1.84,11.69,0,5.34-.73,9.7-2.18,12.95-1.45,3.26-3.22,5.8-5.25,7.56-2.03,1.76-4.16,2.95-6.34,3.53-2.23.6-4.17.91-5.76.91-3.2,0-6.22-.65-8.95-1.95M229.92,1.38c-2.87.91-5.47,2.16-7.73,3.73-2.26,1.56-4.23,3.41-5.85,5.48-1.6,2.04-2.95,4.22-4.03,6.48-1.07,2.26-1.87,4.59-2.39,6.93-.51,2.34-.77,4.58-.77,6.66,0,3.52.57,7.13,1.69,10.72,1.12,3.62,2.92,6.96,5.33,9.93,2.42,2.98,5.56,5.45,9.32,7.32,3.78,1.88,8.36,2.84,13.61,2.84,4.59,0,8.85-.86,12.64-2.55,3.78-1.69,7.05-4.01,9.72-6.91,2.67-2.89,4.76-6.32,6.21-10.18,1.45-3.85,2.19-8.02,2.19-12.37s-.78-8.65-2.32-12.26c-1.54-3.62-3.69-6.75-6.39-9.29-2.69-2.53-5.93-4.5-9.63-5.86-3.68-1.35-7.71-2.03-11.98-2.03-3.52,0-6.75.46-9.63,1.38"/>
      <g class="cls-1">
        <rect class="cls-2" x="0" y="0" width="900" height="121.5"/>
      </g>
    </g>
  </g>
</svg>