<?xml version="1.0" encoding="UTF-8"?>
<svg id="Capa_2" data-name="Capa 2" xmlns="http://www.w3.org/2000/svg" viewBox="0 0 478.26 84.47">
  <defs>
    <style>
      .cls-1 {
        fill: #f1b649;
      }
    </style>
  </defs>
  <g id="Capa_1-2" data-name="Capa 1">
    <g>
      <g>
        <path class="cls-1" d="M32.88,8.19l2.74,25.12c.03.38.08.79.16,1.23.08.44.2.86.35,1.27.15.41.36.78.63,1.12.27.34.63.58,1.06.71.6.19,1.14.3,1.61.33.47.03.82.04,1.04.04s.33.07.33.2-.08.23-.25.29c-.16.06-.37.08-.61.08h-1.23c-.6,0-1.26,0-1.96-.02-.71-.01-1.4-.03-2.06-.06-.67-.03-1.19-.05-1.57-.08-.46-.06-.77-.11-.92-.16-.15-.05-.22-.14-.22-.25,0-.16.09-.26.28-.29.11-.03.17-.18.2-.47.03-.29.01-.62-.04-1l-1.96-21.2h-.12l-10.01,21.24c-.44.9-.72,1.48-.86,1.76s-.3.41-.49.41c-.14,0-.29-.13-.45-.39-.16-.26-.44-.76-.82-1.49-.27-.49-.66-1.25-1.17-2.27-.5-1.02-1.01-2.05-1.53-3.08-.52-1.04-.98-1.95-1.39-2.76-.41-.8-.64-1.26-.7-1.37-.05-.11-.22-.45-.49-1.02-.27-.57-.6-1.26-.98-2.07-.38-.8-.78-1.67-1.2-2.59-.43-.92-.83-1.8-1.21-2.61-.38-.82-.71-1.53-.98-2.14-.27-.61-.45-1.01-.53-1.21h-.16l-1.63,18.95c-.03.33-.04.67-.04,1.02v1.06c0,.3.1.57.31.82.2.25.46.4.76.45.35.08.67.14.94.16.27.03.48.04.61.04.22,0,.33.07.33.2,0,.25-.25.37-.74.37-.38,0-.77,0-1.18-.02-.41-.01-.8-.03-1.16-.04-.37-.01-.68-.03-.94-.04-.26-.01-.43-.02-.51-.02s-.26,0-.53.02c-.27.01-.58.03-.92.04-.34.01-.69.03-1.04.04-.35.01-.67.02-.94.02-.47,0-.7-.12-.7-.37,0-.14.14-.2.41-.2.16,0,.33,0,.51-.02.18-.01.41-.05.71-.1.68-.14,1.1-.54,1.27-1.21.16-.67.29-1.39.37-2.19L6.21,7.82c.05-.49.2-.74.45-.74.22,0,.42.2.61.61l12.5,25.69L31.78,7.74c.19-.44.4-.65.61-.65.25,0,.41.37.49,1.1"/>
        <path class="cls-1" d="M52.2,26.69v-13.5c0-.61,0-1.1-.02-1.47-.01-.37-.04-.72-.06-1.04-.05-.71-.19-1.24-.41-1.59-.22-.35-.67-.6-1.35-.73-.16-.06-.39-.09-.68-.1-.28-.02-.52-.02-.71-.02-.22,0-.33-.08-.33-.25,0-.22.22-.33.65-.33h1.47c.52,0,1.01.01,1.47.04l1.68.08h4.43c1.1,0,2.14,0,3.1-.02.97-.01,1.57-.02,1.82-.02.79-.05,1.37-.12,1.75-.21.11-.03.21-.07.29-.12.08-.05.18-.08.28-.08s.16.12.16.37c0,.14-.04.35-.12.63-.08.28-.15.71-.2,1.29,0,.11,0,.29-.02.53-.02.24-.04.51-.06.79-.03.29-.05.56-.06.82-.01.26-.03.44-.06.55-.03.11-.06.21-.1.31-.04.1-.1.14-.19.14-.22,0-.33-.18-.33-.53,0-.14-.01-.35-.04-.65-.03-.3-.09-.57-.2-.82-.14-.33-.38-.61-.73-.84-.36-.23-1.08-.41-2.17-.55-.16-.03-.53-.05-1.1-.06-.57-.01-1.17-.03-1.8-.04-.62-.01-1.2-.02-1.73-.02h-.96c-.16,0-.24.14-.24.41v11.27c0,.27.08.41.24.41h3.09c.72,0,1.41,0,2.06-.02.65-.01,1.11-.03,1.35-.06.49-.05.88-.11,1.18-.16.3-.05.54-.19.73-.41.3-.36.5-.53.61-.53.14,0,.2.11.2.32,0,.14-.04.38-.12.74-.08.35-.15.87-.2,1.55-.03.22-.05.46-.06.71-.01.26-.03.52-.04.77-.02.26-.03.49-.04.69-.01.2-.02.35-.02.43,0,.16-.01.33-.04.51-.03.18-.11.27-.24.27-.19,0-.28-.12-.28-.37,0-.22,0-.43-.02-.63-.01-.2-.06-.44-.14-.71-.08-.3-.26-.59-.53-.88-.27-.29-.81-.47-1.6-.55-.27-.03-.7-.05-1.29-.08-.59-.03-1.18-.05-1.8-.06-.61-.01-1.18-.03-1.72-.04-.53-.01-.88-.02-1.04-.02-.19,0-.29.1-.29.29v10.55c.03.71.1,1.28.22,1.71.12.43.35.77.7,1.02.34.24.81.41,1.41.49.6.08,1.4.12,2.41.12.54,0,1.2-.02,1.96-.06.76-.04,1.42-.17,1.96-.39.55-.22.95-.55,1.23-1,.27-.45.48-1.09.61-1.94.08-.41.2-.61.37-.61.14,0,.21.07.23.2.01.14.02.27.02.41,0,.08-.02.29-.06.63-.04.34-.09.72-.14,1.15-.06.42-.11.84-.16,1.25-.06.41-.11.73-.16.95-.08.28-.16.49-.25.63-.08.14-.2.24-.37.31-.16.07-.37.11-.61.13-.25.01-.57.02-.98.02-1.55,0-2.89-.01-4.02-.04-1.13-.03-2.09-.05-2.88-.08-.79-.05-1.44-.09-1.96-.1-.52-.01-.93-.02-1.22-.02h-.53c-.3,0-.67.01-1.1.04-.41,0-.83.01-1.27.04-.44.03-.8.04-1.1.04-.44,0-.65-.11-.65-.33,0-.16.11-.25.33-.25.19,0,.4-.01.61-.04.22-.03.42-.07.61-.12.41-.08.69-.33.84-.74.15-.41.27-.91.35-1.51.11-.87.17-2.08.18-3.61.01-1.54.02-3.29.02-5.25"/>
        <path class="cls-1" d="M108.85,8.19l2.74,25.12c.03.38.08.79.16,1.23.08.44.2.86.35,1.27.15.41.36.78.63,1.12.27.34.63.58,1.06.71.6.19,1.14.3,1.61.33.47.03.82.04,1.04.04s.33.07.33.2-.08.23-.25.29c-.16.06-.37.08-.61.08h-1.23c-.6,0-1.25,0-1.96-.02-.71-.01-1.4-.03-2.06-.06-.67-.03-1.19-.05-1.57-.08-.46-.06-.77-.11-.92-.16-.15-.05-.22-.14-.22-.25,0-.16.1-.26.29-.29.11-.03.17-.18.2-.47.03-.29.01-.62-.04-1l-1.96-21.2h-.12l-10.01,21.24c-.44.9-.72,1.48-.86,1.76-.14.27-.3.41-.49.41-.14,0-.29-.13-.45-.39-.16-.26-.44-.76-.82-1.49-.27-.49-.66-1.25-1.16-2.27-.5-1.02-1.01-2.05-1.53-3.08-.52-1.04-.98-1.95-1.39-2.76-.41-.8-.64-1.26-.7-1.37-.05-.11-.22-.45-.49-1.02-.27-.57-.6-1.26-.98-2.07-.38-.8-.78-1.67-1.2-2.59-.43-.92-.83-1.8-1.21-2.61-.38-.82-.71-1.53-.98-2.14-.27-.61-.45-1.01-.53-1.21h-.16l-1.63,18.95c-.03.33-.04.67-.04,1.02v1.06c0,.3.1.57.31.82.2.25.46.4.76.45.35.08.67.14.94.16.27.03.48.04.61.04.22,0,.33.07.33.2,0,.25-.25.37-.74.37-.38,0-.77,0-1.18-.02-.41-.01-.8-.03-1.16-.04-.37-.01-.68-.03-.94-.04-.26-.01-.43-.02-.51-.02s-.26,0-.53.02c-.27.01-.58.03-.92.04-.34.01-.69.03-1.04.04-.35.01-.67.02-.94.02-.46,0-.69-.12-.69-.37,0-.14.14-.2.41-.2.16,0,.33,0,.51-.02.18-.01.42-.05.72-.1.68-.14,1.1-.54,1.27-1.21.16-.67.29-1.39.37-2.19l2.94-26.63c.05-.49.2-.74.45-.74.22,0,.42.2.61.61l12.5,25.69,12.01-25.65c.19-.44.39-.65.61-.65.25,0,.41.37.49,1.1"/>
        <path class="cls-1" d="M123.51,23.06c0-1.09.14-2.25.41-3.47.27-1.22.69-2.43,1.27-3.62s1.29-2.31,2.14-3.39c.86-1.07,1.89-2.02,3.08-2.84,1.2-.81,2.56-1.46,4.08-1.94,1.52-.48,3.23-.72,5.11-.72,2.29,0,4.41.35,6.37,1.06,1.96.71,3.66,1.72,5.08,3.04,1.43,1.32,2.55,2.93,3.37,4.82.82,1.89,1.23,4.02,1.23,6.39s-.39,4.45-1.16,6.47c-.78,2.03-1.87,3.8-3.29,5.31-1.41,1.51-3.13,2.71-5.14,3.59-2.02.88-4.25,1.33-6.7,1.33-2.81,0-5.21-.49-7.21-1.47-2-.98-3.64-2.25-4.92-3.8-1.28-1.55-2.22-3.27-2.82-5.17-.6-1.89-.9-3.76-.9-5.62M127.39,21.91c0,2.37.33,4.52,1,6.45.67,1.93,1.59,3.58,2.78,4.94,1.18,1.36,2.57,2.41,4.14,3.14,1.58.74,3.3,1.1,5.15,1.1.92,0,2.03-.17,3.31-.51,1.28-.34,2.51-1.02,3.7-2.02,1.18-1.01,2.19-2.43,3.02-4.27.83-1.84,1.24-4.24,1.24-7.21,0-2.45-.35-4.62-1.04-6.49-.69-1.88-1.61-3.45-2.76-4.72-1.14-1.27-2.46-2.23-3.96-2.88-1.5-.65-3.05-.98-4.65-.98-1.72,0-3.3.28-4.76.84-1.45.56-2.72,1.4-3.78,2.53-1.06,1.13-1.89,2.53-2.49,4.21-.6,1.68-.9,3.63-.9,5.86"/>
        <path class="cls-1" d="M168.4,26.69v-13.5c0-.61,0-1.1-.02-1.47-.01-.37-.03-.71-.06-1.04-.05-.71-.19-1.24-.41-1.59-.22-.35-.67-.6-1.35-.73-.16-.06-.39-.09-.68-.1-.28-.01-.52-.02-.71-.02-.22,0-.33-.08-.33-.24,0-.22.22-.33.65-.33.46,0,.95,0,1.47.02.52.01,1,.02,1.45.04.45.01.83.03,1.15.04.31.01.5.02.55.02.11,0,.36,0,.75-.02.4-.01.85-.03,1.35-.04.5-.01,1-.03,1.49-.04.49-.02.9-.02,1.23-.02,1.31,0,2.61.1,3.9.31,1.29.2,2.49.7,3.57,1.49.25.19.53.46.86.8.33.34.63.74.92,1.2.29.46.53.99.74,1.59.2.6.31,1.25.31,1.96,0,1.52-.37,3.06-1.1,4.59-.74,1.54-2.02,3.15-3.84,4.84,1.69,2.15,3.23,4.11,4.61,5.88,1.39,1.77,2.68,3.3,3.88,4.57,1.12,1.17,2.1,1.93,2.94,2.29.84.35,1.53.57,2.04.65.38.06.71.09.98.1.27.01.47.02.61.02.25,0,.37.08.37.25,0,.14-.07.22-.21.26-.14.04-.39.06-.77.06h-2.9c-1.14,0-2.03-.05-2.65-.16-.63-.11-1.2-.31-1.71-.61-.87-.46-1.72-1.19-2.53-2.19-.82-.99-1.81-2.27-2.98-3.82-.44-.57-.87-1.16-1.3-1.76-.44-.6-.85-1.17-1.25-1.71-.4-.54-.76-1.04-1.1-1.49-.34-.45-.61-.81-.79-1.08-.16-.16-.34-.25-.53-.25l-5.02-.08c-.19,0-.29.11-.29.33v.98c0,1.96,0,3.71.02,5.25.01,1.54.07,2.74.18,3.61.05.6.18,1.11.37,1.51.19.41.6.65,1.23.73.3.05.64.1,1,.12.37.03.65.04.84.04.22,0,.33.08.33.25,0,.22-.22.33-.65.33-.57,0-1.14,0-1.72-.02-.57-.01-1.1-.03-1.57-.04-.48-.01-.87-.03-1.19-.04-.31-.01-.5-.02-.55-.02-.57.03-1.06.05-1.47.06-.41.01-.83.03-1.27.04-.44.01-.8.02-1.1.02-.43,0-.65-.11-.65-.33,0-.16.11-.25.32-.25.19,0,.4-.01.61-.04.22-.03.42-.07.61-.12.41-.08.69-.33.84-.73.15-.41.26-.91.35-1.51.11-.87.17-2.07.18-3.61.01-1.54.02-3.29.02-5.25M171.67,9.7v13.36c0,.22.1.38.29.49.3.19.86.35,1.69.47.83.12,1.7.18,2.59.18.49,0,1.01-.05,1.55-.14.55-.1,1.05-.31,1.51-.63.71-.49,1.3-1.27,1.78-2.35.47-1.08.71-2.39.71-3.94,0-2.56-.63-4.56-1.88-6-1.25-1.44-2.98-2.16-5.19-2.16-.63,0-1.18.03-1.67.08-.49.05-.84.11-1.06.16-.22.08-.33.24-.33.49"/>
        <path class="cls-1" d="M206.71,19.5v7.19c0,1.96,0,3.71.02,5.25.01,1.54.08,2.74.18,3.62.05.6.18,1.11.37,1.51.19.41.6.65,1.23.74.3.05.63.1,1,.12.37.03.65.04.84.04.22,0,.33.08.33.25,0,.22-.22.32-.65.32-.57,0-1.14,0-1.71-.02-.57-.01-1.1-.03-1.57-.04-.48-.01-.87-.03-1.18-.04-.31-.01-.5-.02-.55-.02s-.24,0-.55.02c-.32.01-.67.03-1.08.04-.41.01-.83.03-1.27.04-.43.01-.8.02-1.1.02-.44,0-.65-.11-.65-.32,0-.16.11-.25.33-.25.19,0,.4-.01.61-.04.22-.03.42-.07.61-.12.41-.08.69-.33.84-.74.15-.41.27-.91.35-1.51.11-.87.17-2.07.18-3.62.01-1.54.02-3.29.02-5.25v-13.5c0-.61,0-1.1-.02-1.47-.01-.37-.04-.72-.06-1.04-.08-1.34-.55-2.1-1.39-2.29-.22-.05-.45-.1-.69-.12-.24-.03-.44-.04-.57-.04-.22,0-.33-.08-.33-.24,0-.22.22-.33.65-.33.32,0,.72,0,1.18.02.46.01.9.03,1.31.04.41.01.77.03,1.08.04.31.01.5.02.55.02s.24,0,.55-.02c.31-.01.67-.03,1.08-.04s.83-.03,1.27-.04c.43-.01.8-.02,1.1-.02.43,0,.65.11.65.33,0,.16-.11.24-.33.24-.14,0-.28,0-.43.02-.15.01-.35.05-.59.1-.55.11-.92.35-1.12.71-.2.37-.33.91-.39,1.62-.03.32-.05.67-.06,1.04-.01.37-.02.86-.02,1.47v6.31Z"/>
        <path class="cls-1" d="M222.94,34.04l9.27-25.36c.25-.68.42-1.12.53-1.31.11-.19.23-.29.37-.29s.26.09.37.27c.11.18.29.58.53,1.2.11.28.36.92.76,1.94.39,1.02.87,2.27,1.43,3.76.56,1.48,1.18,3.11,1.86,4.88.68,1.77,1.35,3.52,2.02,5.25.67,1.73,1.31,3.37,1.92,4.92.61,1.55,1.12,2.85,1.53,3.88.36.9.7,1.63,1.04,2.21.34.57.65,1.02.94,1.35.29.33.56.56.82.69.26.14.5.23.71.29.3.11.59.18.88.2.28.03.54.04.76.04.27,0,.41.08.41.24,0,.14-.08.23-.25.27-.16.04-.35.06-.57.06h-2.39c-.59,0-1.23,0-1.92-.02-.7-.01-1.4-.04-2.1-.06-.38-.03-.68-.05-.9-.06-.22-.01-.33-.09-.33-.22s.1-.23.29-.29c.14-.05.25-.17.33-.35.08-.18.05-.43-.08-.76l-3.8-10.05c-.08-.16-.2-.24-.37-.24h-8.78c-.19,0-.33.11-.41.32l-2.45,7.23c-.38,1.06-.57,1.98-.57,2.74,0,.41.17.71.51.9.34.19.69.29,1.04.29h.41c.27,0,.41.08.41.24,0,.22-.2.33-.61.33-.25,0-.53,0-.86-.02-.33-.01-.64-.03-.94-.04-.3-.02-.58-.03-.84-.04-.26-.01-.44-.02-.55-.02s-.32,0-.63.02c-.31.02-.69.03-1.12.04-.43.01-.9.03-1.39.04-.49.01-.98.02-1.47.02-.52,0-.77-.11-.77-.33,0-.16.12-.24.37-.24.14,0,.33,0,.57-.02.25-.01.45-.04.61-.06.95-.14,1.67-.55,2.14-1.25.47-.69.91-1.56,1.29-2.59M228.66,25.02h7.8c.16,0,.22-.09.16-.29l-3.88-11.03c-.22-.6-.42-.6-.61,0l-3.6,11.03c-.08.19-.04.29.12.29"/>
        <path class="cls-1" d="M262.44,19.5v7.27c0,3,.05,5.21.16,6.66.11,1.44.35,2.34.73,2.7.16.16.36.31.59.43.23.12.53.22.9.29.37.07.83.12,1.39.16.56.04,1.23.06,2.02.06,1.09,0,2.06-.05,2.92-.16.86-.11,1.53-.46,2.02-1.06.27-.33.5-.72.69-1.18.19-.46.31-.88.37-1.27.05-.35.18-.53.37-.53.16,0,.25.2.25.61,0,.11-.01.33-.04.65-.03.33-.08.7-.14,1.1-.07.41-.14.83-.2,1.25-.07.42-.14.78-.22,1.08-.08.25-.16.44-.22.57-.07.13-.18.25-.35.33-.16.08-.4.14-.71.16-.32.03-.74.04-1.29.04-1.47,0-2.75-.01-3.84-.04-1.09-.03-2.07-.05-2.94-.08-.87-.05-1.63-.09-2.29-.1-.66-.01-1.28-.02-1.88-.02-.08,0-.28,0-.59.02-.31.01-.67.02-1.08.02-.41.03-.82.05-1.24.06-.42.01-.78.02-1.08.02-.44,0-.65-.11-.65-.32,0-.16.11-.25.32-.25.19,0,.4-.01.61-.04.22-.03.42-.07.61-.12.41-.08.69-.33.84-.74.15-.41.27-.91.35-1.51.11-.87.17-2.07.18-3.62.01-1.54.02-3.29.02-5.25v-13.5c0-.61,0-1.1-.02-1.47-.01-.37-.04-.72-.06-1.04-.05-.71-.19-1.24-.41-1.6-.22-.35-.67-.6-1.35-.73-.17-.06-.39-.09-.68-.1-.29-.01-.52-.02-.71-.02-.22,0-.33-.08-.33-.24,0-.22.22-.33.65-.33.46,0,.95,0,1.47.02.52.01,1,.03,1.45.04.45.01.83.03,1.14.04.31.01.5.02.55.02s.26,0,.61-.02c.35-.01.76-.03,1.22-.04.46-.01.93-.03,1.41-.04.48-.01.86-.02,1.17-.02.43,0,.65.11.65.33,0,.16-.11.24-.33.24-.14,0-.33,0-.59.02-.26.01-.51.05-.76.1-.6.11-1,.35-1.21.71-.2.37-.33.91-.39,1.62-.03.32-.05.67-.06,1.04-.01.37-.02.86-.02,1.47v6.31Z"/>
        <path class="cls-1" d="M50.34,46.46l2.74,25.12c.03.38.08.79.16,1.23.08.44.2.86.35,1.27.15.41.36.79.63,1.12.27.34.63.58,1.06.71.6.19,1.14.3,1.61.33.47.03.82.04,1.04.04s.33.07.33.2-.08.23-.25.29c-.16.05-.37.08-.61.08h-1.23c-.6,0-1.25,0-1.96-.02-.71-.01-1.4-.03-2.06-.06-.67-.03-1.19-.05-1.57-.08-.46-.05-.77-.11-.92-.16-.15-.05-.22-.14-.22-.25,0-.16.1-.26.29-.29.11-.03.17-.18.2-.47.03-.29.01-.62-.04-1l-1.96-21.2h-.12l-10.01,21.24c-.44.9-.72,1.49-.86,1.76-.14.27-.3.41-.49.41-.14,0-.29-.13-.45-.39-.16-.26-.44-.75-.82-1.49-.27-.49-.66-1.24-1.17-2.26-.5-1.02-1.01-2.05-1.53-3.08-.52-1.04-.98-1.95-1.39-2.76-.41-.8-.64-1.26-.7-1.37-.05-.11-.22-.45-.49-1.02-.27-.57-.6-1.26-.98-2.06-.38-.8-.78-1.67-1.2-2.59-.43-.93-.83-1.8-1.21-2.61-.38-.82-.71-1.53-.98-2.14-.27-.61-.45-1.02-.53-1.21h-.16l-1.63,18.95c-.03.33-.04.67-.04,1.02v1.06c0,.3.1.57.31.82.2.24.46.39.76.45.35.08.67.14.94.16.27.03.48.04.61.04.22,0,.33.07.33.2,0,.24-.25.37-.74.37-.38,0-.77,0-1.18-.02-.41-.01-.8-.03-1.16-.04-.37-.01-.68-.03-.94-.04-.26-.01-.43-.02-.51-.02s-.26,0-.53.02c-.27.01-.58.03-.92.04-.34.01-.69.03-1.04.04-.35.01-.67.02-.94.02-.47,0-.7-.12-.7-.37,0-.14.14-.2.41-.2.16,0,.33,0,.51-.02.18-.01.42-.05.72-.1.68-.14,1.1-.53,1.27-1.2.16-.67.29-1.39.37-2.19l2.94-26.63c.05-.49.2-.74.45-.74.22,0,.42.2.61.61l12.5,25.69,12.01-25.65c.19-.44.4-.65.61-.65.25,0,.41.37.49,1.1"/>
        <path class="cls-1" d="M67.08,72.31l9.27-25.36c.25-.68.42-1.12.53-1.31.11-.19.23-.29.37-.29s.26.09.37.26c.11.18.29.58.53,1.2.11.27.36.92.76,1.94.39,1.02.87,2.28,1.43,3.76.56,1.49,1.18,3.11,1.86,4.88.68,1.77,1.35,3.52,2.02,5.25.67,1.73,1.31,3.37,1.92,4.92.61,1.55,1.12,2.85,1.53,3.88.35.9.7,1.63,1.04,2.21.34.57.65,1.02.94,1.35s.56.56.82.7c.26.14.5.23.71.29.3.11.59.17.88.2.28.03.54.04.76.04.27,0,.41.08.41.25,0,.14-.08.22-.25.27-.16.04-.35.06-.57.06h-2.39c-.59,0-1.23,0-1.92-.02-.7-.01-1.4-.03-2.1-.06-.38-.03-.68-.05-.9-.06-.22-.01-.33-.09-.33-.23s.1-.23.29-.29c.14-.05.25-.17.33-.34.08-.18.05-.43-.08-.76l-3.8-10.05c-.08-.16-.2-.25-.37-.25h-8.78c-.19,0-.32.11-.41.33l-2.45,7.23c-.38,1.06-.57,1.97-.57,2.74,0,.41.17.71.51.9.34.19.69.29,1.04.29h.41c.27,0,.41.08.41.25,0,.22-.2.33-.61.33-.25,0-.53,0-.86-.02-.33-.01-.64-.03-.94-.04-.3-.02-.58-.03-.84-.04-.26-.01-.44-.02-.55-.02s-.32,0-.63.02c-.31.01-.69.03-1.12.04-.43.01-.9.03-1.39.04-.49.01-.98.02-1.47.02-.52,0-.77-.11-.77-.33,0-.16.12-.25.37-.25.14,0,.33,0,.57-.02.24-.01.45-.03.61-.06.95-.13,1.67-.55,2.14-1.24.47-.7.91-1.56,1.29-2.59M72.8,63.29h7.8c.16,0,.22-.1.16-.29l-3.88-11.03c-.22-.6-.42-.6-.61,0l-3.59,11.03c-.08.19-.04.29.12.29"/>
        <path class="cls-1" d="M103.15,64.96v-13.5c0-.61,0-1.1-.02-1.47-.01-.37-.03-.72-.06-1.04-.06-.71-.19-1.24-.41-1.59-.22-.35-.67-.6-1.35-.74-.16-.05-.39-.09-.68-.1-.28-.02-.52-.02-.71-.02-.22,0-.33-.08-.33-.25,0-.22.22-.33.65-.33.46,0,.95,0,1.47.02.52.01,1,.03,1.45.04.45.01.83.03,1.15.04.31.02.5.02.55.02.11,0,.35,0,.71-.02.37-.01.8-.03,1.3-.04.5-.01,1.06-.03,1.66-.04.6-.01,1.21-.02,1.84-.02,1.01,0,2.2,0,3.57.02,1.38.01,2.81.16,4.31.43,1.5.27,2.98.73,4.45,1.37,1.47.64,2.82,1.59,4.04,2.84.52.55,1.02,1.16,1.49,1.84.47.68.9,1.45,1.27,2.31.37.86.66,1.8.88,2.84.22,1.04.33,2.17.33,3.39s-.12,2.49-.37,3.64c-.25,1.14-.57,2.2-.98,3.16-.41.97-.88,1.84-1.41,2.63-.53.79-1.08,1.49-1.65,2.08-.44.46-1,.97-1.69,1.51-.7.55-1.54,1.06-2.55,1.53-1.01.48-2.18.87-3.51,1.18-1.33.31-2.87.47-4.61.47-.87,0-1.82-.03-2.84-.08s-1.97-.11-2.84-.16c-.9-.05-1.66-.11-2.29-.16-.63-.05-1-.08-1.1-.08h-.53c-.3,0-.67.01-1.1.04-.41,0-.83.01-1.27.04-.44.03-.8.04-1.1.04-.43,0-.65-.11-.65-.33,0-.16.11-.24.32-.24.19,0,.4-.01.61-.04.22-.03.42-.07.61-.12.41-.08.69-.33.84-.74.15-.41.26-.91.35-1.51.11-.87.17-2.08.18-3.62.01-1.54.02-3.29.02-5.25M106.58,57.12v8.17c0,.98,0,1.86.02,2.65.01.79.03,1.46.04,2,.01.55.02.91.02,1.1,0,.25.01.53.04.84.03.31.05.62.08.92.03.3.07.57.12.82.05.24.12.42.2.53.14.19.35.38.63.57.29.19.7.37,1.23.53.53.16,1.21.29,2.04.39.83.1,1.84.14,3.04.14,1.91,0,3.69-.33,5.37-.98,1.67-.65,3.12-1.59,4.35-2.82.52-.51.98-1.14,1.39-1.88.41-.74.76-1.53,1.04-2.39.28-.86.49-1.75.63-2.67.14-.93.2-1.87.2-2.82,0-1.31-.12-2.49-.37-3.56-.25-1.06-.57-2.02-.96-2.88-.4-.86-.82-1.61-1.29-2.25-.46-.64-.9-1.18-1.31-1.62-.95-1-1.96-1.82-3.02-2.43-1.06-.61-2.15-1.08-3.27-1.41-1.12-.33-2.27-.54-3.45-.63-1.19-.1-2.39-.14-3.62-.14-.22,0-.46,0-.71.02-.26.01-.53.04-.8.06-.27.03-.51.06-.72.1-.2.04-.35.08-.43.1-.33.14-.49.41-.49.82,0,.35,0,.86-.02,1.51-.01.65-.02,1.38-.02,2.18v5Z"/>
        <path class="cls-1" d="M144.28,64.96v-13.5c0-.61,0-1.1-.02-1.47-.01-.37-.03-.72-.06-1.04-.05-.71-.19-1.24-.41-1.59-.22-.35-.67-.6-1.35-.73-.16-.05-.39-.09-.68-.1-.28-.02-.52-.02-.71-.02-.22,0-.33-.08-.33-.25,0-.22.22-.33.65-.33h1.47c.52,0,1.01.01,1.47.04l1.68.08h4.43c1.1,0,2.14,0,3.1-.02.97-.01,1.57-.02,1.82-.02.79-.05,1.38-.12,1.76-.2.11-.03.2-.07.29-.12.08-.05.18-.08.28-.08s.16.12.16.37c0,.14-.04.35-.12.64-.08.28-.15.71-.2,1.28,0,.11,0,.29-.02.53-.01.24-.03.51-.06.79-.03.29-.05.56-.06.82-.01.26-.03.44-.06.55-.03.11-.06.21-.1.31-.04.1-.1.14-.18.14-.22,0-.33-.18-.33-.53,0-.14-.01-.35-.04-.65-.03-.3-.1-.57-.2-.82-.14-.33-.38-.61-.74-.84-.36-.23-1.08-.41-2.16-.55-.16-.03-.53-.05-1.1-.06-.57-.01-1.17-.03-1.8-.04-.62-.02-1.2-.02-1.73-.02h-.96c-.16,0-.25.14-.25.41v11.27c0,.27.08.41.25.41h3.08c.72,0,1.41,0,2.06-.02.65-.01,1.1-.03,1.35-.06.49-.05.88-.11,1.18-.16.3-.05.54-.19.74-.41.3-.35.5-.53.61-.53.14,0,.21.11.21.32,0,.14-.04.38-.12.74-.08.35-.15.87-.2,1.55-.03.22-.05.46-.06.71-.01.26-.03.52-.04.78-.01.26-.03.49-.04.69-.01.21-.02.35-.02.43,0,.16-.01.33-.04.51-.03.18-.11.27-.25.27-.19,0-.28-.12-.28-.37,0-.22,0-.43-.02-.63-.01-.21-.06-.44-.14-.72-.08-.3-.26-.59-.53-.88-.27-.29-.8-.47-1.6-.55-.27-.03-.7-.05-1.29-.08-.59-.03-1.18-.05-1.8-.06-.61-.01-1.18-.03-1.72-.04-.53-.01-.88-.02-1.04-.02-.19,0-.29.1-.29.29v10.55c.03.71.1,1.28.22,1.71.13.43.35.77.7,1.02.34.24.81.41,1.41.49.6.08,1.4.12,2.41.12.54,0,1.2-.02,1.96-.06.76-.04,1.42-.17,1.96-.39.54-.22.95-.55,1.23-1,.27-.45.48-1.1.61-1.94.08-.41.2-.61.37-.61.14,0,.21.07.23.21.01.14.02.27.02.41,0,.08-.02.29-.06.63-.04.34-.09.72-.14,1.14-.06.42-.11.84-.16,1.25-.06.41-.11.73-.16.95-.08.28-.16.49-.24.63-.08.14-.21.24-.37.32-.16.07-.37.11-.61.12-.25.01-.57.02-.98.02-1.55,0-2.89-.01-4.02-.04-1.13-.03-2.09-.06-2.88-.08-.79-.06-1.44-.09-1.96-.1-.52-.01-.93-.02-1.22-.02h-.53c-.3,0-.67.01-1.1.04-.41,0-.83.01-1.27.04-.44.03-.8.04-1.1.04-.43,0-.65-.11-.65-.33,0-.16.11-.24.33-.24.19,0,.4-.01.61-.04.22-.03.42-.07.61-.12.41-.08.69-.33.84-.74.15-.41.27-.91.35-1.51.11-.87.17-2.08.18-3.62.01-1.54.02-3.29.02-5.25"/>
        <path class="cls-1" d="M173.28,64.96v-13.5c0-.61,0-1.1-.02-1.47-.01-.37-.04-.71-.06-1.04-.05-.71-.19-1.24-.41-1.59-.22-.35-.67-.6-1.35-.74-.16-.05-.39-.09-.68-.1-.28-.01-.52-.02-.71-.02-.22,0-.33-.08-.33-.25,0-.22.22-.33.65-.33.46,0,.95,0,1.47.02.52.01,1,.03,1.45.04.45.01.83.03,1.15.04.31.01.5.02.55.02.11,0,.36,0,.75-.02.4-.01.85-.03,1.35-.04.5-.02,1-.03,1.49-.04.49-.01.9-.02,1.23-.02,1.31,0,2.61.1,3.9.31,1.29.2,2.49.7,3.57,1.49.25.19.53.46.86.8.33.34.63.74.92,1.2.29.46.53.99.74,1.59.2.6.31,1.25.31,1.96,0,1.52-.37,3.06-1.1,4.59-.73,1.54-2.01,3.15-3.84,4.84,1.69,2.15,3.23,4.11,4.62,5.88,1.39,1.77,2.68,3.3,3.88,4.57,1.12,1.17,2.1,1.93,2.94,2.29.84.36,1.53.57,2.04.65.38.06.71.09.98.1.27.01.47.02.61.02.25,0,.37.08.37.24,0,.14-.07.23-.21.26-.14.04-.39.06-.77.06h-2.9c-1.14,0-2.03-.06-2.65-.16-.63-.11-1.2-.31-1.72-.61-.87-.46-1.71-1.19-2.53-2.18-.82-.99-1.81-2.27-2.98-3.82-.44-.57-.87-1.16-1.31-1.76-.44-.6-.85-1.17-1.24-1.72-.4-.54-.76-1.04-1.1-1.49-.34-.45-.61-.81-.8-1.08-.16-.16-.34-.25-.53-.25l-5.02-.08c-.19,0-.29.11-.29.33v.98c0,1.96,0,3.71.02,5.25.01,1.54.07,2.74.18,3.62.05.6.17,1.1.37,1.51.19.41.6.65,1.23.73.3.05.63.1,1,.12.37.03.65.04.84.04.22,0,.33.08.33.24,0,.22-.22.33-.65.33-.57,0-1.15,0-1.72-.02-.57-.01-1.1-.02-1.57-.04-.48-.01-.87-.03-1.19-.04-.31-.01-.5-.02-.55-.02-.57.03-1.06.05-1.47.06-.41.02-.83.03-1.27.04-.44.01-.8.02-1.1.02-.43,0-.65-.11-.65-.33,0-.16.11-.24.32-.24.19,0,.4-.01.61-.04.22-.03.42-.07.61-.12.41-.08.69-.33.84-.73.15-.41.26-.91.35-1.51.11-.87.17-2.08.18-3.62.01-1.54.02-3.29.02-5.25M176.55,47.97v13.36c0,.22.09.38.29.49.3.19.86.35,1.69.47.83.12,1.7.18,2.59.18.49,0,1.01-.05,1.55-.14.55-.1,1.05-.31,1.51-.63.71-.49,1.3-1.27,1.78-2.35.47-1.08.71-2.39.71-3.94,0-2.56-.63-4.56-1.88-6-1.25-1.44-2.98-2.17-5.19-2.17-.63,0-1.18.03-1.67.08-.49.06-.85.11-1.06.16-.22.08-.33.24-.33.49"/>
        <path class="cls-1" d="M205.97,72.31l9.27-25.36c.25-.68.42-1.12.53-1.31.11-.19.23-.29.37-.29s.26.09.37.26c.11.18.29.58.53,1.2.11.27.36.92.76,1.94.39,1.02.87,2.28,1.43,3.76.56,1.49,1.18,3.11,1.86,4.88.68,1.77,1.35,3.52,2.02,5.25.67,1.73,1.31,3.37,1.92,4.92.61,1.55,1.12,2.85,1.53,3.88.36.9.7,1.63,1.04,2.21.34.57.65,1.02.94,1.35s.56.56.82.7c.26.14.5.23.71.29.3.11.59.17.88.2.28.03.53.04.76.04.27,0,.41.08.41.25,0,.14-.08.22-.25.27-.16.04-.35.06-.57.06h-2.39c-.59,0-1.23,0-1.92-.02-.7-.01-1.4-.03-2.1-.06-.38-.03-.68-.05-.9-.06-.22-.01-.33-.09-.33-.23s.1-.23.29-.29c.14-.05.25-.17.33-.34.08-.18.05-.43-.08-.76l-3.8-10.05c-.08-.16-.2-.25-.37-.25h-8.78c-.19,0-.33.11-.41.33l-2.45,7.23c-.38,1.06-.57,1.97-.57,2.74,0,.41.17.71.51.9.34.19.69.29,1.04.29h.41c.27,0,.41.08.41.25,0,.22-.2.33-.61.33-.25,0-.53,0-.86-.02-.33-.01-.64-.03-.94-.04-.3-.02-.58-.03-.84-.04-.26-.01-.44-.02-.55-.02s-.32,0-.63.02c-.31.01-.69.03-1.12.04-.43.01-.9.03-1.39.04-.49.01-.98.02-1.47.02-.52,0-.77-.11-.77-.33,0-.16.12-.25.37-.25.14,0,.33,0,.57-.02.25-.01.45-.03.61-.06.95-.13,1.67-.55,2.14-1.24.47-.7.91-1.56,1.29-2.59M211.69,63.29h7.8c.16,0,.22-.1.16-.29l-3.88-11.03c-.22-.6-.42-.6-.61,0l-3.6,11.03c-.08.19-.04.29.12.29"/>
        <path class="cls-1" d="M245.31,77.38c-.95,0-1.89-.08-2.82-.24-.93-.16-1.81-.44-2.66-.83-.3-.13-.48-.28-.53-.46-.05-.17-.08-.53-.08-1.08,0-1.03.03-1.93.08-2.7.05-.76.1-1.31.12-1.63.03-.43.14-.65.33-.65s.29.15.29.45c0,.19,0,.41.02.67.01.26.05.54.1.84.16.76.44,1.41.82,1.94.38.53.85.96,1.41,1.29.56.33,1.16.57,1.82.72.65.15,1.32.22,2,.22.98,0,1.84-.16,2.57-.49.73-.33,1.34-.74,1.82-1.25.48-.5.84-1.08,1.08-1.74.25-.65.37-1.31.37-1.96,0-.71-.08-1.36-.25-1.94-.16-.58-.43-1.16-.8-1.72-.37-.56-.85-1.13-1.45-1.72-.6-.59-1.33-1.25-2.2-1.98l-1.84-1.51c-1.09-.9-1.97-1.73-2.66-2.5-.68-.76-1.22-1.51-1.61-2.23-.39-.72-.67-1.42-.82-2.09-.15-.67-.23-1.36-.23-2.07,0-1.09.2-2.09.59-2.98.4-.9.96-1.68,1.7-2.33.74-.65,1.62-1.16,2.65-1.51,1.04-.35,2.21-.53,3.51-.53.79,0,1.49.03,2.1.1.61.07,1.18.17,1.69.31.38.08.68.14.88.16.2.03.39.04.55.04.27,0,.41.1.41.28,0,.11-.03.51-.08,1.21-.05.69-.08,1.74-.08,3.12,0,.63-.1.94-.28.94-.14,0-.22-.05-.24-.14-.03-.1-.06-.23-.08-.39-.03-.24-.09-.59-.18-1.04-.1-.45-.21-.78-.35-1-.05-.11-.18-.29-.37-.53-.19-.25-.48-.49-.88-.73-.4-.25-.91-.46-1.53-.63-.62-.18-1.4-.26-2.33-.26-1.41,0-2.61.41-3.57,1.24-.97.83-1.45,1.99-1.45,3.49,0,.57.08,1.11.23,1.62.15.5.42,1.01.8,1.53.38.52.89,1.07,1.53,1.67.64.6,1.45,1.28,2.43,2.04l1.14.9c1.2.96,2.18,1.84,2.96,2.66.77.82,1.39,1.6,1.84,2.35.45.75.76,1.5.92,2.25.16.75.25,1.53.25,2.35,0,.41-.05.9-.14,1.47-.1.57-.27,1.17-.53,1.8-.26.63-.61,1.24-1.06,1.86-.45.61-1.03,1.16-1.74,1.66-.87.62-1.84,1.07-2.9,1.33-1.06.26-2.15.39-3.27.39"/>
      </g>
      <g>
        <polygon class="cls-1" points="323.7 36.42 323.68 26.08 318.68 34.64 317.42 34.64 312.42 26.21 312.42 36.42 309.73 36.42 309.73 20.82 312.05 20.82 318.09 31.16 324.02 20.82 326.35 20.82 326.37 36.42 323.7 36.42"/>
        <path class="cls-1" d="M343.6,32.81h-7.6l-1.5,3.61h-2.91l6.84-15.6h2.78l6.86,15.6h-2.96l-1.52-3.61ZM342.66,30.54l-2.87-6.82-2.85,6.82h5.71Z"/>
        <polygon class="cls-1" points="411.82 20.82 414.64 20.82 414.64 33.97 422.6 33.97 422.6 36.42 411.82 36.42 411.82 20.82"/>
        <polygon class="cls-1" points="439.5 33.99 439.5 36.42 428.09 36.42 428.09 20.82 439.2 20.82 439.2 23.25 430.92 23.25 430.92 27.3 438.26 27.3 438.26 29.69 430.92 29.69 430.92 33.99 439.5 33.99"/>
        <path class="cls-1" d="M444.76,28.62c0-4.61,3.48-8.02,8.19-8.02s8.19,3.39,8.19,8.02-3.47,8.02-8.19,8.02-8.19-3.41-8.19-8.02M458.29,28.62c0-3.19-2.28-5.48-5.34-5.48s-5.35,2.3-5.35,5.48,2.28,5.48,5.35,5.48,5.34-2.29,5.34-5.48"/>
        <path class="cls-1" d="M466.11,34.77l.98-2.25c1.22,1,3.15,1.71,5.02,1.71,2.37,0,3.37-.87,3.37-2.03,0-3.37-9.04-1.16-9.04-6.95,0-2.52,1.96-4.66,6.13-4.66,1.83,0,3.74.49,5.06,1.38l-.89,2.25c-1.37-.82-2.87-1.23-4.19-1.23-2.35,0-3.3.94-3.3,2.12,0,3.32,9.02,1.16,9.02,6.89,0,2.49-1.98,4.63-6.15,4.63-2.37,0-4.74-.76-6-1.87"/>
        <path class="cls-1" d="M342.57,52.01c0,3.43-2.48,5.55-6.47,5.55h-3.44v4.5h-2.82v-15.6h6.26c4,0,6.47,2.09,6.47,5.55M339.72,52.01c0-1.96-1.28-3.1-3.76-3.1h-3.3v6.2h3.3c2.48,0,3.76-1.14,3.76-3.1"/>
        <path class="cls-1" d="M358.6,62.06l-3.11-4.57c-.2.02-.39.02-.59.02h-3.43v4.55h-2.82v-15.6h6.26c4,0,6.47,2.09,6.47,5.55,0,2.36-1.17,4.1-3.24,4.93l3.5,5.13h-3.04ZM354.78,48.91h-3.3v6.22h3.3c2.48,0,3.76-1.16,3.76-3.12s-1.28-3.1-3.76-3.1"/>
        <polygon class="cls-1" points="379.2 59.63 379.2 62.06 367.79 62.06 367.79 46.46 378.9 46.46 378.9 48.89 370.62 48.89 370.62 52.94 377.96 52.94 377.96 55.33 370.62 55.33 370.62 59.63 379.2 59.63"/>
        <polygon class="cls-1" points="399.58 62.06 399.56 51.72 394.56 60.27 393.3 60.27 388.3 51.85 388.3 62.06 385.61 62.06 385.61 46.46 387.93 46.46 393.98 56.8 399.91 46.46 402.23 46.46 402.25 62.06 399.58 62.06"/>
        <rect class="cls-1" x="409.62" y="46.46" width="2.83" height="15.6"/>
        <path class="cls-1" d="M419.68,55.26v-8.8h2.82v8.69c0,3.21,1.41,4.59,3.87,4.59s3.84-1.38,3.84-4.59v-8.69h2.78v8.8c0,4.55-2.5,7.02-6.65,7.02s-6.67-2.47-6.67-7.02"/>
        <polygon class="cls-1" points="454.18 62.06 454.16 51.72 449.16 60.27 447.9 60.27 442.9 51.85 442.9 62.06 440.2 62.06 440.2 46.46 442.53 46.46 448.57 56.8 454.5 46.46 456.83 46.46 456.85 62.06 454.18 62.06"/>
        <path class="cls-1" d="M352.81,29.62v-8.8h2.82v8.69c0,3.21,1.41,4.59,3.87,4.59s3.85-1.38,3.85-4.59v-8.69h2.78v8.8c0,4.55-2.5,7.02-6.65,7.02s-6.67-2.47-6.67-7.02"/>
        <path class="cls-1" d="M372.06,34.77l.98-2.25c1.22,1,3.15,1.71,5.02,1.71,2.37,0,3.37-.87,3.37-2.03,0-3.37-9.04-1.16-9.04-6.95,0-2.52,1.96-4.66,6.13-4.66,1.83,0,3.74.49,5.06,1.38l-.89,2.25c-1.37-.82-2.87-1.23-4.19-1.23-2.35,0-3.3.94-3.3,2.12,0,3.32,9.02,1.16,9.02,6.89,0,2.49-1.98,4.63-6.15,4.63-2.37,0-4.74-.76-6-1.87"/>
        <path class="cls-1" d="M389.18,28.62c0-4.61,3.48-8.02,8.19-8.02s8.19,3.39,8.19,8.02-3.48,8.02-8.19,8.02-8.19-3.41-8.19-8.02M402.72,28.62c0-3.19-2.28-5.48-5.34-5.48s-5.35,2.3-5.35,5.48,2.28,5.48,5.35,5.48,5.34-2.29,5.34-5.48"/>
      </g>
      <rect class="cls-1" x="291.88" width="1.81" height="84.47"/>
    </g>
  </g>
</svg>