<?xml version="1.0" encoding="UTF-8"?>
<svg id="Capa_2" data-name="Capa 2" xmlns="http://www.w3.org/2000/svg" xmlns:xlink="http://www.w3.org/1999/xlink" viewBox="0 0 530 92">
  <defs>
    <style>
      .cls-1 {
        fill: #f2b749;
        filter: url(#drop-shadow-1);
      }

      .cls-2 {
        fill: #fff;
      }
    </style>
    <filter id="drop-shadow-1" x="0" y="0" width="530" height="92" filterUnits="userSpaceOnUse">
      <feOffset dx="4" dy="4"/>
      <feGaussianBlur result="blur" stdDeviation="5"/>
      <feFlood flood-color="#000" flood-opacity=".35"/>
      <feComposite in2="blur" operator="in"/>
      <feComposite in="SourceGraphic"/>
    </filter>
  </defs>
  <g id="Slide_5" data-name="Slide 5">
    <g id="Su_amor_también_merece_florecer" data-name="Su amor también merece florecer">
      <g>
        <rect class="cls-1" x="11" y="11.65" width="500" height="61.34" rx="8.03" ry="8.03"/>
        <g>
          <path class="cls-2" d="M88.68,39.88v13.09h-3.93v-12.94c0-3.51-2.06-5.08-4.75-5.08-2.99,0-5.17,1.6-5.17,5.41v12.6h-3.93v-12.94c0-3.51-1.87-5.08-4.56-5.08-2.99,0-5.26,1.6-5.26,5.41v12.6h-3.93v-21.16h3.81v2.78c1.27-1.94,3.54-3.08,6.47-3.08s5.29,1.21,6.41,3.23c1.42-2.06,3.96-3.23,6.95-3.23,4.87,0,7.89,2.87,7.89,8.37Z"/>
          <path class="cls-2" d="M106.34,48.22l2,2.33c-1.42,1.72-3.69,2.63-6.47,2.63-5.41,0-8.92-3.48-8.92-8.28s3.51-8.25,8.31-8.25c4.5,0,8.13,3.02,8.16,8.07l-12.36,2.42c.79,1.84,2.54,2.84,4.9,2.84,1.81,0,3.2-.57,4.38-1.75ZM96.61,44.69v.03l9.13-1.75c-.51-1.96-2.21-3.29-4.47-3.29-2.75,0-4.66,1.93-4.66,5.02Z"/>
          <path class="cls-2" d="M140.5,43.72v9.25h-3.78v-8.77c0-2.87-1.33-4.26-3.63-4.26-2.48,0-4.2,1.63-4.2,4.84v8.19h-3.78v-8.77c0-2.87-1.33-4.26-3.63-4.26-2.51,0-4.2,1.63-4.2,4.84v8.19h-3.78v-16.14h3.6v2.06c1.21-1.45,3.08-2.24,5.29-2.24,2.36,0,4.32.88,5.44,2.69,1.3-1.66,3.48-2.69,6.05-2.69,3.9,0,6.62,2.21,6.62,7.07Z"/>
          <path class="cls-2" d="M144.62,44.9c0-4.84,3.63-8.25,8.58-8.25s8.61,3.42,8.61,8.25-3.6,8.28-8.61,8.28-8.58-3.45-8.58-8.28ZM158.01,44.9c0-3.08-2.06-5.05-4.81-5.05s-4.78,1.96-4.78,5.05,2.06,5.05,4.78,5.05,4.81-1.96,4.81-5.05Z"/>
          <path class="cls-2" d="M175.24,36.64v3.6c-.33-.06-.6-.09-.88-.09-2.87,0-4.69,1.69-4.69,4.99v7.83h-3.78v-16.14h3.6v2.36c1.09-1.69,3.05-2.54,5.74-2.54Z"/>
          <path class="cls-2" d="M178.39,31.9c0-1.27,1.03-2.27,2.42-2.27s2.42.94,2.42,2.18c0,1.33-1,2.36-2.42,2.36s-2.42-1-2.42-2.27ZM178.9,36.83h3.78v16.14h-3.78v-16.14Z"/>
          <path class="cls-2" d="M203.87,36.83v16.14h-3.6v-2.09c-1.27,1.54-3.14,2.3-5.35,2.3-4.72,0-8.16-3.26-8.16-8.28s3.45-8.25,8.16-8.25c2.06,0,3.87.7,5.17,2.15v-1.96h3.78ZM200.15,44.9c0-3.08-2.06-5.05-4.81-5.05s-4.78,1.96-4.78,5.05,2.06,5.05,4.78,5.05,4.81-1.96,4.81-5.05Z"/>
          <path class="cls-2" d="M209.29,47.92v-17.38h3.78v17.11c0,1.57.76,2.42,2.27,2.42.51,0,1.06-.15,1.36-.3l.18,3.02c-.73.27-1.51.39-2.27.39-3.36,0-5.32-1.9-5.32-5.26Z"/>
          <path class="cls-2" d="M245.83,44.9c0,5.02-3.48,8.28-8.19,8.28-2.06,0-3.87-.7-5.17-2.18v7.83h-3.78v-22.01h3.6v2.12c1.27-1.54,3.14-2.3,5.35-2.3,4.72,0,8.19,3.26,8.19,8.25ZM241.99,44.9c0-3.08-2.06-5.05-4.78-5.05s-4.81,1.96-4.81,5.05,2.09,5.05,4.81,5.05,4.78-1.96,4.78-5.05Z"/>
          <path class="cls-2" d="M265.67,36.83v16.14h-3.6v-2.09c-1.27,1.54-3.14,2.3-5.35,2.3-4.72,0-8.16-3.26-8.16-8.28s3.45-8.25,8.16-8.25c2.06,0,3.87.7,5.17,2.15v-1.96h3.78ZM261.95,44.9c0-3.08-2.06-5.05-4.81-5.05s-4.78,1.96-4.78,5.05,2.06,5.05,4.78,5.05,4.81-1.96,4.81-5.05Z"/>
          <path class="cls-2" d="M280.42,36.64v3.6c-.33-.06-.6-.09-.88-.09-2.87,0-4.69,1.69-4.69,4.99v7.83h-3.78v-16.14h3.6v2.36c1.09-1.69,3.05-2.54,5.74-2.54Z"/>
          <path class="cls-2" d="M299.71,36.83v16.14h-3.6v-2.09c-1.27,1.54-3.14,2.3-5.35,2.3-4.72,0-8.16-3.26-8.16-8.28s3.45-8.25,8.16-8.25c2.05,0,3.87.7,5.17,2.15v-1.96h3.78ZM295.99,44.9c0-3.08-2.05-5.05-4.81-5.05s-4.78,1.96-4.78,5.05,2.06,5.05,4.78,5.05,4.81-1.96,4.81-5.05Z"/>
          <path class="cls-2" d="M340.91,43.72v9.25h-3.78v-8.77c0-2.87-1.33-4.26-3.63-4.26-2.48,0-4.2,1.63-4.2,4.84v8.19h-3.78v-8.77c0-2.87-1.33-4.26-3.63-4.26-2.51,0-4.2,1.63-4.2,4.84v8.19h-3.78v-16.14h3.6v2.06c1.21-1.45,3.08-2.24,5.29-2.24,2.36,0,4.32.88,5.44,2.69,1.3-1.66,3.48-2.69,6.05-2.69,3.9,0,6.62,2.21,6.62,7.07Z"/>
          <path class="cls-2" d="M362.14,36.83v16.14h-3.6v-2.09c-1.27,1.54-3.14,2.3-5.35,2.3-4.72,0-8.16-3.26-8.16-8.28s3.45-8.25,8.16-8.25c2.05,0,3.87.7,5.17,2.15v-1.96h3.78ZM358.42,44.9c0-3.08-2.05-5.05-4.81-5.05s-4.78,1.96-4.78,5.05,2.06,5.05,4.78,5.05,4.81-1.96,4.81-5.05Z"/>
          <path class="cls-2" d="M365.71,51.37l1.45-2.87c1.42.94,3.6,1.6,5.62,1.6,2.39,0,3.39-.67,3.39-1.78,0-3.08-9.98-.18-9.98-6.62,0-3.05,2.75-5.05,7.1-5.05,2.15,0,4.59.51,6.05,1.39l-1.45,2.87c-1.54-.91-3.08-1.21-4.62-1.21-2.3,0-3.38.75-3.38,1.81,0,3.26,9.97.36,9.97,6.68,0,3.02-2.78,4.99-7.32,4.99-2.69,0-5.38-.79-6.83-1.81Z"/>
          <path class="cls-2" d="M382.24,44.9c0-4.84,3.63-8.25,8.74-8.25,3.14,0,5.65,1.3,6.89,3.75l-2.9,1.69c-.97-1.54-2.42-2.24-4.02-2.24-2.78,0-4.9,1.93-4.9,5.05s2.12,5.05,4.9,5.05c1.6,0,3.05-.7,4.02-2.24l2.9,1.69c-1.24,2.42-3.75,3.78-6.89,3.78-5.11,0-8.74-3.45-8.74-8.28Z"/>
          <path class="cls-2" d="M400.02,44.9c0-4.84,3.63-8.25,8.58-8.25s8.62,3.42,8.62,8.25-3.6,8.28-8.62,8.28-8.58-3.45-8.58-8.28ZM413.41,44.9c0-3.08-2.05-5.05-4.81-5.05s-4.78,1.96-4.78,5.05,2.06,5.05,4.78,5.05,4.81-1.96,4.81-5.05Z"/>
          <path class="cls-2" d="M430.37,52.09c-.91.73-2.27,1.09-3.63,1.09-3.54,0-5.56-1.87-5.56-5.44v-14.48h3.78v3.69h4.32v3.02h-4.32v7.68c0,1.57.82,2.42,2.24,2.42.79,0,1.54-.21,2.12-.67l1.06,2.69Z"/>
          <path class="cls-2" d="M449.18,36.83v16.14h-3.6v-2.09c-1.27,1.54-3.14,2.3-5.35,2.3-4.72,0-8.16-3.26-8.16-8.28s3.45-8.25,8.16-8.25c2.05,0,3.87.7,5.17,2.15v-1.96h3.78ZM445.46,44.9c0-3.08-2.05-5.05-4.81-5.05s-4.78,1.96-4.78,5.05,2.06,5.05,4.78,5.05,4.81-1.96,4.81-5.05Z"/>
          <path class="cls-2" d="M452.75,51.37l1.45-2.87c1.42.94,3.6,1.6,5.62,1.6,2.39,0,3.39-.67,3.39-1.78,0-3.08-9.98-.18-9.98-6.62,0-3.05,2.75-5.05,7.1-5.05,2.15,0,4.59.51,6.05,1.39l-1.45,2.87c-1.54-.91-3.08-1.21-4.62-1.21-2.3,0-3.38.75-3.38,1.81,0,3.26,9.97.36,9.97,6.68,0,3.02-2.78,4.99-7.32,4.99-2.69,0-5.38-.79-6.83-1.81Z"/>
        </g>
      </g>
    </g>
  </g>
</svg>