<?xml version="1.0" encoding="UTF-8"?>
<svg id="Capa_2" data-name="Capa 2" xmlns="http://www.w3.org/2000/svg" viewBox="0 0 1316.47 74.2">
  <defs>
    <style>
      .cls-1 {
        fill: #f2e9ce;
      }
    </style>
  </defs>
  <g id="Slide_5" data-name="Slide 5">
    <g>
      <path class="cls-1" d="M13.51,14.42c2.01-1.03,4.26-2.02,6.75-2.97,2.5-.96,5.04-1.8,7.63-2.52,2.59-.72,5.15-1.31,7.67-1.75,2.52-.44,4.81-.66,6.86-.66,2.24,0,4.5.17,6.79.52,2.29.35,4.38.93,6.26,1.75,1.89.82,3.43,1.88,4.62,3.19s1.79,2.92,1.79,4.83c0,2.19-.48,4.17-1.44,5.92-.96,1.75-2.23,3.29-3.81,4.62-1.59,1.33-3.4,2.46-5.42,3.4-2.03.93-4.12,1.71-6.27,2.34s-4.26,1.08-6.33,1.37c-2.08.28-3.98.44-5.71.49-.37,0-.56-.19-.56-.56,0-.28.09-.52.28-.73.19-.21.47-.32.84-.32,2.1-.09,4.23-.54,6.41-1.33,2.17-.79,4.14-1.88,5.91-3.25,1.77-1.38,3.23-3.02,4.38-4.94,1.14-1.91,1.72-4.04,1.72-6.37,0-1.26-.28-2.35-.84-3.26-.56-.91-1.29-1.69-2.2-2.34-.91-.65-1.96-1.19-3.15-1.61-1.19-.42-2.42-.75-3.67-.98l.07.28c-1.49,1.03-2.86,2.43-4.09,4.2-1.24,1.77-2.25,4.04-3.04,6.79-1.26,4.39-2.53,8.36-3.81,11.93-1.28,3.57-2.65,6.7-4.1,9.38-1.45,2.68-3.02,4.89-4.72,6.62-1.7,1.73-3.61,2.94-5.71,3.64,1.4.28,2.8.42,4.2.42s2.92-.07,4.41-.21c1.49-.14,2.87-.23,4.13-.28,1.07,0,1.61.37,1.61,1.12,0,.42-.16.85-.49,1.29-.33.44-.74.85-1.23,1.23-.49.37-1.05.69-1.68.95-.63.26-1.27.38-1.92.38-2.57,0-5.2-.08-7.91-.25-2.71-.16-5.48-.25-8.33-.25-1.4,0-2.81.04-4.24.11-1.42.07-2.86.2-4.3.38-.28.05-.49-.11-.63-.46-.14-.35-.21-.78-.21-1.29,0-.84.15-1.63.46-2.38.3-.75.69-1.12,1.15-1.12.93.05,2.1.22,3.5.52,1.4.3,2.8.46,4.2.46,1.63,0,3.14-.34,4.52-1.01,1.38-.68,2.39-1.97,3.04-3.88,1.03-3.13,1.92-6.12,2.69-9,.77-2.87,1.58-5.6,2.42-8.19s1.77-5.02,2.8-7.28,2.3-4.31,3.82-6.12c1.52-1.82,3.35-3.42,5.5-4.8,2.15-1.38,4.74-2.46,7.77-3.25-1.82-.28-3.59-.42-5.32-.42-1.96,0-3.83.32-5.6.95s-3.45,1.42-5.04,2.38c-1.59.96-3.06,2.01-4.41,3.15-1.35,1.14-2.57,2.23-3.64,3.25-1.07,1.03-2,1.9-2.76,2.62-.77.72-1.37,1.18-1.79,1.37-.7,0-1.2-.27-1.5-.81-.3-.54-.46-1.18-.46-1.92,0-1.07.22-2.16.67-3.25.44-1.1.95-1.79,1.5-2.07Z"/>
      <path class="cls-1" d="M55.65,46.06c0-2.71.5-5.5,1.5-8.37,1-2.87,2.4-5.5,4.2-7.88,1.8-2.38,3.93-4.33,6.4-5.84s5.18-2.28,8.12-2.28c3.5,0,6.21.96,8.12,2.87,1.91,1.91,2.87,4.62,2.87,8.12,0,2.75-.49,5.56-1.47,8.43-.98,2.87-2.37,5.48-4.17,7.84-1.8,2.36-3.93,4.28-6.41,5.78-2.47,1.49-5.2,2.24-8.19,2.24-3.45,0-6.15-.95-8.08-2.83-1.94-1.89-2.91-4.58-2.91-8.08ZM64.54,48.58c0,2.19.28,3.9.84,5.11.56,1.21,1.38,1.82,2.45,1.82,1.54,0,2.93-.89,4.17-2.66,1.24-1.77,2.3-3.97,3.19-6.58.89-2.61,1.57-5.4,2.06-8.37.49-2.96.74-5.63.74-8.01,0-2.1-.26-3.78-.77-5.04-.51-1.26-1.24-1.89-2.17-1.89-1.03,0-2.01.41-2.94,1.23-.93.82-1.79,1.91-2.56,3.29-.77,1.38-1.47,2.95-2.1,4.72-.63,1.77-1.16,3.62-1.58,5.53-.42,1.91-.75,3.8-.98,5.67-.23,1.87-.35,3.59-.35,5.18Z"/>
      <path class="cls-1" d="M97.65,31.5c.47-1.26.7-2.29.7-3.08,0-.93-.36-1.57-1.08-1.92-.72-.35-1.76-.55-3.12-.59-.33,0-.44-.14-.35-.42.14-.33.37-.54.7-.63,2.8-.33,5.2-.7,7.21-1.12,2.01-.42,4.08-.96,6.23-1.61.28-.09.54-.14.77-.14.47,0,.63.23.49.7l-4.69,14.77h.28c.7-1.31,1.58-2.86,2.62-4.66,1.05-1.8,2.24-3.52,3.57-5.18,1.33-1.66,2.83-3.06,4.51-4.2,1.68-1.14,3.5-1.71,5.46-1.71,1.12,0,1.94.25,2.45.74.51.49.77,1.08.77,1.79,0,.56-.14,1.12-.42,1.68-.28.56-.67,1.08-1.16,1.58-.49.49-1.1.89-1.82,1.19-.72.3-1.53.46-2.42.46-1.54,0-2.99.28-4.34.84-1.35.56-2.62,1.31-3.82,2.24-1.19.93-2.29,2.04-3.29,3.33-1,1.28-1.95,2.65-2.83,4.09l-5.25,15.75c-.14.42-.37.76-.7,1.02-.33.26-.7.36-1.12.31l-4.9-.49c-.75-.09-1.26-.38-1.54-.88-.28-.49-.3-1.08-.07-1.79l7.14-22.05Z"/>
      <path class="cls-1" d="M121.17,48.23c0-3.08.61-6.18,1.82-9.31,1.21-3.13,2.87-5.95,4.97-8.47,2.1-2.52,4.57-4.57,7.42-6.16,2.85-1.59,5.9-2.38,9.17-2.38,2.1,0,3.77.3,5,.91,1.24.61,2.25,1.52,3.04,2.73h.14c.47-.37,1.03-.83,1.68-1.36.65-.54,1.26-1.06,1.82-1.58.51-.42,1.12-.63,1.82-.63h.77c.51,0,.77.19.77.56,0,.09-.02.23-.07.42l-13.37,41.23c-.89,2.66-1.33,4.6-1.33,5.81,0,1.07.3,1.77.91,2.1.61.33,1.49.51,2.66.56.28,0,.42.12.42.35v.21c-.14.37-.4.56-.77.56h-9.52c-.89,0-1.49-.19-1.82-.56-.33-.37-.49-.93-.49-1.68,0-1.17.35-2.59,1.05-4.27l10.99-30.03h-.14c-3.03,6.39-5.96,11.26-8.79,14.59-2.82,3.34-5.71,5-8.65,5s-5.14-.68-6.89-2.03-2.62-3.55-2.62-6.58ZM145.53,23.8c-1.45,0-2.83.47-4.16,1.4-1.33.93-2.58,2.15-3.75,3.64-1.17,1.49-2.23,3.19-3.19,5.08-.96,1.89-1.79,3.8-2.48,5.74-.7,1.94-1.24,3.8-1.61,5.6-.37,1.8-.56,3.35-.56,4.66,0,1.63.33,2.75.98,3.36.65.61,1.42.91,2.31.91,1.96,0,4.26-1.79,6.9-5.36,2.64-3.57,5.33-8.58,8.08-15.01l1.05-3.36c.19-.79.28-1.63.28-2.52,0-1.31-.32-2.32-.95-3.04s-1.6-1.09-2.91-1.09Z"/>
      <path class="cls-1" d="M168.14,31.57c.42-1.35.63-2.4.63-3.15,0-.98-.31-1.64-.94-2-.63-.35-1.62-.55-2.98-.59-.23,0-.33-.14-.28-.42.14-.37.37-.58.7-.63,2.8-.33,5.22-.7,7.25-1.12,2.03-.42,4.12-.96,6.27-1.61.19-.09.44-.14.77-.14.42,0,.56.23.42.7l-6.86,21.14c-.98,2.99-1.47,5.3-1.47,6.93,0,1.12.21,1.91.63,2.38.42.47.98.7,1.68.7.93,0,1.97-.69,3.12-2.07,1.14-1.38,2.33-3.16,3.57-5.36,1.24-2.19,2.5-4.64,3.78-7.35,1.28-2.71,2.51-5.37,3.67-7.98l.63-2.17c.33-.98.55-1.85.67-2.62.12-.77.28-1.43.49-1.99.21-.56.55-1.02,1.01-1.37.47-.35,1.19-.62,2.17-.81.05,0,.29-.01.74-.03.44-.02.92-.04,1.44-.04s.99-.01,1.43-.04c.44-.02.69-.04.74-.04.14,0,.34.01.59.04.26.02.52.07.8.14.28.07.51.15.7.25.19.09.26.19.21.28l-6.58,20.37c-.42,1.35-.79,2.64-1.12,3.85-.33,1.21-.49,2.26-.49,3.15,0,.7.13,1.26.39,1.68.26.42.69.63,1.29.63.56,0,1.13-.23,1.71-.7.58-.47,1.2-1.08,1.85-1.85.65-.77,1.35-1.66,2.1-2.66.75-1,1.56-2.02,2.45-3.04.23-.23.42-.35.56-.35.23,0,.38.13.46.38.07.26.06.43-.04.52-1.12,1.68-2.23,3.28-3.33,4.8s-2.21,2.83-3.32,3.95-2.3,2.02-3.54,2.7c-1.24.68-2.56,1.01-3.96,1.01-1.82,0-3.13-.44-3.92-1.33-.79-.89-1.19-2.17-1.19-3.85,0-2.57.82-6.09,2.45-10.57l2.8-7.84h-.21c-.98,2.38-2.06,4.95-3.25,7.7-1.19,2.75-2.51,5.3-3.96,7.63-1.45,2.33-3.02,4.27-4.72,5.81-1.7,1.54-3.54,2.31-5.5,2.31-.89,0-1.79-.12-2.7-.35-.91-.23-1.73-.63-2.45-1.19-.72-.56-1.31-1.31-1.75-2.24-.44-.93-.67-2.1-.67-3.5,0-.79.08-1.67.25-2.62.16-.96.43-2.04.81-3.25l3.99-12.18Z"/>
      <path class="cls-1" d="M204.05,47.04c0-3.08.62-6.12,1.85-9.13s2.91-5.71,5-8.08c2.1-2.38,4.56-4.3,7.39-5.78,2.82-1.47,5.82-2.21,8.99-2.21,2.66,0,4.78.5,6.37,1.51,1.59,1,2.38,2.37,2.38,4.09,0,1.35-.35,2.54-1.05,3.57s-1.63,1.94-2.8,2.73c-1.17.79-2.49,1.48-3.96,2.07-1.47.58-3,1.08-4.58,1.5-1.59.42-3.14.77-4.66,1.05s-2.9.54-4.17.77c-.56,1.68-.99,3.27-1.29,4.76-.3,1.49-.46,2.78-.46,3.85,0,1.91.4,3.41,1.19,4.48.79,1.07,2.03,1.61,3.71,1.61,1.07,0,2.18-.26,3.33-.77,1.14-.51,2.25-1.21,3.33-2.1,1.07-.89,2.09-1.89,3.04-3.01.96-1.12,1.81-2.26,2.55-3.43.09-.09.21-.2.35-.32.14-.12.33-.17.56-.17.28,0,.42.09.42.28,0,.14-.07.33-.21.56-.89,1.35-1.89,2.75-3.01,4.2-1.12,1.45-2.4,2.75-3.85,3.92-1.45,1.17-3.03,2.12-4.76,2.87-1.73.75-3.62,1.12-5.67,1.12-3.08,0-5.52-.88-7.32-2.62-1.8-1.75-2.69-4.19-2.69-7.32ZM215.32,37.66c1.54-.47,3.13-1.01,4.76-1.64s3.12-1.41,4.45-2.35c1.33-.93,2.43-2.05,3.29-3.36.86-1.31,1.29-2.87,1.29-4.69,0-1.59-.82-2.38-2.45-2.38-1.12,0-2.23.42-3.32,1.26-1.1.84-2.14,1.95-3.12,3.33-.98,1.38-1.88,2.92-2.7,4.62-.82,1.7-1.55,3.44-2.21,5.21Z"/>
      <path class="cls-1" d="M259.56,34.44c0-2.15.51-4.01,1.54-5.6,1.03-1.59,2.34-2.9,3.96-3.95,1.61-1.05,3.39-1.83,5.35-2.35,1.96-.51,3.85-.77,5.67-.77,2.66,0,4.74.31,6.23.94,1.49.63,2.24,1.69,2.24,3.19,0,1.12-.31,1.96-.94,2.52-.63.56-1.29.84-2,.84-.84,0-1.52-.42-2.03-1.26-.09-1.59-.57-2.69-1.43-3.33-.86-.63-1.95-.94-3.25-.94-.89,0-1.73.14-2.52.42-.79.28-1.5.68-2.13,1.19-.63.51-1.13,1.14-1.5,1.89-.37.75-.56,1.59-.56,2.52,0,.7.19,1.34.56,1.92.37.58.85,1.12,1.43,1.61.58.49,1.23.93,1.92,1.33.7.4,1.38.8,2.03,1.22.7.47,1.4.95,2.1,1.44.7.49,1.34,1.04,1.92,1.64.58.61,1.05,1.28,1.4,2.03.35.75.53,1.61.53,2.59,0,2.33-.57,4.35-1.71,6.06-1.14,1.7-2.61,3.1-4.41,4.2-1.8,1.1-3.77,1.9-5.92,2.42-2.15.51-4.2.77-6.16.77-2.75,0-4.91-.34-6.47-1.02-1.56-.68-2.35-1.81-2.35-3.39,0-.56.12-1.17.35-1.82.23-.65.56-1.25.98-1.79.42-.54.9-.98,1.44-1.33.54-.35,1.11-.53,1.71-.53.75,0,1,.33.77.98-.23.65-.48,1.18-.73,1.58-.26.4-.38.99-.38,1.79,0,.7.16,1.27.49,1.71.33.44.75.81,1.26,1.08.51.28,1.07.48,1.68.6.61.12,1.21.17,1.82.17,1.07,0,2.11-.16,3.11-.49,1-.33,1.89-.8,2.66-1.43.77-.63,1.39-1.4,1.86-2.31.47-.91.7-1.92.7-3.04,0-.75-.17-1.41-.52-2-.35-.58-.79-1.11-1.33-1.58-.54-.47-1.13-.9-1.79-1.29-.65-.4-1.31-.8-1.96-1.22-.7-.42-1.38-.86-2.03-1.33-.65-.47-1.25-.99-1.78-1.58-.54-.58-.97-1.22-1.3-1.92s-.49-1.49-.49-2.38Z"/>
      <path class="cls-1" d="M294.35,31.57c.42-1.35.63-2.4.63-3.15,0-.98-.32-1.64-.95-2-.63-.35-1.62-.55-2.97-.59-.23,0-.33-.14-.28-.42.14-.37.37-.58.7-.63,2.8-.33,5.21-.7,7.25-1.12s4.12-.96,6.26-1.61c.19-.09.44-.14.77-.14.42,0,.56.23.42.7l-6.86,21.14c-.98,2.99-1.47,5.3-1.47,6.93,0,1.12.21,1.91.63,2.38.42.47.98.7,1.68.7.93,0,1.97-.69,3.12-2.07,1.14-1.38,2.33-3.16,3.57-5.36,1.24-2.19,2.5-4.64,3.78-7.35,1.28-2.71,2.51-5.37,3.68-7.98l.63-2.17c.33-.98.55-1.85.67-2.62.12-.77.28-1.43.49-1.99.21-.56.55-1.02,1.02-1.37.47-.35,1.19-.62,2.17-.81.05,0,.29-.01.74-.03.44-.02.92-.04,1.43-.04s.99-.01,1.43-.04c.44-.02.69-.04.74-.04.14,0,.34.01.59.04.26.02.53.07.81.14.28.07.51.15.7.25.19.09.26.19.21.28l-6.58,20.37c-.42,1.35-.79,2.64-1.12,3.85-.33,1.21-.49,2.26-.49,3.15,0,.7.13,1.26.38,1.68.26.42.69.63,1.29.63.56,0,1.13-.23,1.71-.7.58-.47,1.2-1.08,1.86-1.85.65-.77,1.35-1.66,2.1-2.66.75-1,1.56-2.02,2.45-3.04.23-.23.42-.35.56-.35.23,0,.38.13.46.38.07.26.06.43-.04.52-1.12,1.68-2.23,3.28-3.33,4.8-1.1,1.52-2.21,2.83-3.33,3.95-1.12,1.12-2.3,2.02-3.54,2.7s-2.55,1.01-3.96,1.01c-1.82,0-3.13-.44-3.92-1.33-.79-.89-1.19-2.17-1.19-3.85,0-2.57.82-6.09,2.45-10.57l2.8-7.84h-.21c-.98,2.38-2.07,4.95-3.25,7.7-1.19,2.75-2.51,5.3-3.96,7.63-1.45,2.33-3.02,4.27-4.73,5.81-1.7,1.54-3.54,2.31-5.5,2.31-.89,0-1.79-.12-2.69-.35-.91-.23-1.73-.63-2.45-1.19-.72-.56-1.31-1.31-1.75-2.24-.44-.93-.67-2.1-.67-3.5,0-.79.08-1.67.25-2.62.16-.96.43-2.04.8-3.25l3.99-12.18Z"/>
      <path class="cls-1" d="M347.68,48.16c0-3.03.59-6.1,1.79-9.21,1.19-3.1,2.83-5.92,4.93-8.43,2.1-2.52,4.57-4.58,7.42-6.2,2.85-1.61,5.93-2.42,9.24-2.42,2.1,0,3.77.3,5,.91,1.24.61,2.25,1.52,3.04,2.73h.14c.47-.37,1.03-.83,1.68-1.36.65-.54,1.26-1.06,1.82-1.58.51-.42,1.12-.63,1.82-.63h.77c.51,0,.77.19.77.56,0,.09-.02.23-.07.42l-6.51,20.02c-1.03,3.08-1.56,5.04-1.61,5.88-.05.84-.07,1.31-.07,1.4,0,1.35.61,2.03,1.82,2.03.56,0,1.14-.23,1.75-.7.61-.47,1.25-1.08,1.92-1.85.68-.77,1.38-1.66,2.1-2.66.72-1,1.5-2.02,2.34-3.04.09-.09.19-.14.28-.14.14,0,.3.07.49.21.19.14.28.26.28.35,0,.05-.02.09-.07.14-1.12,1.68-2.22,3.28-3.29,4.8-1.07,1.52-2.18,2.85-3.33,3.99-1.14,1.14-2.33,2.04-3.57,2.7-1.24.65-2.56.98-3.96.98-2.71,0-4.06-1.61-4.06-4.83,0-1.96.49-4.5,1.47-7.63l2.73-7.35h-.14c-3.03,6.39-5.96,11.26-8.79,14.59-2.82,3.34-5.71,5-8.65,5s-5.14-.68-6.89-2.03-2.62-3.57-2.62-6.65ZM356.29,49.91c0,1.63.33,2.75.98,3.36.65.61,1.42.91,2.31.91,1.96,0,4.26-1.79,6.9-5.36,2.64-3.57,5.33-8.58,8.08-15.01l1.05-3.36c.19-.93.28-1.75.28-2.45,0-.93-.22-1.87-.67-2.8-.44-.93-1.5-1.4-3.19-1.4-1.45,0-2.85.47-4.2,1.4-1.35.93-2.61,2.16-3.78,3.67-1.17,1.52-2.23,3.22-3.18,5.11-.96,1.89-1.77,3.8-2.45,5.74-.68,1.94-1.2,3.8-1.58,5.6-.37,1.8-.56,3.33-.56,4.58Z"/>
      <path class="cls-1" d="M398.43,31.57c.23-.65.42-1.24.56-1.75.14-.51.21-1,.21-1.47,0-.79-.34-1.38-1.01-1.75-.68-.37-1.79-.56-3.33-.56-.23,0-.35-.09-.35-.28.05-.19.14-.37.28-.56.14-.19.3-.28.49-.28,2.75-.37,5.2-.76,7.35-1.15s4.29-.92,6.44-1.58c.28-.09.54-.14.77-.14.47,0,.63.23.49.7l-6.72,19.81h.21c1.26-2.43,2.45-4.87,3.57-7.32,1.12-2.45,2.28-4.67,3.46-6.65s2.48-3.61,3.88-4.87,3.03-1.89,4.9-1.89c.84,0,1.64.09,2.42.28.77.19,1.43.51,1.99.98.56.47,1.02,1.1,1.37,1.89.35.79.53,1.82.53,3.08,0,1.96-.52,4.55-1.54,7.77l-2.24,6.72h.28c1.26-2.43,2.44-4.87,3.54-7.32,1.1-2.45,2.24-4.67,3.43-6.65,1.19-1.98,2.48-3.61,3.88-4.87s3.03-1.89,4.9-1.89c.84,0,1.64.09,2.41.28.77.19,1.44.5,2,.95.56.44,1.01,1.07,1.36,1.89.35.82.53,1.86.53,3.12,0,1.96-.51,4.55-1.54,7.77l-2.31,7.14c-.47,1.35-.84,2.64-1.12,3.85-.28,1.21-.42,2.26-.42,3.15,0,.75.1,1.32.31,1.71.21.4.62.59,1.22.59.56,0,1.14-.23,1.75-.7.61-.47,1.24-1.08,1.89-1.85.65-.77,1.34-1.66,2.06-2.66.72-1,1.53-2.02,2.42-3.04.23-.23.42-.35.56-.35.23,0,.38.13.46.38.07.26.06.43-.04.52-1.12,1.68-2.22,3.28-3.29,4.8-1.07,1.52-2.18,2.83-3.33,3.95-1.14,1.12-2.33,2.02-3.57,2.7-1.24.68-2.56,1.01-3.96,1.01-1.96,0-3.37-.49-4.24-1.47-.86-.98-1.29-2.45-1.29-4.41,0-2.52.7-5.81,2.1-9.87l1.82-5.25c.75-2.15,1.28-3.88,1.61-5.21.32-1.33.49-2.39.49-3.18s-.15-1.34-.45-1.65c-.3-.3-.71-.46-1.23-.46-.56,0-1.22.44-1.99,1.33-.77.89-1.6,2.05-2.48,3.5-.89,1.45-1.81,3.1-2.77,4.97-.96,1.87-1.9,3.78-2.84,5.74s-1.83,3.91-2.69,5.85c-.87,1.94-1.65,3.67-2.35,5.21l-1.05,3.29c-.33.93-.93,1.35-1.82,1.26l-4.76-.49c-.75-.09-1.27-.37-1.57-.84-.3-.47-.34-1.05-.11-1.75l5.46-17.57c.65-2.19,1.15-3.97,1.5-5.32s.53-2.43.53-3.22c0-.75-.15-1.26-.46-1.54-.3-.28-.69-.42-1.15-.42-.56,0-1.22.44-2,1.33-.77.89-1.6,2.07-2.48,3.54-.89,1.47-1.81,3.14-2.77,5-.96,1.87-1.9,3.79-2.83,5.78-.93,1.98-1.83,3.94-2.7,5.88-.86,1.94-1.64,3.67-2.34,5.21l-1.05,3.15c-.33.93-.93,1.35-1.82,1.26l-4.9-.49c-.75-.09-1.27-.37-1.57-.84-.3-.47-.34-1.03-.11-1.68l7.14-22.12Z"/>
      <path class="cls-1" d="M451.98,46.06c0-2.71.5-5.5,1.5-8.37,1-2.87,2.4-5.5,4.2-7.88s3.93-4.33,6.41-5.84,5.18-2.28,8.12-2.28c3.5,0,6.21.96,8.12,2.87,1.91,1.91,2.87,4.62,2.87,8.12,0,2.75-.49,5.56-1.47,8.43-.98,2.87-2.37,5.48-4.17,7.84-1.8,2.36-3.93,4.28-6.41,5.78-2.47,1.49-5.2,2.24-8.19,2.24-3.45,0-6.15-.95-8.08-2.83-1.94-1.89-2.9-4.58-2.9-8.08ZM460.87,48.58c0,2.19.28,3.9.84,5.11.56,1.21,1.38,1.82,2.45,1.82,1.54,0,2.93-.89,4.17-2.66,1.24-1.77,2.3-3.97,3.18-6.58.89-2.61,1.58-5.4,2.07-8.37.49-2.96.73-5.63.73-8.01,0-2.1-.26-3.78-.77-5.04-.51-1.26-1.24-1.89-2.17-1.89-1.03,0-2.01.41-2.94,1.23s-1.78,1.91-2.55,3.29c-.77,1.38-1.47,2.95-2.1,4.72-.63,1.77-1.16,3.62-1.58,5.53-.42,1.91-.75,3.8-.98,5.67-.23,1.87-.35,3.59-.35,5.18Z"/>
      <path class="cls-1" d="M493.98,31.5c.47-1.26.7-2.29.7-3.08,0-.93-.36-1.57-1.08-1.92-.72-.35-1.76-.55-3.11-.59-.33,0-.44-.14-.35-.42.14-.33.37-.54.7-.63,2.8-.33,5.2-.7,7.21-1.12,2.01-.42,4.08-.96,6.23-1.61.28-.09.54-.14.77-.14.47,0,.63.23.49.7l-4.69,14.77h.28c.7-1.31,1.58-2.86,2.62-4.66,1.05-1.8,2.24-3.52,3.57-5.18,1.33-1.66,2.83-3.06,4.51-4.2,1.68-1.14,3.5-1.71,5.46-1.71,1.12,0,1.94.25,2.45.74.51.49.77,1.08.77,1.79,0,.56-.14,1.12-.42,1.68-.28.56-.67,1.08-1.15,1.58-.49.49-1.1.89-1.82,1.19-.72.3-1.53.46-2.42.46-1.54,0-2.99.28-4.34.84-1.35.56-2.62,1.31-3.82,2.24-1.19.93-2.29,2.04-3.29,3.33-1,1.28-1.95,2.65-2.83,4.09l-5.25,15.75c-.14.42-.37.76-.7,1.02-.33.26-.7.36-1.12.31l-4.9-.49c-.75-.09-1.26-.38-1.54-.88-.28-.49-.3-1.08-.07-1.79l7.14-22.05Z"/>
      <path class="cls-1" d="M545.71,25.27h-4.41c-.37,0-.42-.14-.14-.42l1.4-1.75c.37-.28.72-.42,1.05-.42h2.94l1.89-4.97c1.07-.51,2.25-1.29,3.54-2.34,1.28-1.05,2.46-2.18,3.54-3.39,1.07,0,1.8.15,2.17.45.37.3.44.88.21,1.72l-2.8,8.54h8.68c.33,0,.4.16.21.49l-.84,1.61c-.28.33-.63.49-1.05.49h-7.91l-5.74,17.71c-.37,1.12-.65,2.21-.84,3.25-.19,1.05-.28,2-.28,2.83,0,.93.15,1.7.46,2.31.3.61.8.91,1.5.91.56,0,1.13-.23,1.71-.7.58-.47,1.2-1.08,1.86-1.85.65-.77,1.35-1.66,2.1-2.66.75-1,1.54-2.02,2.38-3.04.23-.23.43-.35.59-.35s.28.06.35.17c.07.12.12.25.14.38s.01.26-.04.35c-1.12,1.68-2.23,3.28-3.32,4.8-1.1,1.52-2.21,2.83-3.33,3.95-1.12,1.12-2.3,2.02-3.54,2.7-1.24.68-2.55,1.01-3.96,1.01-4.06,0-6.09-2.19-6.09-6.58,0-1.21.16-2.57.49-4.06.33-1.49.82-3.17,1.47-5.04l5.6-16.1Z"/>
      <path class="cls-1" d="M561.81,48.16c0-3.03.59-6.1,1.79-9.21,1.19-3.1,2.83-5.92,4.93-8.43,2.1-2.52,4.57-4.58,7.42-6.2s5.93-2.42,9.24-2.42c2.1,0,3.77.3,5,.91,1.24.61,2.25,1.52,3.04,2.73h.14c.47-.37,1.03-.83,1.68-1.36.65-.54,1.26-1.06,1.82-1.58.51-.42,1.12-.63,1.82-.63h.77c.51,0,.77.19.77.56,0,.09-.02.23-.07.42l-6.51,20.02c-1.03,3.08-1.56,5.04-1.61,5.88-.05.84-.07,1.31-.07,1.4,0,1.35.61,2.03,1.82,2.03.56,0,1.14-.23,1.75-.7.61-.47,1.25-1.08,1.92-1.85.68-.77,1.38-1.66,2.1-2.66.72-1,1.51-2.02,2.35-3.04.09-.09.19-.14.28-.14.14,0,.3.07.49.21.19.14.28.26.28.35,0,.05-.02.09-.07.14-1.12,1.68-2.22,3.28-3.29,4.8-1.07,1.52-2.18,2.85-3.33,3.99-1.14,1.14-2.33,2.04-3.57,2.7-1.24.65-2.56.98-3.96.98-2.71,0-4.06-1.61-4.06-4.83,0-1.96.49-4.5,1.47-7.63l2.73-7.35h-.14c-3.03,6.39-5.96,11.26-8.79,14.59-2.82,3.34-5.71,5-8.64,5s-5.15-.68-6.9-2.03-2.62-3.57-2.62-6.65ZM570.42,49.91c0,1.63.33,2.75.98,3.36.65.61,1.42.91,2.31.91,1.96,0,4.26-1.79,6.89-5.36,2.64-3.57,5.33-8.58,8.08-15.01l1.05-3.36c.19-.93.28-1.75.28-2.45,0-.93-.22-1.87-.67-2.8-.44-.93-1.5-1.4-3.18-1.4-1.45,0-2.85.47-4.2,1.4-1.35.93-2.61,2.16-3.78,3.67-1.17,1.52-2.23,3.22-3.18,5.11-.96,1.89-1.77,3.8-2.45,5.74-.68,1.94-1.2,3.8-1.58,5.6-.37,1.8-.56,3.33-.56,4.58Z"/>
      <path class="cls-1" d="M612.56,31.57c.23-.65.42-1.24.56-1.75.14-.51.21-1,.21-1.47,0-.79-.34-1.38-1.01-1.75-.68-.37-1.79-.56-3.33-.56-.23,0-.35-.09-.35-.28.05-.19.14-.37.28-.56.14-.19.3-.28.49-.28,2.75-.37,5.2-.76,7.35-1.15s4.29-.92,6.44-1.58c.28-.09.54-.14.77-.14.47,0,.63.23.49.7l-6.72,19.81h.21c1.26-2.43,2.45-4.87,3.57-7.32s2.27-4.67,3.46-6.65c1.19-1.98,2.48-3.61,3.88-4.87s3.03-1.89,4.9-1.89c.84,0,1.64.09,2.42.28.77.19,1.43.51,2,.98.56.47,1.01,1.1,1.36,1.89.35.79.53,1.82.53,3.08,0,1.96-.51,4.55-1.54,7.77l-2.24,6.72h.28c1.26-2.43,2.44-4.87,3.54-7.32,1.1-2.45,2.24-4.67,3.43-6.65s2.49-3.61,3.88-4.87c1.4-1.26,3.03-1.89,4.9-1.89.84,0,1.64.09,2.42.28.77.19,1.43.5,2,.95.56.44,1.01,1.07,1.36,1.89.35.82.53,1.86.53,3.12,0,1.96-.51,4.55-1.54,7.77l-2.31,7.14c-.47,1.35-.84,2.64-1.12,3.85-.28,1.21-.42,2.26-.42,3.15,0,.75.1,1.32.31,1.71.21.4.62.59,1.23.59.56,0,1.14-.23,1.75-.7.61-.47,1.24-1.08,1.89-1.85.65-.77,1.34-1.66,2.07-2.66.72-1,1.53-2.02,2.42-3.04.23-.23.42-.35.56-.35.23,0,.38.13.46.38.07.26.06.43-.04.52-1.12,1.68-2.22,3.28-3.29,4.8-1.07,1.52-2.18,2.83-3.33,3.95-1.14,1.12-2.33,2.02-3.57,2.7-1.24.68-2.56,1.01-3.96,1.01-1.96,0-3.37-.49-4.24-1.47-.86-.98-1.29-2.45-1.29-4.41,0-2.52.7-5.81,2.1-9.87l1.82-5.25c.75-2.15,1.28-3.88,1.61-5.21.33-1.33.49-2.39.49-3.18s-.15-1.34-.45-1.65c-.3-.3-.71-.46-1.23-.46-.56,0-1.22.44-2,1.33-.77.89-1.6,2.05-2.48,3.5-.89,1.45-1.81,3.1-2.77,4.97-.96,1.87-1.9,3.78-2.83,5.74s-1.83,3.91-2.69,5.85c-.86,1.94-1.65,3.67-2.35,5.21l-1.05,3.29c-.33.93-.93,1.35-1.82,1.26l-4.76-.49c-.75-.09-1.27-.37-1.58-.84-.3-.47-.34-1.05-.1-1.75l5.46-17.57c.65-2.19,1.16-3.97,1.5-5.32s.53-2.43.53-3.22c0-.75-.15-1.26-.46-1.54-.3-.28-.69-.42-1.16-.42-.56,0-1.22.44-2,1.33-.77.89-1.6,2.07-2.49,3.54-.89,1.47-1.81,3.14-2.76,5-.96,1.87-1.9,3.79-2.83,5.78-.93,1.98-1.83,3.94-2.7,5.88-.86,1.94-1.64,3.67-2.34,5.21l-1.05,3.15c-.33.93-.93,1.35-1.82,1.26l-4.9-.49c-.75-.09-1.27-.37-1.58-.84-.3-.47-.34-1.03-.11-1.68l7.14-22.12Z"/>
      <path class="cls-1" d="M674.02,23.94c1.4-4.11,3.27-7.67,5.6-10.67,2.33-3.01,4.89-5.5,7.67-7.46,2.78-1.96,5.65-3.42,8.61-4.38,2.96-.96,5.75-1.44,8.37-1.44,2.1,0,3.56.26,4.38.77s1.23,1.14,1.23,1.89-.22,1.44-.67,2.07c-.44.63-.99,1.18-1.65,1.64-.65.47-1.35.83-2.1,1.08-.75.26-1.45.38-2.1.38-.98,0-1.89-.21-2.73-.63s-1.62-.9-2.34-1.43c-.72-.54-1.4-1.01-2.03-1.44-.63-.42-1.2-.63-1.71-.63-1.12,0-2.11.33-2.98.98-.86.65-1.68,1.62-2.45,2.91-.77,1.28-1.53,2.89-2.27,4.83-.75,1.94-1.56,4.19-2.45,6.76l-9.31,26.53h.28c.65-1.21,1.42-2.65,2.31-4.3.89-1.66,1.89-3.36,3.01-5.11s2.32-3.48,3.61-5.18c1.28-1.7,2.62-3.23,4.02-4.58,1.4-1.35,2.82-2.44,4.27-3.25,1.45-.82,2.92-1.23,4.41-1.23,1.07,0,2.1.16,3.08.49.98.33,1.84.84,2.59,1.54.75.7,1.33,1.6,1.75,2.7.42,1.1.63,2.42.63,3.96,0,3.41-.67,6.7-2,9.87-1.33,3.17-3.15,5.97-5.46,8.4-2.31,2.43-5.02,4.38-8.12,5.85-3.1,1.47-6.41,2.2-9.91,2.2-1.35,0-2.74-.13-4.17-.38-1.42-.26-2.78-.63-4.06-1.12-1.28-.49-2.47-1.1-3.57-1.82-1.1-.72-2.02-1.53-2.76-2.42l9.03-27.37ZM673.74,51.8c1.96,2.19,4.11,3.29,6.44,3.29,1.49,0,2.92-.4,4.27-1.19,1.35-.79,2.62-1.83,3.81-3.12,1.19-1.28,2.26-2.76,3.22-4.45.96-1.68,1.78-3.39,2.48-5.14s1.24-3.46,1.61-5.15c.37-1.68.56-3.2.56-4.55,0-1.77-.31-3.17-.94-4.2-.63-1.03-1.55-1.54-2.77-1.54-.98,0-2.18.68-3.6,2.03-1.42,1.35-2.95,3.17-4.58,5.46-1.63,2.29-3.31,4.92-5.04,7.91-1.73,2.99-3.36,6.14-4.9,9.45l-.56,1.19Z"/>
      <path class="cls-1" d="M715.32,31.43c.33-.98.49-1.84.49-2.59,0-1.17-.37-1.96-1.12-2.38-.75-.42-1.63-.63-2.66-.63-.28,0-.42-.12-.42-.35,0-.37.23-.61.7-.7,1.49-.19,2.83-.37,4.02-.56,1.19-.19,2.33-.39,3.43-.6,1.1-.21,2.15-.44,3.15-.7,1-.26,2.04-.55,3.12-.88.19-.09.44-.14.77-.14.42,0,.56.23.42.7l-6.65,20.37c-.37,1.35-.72,2.64-1.05,3.85-.33,1.21-.49,2.26-.49,3.15,0,.7.13,1.26.38,1.68.26.42.67.63,1.23.63s1.14-.23,1.75-.7c.61-.47,1.24-1.08,1.89-1.85.65-.77,1.35-1.66,2.1-2.66.75-1,1.54-2.02,2.38-3.04.33-.23.51-.35.56-.35.23,0,.4.13.49.38.09.26.09.43,0,.52-1.12,1.68-2.23,3.28-3.33,4.8-1.1,1.52-2.21,2.83-3.33,3.95-1.12,1.12-2.3,2.02-3.54,2.7s-2.55,1.01-3.96,1.01c-1.96,0-3.37-.49-4.23-1.47-.86-.98-1.29-2.45-1.29-4.41,0-2.43.68-5.72,2.03-9.87l3.15-9.87ZM719.31,13.23c.84-.93,1.61-1.89,2.31-2.87.7-.98,1.41-1.86,2.13-2.62.72-.77,1.49-1.4,2.31-1.89.82-.49,1.74-.74,2.76-.74,1.31,0,2.33.33,3.08.98.75.65,1.12,1.52,1.12,2.59s-.37,2.13-1.12,3.04c-.75.91-1.67,1.69-2.76,2.34-1.1.65-2.28,1.16-3.54,1.5s-2.4.53-3.43.53c-.93,0-1.72-.14-2.35-.42-.63-.28-.94-.75-.94-1.4,0-.28.14-.63.42-1.05Z"/>
      <path class="cls-1" d="M731.63,47.04c0-3.08.62-6.12,1.86-9.13,1.24-3.01,2.91-5.71,5-8.08,2.1-2.38,4.56-4.3,7.38-5.78,2.82-1.47,5.82-2.21,9-2.21,2.66,0,4.78.5,6.37,1.51,1.59,1,2.38,2.37,2.38,4.09,0,1.35-.35,2.54-1.05,3.57s-1.63,1.94-2.8,2.73c-1.17.79-2.49,1.48-3.96,2.07-1.47.58-3,1.08-4.58,1.5-1.59.42-3.14.77-4.66,1.05-1.52.28-2.91.54-4.17.77-.56,1.68-.99,3.27-1.29,4.76-.3,1.49-.46,2.78-.46,3.85,0,1.91.4,3.41,1.19,4.48.79,1.07,2.03,1.61,3.71,1.61,1.07,0,2.18-.26,3.33-.77,1.14-.51,2.25-1.21,3.32-2.1,1.07-.89,2.09-1.89,3.04-3.01.96-1.12,1.81-2.26,2.56-3.43.09-.09.21-.2.35-.32.14-.12.33-.17.56-.17.28,0,.42.09.42.28,0,.14-.07.33-.21.56-.89,1.35-1.89,2.75-3.01,4.2-1.12,1.45-2.4,2.75-3.85,3.92-1.45,1.17-3.03,2.12-4.76,2.87-1.73.75-3.62,1.12-5.67,1.12-3.08,0-5.52-.88-7.32-2.62-1.8-1.75-2.7-4.19-2.7-7.32ZM742.9,37.66c1.54-.47,3.13-1.01,4.76-1.64,1.63-.63,3.12-1.41,4.45-2.35,1.33-.93,2.43-2.05,3.29-3.36.86-1.31,1.29-2.87,1.29-4.69,0-1.59-.82-2.38-2.45-2.38-1.12,0-2.23.42-3.33,1.26s-2.13,1.95-3.11,3.33c-.98,1.38-1.88,2.92-2.7,4.62-.82,1.7-1.55,3.44-2.21,5.21ZM761.31,7.98c.51-.65,1.08-1.14,1.71-1.47s1.25-.49,1.85-.49c.89,0,1.48.12,1.79.35.3.23.46.54.46.91,0,.47-.26,1.01-.77,1.64-.51.63-1.18,1.3-2,2-.82.7-1.71,1.4-2.7,2.1-.98.7-1.94,1.35-2.87,1.96s-1.77,1.14-2.52,1.61c-.75.47-1.31.79-1.68.98-.23.14-.49.25-.77.32-.28.07-.54.1-.77.1-.47,0-.7-.14-.7-.42,0-.19.14-.37.42-.56.98-.89,1.85-1.69,2.62-2.42.77-.72,1.49-1.42,2.17-2.1s1.31-1.38,1.89-2.1c.58-.72,1.2-1.53,1.86-2.42Z"/>
      <path class="cls-1" d="M772.16,31.57c.14-.51.26-.98.35-1.4.09-.42.14-.82.14-1.19,0-.93-.3-1.66-.91-2.17-.61-.51-1.66-.77-3.15-.77-.19,0-.28-.12-.28-.35,0-.42.23-.68.7-.77,2.8-.33,5.26-.7,7.38-1.12,2.12-.42,4.26-.96,6.41-1.61.28-.09.54-.14.77-.14.47,0,.63.23.49.7l-6.72,19.81h.21c1.26-2.43,2.49-4.87,3.67-7.32,1.19-2.45,2.42-4.67,3.67-6.65,1.26-1.98,2.61-3.61,4.06-4.87,1.45-1.26,3.1-1.89,4.97-1.89.89,0,1.71.09,2.49.28.77.19,1.45.5,2.03.95.58.44,1.04,1.07,1.37,1.89.33.82.49,1.86.49,3.12,0,.93-.12,2.05-.35,3.36-.23,1.31-.61,2.78-1.12,4.41l-2.31,7.14c-.47,1.35-.85,2.65-1.15,3.88-.3,1.24-.46,2.3-.46,3.18,0,1.49.54,2.24,1.61,2.24.56,0,1.14-.23,1.75-.7.61-.47,1.24-1.08,1.89-1.85.65-.77,1.34-1.66,2.06-2.66.72-1,1.53-2.02,2.42-3.04.23-.23.42-.35.56-.35.23,0,.38.13.46.38.07.26.06.43-.04.52-1.12,1.68-2.23,3.28-3.33,4.8-1.1,1.52-2.21,2.83-3.33,3.95-1.12,1.12-2.3,2.02-3.54,2.7s-2.55,1.01-3.96,1.01c-1.96,0-3.37-.49-4.23-1.47-.86-.98-1.29-2.45-1.29-4.41,0-1.21.19-2.65.56-4.3.37-1.66.89-3.51,1.54-5.57l1.82-5.25c.7-2.15,1.22-3.9,1.57-5.25.35-1.35.53-2.43.53-3.22s-.16-1.33-.49-1.61c-.33-.28-.75-.42-1.26-.42-.56,0-1.24.42-2.03,1.26-.79.84-1.64,1.95-2.55,3.33-.91,1.38-1.85,2.95-2.83,4.72-.98,1.77-1.94,3.6-2.87,5.5-.93,1.89-1.84,3.77-2.73,5.63-.89,1.87-1.68,3.57-2.38,5.11l-1.4,4.27c-.14.42-.37.76-.7,1.02-.33.26-.7.36-1.12.31l-5.04-.49c-.65-.09-1.13-.38-1.43-.88-.3-.49-.34-1.08-.11-1.79l7.14-21.98Z"/>
      <path class="cls-1" d="M833.06,31.57c.23-.65.42-1.24.56-1.75.14-.51.21-1,.21-1.47,0-.79-.34-1.38-1.01-1.75-.68-.37-1.79-.56-3.33-.56-.23,0-.35-.09-.35-.28.05-.19.14-.37.28-.56.14-.19.3-.28.49-.28,2.75-.37,5.2-.76,7.35-1.15s4.29-.92,6.44-1.58c.28-.09.54-.14.77-.14.47,0,.63.23.49.7l-6.72,19.81h.21c1.26-2.43,2.45-4.87,3.57-7.32s2.27-4.67,3.46-6.65c1.19-1.98,2.48-3.61,3.88-4.87s3.03-1.89,4.9-1.89c.84,0,1.64.09,2.42.28.77.19,1.43.51,2,.98.56.47,1.01,1.1,1.36,1.89.35.79.53,1.82.53,3.08,0,1.96-.51,4.55-1.54,7.77l-2.24,6.72h.28c1.26-2.43,2.44-4.87,3.54-7.32,1.1-2.45,2.24-4.67,3.43-6.65s2.49-3.61,3.88-4.87c1.4-1.26,3.03-1.89,4.9-1.89.84,0,1.64.09,2.42.28.77.19,1.43.5,2,.95.56.44,1.01,1.07,1.36,1.89.35.82.53,1.86.53,3.12,0,1.96-.51,4.55-1.54,7.77l-2.31,7.14c-.47,1.35-.84,2.64-1.12,3.85-.28,1.21-.42,2.26-.42,3.15,0,.75.1,1.32.31,1.71.21.4.62.59,1.23.59.56,0,1.14-.23,1.75-.7.61-.47,1.24-1.08,1.89-1.85.65-.77,1.34-1.66,2.07-2.66.72-1,1.53-2.02,2.42-3.04.23-.23.42-.35.56-.35.23,0,.38.13.46.38.07.26.06.43-.04.52-1.12,1.68-2.22,3.28-3.29,4.8-1.07,1.52-2.18,2.83-3.33,3.95-1.14,1.12-2.33,2.02-3.57,2.7-1.24.68-2.56,1.01-3.96,1.01-1.96,0-3.37-.49-4.24-1.47-.86-.98-1.29-2.45-1.29-4.41,0-2.52.7-5.81,2.1-9.87l1.82-5.25c.75-2.15,1.28-3.88,1.61-5.21.33-1.33.49-2.39.49-3.18s-.15-1.34-.45-1.65c-.3-.3-.71-.46-1.23-.46-.56,0-1.22.44-2,1.33-.77.89-1.6,2.05-2.48,3.5-.89,1.45-1.81,3.1-2.77,4.97-.96,1.87-1.9,3.78-2.83,5.74s-1.83,3.91-2.69,5.85c-.86,1.94-1.65,3.67-2.35,5.21l-1.05,3.29c-.33.93-.93,1.35-1.82,1.26l-4.76-.49c-.75-.09-1.27-.37-1.58-.84-.3-.47-.34-1.05-.1-1.75l5.46-17.57c.65-2.19,1.16-3.97,1.5-5.32s.53-2.43.53-3.22c0-.75-.15-1.26-.46-1.54-.3-.28-.69-.42-1.16-.42-.56,0-1.22.44-2,1.33-.77.89-1.6,2.07-2.49,3.54-.89,1.47-1.81,3.14-2.76,5-.96,1.87-1.9,3.79-2.83,5.78-.93,1.98-1.83,3.94-2.7,5.88-.86,1.94-1.64,3.67-2.34,5.21l-1.05,3.15c-.33.93-.93,1.35-1.82,1.26l-4.9-.49c-.75-.09-1.27-.37-1.58-.84-.3-.47-.34-1.03-.11-1.68l7.14-22.12Z"/>
      <path class="cls-1" d="M886.19,47.04c0-3.08.62-6.12,1.86-9.13,1.24-3.01,2.91-5.71,5-8.08,2.1-2.38,4.56-4.3,7.38-5.78,2.82-1.47,5.82-2.21,9-2.21,2.66,0,4.78.5,6.37,1.51,1.59,1,2.38,2.37,2.38,4.09,0,1.35-.35,2.54-1.05,3.57s-1.63,1.94-2.8,2.73c-1.17.79-2.49,1.48-3.96,2.07-1.47.58-3,1.08-4.58,1.5-1.59.42-3.14.77-4.66,1.05-1.52.28-2.91.54-4.17.77-.56,1.68-.99,3.27-1.29,4.76-.3,1.49-.46,2.78-.46,3.85,0,1.91.4,3.41,1.19,4.48.79,1.07,2.03,1.61,3.71,1.61,1.07,0,2.18-.26,3.33-.77,1.14-.51,2.25-1.21,3.32-2.1,1.07-.89,2.09-1.89,3.04-3.01.96-1.12,1.81-2.26,2.56-3.43.09-.09.21-.2.35-.32.14-.12.33-.17.56-.17.28,0,.42.09.42.28,0,.14-.07.33-.21.56-.89,1.35-1.89,2.75-3.01,4.2-1.12,1.45-2.4,2.75-3.85,3.92-1.45,1.17-3.03,2.12-4.76,2.87-1.73.75-3.62,1.12-5.67,1.12-3.08,0-5.52-.88-7.32-2.62-1.8-1.75-2.7-4.19-2.7-7.32ZM897.46,37.66c1.54-.47,3.13-1.01,4.76-1.64,1.63-.63,3.12-1.41,4.45-2.35,1.33-.93,2.43-2.05,3.29-3.36.86-1.31,1.29-2.87,1.29-4.69,0-1.59-.82-2.38-2.45-2.38-1.12,0-2.23.42-3.33,1.26s-2.13,1.95-3.11,3.33c-.98,1.38-1.88,2.92-2.7,4.62-.82,1.7-1.55,3.44-2.21,5.21Z"/>
      <path class="cls-1" d="M926.72,31.5c.47-1.26.7-2.29.7-3.08,0-.93-.36-1.57-1.08-1.92-.72-.35-1.76-.55-3.11-.59-.33,0-.44-.14-.35-.42.14-.33.37-.54.7-.63,2.8-.33,5.2-.7,7.21-1.12,2.01-.42,4.08-.96,6.23-1.61.28-.09.54-.14.77-.14.47,0,.63.23.49.7l-4.69,14.77h.28c.7-1.31,1.58-2.86,2.62-4.66,1.05-1.8,2.24-3.52,3.57-5.18,1.33-1.66,2.83-3.06,4.51-4.2,1.68-1.14,3.5-1.71,5.46-1.71,1.12,0,1.94.25,2.45.74.51.49.77,1.08.77,1.79,0,.56-.14,1.12-.42,1.68-.28.56-.67,1.08-1.15,1.58-.49.49-1.1.89-1.82,1.19-.72.3-1.53.46-2.42.46-1.54,0-2.99.28-4.34.84-1.35.56-2.62,1.31-3.82,2.24-1.19.93-2.29,2.04-3.29,3.33-1,1.28-1.95,2.65-2.83,4.09l-5.25,15.75c-.14.42-.37.76-.7,1.02-.33.26-.7.36-1.12.31l-4.9-.49c-.75-.09-1.26-.38-1.54-.88-.28-.49-.3-1.08-.07-1.79l7.14-22.05Z"/>
      <path class="cls-1" d="M950.52,47.04c0-3.08.62-6.12,1.86-9.13,1.24-3.01,2.91-5.71,5-8.08,2.1-2.38,4.56-4.3,7.38-5.78,2.82-1.47,5.82-2.21,9-2.21,2.66,0,4.78.5,6.37,1.51,1.59,1,2.38,2.37,2.38,4.09,0,1.35-.35,2.54-1.05,3.57s-1.63,1.94-2.8,2.73c-1.17.79-2.49,1.48-3.96,2.07-1.47.58-3,1.08-4.58,1.5-1.59.42-3.14.77-4.66,1.05-1.52.28-2.91.54-4.17.77-.56,1.68-.99,3.27-1.29,4.76-.3,1.49-.46,2.78-.46,3.85,0,1.91.4,3.41,1.19,4.48.79,1.07,2.03,1.61,3.71,1.61,1.07,0,2.18-.26,3.33-.77,1.14-.51,2.25-1.21,3.32-2.1,1.07-.89,2.09-1.89,3.04-3.01.96-1.12,1.81-2.26,2.56-3.43.09-.09.21-.2.35-.32.14-.12.33-.17.56-.17.28,0,.42.09.42.28,0,.14-.07.33-.21.56-.89,1.35-1.89,2.75-3.01,4.2-1.12,1.45-2.4,2.75-3.85,3.92-1.45,1.17-3.03,2.12-4.76,2.87-1.73.75-3.62,1.12-5.67,1.12-3.08,0-5.52-.88-7.32-2.62-1.8-1.75-2.7-4.19-2.7-7.32ZM961.79,37.66c1.54-.47,3.13-1.01,4.76-1.64,1.63-.63,3.12-1.41,4.45-2.35,1.33-.93,2.43-2.05,3.29-3.36.86-1.31,1.29-2.87,1.29-4.69,0-1.59-.82-2.38-2.45-2.38-1.12,0-2.23.42-3.33,1.26s-2.13,1.95-3.11,3.33c-.98,1.38-1.88,2.92-2.7,4.62-.82,1.7-1.55,3.44-2.21,5.21Z"/>
      <path class="cls-1" d="M983.91,45.78c0-3.13.61-6.14,1.82-9.03,1.21-2.89,2.86-5.45,4.93-7.67,2.08-2.22,4.52-3.99,7.32-5.32s5.81-2,9.03-2,5.24.48,6.47,1.43c1.24.96,1.86,2,1.86,3.12,0,.93-.32,1.76-.95,2.49s-1.44,1.08-2.42,1.08c-.61,0-1.07-.16-1.4-.49-.33-.33-.57-.74-.73-1.23-.16-.49-.3-1.03-.42-1.61-.12-.58-.29-1.12-.53-1.61-.23-.49-.55-.9-.95-1.22-.4-.33-.97-.49-1.71-.49-2.01,0-3.83.74-5.46,2.21-1.63,1.47-3.01,3.31-4.13,5.53-1.12,2.22-1.98,4.63-2.59,7.25-.61,2.61-.91,5.09-.91,7.42,0,5.46,1.75,8.19,5.25,8.19,1.87,0,3.73-.51,5.6-1.54,1.87-1.03,3.78-2.68,5.74-4.97.19-.19.42-.28.7-.28s.42.12.42.35c0,.19-.05.35-.14.49-1.07,1.4-2.17,2.66-3.29,3.78s-2.32,2.08-3.61,2.87c-1.28.79-2.67,1.4-4.17,1.82-1.49.42-3.15.63-4.97.63-1.49,0-2.89-.25-4.2-.74-1.31-.49-2.45-1.2-3.43-2.13-.98-.93-1.75-2.1-2.31-3.5-.56-1.4-.84-3.01-.84-4.83Z"/>
      <path class="cls-1" d="M1016.88,47.04c0-3.08.62-6.12,1.86-9.13,1.24-3.01,2.91-5.71,5-8.08,2.1-2.38,4.56-4.3,7.38-5.78,2.82-1.47,5.82-2.21,9-2.21,2.66,0,4.78.5,6.37,1.51,1.59,1,2.38,2.37,2.38,4.09,0,1.35-.35,2.54-1.05,3.57s-1.63,1.94-2.8,2.73c-1.17.79-2.49,1.48-3.96,2.07-1.47.58-3,1.08-4.58,1.5-1.59.42-3.14.77-4.66,1.05-1.52.28-2.91.54-4.17.77-.56,1.68-.99,3.27-1.29,4.76-.3,1.49-.46,2.78-.46,3.85,0,1.91.4,3.41,1.19,4.48.79,1.07,2.03,1.61,3.71,1.61,1.07,0,2.18-.26,3.33-.77,1.14-.51,2.25-1.21,3.32-2.1,1.07-.89,2.09-1.89,3.04-3.01.96-1.12,1.81-2.26,2.56-3.43.09-.09.21-.2.35-.32.14-.12.33-.17.56-.17.28,0,.42.09.42.28,0,.14-.07.33-.21.56-.89,1.35-1.89,2.75-3.01,4.2-1.12,1.45-2.4,2.75-3.85,3.92-1.45,1.17-3.03,2.12-4.76,2.87-1.73.75-3.62,1.12-5.67,1.12-3.08,0-5.52-.88-7.32-2.62-1.8-1.75-2.7-4.19-2.7-7.32ZM1028.15,37.66c1.54-.47,3.13-1.01,4.76-1.64,1.63-.63,3.12-1.41,4.45-2.35,1.33-.93,2.43-2.05,3.29-3.36.86-1.31,1.29-2.87,1.29-4.69,0-1.59-.82-2.38-2.45-2.38-1.12,0-2.23.42-3.33,1.26s-2.13,1.95-3.11,3.33c-.98,1.38-1.88,2.92-2.7,4.62-.82,1.7-1.55,3.44-2.21,5.21Z"/>
      <path class="cls-1" d="M1078.06,25.27h-4.41c-.14,0-.23-.05-.28-.14-.05-.09,0-.19.14-.28l1.47-1.75c.28-.28.61-.42.98-.42h3.01l.42-1.26c1.35-3.73,3.19-6.94,5.5-9.62,2.31-2.68,4.83-4.9,7.56-6.65,2.73-1.75,5.52-3.04,8.37-3.88,2.85-.84,5.51-1.26,7.98-1.26,2.1,0,3.56.27,4.38.81.82.54,1.22,1.18,1.22,1.92s-.22,1.42-.67,2.03-.99,1.14-1.64,1.61c-.65.47-1.35.83-2.1,1.08-.75.26-1.45.38-2.1.38-.93,0-1.82-.21-2.66-.63-.84-.42-1.63-.9-2.38-1.43-.75-.54-1.42-1.01-2.03-1.44-.61-.42-1.17-.63-1.68-.63-2.29,0-4.17,1.29-5.63,3.89-1.47,2.59-3,6.45-4.58,11.58l-1.05,3.5h12.11c.37,0,.49.16.35.49l-.84,1.61c-.09.19-.23.32-.42.38-.19.07-.38.11-.56.11h-11.48l-8.19,24.92c-1.4,4.15-3.27,7.73-5.6,10.75-2.33,3.01-4.82,5.5-7.46,7.46-2.64,1.96-5.25,3.42-7.84,4.38-2.59.96-4.82,1.43-6.69,1.43-2.15,0-3.63-.27-4.45-.8-.82-.54-1.22-1.18-1.22-1.92,0-.7.2-1.37.59-2,.4-.63.9-1.18,1.5-1.65.61-.47,1.27-.83,2-1.08.72-.26,1.41-.38,2.07-.38.79,0,1.47.21,2.03.63.56.42,1.07.9,1.54,1.43s.93,1.02,1.4,1.44c.47.42,1,.63,1.61.63,1.12,0,2.12-.33,3.01-.98.89-.65,1.71-1.62,2.49-2.91.77-1.28,1.53-2.89,2.27-4.83.75-1.94,1.54-4.19,2.38-6.75l9.59-29.75Z"/>
      <path class="cls-1" d="M1103.12,24.01c1.4-4.11,3.28-7.67,5.64-10.68,2.36-3.01,4.92-5.51,7.7-7.49s5.65-3.45,8.61-4.41c2.96-.96,5.75-1.44,8.37-1.44,2.1,0,3.56.26,4.38.77.82.51,1.22,1.17,1.22,1.96,0,.7-.19,1.37-.56,2-.37.63-.86,1.18-1.47,1.64-.61.47-1.31.83-2.1,1.08-.79.26-1.59.38-2.38.38-.98,0-1.89-.21-2.73-.63-.84-.42-1.62-.9-2.34-1.43-.72-.54-1.4-1.01-2.03-1.44-.63-.42-1.2-.63-1.71-.63-1.12,0-2.12.33-3.01.98-.89.65-1.71,1.62-2.49,2.91-.77,1.28-1.53,2.89-2.27,4.83-.75,1.94-1.54,4.19-2.38,6.76l-7.42,22.54c-1.31,3.87-1.96,6.63-1.96,8.26,0,1.54.56,2.31,1.68,2.31.56,0,1.14-.22,1.75-.67.61-.44,1.24-1.05,1.89-1.82.65-.77,1.35-1.66,2.1-2.66.75-1,1.54-2.04,2.38-3.12.23-.23.48-.25.73-.04s.32.41.18.59c-1.12,1.68-2.22,3.28-3.29,4.8-1.07,1.52-2.17,2.83-3.29,3.95-1.12,1.12-2.3,2.02-3.54,2.7-1.24.68-2.55,1.01-3.96,1.01-1.77,0-3.1-.58-3.99-1.75-.89-1.17-1.33-2.8-1.33-4.9,0-2.47.61-5.51,1.82-9.1l5.81-17.29Z"/>
      <path class="cls-1" d="M1117.26,46.06c0-2.71.5-5.5,1.5-8.37,1-2.87,2.4-5.5,4.2-7.88s3.93-4.33,6.41-5.84,5.18-2.28,8.12-2.28c3.5,0,6.21.96,8.12,2.87,1.91,1.91,2.87,4.62,2.87,8.12,0,2.75-.49,5.56-1.47,8.43-.98,2.87-2.37,5.48-4.17,7.84-1.8,2.36-3.93,4.28-6.41,5.78-2.47,1.49-5.2,2.24-8.19,2.24-3.45,0-6.15-.95-8.08-2.83-1.94-1.89-2.9-4.58-2.9-8.08ZM1126.15,48.58c0,2.19.28,3.9.84,5.11.56,1.21,1.38,1.82,2.45,1.82,1.54,0,2.93-.89,4.17-2.66,1.24-1.77,2.3-3.97,3.18-6.58.89-2.61,1.58-5.4,2.07-8.37.49-2.96.73-5.63.73-8.01,0-2.1-.26-3.78-.77-5.04-.51-1.26-1.24-1.89-2.17-1.89-1.03,0-2.01.41-2.94,1.23s-1.78,1.91-2.55,3.29c-.77,1.38-1.47,2.95-2.1,4.72-.63,1.77-1.16,3.62-1.58,5.53-.42,1.91-.75,3.8-.98,5.67-.23,1.87-.35,3.59-.35,5.18Z"/>
      <path class="cls-1" d="M1159.26,31.5c.47-1.26.7-2.29.7-3.08,0-.93-.36-1.57-1.08-1.92-.72-.35-1.76-.55-3.11-.59-.33,0-.44-.14-.35-.42.14-.33.37-.54.7-.63,2.8-.33,5.2-.7,7.21-1.12,2.01-.42,4.08-.96,6.23-1.61.28-.09.54-.14.77-.14.47,0,.63.23.49.7l-4.69,14.77h.28c.7-1.31,1.58-2.86,2.62-4.66,1.05-1.8,2.24-3.52,3.57-5.18,1.33-1.66,2.83-3.06,4.51-4.2,1.68-1.14,3.5-1.71,5.46-1.71,1.12,0,1.94.25,2.45.74.51.49.77,1.08.77,1.79,0,.56-.14,1.12-.42,1.68-.28.56-.67,1.08-1.15,1.58-.49.49-1.1.89-1.82,1.19-.72.3-1.53.46-2.42.46-1.54,0-2.99.28-4.34.84-1.35.56-2.62,1.31-3.82,2.24-1.19.93-2.29,2.04-3.29,3.33-1,1.28-1.95,2.65-2.83,4.09l-5.25,15.75c-.14.42-.37.76-.7,1.02-.33.26-.7.36-1.12.31l-4.9-.49c-.75-.09-1.26-.38-1.54-.88-.28-.49-.3-1.08-.07-1.79l7.14-22.05Z"/>
      <path class="cls-1" d="M1183.06,47.04c0-3.08.62-6.12,1.86-9.13,1.24-3.01,2.91-5.71,5-8.08,2.1-2.38,4.56-4.3,7.38-5.78,2.82-1.47,5.82-2.21,9-2.21,2.66,0,4.78.5,6.37,1.51,1.59,1,2.38,2.37,2.38,4.09,0,1.35-.35,2.54-1.05,3.57s-1.63,1.94-2.8,2.73c-1.17.79-2.49,1.48-3.96,2.07-1.47.58-3,1.08-4.58,1.5-1.59.42-3.14.77-4.66,1.05-1.52.28-2.91.54-4.17.77-.56,1.68-.99,3.27-1.29,4.76-.3,1.49-.46,2.78-.46,3.85,0,1.91.4,3.41,1.19,4.48.79,1.07,2.03,1.61,3.71,1.61,1.07,0,2.18-.26,3.33-.77,1.14-.51,2.25-1.21,3.32-2.1,1.07-.89,2.09-1.89,3.04-3.01.96-1.12,1.81-2.26,2.56-3.43.09-.09.21-.2.35-.32.14-.12.33-.17.56-.17.28,0,.42.09.42.28,0,.14-.07.33-.21.56-.89,1.35-1.89,2.75-3.01,4.2-1.12,1.45-2.4,2.75-3.85,3.92-1.45,1.17-3.03,2.12-4.76,2.87-1.73.75-3.62,1.12-5.67,1.12-3.08,0-5.52-.88-7.32-2.62-1.8-1.75-2.7-4.19-2.7-7.32ZM1194.33,37.66c1.54-.47,3.13-1.01,4.76-1.64,1.63-.63,3.12-1.41,4.45-2.35,1.33-.93,2.43-2.05,3.29-3.36.86-1.31,1.29-2.87,1.29-4.69,0-1.59-.82-2.38-2.45-2.38-1.12,0-2.23.42-3.33,1.26s-2.13,1.95-3.11,3.33c-.98,1.38-1.88,2.92-2.7,4.62-.82,1.7-1.55,3.44-2.21,5.21Z"/>
      <path class="cls-1" d="M1216.45,45.78c0-3.13.61-6.14,1.82-9.03,1.21-2.89,2.86-5.45,4.93-7.67,2.08-2.22,4.52-3.99,7.32-5.32s5.81-2,9.03-2,5.24.48,6.47,1.43c1.24.96,1.86,2,1.86,3.12,0,.93-.32,1.76-.95,2.49s-1.44,1.08-2.42,1.08c-.61,0-1.07-.16-1.4-.49-.33-.33-.57-.74-.73-1.23-.16-.49-.3-1.03-.42-1.61-.12-.58-.29-1.12-.53-1.61-.23-.49-.55-.9-.95-1.22-.4-.33-.97-.49-1.71-.49-2.01,0-3.83.74-5.46,2.21-1.63,1.47-3.01,3.31-4.13,5.53-1.12,2.22-1.98,4.63-2.59,7.25-.61,2.61-.91,5.09-.91,7.42,0,5.46,1.75,8.19,5.25,8.19,1.87,0,3.73-.51,5.6-1.54,1.87-1.03,3.78-2.68,5.74-4.97.19-.19.42-.28.7-.28s.42.12.42.35c0,.19-.05.35-.14.49-1.07,1.4-2.17,2.66-3.29,3.78s-2.32,2.08-3.61,2.87c-1.28.79-2.67,1.4-4.17,1.82-1.49.42-3.15.63-4.97.63-1.49,0-2.89-.25-4.2-.74-1.31-.49-2.45-1.2-3.43-2.13-.98-.93-1.75-2.1-2.31-3.5-.56-1.4-.84-3.01-.84-4.83Z"/>
      <path class="cls-1" d="M1249.42,47.04c0-3.08.62-6.12,1.86-9.13,1.24-3.01,2.91-5.71,5-8.08,2.1-2.38,4.56-4.3,7.38-5.78,2.82-1.47,5.82-2.21,9-2.21,2.66,0,4.78.5,6.37,1.51,1.59,1,2.38,2.37,2.38,4.09,0,1.35-.35,2.54-1.05,3.57s-1.63,1.94-2.8,2.73c-1.17.79-2.49,1.48-3.96,2.07-1.47.58-3,1.08-4.58,1.5-1.59.42-3.14.77-4.66,1.05-1.52.28-2.91.54-4.17.77-.56,1.68-.99,3.27-1.29,4.76-.3,1.49-.46,2.78-.46,3.85,0,1.91.4,3.41,1.19,4.48.79,1.07,2.03,1.61,3.71,1.61,1.07,0,2.18-.26,3.33-.77,1.14-.51,2.25-1.21,3.32-2.1,1.07-.89,2.09-1.89,3.04-3.01.96-1.12,1.81-2.26,2.56-3.43.09-.09.21-.2.35-.32.14-.12.33-.17.56-.17.28,0,.42.09.42.28,0,.14-.07.33-.21.56-.89,1.35-1.89,2.75-3.01,4.2-1.12,1.45-2.4,2.75-3.85,3.92-1.45,1.17-3.03,2.12-4.76,2.87-1.73.75-3.62,1.12-5.67,1.12-3.08,0-5.52-.88-7.32-2.62-1.8-1.75-2.7-4.19-2.7-7.32ZM1260.69,37.66c1.54-.47,3.13-1.01,4.76-1.64,1.63-.63,3.12-1.41,4.45-2.35,1.33-.93,2.43-2.05,3.29-3.36.86-1.31,1.29-2.87,1.29-4.69,0-1.59-.82-2.38-2.45-2.38-1.12,0-2.23.42-3.33,1.26s-2.13,1.95-3.11,3.33c-.98,1.38-1.88,2.92-2.7,4.62-.82,1.7-1.55,3.44-2.21,5.21Z"/>
      <path class="cls-1" d="M1289.95,31.5c.47-1.26.7-2.29.7-3.08,0-.93-.36-1.57-1.08-1.92-.72-.35-1.76-.55-3.11-.59-.33,0-.44-.14-.35-.42.14-.33.37-.54.7-.63,2.8-.33,5.2-.7,7.21-1.12,2.01-.42,4.08-.96,6.23-1.61.28-.09.54-.14.77-.14.47,0,.63.23.49.7l-4.69,14.77h.28c.7-1.31,1.58-2.86,2.62-4.66,1.05-1.8,2.24-3.52,3.57-5.18,1.33-1.66,2.83-3.06,4.51-4.2,1.68-1.14,3.5-1.71,5.46-1.71,1.12,0,1.94.25,2.45.74.51.49.77,1.08.77,1.79,0,.56-.14,1.12-.42,1.68-.28.56-.67,1.08-1.15,1.58-.49.49-1.1.89-1.82,1.19-.72.3-1.53.46-2.42.46-1.54,0-2.99.28-4.34.84-1.35.56-2.62,1.31-3.82,2.24-1.19.93-2.29,2.04-3.29,3.33-1,1.28-1.95,2.65-2.83,4.09l-5.25,15.75c-.14.42-.37.76-.7,1.02-.33.26-.7.36-1.12.31l-4.9-.49c-.75-.09-1.26-.38-1.54-.88-.28-.49-.3-1.08-.07-1.79l7.14-22.05Z"/>
    </g>
  </g>
</svg>