<?xml version="1.0" encoding="UTF-8"?>
<svg id="Capa_2" data-name="Capa 2" xmlns="http://www.w3.org/2000/svg" viewBox="0 0 114.62 73.59">
  <defs>
    <style>
      .cls-1 {
        opacity: .7;
      }

      .cls-2 {
        fill: none;
        stroke: #ab9f8a;
        stroke-miterlimit: 10;
        stroke-width: 1.1px;
      }
    </style>
  </defs>
  <g id="Ordenador_escritorio" data-name="Ordenador escritorio">
    <g id="_3_Opciones" data-name="3 Opciones">
      <g class="cls-1">
        <path class="cls-2" d="M6.69,15.47h101.25l.45-.26.5-.9v-.53s-6.42-10.23-6.42-10.23c-.54-.86-1.46-1.36-2.46-1.36H14.61c-1.01,0-1.93.51-2.46,1.37l-6.4,10.22-.02.53.5.9.45.26ZM108.13,16.16H6.5l-.78-.45-.69-1.24.03-.9.05-.08L11.56,3.19c.66-1.07,1.8-1.71,3.05-1.71h85.39c1.25,0,2.4.64,3.05,1.7l6.5,10.39.03.9-.69,1.24-.78.45ZM3.3,22.93h108.02l.37-.15.6-.6.15-.37v-3.59l-.15-.37-.6-.6-.37-.15H3.3l-.37.15-.6.6-.15.37v3.59l.15.37.6.6.37.15ZM111.46,23.62H3.16l-.62-.25-.8-.8-.25-.62v-3.87l.25-.62.8-.8.62-.26h108.3l.62.26.8.8.26.62v3.87l-.26.62-.8.8-.62.25ZM10.47,45.31h93.68l.34-.12.59-.51.18-.31,3.09-18.51-.12-.42-.58-.7-.39-.18H7.38l-.39.18-.59.7-.11.42,3.08,18.51.18.31.59.51.34.12ZM104.28,46H10.35l-.57-.21-.78-.67-.3-.53-3.14-18.78.2-.71.8-.94.67-.31h100.18l.68.31.79.94.2.71-.02.08-3.12,18.71-.29.53-.79.67-.56.21ZM5.17,52.77h104.29l.37-.16.6-.6.15-.36v-3.6l-.15-.37-.6-.6-.37-.15H5.17l-.37.15-.6.6-.15.37v3.6l.15.36.6.6.37.16ZM109.59,53.46H5.03l-.63-.25-.79-.8-.26-.63v-3.86l.26-.63.79-.8.63-.25h104.56l.63.25.8.8.25.63v3.86l-.25.63-.8.8-.63.25ZM3.3,71.41h108.02l.37-.15.6-.6.15-.37v-14.78l-.15-.37-.6-.6-.37-.15H3.3l-.37.15-.6.6-.15.37v14.78l.15.37.6.6.37.15ZM111.46,72.11H3.16l-.62-.26-.8-.8-.25-.62v-15.06l.25-.62.8-.8.62-.25h108.3l.62.25.8.8.26.62v15.06l-.26.62-.8.8-.62.26ZM5.1,46c-1.09,0-1.98.89-1.98,1.98v4.29l-.11.44-.4.69-.32.32-.04.02c-.61.36-.99,1.01-.99,1.7v16.78c0,.07.05.12.11.12h111.89c.07,0,.11-.06.11-.12v-16.78c0-.7-.38-1.34-.99-1.7l-.04-.02-.32-.32-.4-.69-.11-.44v-4.29c0-1.09-.89-1.98-1.98-1.98h-1.61l-.68-.31-.79-.93-.2-.72.02-.08,3.12-18.71.29-.53.79-.67.57-.21h.35c1.09,0,1.97-.88,1.97-1.98v-3.72c0-.86-.54-1.61-1.36-1.87l-.06-.03-.26-.14-.42-.34-.2-.23-7.81-12.51c-.7-1.13-1.92-1.79-3.26-1.79H14.61c-1.32,0-2.54.67-3.24,1.8L3.54,15.57l-.23.24-.42.33-.27.14c-.81.26-1.36,1.01-1.36,1.86v3.73c0,1.1.88,1.98,1.98,1.98h.35l.56.21.79.67.3.53,3.13,18.78-.2.72-.79.93-.68.31h-1.61ZM113.26,73.04H1.37c-.45,0-.82-.37-.82-.82v-16.78c0-.93.5-1.8,1.3-2.28l.2-.19.3-.53.08-.26v-4.2c0-1.48,1.2-2.68,2.68-2.68h1.46l.39-.19.58-.7.12-.41-3.09-18.52-.18-.31-.59-.5-.34-.12h-.22c-1.48,0-2.69-1.2-2.69-2.69v-3.73c0-1.14.74-2.15,1.82-2.52l.16-.08.33-.25.12-.13L10.77,2.68c.83-1.33,2.26-2.13,3.83-2.13h85.39c1.59,0,3.03.8,3.85,2.13l7.8,12.47.11.14.33.25.16.08c1.09.37,1.81,1.38,1.82,2.53v3.72c0,1.48-1.2,2.69-2.68,2.69h-.23l-.34.12-.59.5-.18.31-3.09,18.52.12.41.59.7.39.19h1.46c1.48,0,2.68,1.2,2.68,2.68v4.2l.08.26.3.53.2.19c.8.48,1.29,1.35,1.3,2.28v16.78c0,.45-.37.82-.82.82"/>
        <polygon class="cls-2" points="88.54 30.73 88.54 33.06 88.34 33.56 87.64 34.26 87.15 34.46 27.48 34.46 26.98 34.26 26.28 33.56 26.08 33.06 26.08 30.73 25.15 30.73 25.15 33.06 24.94 33.56 24.24 34.26 23.75 34.46 17.69 34.46 17.69 35.4 23.75 35.4 24.24 35.6 24.94 36.31 25.15 36.79 25.15 39.13 26.08 39.13 26.08 36.79 26.28 36.31 26.98 35.6 27.48 35.4 87.15 35.4 87.64 35.6 88.34 36.31 88.54 36.79 88.54 39.13 89.48 39.13 89.48 36.79 89.69 36.31 90.39 35.6 90.87 35.4 96.94 35.4 96.94 34.46 90.87 34.46 90.39 34.26 89.69 33.56 89.48 33.06 89.48 30.73 88.54 30.73"/>
      </g>
    </g>
  </g>
</svg>