<?xml version="1.0" encoding="UTF-8"?>
<svg id="Capa_2" data-name="Capa 2" xmlns="http://www.w3.org/2000/svg" viewBox="0 0 120 152.92">
  <defs>
    <style>
      .cls-1 {
        fill: #688c4f;
      }
    </style>
  </defs>
  <g id="Slide_2" data-name="Slide 2">
    <g id="Recurso_1" data-name="Recurso 1">
      <path class="cls-1" d="M6.1,125.47c5.7.7,11.48,1.05,17.27,1.05,8.24,0,16.5-.72,24.59-2.12v23.42H8.69c-1.41,0-2.55,1.14-2.55,2.55s1.14,2.55,2.55,2.55h41.77s.04.01.06.01.04-.01.06-.01h19.14s.04.01.06.01.04-.01.06-.01h43.77c1.41,0,2.55-1.14,2.55-2.55s-1.14-2.55-2.55-2.55h-41.28v-23.38c13.7,2.34,27.87,2.72,41.59,1.03,2.83-.35,5.06-2.28,5.84-5.04.77-2.75-.17-5.67-2.4-7.44-7.42-5.87-13.34-11.53-18.1-17.29-1.43-1.73-2.83-3.34-4.18-4.88-3.37-3.85-6.28-7.18-8.39-11.08-.49-.91-.1-1.64.17-1.99.19-.25.91-1.04,2.15-.72,3.43.89,7.21,1.29,10.86,1.14,3.01-.12,5.53-2.06,6.4-4.96.89-2.93-.13-5.97-2.6-7.76-8.93-6.47-16.75-13.28-22.61-19.69-.8-.87-.5-1.79-.33-2.15.13-.28.66-1.18,1.88-1.12l.31.02c3.09.16,5.79-1.55,6.96-4.38,1.15-2.77.45-5.85-1.78-7.84-8.01-7.17-16.57-17.48-22.33-26.9C64.48,1.31,62.26.04,59.83,0c-2.37-.09-4.63,1.14-5.95,3.15-4.22,6.42-12.72,18.47-22.13,27.13-2.24,2.06-2.93,5.2-1.76,8,1.15,2.73,3.81,4.4,6.75,4.26l.68-.04c1.3-.06,1.77.84,1.9,1.12.17.35.48,1.27-.33,2.15-5.86,6.4-13.69,13.21-22.64,19.69-2.47,1.79-3.49,4.83-2.6,7.76.88,2.9,3.39,4.85,6.4,4.96,3.69.15,7.45-.25,10.88-1.15,1.2-.32,1.95.47,2.14.72.22.28.68,1.04.17,1.99-2.11,3.92-5.05,7.27-8.44,11.14-1.34,1.53-2.73,3.11-4.15,4.83-4.76,5.76-10.68,11.42-18.1,17.29-2.23,1.76-3.17,4.68-2.4,7.44.77,2.76,3.01,4.69,5.84,5.04ZM67.21,147.82h-14.15v-24.4c2.18-.46,4.35-.95,6.5-1.52.29-.07.59-.07.88,0,2.24.59,4.5,1.11,6.77,1.59v24.33ZM5.83,116.99c7.7-6.1,13.87-12,18.86-18.04,1.39-1.67,2.75-3.23,4.06-4.72.41-.46.8-.92,1.2-1.38.3.83.7,1.63,1.23,2.39,2.24,3.19,6.01,4.7,9.86,3.95l1.71-.34c1.12-.23,2.19-.65,3.18-1.24l1.97-1.19c1.86-1.12,4.25-.84,5.81.69,3.51,3.44,8.1,6.3,13.3,8.28.38.15.76.29,1.15.42,1.07.38,2.18.56,3.28.56,2.43,0,4.83-.9,6.7-2.61,2.71-2.48,3.8-6.06,2.9-9.58-.34-1.34-.51-2.69-.51-4.03,0-1.41-1.13-2.55-2.54-2.56h0c-1.4,0-2.54,1.14-2.55,2.54,0,1.76.22,3.55.67,5.3.42,1.67-.1,3.37-1.4,4.55-1.34,1.23-3.15,1.6-4.84,1.01l-1.04-.38c-4.54-1.73-8.53-4.21-11.54-7.16-3.22-3.16-8.16-3.74-12.01-1.41l-1.97,1.19c-.49.3-1.02.5-1.56.61l-1.67.33c-1.86.37-3.63-.33-4.71-1.88-.87-1.24-1.38-3.29-.12-5.4,0,0,.05-.08.05-.09.2-.34.29-.69.31-1.05.81-1.17,1.57-2.37,2.25-3.63,1.33-2.46,1.08-5.35-.65-7.56-1.37-1.75-3.46-2.73-5.63-2.73-.6,0-1.21.08-1.81.23-2.96.77-6.2,1.11-9.4.99-1.2-.05-1.6-.96-1.72-1.35-.1-.31-.33-1.4.71-2.15,9.22-6.68,17.32-13.73,23.41-20.37,1.95-2.13,2.41-5.18,1.17-7.78-1.24-2.61-3.96-4.18-6.84-4.01l-.59.03c-1.22.06-1.65-.78-1.8-1.14-.13-.31-.47-1.38.5-2.28,9.33-8.58,17.62-20,22.94-28.08.52-.79,1.27-.82,1.61-.85.33,0,1.14.11,1.66.96,6,9.82,14.92,20.56,23.28,28.04.88.79.62,1.73.47,2.09-.13.31-.7,1.31-1.97,1.24l-.14,2.54-.13-2.56c-2.88-.18-5.57,1.4-6.81,4.01-1.24,2.6-.78,5.65,1.17,7.78.88.96,1.82,1.94,2.78,2.92-2.22-1.02-4.4-2.16-6.48-3.49-1.31-.84-2.91-1.06-4.38-.61-1.48.45-2.69,1.54-3.31,2.98-.25.57-.68,1.05-1.15,1.27-1.36.66-3.36.24-4.85-1.02-1.4-1.18-2.51-3.01-3.49-5.76-.47-1.33-1.92-2.02-3.26-1.55-1.33.47-2.02,1.93-1.55,3.25.81,2.29,2.22,5.61,5.01,7.95,3.03,2.54,7.19,3.23,10.35,1.7,1.58-.77,2.86-2.13,3.6-3.83,0,0,.27-.1.27-.1,5.69,3.64,11.9,6.24,18.45,7.72,3.53,3.01,7.34,6.01,11.38,8.94,1.04.75.81,1.84.71,2.16-.12.39-.52,1.3-1.72,1.35-3.2.12-6.43-.22-9.39-.98-2.76-.72-5.68.27-7.44,2.51-1.72,2.2-1.97,5.1-.64,7.55,2.38,4.4,5.61,8.1,9.03,12.01,1.32,1.51,2.69,3.08,4.09,4.77,4.99,6.04,11.16,11.94,18.86,18.04.94.74.74,1.77.66,2.06-.1.36-.46,1.22-1.55,1.36-17.09,2.11-34.92.92-51.55-3.44-1.13-.3-2.33-.3-3.46,0-16.63,4.36-34.45,5.55-51.54,3.44-1.09-.13-1.45-.99-1.55-1.36-.08-.3-.28-1.32.66-2.06Z"/>
    </g>
  </g>
</svg>