<?xml version="1.0" encoding="UTF-8"?>
<svg id="Capa_2" data-name="Capa 2" xmlns="http://www.w3.org/2000/svg" viewBox="0 0 589.77 88.78">
  <defs>
    <style>
      .cls-1 {
        fill: #263530;
      }
    </style>
  </defs>
  <g id="Slide_2" data-name="Slide 2">
    <g id="Carrusel_IMG_1_R" data-name="Carrusel IMG 1 R">
      <g>
        <path class="cls-1" d="M7.95,32.08h.81c.98,0,1.7-.11,2.15-.32.45-.21.79-.59,1.01-1.13.15-.41.25-1.41.31-2.99s.09-4.51.09-8.79V6.28h-3.78c-2.3,0-3.87.32-4.72.97s-1.44,1.88-1.76,3.71l-2.07-.44c.34-1.45.6-2.84.78-4.16.18-1.33.3-2.63.34-3.92.56.19,1.34.33,2.35.41,1.01.08,2.72.12,5.12.12h13.18c2.7,0,4.57-.04,5.64-.12,1.06-.08,1.84-.22,2.34-.43v.68c0,1.14.05,2.33.14,3.55.1,1.22.24,2.52.43,3.88l-1.98.31c-.25-1.79-.75-2.99-1.52-3.62-.76-.62-2.26-.93-4.5-.93h-3.87c-.04,2.34-.07,4.65-.09,6.92s-.02,4.91-.02,7.93v4.11c0,1.93.04,3.29.13,4.06s.23,1.36.42,1.74c.22.37.56.63,1.03.79s1.13.24,1.98.24h.77v1.98c-.37-.01-.91-.04-1.63-.07-2.87-.13-4.83-.2-5.89-.2-.76,0-1.74.02-2.93.07-1.19.04-2.62.11-4.27.2v-1.98Z"/>
        <path class="cls-1" d="M35.82,11.43c-.1,1.38-.18,2.56-.24,3.54s-.1,1.84-.11,2.57c1.3-2.18,2.42-3.68,3.36-4.49.94-.81,1.96-1.22,3.08-1.22.78,0,1.45.29,2.02.86.57.57.86,1.26.86,2.06,0,.75-.18,1.34-.54,1.78-.36.44-.84.66-1.44.66-.34,0-.81-.12-1.41-.36-.6-.24-1.08-.36-1.43-.36-.66,0-1.32.25-1.98.75-.66.5-1.43,1.33-2.31,2.51,0,.47,0,1.19-.02,2.15s-.02,1.7-.02,2.2v2.44c0,2.53.23,4.13.68,4.78.45.65,1.34.98,2.66.98.09,0,.23,0,.43-.02.2-.01.35-.02.47-.02v1.85h-.07c-3.27-.21-5.39-.31-6.37-.31-.78,0-2.75.1-5.91.29h-.44v-1.87h.59c1.1,0,1.85-.27,2.24-.81.4-.54.59-1.83.59-3.87v-7.43c0-2.2-.14-3.56-.41-4.08-.27-.52-.78-.78-1.53-.78-.09,0-.25.02-.48.05-.23.04-.42.06-.57.08l-.18-1.76c1.39-.22,2.78-.51,4.17-.86s2.82-.78,4.28-1.3Z"/>
        <path class="cls-1" d="M68.16,30.32l.81,1.67c-1.33.88-2.53,1.53-3.59,1.97-1.06.43-2.01.65-2.85.65-1.01,0-1.78-.26-2.32-.78-.53-.52-.85-1.31-.93-2.36-1.6,1.11-2.94,1.92-4.04,2.41-1.1.49-2.09.74-2.97.74-1.54,0-2.85-.6-3.93-1.79-1.08-1.19-1.63-2.63-1.63-4.3,0-2.81,3.14-4.94,9.43-6.39,1.36-.32,2.43-.58,3.21-.77.01-.37.03-.72.03-1.07,0-.34.01-.68.01-1,0-1.57-.3-2.71-.91-3.43-.61-.72-1.58-1.08-2.91-1.08-.86,0-1.61.18-2.23.53-.62.35-.96.76-1,1.23-.01.07-.02.17-.02.29-.09,1.46-1.01,2.2-2.77,2.2-.66,0-1.16-.11-1.52-.33-.35-.22-.53-.54-.53-.97,0-1.17,1.08-2.49,3.24-3.94,2.16-1.46,4.43-2.19,6.8-2.19s4.07.6,5.27,1.81c1.2,1.21,1.8,2.98,1.8,5.31,0,.7-.06,2.16-.16,4.36-.11,2.21-.17,4.06-.17,5.57,0,.89.12,1.54.35,1.93s.6.59,1.1.59c.28,0,.62-.07,1.03-.22s.87-.36,1.38-.64ZM59.39,23.58c-.32.09-.79.22-1.41.39-4.19,1.16-6.28,2.53-6.28,4.11,0,.88.29,1.62.86,2.21.57.59,1.29.89,2.15.89.56,0,1.19-.14,1.9-.42s1.64-.75,2.78-1.43v-5.76Z"/>
        <path class="cls-1" d="M78.55,11.56l-.35,3.6c1.76-1.26,3.26-2.18,4.5-2.75,1.25-.57,2.35-.86,3.32-.86,2.3,0,4.03.67,5.2,2.01,1.17,1.34,1.75,3.32,1.75,5.94,0,.5-.01,1.65-.04,3.46-.03,1.81-.04,3.37-.04,4.69,0,2.15.16,3.45.47,3.89.31.44.95.66,1.9.66h.46l-.04,1.85c-1.3-.09-2.42-.15-3.34-.2-.92-.04-1.67-.07-2.24-.07-.62,0-1.37.02-2.27.07-.9.04-1.94.11-3.13.2v-1.85h.26c1.82,0,2.75-1.83,2.79-5.49v-4.9c0-2.53-.29-4.24-.88-5.12s-1.58-1.32-2.99-1.32c-.76,0-1.58.16-2.46.47-.88.31-1.85.8-2.9,1.46-.06,1.32-.1,2.69-.13,4.11-.03,1.42-.04,2.95-.04,4.57v1.8c0,1.98.16,3.21.47,3.69.31.48.94.72,1.88.72h.35v1.85c-1.23-.09-2.31-.15-3.23-.2-.92-.04-1.71-.07-2.35-.07s-1.41.02-2.33.07c-.92.04-1.99.11-3.21.2v-1.85h.51c1.82,0,2.74-1.84,2.77-5.52,0-.44,0-.78.02-1.01l.04-4.55v-1.93c0-1.66-.13-2.73-.38-3.22-.26-.49-.73-.74-1.42-.74-.13,0-.42.02-.88.07-.09.01-.15.02-.2.02l-.13-1.71c1.22-.19,2.5-.45,3.85-.79s2.83-.76,4.46-1.27Z"/>
        <path class="cls-1" d="M114.83,12.68c0,.92.04,1.86.13,2.8.09.95.23,1.9.42,2.87l-2.18.42c-.18-1.63-.66-2.81-1.45-3.56s-1.94-1.12-3.45-1.12c-1.19,0-2.15.3-2.89.89-.74.59-1.11,1.36-1.11,2.3,0,1.3,1.71,2.48,5.12,3.52l.15.04c2.55.78,4.29,1.63,5.22,2.57.93.94,1.4,2.21,1.4,3.82,0,2.17-.92,3.96-2.75,5.38s-4.19,2.13-7.08,2.13c-1.17,0-2.33-.11-3.46-.34-1.14-.23-2.23-.57-3.28-1.02.01-.16.03-.34.03-.55s.01-.51.01-.92c0-.82-.04-1.63-.11-2.44s-.18-1.6-.33-2.37l2.02-.51c.34,2.01.96,3.46,1.87,4.36.91.9,2.19,1.35,3.85,1.35,1.41,0,2.52-.31,3.35-.95.83-.63,1.24-1.49,1.24-2.57,0-1.29-1.81-2.54-5.43-3.76-.6-.2-1.06-.36-1.38-.46-1.74-.6-3-1.34-3.76-2.23-.76-.89-1.14-2.03-1.14-3.44,0-2.18.82-3.94,2.46-5.28,1.64-1.34,3.84-2.01,6.59-2.01.82,0,1.72.09,2.69.26.97.18,2.05.45,3.24.81Z"/>
        <path class="cls-1" d="M128.19,11.38v1.56h1.45c.75,0,1.49-.01,2.24-.03.75-.02,1.5-.05,2.26-.08,0,.19,0,.45-.02.78-.01.33-.02.55-.02.65v1.34c-.1,0-.24,0-.42-.02-2.07-.1-3.55-.15-4.46-.15h-.97c-.03.89-.05,1.83-.06,2.82,0,.99-.01,2.42-.01,4.3,0,.56,0,1.29-.02,2.21-.01.92-.02,1.54-.02,1.88,0,2.39.21,3.92.64,4.6.42.68,1.24,1.02,2.44,1.02.28,0,.5,0,.67-.01.17,0,.31-.02.43-.03l.02,1.85c-1.36-.09-2.57-.15-3.64-.2-1.06-.04-1.98-.07-2.76-.07-.7,0-1.56.02-2.58.07-1.02.04-2.24.11-3.68.2v-1.85h.68c1.04,0,1.74-.31,2.11-.92s.55-1.96.55-4.02c0-.34,0-.96-.02-1.87s-.02-1.66-.02-2.24v-7.69h-1.58s-.23.01-.62.03c-.38.02-.74.04-1.08.05v-2.07c.7-.04,1.31-.16,1.82-.35s.98-.48,1.41-.86c.1-3.78,1.19-6.76,3.26-8.93,2.07-2.17,4.84-3.26,8.29-3.26,1.42,0,2.55.27,3.38.81s1.25,1.27,1.25,2.2c0,.67-.19,1.22-.58,1.65-.39.42-.88.64-1.48.64-.54,0-1.4-.32-2.58-.95s-2.11-.95-2.78-.95c-1.27,0-2.18.56-2.71,1.68-.53,1.12-.8,3.19-.8,6.21Z"/>
        <path class="cls-1" d="M147.99,11.6c3.44,0,6.26,1.06,8.46,3.17,2.2,2.12,3.3,4.79,3.3,8.03,0,3.4-1.15,6.24-3.44,8.51-2.29,2.28-5.15,3.42-8.58,3.42s-6.23-1.07-8.39-3.21c-2.17-2.14-3.25-4.88-3.25-8.22s1.16-6.05,3.48-8.32c2.32-2.26,5.13-3.39,8.43-3.39ZM147.55,14.48c-1.8,0-3.2.67-4.19,2.01-.99,1.34-1.48,3.23-1.48,5.68,0,2.97.56,5.33,1.69,7.07,1.13,1.74,2.64,2.62,4.55,2.62s3.25-.7,4.3-2.11c1.05-1.41,1.57-3.33,1.57-5.78,0-2.91-.58-5.23-1.75-6.93-1.17-1.71-2.73-2.56-4.69-2.56Z"/>
        <path class="cls-1" d="M170.79,11.43c-.1,1.38-.18,2.56-.24,3.54s-.1,1.84-.11,2.57c1.3-2.18,2.42-3.68,3.36-4.49.94-.81,1.96-1.22,3.08-1.22.78,0,1.45.29,2.02.86.57.57.86,1.26.86,2.06,0,.75-.18,1.34-.54,1.78-.36.44-.84.66-1.44.66-.34,0-.81-.12-1.41-.36-.6-.24-1.08-.36-1.43-.36-.66,0-1.32.25-1.98.75-.66.5-1.43,1.33-2.31,2.51,0,.47,0,1.19-.02,2.15s-.02,1.7-.02,2.2v2.44c0,2.53.23,4.13.68,4.78.45.65,1.34.98,2.66.98.09,0,.23,0,.43-.02.2-.01.35-.02.47-.02v1.85h-.07c-3.27-.21-5.39-.31-6.37-.31-.78,0-2.75.1-5.91.29h-.44v-1.87h.59c1.1,0,1.85-.27,2.24-.81.4-.54.59-1.83.59-3.87v-7.43c0-2.2-.14-3.56-.41-4.08-.27-.52-.78-.78-1.53-.78-.09,0-.25.02-.48.05-.23.04-.42.06-.57.08l-.18-1.76c1.39-.22,2.78-.51,4.17-.86s2.82-.78,4.28-1.3Z"/>
        <path class="cls-1" d="M189.78,11.6c-.06.47-.12,1.24-.2,2.31-.03.5-.05.86-.07,1.1,1.79-1.23,3.27-2.11,4.46-2.62,1.19-.52,2.28-.78,3.27-.78,1.35,0,2.5.3,3.45.91.95.61,1.72,1.53,2.31,2.78,1.79-1.32,3.32-2.26,4.59-2.83,1.27-.57,2.46-.86,3.56-.86,2.05,0,3.64.69,4.76,2.07,1.12,1.38,1.68,3.35,1.68,5.91v1.89l-.09,5.51c0,.1,0,.4-.02.89-.01.49-.02.93-.02,1.33,0,1.25.17,2.06.49,2.44.33.38.97.57,1.92.57h.55v1.85c-1.17-.09-2.23-.15-3.18-.2-.94-.04-1.78-.07-2.49-.07-.51,0-1.21.02-2.08.07-.87.04-1.91.11-3.11.2l.02-1.85c.07.01.16.03.26.03.1,0,.25.01.44.01.89,0,1.49-.3,1.79-.89.3-.59.45-2.08.45-4.47v-2.46c0-.51.01-1.19.03-2.03.02-.84.03-1.42.03-1.75,0-1.82-.31-3.15-.94-4s-1.61-1.27-2.94-1.27c-.63,0-1.37.16-2.22.47-.85.31-1.8.79-2.86,1.42l-.09,10.13c0,.67-.01,1.33-.04,1.98v.13c0,1.13.14,1.86.42,2.2.28.34.83.51,1.65.51h.55v1.85c-1.16-.09-2.21-.15-3.15-.2-.94-.04-1.78-.07-2.52-.07-.41,0-1.01.02-1.8.07-.79.04-1.77.11-2.92.2v-1.85c.09.01.18.03.29.03.1,0,.24.01.42.01.83,0,1.4-.31,1.69-.92s.44-1.98.44-4.11v-6.66c0-1.82-.3-3.13-.91-3.96s-1.56-1.23-2.87-1.23c-.66,0-1.41.15-2.26.45-.85.3-1.79.75-2.83,1.35-.01.48-.03,1.18-.04,2.09-.09,4.17-.13,7.05-.13,8.61,0,2.02.14,3.25.43,3.68.29.43.88.65,1.77.65h.64v1.85c-1.26-.09-2.37-.15-3.33-.2-.96-.04-1.77-.07-2.43-.07s-1.91.06-3.8.18c-.64.04-1.13.07-1.45.09l-.02-1.85h.55c1.8,0,2.71-1.8,2.72-5.41.01-.44.02-.78.02-1.03v-6.57c0-1.67-.13-2.75-.38-3.25-.26-.5-.73-.75-1.42-.75-.1,0-.24.01-.42.03-.18.02-.38.05-.62.1l-.2-1.71c1.05-.21,2.19-.46,3.41-.76,1.22-.3,2.81-.72,4.79-1.26Z"/>
        <path class="cls-1" d="M243.37,22.35l-9.16.02c-1.57,0-2.74.01-3.52.03-.78.02-1.49.07-2.15.14,0,2.62.65,4.68,1.94,6.17,1.3,1.49,3.09,2.24,5.37,2.24,1.1,0,2.19-.17,3.26-.52,1.08-.34,2.16-.87,3.26-1.57l.99,1.89c-1.7,1.35-3.37,2.35-5.01,3.02-1.64.67-3.27,1-4.88,1-3.06,0-5.57-1.02-7.54-3.06-1.96-2.04-2.94-4.67-2.94-7.88,0-3.49,1.06-6.4,3.19-8.73,2.12-2.34,4.73-3.5,7.82-3.5,2.77,0,5.01.98,6.72,2.93,1.71,1.96,2.59,4.56,2.64,7.81ZM238.16,19.67c-.31-1.71-.87-3.05-1.68-4.01-.81-.96-1.78-1.44-2.91-1.44-1.35,0-2.46.52-3.34,1.56s-1.43,2.5-1.65,4.37h1.38c1.8,0,3.37-.04,4.7-.12,1.33-.08,2.5-.2,3.49-.36Z"/>
        <path class="cls-1" d="M268.53.04c-.1,2.72-.18,5.33-.22,7.8s-.07,4.84-.07,7.1v9.76c0,2.24.04,3.8.11,4.69.07.89.18,1.49.33,1.81s.42.56.81.73.91.24,1.54.24h.51v1.89c-1.41-.09-2.63-.15-3.66-.2-1.03-.04-1.89-.07-2.56-.07-.62,0-1.39.02-2.33.07-.94.04-2.04.11-3.3.2v-1.89c.07,0,.19,0,.34.02.15.01.27.02.34.02,1.82,0,2.72-2.27,2.72-6.81.01-.73.02-1.3.02-1.69l.04-10.04v-5.93c0-1.64-.13-2.73-.38-3.27-.26-.54-.73-.81-1.42-.81-.19,0-.4.01-.62.03-.22.02-.43.05-.64.1l-.24-1.76c1.57-.25,3.06-.53,4.49-.86,1.43-.32,2.82-.7,4.16-1.12Z"/>
        <path class="cls-1" d="M295.91,30.32l.81,1.67c-1.33.88-2.53,1.53-3.59,1.97-1.06.43-2.01.65-2.85.65-1.01,0-1.78-.26-2.32-.78-.53-.52-.85-1.31-.93-2.36-1.6,1.11-2.94,1.92-4.04,2.41-1.1.49-2.09.74-2.97.74-1.54,0-2.85-.6-3.93-1.79-1.08-1.19-1.63-2.63-1.63-4.3,0-2.81,3.14-4.94,9.43-6.39,1.36-.32,2.43-.58,3.21-.77.01-.37.03-.72.03-1.07,0-.34.01-.68.01-1,0-1.57-.3-2.71-.91-3.43-.61-.72-1.58-1.08-2.91-1.08-.86,0-1.61.18-2.23.53-.62.35-.96.76-1,1.23-.01.07-.02.17-.02.29-.09,1.46-1.01,2.2-2.77,2.2-.66,0-1.16-.11-1.52-.33-.35-.22-.53-.54-.53-.97,0-1.17,1.08-2.49,3.24-3.94,2.16-1.46,4.43-2.19,6.8-2.19s4.07.6,5.27,1.81c1.2,1.21,1.8,2.98,1.8,5.31,0,.7-.06,2.16-.16,4.36-.11,2.21-.17,4.06-.17,5.57,0,.89.12,1.54.35,1.93s.6.59,1.1.59c.28,0,.62-.07,1.03-.22s.87-.36,1.38-.64ZM287.14,23.58c-.32.09-.79.22-1.41.39-4.19,1.16-6.28,2.53-6.28,4.11,0,.88.29,1.62.86,2.21.57.59,1.29.89,2.15.89.56,0,1.19-.14,1.9-.42s1.64-.75,2.78-1.43v-5.76Z"/>
        <path class="cls-1" d="M333.24,0c-.09,3.24-.17,6.59-.24,10.05-.07,3.46-.14,7.15-.2,11.06v6.5c0,1.83.12,3,.36,3.49.24.5.68.75,1.31.75.22,0,.45-.03.69-.08.24-.05.51-.13.8-.23l.4,1.74c-1.3.51-2.64.9-4,1.15-1.36.26-2.81.39-4.33.41-.09-.44-.16-.92-.22-1.45s-.11-1.13-.15-1.8c-1.33.98-2.57,1.7-3.7,2.16-1.14.46-2.24.69-3.31.69-2.7,0-4.91-.99-6.66-2.98-1.74-1.99-2.61-4.55-2.61-7.69,0-3.5,1.09-6.35,3.27-8.53,2.18-2.19,5.02-3.28,8.53-3.28.75,0,1.5.07,2.26.2s1.57.34,2.42.62c0-.09,0-.23.02-.42.04-2.03.07-3.5.07-4.39,0-2.06-.15-3.33-.44-3.82-.29-.48-.83-.72-1.63-.72-.13,0-.31.01-.53.03-.22.02-.49.05-.81.1l-.2-1.78c1.38-.17,2.8-.41,4.27-.71,1.47-.3,3.01-.66,4.62-1.09ZM327.72,16.24c-.81-.47-1.58-.82-2.33-1.04-.75-.23-1.49-.34-2.22-.34-1.99,0-3.54.66-4.65,1.97-1.11,1.31-1.66,3.17-1.66,5.59,0,2.56.56,4.61,1.67,6.15s2.59,2.31,4.42,2.31c.64,0,1.35-.13,2.12-.4.77-.26,1.64-.67,2.6-1.23l.04-13.01Z"/>
        <path class="cls-1" d="M358.99,22.35l-9.16.02c-1.57,0-2.74.01-3.52.03-.78.02-1.49.07-2.15.14,0,2.62.65,4.68,1.94,6.17,1.3,1.49,3.09,2.24,5.37,2.24,1.1,0,2.19-.17,3.26-.52,1.08-.34,2.16-.87,3.26-1.57l.99,1.89c-1.7,1.35-3.37,2.35-5.01,3.02-1.64.67-3.27,1-4.88,1-3.06,0-5.57-1.02-7.54-3.06-1.96-2.04-2.94-4.67-2.94-7.88,0-3.49,1.06-6.4,3.19-8.73,2.12-2.34,4.73-3.5,7.82-3.5,2.77,0,5.01.98,6.72,2.93,1.71,1.96,2.59,4.56,2.64,7.81ZM353.78,19.67c-.31-1.71-.87-3.05-1.68-4.01-.81-.96-1.78-1.44-2.91-1.44-1.35,0-2.46.52-3.34,1.56s-1.43,2.5-1.65,4.37h1.38c1.8,0,3.37-.04,4.7-.12,1.33-.08,2.5-.2,3.49-.36Z"/>
        <path class="cls-1" d="M378.92,12.68c0,.92.04,1.86.13,2.8.09.95.23,1.9.42,2.87l-2.18.42c-.18-1.63-.66-2.81-1.45-3.56s-1.94-1.12-3.45-1.12c-1.19,0-2.15.3-2.89.89-.74.59-1.11,1.36-1.11,2.3,0,1.3,1.71,2.48,5.12,3.52l.15.04c2.55.78,4.29,1.63,5.22,2.57.93.94,1.4,2.21,1.4,3.82,0,2.17-.92,3.96-2.75,5.38s-4.19,2.13-7.08,2.13c-1.17,0-2.33-.11-3.46-.34-1.14-.23-2.23-.57-3.28-1.02.01-.16.03-.34.03-.55s.01-.51.01-.92c0-.82-.04-1.63-.11-2.44s-.18-1.6-.33-2.37l2.02-.51c.34,2.01.96,3.46,1.87,4.36.91.9,2.19,1.35,3.85,1.35,1.41,0,2.52-.31,3.35-.95.83-.63,1.24-1.49,1.24-2.57,0-1.29-1.81-2.54-5.43-3.76-.6-.2-1.06-.36-1.38-.46-1.74-.6-3-1.34-3.76-2.23-.76-.89-1.14-2.03-1.14-3.44,0-2.18.82-3.94,2.46-5.28,1.64-1.34,3.84-2.01,6.59-2.01.82,0,1.72.09,2.69.26.97.18,2.05.45,3.24.81Z"/>
        <path class="cls-1" d="M392.08,11.01l-.22,3.56c1.33-.94,2.55-1.62,3.66-2.05,1.11-.43,2.22-.65,3.34-.65,2.6,0,4.77.99,6.5,2.97,1.73,1.98,2.59,4.44,2.59,7.38,0,3.63-1.07,6.55-3.21,8.76-2.14,2.2-4.95,3.31-8.42,3.31-.83,0-1.63-.07-2.4-.2-.77-.13-1.5-.34-2.18-.62l-.04,4.42v1.76c0,1.7.19,2.76.58,3.19.39.42,1.21.64,2.47.64h.86l-.02,1.93c-1.54-.07-2.83-.13-3.88-.17-1.05-.04-1.99-.05-2.81-.05-.49,0-1.14.01-1.97.04-.83.03-2.09.09-3.79.18v-1.93h.35c.76,0,1.34-.07,1.75-.22s.68-.37.82-.68c.23-.48.4-1.4.48-2.74.09-1.34.13-3.91.13-7.7v-11.16c0-2.39-.14-3.92-.42-4.6-.28-.68-.8-1.02-1.56-1.02-.09,0-.31.01-.66.04-.19.03-.33.04-.42.04l-.22-1.67c1.52-.29,3.01-.67,4.46-1.12,1.45-.45,2.86-1,4.24-1.62ZM391.73,30.32c.7.42,1.45.75,2.25.99s1.59.35,2.38.35c1.92,0,3.42-.67,4.53-2.01,1.1-1.34,1.66-3.19,1.66-5.55,0-2.65-.56-4.75-1.68-6.29-1.12-1.54-2.62-2.31-4.51-2.31-.82,0-1.61.11-2.38.34-.77.23-1.47.55-2.12.98-.04,1.9-.08,3.71-.1,5.41-.02,1.7-.03,3.25-.03,4.66v3.43Z"/>
        <path class="cls-1" d="M431.52,22.35l-9.16.02c-1.57,0-2.74.01-3.52.03-.78.02-1.49.07-2.15.14,0,2.62.65,4.68,1.94,6.17,1.3,1.49,3.09,2.24,5.37,2.24,1.1,0,2.19-.17,3.26-.52,1.08-.34,2.16-.87,3.26-1.57l.99,1.89c-1.7,1.35-3.37,2.35-5.01,3.02-1.64.67-3.27,1-4.88,1-3.06,0-5.57-1.02-7.54-3.06-1.96-2.04-2.94-4.67-2.94-7.88,0-3.49,1.06-6.4,3.19-8.73,2.12-2.34,4.73-3.5,7.82-3.5,2.77,0,5.01.98,6.72,2.93,1.71,1.96,2.59,4.56,2.64,7.81ZM426.31,19.67c-.31-1.71-.87-3.05-1.68-4.01-.81-.96-1.78-1.44-2.91-1.44-1.35,0-2.46.52-3.34,1.56s-1.43,2.5-1.65,4.37h1.38c1.8,0,3.37-.04,4.7-.12,1.33-.08,2.5-.2,3.49-.36Z"/>
        <path class="cls-1" d="M456.7,0c-.09,3.24-.17,6.59-.24,10.05-.07,3.46-.14,7.15-.2,11.06v6.5c0,1.83.12,3,.36,3.49.24.5.68.75,1.31.75.22,0,.45-.03.69-.08.24-.05.51-.13.8-.23l.4,1.74c-1.3.51-2.64.9-4,1.15-1.36.26-2.81.39-4.33.41-.09-.44-.16-.92-.22-1.45s-.11-1.13-.15-1.8c-1.33.98-2.57,1.7-3.7,2.16-1.14.46-2.24.69-3.31.69-2.7,0-4.91-.99-6.66-2.98-1.74-1.99-2.61-4.55-2.61-7.69,0-3.5,1.09-6.35,3.27-8.53,2.18-2.19,5.02-3.28,8.53-3.28.75,0,1.5.07,2.26.2s1.57.34,2.42.62c0-.09,0-.23.02-.42.04-2.03.07-3.5.07-4.39,0-2.06-.15-3.33-.44-3.82-.29-.48-.83-.72-1.63-.72-.13,0-.31.01-.53.03-.22.02-.49.05-.81.1l-.2-1.78c1.38-.17,2.8-.41,4.27-.71,1.47-.3,3.01-.66,4.62-1.09ZM451.19,16.24c-.81-.47-1.58-.82-2.33-1.04-.75-.23-1.49-.34-2.22-.34-1.99,0-3.54.66-4.65,1.97-1.11,1.31-1.66,3.17-1.66,5.59,0,2.56.56,4.61,1.67,6.15s2.59,2.31,4.42,2.31c.64,0,1.35-.13,2.12-.4.77-.26,1.64-.67,2.6-1.23l.04-13.01Z"/>
        <path class="cls-1" d="M470.59,11.56c-.09,3.16-.16,5.93-.21,8.28-.05,2.36-.08,4.29-.08,5.8v2.57c0,1.71.17,2.81.52,3.29.34.48,1,.71,1.97.71.07,0,.19,0,.34-.02.15-.01.28-.02.38-.02v1.89c-1.35-.09-2.53-.15-3.54-.2-1.01-.04-1.85-.07-2.5-.07-.56,0-1.31.02-2.25.07-.94.04-2.07.11-3.37.2v-1.89h.46c1.88,0,2.82-1.73,2.83-5.19v-1.3l.04-4.68v-1.93c0-1.64-.13-2.7-.4-3.16s-.78-.7-1.54-.7c-.1,0-.34.01-.7.04-.16.01-.29.03-.37.04l-.33-1.76c1.55-.21,3.05-.47,4.48-.79s2.86-.72,4.26-1.19ZM467.51.53l2,1.36c.5.34.87.69,1.11,1.05.24.37.36.76.36,1.19s-.1.82-.29,1.13c-.19.31-.53.64-1.01.98l-2.13,1.45-1.98-1.32c-.53-.34-.92-.69-1.18-1.05-.26-.37-.38-.75-.38-1.14,0-.44.1-.83.31-1.16s.58-.7,1.12-1.08l2.07-1.41Z"/>
        <path class="cls-1" d="M498.27,0c-.09,3.24-.17,6.59-.24,10.05-.07,3.46-.14,7.15-.2,11.06v6.5c0,1.83.12,3,.36,3.49.24.5.68.75,1.31.75.22,0,.45-.03.69-.08.24-.05.51-.13.8-.23l.4,1.74c-1.3.51-2.64.9-4,1.15-1.36.26-2.81.39-4.33.41-.09-.44-.16-.92-.22-1.45s-.11-1.13-.15-1.8c-1.33.98-2.57,1.7-3.7,2.16-1.14.46-2.24.69-3.31.69-2.7,0-4.91-.99-6.66-2.98-1.74-1.99-2.61-4.55-2.61-7.69,0-3.5,1.09-6.35,3.27-8.53,2.18-2.19,5.02-3.28,8.53-3.28.75,0,1.5.07,2.26.2s1.57.34,2.42.62c0-.09,0-.23.02-.42.04-2.03.07-3.5.07-4.39,0-2.06-.15-3.33-.44-3.82-.29-.48-.83-.72-1.63-.72-.13,0-.31.01-.53.03-.22.02-.49.05-.81.1l-.2-1.78c1.38-.17,2.8-.41,4.27-.71,1.47-.3,3.01-.66,4.62-1.09ZM492.76,16.24c-.81-.47-1.58-.82-2.33-1.04-.75-.23-1.49-.34-2.22-.34-1.99,0-3.54.66-4.65,1.97-1.11,1.31-1.66,3.17-1.66,5.59,0,2.56.56,4.61,1.67,6.15s2.59,2.31,4.42,2.31c.64,0,1.35-.13,2.12-.4.77-.26,1.64-.67,2.6-1.23l.04-13.01Z"/>
        <path class="cls-1" d="M525.01,30.32l.81,1.67c-1.33.88-2.53,1.53-3.59,1.97-1.06.43-2.01.65-2.85.65-1.01,0-1.78-.26-2.32-.78-.53-.52-.85-1.31-.93-2.36-1.6,1.11-2.94,1.92-4.04,2.41-1.1.49-2.09.74-2.97.74-1.54,0-2.85-.6-3.93-1.79-1.08-1.19-1.63-2.63-1.63-4.3,0-2.81,3.14-4.94,9.43-6.39,1.36-.32,2.43-.58,3.21-.77.01-.37.03-.72.03-1.07,0-.34.01-.68.01-1,0-1.57-.3-2.71-.91-3.43-.61-.72-1.58-1.08-2.91-1.08-.86,0-1.61.18-2.23.53-.62.35-.96.76-1,1.23-.01.07-.02.17-.02.29-.09,1.46-1.01,2.2-2.77,2.2-.66,0-1.16-.11-1.52-.33-.35-.22-.53-.54-.53-.97,0-1.17,1.08-2.49,3.24-3.94,2.16-1.46,4.43-2.19,6.8-2.19s4.07.6,5.27,1.81c1.2,1.21,1.8,2.98,1.8,5.31,0,.7-.06,2.16-.16,4.36-.11,2.21-.17,4.06-.17,5.57,0,.89.12,1.54.35,1.93s.6.59,1.1.59c.28,0,.62-.07,1.03-.22s.87-.36,1.38-.64ZM516.25,23.58c-.32.09-.79.22-1.41.39-4.19,1.16-6.28,2.53-6.28,4.11,0,.88.29,1.62.86,2.21.57.59,1.29.89,2.15.89.56,0,1.19-.14,1.9-.42s1.64-.75,2.78-1.43v-5.76Z"/>
        <path class="cls-1" d="M561.01,22.35l-9.16.02c-1.57,0-2.74.01-3.52.03-.78.02-1.49.07-2.15.14,0,2.62.65,4.68,1.94,6.17,1.3,1.49,3.09,2.24,5.37,2.24,1.1,0,2.19-.17,3.26-.52,1.08-.34,2.16-.87,3.26-1.57l.99,1.89c-1.7,1.35-3.37,2.35-5.01,3.02-1.64.67-3.27,1-4.88,1-3.06,0-5.57-1.02-7.54-3.06-1.96-2.04-2.94-4.67-2.94-7.88,0-3.49,1.06-6.4,3.19-8.73,2.12-2.34,4.73-3.5,7.82-3.5,2.77,0,5.01.98,6.72,2.93,1.71,1.96,2.59,4.56,2.64,7.81ZM555.8,19.67c-.31-1.71-.87-3.05-1.68-4.01-.81-.96-1.78-1.44-2.91-1.44-1.35,0-2.46.52-3.34,1.56s-1.43,2.5-1.65,4.37h1.38c1.8,0,3.37-.04,4.7-.12,1.33-.08,2.5-.2,3.49-.36Z"/>
        <path class="cls-1" d="M572.61,11.56l-.35,3.6c1.76-1.26,3.26-2.18,4.5-2.75,1.25-.57,2.35-.86,3.32-.86,2.3,0,4.03.67,5.2,2.01,1.17,1.34,1.75,3.32,1.75,5.94,0,.5-.01,1.65-.04,3.46-.03,1.81-.04,3.37-.04,4.69,0,2.15.16,3.45.47,3.89.31.44.95.66,1.9.66h.46l-.04,1.85c-1.3-.09-2.42-.15-3.34-.2-.92-.04-1.67-.07-2.24-.07-.62,0-1.37.02-2.27.07-.9.04-1.94.11-3.13.2v-1.85h.26c1.82,0,2.75-1.83,2.79-5.49v-4.9c0-2.53-.29-4.24-.88-5.12s-1.58-1.32-2.99-1.32c-.76,0-1.58.16-2.46.47-.88.31-1.85.8-2.9,1.46-.06,1.32-.1,2.69-.13,4.11-.03,1.42-.04,2.95-.04,4.57v1.8c0,1.98.16,3.21.47,3.69.31.48.94.72,1.88.72h.35v1.85c-1.23-.09-2.31-.15-3.23-.2-.92-.04-1.71-.07-2.35-.07s-1.41.02-2.33.07c-.92.04-1.99.11-3.21.2v-1.85h.51c1.82,0,2.74-1.84,2.77-5.52,0-.44,0-.78.02-1.01l.04-4.55v-1.93c0-1.66-.13-2.73-.38-3.22-.26-.49-.73-.74-1.42-.74-.13,0-.42.02-.88.07-.09.01-.15.02-.2.02l-.13-1.71c1.22-.19,2.5-.45,3.85-.79s2.83-.76,4.46-1.27Z"/>
        <path class="cls-1" d="M143.1,82.98l1.21,2.15c-1.64,1.22-3.21,2.13-4.7,2.74-1.49.61-2.92.91-4.26.91-3.02,0-5.49-1.03-7.42-3.1s-2.89-4.72-2.89-7.98c0-3.41,1.2-6.28,3.6-8.61,2.4-2.33,5.39-3.49,8.96-3.49,2.01,0,3.53.3,4.56.89,1.03.59,1.55,1.47,1.55,2.63,0,.66-.24,1.25-.73,1.78s-1.03.79-1.65.79c-.53,0-1.36-.46-2.5-1.37-1.14-.92-2.21-1.37-3.21-1.37-1.54,0-2.77.64-3.68,1.91-.92,1.28-1.37,2.99-1.37,5.14,0,2.75.63,4.91,1.9,6.48,1.27,1.57,3.01,2.35,5.22,2.35.83,0,1.7-.15,2.58-.46s1.83-.77,2.82-1.38Z"/>
        <path class="cls-1" d="M158.7,65.6c3.44,0,6.26,1.06,8.46,3.17,2.2,2.12,3.3,4.79,3.3,8.03,0,3.4-1.15,6.24-3.44,8.51-2.29,2.28-5.15,3.42-8.58,3.42s-6.23-1.07-8.39-3.21c-2.17-2.14-3.25-4.88-3.25-8.22s1.16-6.05,3.48-8.32c2.32-2.26,5.13-3.39,8.43-3.39ZM158.26,68.48c-1.8,0-3.2.67-4.19,2.01-.99,1.34-1.48,3.23-1.48,5.68,0,2.97.56,5.33,1.69,7.07,1.13,1.74,2.64,2.62,4.55,2.62s3.25-.7,4.3-2.11c1.05-1.41,1.57-3.33,1.57-5.78,0-2.91-.58-5.23-1.75-6.93-1.17-1.71-2.73-2.56-4.69-2.56Z"/>
        <path class="cls-1" d="M181.51,65.56l-.35,3.6c1.76-1.26,3.26-2.18,4.5-2.75,1.25-.57,2.35-.86,3.32-.86,2.3,0,4.03.67,5.2,2.01,1.17,1.34,1.75,3.32,1.75,5.94,0,.5-.01,1.65-.04,3.46-.03,1.81-.04,3.37-.04,4.69,0,2.15.16,3.45.47,3.89.31.44.95.66,1.9.66h.46l-.04,1.85c-1.3-.09-2.42-.15-3.34-.2-.92-.04-1.67-.07-2.24-.07-.62,0-1.37.02-2.27.07-.9.04-1.94.11-3.13.2v-1.85h.26c1.82,0,2.75-1.83,2.79-5.49v-4.9c0-2.53-.29-4.24-.88-5.12s-1.58-1.32-2.99-1.32c-.76,0-1.58.16-2.46.47-.88.31-1.85.8-2.9,1.46-.06,1.32-.1,2.69-.13,4.11-.03,1.42-.04,2.95-.04,4.57v1.8c0,1.98.16,3.21.47,3.69.31.48.94.72,1.88.72h.35v1.85c-1.23-.09-2.31-.15-3.23-.2-.92-.04-1.71-.07-2.35-.07s-1.41.02-2.33.07c-.92.04-1.99.11-3.21.2v-1.85h.51c1.82,0,2.74-1.84,2.77-5.52,0-.44,0-.78.02-1.01l.04-4.55v-1.93c0-1.66-.13-2.73-.38-3.22-.26-.49-.73-.74-1.42-.74-.13,0-.42.02-.88.07-.09.01-.15.02-.2.02l-.13-1.71c1.22-.19,2.5-.45,3.85-.79s2.83-.76,4.46-1.27Z"/>
        <path class="cls-1" d="M221.69,76.35l-9.16.02c-1.57,0-2.74.01-3.52.03-.78.02-1.49.07-2.15.14,0,2.62.65,4.68,1.94,6.17,1.3,1.49,3.09,2.24,5.37,2.24,1.1,0,2.19-.17,3.26-.52,1.08-.34,2.16-.87,3.26-1.57l.99,1.89c-1.7,1.35-3.37,2.35-5.01,3.02-1.64.67-3.27,1-4.88,1-3.06,0-5.57-1.02-7.54-3.06-1.96-2.04-2.94-4.67-2.94-7.88,0-3.49,1.06-6.4,3.19-8.73,2.12-2.34,4.73-3.5,7.82-3.5,2.77,0,5.01.98,6.72,2.93,1.71,1.96,2.59,4.56,2.64,7.81ZM216.49,73.67c-.31-1.71-.87-3.05-1.68-4.01-.81-.96-1.78-1.44-2.91-1.44-1.35,0-2.46.52-3.34,1.56s-1.43,2.5-1.65,4.37h1.38c1.8,0,3.37-.04,4.7-.12,1.33-.08,2.5-.2,3.49-.36Z"/>
        <path class="cls-1" d="M223.43,86.17c.06.01.12.03.2.03.07,0,.17.01.29.01,1.25,0,3.6-1.98,7.05-5.93,1.03-1.19,1.84-2.12,2.44-2.79l-5.34-6.94-.02-.02c-1.2-1.57-2.19-2.35-2.97-2.35-.13,0-.23,0-.3.01-.07,0-.13.01-.19.01v-1.91c1.35.07,2.41.13,3.2.17.78.04,1.42.06,1.92.06.66,0,1.44-.02,2.33-.06.89-.04,1.98-.09,3.25-.17v1.89h-.22c-.59,0-1.01.08-1.27.24s-.4.42-.4.79c0,.29.21.75.62,1.38.41.63,1.36,1.89,2.86,3.78,1.42-1.7,2.4-2.93,2.93-3.7.53-.77.8-1.3.8-1.59,0-.35-.11-.59-.34-.71-.23-.12-.69-.19-1.37-.19l.02-1.89c.67.07,1.35.13,2.04.17.69.04,1.4.06,2.13.06.63,0,1.3-.02,2-.06.7-.04,1.43-.09,2.18-.17v1.93s-.04-.02-.07-.02c-.18-.04-.31-.07-.42-.07-.98,0-2.96,1.7-5.93,5.1-1.03,1.17-1.84,2.1-2.44,2.77l6.2,7.89c.75,1,1.33,1.63,1.75,1.91.42.28.88.42,1.37.42.03,0,.1,0,.2-.02s.18-.02.24-.02v1.89c-1.49-.09-2.69-.15-3.59-.18-.9-.03-1.65-.04-2.25-.04-.44,0-1.03.01-1.78.04s-1.91.09-3.49.18v-1.89h.26c.64,0,1.11-.08,1.38-.24s.42-.42.42-.79-.75-1.52-2.24-3.47c-.79-1.02-1.42-1.85-1.89-2.46-1.7,2.08-2.85,3.54-3.44,4.38-.59.84-.89,1.4-.89,1.68,0,.32.11.55.32.69.21.14.56.21,1.04.21h.48v1.89c-1.19-.09-2.13-.15-2.82-.18-.7-.03-1.3-.04-1.81-.04-.41,0-.94.01-1.59.04s-1.6.09-2.85.18v-1.89Z"/>
        <path class="cls-1" d="M258.94,65.56c-.09,3.16-.16,5.93-.21,8.28-.05,2.36-.08,4.29-.08,5.8v2.57c0,1.71.17,2.81.52,3.29.34.48,1,.71,1.97.71.07,0,.19,0,.34-.02.15-.01.28-.02.38-.02v1.89c-1.35-.09-2.53-.15-3.54-.2-1.01-.04-1.85-.07-2.5-.07-.56,0-1.31.02-2.25.07-.94.04-2.07.11-3.37.2v-1.89h.46c1.88,0,2.82-1.73,2.83-5.19v-1.3l.04-4.68v-1.93c0-1.64-.13-2.7-.4-3.16s-.78-.7-1.54-.7c-.1,0-.34.01-.7.04-.16.01-.29.03-.37.04l-.33-1.76c1.55-.21,3.05-.47,4.48-.79s2.86-.72,4.26-1.19ZM255.86,54.53l2,1.36c.5.34.87.69,1.11,1.05.24.37.36.76.36,1.19s-.1.82-.29,1.13c-.19.31-.53.64-1.01.98l-2.13,1.45-1.98-1.32c-.53-.34-.92-.69-1.18-1.05-.26-.37-.38-.75-.38-1.14,0-.44.1-.83.31-1.16s.58-.7,1.12-1.08l2.07-1.41Z"/>
        <path class="cls-1" d="M276.73,65.6c3.44,0,6.26,1.06,8.46,3.17,2.2,2.12,3.3,4.79,3.3,8.03,0,3.4-1.15,6.24-3.44,8.51-2.29,2.28-5.15,3.42-8.58,3.42s-6.23-1.07-8.39-3.21c-2.17-2.14-3.25-4.88-3.25-8.22s1.16-6.05,3.48-8.32c2.32-2.26,5.13-3.39,8.43-3.39ZM276.3,68.48c-1.8,0-3.2.67-4.19,2.01-.99,1.34-1.48,3.23-1.48,5.68,0,2.97.56,5.33,1.69,7.07,1.13,1.74,2.64,2.62,4.55,2.62s3.25-.7,4.3-2.11c1.05-1.41,1.57-3.33,1.57-5.78,0-2.91-.58-5.23-1.75-6.93-1.17-1.71-2.73-2.56-4.69-2.56ZM278.71,53.45l4.28,2.4-7.84,7.32-2.15-.79,5.71-8.92Z"/>
        <path class="cls-1" d="M299.54,65.56l-.35,3.6c1.76-1.26,3.26-2.18,4.5-2.75,1.25-.57,2.35-.86,3.32-.86,2.3,0,4.03.67,5.2,2.01,1.17,1.34,1.75,3.32,1.75,5.94,0,.5-.01,1.65-.04,3.46-.03,1.81-.04,3.37-.04,4.69,0,2.15.16,3.45.47,3.89.31.44.95.66,1.9.66h.46l-.04,1.85c-1.3-.09-2.42-.15-3.34-.2-.92-.04-1.67-.07-2.24-.07-.62,0-1.37.02-2.27.07-.9.04-1.94.11-3.13.2v-1.85h.26c1.82,0,2.75-1.83,2.79-5.49v-4.9c0-2.53-.29-4.24-.88-5.12s-1.58-1.32-2.99-1.32c-.76,0-1.58.16-2.46.47-.88.31-1.85.8-2.9,1.46-.06,1.32-.1,2.69-.13,4.11-.03,1.42-.04,2.95-.04,4.57v1.8c0,1.98.16,3.21.47,3.69.31.48.94.72,1.88.72h.35v1.85c-1.23-.09-2.31-.15-3.23-.2-.92-.04-1.71-.07-2.35-.07s-1.41.02-2.33.07c-.92.04-1.99.11-3.21.2v-1.85h.51c1.82,0,2.74-1.84,2.77-5.52,0-.44,0-.78.02-1.01l.04-4.55v-1.93c0-1.66-.13-2.73-.38-3.22-.26-.49-.73-.74-1.42-.74-.13,0-.42.02-.88.07-.09.01-.15.02-.2.02l-.13-1.71c1.22-.19,2.5-.45,3.85-.79s2.83-.76,4.46-1.27Z"/>
        <path class="cls-1" d="M353.09,76.35l-9.16.02c-1.57,0-2.74.01-3.52.03-.78.02-1.49.07-2.15.14,0,2.62.65,4.68,1.94,6.17,1.3,1.49,3.09,2.24,5.37,2.24,1.1,0,2.19-.17,3.26-.52,1.08-.34,2.16-.87,3.26-1.57l.99,1.89c-1.7,1.35-3.37,2.35-5.01,3.02-1.64.67-3.27,1-4.88,1-3.06,0-5.57-1.02-7.54-3.06-1.96-2.04-2.94-4.67-2.94-7.88,0-3.49,1.06-6.4,3.19-8.73,2.12-2.34,4.73-3.5,7.82-3.5,2.77,0,5.01.98,6.72,2.93,1.71,1.96,2.59,4.56,2.64,7.81ZM347.88,73.67c-.31-1.71-.87-3.05-1.68-4.01-.81-.96-1.78-1.44-2.91-1.44-1.35,0-2.46.52-3.34,1.56s-1.43,2.5-1.65,4.37h1.38c1.8,0,3.37-.04,4.7-.12,1.33-.08,2.5-.2,3.49-.36Z"/>
        <path class="cls-1" d="M362.85,61.78l1.93.55c-.09.82-.17,1.61-.23,2.35-.07.74-.11,1.45-.12,2.11,1.92,0,3.35-.01,4.28-.04s1.8-.07,2.59-.13l-.57,2.99c-.92-.07-1.92-.13-2.98-.17-1.06-.04-2.17-.05-3.33-.03-.04,1.93-.08,3.58-.1,4.95-.02,1.37-.03,2.44-.03,3.22,0,3.21.23,5.3.69,6.27.46.97,1.28,1.46,2.45,1.46.47,0,1-.1,1.6-.29s1.28-.48,2.04-.88l.86,1.85c-1.61.91-3.05,1.6-4.31,2.08-1.26.48-2.3.71-3.12.71-1.88,0-3.26-.59-4.15-1.77-.89-1.18-1.34-3.01-1.34-5.48,0-.48.04-2.07.12-4.77.08-2.7.12-5.16.12-7.38-.03,0-.38.01-1.04.04-.67.03-1.45.06-2.34.09v-2.11c1.7-.25,3.12-.84,4.27-1.77,1.15-.93,2.05-2.22,2.69-3.86Z"/>
        <path class="cls-1" d="M394.71,76.35l-9.16.02c-1.57,0-2.74.01-3.52.03-.78.02-1.49.07-2.15.14,0,2.62.65,4.68,1.94,6.17,1.3,1.49,3.09,2.24,5.37,2.24,1.1,0,2.19-.17,3.26-.52,1.08-.34,2.16-.87,3.26-1.57l.99,1.89c-1.7,1.35-3.37,2.35-5.01,3.02-1.64.67-3.27,1-4.88,1-3.06,0-5.57-1.02-7.54-3.06-1.96-2.04-2.94-4.67-2.94-7.88,0-3.49,1.06-6.4,3.19-8.73,2.12-2.34,4.73-3.5,7.82-3.5,2.77,0,5.01.98,6.72,2.93,1.71,1.96,2.59,4.56,2.64,7.81ZM389.5,73.67c-.31-1.71-.87-3.05-1.68-4.01-.81-.96-1.78-1.44-2.91-1.44-1.35,0-2.46.52-3.34,1.56s-1.43,2.5-1.65,4.37h1.38c1.8,0,3.37-.04,4.7-.12,1.33-.08,2.5-.2,3.49-.36Z"/>
        <path class="cls-1" d="M406.31,65.43c-.1,1.38-.18,2.56-.24,3.54s-.1,1.84-.11,2.57c1.3-2.18,2.42-3.68,3.36-4.49.94-.81,1.96-1.22,3.08-1.22.78,0,1.45.29,2.02.86.57.57.86,1.26.86,2.06,0,.75-.18,1.34-.54,1.78-.36.44-.84.66-1.44.66-.34,0-.81-.12-1.41-.36-.6-.24-1.08-.36-1.43-.36-.66,0-1.32.25-1.98.75-.66.5-1.43,1.33-2.31,2.51,0,.47,0,1.19-.02,2.15s-.02,1.7-.02,2.2v2.44c0,2.53.23,4.13.68,4.78.45.65,1.34.98,2.66.98.09,0,.23,0,.43-.02.2-.01.35-.02.47-.02v1.85h-.07c-3.27-.21-5.39-.31-6.37-.31-.78,0-2.75.1-5.91.29h-.44v-1.87h.59c1.1,0,1.85-.27,2.24-.81.4-.54.59-1.83.59-3.87v-7.43c0-2.2-.14-3.56-.41-4.08-.27-.52-.78-.78-1.53-.78-.09,0-.25.02-.48.05-.23.04-.42.06-.57.08l-.18-1.76c1.39-.22,2.78-.51,4.17-.86s2.82-.78,4.28-1.3Z"/>
        <path class="cls-1" d="M425.42,65.56l-.35,3.6c1.76-1.26,3.26-2.18,4.5-2.75,1.25-.57,2.35-.86,3.32-.86,2.3,0,4.03.67,5.2,2.01,1.17,1.34,1.75,3.32,1.75,5.94,0,.5-.01,1.65-.04,3.46-.03,1.81-.04,3.37-.04,4.69,0,2.15.16,3.45.47,3.89.31.44.95.66,1.9.66h.46l-.04,1.85c-1.3-.09-2.42-.15-3.34-.2-.92-.04-1.67-.07-2.24-.07-.62,0-1.37.02-2.27.07-.9.04-1.94.11-3.13.2v-1.85h.26c1.82,0,2.75-1.83,2.79-5.49v-4.9c0-2.53-.29-4.24-.88-5.12s-1.58-1.32-2.99-1.32c-.76,0-1.58.16-2.46.47-.88.31-1.85.8-2.9,1.46-.06,1.32-.1,2.69-.13,4.11-.03,1.42-.04,2.95-.04,4.57v1.8c0,1.98.16,3.21.47,3.69.31.48.94.72,1.88.72h.35v1.85c-1.23-.09-2.31-.15-3.23-.2-.92-.04-1.71-.07-2.35-.07s-1.41.02-2.33.07c-.92.04-1.99.11-3.21.2v-1.85h.51c1.82,0,2.74-1.84,2.77-5.52,0-.44,0-.78.02-1.01l.04-4.55v-1.93c0-1.66-.13-2.73-.38-3.22-.26-.49-.73-.74-1.42-.74-.13,0-.42.02-.88.07-.09.01-.15.02-.2.02l-.13-1.71c1.22-.19,2.5-.45,3.85-.79s2.83-.76,4.46-1.27Z"/>
        <path class="cls-1" d="M466.6,84.32l.81,1.67c-1.33.88-2.53,1.53-3.59,1.97-1.06.43-2.01.65-2.85.65-1.01,0-1.78-.26-2.32-.78-.53-.52-.85-1.31-.93-2.36-1.6,1.11-2.94,1.92-4.04,2.41-1.1.49-2.09.74-2.97.74-1.54,0-2.85-.6-3.93-1.79-1.08-1.19-1.63-2.63-1.63-4.3,0-2.81,3.14-4.94,9.43-6.39,1.36-.32,2.43-.58,3.21-.77.01-.37.03-.72.03-1.07,0-.34.01-.68.01-1,0-1.57-.3-2.71-.91-3.43-.61-.72-1.58-1.08-2.91-1.08-.86,0-1.61.18-2.23.53-.62.35-.96.76-1,1.23-.01.07-.02.17-.02.29-.09,1.46-1.01,2.2-2.77,2.2-.66,0-1.16-.11-1.52-.33-.35-.22-.53-.54-.53-.97,0-1.17,1.08-2.49,3.24-3.94,2.16-1.46,4.43-2.19,6.8-2.19s4.07.6,5.27,1.81c1.2,1.21,1.8,2.98,1.8,5.31,0,.7-.06,2.16-.16,4.36-.11,2.21-.17,4.06-.17,5.57,0,.89.12,1.54.35,1.93s.6.59,1.1.59c.28,0,.62-.07,1.03-.22s.87-.36,1.38-.64ZM457.83,77.58c-.32.09-.79.22-1.41.39-4.19,1.16-6.28,2.53-6.28,4.11,0,.88.29,1.62.86,2.21.57.59,1.29.89,2.15.89.56,0,1.19-.14,1.9-.42s1.64-.75,2.78-1.43v-5.76Z"/>
      </g>
    </g>
  </g>
</svg>