<?xml version="1.0" encoding="UTF-8"?>
<svg id="Capa_2" data-name="Capa 2" xmlns="http://www.w3.org/2000/svg" viewBox="0 0 78.13 78.13">
  <defs>
    <style>
      .cls-1 {
        fill-rule: evenodd;
      }

      .cls-1, .cls-2 {
        fill: #fff;
      }

      .cls-3 {
        fill: #00d754;
      }
    </style>
  </defs>
  <g id="Ordenador_escritorio" data-name="Ordenador escritorio">
    <g id="WA_Icon" data-name="WA Icon">
      <g>
        <circle class="cls-3" cx="39.07" cy="39.07" r="39.07" transform="translate(-5.7 71.44) rotate(-80.87)"/>
        <path class="cls-2" d="M17.96,61.17l3.26-12.15c-1.84-3.33-2.81-7.06-2.81-10.84,0-12.37,10.07-22.44,22.44-22.44s22.44,10.07,22.44,22.44-10.07,22.44-22.44,22.44c-3.71,0-7.38-.94-10.67-2.72l-12.22,3.27ZM30.78,53.35l.77.46c2.82,1.68,6.04,2.57,9.29,2.57,10.03,0,18.2-8.16,18.2-18.2s-8.16-18.2-18.2-18.2-18.2,8.16-18.2,18.2c0,3.31.92,6.58,2.66,9.44l.47.77-1.82,6.78,6.82-1.83Z"/>
        <path class="cls-1" d="M49.19,41.3c-.92-.55-2.13-1.17-3.21-.72-.83.34-1.37,1.65-1.91,2.32-.28.34-.61.4-1.04.22-3.13-1.25-5.53-3.34-7.26-6.22-.29-.45-.24-.8.11-1.22.52-.61,1.18-1.31,1.32-2.14.14-.83-.25-1.8-.59-2.54-.44-.94-.93-2.29-1.87-2.82-.87-.49-2.01-.22-2.79.41-1.34,1.09-1.98,2.79-1.96,4.48,0,.48.06.96.18,1.42.27,1.11.78,2.15,1.36,3.14.44.75.91,1.47,1.42,2.17,1.68,2.28,3.76,4.26,6.18,5.73,1.21.74,2.51,1.39,3.85,1.83,1.51.5,2.85,1.02,4.48.71,1.71-.32,3.39-1.38,4.06-3.02.2-.49.3-1.03.19-1.54-.23-1.06-1.67-1.69-2.53-2.21Z"/>
      </g>
    </g>
  </g>
</svg>