<?xml version="1.0" encoding="UTF-8"?>
<svg id="Capa_2" data-name="Capa 2" xmlns="http://www.w3.org/2000/svg" viewBox="0 0 57.28 57.28">
  <defs>
    <style>
      .cls-1 {
        fill: #ab9f8a;
      }
    </style>
  </defs>
  <g id="Ordenador_escritorio" data-name="Ordenador escritorio">
    <g id="_3_Opciones" data-name="3 Opciones">
      <g>
        <path class="cls-1" d="M28.64,0C12.85,0,0,12.85,0,28.64s12.85,28.64,28.64,28.64,28.64-12.85,28.64-28.64S44.43,0,28.64,0ZM28.64,53.7c-13.82,0-25.06-11.24-25.06-25.06S14.82,3.58,28.64,3.58s25.06,11.24,25.06,25.06-11.24,25.06-25.06,25.06Z"/>
        <path class="cls-1" d="M24.54,16.64c-.7-.7-1.83-.7-2.53,0s-.7,1.83,0,2.53l9.47,9.47-9.47,9.47c-.7.7-.7,1.83,0,2.53.35.35.81.52,1.27.52s.92-.17,1.27-.52l10.74-10.74c.7-.7.7-1.83,0-2.53l-10.74-10.74Z"/>
      </g>
    </g>
  </g>
</svg>