<?xml version="1.0" encoding="UTF-8"?>
<svg id="Capa_2" data-name="Capa 2" xmlns="http://www.w3.org/2000/svg" viewBox="0 0 145.14 40.88">
  <g id="Slide_3" data-name="Slide 3">
    <g id="Imagen_nichos" data-name="Imagen nichos">
      <g>
        <path d="M4.82,13.5c.51-1.72,1.08-3.36,1.73-4.92.65-1.56,1.4-2.93,2.25-4.11.85-1.18,1.83-2.12,2.94-2.82,1.11-.7,2.37-1.05,3.8-1.05.61,0,1.04.08,1.27.23s.35.34.35.55c0,.2-.06.39-.19.57-.13.18-.28.34-.47.47-.19.13-.39.24-.6.31-.21.07-.41.11-.6.11-.28,0-.54-.06-.78-.18-.24-.12-.46-.26-.67-.41s-.4-.29-.58-.41c-.18-.12-.34-.18-.49-.18-.32,0-.61.09-.86.27-.25.18-.49.45-.71.81-.22.36-.43.8-.63,1.33-.2.53-.41,1.14-.62,1.85-.37,1.25-.74,2.38-1.11,3.38s-.75,1.87-1.16,2.6c-.41.73-.85,1.34-1.32,1.81-.47.47-1.01.8-1.61.99.43.04.87.08,1.32.13s.89.09,1.31.12.81.06,1.17.08c.36.02.67.03.92.03,1.07,0,1.93-.06,2.59-.18s1.22-.3,1.67-.55c.45-.25.84-.56,1.15-.94.31-.38.65-.82,1.01-1.33.03-.04.06-.06.1-.06.07,0,.1.03.1.08v.06c-.25.55-.5,1.09-.75,1.64s-.54,1.04-.88,1.48c-.34.44-.75.8-1.24,1.07-.49.27-1.1.41-1.83.41-.47,0-1.07-.03-1.8-.08-.73-.05-1.52-.11-2.37-.18-.85-.07-1.72-.13-2.62-.18-.9-.05-1.76-.08-2.57-.08-.64,0-1.24.02-1.8.06h-.02c-.07,0-.12-.05-.16-.14-.04-.09-.06-.21-.06-.36,0-.12.01-.25.04-.39.03-.14.06-.27.1-.38s.09-.21.15-.29c.06-.08.12-.12.19-.12.27.01.6.06,1,.15.4.09.8.13,1.2.13.47,0,.9-.09,1.29-.28.39-.19.68-.55.85-1.1Z"/>
        <path d="M17.22,13.16c0-.77.14-1.57.43-2.39.29-.82.69-1.57,1.2-2.25.51-.68,1.12-1.24,1.83-1.67.71-.43,1.48-.65,2.32-.65,1,0,1.77.27,2.32.82.55.55.82,1.32.82,2.32,0,.79-.14,1.59-.42,2.41-.28.82-.68,1.57-1.19,2.24s-1.12,1.22-1.83,1.65c-.71.43-1.49.64-2.34.64-.99,0-1.76-.27-2.31-.81s-.83-1.31-.83-2.31ZM19.76,13.88c0,.63.08,1.11.24,1.46.16.35.39.52.7.52.44,0,.84-.25,1.19-.76.35-.51.66-1.13.91-1.88.25-.75.45-1.54.59-2.39.14-.85.21-1.61.21-2.29,0-.6-.07-1.08-.22-1.44-.15-.36-.35-.54-.62-.54-.29,0-.57.12-.84.35-.27.23-.51.55-.73.94-.22.39-.42.84-.6,1.35s-.33,1.03-.45,1.58c-.12.55-.21,1.09-.28,1.62-.07.53-.1,1.03-.1,1.48Z"/>
        <path d="M29.34,7.22h-1.26c-.11,0-.12-.04-.04-.12l.4-.5c.11-.08.21-.12.3-.12h.84l.54-1.42c.31-.15.64-.37,1.01-.67.37-.3.7-.62,1.01-.97.31,0,.51.04.62.13.11.09.13.25.06.49l-.8,2.44h2.48c.09,0,.11.05.06.14l-.24.46c-.08.09-.18.14-.3.14h-2.26l-1.64,5.06c-.11.32-.19.63-.24.93s-.08.57-.08.81c0,.27.04.49.13.66.09.17.23.26.43.26.16,0,.32-.07.49-.2.17-.13.34-.31.53-.53.19-.22.39-.47.6-.76.21-.29.44-.58.68-.87.07-.07.12-.1.17-.1s.08.02.1.05.03.07.04.11,0,.07,0,.1c-.32.48-.64.94-.95,1.37-.31.43-.63.81-.95,1.13-.32.32-.66.58-1.01.77-.35.19-.73.29-1.13.29-1.16,0-1.74-.63-1.74-1.88,0-.35.05-.73.14-1.16.09-.43.23-.91.42-1.44l1.6-4.6Z"/>
        <path d="M33.2,13.44c0-.88.18-1.75.53-2.61.35-.86.83-1.63,1.43-2.31.6-.68,1.3-1.23,2.11-1.65.81-.42,1.66-.63,2.57-.63.76,0,1.37.14,1.82.43.45.29.68.68.68,1.17,0,.39-.1.73-.3,1.02-.2.29-.47.55-.8.78-.33.23-.71.42-1.13.59-.42.17-.86.31-1.31.43s-.9.22-1.33.3c-.43.08-.83.15-1.19.22-.16.48-.28.93-.37,1.36-.09.43-.13.79-.13,1.1,0,.55.11.97.34,1.28.23.31.58.46,1.06.46.31,0,.62-.07.95-.22s.64-.35.95-.6c.31-.25.6-.54.87-.86.27-.32.52-.65.73-.98.03-.03.06-.06.1-.09s.09-.05.16-.05c.08,0,.12.03.12.08,0,.04-.02.09-.06.16-.25.39-.54.79-.86,1.2-.32.41-.69.79-1.1,1.12-.41.33-.87.61-1.36.82-.49.21-1.03.32-1.62.32-.88,0-1.58-.25-2.09-.75-.51-.5-.77-1.2-.77-2.09ZM36.42,10.76c.44-.13.89-.29,1.36-.47s.89-.4,1.27-.67c.38-.27.69-.59.94-.96s.37-.82.37-1.34c0-.45-.23-.68-.7-.68-.32,0-.64.12-.95.36-.31.24-.61.56-.89.95-.28.39-.54.83-.77,1.32-.23.49-.44.98-.63,1.49Z"/>
        <path d="M55.12,4.38c-.09-.28-.21-.52-.36-.72-.15-.2-.34-.37-.58-.5-.24-.13-.54-.24-.9-.31-.36-.07-.8-.11-1.32-.11-.12,0-.16-.05-.12-.16.04-.11.11-.16.22-.16.25-.03.53-.06.82-.11s.6-.1.91-.15c.31-.05.63-.1.96-.13s.64-.05.93-.05.6.02.88.07c.28.05.53.14.74.27.21.13.39.31.54.53.15.22.25.5.3.85l1.34,9.24h.04l8.84-9.58c1.04-1.12,2.15-1.96,3.33-2.52,1.18-.56,2.3-.84,3.37-.84.6,0,1.02.07,1.25.22.23.15.35.33.35.56,0,.2-.06.39-.19.57-.13.18-.28.34-.46.47-.18.13-.38.24-.59.31s-.41.11-.6.11c-.28,0-.54-.06-.78-.18-.24-.12-.46-.26-.67-.41-.21-.15-.4-.29-.58-.41s-.34-.18-.49-.18c-.32,0-.6.09-.85.28-.25.19-.48.46-.71.83-.23.37-.45.83-.67,1.38-.22.55-.45,1.2-.69,1.93l-2.12,6.44c-.19.56-.32,1.03-.41,1.42-.09.39-.13.7-.13.94,0,.44.15.66.46.66.16,0,.33-.06.5-.19.17-.13.36-.3.55-.52.19-.22.4-.47.61-.76.21-.29.44-.58.68-.89.03-.04.08-.03.16.02.08.05.11.1.08.14-.32.48-.63.94-.94,1.37-.31.43-.62.81-.94,1.13-.32.32-.66.58-1.01.77-.35.19-.73.29-1.13.29-.51,0-.89-.17-1.14-.5-.25-.33-.38-.8-.38-1.4,0-.71.17-1.57.52-2.6l1.78-5.3h-.04l-8.26,9.32c-.13.19-.29.28-.48.28h-.48c-.17,0-.29-.09-.34-.28l-1.54-10.36h-.04l-2.26,5.38c-.51,1.23-1.03,2.23-1.56,3.01-.53.78-1.09,1.4-1.68,1.85-.59.45-1.21.76-1.86.93s-1.35.25-2.1.25c-.6,0-1.03-.11-1.29-.34-.26-.23-.39-.48-.39-.76s.11-.56.34-.79c.23-.23.52-.35.88-.35.32,0,.6.04.83.11s.45.15.66.23c.21.08.41.16.6.23.19.07.41.11.65.11.79,0,1.54-.42,2.26-1.27.72-.85,1.47-2.18,2.26-3.99l2.44-5.68Z"/>
        <path d="M70.04,13.44c0-.88.18-1.75.53-2.61.35-.86.83-1.63,1.43-2.31.6-.68,1.3-1.23,2.11-1.65.81-.42,1.66-.63,2.57-.63.76,0,1.37.14,1.82.43.45.29.68.68.68,1.17,0,.39-.1.73-.3,1.02-.2.29-.47.55-.8.78-.33.23-.71.42-1.13.59-.42.17-.86.31-1.31.43s-.9.22-1.33.3c-.43.08-.83.15-1.19.22-.16.48-.28.93-.37,1.36-.09.43-.13.79-.13,1.1,0,.55.11.97.34,1.28.23.31.58.46,1.06.46.31,0,.62-.07.95-.22s.64-.35.95-.6c.31-.25.6-.54.87-.86.27-.32.52-.65.73-.98.03-.03.06-.06.1-.09s.09-.05.16-.05c.08,0,.12.03.12.08,0,.04-.02.09-.06.16-.25.39-.54.79-.86,1.2-.32.41-.69.79-1.1,1.12-.41.33-.87.61-1.36.82-.49.21-1.03.32-1.62.32-.88,0-1.58-.25-2.09-.75-.51-.5-.77-1.2-.77-2.09ZM73.26,10.76c.44-.13.89-.29,1.36-.47s.89-.4,1.27-.67c.38-.27.69-.59.94-.96s.37-.82.37-1.34c0-.45-.23-.68-.7-.68-.32,0-.64.12-.95.36-.31.24-.61.56-.89.95-.28.39-.54.83-.77,1.32-.23.49-.44.98-.63,1.49Z"/>
        <path d="M81.22,9.02c.07-.19.12-.35.16-.5.04-.15.06-.29.06-.42,0-.23-.1-.39-.29-.5-.19-.11-.51-.16-.95-.16-.07,0-.1-.03-.1-.08.01-.05.04-.11.08-.16s.09-.08.14-.08c.79-.11,1.49-.22,2.1-.33.61-.11,1.23-.26,1.84-.45.08-.03.15-.04.22-.04.13,0,.18.07.14.2l-1.92,5.66h.06c.36-.69.7-1.39,1.02-2.09s.65-1.33.99-1.9c.34-.57.71-1.03,1.11-1.39.4-.36.87-.54,1.4-.54.24,0,.47.03.69.08.22.05.41.15.57.28.16.13.29.31.39.54.1.23.15.52.15.88,0,.56-.15,1.3-.44,2.22l-.64,1.92h.08c.36-.69.7-1.39,1.01-2.09.31-.7.64-1.33.98-1.9.34-.57.71-1.03,1.11-1.39.4-.36.87-.54,1.4-.54.24,0,.47.03.69.08.22.05.41.14.57.27.16.13.29.31.39.54.1.23.15.53.15.89,0,.56-.15,1.3-.44,2.22l-.66,2.04c-.13.39-.24.75-.32,1.1-.08.35-.12.65-.12.9,0,.21.03.38.09.49s.18.17.35.17c.16,0,.33-.07.5-.2s.35-.31.54-.53c.19-.22.38-.47.59-.76s.44-.58.69-.87c.07-.07.12-.1.16-.1.07,0,.11.04.13.11s.02.12,0,.15c-.32.48-.63.94-.94,1.37-.31.43-.62.81-.95,1.13s-.67.58-1.02.77c-.35.19-.73.29-1.13.29-.56,0-.96-.14-1.21-.42-.25-.28-.37-.7-.37-1.26,0-.72.2-1.66.6-2.82l.52-1.5c.21-.61.37-1.11.46-1.49.09-.38.14-.68.14-.91s-.04-.38-.13-.47c-.09-.09-.2-.13-.35-.13-.16,0-.35.13-.57.38-.22.25-.46.59-.71,1-.25.41-.52.89-.79,1.42-.27.53-.54,1.08-.81,1.64-.27.56-.52,1.12-.77,1.67-.25.55-.47,1.05-.67,1.49l-.3.94c-.09.27-.27.39-.52.36l-1.36-.14c-.21-.03-.36-.11-.45-.24-.09-.13-.1-.3-.03-.5l1.56-5.02c.19-.63.33-1.13.43-1.52s.15-.69.15-.92c0-.21-.04-.36-.13-.44-.09-.08-.2-.12-.33-.12-.16,0-.35.13-.57.38-.22.25-.46.59-.71,1.01-.25.42-.52.9-.79,1.43-.27.53-.54,1.08-.81,1.65-.27.57-.52,1.13-.77,1.68-.25.55-.47,1.05-.67,1.49l-.3.9c-.09.27-.27.39-.52.36l-1.4-.14c-.21-.03-.36-.11-.45-.24-.09-.13-.1-.29-.03-.48l2.04-6.32Z"/>
        <path d="M96.12,13.16c0-.77.14-1.57.43-2.39.29-.82.69-1.57,1.2-2.25.51-.68,1.12-1.24,1.83-1.67.71-.43,1.48-.65,2.32-.65,1,0,1.77.27,2.32.82.55.55.82,1.32.82,2.32,0,.79-.14,1.59-.42,2.41-.28.82-.68,1.57-1.19,2.24s-1.12,1.22-1.83,1.65c-.71.43-1.49.64-2.34.64-.99,0-1.76-.27-2.31-.81s-.83-1.31-.83-2.31ZM98.66,13.88c0,.63.08,1.11.24,1.46.16.35.39.52.7.52.44,0,.84-.25,1.19-.76.35-.51.66-1.13.91-1.88.25-.75.45-1.54.59-2.39.14-.85.21-1.61.21-2.29,0-.6-.07-1.08-.22-1.44-.15-.36-.35-.54-.62-.54-.29,0-.57.12-.84.35-.27.23-.51.55-.73.94-.22.39-.42.84-.6,1.35s-.33,1.03-.45,1.58c-.12.55-.21,1.09-.28,1.62-.07.53-.1,1.03-.1,1.48Z"/>
        <path d="M107.72,9c.13-.36.2-.65.2-.88,0-.27-.1-.45-.31-.55-.21-.1-.5-.16-.89-.17-.09,0-.13-.04-.1-.12.04-.09.11-.15.2-.18.8-.09,1.49-.2,2.06-.32.57-.12,1.17-.27,1.78-.46.08-.03.15-.04.22-.04.13,0,.18.07.14.2l-1.34,4.22h.08c.2-.37.45-.82.75-1.33.3-.51.64-1.01,1.02-1.48.38-.47.81-.87,1.29-1.2.48-.33,1-.49,1.56-.49.32,0,.55.07.7.21.15.14.22.31.22.51,0,.16-.04.32-.12.48s-.19.31-.33.45c-.14.14-.31.25-.52.34s-.44.13-.69.13c-.44,0-.85.08-1.24.24-.39.16-.75.37-1.09.64-.34.27-.65.58-.94.95-.29.37-.56.76-.81,1.17l-1.5,4.5c-.04.12-.11.22-.2.29-.09.07-.2.1-.32.09l-1.4-.14c-.21-.03-.36-.11-.44-.25-.08-.14-.09-.31-.02-.51l2.04-6.3Z"/>
        <path d="M116.48,8.98c.09-.28.14-.53.14-.74,0-.33-.11-.56-.32-.68-.21-.12-.47-.18-.76-.18-.08,0-.12-.03-.12-.1,0-.11.07-.17.2-.2.43-.05.81-.11,1.15-.16.34-.05.67-.11.98-.17.31-.06.61-.13.9-.2s.58-.16.89-.25c.05-.03.13-.04.22-.04.12,0,.16.07.12.2l-1.9,5.82c-.11.39-.21.75-.3,1.1-.09.35-.14.65-.14.9,0,.2.04.36.11.48s.19.18.35.18.33-.07.5-.2.35-.31.54-.53c.19-.22.39-.47.6-.76.21-.29.44-.58.68-.87.09-.07.15-.1.16-.1.07,0,.11.04.14.11.03.07.03.12,0,.15-.32.48-.64.94-.95,1.37s-.63.81-.95,1.13c-.32.32-.66.58-1.01.77-.35.19-.73.29-1.13.29-.56,0-.96-.14-1.21-.42-.25-.28-.37-.7-.37-1.26,0-.69.19-1.63.58-2.82l.9-2.82ZM117.62,3.78c.24-.27.46-.54.66-.82.2-.28.4-.53.61-.75.21-.22.43-.4.66-.54.23-.14.5-.21.79-.21.37,0,.67.09.88.28.21.19.32.43.32.74s-.11.61-.32.87c-.21.26-.48.48-.79.67-.31.19-.65.33-1.01.43-.36.1-.69.15-.98.15-.27,0-.49-.04-.67-.12s-.27-.21-.27-.4c0-.08.04-.18.12-.3Z"/>
        <path d="M120.64,13.76c0-.87.17-1.74.51-2.63.34-.89.81-1.69,1.41-2.41.6-.72,1.31-1.31,2.12-1.77.81-.46,1.69-.69,2.64-.69.6,0,1.08.09,1.43.26.35.17.64.43.87.78h.04c.13-.11.29-.24.48-.39.19-.15.36-.3.52-.45.15-.12.32-.18.52-.18h.22c.15,0,.22.05.22.16,0,.03,0,.07-.02.12l-1.86,5.72c-.29.88-.45,1.44-.46,1.68s-.02.37-.02.4c0,.39.17.58.52.58.16,0,.33-.07.5-.2s.36-.31.55-.53c.19-.22.39-.47.6-.76.21-.29.43-.58.67-.87.03-.03.05-.04.08-.04.04,0,.09.02.14.06.05.04.08.07.08.1,0,.01,0,.03-.02.04-.32.48-.63.94-.94,1.37s-.62.81-.95,1.14-.67.58-1.02.77c-.35.19-.73.28-1.13.28-.77,0-1.16-.46-1.16-1.38,0-.56.14-1.29.42-2.18l.78-2.1h-.04c-.87,1.83-1.7,3.22-2.51,4.17-.81.95-1.63,1.43-2.47,1.43s-1.47-.19-1.97-.58-.75-1.02-.75-1.9ZM123.1,14.26c0,.47.09.79.28.96.19.17.41.26.66.26.56,0,1.22-.51,1.97-1.53.75-1.02,1.52-2.45,2.31-4.29l.3-.96c.05-.27.08-.5.08-.7,0-.27-.06-.53-.19-.8-.13-.27-.43-.4-.91-.4-.41,0-.81.13-1.2.4s-.75.62-1.08,1.05c-.33.43-.64.92-.91,1.46-.27.54-.51,1.09-.7,1.64-.19.55-.34,1.09-.45,1.6-.11.51-.16.95-.16,1.31Z"/>
        <path d="M134.88,6.86c.4-1.17.94-2.19,1.61-3.05.67-.86,1.41-1.57,2.2-2.14.79-.57,1.61-.99,2.46-1.26.85-.27,1.64-.41,2.39-.41.6,0,1.02.07,1.25.22.23.15.35.33.35.56,0,.2-.05.39-.16.57-.11.18-.25.34-.42.47-.17.13-.37.24-.6.31-.23.07-.45.11-.68.11-.28,0-.54-.06-.78-.18-.24-.12-.46-.26-.67-.41s-.4-.29-.58-.41c-.18-.12-.34-.18-.49-.18-.32,0-.61.09-.86.28-.25.19-.49.46-.71.83-.22.37-.44.83-.65,1.38-.21.55-.44,1.2-.68,1.93l-2.12,6.44c-.37,1.11-.56,1.89-.56,2.36,0,.44.16.66.48.66.16,0,.33-.06.5-.19s.35-.3.54-.52c.19-.22.39-.47.6-.76.21-.29.44-.58.68-.89.07-.07.14-.07.21,0,.07.06.09.12.05.17-.32.48-.63.94-.94,1.37-.31.43-.62.81-.94,1.13-.32.32-.66.58-1.01.77-.35.19-.73.29-1.13.29-.51,0-.89-.17-1.14-.5s-.38-.8-.38-1.4c0-.71.17-1.57.52-2.6l1.66-4.94Z"/>
        <path d="M84.08,28.64c-.12-.28-.25-.54-.38-.77s-.31-.43-.53-.6c-.22-.17-.5-.3-.84-.39-.34-.09-.78-.14-1.33-.14-.11,0-.14-.05-.1-.16.04-.11.11-.16.22-.16.48-.05,1.02-.14,1.63-.26s1.2-.18,1.77-.18c.31,0,.6.03.88.08.28.05.54.15.77.28.23.13.44.31.62.53.18.22.32.5.41.83l2.56,8.56h.04c.07-.2.16-.47.28-.82s.25-.73.39-1.14c.14-.41.29-.85.45-1.3.16-.45.31-.88.46-1.29.15-.41.28-.77.4-1.1.12-.33.21-.58.26-.75.43-1.21.87-2.2,1.34-2.96.47-.76.96-1.36,1.48-1.79s1.08-.73,1.67-.88c.59-.15,1.22-.23,1.89-.23.53,0,.92.09,1.15.28.23.19.35.4.35.64,0,.19-.05.36-.15.52-.1.16-.23.3-.38.42s-.32.21-.51.28c-.19.07-.37.1-.54.1-.28,0-.54-.06-.77-.18-.23-.12-.45-.26-.65-.41-.2-.15-.39-.29-.56-.41-.17-.12-.33-.18-.48-.18-.32,0-.61.09-.86.28-.25.19-.49.46-.71.83-.22.37-.44.83-.67,1.38-.23.55-.47,1.2-.74,1.93l-2.22,6.12c-.11.27-.19.56-.26.87-.07.31-.1.61-.1.89,0,.31.04.59.12.84.08.25.17.48.26.68s.18.37.26.51c.08.14.12.25.12.33,0,.05-.06.12-.17.2s-.26.15-.43.22c-.17.07-.36.12-.55.17-.19.05-.37.07-.53.07-.28,0-.52-.05-.73-.15-.21-.1-.39-.25-.55-.44s-.3-.43-.43-.71c-.13-.28-.26-.61-.39-.98l-2.86-8.64h-.04l-2.26,5.38c-.51,1.21-1.03,2.21-1.57,2.99s-1.1,1.4-1.69,1.85c-.59.45-1.2.77-1.85.94-.65.17-1.34.26-2.09.26-.61,0-1.05-.11-1.31-.34-.26-.23-.39-.49-.39-.78,0-.32.12-.59.37-.8.25-.21.54-.32.87-.32s.6.04.83.11.45.15.66.23c.21.08.41.16.6.23.19.07.4.11.63.11.79,0,1.54-.42,2.27-1.27.73-.85,1.48-2.18,2.25-3.99l2.36-5.42Z"/>
        <path d="M95.5,32.98c.09-.28.14-.53.14-.74,0-.33-.11-.56-.33-.68-.22-.12-.48-.18-.77-.18-.08,0-.12-.03-.12-.1,0-.11.07-.17.22-.2.43-.05.81-.11,1.15-.16.34-.05.67-.11.98-.17.31-.06.61-.13.9-.2s.58-.16.87-.25c.08-.03.15-.04.22-.04.12,0,.16.07.12.2l-1.88,5.82c-.12.39-.23.75-.32,1.1-.09.35-.14.65-.14.9,0,.2.04.36.11.48s.2.18.37.18c.16,0,.32-.07.49-.2.17-.13.34-.31.53-.53.19-.22.39-.47.6-.76.21-.29.45-.58.7-.87.07-.07.12-.1.16-.1.07,0,.11.04.13.11s.02.12,0,.15c-.32.48-.64.94-.95,1.37s-.63.81-.95,1.13c-.32.32-.66.58-1.01.77-.35.19-.73.29-1.13.29-.56,0-.96-.14-1.21-.42-.25-.28-.37-.7-.37-1.26,0-.35.05-.76.15-1.23.1-.47.24-1,.43-1.59l.92-2.82Z"/>
        <path d="M99.94,37.08c0-.89.17-1.75.52-2.58.35-.83.82-1.56,1.41-2.19.59-.63,1.29-1.14,2.09-1.52.8-.38,1.66-.57,2.58-.57s1.5.14,1.85.41c.35.27.53.57.53.89,0,.27-.09.5-.27.71-.18.21-.41.31-.69.31-.17,0-.31-.05-.4-.14-.09-.09-.16-.21-.21-.35-.05-.14-.09-.29-.12-.46-.03-.17-.08-.32-.15-.46-.07-.14-.16-.26-.27-.35-.11-.09-.28-.14-.49-.14-.57,0-1.09.21-1.56.63-.47.42-.86.95-1.18,1.58-.32.63-.57,1.32-.74,2.07-.17.75-.26,1.45-.26,2.12,0,1.56.5,2.34,1.5,2.34.53,0,1.07-.15,1.6-.44.53-.29,1.08-.77,1.64-1.42.05-.05.12-.08.2-.08s.12.03.12.1c0,.05-.01.1-.04.14-.31.4-.62.76-.94,1.08-.32.32-.66.59-1.03.82s-.76.4-1.19.52c-.43.12-.9.18-1.42.18-.43,0-.83-.07-1.2-.21-.37-.14-.7-.34-.98-.61-.28-.27-.5-.6-.66-1-.16-.4-.24-.86-.24-1.38Z"/>
        <path d="M111.34,30.84c.39-1.19.92-2.21,1.59-3.07.67-.86,1.41-1.57,2.2-2.13.79-.56,1.61-.97,2.46-1.24.85-.27,1.64-.4,2.39-.4.6,0,1.02.07,1.25.22.23.15.35.33.35.54s-.06.41-.19.59c-.13.18-.28.34-.47.47-.19.13-.39.24-.6.31-.21.07-.41.11-.6.11-.28,0-.54-.06-.78-.18-.24-.12-.46-.26-.67-.41s-.4-.29-.58-.41c-.18-.12-.34-.18-.49-.18-.32,0-.6.09-.85.28-.25.19-.48.46-.7.83-.22.37-.44.83-.65,1.38-.21.55-.45,1.2-.7,1.93l-2.66,7.58h.04c.19-.35.4-.76.65-1.23.25-.47.52-.96.83-1.46s.64-.99.99-1.48c.35-.49.72-.92,1.11-1.31s.79-.7,1.2-.93c.41-.23.83-.35,1.24-.35.61,0,1.12.18,1.53.55.41.37.61.98.61,1.83,0,.52-.08,1.08-.25,1.69-.17.61-.39,1.21-.68,1.81-.29.6-.63,1.18-1.02,1.75-.39.57-.81,1.06-1.26,1.49-.45.43-.91.77-1.4,1.03-.49.26-.97.39-1.45.39-.39,0-.7-.08-.93-.23s-.35-.35-.35-.59.1-.45.3-.64c.2-.19.42-.28.66-.28.17,0,.32.06.45.17.13.11.24.24.35.37.11.13.21.26.3.37s.2.17.32.17c.16,0,.33-.14.52-.43.19-.29.37-.66.56-1.11.19-.45.37-.96.54-1.51.17-.55.33-1.1.46-1.64.13-.54.24-1.04.32-1.49s.12-.81.12-1.06c0-.48-.08-.86-.24-1.15-.16-.29-.41-.43-.76-.43-.28,0-.61.19-1,.58-.39.39-.8.91-1.25,1.56-.45.65-.91,1.41-1.38,2.27-.47.86-.94,1.76-1.39,2.69l-.46,1.38c-.03.12-.09.21-.18.27-.09.06-.2.09-.32.09l-1.42-.14c-.21-.01-.36-.08-.44-.21-.08-.13-.09-.29-.02-.49l2.8-8.52Z"/>
        <path d="M120.24,37.16c0-.77.14-1.57.43-2.39.29-.82.69-1.57,1.2-2.25.51-.68,1.12-1.24,1.83-1.67.71-.43,1.48-.65,2.32-.65,1,0,1.77.27,2.32.82.55.55.82,1.32.82,2.32,0,.79-.14,1.59-.42,2.41-.28.82-.68,1.57-1.19,2.24s-1.12,1.22-1.83,1.65c-.71.43-1.49.64-2.34.64-.99,0-1.76-.27-2.31-.81s-.83-1.31-.83-2.31ZM122.78,37.88c0,.63.08,1.11.24,1.46.16.35.39.52.7.52.44,0,.84-.25,1.19-.76.35-.51.66-1.13.91-1.88.25-.75.45-1.54.59-2.39.14-.85.21-1.61.21-2.29,0-.6-.07-1.08-.22-1.44-.15-.36-.35-.54-.62-.54-.29,0-.57.12-.84.35-.27.23-.51.55-.73.94-.22.39-.42.84-.6,1.35s-.33,1.03-.45,1.58c-.12.55-.21,1.09-.28,1.62-.07.53-.1,1.03-.1,1.48Z"/>
        <path d="M131.04,33.84c0-.61.15-1.15.44-1.6.29-.45.67-.83,1.13-1.13s.97-.52,1.53-.67c.56-.15,1.1-.22,1.62-.22.76,0,1.35.09,1.78.27.43.18.64.48.64.91,0,.32-.09.56-.27.72-.18.16-.37.24-.57.24-.24,0-.43-.12-.58-.36-.03-.45-.16-.77-.41-.95-.25-.18-.56-.27-.93-.27-.25,0-.49.04-.72.12s-.43.19-.61.34-.32.33-.43.54c-.11.21-.16.45-.16.72,0,.2.05.38.16.55.11.17.24.32.41.46.17.14.35.27.55.38.2.11.39.23.58.35.2.13.4.27.6.41.2.14.38.3.55.47.17.17.3.37.4.58s.15.46.15.74c0,.67-.16,1.24-.49,1.73-.33.49-.75.89-1.26,1.2-.51.31-1.08.54-1.69.69-.61.15-1.2.22-1.76.22-.79,0-1.4-.1-1.85-.29-.45-.19-.67-.52-.67-.97,0-.16.03-.33.1-.52s.16-.36.28-.51c.12-.15.26-.28.41-.38.15-.1.32-.15.49-.15.21,0,.29.09.22.28s-.14.34-.21.45-.11.28-.11.51c0,.2.05.36.14.49.09.13.21.23.36.31.15.08.31.14.48.17s.35.05.52.05c.31,0,.6-.05.89-.14.29-.09.54-.23.76-.41.22-.18.4-.4.53-.66.13-.26.2-.55.2-.87,0-.21-.05-.4-.15-.57s-.23-.32-.38-.45c-.15-.13-.32-.26-.51-.37s-.37-.23-.56-.35c-.2-.12-.39-.25-.58-.38-.19-.13-.36-.28-.51-.45s-.28-.35-.37-.55c-.09-.2-.14-.43-.14-.68Z"/>
      </g>
    </g>
  </g>
</svg>