<?xml version="1.0" encoding="UTF-8"?>
<svg id="Capa_2" data-name="Capa 2" xmlns="http://www.w3.org/2000/svg" viewBox="0 0 145.14 40.88">
  <g id="Slide_3" data-name="Slide 3">
    <g id="Imagen_nichos" data-name="Imagen nichos">
      <g>
        <path d="M4.82,13.5c.51-1.72,1.08-3.36,1.73-4.92.65-1.56,1.4-2.93,2.25-4.11.85-1.18,1.83-2.12,2.94-2.82,1.11-.7,2.37-1.05,3.8-1.05.61,0,1.04.08,1.27.23s.35.34.35.55c0,.2-.06.39-.19.57-.13.18-.28.34-.47.47-.19.13-.39.24-.6.31-.21.07-.41.11-.6.11-.28,0-.54-.06-.78-.18-.24-.12-.46-.26-.67-.41s-.4-.29-.58-.41c-.18-.12-.34-.18-.49-.18-.32,0-.61.09-.86.27-.25.18-.49.45-.71.81-.22.36-.43.8-.63,1.33-.2.53-.41,1.14-.62,1.85-.37,1.25-.74,2.38-1.11,3.38s-.75,1.87-1.16,2.6c-.41.73-.85,1.34-1.32,1.81-.47.47-1.01.8-1.61.99.43.04.87.08,1.32.13s.89.09,1.31.12.81.06,1.17.08c.36.02.67.03.92.03,1.07,0,1.93-.06,2.59-.18s1.22-.3,1.67-.55c.45-.25.84-.56,1.15-.94.31-.38.65-.82,1.01-1.33.03-.04.06-.06.1-.06.07,0,.1.03.1.08v.06c-.25.55-.5,1.09-.75,1.64s-.54,1.04-.88,1.48c-.34.44-.75.8-1.24,1.07-.49.27-1.1.41-1.83.41-.47,0-1.07-.03-1.8-.08-.73-.05-1.52-.11-2.37-.18-.85-.07-1.72-.13-2.62-.18-.9-.05-1.76-.08-2.57-.08-.64,0-1.24.02-1.8.06h-.02c-.07,0-.12-.05-.16-.14-.04-.09-.06-.21-.06-.36,0-.12.01-.25.04-.39.03-.14.06-.27.1-.38s.09-.21.15-.29c.06-.08.12-.12.19-.12.27.01.6.06,1,.15.4.09.8.13,1.2.13.47,0,.9-.09,1.29-.28.39-.19.68-.55.85-1.1Z"/>
        <path d="M17.22,13.16c0-.77.14-1.57.43-2.39.29-.82.69-1.57,1.2-2.25.51-.68,1.12-1.24,1.83-1.67.71-.43,1.48-.65,2.32-.65,1,0,1.77.27,2.32.82.55.55.82,1.32.82,2.32,0,.79-.14,1.59-.42,2.41-.28.82-.68,1.57-1.19,2.24s-1.12,1.22-1.83,1.65c-.71.43-1.49.64-2.34.64-.99,0-1.76-.27-2.31-.81s-.83-1.31-.83-2.31ZM19.76,13.88c0,.63.08,1.11.24,1.46.16.35.39.52.7.52.44,0,.84-.25,1.19-.76.35-.51.66-1.13.91-1.88.25-.75.45-1.54.59-2.39.14-.85.21-1.61.21-2.29,0-.6-.07-1.08-.22-1.44-.15-.36-.35-.54-.62-.54-.29,0-.57.12-.84.35-.27.23-.51.55-.73.94-.22.39-.42.84-.6,1.35s-.33,1.03-.45,1.58c-.12.55-.21,1.09-.28,1.62-.07.53-.1,1.03-.1,1.48Z"/>
        <path d="M29.34,7.22h-1.26c-.11,0-.12-.04-.04-.12l.4-.5c.11-.08.21-.12.3-.12h.84l.54-1.42c.31-.15.64-.37,1.01-.67.37-.3.7-.62,1.01-.97.31,0,.51.04.62.13.11.09.13.25.06.49l-.8,2.44h2.48c.09,0,.11.05.06.14l-.24.46c-.08.09-.18.14-.3.14h-2.26l-1.64,5.06c-.11.32-.19.63-.24.93s-.08.57-.08.81c0,.27.04.49.13.66.09.17.23.26.43.26.16,0,.32-.07.49-.2.17-.13.34-.31.53-.53.19-.22.39-.47.6-.76.21-.29.44-.58.68-.87.07-.07.12-.1.17-.1s.08.02.1.05.03.07.04.11,0,.07,0,.1c-.32.48-.64.94-.95,1.37-.31.43-.63.81-.95,1.13-.32.32-.66.58-1.01.77-.35.19-.73.29-1.13.29-1.16,0-1.74-.63-1.74-1.88,0-.35.05-.73.14-1.16.09-.43.23-.91.42-1.44l1.6-4.6Z"/>
        <path d="M33.2,13.44c0-.88.18-1.75.53-2.61.35-.86.83-1.63,1.43-2.31.6-.68,1.3-1.23,2.11-1.65.81-.42,1.66-.63,2.57-.63.76,0,1.37.14,1.82.43.45.29.68.68.68,1.17,0,.39-.1.73-.3,1.02-.2.29-.47.55-.8.78-.33.23-.71.42-1.13.59-.42.17-.86.31-1.31.43s-.9.22-1.33.3c-.43.08-.83.15-1.19.22-.16.48-.28.93-.37,1.36-.09.43-.13.79-.13,1.1,0,.55.11.97.34,1.28.23.31.58.46,1.06.46.31,0,.62-.07.95-.22s.64-.35.95-.6c.31-.25.6-.54.87-.86.27-.32.52-.65.73-.98.03-.03.06-.06.1-.09s.09-.05.16-.05c.08,0,.12.03.12.08,0,.04-.02.09-.06.16-.25.39-.54.79-.86,1.2-.32.41-.69.79-1.1,1.12-.41.33-.87.61-1.36.82-.49.21-1.03.32-1.62.32-.88,0-1.58-.25-2.09-.75-.51-.5-.77-1.2-.77-2.09ZM36.42,10.76c.44-.13.89-.29,1.36-.47s.89-.4,1.27-.67c.38-.27.69-.59.94-.96s.37-.82.37-1.34c0-.45-.23-.68-.7-.68-.32,0-.64.12-.95.36-.31.24-.61.56-.89.95-.28.39-.54.83-.77,1.32-.23.49-.44.98-.63,1.49Z"/>
        <path d="M55.12,4.38c-.09-.28-.21-.52-.36-.72-.15-.2-.34-.37-.58-.5-.24-.13-.54-.24-.9-.31-.36-.07-.8-.11-1.32-.11-.12,0-.16-.05-.12-.16.04-.11.11-.16.22-.16.25-.03.53-.06.82-.11s.6-.1.91-.15c.31-.05.63-.1.96-.13s.64-.05.93-.05.6.02.88.07c.28.05.53.14.74.27.21.13.39.31.54.53.15.22.25.5.3.85l1.34,9.24h.04l8.84-9.58c1.04-1.12,2.15-1.96,3.33-2.52,1.18-.56,2.3-.84,3.37-.84.6,0,1.02.07,1.25.22.23.15.35.33.35.56,0,.2-.06.39-.19.57-.13.18-.28.34-.46.47-.18.13-.38.24-.59.31s-.41.11-.6.11c-.28,0-.54-.06-.78-.18-.24-.12-.46-.26-.67-.41-.21-.15-.4-.29-.58-.41s-.34-.18-.49-.18c-.32,0-.6.09-.85.28-.25.19-.48.46-.71.83-.23.37-.45.83-.67,1.38-.22.55-.45,1.2-.69,1.93l-2.12,6.44c-.19.56-.32,1.03-.41,1.42-.09.39-.13.7-.13.94,0,.44.15.66.46.66.16,0,.33-.06.5-.19.17-.13.36-.3.55-.52.19-.22.4-.47.61-.76.21-.29.44-.58.68-.89.03-.04.08-.03.16.02.08.05.11.1.08.14-.32.48-.63.94-.94,1.37-.31.43-.62.81-.94,1.13-.32.32-.66.58-1.01.77-.35.19-.73.29-1.13.29-.51,0-.89-.17-1.14-.5-.25-.33-.38-.8-.38-1.4,0-.71.17-1.57.52-2.6l1.78-5.3h-.04l-8.26,9.32c-.13.19-.29.28-.48.28h-.48c-.17,0-.29-.09-.34-.28l-1.54-10.36h-.04l-2.26,5.38c-.51,1.23-1.03,2.23-1.56,3.01-.53.78-1.09,1.4-1.68,1.85-.59.45-1.21.76-1.86.93s-1.35.25-2.1.25c-.6,0-1.03-.11-1.29-.34-.26-.23-.39-.48-.39-.76s.11-.56.34-.79c.23-.23.52-.35.88-.35.32,0,.6.04.83.11s.45.15.66.23c.21.08.41.16.6.23.19.07.41.11.65.11.79,0,1.54-.42,2.26-1.27.72-.85,1.47-2.18,2.26-3.99l2.44-5.68Z"/>
        <path d="M70.04,13.44c0-.88.18-1.75.53-2.61.35-.86.83-1.63,1.43-2.31.6-.68,1.3-1.23,2.11-1.65.81-.42,1.66-.63,2.57-.63.76,0,1.37.14,1.82.43.45.29.68.68.68,1.17,0,.39-.1.73-.3,1.02-.2.29-.47.55-.8.78-.33.23-.71.42-1.13.59-.42.17-.86.31-1.31.43s-.9.22-1.33.3c-.43.08-.83.15-1.19.22-.16.48-.28.93-.37,1.36-.09.43-.13.79-.13,1.1,0,.55.11.97.34,1.28.23.31.58.46,1.06.46.31,0,.62-.07.95-.22s.64-.35.95-.6c.31-.25.6-.54.87-.86.27-.32.52-.65.73-.98.03-.03.06-.06.1-.09s.09-.05.16-.05c.08,0,.12.03.12.08,0,.04-.02.09-.06.16-.25.39-.54.79-.86,1.2-.32.41-.69.79-1.1,1.12-.41.33-.87.61-1.36.82-.49.21-1.03.32-1.62.32-.88,0-1.58-.25-2.09-.75-.51-.5-.77-1.2-.77-2.09ZM73.26,10.76c.44-.13.89-.29,1.36-.47s.89-.4,1.27-.67c.38-.27.69-.59.94-.96s.37-.82.37-1.34c0-.45-.23-.68-.7-.68-.32,0-.64.12-.95.36-.31.24-.61.56-.89.95-.28.39-.54.83-.77,1.32-.23.49-.44.98-.63,1.49Z"/>
        <path d="M81.22,9.02c.07-.19.12-.35.16-.5.04-.15.06-.29.06-.42,0-.23-.1-.39-.29-.5-.19-.11-.51-.16-.95-.16-.07,0-.1-.03-.1-.08.01-.05.04-.11.08-.16s.09-.08.14-.08c.79-.11,1.49-.22,2.1-.33.61-.11,1.23-.26,1.84-.45.08-.03.15-.04.22-.04.13,0,.18.07.14.2l-1.92,5.66h.06c.36-.69.7-1.39,1.02-2.09s.65-1.33.99-1.9c.34-.57.71-1.03,1.11-1.39.4-.36.87-.54,1.4-.54.24,0,.47.03.69.08.22.05.41.15.57.28.16.13.29.31.39.54.1.23.15.52.15.88,0,.56-.15,1.3-.44,2.22l-.64,1.92h.08c.36-.69.7-1.39,1.01-2.09.31-.7.64-1.33.98-1.9.34-.57.71-1.03,1.11-1.39.4-.36.87-.54,1.4-.54.24,0,.47.03.69.08.22.05.41.14.57.27.16.13.29.31.39.54.1.23.15.53.15.89,0,.56-.15,1.3-.44,2.22l-.66,2.04c-.13.39-.24.75-.32,1.1-.08.35-.12.65-.12.9,0,.21.03.38.09.49s.18.17.35.17c.16,0,.33-.07.5-.2s.35-.31.54-.53c.19-.22.38-.47.59-.76s.44-.58.69-.87c.07-.07.12-.1.16-.1.07,0,.11.04.13.11s.02.12,0,.15c-.32.48-.63.94-.94,1.37-.31.43-.62.81-.95,1.13s-.67.58-1.02.77c-.35.19-.73.29-1.13.29-.56,0-.96-.14-1.21-.42-.25-.28-.37-.7-.37-1.26,0-.72.2-1.66.6-2.82l.52-1.5c.21-.61.37-1.11.46-1.49.09-.38.14-.68.14-.91s-.04-.38-.13-.47c-.09-.09-.2-.13-.35-.13-.16,0-.35.13-.57.38-.22.25-.46.59-.71,1-.25.41-.52.89-.79,1.42-.27.53-.54,1.08-.81,1.64-.27.56-.52,1.12-.77,1.67-.25.55-.47,1.05-.67,1.49l-.3.94c-.09.27-.27.39-.52.36l-1.36-.14c-.21-.03-.36-.11-.45-.24-.09-.13-.1-.3-.03-.5l1.56-5.02c.19-.63.33-1.13.43-1.52s.15-.69.15-.92c0-.21-.04-.36-.13-.44-.09-.08-.2-.12-.33-.12-.16,0-.35.13-.57.38-.22.25-.46.59-.71,1.01-.25.42-.52.9-.79,1.43-.27.53-.54,1.08-.81,1.65-.27.57-.52,1.13-.77,1.68-.25.55-.47,1.05-.67,1.49l-.3.9c-.09.27-.27.39-.52.36l-1.4-.14c-.21-.03-.36-.11-.45-.24-.09-.13-.1-.29-.03-.48l2.04-6.32Z"/>
        <path d="M96.12,13.16c0-.77.14-1.57.43-2.39.29-.82.69-1.57,1.2-2.25.51-.68,1.12-1.24,1.83-1.67.71-.43,1.48-.65,2.32-.65,1,0,1.77.27,2.32.82.55.55.82,1.32.82,2.32,0,.79-.14,1.59-.42,2.41-.28.82-.68,1.57-1.19,2.24s-1.12,1.22-1.83,1.65c-.71.43-1.49.64-2.34.64-.99,0-1.76-.27-2.31-.81s-.83-1.31-.83-2.31ZM98.66,13.88c0,.63.08,1.11.24,1.46.16.35.39.52.7.52.44,0,.84-.25,1.19-.76.35-.51.66-1.13.91-1.88.25-.75.45-1.54.59-2.39.14-.85.21-1.61.21-2.29,0-.6-.07-1.08-.22-1.44-.15-.36-.35-.54-.62-.54-.29,0-.57.12-.84.35-.27.23-.51.55-.73.94-.22.39-.42.84-.6,1.35s-.33,1.03-.45,1.58c-.12.55-.21,1.09-.28,1.62-.07.53-.1,1.03-.1,1.48Z"/>
        <path d="M107.72,9c.13-.36.2-.65.2-.88,0-.27-.1-.45-.31-.55-.21-.1-.5-.16-.89-.17-.09,0-.13-.04-.1-.12.04-.09.11-.15.2-.18.8-.09,1.49-.2,2.06-.32.57-.12,1.17-.27,1.78-.46.08-.03.15-.04.22-.04.13,0,.18.07.14.2l-1.34,4.22h.08c.2-.37.45-.82.75-1.33.3-.51.64-1.01,1.02-1.48.38-.47.81-.87,1.29-1.2.48-.33,1-.49,1.56-.49.32,0,.55.07.7.21.15.14.22.31.22.51,0,.16-.04.32-.12.48s-.19.31-.33.45c-.14.14-.31.25-.52.34s-.44.13-.69.13c-.44,0-.85.08-1.24.24-.39.16-.75.37-1.09.64-.34.27-.65.58-.94.95-.29.37-.56.76-.81,1.17l-1.5,4.5c-.04.12-.11.22-.2.29-.09.07-.2.1-.32.09l-1.4-.14c-.21-.03-.36-.11-.44-.25-.08-.14-.09-.31-.02-.51l2.04-6.3Z"/>
        <path d="M116.48,8.98c.09-.28.14-.53.14-.74,0-.33-.11-.56-.32-.68-.21-.12-.47-.18-.76-.18-.08,0-.12-.03-.12-.1,0-.11.07-.17.2-.2.43-.05.81-.11,1.15-.16.34-.05.67-.11.98-.17.31-.06.61-.13.9-.2s.58-.16.89-.25c.05-.03.13-.04.22-.04.12,0,.16.07.12.2l-1.9,5.82c-.11.39-.21.75-.3,1.1-.09.35-.14.65-.14.9,0,.2.04.36.11.48s.19.18.35.18.33-.07.5-.2.35-.31.54-.53c.19-.22.39-.47.6-.76.21-.29.44-.58.68-.87.09-.07.15-.1.16-.1.07,0,.11.04.14.11.03.07.03.12,0,.15-.32.48-.64.94-.95,1.37s-.63.81-.95,1.13c-.32.32-.66.58-1.01.77-.35.19-.73.29-1.13.29-.56,0-.96-.14-1.21-.42-.25-.28-.37-.7-.37-1.26,0-.69.19-1.63.58-2.82l.9-2.82ZM117.62,3.78c.24-.27.46-.54.66-.82.2-.28.4-.53.61-.75.21-.22.43-.4.66-.54.23-.14.5-.21.79-.21.37,0,.67.09.88.28.21.19.32.43.32.74s-.11.61-.32.87c-.21.26-.48.48-.79.67-.31.19-.65.33-1.01.43-.36.1-.69.15-.98.15-.27,0-.49-.04-.67-.12s-.27-.21-.27-.4c0-.08.04-.18.12-.3Z"/>
        <path d="M120.64,13.76c0-.87.17-1.74.51-2.63.34-.89.81-1.69,1.41-2.41.6-.72,1.31-1.31,2.12-1.77.81-.46,1.69-.69,2.64-.69.6,0,1.08.09,1.43.26.35.17.64.43.87.78h.04c.13-.11.29-.24.48-.39.19-.15.36-.3.52-.45.15-.12.32-.18.52-.18h.22c.15,0,.22.05.22.16,0,.03,0,.07-.02.12l-1.86,5.72c-.29.88-.45,1.44-.46,1.68s-.02.37-.02.4c0,.39.17.58.52.58.16,0,.33-.07.5-.2s.36-.31.55-.53c.19-.22.39-.47.6-.76.21-.29.43-.58.67-.87.03-.03.05-.04.08-.04.04,0,.09.02.14.06.05.04.08.07.08.1,0,.01,0,.03-.02.04-.32.48-.63.94-.94,1.37s-.62.81-.95,1.14-.67.58-1.02.77c-.35.19-.73.28-1.13.28-.77,0-1.16-.46-1.16-1.38,0-.56.14-1.29.42-2.18l.78-2.1h-.04c-.87,1.83-1.7,3.22-2.51,4.17-.81.95-1.63,1.43-2.47,1.43s-1.47-.19-1.97-.58-.75-1.02-.75-1.9ZM123.1,14.26c0,.47.09.79.28.96.19.17.41.26.66.26.56,0,1.22-.51,1.97-1.53.75-1.02,1.52-2.45,2.31-4.29l.3-.96c.05-.27.08-.5.08-.7,0-.27-.06-.53-.19-.8-.13-.27-.43-.4-.91-.4-.41,0-.81.13-1.2.4s-.75.62-1.08,1.05c-.33.43-.64.92-.91,1.46-.27.54-.51,1.09-.7,1.64-.19.55-.34,1.09-.45,1.6-.11.51-.16.95-.16,1.31Z"/>
        <path d="M134.88,6.86c.4-1.17.94-2.19,1.61-3.05.67-.86,1.41-1.57,2.2-2.14.79-.57,1.61-.99,2.46-1.26.85-.27,1.64-.41,2.39-.41.6,0,1.02.07,1.25.22.23.15.35.33.35.56,0,.2-.05.39-.16.57-.11.18-.25.34-.42.47-.17.13-.37.24-.6.31-.23.07-.45.11-.68.11-.28,0-.54-.06-.78-.18-.24-.12-.46-.26-.67-.41s-.4-.29-.58-.41c-.18-.12-.34-.18-.49-.18-.32,0-.61.09-.86.28-.25.19-.49.46-.71.83-.22.37-.44.83-.65,1.38-.21.55-.44,1.2-.68,1.93l-2.12,6.44c-.37,1.11-.56,1.89-.56,2.36,0,.44.16.66.48.66.16,0,.33-.06.5-.19s.35-.3.54-.52c.19-.22.39-.47.6-.76.21-.29.44-.58.68-.89.07-.07.14-.07.21,0,.07.06.09.12.05.17-.32.48-.63.94-.94,1.37-.31.43-.62.81-.94,1.13-.32.32-.66.58-1.01.77-.35.19-.73.29-1.13.29-.51,0-.89-.17-1.14-.5s-.38-.8-.38-1.4c0-.71.17-1.57.52-2.6l1.66-4.94Z"/>
        <path d="M91.66,28.38c-.09-.28-.21-.52-.36-.72-.15-.2-.34-.37-.58-.5-.24-.13-.54-.24-.9-.31-.36-.07-.8-.11-1.32-.11-.12,0-.16-.05-.12-.16.04-.11.11-.16.22-.16.25-.03.53-.06.82-.11s.6-.1.91-.15c.31-.05.63-.1.96-.13s.64-.05.93-.05.6.02.88.07c.28.05.53.14.74.27.21.13.39.31.54.53.15.22.25.5.3.85l1.34,9.24h.04l8.84-9.58c1.04-1.12,2.15-1.96,3.33-2.52,1.18-.56,2.3-.84,3.37-.84.6,0,1.02.07,1.25.22.23.15.35.33.35.56,0,.2-.06.39-.19.57-.13.18-.28.34-.46.47-.18.13-.38.24-.59.31s-.41.11-.6.11c-.28,0-.54-.06-.78-.18-.24-.12-.46-.26-.67-.41-.21-.15-.4-.29-.58-.41s-.34-.18-.49-.18c-.32,0-.6.09-.85.28-.25.19-.48.46-.71.83-.23.37-.45.83-.67,1.38-.22.55-.45,1.2-.69,1.93l-2.12,6.44c-.19.56-.32,1.03-.41,1.42-.09.39-.13.7-.13.94,0,.44.15.66.46.66.16,0,.33-.06.5-.19.17-.13.36-.3.55-.52.19-.22.4-.47.61-.76.21-.29.44-.58.68-.89.03-.04.08-.03.16.02.08.05.11.1.08.14-.32.48-.63.94-.94,1.37-.31.43-.62.81-.94,1.13-.32.32-.66.58-1.01.77-.35.19-.73.29-1.13.29-.51,0-.89-.17-1.14-.5-.25-.33-.38-.8-.38-1.4,0-.71.17-1.57.52-2.6l1.78-5.3h-.04l-8.26,9.32c-.13.19-.29.28-.48.28h-.48c-.17,0-.29-.09-.34-.28l-1.54-10.36h-.04l-2.26,5.38c-.51,1.23-1.03,2.23-1.56,3.01-.53.78-1.09,1.4-1.68,1.85-.59.45-1.21.76-1.86.93s-1.35.25-2.1.25c-.6,0-1.03-.11-1.29-.34-.26-.23-.39-.48-.39-.76s.11-.56.34-.79c.23-.23.52-.35.88-.35.32,0,.6.04.83.11s.45.15.66.23c.21.08.41.16.6.23.19.07.41.11.65.11.79,0,1.54-.42,2.26-1.27.72-.85,1.47-2.18,2.26-3.99l2.44-5.68Z"/>
        <path d="M108.82,32.98c.09-.28.14-.53.14-.74,0-.33-.11-.56-.33-.68-.22-.12-.48-.18-.77-.18-.08,0-.12-.03-.12-.1,0-.11.07-.17.22-.2.43-.05.81-.11,1.15-.16.34-.05.67-.11.98-.17.31-.06.61-.13.9-.2s.58-.16.87-.25c.08-.03.15-.04.22-.04.12,0,.16.07.12.2l-1.88,5.82c-.12.39-.23.75-.32,1.1-.09.35-.14.65-.14.9,0,.2.04.36.11.48s.2.18.37.18c.16,0,.32-.07.49-.2.17-.13.34-.31.53-.53.19-.22.39-.47.6-.76.21-.29.45-.58.7-.87.07-.07.12-.1.16-.1.07,0,.11.04.13.11s.02.12,0,.15c-.32.48-.64.94-.95,1.37s-.63.81-.95,1.13c-.32.32-.66.58-1.01.77-.35.19-.73.29-1.13.29-.56,0-.96-.14-1.21-.42-.25-.28-.37-.7-.37-1.26,0-.35.05-.76.15-1.23.1-.47.24-1,.43-1.59l.92-2.82Z"/>
        <path d="M115.86,37h-.04c-.2.41-.42.82-.65,1.21-.23.39-.49.74-.77,1.04-.28.3-.59.54-.93.72-.34.18-.72.27-1.13.27-.17,0-.36-.02-.57-.06-.21-.04-.31-.13-.31-.28,0-.05.02-.09.06-.12s.07-.04.1-.04h.04c.07.01.13.02.2.03.07,0,.13,0,.2,0,.44,0,.84-.11,1.21-.32.37-.21.7-.49,1.01-.83s.59-.73.85-1.17c.26-.44.51-.89.75-1.34l.08-2.98v-.34c0-.47-.05-.84-.16-1.13-.11-.29-.34-.43-.7-.43-.21,0-.53.09-.94.26-.08,0-.12-.03-.12-.08,0-.03,0-.05.02-.08.03-.05.06-.09.09-.11.03-.02.08-.04.13-.07.37-.23.76-.42,1.17-.57s.8-.23,1.17-.23c.27,0,.52.04.75.13s.43.23.59.44c.16.21.27.46.33.75.06.29.09.59.09.88,0,.17,0,.35-.02.54l-.02.46h.04c.2-.39.42-.78.67-1.17.25-.39.52-.75.81-1.06.29-.31.61-.57.94-.77.33-.2.69-.3,1.06-.3.28,0,.47.05.58.15.11.1.16.2.16.31,0,.09-.03.18-.08.25-.05.07-.13.12-.22.13-.47,0-.89.07-1.26.22-.37.15-.72.36-1.03.64-.31.28-.61.64-.89,1.07-.28.43-.56.94-.84,1.53l-.06,2v.38c0,.19,0,.39.02.62s.05.45.1.67c.05.22.13.39.22.52.09.13.22.19.38.19.33,0,.7-.23,1.09-.68.39-.45.84-1.01,1.33-1.68.07-.07.12-.1.16-.1.11,0,.16.07.16.2,0,.03-.01.05-.04.08-.32.48-.63.93-.92,1.36s-.59.8-.89,1.13c-.3.33-.62.58-.95.77-.33.19-.7.28-1.1.28-.64,0-1.12-.25-1.44-.74s-.48-1.13-.48-1.92v-.64Z"/>
        <path d="M125.06,31.22h-1.26c-.11,0-.12-.04-.04-.12l.4-.5c.11-.08.21-.12.3-.12h.84l.54-1.42c.31-.15.64-.37,1.01-.67.37-.3.7-.62,1.01-.97.31,0,.51.04.62.13.11.09.13.25.06.49l-.8,2.44h2.48c.09,0,.11.05.06.14l-.24.46c-.08.09-.18.14-.3.14h-2.26l-1.64,5.06c-.11.32-.19.63-.24.93s-.08.57-.08.81c0,.27.04.49.13.66.09.17.23.26.43.26.16,0,.32-.07.49-.2.17-.13.34-.31.53-.53.19-.22.39-.47.6-.76.21-.29.44-.58.68-.87.07-.07.12-.1.17-.1s.08.02.1.05.03.07.04.11,0,.07,0,.1c-.32.48-.64.94-.95,1.37-.31.43-.63.81-.95,1.13-.32.32-.66.58-1.01.77-.35.19-.73.29-1.13.29-1.16,0-1.74-.63-1.74-1.88,0-.35.05-.73.14-1.16.09-.43.23-.91.42-1.44l1.6-4.6Z"/>
        <path d="M129.04,37.16c0-.77.14-1.57.43-2.39.29-.82.69-1.57,1.2-2.25.51-.68,1.12-1.24,1.83-1.67.71-.43,1.48-.65,2.32-.65,1,0,1.77.27,2.32.82.55.55.82,1.32.82,2.32,0,.79-.14,1.59-.42,2.41-.28.82-.68,1.57-1.19,2.24s-1.12,1.22-1.83,1.65c-.71.43-1.49.64-2.34.64-.99,0-1.76-.27-2.31-.81s-.83-1.31-.83-2.31ZM131.58,37.88c0,.63.08,1.11.24,1.46.16.35.39.52.7.52.44,0,.84-.25,1.19-.76.35-.51.66-1.13.91-1.88.25-.75.45-1.54.59-2.39.14-.85.21-1.61.21-2.29,0-.6-.07-1.08-.22-1.44-.15-.36-.35-.54-.62-.54-.29,0-.57.12-.84.35-.27.23-.51.55-.73.94-.22.39-.42.84-.6,1.35s-.33,1.03-.45,1.58c-.12.55-.21,1.09-.28,1.62-.07.53-.1,1.03-.1,1.48Z"/>
      </g>
    </g>
  </g>
</svg>