<?xml version="1.0" encoding="UTF-8"?>
<svg id="Capa_2" data-name="Capa 2" xmlns="http://www.w3.org/2000/svg" viewBox="0 0 78.33 40.32">
  <g id="Slide_3" data-name="Slide 3">
    <g id="Imagen_nichos" data-name="Imagen nichos">
      <g>
        <path d="M24.24,4.64c-.12-.28-.25-.54-.38-.77-.13-.23-.31-.43-.53-.6-.22-.17-.5-.3-.84-.39s-.78-.14-1.33-.14c-.11,0-.14-.05-.1-.16.04-.11.11-.16.22-.16.48-.05,1.02-.14,1.63-.26.61-.12,1.2-.18,1.77-.18.31,0,.6.03.88.08.28.05.54.15.77.28.23.13.44.31.62.53.18.22.32.5.41.83l2.56,8.56h.04c.07-.2.16-.47.28-.82.12-.35.25-.73.39-1.14s.29-.85.45-1.3c.16-.45.31-.88.46-1.29.15-.41.28-.77.4-1.1.12-.33.21-.58.26-.75.43-1.21.87-2.2,1.34-2.96.47-.76.96-1.36,1.48-1.79s1.08-.73,1.67-.88c.59-.15,1.22-.23,1.89-.23.53,0,.92.09,1.15.28.23.19.35.4.35.64,0,.19-.05.36-.15.52-.1.16-.23.3-.38.42-.15.12-.32.21-.51.28-.19.07-.37.1-.54.1-.28,0-.54-.06-.77-.18-.23-.12-.45-.26-.65-.41-.2-.15-.39-.29-.56-.41-.17-.12-.33-.18-.48-.18-.32,0-.61.09-.86.28-.25.19-.49.46-.71.83-.22.37-.44.83-.67,1.38-.23.55-.47,1.2-.74,1.93l-2.22,6.12c-.11.27-.19.56-.26.87-.07.31-.1.61-.1.89,0,.31.04.59.12.84.08.25.17.48.26.68.09.2.18.37.26.51.08.14.12.25.12.33,0,.05-.06.12-.17.2s-.26.15-.43.22-.36.12-.55.17c-.19.05-.37.07-.53.07-.28,0-.52-.05-.73-.15-.21-.1-.39-.25-.55-.44s-.3-.43-.43-.71c-.13-.28-.26-.61-.39-.98l-2.86-8.64h-.04l-2.26,5.38c-.51,1.21-1.03,2.21-1.57,2.99-.54.78-1.1,1.4-1.69,1.85-.59.45-1.2.77-1.85.94-.65.17-1.34.26-2.09.26-.61,0-1.05-.11-1.31-.34-.26-.23-.39-.49-.39-.78,0-.32.12-.59.37-.8s.54-.32.87-.32.6.04.83.11c.23.07.45.15.66.23.21.08.41.16.6.23.19.07.4.11.63.11.79,0,1.54-.42,2.27-1.27.73-.85,1.48-2.18,2.25-3.99l2.36-5.42Z"/>
        <path d="M35.66,8.98c.09-.28.14-.53.14-.74,0-.33-.11-.56-.33-.68s-.48-.18-.77-.18c-.08,0-.12-.03-.12-.1,0-.11.07-.17.22-.2.43-.05.81-.11,1.15-.16.34-.05.67-.11.98-.17.31-.06.61-.13.9-.2.29-.07.58-.16.87-.25.08-.03.15-.04.22-.04.12,0,.16.07.12.2l-1.88,5.82c-.12.39-.23.75-.32,1.1-.09.35-.14.65-.14.9,0,.2.04.36.11.48.07.12.2.18.37.18.16,0,.32-.07.49-.2.17-.13.34-.31.53-.53.19-.22.39-.47.6-.76.21-.29.45-.58.7-.87.07-.07.12-.1.16-.1.07,0,.11.04.13.11.02.07.02.12,0,.15-.32.48-.64.94-.95,1.37s-.63.81-.95,1.13c-.32.32-.66.58-1.01.77-.35.19-.73.29-1.13.29-.56,0-.96-.14-1.21-.42-.25-.28-.37-.7-.37-1.26,0-.35.05-.76.15-1.23s.24-1,.43-1.59l.92-2.82Z"/>
        <path d="M40.09,13.08c0-.89.17-1.75.52-2.58.35-.83.82-1.56,1.41-2.19.59-.63,1.29-1.14,2.09-1.52.8-.38,1.66-.57,2.58-.57s1.5.14,1.85.41c.35.27.53.57.53.89,0,.27-.09.5-.27.71-.18.21-.41.31-.69.31-.17,0-.31-.05-.4-.14s-.16-.21-.21-.35c-.05-.14-.09-.29-.12-.46-.03-.17-.08-.32-.15-.46-.07-.14-.16-.26-.27-.35-.11-.09-.28-.14-.49-.14-.57,0-1.09.21-1.56.63-.47.42-.86.95-1.18,1.58-.32.63-.57,1.32-.74,2.07-.17.75-.26,1.45-.26,2.12,0,1.56.5,2.34,1.5,2.34.53,0,1.07-.15,1.6-.44.53-.29,1.08-.77,1.64-1.42.05-.05.12-.08.2-.08s.12.03.12.1c0,.05-.01.1-.04.14-.31.4-.62.76-.94,1.08-.32.32-.66.59-1.03.82s-.76.4-1.19.52c-.43.12-.9.18-1.42.18-.43,0-.83-.07-1.2-.21-.37-.14-.7-.34-.98-.61-.28-.27-.5-.6-.66-1-.16-.4-.24-.86-.24-1.38Z"/>
        <path d="M51.49,6.84c.39-1.19.92-2.21,1.59-3.07.67-.86,1.41-1.57,2.2-2.13.79-.56,1.61-.97,2.46-1.24.85-.27,1.64-.4,2.39-.4.6,0,1.02.07,1.25.22.23.15.35.33.35.54s-.06.41-.19.59c-.13.18-.28.34-.47.47-.19.13-.39.24-.6.31-.21.07-.41.11-.6.11-.28,0-.54-.06-.78-.18-.24-.12-.46-.26-.67-.41-.21-.15-.4-.29-.58-.41-.18-.12-.34-.18-.49-.18-.32,0-.6.09-.85.28-.25.19-.48.46-.7.83-.22.37-.44.83-.65,1.38s-.45,1.2-.7,1.93l-2.66,7.58h.04c.19-.35.4-.76.65-1.23.25-.47.52-.96.83-1.46s.64-.99.99-1.48c.35-.49.72-.92,1.11-1.31s.79-.7,1.2-.93c.41-.23.83-.35,1.24-.35.61,0,1.12.18,1.53.55.41.37.61.98.61,1.83,0,.52-.08,1.08-.25,1.69-.17.61-.39,1.21-.68,1.81-.29.6-.63,1.18-1.02,1.75-.39.57-.81,1.06-1.26,1.49-.45.43-.91.77-1.4,1.03-.49.26-.97.39-1.45.39-.39,0-.7-.08-.93-.23-.23-.15-.35-.35-.35-.59s.1-.45.3-.64c.2-.19.42-.28.66-.28.17,0,.32.06.45.17.13.11.24.24.35.37.11.13.21.26.3.37s.2.17.32.17c.16,0,.33-.14.52-.43.19-.29.37-.66.56-1.11.19-.45.37-.96.54-1.51s.33-1.1.46-1.64c.13-.54.24-1.04.32-1.49s.12-.81.12-1.06c0-.48-.08-.86-.24-1.15s-.41-.43-.76-.43c-.28,0-.61.19-1,.58-.39.39-.8.91-1.25,1.56-.45.65-.91,1.41-1.38,2.27-.47.86-.94,1.76-1.39,2.69l-.46,1.38c-.03.12-.09.21-.18.27-.09.06-.2.09-.32.09l-1.42-.14c-.21-.01-.36-.08-.44-.21-.08-.12-.09-.29-.02-.49l2.8-8.52Z"/>
        <path d="M60.39,13.16c0-.77.14-1.57.43-2.39.29-.82.69-1.57,1.2-2.25.51-.68,1.12-1.24,1.83-1.67.71-.43,1.48-.65,2.32-.65,1,0,1.77.27,2.32.82.55.55.82,1.32.82,2.32,0,.79-.14,1.59-.42,2.41-.28.82-.68,1.57-1.19,2.24-.51.67-1.12,1.22-1.83,1.65-.71.43-1.49.64-2.34.64-.99,0-1.76-.27-2.31-.81-.55-.54-.83-1.31-.83-2.31ZM62.93,13.88c0,.63.08,1.11.24,1.46.16.35.39.52.7.52.44,0,.84-.25,1.19-.76.35-.51.66-1.13.91-1.88s.45-1.54.59-2.39c.14-.85.21-1.61.21-2.29,0-.6-.07-1.08-.22-1.44-.15-.36-.35-.54-.62-.54-.29,0-.57.12-.84.35-.27.23-.51.55-.73.94-.22.39-.42.84-.6,1.35-.18.51-.33,1.03-.45,1.58-.12.55-.21,1.09-.28,1.62-.07.53-.1,1.03-.1,1.48Z"/>
        <path d="M71.2,9.84c0-.61.15-1.15.44-1.6.29-.45.67-.83,1.13-1.13.46-.3.97-.52,1.53-.67.56-.15,1.1-.22,1.62-.22.76,0,1.35.09,1.78.27.43.18.64.48.64.91,0,.32-.09.56-.27.72-.18.16-.37.24-.57.24-.24,0-.43-.12-.58-.36-.03-.45-.16-.77-.41-.95-.25-.18-.56-.27-.93-.27-.25,0-.49.04-.72.12s-.43.19-.61.34-.32.33-.43.54c-.11.21-.16.45-.16.72,0,.2.05.38.16.55.11.17.24.32.41.46.17.14.35.27.55.38.2.11.39.23.58.35.2.13.4.27.6.41.2.14.38.3.55.47.17.17.3.37.4.58s.15.46.15.74c0,.67-.16,1.24-.49,1.73-.33.49-.75.89-1.26,1.2-.51.31-1.08.54-1.69.69s-1.2.22-1.76.22c-.79,0-1.4-.1-1.85-.29-.45-.19-.67-.52-.67-.97,0-.16.03-.33.1-.52.07-.19.16-.36.28-.51.12-.15.26-.28.41-.38.15-.1.32-.15.49-.15.21,0,.29.09.22.28-.07.19-.14.34-.21.45s-.11.28-.11.51c0,.2.05.36.14.49.09.13.21.23.36.31.15.08.31.14.48.17s.35.05.52.05c.31,0,.6-.05.89-.14.29-.09.54-.23.76-.41.22-.18.4-.4.53-.66.13-.26.2-.55.2-.87,0-.21-.05-.4-.15-.57-.1-.17-.23-.32-.38-.45-.15-.13-.32-.26-.51-.37s-.37-.23-.56-.35c-.2-.12-.39-.25-.58-.38-.19-.13-.36-.28-.51-.45-.15-.17-.28-.35-.37-.55-.09-.2-.14-.43-.14-.68Z"/>
        <path d="M2.76,30.46c0-.8.21-1.49.62-2.07s.93-1.06,1.56-1.44c.63-.38,1.31-.66,2.06-.84.75-.18,1.46-.27,2.14-.27.41,0,.79.02,1.14.05.35.03.68.07,1.01.1s.65.07.97.1c.32.03.66.05,1.02.05.13,0,.17.06.12.18l-1.54,3.74c-.04.08-.11.12-.22.12-.05,0-.1,0-.14-.03s-.05-.05-.02-.09c.17-.56.26-1.07.26-1.52,0-.76-.24-1.32-.73-1.68-.49-.36-1.16-.54-2.03-.54-.39,0-.79.05-1.22.15-.43.1-.82.26-1.18.47-.36.21-.66.48-.9.81-.24.33-.36.72-.36,1.17,0,.41.15.77.44,1.07.29.3.66.57,1.1.82s.92.49,1.43.72c.51.23.99.5,1.43.8.44.3.81.65,1.1,1.04.29.39.44.88.44,1.45,0,.89-.22,1.68-.66,2.36-.44.68-1.01,1.25-1.7,1.72s-1.45.82-2.28,1.06c-.83.24-1.63.36-2.42.36-.48,0-.88-.02-1.19-.07-.31-.05-.61-.1-.89-.15-.28-.05-.57-.1-.87-.15s-.67-.07-1.11-.07c-.12,0-.16-.05-.12-.16l1.56-4.16c.04-.11.11-.16.2-.16.15,0,.2.05.16.16-.21.69-.32,1.31-.32,1.84,0,.88.27,1.5.82,1.86.55.36,1.29.54,2.24.54.45,0,.91-.07,1.37-.22.46-.15.88-.36,1.26-.64.38-.28.69-.62.93-1.02.24-.4.36-.85.36-1.34,0-.44-.14-.82-.43-1.14-.29-.32-.65-.61-1.08-.88-.43-.27-.9-.53-1.41-.78-.51-.25-.98-.54-1.41-.85-.43-.31-.79-.67-1.08-1.06-.29-.39-.43-.86-.43-1.41Z"/>
        <path d="M11.92,37.44c0-.88.18-1.75.53-2.61.35-.86.83-1.63,1.43-2.31.6-.68,1.3-1.23,2.11-1.65.81-.42,1.66-.63,2.57-.63.76,0,1.37.14,1.82.43.45.29.68.68.68,1.17,0,.39-.1.73-.3,1.02-.2.29-.47.55-.8.78-.33.23-.71.42-1.13.59s-.86.31-1.31.43c-.45.12-.9.22-1.33.3-.43.08-.83.15-1.19.22-.16.48-.28.93-.37,1.36-.09.43-.13.79-.13,1.1,0,.55.11.97.34,1.28.23.31.58.46,1.06.46.31,0,.62-.07.95-.22s.64-.35.95-.6c.31-.25.6-.54.87-.86.27-.32.52-.65.73-.98.03-.03.06-.06.1-.09s.09-.05.16-.05c.08,0,.12.03.12.08,0,.04-.02.09-.06.16-.25.39-.54.79-.86,1.2-.32.41-.69.79-1.1,1.12-.41.33-.87.61-1.36.82-.49.21-1.03.32-1.62.32-.88,0-1.58-.25-2.09-.75-.51-.5-.77-1.2-.77-2.09ZM15.14,34.76c.44-.13.89-.29,1.36-.47s.89-.4,1.27-.67c.38-.27.69-.59.94-.96s.37-.82.37-1.34c0-.45-.23-.68-.7-.68-.32,0-.64.12-.95.36-.31.24-.61.56-.89.95-.28.39-.54.83-.77,1.32-.23.49-.44.98-.63,1.49Z"/>
        <path d="M23.09,33.02c.04-.15.07-.28.1-.4.03-.12.04-.23.04-.34,0-.27-.09-.47-.26-.62s-.47-.22-.9-.22c-.05,0-.08-.03-.08-.1,0-.12.07-.19.2-.22.8-.09,1.5-.2,2.11-.32.61-.12,1.22-.27,1.83-.46.08-.03.15-.04.22-.04.13,0,.18.07.14.2l-1.92,5.66h.06c.36-.69.71-1.39,1.05-2.09.34-.7.69-1.33,1.05-1.9.36-.57.75-1.03,1.16-1.39.41-.36.89-.54,1.42-.54.25,0,.49.03.71.08.22.05.41.14.58.27.17.13.3.31.39.54.09.23.14.53.14.89,0,.27-.03.59-.1.96s-.17.79-.32,1.26l-.66,2.04c-.13.39-.24.76-.33,1.11s-.13.66-.13.91c0,.43.15.64.46.64.16,0,.33-.07.5-.2s.35-.31.54-.53c.19-.22.38-.47.59-.76s.44-.58.69-.87c.07-.07.12-.1.16-.1.07,0,.11.04.13.11.02.07.02.12,0,.15-.32.48-.64.94-.95,1.37s-.63.81-.95,1.13c-.32.32-.66.58-1.01.77-.35.19-.73.29-1.13.29-.56,0-.96-.14-1.21-.42-.25-.28-.37-.7-.37-1.26,0-.35.05-.76.16-1.23.11-.47.25-1,.44-1.59l.52-1.5c.2-.61.35-1.11.45-1.5.1-.39.15-.69.15-.92s-.05-.38-.14-.46-.21-.12-.36-.12c-.16,0-.35.12-.58.36-.23.24-.47.56-.73.95-.26.39-.53.84-.81,1.35-.28.51-.55,1.03-.82,1.57-.27.54-.53,1.08-.78,1.61s-.48,1.02-.68,1.46l-.4,1.22c-.04.12-.11.22-.2.29-.09.07-.2.1-.32.09l-1.44-.14c-.19-.03-.32-.11-.41-.25-.09-.14-.1-.31-.03-.51l2.04-6.28Z"/>
        <path d="M32.97,37.08c0-.89.17-1.75.52-2.58.35-.83.82-1.56,1.41-2.19.59-.63,1.29-1.14,2.09-1.52.8-.38,1.66-.57,2.58-.57s1.5.14,1.85.41c.35.27.53.57.53.89,0,.27-.09.5-.27.71-.18.21-.41.31-.69.31-.17,0-.31-.05-.4-.14s-.16-.21-.21-.35c-.05-.14-.09-.29-.12-.46-.03-.17-.08-.32-.15-.46-.07-.14-.16-.26-.27-.35-.11-.09-.28-.14-.49-.14-.57,0-1.09.21-1.56.63-.47.42-.86.95-1.18,1.58-.32.63-.57,1.32-.74,2.07-.17.75-.26,1.45-.26,2.12,0,1.56.5,2.34,1.5,2.34.53,0,1.07-.15,1.6-.44.53-.29,1.08-.77,1.64-1.42.05-.05.12-.08.2-.08s.12.03.12.1c0,.05-.01.1-.04.14-.31.4-.62.76-.94,1.08-.32.32-.66.59-1.03.82s-.76.4-1.19.52c-.43.12-.9.18-1.42.18-.43,0-.83-.07-1.2-.21-.37-.14-.7-.34-.98-.61-.28-.27-.5-.6-.66-1-.16-.4-.24-.86-.24-1.38Z"/>
        <path d="M44.21,32.98c.09-.28.14-.53.14-.74,0-.33-.11-.56-.32-.68s-.47-.18-.76-.18c-.08,0-.12-.03-.12-.1,0-.11.07-.17.2-.2.43-.05.81-.11,1.15-.16.34-.05.67-.11.98-.17.31-.06.61-.13.9-.2.29-.07.58-.16.89-.25.05-.03.13-.04.22-.04.12,0,.16.07.12.2l-1.9,5.82c-.11.39-.21.75-.3,1.1-.09.35-.14.65-.14.9,0,.2.04.36.11.48.07.12.19.18.35.18s.33-.07.5-.2.35-.31.54-.53c.19-.22.39-.47.6-.76.21-.29.44-.58.68-.87.09-.07.15-.1.16-.1.07,0,.11.04.14.11.03.07.03.12,0,.15-.32.48-.64.94-.95,1.37s-.63.81-.95,1.13c-.32.32-.66.58-1.01.77-.35.19-.73.29-1.13.29-.56,0-.96-.14-1.21-.42-.25-.28-.37-.7-.37-1.26,0-.69.19-1.63.58-2.82l.9-2.82ZM45.35,27.78c.24-.27.46-.54.66-.82.2-.28.4-.53.61-.75.21-.22.43-.4.66-.54.23-.14.5-.21.79-.21.37,0,.67.09.88.28.21.19.32.43.32.74s-.11.61-.32.87c-.21.26-.48.48-.79.67-.31.19-.65.33-1.01.43-.36.1-.69.15-.98.15-.27,0-.49-.04-.67-.12s-.27-.21-.27-.4c0-.08.04-.18.12-.3Z"/>
        <path d="M50.85,30.86c.4-1.17.94-2.19,1.61-3.05s1.41-1.57,2.2-2.14c.79-.57,1.61-.99,2.46-1.26.85-.27,1.64-.41,2.39-.41.6,0,1.02.07,1.25.22s.35.33.35.56c0,.2-.05.39-.16.57-.11.18-.25.34-.42.47s-.37.24-.6.31c-.23.07-.45.11-.68.11-.28,0-.54-.06-.78-.18-.24-.12-.46-.26-.67-.41-.21-.15-.4-.29-.58-.41-.18-.12-.34-.18-.49-.18-.32,0-.61.09-.86.28-.25.19-.49.46-.71.83-.22.37-.44.83-.65,1.38s-.44,1.2-.68,1.93l-2.12,6.44c-.37,1.11-.56,1.89-.56,2.36,0,.44.16.66.48.66.16,0,.33-.06.5-.19s.35-.3.54-.52c.19-.22.39-.47.6-.76.21-.29.44-.58.68-.89.07-.07.14-.07.21,0,.07.06.09.12.05.17-.32.48-.63.94-.94,1.37-.31.43-.62.81-.94,1.13-.32.32-.66.58-1.01.77-.35.19-.73.29-1.13.29-.51,0-.89-.17-1.14-.5-.25-.33-.38-.8-.38-1.4,0-.71.17-1.57.52-2.6l1.66-4.94Z"/>
        <path d="M56.75,30.86c.4-1.17.94-2.19,1.61-3.05s1.41-1.57,2.2-2.14c.79-.57,1.61-.99,2.46-1.26.85-.27,1.64-.41,2.39-.41.6,0,1.02.07,1.25.22s.35.33.35.56c0,.2-.05.39-.16.57-.11.18-.25.34-.42.47s-.37.24-.6.31c-.23.07-.45.11-.68.11-.28,0-.54-.06-.78-.18-.24-.12-.46-.26-.67-.41-.21-.15-.4-.29-.58-.41-.18-.12-.34-.18-.49-.18-.32,0-.61.09-.86.28-.25.19-.49.46-.71.83-.22.37-.44.83-.65,1.38s-.44,1.2-.68,1.93l-2.12,6.44c-.37,1.11-.56,1.89-.56,2.36,0,.44.16.66.48.66.16,0,.33-.06.5-.19s.35-.3.54-.52c.19-.22.39-.47.6-.76.21-.29.44-.58.68-.89.07-.07.14-.07.21,0,.07.06.09.12.05.17-.32.48-.63.94-.94,1.37-.31.43-.62.81-.94,1.13-.32.32-.66.58-1.01.77-.35.19-.73.29-1.13.29-.51,0-.89-.17-1.14-.5-.25-.33-.38-.8-.38-1.4,0-.71.17-1.57.52-2.6l1.66-4.94Z"/>
        <path d="M60.39,37.16c0-.77.14-1.57.43-2.39.29-.82.69-1.57,1.2-2.25.51-.68,1.12-1.24,1.83-1.67.71-.43,1.48-.65,2.32-.65,1,0,1.77.27,2.32.82.55.55.82,1.32.82,2.32,0,.79-.14,1.59-.42,2.41-.28.82-.68,1.57-1.19,2.24-.51.67-1.12,1.22-1.83,1.65-.71.43-1.49.64-2.34.64-.99,0-1.76-.27-2.31-.81-.55-.54-.83-1.31-.83-2.31ZM62.93,37.88c0,.63.08,1.11.24,1.46.16.35.39.52.7.52.44,0,.84-.25,1.19-.76.35-.51.66-1.13.91-1.88s.45-1.54.59-2.39c.14-.85.21-1.61.21-2.29,0-.6-.07-1.08-.22-1.44-.15-.36-.35-.54-.62-.54-.29,0-.57.12-.84.35-.27.23-.51.55-.73.94-.22.39-.42.84-.6,1.35-.18.51-.33,1.03-.45,1.58-.12.55-.21,1.09-.28,1.62-.07.53-.1,1.03-.1,1.48Z"/>
        <path d="M71.19,33.84c0-.61.15-1.15.44-1.6.29-.45.67-.83,1.13-1.13.46-.3.97-.52,1.53-.67.56-.15,1.1-.22,1.62-.22.76,0,1.35.09,1.78.27.43.18.64.48.64.91,0,.32-.09.56-.27.72-.18.16-.37.24-.57.24-.24,0-.43-.12-.58-.36-.03-.45-.16-.77-.41-.95-.25-.18-.56-.27-.93-.27-.25,0-.49.04-.72.12s-.43.19-.61.34-.32.33-.43.54c-.11.21-.16.45-.16.72,0,.2.05.38.16.55.11.17.24.32.41.46.17.14.35.27.55.38.2.11.39.23.58.35.2.13.4.27.6.41.2.14.38.3.55.47.17.17.3.37.4.58s.15.46.15.74c0,.67-.16,1.24-.49,1.73-.33.49-.75.89-1.26,1.2-.51.31-1.08.54-1.69.69s-1.2.22-1.76.22c-.79,0-1.4-.1-1.85-.29-.45-.19-.67-.52-.67-.97,0-.16.03-.33.1-.52.07-.19.16-.36.28-.51.12-.15.26-.28.41-.38.15-.1.32-.15.49-.15.21,0,.29.09.22.28-.07.19-.14.34-.21.45s-.11.28-.11.51c0,.2.05.36.14.49.09.13.21.23.36.31.15.08.31.14.48.17s.35.05.52.05c.31,0,.6-.05.89-.14.29-.09.54-.23.76-.41.22-.18.4-.4.53-.66.13-.26.2-.55.2-.87,0-.21-.05-.4-.15-.57-.1-.17-.23-.32-.38-.45-.15-.13-.32-.26-.51-.37s-.37-.23-.56-.35c-.2-.12-.39-.25-.58-.38-.19-.13-.36-.28-.51-.45-.15-.17-.28-.35-.37-.55-.09-.2-.14-.43-.14-.68Z"/>
      </g>
    </g>
  </g>
</svg>