<?xml version="1.0" encoding="UTF-8"?>
<svg id="Capa_2" data-name="Capa 2" xmlns="http://www.w3.org/2000/svg" viewBox="0 0 44.99 45.05">
  <defs>
    <style>
      .cls-1 {
        fill: #f2e9ce;
      }

      .cls-2 {
        fill: #838c3b;
      }
    </style>
  </defs>
  <g id="Slide_3" data-name="Slide 3">
    <g id="Opciones_2" data-name="Opciones 2">
      <g id="Nicho_Sencillo" data-name="Nicho Sencillo">
        <g>
          <ellipse class="cls-2" cx="22.49" cy="22.52" rx="22.49" ry="22.52"/>
          <path class="cls-1" d="M34.09,14.09c-.5.05-12.44,1.29-22.5,14.64-.15.2-.17.46-.06.69,3.09,6.06,10.49,8.47,16.55,5.38,4.12-2.1,6.72-6.35,6.72-10.98v-9.08c0-.18-.08-.36-.21-.48-.13-.12-.31-.18-.5-.17ZM33.51,23.82c0,6.09-4.92,11.02-11,11.03-4,0-7.68-2.16-9.62-5.66,8.27-10.77,17.96-13.21,20.62-13.69v8.33ZM11.63,25.59c-.35.42-.7.86-1.05,1.3-.26-1-.39-2.03-.39-3.07v-9.08c0-.36.29-.65.65-.65h0c3.59.13,7.08,1.23,10.11,3.17-.39.25-.78.52-1.17.79-2.53-1.49-5.36-2.39-8.29-2.63v8.4c0,.59.05,1.18.14,1.77ZM22.49,10.27c-1.75.81-3.35,1.9-4.73,3.24-.46-.17-.92-.32-1.36-.45,1.65-1.74,3.63-3.13,5.82-4.1.17-.08.38-.08.55,0,2.32,1.01,4.4,2.52,6.09,4.41-.41.14-.85.3-1.3.48-1.45-1.5-3.17-2.71-5.07-3.58Z"/>
        </g>
      </g>
    </g>
  </g>
</svg>