<?xml version="1.0" encoding="UTF-8"?>
<svg id="Capa_2" data-name="Capa 2" xmlns="http://www.w3.org/2000/svg" viewBox="0 0 715.84 52.7">
  <defs>
    <style>
      .cls-1 {
        fill: #f2e9ce;
      }
    </style>
  </defs>
  <g id="Slide_3" data-name="Slide 3">
    <g id="Back">
      <g>
        <path class="cls-1" d="M27.1,11.6c-.3-.7-.62-1.34-.95-1.93-.33-.58-.77-1.08-1.33-1.5-.55-.42-1.25-.74-2.1-.97-.85-.23-1.96-.35-3.32-.35-.27,0-.35-.13-.25-.4.1-.27.28-.4.55-.4,1.2-.13,2.56-.35,4.08-.65,1.52-.3,2.99-.45,4.42-.45.77,0,1.5.07,2.2.2.7.13,1.34.37,1.92.7.58.33,1.1.77,1.55,1.32.45.55.79,1.24,1.02,2.08l6.4,21.4h.1c.17-.5.4-1.18.7-2.05.3-.87.62-1.82.98-2.85.35-1.03.73-2.12,1.12-3.25.4-1.13.78-2.21,1.15-3.22.37-1.02.7-1.93,1-2.75.3-.82.52-1.44.65-1.88,1.07-3.03,2.18-5.5,3.35-7.4,1.17-1.9,2.4-3.39,3.7-4.47s2.69-1.82,4.17-2.2c1.48-.38,3.06-.58,4.73-.58,1.33,0,2.29.23,2.88.7.58.47.88,1,.88,1.6,0,.47-.12.9-.38,1.3-.25.4-.57.75-.95,1.05-.38.3-.81.53-1.28.7s-.92.25-1.35.25c-.7,0-1.34-.15-1.93-.45-.58-.3-1.12-.64-1.62-1.03-.5-.38-.97-.72-1.4-1.02-.43-.3-.83-.45-1.2-.45-.8,0-1.52.23-2.15.7-.63.47-1.23,1.16-1.77,2.07-.55.92-1.11,2.07-1.67,3.45-.57,1.38-1.18,2.99-1.85,4.83l-5.55,15.3c-.27.67-.48,1.39-.65,2.17-.17.78-.25,1.53-.25,2.23,0,.77.1,1.47.3,2.1.2.63.42,1.2.65,1.7.23.5.45.92.65,1.28.2.35.3.62.3.82,0,.13-.14.3-.42.5-.28.2-.64.38-1.08.55-.43.17-.89.31-1.38.42-.48.12-.92.17-1.32.17-.7,0-1.31-.12-1.83-.38-.52-.25-.98-.62-1.38-1.1s-.76-1.08-1.07-1.78c-.32-.7-.64-1.52-.98-2.45l-7.15-21.6h-.1l-5.65,13.45c-1.27,3.03-2.58,5.52-3.93,7.47s-2.76,3.49-4.23,4.62-3.01,1.92-4.62,2.35c-1.62.43-3.36.65-5.22.65-1.53,0-2.62-.28-3.28-.85-.65-.57-.97-1.22-.97-1.95,0-.8.31-1.47.92-2,.62-.53,1.34-.8,2.17-.8s1.49.09,2.08.27c.58.18,1.13.38,1.65.58.52.2,1.02.39,1.5.58.48.18,1.01.27,1.58.27,1.97,0,3.86-1.06,5.67-3.17,1.82-2.12,3.69-5.44,5.62-9.97l5.9-13.55Z"/>
        <path class="cls-1" d="M56.25,22.55c.3-.97.45-1.72.45-2.25,0-.7-.23-1.17-.68-1.42-.45-.25-1.16-.39-2.12-.42-.17,0-.23-.1-.2-.3.1-.27.27-.42.5-.45,2-.23,3.72-.5,5.17-.8s2.94-.68,4.48-1.15c.13-.07.32-.1.55-.1.3,0,.4.17.3.5l-4.9,15.1c-.7,2.13-1.05,3.78-1.05,4.95,0,.8.15,1.37.45,1.7.3.33.7.5,1.2.5.67,0,1.41-.49,2.23-1.48.82-.98,1.67-2.26,2.55-3.82.88-1.57,1.78-3.32,2.7-5.25.92-1.93,1.79-3.83,2.62-5.7l.45-1.55c.23-.7.39-1.33.47-1.88.08-.55.2-1.03.35-1.43.15-.4.39-.72.73-.97.33-.25.85-.44,1.55-.58.03,0,.21,0,.53-.02.32-.02.66-.03,1.02-.03s.71,0,1.02-.03c.32-.02.49-.02.52-.02.1,0,.24,0,.43.02.18.02.38.05.57.1.2.05.37.11.5.17.13.07.18.13.15.2l-4.7,14.55c-.3.97-.57,1.88-.8,2.75-.23.87-.35,1.62-.35,2.25,0,.5.09.9.27,1.2.18.3.49.45.92.45.4,0,.81-.17,1.23-.5.42-.33.86-.78,1.33-1.33.47-.55.97-1.18,1.5-1.9.53-.72,1.12-1.44,1.75-2.17.17-.17.3-.25.4-.25.17,0,.27.09.32.28.05.18.04.31-.02.38-.8,1.2-1.59,2.34-2.38,3.42-.78,1.08-1.57,2.02-2.38,2.83-.8.8-1.64,1.44-2.52,1.92-.88.48-1.83.72-2.83.72-1.3,0-2.23-.32-2.8-.95-.57-.63-.85-1.55-.85-2.75,0-1.83.58-4.35,1.75-7.55l2-5.6h-.15c-.7,1.7-1.48,3.53-2.33,5.5-.85,1.97-1.79,3.78-2.82,5.45-1.03,1.67-2.16,3.05-3.38,4.15-1.22,1.1-2.52,1.65-3.93,1.65-.63,0-1.27-.08-1.92-.25-.65-.17-1.23-.45-1.75-.85-.52-.4-.93-.93-1.25-1.6-.32-.67-.48-1.5-.48-2.5,0-.57.06-1.19.18-1.88.12-.68.31-1.46.57-2.33l2.85-8.7Z"/>
        <path class="cls-1" d="M81.65,33.6c0-2.2.44-4.38,1.33-6.53.88-2.15,2.08-4.08,3.58-5.78,1.5-1.7,3.26-3.07,5.27-4.12,2.02-1.05,4.16-1.57,6.42-1.57,1.9,0,3.42.36,4.55,1.07,1.13.72,1.7,1.69,1.7,2.93,0,.97-.25,1.82-.75,2.55s-1.17,1.38-2,1.95c-.83.57-1.77,1.06-2.82,1.47-1.05.42-2.14.78-3.28,1.08-1.13.3-2.24.55-3.32.75-1.08.2-2.08.38-2.98.55-.4,1.2-.71,2.33-.92,3.4-.22,1.07-.33,1.98-.33,2.75,0,1.37.28,2.43.85,3.2.57.77,1.45,1.15,2.65,1.15.77,0,1.56-.18,2.38-.55.82-.37,1.61-.87,2.38-1.5.77-.63,1.49-1.35,2.17-2.15.68-.8,1.29-1.62,1.83-2.45.07-.07.15-.14.25-.22.1-.08.23-.12.4-.12.2,0,.3.07.3.2,0,.1-.05.23-.15.4-.63.97-1.35,1.97-2.15,3-.8,1.03-1.72,1.97-2.75,2.8-1.03.83-2.17,1.52-3.4,2.05-1.23.53-2.58.8-4.05.8-2.2,0-3.94-.62-5.23-1.88-1.28-1.25-1.93-2.99-1.93-5.22ZM89.7,26.9c1.1-.33,2.23-.73,3.4-1.17,1.17-.45,2.23-1.01,3.17-1.68.95-.67,1.73-1.47,2.35-2.4.62-.93.93-2.05.93-3.35,0-1.13-.58-1.7-1.75-1.7-.8,0-1.59.3-2.38.9-.78.6-1.53,1.39-2.23,2.38-.7.98-1.34,2.08-1.93,3.3-.58,1.22-1.11,2.46-1.57,3.73Z"/>
        <path class="cls-1" d="M108.35,24.6c0-1.53.37-2.87,1.1-4,.73-1.13,1.67-2.08,2.83-2.83,1.15-.75,2.42-1.31,3.82-1.67s2.75-.55,4.05-.55c1.9,0,3.38.23,4.45.68,1.07.45,1.6,1.21,1.6,2.27,0,.8-.23,1.4-.67,1.8-.45.4-.93.6-1.43.6-.6,0-1.08-.3-1.45-.9-.07-1.13-.41-1.92-1.03-2.38-.62-.45-1.39-.67-2.32-.67-.63,0-1.23.1-1.8.3-.57.2-1.07.48-1.52.85-.45.37-.81.82-1.07,1.35-.27.53-.4,1.13-.4,1.8,0,.5.13.96.4,1.38.27.42.61.8,1.02,1.15.42.35.88.67,1.38.95s.98.57,1.45.88c.5.33,1,.67,1.5,1.02.5.35.96.74,1.38,1.17.42.43.75.92,1,1.45.25.53.38,1.15.38,1.85,0,1.67-.41,3.11-1.22,4.32-.82,1.22-1.87,2.22-3.15,3-1.28.78-2.69,1.36-4.22,1.73-1.53.37-3,.55-4.4.55-1.97,0-3.51-.24-4.62-.72-1.12-.48-1.67-1.29-1.67-2.43,0-.4.08-.83.25-1.3.17-.47.4-.89.7-1.27.3-.38.64-.7,1.02-.95.38-.25.79-.38,1.23-.38.53,0,.72.23.55.7-.17.47-.34.84-.52,1.12-.18.28-.27.71-.27,1.27,0,.5.12.91.35,1.23.23.32.53.57.9.77.37.2.77.34,1.2.42.43.08.87.12,1.3.12.77,0,1.51-.12,2.22-.35.72-.23,1.35-.58,1.9-1.03.55-.45.99-1,1.32-1.65.33-.65.5-1.38.5-2.17,0-.53-.12-1.01-.38-1.43-.25-.42-.57-.79-.95-1.12-.38-.33-.81-.64-1.28-.92-.47-.28-.93-.58-1.4-.88-.5-.3-.98-.62-1.45-.95-.47-.33-.89-.71-1.28-1.12-.38-.42-.69-.88-.92-1.38-.23-.5-.35-1.07-.35-1.7Z"/>
        <path class="cls-1" d="M134.4,18.05h-3.15c-.27,0-.3-.1-.1-.3l1-1.25c.27-.2.52-.3.75-.3h2.1l1.35-3.55c.77-.37,1.61-.92,2.52-1.67.92-.75,1.76-1.56,2.53-2.43.77,0,1.28.11,1.55.33.27.22.32.62.15,1.23l-2,6.1h6.2c.23,0,.28.12.15.35l-.6,1.15c-.2.23-.45.35-.75.35h-5.65l-4.1,12.65c-.27.8-.47,1.58-.6,2.33-.13.75-.2,1.42-.2,2.02,0,.67.11,1.22.32,1.65.22.43.58.65,1.08.65.4,0,.81-.17,1.23-.5.42-.33.86-.78,1.32-1.33s.97-1.18,1.5-1.9c.53-.72,1.1-1.44,1.7-2.17.17-.17.31-.25.42-.25s.2.04.25.12c.05.08.08.17.1.28.02.1,0,.18-.02.25-.8,1.2-1.59,2.34-2.38,3.42-.78,1.08-1.58,2.02-2.38,2.83-.8.8-1.64,1.44-2.52,1.92-.88.48-1.83.72-2.83.72-2.9,0-4.35-1.57-4.35-4.7,0-.87.12-1.83.35-2.9.23-1.07.58-2.27,1.05-3.6l4-11.5Z"/>
        <path class="cls-1" d="M151.5,22.5c.33-.9.5-1.63.5-2.2,0-.67-.26-1.12-.77-1.38-.52-.25-1.26-.39-2.23-.42-.23,0-.32-.1-.25-.3.1-.23.27-.38.5-.45,2-.23,3.72-.5,5.15-.8,1.43-.3,2.92-.68,4.45-1.15.2-.07.38-.1.55-.1.33,0,.45.17.35.5l-3.35,10.55h.2c.5-.93,1.12-2.04,1.88-3.33.75-1.28,1.6-2.52,2.55-3.7.95-1.18,2.03-2.18,3.23-3,1.2-.82,2.5-1.23,3.9-1.23.8,0,1.38.17,1.75.53.37.35.55.77.55,1.27,0,.4-.1.8-.3,1.2-.2.4-.47.78-.82,1.12-.35.35-.78.63-1.3.85-.52.22-1.09.32-1.72.32-1.1,0-2.13.2-3.1.6-.97.4-1.88.93-2.73,1.6-.85.67-1.63,1.46-2.35,2.38-.72.92-1.39,1.89-2.02,2.92l-3.75,11.25c-.1.3-.27.54-.5.73-.23.18-.5.26-.8.22l-3.5-.35c-.53-.07-.9-.28-1.1-.62-.2-.35-.22-.78-.05-1.28l5.1-15.75Z"/>
        <path class="cls-1" d="M168.2,34.4c0-2.17.43-4.36,1.28-6.58.85-2.22,2.02-4.22,3.52-6.03,1.5-1.8,3.27-3.27,5.3-4.42,2.03-1.15,4.23-1.72,6.6-1.72,1.5,0,2.69.22,3.58.65.88.43,1.61,1.08,2.17,1.95h.1c.33-.27.73-.59,1.2-.97.47-.38.9-.76,1.3-1.12.37-.3.8-.45,1.3-.45h.55c.37,0,.55.13.55.4,0,.07-.02.17-.05.3l-4.65,14.3c-.73,2.2-1.12,3.6-1.15,4.2-.03.6-.05.93-.05,1,0,.97.43,1.45,1.3,1.45.4,0,.82-.17,1.25-.5.43-.33.89-.78,1.38-1.33.48-.55.98-1.18,1.5-1.9.52-.72,1.08-1.44,1.68-2.17.07-.07.13-.1.2-.1.1,0,.22.05.35.15.13.1.2.18.2.25,0,.03-.02.07-.05.1-.8,1.2-1.58,2.34-2.35,3.42-.77,1.08-1.56,2.03-2.38,2.85-.82.82-1.67,1.46-2.55,1.92-.88.47-1.83.7-2.83.7-1.93,0-2.9-1.15-2.9-3.45,0-1.4.35-3.22,1.05-5.45l1.95-5.25h-.1c-2.17,4.57-4.26,8.04-6.27,10.42-2.02,2.38-4.07,3.58-6.17,3.58s-3.68-.48-4.93-1.45-1.88-2.55-1.88-4.75ZM174.35,35.65c0,1.17.23,1.97.7,2.4.47.43,1.02.65,1.65.65,1.4,0,3.04-1.28,4.93-3.83,1.88-2.55,3.81-6.12,5.77-10.72l.75-2.4c.13-.67.2-1.25.2-1.75,0-.67-.16-1.33-.48-2-.32-.67-1.08-1-2.27-1-1.03,0-2.03.33-3,1-.97.67-1.87,1.54-2.7,2.62-.83,1.08-1.59,2.3-2.27,3.65-.68,1.35-1.27,2.72-1.75,4.1-.48,1.38-.86,2.72-1.12,4-.27,1.28-.4,2.38-.4,3.28Z"/>
        <path class="cls-1" d="M202.2,24.6c0-1.53.37-2.87,1.1-4,.73-1.13,1.67-2.08,2.83-2.83,1.15-.75,2.42-1.31,3.82-1.67s2.75-.55,4.05-.55c1.9,0,3.38.23,4.45.68,1.07.45,1.6,1.21,1.6,2.27,0,.8-.22,1.4-.67,1.8-.45.4-.93.6-1.43.6-.6,0-1.08-.3-1.45-.9-.07-1.13-.41-1.92-1.03-2.38-.62-.45-1.39-.67-2.33-.67-.63,0-1.23.1-1.8.3-.57.2-1.08.48-1.53.85s-.81.82-1.07,1.35c-.27.53-.4,1.13-.4,1.8,0,.5.13.96.4,1.38.27.42.61.8,1.02,1.15.42.35.88.67,1.38.95s.98.57,1.45.88c.5.33,1,.67,1.5,1.02.5.35.96.74,1.38,1.17.42.43.75.92,1,1.45.25.53.38,1.15.38,1.85,0,1.67-.41,3.11-1.22,4.32-.82,1.22-1.87,2.22-3.15,3-1.28.78-2.69,1.36-4.22,1.73-1.54.37-3,.55-4.4.55-1.97,0-3.51-.24-4.62-.72-1.12-.48-1.67-1.29-1.67-2.43,0-.4.08-.83.25-1.3.17-.47.4-.89.7-1.27.3-.38.64-.7,1.02-.95.38-.25.79-.38,1.23-.38.53,0,.72.23.55.7-.17.47-.34.84-.52,1.12-.18.28-.27.71-.27,1.27,0,.5.12.91.35,1.23.23.32.53.57.9.77.37.2.77.34,1.2.42.43.08.87.12,1.3.12.77,0,1.51-.12,2.23-.35.72-.23,1.35-.58,1.9-1.03.55-.45.99-1,1.32-1.65.33-.65.5-1.38.5-2.17,0-.53-.12-1.01-.38-1.43-.25-.42-.57-.79-.95-1.12-.38-.33-.81-.64-1.28-.92-.47-.28-.93-.58-1.4-.88-.5-.3-.98-.62-1.45-.95-.47-.33-.89-.71-1.28-1.12-.38-.42-.69-.88-.92-1.38-.23-.5-.35-1.07-.35-1.7Z"/>
        <path class="cls-1" d="M234.1,32.9c0-1.93.36-3.92,1.08-5.98.72-2.05,1.72-3.92,3-5.62,1.28-1.7,2.81-3.09,4.58-4.17,1.77-1.08,3.7-1.62,5.8-1.62,2.5,0,4.43.68,5.8,2.05,1.37,1.37,2.05,3.3,2.05,5.8,0,1.97-.35,3.97-1.05,6.02-.7,2.05-1.69,3.92-2.97,5.6s-2.81,3.06-4.58,4.12-3.72,1.6-5.85,1.6c-2.47,0-4.39-.67-5.78-2.03-1.38-1.35-2.08-3.27-2.08-5.77ZM240.45,34.7c0,1.57.2,2.78.6,3.65.4.87.98,1.3,1.75,1.3,1.1,0,2.09-.63,2.98-1.9.88-1.27,1.64-2.83,2.27-4.7.63-1.87,1.12-3.86,1.48-5.97.35-2.12.52-4.03.52-5.72,0-1.5-.18-2.7-.55-3.6-.37-.9-.88-1.35-1.55-1.35-.73,0-1.43.29-2.1.88s-1.27,1.37-1.82,2.35c-.55.98-1.05,2.11-1.5,3.38-.45,1.27-.83,2.58-1.12,3.95-.3,1.37-.53,2.72-.7,4.05-.17,1.33-.25,2.57-.25,3.7Z"/>
        <path class="cls-1" d="M263.85,22.45c.3-.8.45-1.5.45-2.1s-.21-1.07-.62-1.4c-.42-.33-1.16-.5-2.22-.5-.2,0-.3-.08-.3-.25v-.05c.1-.23.27-.38.5-.45,1.1-.1,2.09-.22,2.97-.35.88-.13,1.71-.28,2.48-.43.77-.15,1.5-.32,2.2-.52.7-.2,1.43-.42,2.2-.65.13-.07.32-.1.55-.1s.35.1.35.3c0,.03-.02.1-.05.2l-2.3,7.05-3,8.85h.2c.87-1.7,1.76-3.52,2.67-5.45s1.88-3.72,2.88-5.35c1-1.63,2.05-2.99,3.15-4.08,1.1-1.08,2.23-1.62,3.4-1.62,2.07,0,3.63.51,4.7,1.53,1.07,1.02,1.6,2.56,1.6,4.62s-.37,4.2-1.1,6.4c-.73,2.2-1.77,4.2-3.1,6-1.33,1.8-2.93,3.28-4.8,4.45-1.87,1.17-3.93,1.75-6.2,1.75-1.8,0-3.27-.48-4.4-1.45-.1-.1-.15-.22-.15-.35,0-.1.03-.2.1-.3.07-.13.15-.21.25-.22.1-.02.17-.03.2-.03.13,0,.25.05.35.15.73.67,1.58,1,2.55,1s1.94-.32,2.82-.95c.88-.63,1.71-1.48,2.48-2.53.77-1.05,1.46-2.22,2.08-3.52.62-1.3,1.14-2.62,1.57-3.98.43-1.35.77-2.64,1-3.88.23-1.23.35-2.3.35-3.2,0-1.2-.17-2.09-.53-2.67-.35-.58-.81-.88-1.38-.88-.5,0-1.05.3-1.65.9-.6.6-1.23,1.39-1.9,2.38-.67.98-1.35,2.12-2.05,3.42s-1.4,2.64-2.1,4.03c-.7,1.38-1.39,2.76-2.07,4.12-.68,1.37-1.34,2.63-1.98,3.8l-3.35,9.7c-.33.97-.58,1.78-.75,2.45-.17.67-.25,1.23-.25,1.7,0,.77.22,1.28.67,1.53s1.11.38,1.97.38c.17,0,.25.08.25.25v.15c-.07.27-.25.4-.55.4h-13.55c-.23,0-.35-.07-.35-.2,0-.07.02-.13.05-.2.1-.27.27-.4.5-.4.67,0,1.26-.07,1.77-.2.52-.13.99-.42,1.43-.85.43-.43.84-1.05,1.22-1.85.38-.8.79-1.85,1.22-3.15l7.55-23.4Z"/>
        <path class="cls-1" d="M288.54,32.7c0-2.23.43-4.38,1.3-6.45.87-2.07,2.04-3.89,3.53-5.47,1.48-1.58,3.22-2.85,5.22-3.8,2-.95,4.15-1.43,6.45-1.43s3.74.34,4.62,1.03c.88.68,1.33,1.42,1.33,2.22,0,.67-.22,1.26-.67,1.78-.45.52-1.03.78-1.73.78-.43,0-.77-.12-1-.35-.23-.23-.41-.52-.52-.88-.12-.35-.22-.73-.3-1.15-.08-.42-.21-.8-.38-1.15-.17-.35-.39-.64-.68-.88-.28-.23-.69-.35-1.22-.35-1.43,0-2.73.52-3.9,1.57-1.17,1.05-2.15,2.37-2.95,3.95-.8,1.58-1.42,3.31-1.85,5.17-.43,1.87-.65,3.63-.65,5.3,0,3.9,1.25,5.85,3.75,5.85,1.33,0,2.67-.37,4-1.1,1.33-.73,2.7-1.92,4.1-3.55.13-.13.3-.2.5-.2s.3.08.3.25c0,.13-.03.25-.1.35-.77,1-1.55,1.9-2.35,2.7-.8.8-1.66,1.48-2.57,2.05-.92.57-1.91,1-2.98,1.3-1.07.3-2.25.45-3.55.45-1.07,0-2.07-.17-3-.53-.93-.35-1.75-.86-2.45-1.52s-1.25-1.5-1.65-2.5c-.4-1-.6-2.15-.6-3.45Z"/>
        <path class="cls-1" d="M317.39,22.45c.23-.7.35-1.32.35-1.85,0-.83-.27-1.4-.8-1.7-.53-.3-1.17-.45-1.9-.45-.2,0-.3-.08-.3-.25,0-.27.17-.43.5-.5,1.07-.13,2.02-.27,2.88-.4.85-.13,1.67-.27,2.45-.42.78-.15,1.53-.32,2.25-.5.72-.18,1.46-.39,2.22-.62.13-.07.32-.1.55-.1.3,0,.4.17.3.5l-4.75,14.55c-.27.97-.52,1.88-.75,2.75-.23.87-.35,1.62-.35,2.25,0,.5.09.9.28,1.2.18.3.47.45.88.45s.82-.17,1.25-.5c.43-.33.88-.78,1.35-1.33s.97-1.18,1.5-1.9c.53-.72,1.1-1.44,1.7-2.17.23-.17.37-.25.4-.25.17,0,.28.09.35.28.07.18.07.31,0,.38-.8,1.2-1.59,2.34-2.38,3.42-.78,1.08-1.58,2.02-2.38,2.83-.8.8-1.64,1.44-2.53,1.92-.88.48-1.83.72-2.83.72-1.4,0-2.41-.35-3.02-1.05-.62-.7-.92-1.75-.92-3.15,0-1.73.48-4.08,1.45-7.05l2.25-7.05ZM320.25,9.45c.6-.67,1.15-1.35,1.65-2.05s1.01-1.33,1.53-1.88c.52-.55,1.07-1,1.65-1.35.58-.35,1.24-.52,1.97-.52.93,0,1.67.23,2.2.7.53.47.8,1.08.8,1.85s-.27,1.53-.8,2.17c-.53.65-1.19,1.21-1.98,1.67-.78.47-1.62.83-2.52,1.08-.9.25-1.72.38-2.45.38-.67,0-1.22-.1-1.67-.3s-.67-.53-.67-1c0-.2.1-.45.3-.75Z"/>
        <path class="cls-1" d="M329.09,32.9c0-1.93.36-3.92,1.08-5.98.72-2.05,1.72-3.92,3-5.62,1.28-1.7,2.81-3.09,4.58-4.17,1.77-1.08,3.7-1.62,5.8-1.62,2.5,0,4.43.68,5.8,2.05,1.37,1.37,2.05,3.3,2.05,5.8,0,1.97-.35,3.97-1.05,6.02-.7,2.05-1.69,3.92-2.97,5.6s-2.81,3.06-4.58,4.12-3.72,1.6-5.85,1.6c-2.47,0-4.39-.67-5.78-2.03-1.38-1.35-2.08-3.27-2.08-5.77ZM335.45,34.7c0,1.57.2,2.78.6,3.65.4.87.98,1.3,1.75,1.3,1.1,0,2.09-.63,2.98-1.9.88-1.27,1.64-2.83,2.27-4.7.63-1.87,1.12-3.86,1.48-5.97.35-2.12.52-4.03.52-5.72,0-1.5-.18-2.7-.55-3.6-.37-.9-.88-1.35-1.55-1.35-.73,0-1.43.29-2.1.88s-1.27,1.37-1.82,2.35c-.55.98-1.05,2.11-1.5,3.38-.45,1.27-.83,2.58-1.12,3.95-.3,1.37-.53,2.72-.7,4.05-.17,1.33-.25,2.57-.25,3.7Z"/>
        <path class="cls-1" d="M358.85,22.55c.1-.37.18-.7.25-1,.07-.3.1-.58.1-.85,0-.67-.22-1.18-.65-1.55-.43-.37-1.18-.55-2.25-.55-.13,0-.2-.08-.2-.25,0-.3.17-.48.5-.55,2-.23,3.76-.5,5.27-.8s3.04-.68,4.58-1.15c.2-.07.38-.1.55-.1.33,0,.45.17.35.5l-4.8,14.15h.15c.9-1.73,1.78-3.48,2.62-5.23s1.72-3.33,2.62-4.75c.9-1.42,1.87-2.57,2.9-3.47,1.03-.9,2.22-1.35,3.55-1.35.63,0,1.22.07,1.77.2.55.13,1.03.36,1.45.68s.74.77.98,1.35c.23.58.35,1.33.35,2.22,0,.67-.08,1.47-.25,2.4-.17.93-.43,1.98-.8,3.15l-1.65,5.1c-.33.97-.61,1.89-.83,2.78s-.32,1.64-.32,2.27c0,1.07.38,1.6,1.15,1.6.4,0,.82-.17,1.25-.5.43-.33.88-.78,1.35-1.33.47-.55.96-1.18,1.47-1.9.52-.72,1.09-1.44,1.72-2.17.17-.17.3-.25.4-.25.17,0,.28.09.33.28s.04.31-.03.38c-.8,1.2-1.59,2.34-2.38,3.42s-1.58,2.02-2.38,2.83c-.8.8-1.64,1.44-2.52,1.92-.88.48-1.83.72-2.83.72-1.4,0-2.41-.35-3.03-1.05-.62-.7-.92-1.75-.92-3.15,0-.87.13-1.89.4-3.07.27-1.18.63-2.51,1.1-3.98l1.3-3.75c.5-1.53.88-2.78,1.12-3.75.25-.97.38-1.73.38-2.3s-.12-.95-.35-1.15c-.23-.2-.53-.3-.9-.3-.4,0-.88.3-1.45.9-.57.6-1.17,1.39-1.82,2.38-.65.98-1.33,2.11-2.03,3.38s-1.38,2.58-2.05,3.92c-.67,1.35-1.32,2.69-1.95,4.03-.63,1.33-1.2,2.55-1.7,3.65l-1,3.05c-.1.3-.27.54-.5.73s-.5.26-.8.22l-3.6-.35c-.47-.07-.81-.28-1.03-.62-.22-.35-.24-.78-.08-1.28l5.1-15.7Z"/>
        <path class="cls-1" d="M383.79,33.6c0-2.2.44-4.38,1.33-6.53.88-2.15,2.08-4.08,3.58-5.78,1.5-1.7,3.26-3.07,5.27-4.12,2.02-1.05,4.16-1.57,6.43-1.57,1.9,0,3.42.36,4.55,1.07,1.13.72,1.7,1.69,1.7,2.93,0,.97-.25,1.82-.75,2.55s-1.17,1.38-2,1.95c-.83.57-1.78,1.06-2.83,1.47-1.05.42-2.14.78-3.28,1.08-1.13.3-2.24.55-3.33.75s-2.07.38-2.97.55c-.4,1.2-.71,2.33-.92,3.4-.22,1.07-.33,1.98-.33,2.75,0,1.37.28,2.43.85,3.2.57.77,1.45,1.15,2.65,1.15.77,0,1.56-.18,2.38-.55.82-.37,1.61-.87,2.38-1.5.77-.63,1.49-1.35,2.17-2.15.68-.8,1.29-1.62,1.83-2.45.07-.07.15-.14.25-.22.1-.08.23-.12.4-.12.2,0,.3.07.3.2,0,.1-.05.23-.15.4-.63.97-1.35,1.97-2.15,3-.8,1.03-1.72,1.97-2.75,2.8-1.03.83-2.17,1.52-3.4,2.05-1.23.53-2.58.8-4.05.8-2.2,0-3.94-.62-5.23-1.88s-1.92-2.99-1.92-5.22ZM391.84,26.9c1.1-.33,2.23-.73,3.4-1.17,1.17-.45,2.22-1.01,3.17-1.68.95-.67,1.73-1.47,2.35-2.4.62-.93.92-2.05.92-3.35,0-1.13-.58-1.7-1.75-1.7-.8,0-1.59.3-2.38.9-.78.6-1.53,1.39-2.23,2.38-.7.98-1.34,2.08-1.92,3.3-.58,1.22-1.11,2.46-1.58,3.73Z"/>
        <path class="cls-1" d="M410.49,24.6c0-1.53.37-2.87,1.1-4,.73-1.13,1.67-2.08,2.83-2.83,1.15-.75,2.42-1.31,3.83-1.67,1.4-.37,2.75-.55,4.05-.55,1.9,0,3.38.23,4.45.68,1.07.45,1.6,1.21,1.6,2.27,0,.8-.22,1.4-.67,1.8-.45.4-.92.6-1.42.6-.6,0-1.08-.3-1.45-.9-.07-1.13-.41-1.92-1.03-2.38-.62-.45-1.39-.67-2.33-.67-.63,0-1.23.1-1.8.3-.57.2-1.08.48-1.52.85-.45.37-.81.82-1.08,1.35-.27.53-.4,1.13-.4,1.8,0,.5.13.96.4,1.38.27.42.61.8,1.02,1.15.42.35.88.67,1.38.95s.98.57,1.45.88c.5.33,1,.67,1.5,1.02.5.35.96.74,1.38,1.17.42.43.75.92,1,1.45.25.53.38,1.15.38,1.85,0,1.67-.41,3.11-1.22,4.32-.82,1.22-1.87,2.22-3.15,3-1.28.78-2.69,1.36-4.22,1.73-1.53.37-3,.55-4.4.55-1.97,0-3.51-.24-4.62-.72-1.12-.48-1.67-1.29-1.67-2.43,0-.4.08-.83.25-1.3.17-.47.4-.89.7-1.27s.64-.7,1.02-.95.79-.38,1.23-.38c.53,0,.72.23.55.7-.17.47-.34.84-.53,1.12s-.27.71-.27,1.27c0,.5.12.91.35,1.23s.53.57.9.77c.37.2.77.34,1.2.42.43.08.87.12,1.3.12.77,0,1.51-.12,2.22-.35.72-.23,1.35-.58,1.9-1.03.55-.45.99-1,1.33-1.65.33-.65.5-1.38.5-2.17,0-.53-.12-1.01-.38-1.43-.25-.42-.57-.79-.95-1.12-.38-.33-.81-.64-1.28-.92-.47-.28-.93-.58-1.4-.88-.5-.3-.98-.62-1.45-.95-.47-.33-.89-.71-1.28-1.12-.38-.42-.69-.88-.92-1.38-.23-.5-.35-1.07-.35-1.7Z"/>
        <path class="cls-1" d="M441.89,34.3c0-2.13.45-4.3,1.35-6.5.9-2.2,2.11-4.2,3.62-6,1.52-1.8,3.27-3.27,5.27-4.42,2-1.15,4.12-1.72,6.35-1.72,1.13,0,2.17.21,3.1.62.93.42,1.7,1.04,2.3,1.88l.65-1.85c1-2.73,2.33-5.12,3.97-7.17,1.65-2.05,3.46-3.75,5.43-5.1,1.97-1.35,3.99-2.36,6.07-3.03,2.08-.67,4.06-1,5.93-1,1.5,0,2.54.18,3.12.55.58.37.88.82.88,1.35s-.16,1.02-.48,1.47c-.32.45-.71.84-1.17,1.17-.47.33-.97.59-1.5.78-.53.18-1.03.28-1.5.28-.7,0-1.34-.15-1.92-.45-.58-.3-1.14-.64-1.67-1.03-.53-.38-1.03-.72-1.5-1.02-.47-.3-.9-.45-1.3-.45-.8,0-1.53.29-2.2.88-.67.58-1.28,1.38-1.85,2.38-.57,1-1.1,2.17-1.6,3.52-.5,1.35-1,2.78-1.5,4.28l-5.5,17c-.3.87-.55,1.7-.75,2.5s-.32,1.51-.35,2.12c-.03.62.03,1.11.2,1.47.17.37.48.55.95.55.4,0,.81-.17,1.22-.5s.86-.78,1.33-1.33.97-1.18,1.5-1.9c.53-.72,1.12-1.44,1.75-2.17.17-.17.3-.25.4-.25s.17.04.22.12c.05.08.08.17.1.28.02.1,0,.18-.03.25-.8,1.2-1.59,2.34-2.38,3.42s-1.58,2.02-2.38,2.83c-.8.8-1.64,1.44-2.53,1.92-.88.48-1.82.72-2.82.72s-1.72-.25-2.25-.75c-.53-.5-.89-1.2-1.08-2.1-.18-.9-.18-1.99,0-3.28.18-1.28.52-2.69,1.02-4.22l1.55-4.7h-.2c-1.03,2.33-2.03,4.42-2.98,6.25-.95,1.83-1.91,3.39-2.88,4.67-.97,1.28-2,2.27-3.1,2.95s-2.35,1.03-3.75,1.03c-2.17,0-3.9-.49-5.2-1.48-1.3-.98-1.95-2.59-1.95-4.83ZM448.29,34.6c0,1.5.33,2.57,1,3.2.67.63,1.43.95,2.3.95.77,0,1.62-.52,2.55-1.58.93-1.05,1.89-2.41,2.88-4.07s1.97-3.52,2.95-5.55c.98-2.03,1.92-4.03,2.83-6l.55-1.8c-.33-.7-.81-1.25-1.42-1.65-.62-.4-1.33-.6-2.12-.6-1.03,0-2.04.28-3.03.85s-1.9,1.31-2.75,2.22c-.85.92-1.62,1.97-2.32,3.17-.7,1.2-1.3,2.43-1.8,3.7-.5,1.27-.89,2.52-1.17,3.75-.28,1.23-.42,2.37-.42,3.4Z"/>
        <path class="cls-1" d="M473.79,33.6c0-2.2.44-4.38,1.33-6.53.88-2.15,2.08-4.08,3.58-5.78,1.5-1.7,3.26-3.07,5.27-4.12,2.02-1.05,4.16-1.57,6.43-1.57,1.9,0,3.42.36,4.55,1.07,1.13.72,1.7,1.69,1.7,2.93,0,.97-.25,1.82-.75,2.55s-1.17,1.38-2,1.95c-.83.57-1.78,1.06-2.83,1.47-1.05.42-2.14.78-3.28,1.08-1.13.3-2.24.55-3.33.75s-2.07.38-2.97.55c-.4,1.2-.71,2.33-.92,3.4-.22,1.07-.33,1.98-.33,2.75,0,1.37.28,2.43.85,3.2.57.77,1.45,1.15,2.65,1.15.77,0,1.56-.18,2.38-.55.82-.37,1.61-.87,2.38-1.5.77-.63,1.49-1.35,2.17-2.15.68-.8,1.29-1.62,1.83-2.45.07-.07.15-.14.25-.22.1-.08.23-.12.4-.12.2,0,.3.07.3.2,0,.1-.05.23-.15.4-.63.97-1.35,1.97-2.15,3-.8,1.03-1.72,1.97-2.75,2.8-1.03.83-2.17,1.52-3.4,2.05-1.23.53-2.58.8-4.05.8-2.2,0-3.94-.62-5.23-1.88s-1.92-2.99-1.92-5.22ZM481.84,26.9c1.1-.33,2.23-.73,3.4-1.17,1.17-.45,2.22-1.01,3.17-1.68.95-.67,1.73-1.47,2.35-2.4.62-.93.92-2.05.92-3.35,0-1.13-.58-1.7-1.75-1.7-.8,0-1.59.3-2.38.9-.78.6-1.53,1.39-2.23,2.38-.7.98-1.34,2.08-1.92,3.3-.58,1.22-1.11,2.46-1.58,3.73Z"/>
        <path class="cls-1" d="M509.14,34.3c0-2.13.45-4.3,1.35-6.5.9-2.2,2.11-4.2,3.62-6,1.52-1.8,3.27-3.27,5.27-4.42,2-1.15,4.12-1.72,6.35-1.72,1.13,0,2.17.21,3.1.62.93.42,1.7,1.04,2.3,1.88l.65-1.85c1-2.73,2.33-5.12,3.97-7.17,1.65-2.05,3.46-3.75,5.43-5.1,1.97-1.35,3.99-2.36,6.07-3.03,2.08-.67,4.06-1,5.93-1,1.5,0,2.54.18,3.12.55.58.37.88.82.88,1.35s-.16,1.02-.48,1.47c-.32.45-.71.84-1.17,1.17-.47.33-.97.59-1.5.78-.53.18-1.03.28-1.5.28-.7,0-1.34-.15-1.92-.45-.58-.3-1.14-.64-1.67-1.03-.53-.38-1.03-.72-1.5-1.02-.47-.3-.9-.45-1.3-.45-.8,0-1.53.29-2.2.88-.67.58-1.28,1.38-1.85,2.38-.57,1-1.1,2.17-1.6,3.52-.5,1.35-1,2.78-1.5,4.28l-5.5,17c-.3.87-.55,1.7-.75,2.5s-.32,1.51-.35,2.12c-.03.62.03,1.11.2,1.47.17.37.48.55.95.55.4,0,.81-.17,1.22-.5s.86-.78,1.33-1.33.97-1.18,1.5-1.9c.53-.72,1.12-1.44,1.75-2.17.17-.17.3-.25.4-.25s.17.04.22.12c.05.08.08.17.1.28.02.1,0,.18-.03.25-.8,1.2-1.59,2.34-2.38,3.42s-1.58,2.02-2.38,2.83c-.8.8-1.64,1.44-2.53,1.92-.88.48-1.82.72-2.82.72s-1.72-.25-2.25-.75c-.53-.5-.89-1.2-1.08-2.1-.18-.9-.18-1.99,0-3.28.18-1.28.52-2.69,1.02-4.22l1.55-4.7h-.2c-1.03,2.33-2.03,4.42-2.98,6.25-.95,1.83-1.91,3.39-2.88,4.67-.97,1.28-2,2.27-3.1,2.95s-2.35,1.03-3.75,1.03c-2.17,0-3.9-.49-5.2-1.48-1.3-.98-1.95-2.59-1.95-4.83ZM515.54,34.6c0,1.5.33,2.57,1,3.2.67.63,1.43.95,2.3.95.77,0,1.62-.52,2.55-1.58.93-1.05,1.89-2.41,2.88-4.07s1.97-3.52,2.95-5.55c.98-2.03,1.92-4.03,2.83-6l.55-1.8c-.33-.7-.81-1.25-1.42-1.65-.62-.4-1.33-.6-2.12-.6-1.03,0-2.04.28-3.03.85s-1.9,1.31-2.75,2.22c-.85.92-1.62,1.97-2.32,3.17-.7,1.2-1.3,2.43-1.8,3.7-.5,1.27-.89,2.52-1.17,3.75-.28,1.23-.42,2.37-.42,3.4Z"/>
        <path class="cls-1" d="M541.04,33.6c0-2.2.44-4.38,1.33-6.53.88-2.15,2.08-4.08,3.58-5.78,1.5-1.7,3.26-3.07,5.27-4.12,2.02-1.05,4.16-1.57,6.43-1.57,1.9,0,3.42.36,4.55,1.07,1.13.72,1.7,1.69,1.7,2.93,0,.97-.25,1.82-.75,2.55s-1.17,1.38-2,1.95c-.83.57-1.78,1.06-2.83,1.47-1.05.42-2.14.78-3.28,1.08-1.13.3-2.24.55-3.33.75s-2.07.38-2.97.55c-.4,1.2-.71,2.33-.92,3.4-.22,1.07-.33,1.98-.33,2.75,0,1.37.28,2.43.85,3.2.57.77,1.45,1.15,2.65,1.15.77,0,1.56-.18,2.38-.55.82-.37,1.61-.87,2.38-1.5.77-.63,1.49-1.35,2.17-2.15.68-.8,1.29-1.62,1.83-2.45.07-.07.15-.14.25-.22.1-.08.23-.12.4-.12.2,0,.3.07.3.2,0,.1-.05.23-.15.4-.63.97-1.35,1.97-2.15,3-.8,1.03-1.72,1.97-2.75,2.8-1.03.83-2.17,1.52-3.4,2.05-1.23.53-2.58.8-4.05.8-2.2,0-3.94-.62-5.23-1.88s-1.92-2.99-1.92-5.22ZM549.09,26.9c1.1-.33,2.23-.73,3.4-1.17,1.17-.45,2.22-1.01,3.17-1.68.95-.67,1.73-1.47,2.35-2.4.62-.93.92-2.05.92-3.35,0-1.13-.58-1.7-1.75-1.7-.8,0-1.59.3-2.38.9-.78.6-1.53,1.39-2.23,2.38-.7.98-1.34,2.08-1.92,3.3-.58,1.22-1.11,2.46-1.58,3.73Z"/>
        <path class="cls-1" d="M567.74,24.6c0-1.53.37-2.87,1.1-4,.73-1.13,1.67-2.08,2.83-2.83,1.15-.75,2.42-1.31,3.83-1.67,1.4-.37,2.75-.55,4.05-.55,1.9,0,3.38.23,4.45.68,1.07.45,1.6,1.21,1.6,2.27,0,.8-.22,1.4-.67,1.8-.45.4-.92.6-1.42.6-.6,0-1.08-.3-1.45-.9-.07-1.13-.41-1.92-1.03-2.38-.62-.45-1.39-.67-2.33-.67-.63,0-1.23.1-1.8.3-.57.2-1.08.48-1.52.85-.45.37-.81.82-1.08,1.35-.27.53-.4,1.13-.4,1.8,0,.5.13.96.4,1.38.27.42.61.8,1.02,1.15.42.35.88.67,1.38.95s.98.57,1.45.88c.5.33,1,.67,1.5,1.02.5.35.96.74,1.38,1.17.42.43.75.92,1,1.45.25.53.38,1.15.38,1.85,0,1.67-.41,3.11-1.22,4.32-.82,1.22-1.87,2.22-3.15,3-1.28.78-2.69,1.36-4.22,1.73-1.53.37-3,.55-4.4.55-1.97,0-3.51-.24-4.62-.72-1.12-.48-1.67-1.29-1.67-2.43,0-.4.08-.83.25-1.3.17-.47.4-.89.7-1.27s.64-.7,1.02-.95.79-.38,1.23-.38c.53,0,.72.23.55.7-.17.47-.34.84-.53,1.12s-.27.71-.27,1.27c0,.5.12.91.35,1.23s.53.57.9.77c.37.2.77.34,1.2.42.43.08.87.12,1.3.12.77,0,1.51-.12,2.22-.35.72-.23,1.35-.58,1.9-1.03.55-.45.99-1,1.33-1.65.33-.65.5-1.38.5-2.17,0-.53-.12-1.01-.38-1.43-.25-.42-.57-.79-.95-1.12-.38-.33-.81-.64-1.28-.92-.47-.28-.93-.58-1.4-.88-.5-.3-.98-.62-1.45-.95-.47-.33-.89-.71-1.28-1.12-.38-.42-.69-.88-.92-1.38-.23-.5-.35-1.07-.35-1.7Z"/>
        <path class="cls-1" d="M587.39,32.7c0-2.23.43-4.38,1.3-6.45.87-2.07,2.04-3.89,3.53-5.47,1.48-1.58,3.22-2.85,5.22-3.8,2-.95,4.15-1.43,6.45-1.43s3.74.34,4.62,1.03c.88.68,1.33,1.42,1.33,2.22,0,.67-.22,1.26-.67,1.78-.45.52-1.03.78-1.73.78-.43,0-.77-.12-1-.35-.23-.23-.41-.52-.52-.88-.12-.35-.22-.73-.3-1.15-.08-.42-.21-.8-.38-1.15-.17-.35-.39-.64-.68-.88-.28-.23-.69-.35-1.22-.35-1.43,0-2.73.52-3.9,1.57-1.17,1.05-2.15,2.37-2.95,3.95-.8,1.58-1.42,3.31-1.85,5.17-.43,1.87-.65,3.63-.65,5.3,0,3.9,1.25,5.85,3.75,5.85,1.33,0,2.67-.37,4-1.1,1.33-.73,2.7-1.92,4.1-3.55.13-.13.3-.2.5-.2s.3.08.3.25c0,.13-.03.25-.1.35-.77,1-1.55,1.9-2.35,2.7-.8.8-1.66,1.48-2.57,2.05-.92.57-1.91,1-2.98,1.3-1.07.3-2.25.45-3.55.45-1.07,0-2.07-.17-3-.53-.93-.35-1.75-.86-2.45-1.52s-1.25-1.5-1.65-2.5c-.4-1-.6-2.15-.6-3.45Z"/>
        <path class="cls-1" d="M610.44,34.4c0-2.17.42-4.36,1.28-6.58.85-2.22,2.02-4.22,3.52-6.03,1.5-1.8,3.27-3.27,5.3-4.42,2.03-1.15,4.23-1.72,6.6-1.72,1.5,0,2.69.22,3.58.65.88.43,1.61,1.08,2.17,1.95h.1c.33-.27.73-.59,1.2-.97.47-.38.9-.76,1.3-1.12.37-.3.8-.45,1.3-.45h.55c.37,0,.55.13.55.4,0,.07-.02.17-.05.3l-4.65,14.3c-.73,2.2-1.12,3.6-1.15,4.2-.03.6-.05.93-.05,1,0,.97.43,1.45,1.3,1.45.4,0,.82-.17,1.25-.5.43-.33.89-.78,1.38-1.33.48-.55.98-1.18,1.5-1.9.52-.72,1.07-1.44,1.67-2.17.07-.07.13-.1.2-.1.1,0,.22.05.35.15.13.1.2.18.2.25,0,.03-.02.07-.05.1-.8,1.2-1.58,2.34-2.35,3.42s-1.56,2.03-2.38,2.85-1.67,1.46-2.55,1.92c-.88.47-1.83.7-2.83.7-1.93,0-2.9-1.15-2.9-3.45,0-1.4.35-3.22,1.05-5.45l1.95-5.25h-.1c-2.17,4.57-4.26,8.04-6.27,10.42-2.02,2.38-4.08,3.58-6.18,3.58s-3.67-.48-4.92-1.45-1.88-2.55-1.88-4.75ZM616.59,35.65c0,1.17.23,1.97.7,2.4.47.43,1.02.65,1.65.65,1.4,0,3.04-1.28,4.92-3.83s3.81-6.12,5.78-10.72l.75-2.4c.13-.67.2-1.25.2-1.75,0-.67-.16-1.33-.48-2-.32-.67-1.07-1-2.27-1-1.03,0-2.03.33-3,1-.97.67-1.87,1.54-2.7,2.62-.83,1.08-1.59,2.3-2.28,3.65-.68,1.35-1.27,2.72-1.75,4.1-.48,1.38-.86,2.72-1.12,4-.27,1.28-.4,2.38-.4,3.28Z"/>
        <path class="cls-1" d="M646.44,22.55c.1-.37.18-.7.25-1,.07-.3.1-.58.1-.85,0-.67-.22-1.18-.65-1.55-.43-.37-1.18-.55-2.25-.55-.13,0-.2-.08-.2-.25,0-.3.17-.48.5-.55,2-.23,3.76-.5,5.27-.8s3.04-.68,4.58-1.15c.2-.07.38-.1.55-.1.33,0,.45.17.35.5l-4.8,14.15h.15c.9-1.73,1.78-3.48,2.62-5.23s1.72-3.33,2.62-4.75c.9-1.42,1.87-2.57,2.9-3.47,1.03-.9,2.22-1.35,3.55-1.35.63,0,1.22.07,1.77.2.55.13,1.03.36,1.45.68s.74.77.98,1.35c.23.58.35,1.33.35,2.22,0,.67-.08,1.47-.25,2.4-.17.93-.43,1.98-.8,3.15l-1.65,5.1c-.33.97-.61,1.89-.83,2.78s-.32,1.64-.32,2.27c0,1.07.38,1.6,1.15,1.6.4,0,.82-.17,1.25-.5.43-.33.88-.78,1.35-1.33.47-.55.96-1.18,1.47-1.9.52-.72,1.09-1.44,1.72-2.17.17-.17.3-.25.4-.25.17,0,.28.09.33.28s.04.31-.03.38c-.8,1.2-1.59,2.34-2.38,3.42s-1.58,2.02-2.38,2.83c-.8.8-1.64,1.44-2.52,1.92-.88.48-1.83.72-2.83.72-1.4,0-2.41-.35-3.03-1.05-.62-.7-.92-1.75-.92-3.15,0-.87.13-1.89.4-3.07.27-1.18.63-2.51,1.1-3.98l1.3-3.75c.5-1.53.88-2.78,1.12-3.75.25-.97.38-1.73.38-2.3s-.12-.95-.35-1.15c-.23-.2-.53-.3-.9-.3-.4,0-.88.3-1.45.9-.57.6-1.17,1.39-1.82,2.38-.65.98-1.33,2.11-2.03,3.38s-1.38,2.58-2.05,3.92c-.67,1.35-1.32,2.69-1.95,4.03-.63,1.33-1.2,2.55-1.7,3.65l-1,3.05c-.1.3-.27.54-.5.73s-.5.26-.8.22l-3.6-.35c-.47-.07-.81-.28-1.03-.62-.22-.35-.24-.78-.08-1.28l5.1-15.7Z"/>
        <path class="cls-1" d="M674.09,24.6c0-1.53.37-2.87,1.1-4,.73-1.13,1.67-2.08,2.83-2.83,1.15-.75,2.42-1.31,3.83-1.67,1.4-.37,2.75-.55,4.05-.55,1.9,0,3.38.23,4.45.68,1.07.45,1.6,1.21,1.6,2.27,0,.8-.22,1.4-.67,1.8-.45.4-.92.6-1.42.6-.6,0-1.08-.3-1.45-.9-.07-1.13-.41-1.92-1.03-2.38-.62-.45-1.39-.67-2.33-.67-.63,0-1.23.1-1.8.3-.57.2-1.08.48-1.52.85-.45.37-.81.82-1.08,1.35-.27.53-.4,1.13-.4,1.8,0,.5.13.96.4,1.38.27.42.61.8,1.02,1.15.42.35.88.67,1.38.95s.98.57,1.45.88c.5.33,1,.67,1.5,1.02.5.35.96.74,1.38,1.17.42.43.75.92,1,1.45.25.53.38,1.15.38,1.85,0,1.67-.41,3.11-1.22,4.32-.82,1.22-1.87,2.22-3.15,3-1.28.78-2.69,1.36-4.22,1.73-1.53.37-3,.55-4.4.55-1.97,0-3.51-.24-4.62-.72-1.12-.48-1.67-1.29-1.67-2.43,0-.4.08-.83.25-1.3.17-.47.4-.89.7-1.27s.64-.7,1.02-.95.79-.38,1.23-.38c.53,0,.72.23.55.7-.17.47-.34.84-.53,1.12s-.27.71-.27,1.27c0,.5.12.91.35,1.23s.53.57.9.77c.37.2.77.34,1.2.42.43.08.87.12,1.3.12.77,0,1.51-.12,2.22-.35.72-.23,1.35-.58,1.9-1.03.55-.45.99-1,1.33-1.65.33-.65.5-1.38.5-2.17,0-.53-.12-1.01-.38-1.43-.25-.42-.57-.79-.95-1.12-.38-.33-.81-.64-1.28-.92-.47-.28-.93-.58-1.4-.88-.5-.3-.98-.62-1.45-.95-.47-.33-.89-.71-1.28-1.12-.38-.42-.69-.88-.92-1.38-.23-.5-.35-1.07-.35-1.7Z"/>
        <path class="cls-1" d="M693.54,32.9c0-1.93.36-3.92,1.08-5.98.72-2.05,1.72-3.92,3-5.62,1.28-1.7,2.81-3.09,4.58-4.17,1.77-1.08,3.7-1.62,5.8-1.62,2.5,0,4.43.68,5.8,2.05,1.37,1.37,2.05,3.3,2.05,5.8,0,1.97-.35,3.97-1.05,6.02-.7,2.05-1.69,3.92-2.97,5.6s-2.81,3.06-4.58,4.12-3.72,1.6-5.85,1.6c-2.47,0-4.39-.67-5.78-2.03-1.38-1.35-2.08-3.27-2.08-5.77ZM699.89,34.7c0,1.57.2,2.78.6,3.65.4.87.98,1.3,1.75,1.3,1.1,0,2.09-.63,2.98-1.9.88-1.27,1.64-2.83,2.27-4.7.63-1.87,1.12-3.86,1.48-5.97.35-2.12.52-4.03.52-5.72,0-1.5-.18-2.7-.55-3.6-.37-.9-.88-1.35-1.55-1.35-.73,0-1.43.29-2.1.88s-1.27,1.37-1.82,2.35c-.55.98-1.05,2.11-1.5,3.38-.45,1.27-.83,2.58-1.12,3.95-.3,1.37-.53,2.72-.7,4.05-.17,1.33-.25,2.57-.25,3.7Z"/>
      </g>
    </g>
  </g>
</svg>