<?xml version="1.0" encoding="UTF-8"?>
<svg id="Capa_2" data-name="Capa 2" xmlns="http://www.w3.org/2000/svg" viewBox="0 0 712.1 49.84">
  <defs>
    <style>
      .cls-1 {
        fill: #f2e9ce;
      }
    </style>
  </defs>
  <g id="Slide_3" data-name="Slide 3">
    <g id="Back">
      <g>
        <path class="cls-1" d="M42.02,5c-2.83.73-4.46,2.07-4.89,4.03l-6.58,29.5-2.61,1.09L12.23,9.57l-5,23.91c-.07.29-.11.56-.11.82,0,1.02.51,1.78,1.52,2.29.51.22,1.45.47,2.83.76l-.49,1.36c-2.61-.18-4.58-.27-5.92-.27-1.12,0-2.81.09-5.06.27v-1.36c1.74-.47,2.81-.83,3.21-1.09.8-.54,1.36-1.52,1.69-2.94l5.38-24.33c.07-.33.11-.65.11-.98,0-.87-.34-1.54-1.03-2.01-.4-.29-1.14-.62-2.23-.98l.54-1.36c2.46.14,4.31.22,5.54.22,1.49,0,3.17-.07,5.06-.22l12.45,24.62,4.08-19.39c.04-.25.05-.49.05-.71,0-1.53-1.43-2.58-4.29-3.16l.49-1.36c2.61.18,4.58.27,5.92.27,1.12,0,2.81-.09,5.06-.27v1.36Z"/>
        <path class="cls-1" d="M68,14.3l-3.59,16.2c-.29,1.38-.43,2.48-.43,3.32,0,1.27.33,1.9.98,1.9.44,0,1.21-.4,2.34-1.2v1.79c-2.75,2.25-5.2,3.37-7.34,3.37-1.16,0-1.96-.19-2.39-.57-.44-.38-.65-1.15-.65-2.31-.04-1.99.54-5.42,1.74-10.27-2.07,3.66-3.88,6.36-5.44,8.1-2.68,2.97-5.42,4.46-8.21,4.46-1.16,0-2.12-.31-2.88-.92-.76-.62-1.14-1.49-1.14-2.61,0-1.74.45-4.15,1.36-7.23.8-2.72,1.59-5.42,2.39-8.1.11-.4.16-.76.16-1.09,0-1.38-1.11-2.36-3.32-2.94l.6-1.36c3.37,0,6.81-.49,10.33-1.47.22.29.27.71.16,1.25-.18.94-.92,4.08-2.23,9.4-.98,3.91-1.63,7.14-1.96,9.68-.15,1.05.24,1.58,1.14,1.58,1.7,0,3.9-2.46,6.58-7.39,1.85-3.41,3.51-8.13,5-14.19l6.79.6Z"/>
        <path class="cls-1" d="M93.49,19.24c0,2.97-1.76,5.2-5.27,6.69-1.88.83-4.93,1.56-9.13,2.17-.11,1.52-.16,2.32-.16,2.39,0,1.52.43,2.9,1.3,4.13.94,1.38,2.14,2.07,3.59,2.07,1.34,0,2.74-.67,4.19-2.01,1.27-1.16,2.23-2.45,2.88-3.86l.98.22c-1.96,5.33-5.73,7.99-11.31,7.99-2.54,0-4.6-.77-6.2-2.31-1.6-1.54-2.39-3.58-2.39-6.12,0-4.31,1.47-8.23,4.4-11.74,3.04-3.66,6.69-5.49,10.93-5.49,1.77,0,3.25.54,4.43,1.6,1.18,1.07,1.77,2.49,1.77,4.27ZM88.6,17.23c0-1.59-.63-2.39-1.9-2.39-1.78,0-3.44,1.58-5,4.73-1.09,2.25-1.88,4.64-2.39,7.17,2.32-.18,4.45-1.24,6.39-3.18,1.94-1.94,2.91-4.05,2.91-6.33Z"/>
        <path class="cls-1" d="M114.91,17.12c0,1.09-.58,2.34-1.74,3.75l-1.85-.92v-.82c.04-1.16-.35-2.18-1.17-3.07-.82-.89-1.77-1.33-2.85-1.33-.87,0-1.6.32-2.2.95-.6.63-.9,1.39-.9,2.26,0,.98.78,2.19,2.34,3.64,2.57,2.46,4,3.86,4.29,4.19,1.52,1.81,2.28,3.68,2.28,5.6,0,2.54-1.07,4.51-3.21,5.92-1.81,1.2-4.04,1.81-6.69,1.85-2.97.04-5.74-.82-8.32-2.55l1.47-5.76,2.72.98c.29,3.91,1.77,5.87,4.46,5.87.94,0,1.78-.34,2.53-1.03.74-.69,1.11-1.5,1.11-2.45,0-1.09-.8-2.39-2.39-3.91-1.45-1.41-2.92-2.81-4.4-4.19-1.59-1.78-2.39-3.5-2.39-5.16,0-2.54,1.1-4.49,3.32-5.87,1.85-1.16,4.13-1.74,6.85-1.74,1.56,0,2.97.25,4.24.76,1.67.69,2.5,1.7,2.5,3.04Z"/>
        <path class="cls-1" d="M134.58,14.35c-.04.18-.08.4-.14.65-.05.25-.11.45-.16.6-.05.14-1.64.22-4.76.22l-3.37,16.31c-.15.73-.22,1.36-.22,1.9,0,1.3.42,1.92,1.25,1.85,1.3-.07,2.43-1.34,3.37-3.8h1.47c-1.41,4.67-4.17,7.01-8.26,7.01-1.52,0-2.73-.4-3.61-1.2-.89-.8-1.33-1.92-1.33-3.37,0-.54.05-1.1.16-1.68l3.64-17.07h-2.88c-.54,0-.8-.07-.76-.22l.16-1.09c3.84-1.12,6.03-1.88,6.58-2.28.72-.54,2.03-2.5,3.91-5.87l1.85.22-1.58,7.67h3.91c.51,0,.76.05.76.16Z"/>
        <path class="cls-1" d="M158.77,15.98c0,1.7-.73,3.77-2.17,6.2l-1.3-.16c-.11-1.45-.85-2.17-2.23-2.17-2.17,0-4.26,2.65-6.25,7.94-.62,1.63-1.69,5.31-3.21,11.03l-6.79-.6,3.97-17.99c.07-.36.11-.71.11-1.03,0-1.41-1.09-2.41-3.26-2.99l.6-1.36c3.37,0,6.81-.49,10.33-1.47.22.22.27.62.16,1.2-.15.76-1,4.57-2.55,11.42,3.37-8.41,6.65-12.61,9.84-12.61,1.85,0,2.77.87,2.77,2.61Z"/>
        <path class="cls-1" d="M185.13,13.97c-.98,3.7-2.37,9.28-4.19,16.74-.29,1.34-.44,2.37-.44,3.1,0,1.16.33,1.74.98,1.74.47,0,1.23-.34,2.28-1.03v1.74c-3.03,2.46-5.43,3.7-7.19,3.7-2.06,0-3.1-1.05-3.14-3.15-.04-2.39.67-5.74,2.12-10.06h-.16c-1.45,3.08-3.08,5.71-4.89,7.88-2.57,3.08-5.11,4.62-7.61,4.62-1.6,0-2.85-.63-3.75-1.9-.76-1.12-1.14-2.54-1.14-4.24,0-5.04,1.38-9.46,4.13-13.26,3.04-4.24,6.99-6.36,11.85-6.36.72,0,1.6.2,2.64.6,1.03.4,1.57.6,1.6.6.29,0,.44-.24.44-.71h6.47ZM174.81,15.11c-2.68,0-5.07,2.3-7.17,6.9-1.78,3.91-2.66,7.41-2.66,10.49,0,1.7.49,2.55,1.47,2.55,1.2,0,2.66-1.27,4.4-3.8,1.23-1.81,2.26-3.66,3.1-5.54,1.67-3.81,2.5-6.61,2.5-8.43,0-1.45-.54-2.17-1.63-2.17Z"/>
        <path class="cls-1" d="M207.04,17.12c0,1.09-.58,2.34-1.74,3.75l-1.85-.92v-.82c.04-1.16-.35-2.18-1.17-3.07-.82-.89-1.77-1.33-2.85-1.33-.87,0-1.6.32-2.2.95-.6.63-.9,1.39-.9,2.26,0,.98.78,2.19,2.34,3.64,2.57,2.46,4,3.86,4.29,4.19,1.52,1.81,2.28,3.68,2.28,5.6,0,2.54-1.07,4.51-3.21,5.92-1.81,1.2-4.04,1.81-6.69,1.85-2.97.04-5.74-.82-8.32-2.55l1.47-5.76,2.72.98c.29,3.91,1.77,5.87,4.46,5.87.94,0,1.78-.34,2.53-1.03.74-.69,1.11-1.5,1.11-2.45,0-1.09-.8-2.39-2.39-3.91-1.45-1.41-2.92-2.81-4.4-4.19-1.59-1.78-2.39-3.5-2.39-5.16,0-2.54,1.1-4.49,3.32-5.87,1.85-1.16,4.13-1.74,6.85-1.74,1.56,0,2.97.25,4.24.76,1.67.69,2.5,1.7,2.5,3.04Z"/>
        <path class="cls-1" d="M247.26,22.94c0,4.2-1.43,7.92-4.3,11.14-2.98,3.33-6.56,5-10.73,5-2.83,0-5.18-.91-7.03-2.72-1.85-1.81-2.78-4.13-2.78-6.96,0-4.2,1.47-7.94,4.41-11.2,2.94-3.26,6.5-4.89,10.68-4.89,2.87,0,5.21.89,7.03,2.66,1.82,1.78,2.72,4.1,2.72,6.96ZM240.41,20.49c0-3.8-1.14-5.71-3.41-5.71s-4.17,2.32-5.79,6.96c-1.3,3.73-1.95,6.99-1.95,9.78,0,4.1,1.14,6.14,3.41,6.14s4.17-2.39,5.79-7.17c1.3-3.81,1.95-7.14,1.95-10Z"/>
        <path class="cls-1" d="M275.85,21.29c0,4.26-1.32,8.17-3.97,11.74-2.86,3.93-6.34,5.9-10.44,5.9-1.45,0-2.95-.51-4.51-1.52-.36,1.41-.73,2.83-1.09,4.24-.43,1.7-.65,3.12-.65,4.24,0,.83.38,1.45,1.14,1.85.22.11.94.36,2.17.76l-.49,1.36c-3.33-.15-5.85-.22-7.56-.22-1.52,0-3.81.07-6.85.22l-.05-1.36c1.81-.47,2.9-.83,3.26-1.09.83-.51,1.39-1.49,1.69-2.94l5.16-24.24c.07-.4.11-.76.11-1.09,0-.94-.34-1.63-1.03-2.07-.4-.29-1.14-.58-2.23-.87l.6-1.36c3.37,0,6.81-.49,10.33-1.47.14.47.2.89.16,1.25-.11,1.01-.22,1.85-.33,2.5,2.25-2.5,4.73-3.75,7.45-3.75,2.32,0,4.11.75,5.38,2.24,1.16,1.42,1.74,3.31,1.74,5.68ZM269,20.9c0-2.99-1.18-4.48-3.55-4.48-.62,0-1.36.3-2.21.9-.86.6-1.52,1.21-1.99,1.83-.25.33-.9,2.75-1.94,7.27-1.04,4.52-1.56,7.1-1.56,7.76,0,1.93.96,2.9,2.89,2.9,2.4,0,4.48-2.17,6.23-6.5,1.42-3.57,2.13-6.79,2.13-9.67Z"/>
        <path class="cls-1" d="M299.55,16.8c0,1.12-.67,2.48-2.01,4.08l-1.9-.92c.14-.33.22-.74.22-1.25,0-.94-.27-1.81-.82-2.61-.65-.83-1.43-1.25-2.34-1.25-2.17,0-4,1.99-5.49,5.98-1.16,3.23-1.74,6.16-1.74,8.81,0,4.53,1.47,6.79,4.4,6.79s5.53-1.99,7.56-5.98l.92.16c-1.81,5.62-5.53,8.42-11.14,8.42-2.75,0-4.96-.78-6.6-2.34-1.65-1.56-2.47-3.71-2.47-6.47,0-4.38,1.5-8.29,4.51-11.71,3.01-3.42,6.69-5.14,11.03-5.14,1.41,0,2.66.22,3.75.65,1.41.62,2.12,1.54,2.12,2.77Z"/>
        <path class="cls-1" d="M316.07,14.62c-.51,2.39-1.69,7.68-3.53,15.87-.36,1.56-.54,2.7-.54,3.42,0,1.12.33,1.72.98,1.79.36.04,1.16-.36,2.39-1.2v1.79c-2.75,2.25-5.2,3.37-7.34,3.37-1.12,0-1.92-.18-2.39-.54-.47-.36-.71-1.11-.71-2.23,0-2.07.4-4.91,1.2-8.53.69-2.72,1.36-5.44,2.01-8.15.07-.36.11-.71.11-1.03,0-1.41-1.09-2.41-3.26-2.99l.6-1.36c3.37,0,6.81-.49,10.33-1.47.22.29.27.71.16,1.25ZM317.32,6.25c0,1.12-.42,2.11-1.25,2.96-.83.85-1.81,1.28-2.94,1.28-.91,0-1.65-.31-2.23-.92-.58-.62-.87-1.38-.87-2.28,0-1.09.42-2.06,1.25-2.91.83-.85,1.79-1.28,2.88-1.28.94,0,1.7.29,2.28.87.58.58.87,1.34.87,2.28Z"/>
        <path class="cls-1" d="M344.88,22.94c0,4.2-1.43,7.92-4.3,11.14-2.98,3.33-6.56,5-10.73,5-2.83,0-5.18-.91-7.03-2.72-1.85-1.81-2.78-4.13-2.78-6.96,0-4.2,1.47-7.94,4.41-11.2,2.94-3.26,6.5-4.89,10.68-4.89,2.87,0,5.21.89,7.03,2.66,1.82,1.78,2.72,4.1,2.72,6.96ZM338.03,20.49c0-3.8-1.14-5.71-3.41-5.71s-4.17,2.32-5.79,6.96c-1.3,3.73-1.95,6.99-1.95,9.78,0,4.1,1.14,6.14,3.41,6.14s4.17-2.39,5.79-7.17c1.3-3.81,1.95-7.14,1.95-10Z"/>
        <path class="cls-1" d="M375.7,16.97c0,1.02-.47,3.2-1.41,6.54-1.27,4.58-1.92,6.9-1.96,6.97-.43,1.85-.65,3.07-.65,3.65,0,1.05.36,1.58,1.09,1.58.51,0,1.3-.4,2.39-1.2v1.79c-2.75,2.25-5.22,3.37-7.39,3.37-1.16,0-1.97-.2-2.42-.6-.45-.4-.68-1.18-.68-2.34,0-2.07.59-5.1,1.77-9.1,1.18-4,1.77-6.96,1.77-8.88,0-1.05-.38-1.58-1.14-1.58-1.67,0-3.88,2.45-6.63,7.36-1.45,2.58-3.1,7.34-4.95,14.28l-6.79-.54,3.97-18.05c.07-.36.11-.69.11-.98,0-1.45-1.09-2.46-3.26-3.04l.6-1.36c3.37,0,6.81-.49,10.33-1.47.14.54.2.94.16,1.2-.11.69-.96,4.49-2.55,11.42,2.07-3.68,3.88-6.39,5.44-8.13,2.68-2.98,5.42-4.48,8.21-4.48,1.16,0,2.12.31,2.88.93.76.62,1.14,1.51,1.14,2.67Z"/>
        <path class="cls-1" d="M401.3,19.24c0,2.97-1.76,5.2-5.27,6.69-1.88.83-4.93,1.56-9.13,2.17-.11,1.52-.16,2.32-.16,2.39,0,1.52.44,2.9,1.3,4.13.94,1.38,2.14,2.07,3.59,2.07,1.34,0,2.74-.67,4.19-2.01,1.27-1.16,2.23-2.45,2.88-3.86l.98.22c-1.96,5.33-5.73,7.99-11.31,7.99-2.54,0-4.6-.77-6.2-2.31-1.59-1.54-2.39-3.58-2.39-6.12,0-4.31,1.47-8.23,4.4-11.74,3.04-3.66,6.69-5.49,10.93-5.49,1.78,0,3.25.54,4.43,1.6,1.18,1.07,1.77,2.49,1.77,4.27ZM396.41,17.23c0-1.59-.63-2.39-1.9-2.39-1.78,0-3.44,1.58-5,4.73-1.09,2.25-1.88,4.64-2.39,7.17,2.32-.18,4.45-1.24,6.39-3.18s2.91-4.05,2.91-6.33Z"/>
        <path class="cls-1" d="M422.72,17.12c0,1.09-.58,2.34-1.74,3.75l-1.85-.92v-.82c.04-1.16-.35-2.18-1.17-3.07-.82-.89-1.77-1.33-2.85-1.33-.87,0-1.6.32-2.2.95-.6.63-.9,1.39-.9,2.26,0,.98.78,2.19,2.34,3.64,2.57,2.46,4,3.86,4.29,4.19,1.52,1.81,2.28,3.68,2.28,5.6,0,2.54-1.07,4.51-3.21,5.92-1.81,1.2-4.04,1.81-6.69,1.85-2.97.04-5.74-.82-8.32-2.55l1.47-5.76,2.72.98c.29,3.91,1.77,5.87,4.46,5.87.94,0,1.78-.34,2.53-1.03.74-.69,1.11-1.5,1.11-2.45,0-1.09-.8-2.39-2.39-3.91-1.45-1.41-2.92-2.81-4.4-4.19-1.6-1.78-2.39-3.5-2.39-5.16,0-2.54,1.1-4.49,3.32-5.87,1.85-1.16,4.13-1.74,6.85-1.74,1.56,0,2.97.25,4.24.76,1.67.69,2.5,1.7,2.5,3.04Z"/>
        <path class="cls-1" d="M467.23,1.25c-1.41,6.49-3.53,16.24-6.36,29.24-.29,1.41-.43,2.5-.43,3.26,0,1.2.31,1.85.92,1.96.4.07,1.2-.33,2.39-1.2v1.79c-2.9,2.28-5.33,3.42-7.28,3.42-1.23,0-2.07-.22-2.5-.65s-.65-1.27-.65-2.5c-.04-2.14.43-4.96,1.41-8.48-1.99,3.23-3.61,5.54-4.84,6.96-2.39,2.65-4.73,3.97-7.01,3.97-1.7,0-3.01-.74-3.91-2.23-.76-1.23-1.14-2.75-1.14-4.57,0-4.53,1.45-8.7,4.35-12.5,3.15-4.13,6.92-6.2,11.31-6.2,1.49,0,2.79.42,3.91,1.25l1.63-7.94c.07-.4.11-.76.11-1.09,0-.94-.34-1.65-1.03-2.12-.4-.25-1.16-.53-2.28-.82l.6-1.36c3.59,0,7.14-.49,10.65-1.47.22.29.27.71.16,1.25ZM456.74,17.98c0-1.88-.76-2.82-2.28-2.82-2.65,0-4.98,2.24-7.01,6.72-1.74,3.83-2.61,7.26-2.61,10.3,0,2.06.58,3.09,1.74,3.09,2.07,0,4.33-2.38,6.79-7.16,2.25-4.37,3.37-7.75,3.37-10.14Z"/>
        <path class="cls-1" d="M489.14,19.24c0,2.97-1.76,5.2-5.27,6.69-1.88.83-4.93,1.56-9.13,2.17-.11,1.52-.16,2.32-.16,2.39,0,1.52.44,2.9,1.3,4.13.94,1.38,2.14,2.07,3.59,2.07,1.34,0,2.74-.67,4.19-2.01,1.27-1.16,2.23-2.45,2.88-3.86l.98.22c-1.96,5.33-5.73,7.99-11.31,7.99-2.54,0-4.6-.77-6.2-2.31-1.59-1.54-2.39-3.58-2.39-6.12,0-4.31,1.47-8.23,4.4-11.74,3.04-3.66,6.69-5.49,10.93-5.49,1.78,0,3.25.54,4.43,1.6,1.18,1.07,1.77,2.49,1.77,4.27ZM484.25,17.23c0-1.59-.63-2.39-1.9-2.39-1.78,0-3.44,1.58-5,4.73-1.09,2.25-1.88,4.64-2.39,7.17,2.32-.18,4.45-1.24,6.39-3.18s2.91-4.05,2.91-6.33Z"/>
        <path class="cls-1" d="M533.17,1.25c-1.41,6.49-3.53,16.24-6.36,29.24-.29,1.41-.43,2.5-.43,3.26,0,1.2.31,1.85.92,1.96.4.07,1.2-.33,2.39-1.2v1.79c-2.9,2.28-5.33,3.42-7.28,3.42-1.23,0-2.07-.22-2.5-.65s-.65-1.27-.65-2.5c-.04-2.14.43-4.96,1.41-8.48-1.99,3.23-3.61,5.54-4.84,6.96-2.39,2.65-4.73,3.97-7.01,3.97-1.7,0-3.01-.74-3.91-2.23-.76-1.23-1.14-2.75-1.14-4.57,0-4.53,1.45-8.7,4.35-12.5,3.15-4.13,6.92-6.2,11.31-6.2,1.49,0,2.79.42,3.91,1.25l1.63-7.94c.07-.4.11-.76.11-1.09,0-.94-.34-1.65-1.03-2.12-.4-.25-1.16-.53-2.28-.82l.6-1.36c3.59,0,7.14-.49,10.65-1.47.22.29.27.71.16,1.25ZM522.68,17.98c0-1.88-.76-2.82-2.28-2.82-2.65,0-4.98,2.24-7.01,6.72-1.74,3.83-2.61,7.26-2.61,10.3,0,2.06.58,3.09,1.74,3.09,2.07,0,4.33-2.38,6.79-7.16,2.25-4.37,3.37-7.75,3.37-10.14Z"/>
        <path class="cls-1" d="M555.07,19.24c0,2.97-1.76,5.2-5.27,6.69-1.88.83-4.93,1.56-9.13,2.17-.11,1.52-.16,2.32-.16,2.39,0,1.52.44,2.9,1.3,4.13.94,1.38,2.14,2.07,3.59,2.07,1.34,0,2.74-.67,4.19-2.01,1.27-1.16,2.23-2.45,2.88-3.86l.98.22c-1.96,5.33-5.73,7.99-11.31,7.99-2.54,0-4.6-.77-6.2-2.31-1.59-1.54-2.39-3.58-2.39-6.12,0-4.31,1.47-8.23,4.4-11.74,3.04-3.66,6.69-5.49,10.93-5.49,1.78,0,3.25.54,4.43,1.6,1.18,1.07,1.77,2.49,1.77,4.27ZM550.18,17.23c0-1.59-.63-2.39-1.9-2.39-1.78,0-3.44,1.58-5,4.73-1.09,2.25-1.88,4.64-2.39,7.17,2.32-.18,4.45-1.24,6.39-3.18s2.91-4.05,2.91-6.33Z"/>
        <path class="cls-1" d="M576.49,17.12c0,1.09-.58,2.34-1.74,3.75l-1.85-.92v-.82c.04-1.16-.35-2.18-1.17-3.07-.82-.89-1.77-1.33-2.85-1.33-.87,0-1.6.32-2.2.95-.6.63-.9,1.39-.9,2.26,0,.98.78,2.19,2.34,3.64,2.57,2.46,4,3.86,4.29,4.19,1.52,1.81,2.28,3.68,2.28,5.6,0,2.54-1.07,4.51-3.21,5.92-1.81,1.2-4.04,1.81-6.69,1.85-2.97.04-5.74-.82-8.32-2.55l1.47-5.76,2.72.98c.29,3.91,1.77,5.87,4.46,5.87.94,0,1.78-.34,2.53-1.03.74-.69,1.11-1.5,1.11-2.45,0-1.09-.8-2.39-2.39-3.91-1.45-1.41-2.92-2.81-4.4-4.19-1.6-1.78-2.39-3.5-2.39-5.16,0-2.54,1.1-4.49,3.32-5.87,1.85-1.16,4.13-1.74,6.85-1.74,1.56,0,2.97.25,4.24.76,1.67.69,2.5,1.7,2.5,3.04Z"/>
        <path class="cls-1" d="M600.73,16.8c0,1.12-.67,2.48-2.01,4.08l-1.9-.92c.14-.33.22-.74.22-1.25,0-.94-.27-1.81-.82-2.61-.65-.83-1.43-1.25-2.34-1.25-2.17,0-4,1.99-5.49,5.98-1.16,3.23-1.74,6.16-1.74,8.81,0,4.53,1.47,6.79,4.4,6.79s5.53-1.99,7.56-5.98l.92.16c-1.81,5.62-5.53,8.42-11.14,8.42-2.75,0-4.96-.78-6.6-2.34-1.65-1.56-2.47-3.71-2.47-6.47,0-4.38,1.5-8.29,4.51-11.71,3.01-3.42,6.69-5.14,11.03-5.14,1.41,0,2.66.22,3.75.65,1.41.62,2.12,1.54,2.12,2.77Z"/>
        <path class="cls-1" d="M630.19,13.97c-.98,3.7-2.37,9.28-4.19,16.74-.29,1.34-.43,2.37-.43,3.1,0,1.16.33,1.74.98,1.74.47,0,1.23-.34,2.28-1.03v1.74c-3.03,2.46-5.43,3.7-7.19,3.7-2.05,0-3.1-1.05-3.14-3.15-.04-2.39.67-5.74,2.12-10.06h-.16c-1.45,3.08-3.08,5.71-4.89,7.88-2.57,3.08-5.11,4.62-7.61,4.62-1.59,0-2.84-.63-3.75-1.9-.76-1.12-1.14-2.54-1.14-4.24,0-5.04,1.38-9.46,4.13-13.26,3.04-4.24,6.99-6.36,11.85-6.36.72,0,1.6.2,2.64.6,1.03.4,1.57.6,1.6.6.29,0,.44-.24.44-.71h6.47ZM619.86,15.11c-2.68,0-5.07,2.3-7.17,6.9-1.78,3.91-2.66,7.41-2.66,10.49,0,1.7.49,2.55,1.47,2.55,1.2,0,2.66-1.27,4.4-3.8,1.23-1.81,2.26-3.66,3.1-5.54,1.67-3.81,2.5-6.61,2.5-8.43,0-1.45-.54-2.17-1.63-2.17Z"/>
        <path class="cls-1" d="M661.17,16.97c0,1.02-.47,3.2-1.41,6.54-1.27,4.58-1.92,6.9-1.96,6.97-.43,1.85-.65,3.07-.65,3.65,0,1.05.36,1.58,1.09,1.58.51,0,1.3-.4,2.39-1.2v1.79c-2.75,2.25-5.22,3.37-7.39,3.37-1.16,0-1.97-.2-2.42-.6-.45-.4-.68-1.18-.68-2.34,0-2.07.59-5.1,1.77-9.1,1.18-4,1.77-6.96,1.77-8.88,0-1.05-.38-1.58-1.14-1.58-1.67,0-3.88,2.45-6.63,7.36-1.45,2.58-3.1,7.34-4.95,14.28l-6.79-.54,3.97-18.05c.07-.36.11-.69.11-.98,0-1.45-1.09-2.46-3.26-3.04l.6-1.36c3.37,0,6.81-.49,10.33-1.47.14.54.2.94.16,1.2-.11.69-.96,4.49-2.55,11.42,2.07-3.68,3.88-6.39,5.44-8.13,2.68-2.98,5.42-4.48,8.21-4.48,1.16,0,2.12.31,2.88.93.76.62,1.14,1.51,1.14,2.67Z"/>
        <path class="cls-1" d="M684.6,17.12c0,1.09-.58,2.34-1.74,3.75l-1.85-.92v-.82c.04-1.16-.35-2.18-1.17-3.07-.82-.89-1.77-1.33-2.85-1.33-.87,0-1.6.32-2.2.95-.6.63-.9,1.39-.9,2.26,0,.98.78,2.19,2.34,3.64,2.57,2.46,4,3.86,4.29,4.19,1.52,1.81,2.28,3.68,2.28,5.6,0,2.54-1.07,4.51-3.21,5.92-1.81,1.2-4.04,1.81-6.69,1.85-2.97.04-5.74-.82-8.32-2.55l1.47-5.76,2.72.98c.29,3.91,1.77,5.87,4.46,5.87.94,0,1.78-.34,2.53-1.03.74-.69,1.11-1.5,1.11-2.45,0-1.09-.8-2.39-2.39-3.91-1.45-1.41-2.92-2.81-4.4-4.19-1.6-1.78-2.39-3.5-2.39-5.16,0-2.54,1.1-4.49,3.32-5.87,1.85-1.16,4.13-1.74,6.85-1.74,1.56,0,2.97.25,4.24.76,1.67.69,2.5,1.7,2.5,3.04Z"/>
        <path class="cls-1" d="M712.1,22.94c0,4.2-1.43,7.92-4.3,11.14-2.98,3.33-6.56,5-10.73,5-2.83,0-5.18-.91-7.03-2.72-1.85-1.81-2.78-4.13-2.78-6.96,0-4.2,1.47-7.94,4.41-11.2,2.94-3.26,6.5-4.89,10.68-4.89,2.87,0,5.21.89,7.03,2.66,1.82,1.78,2.72,4.1,2.72,6.96ZM705.26,20.49c0-3.8-1.14-5.71-3.41-5.71s-4.17,2.32-5.79,6.96c-1.3,3.73-1.95,6.99-1.95,9.78,0,4.1,1.14,6.14,3.41,6.14s4.17-2.39,5.79-7.17c1.3-3.81,1.95-7.14,1.95-10Z"/>
      </g>
    </g>
  </g>
</svg>