<?xml version="1.0" encoding="UTF-8"?>
<svg id="Capa_2" data-name="Capa 2" xmlns="http://www.w3.org/2000/svg" viewBox="0 0 1312.84 51.17">
  <defs>
    <style>
      .cls-1 {
        fill: #344021;
      }
    </style>
  </defs>
  <g id="Slide_4" data-name="Slide 4">
    <g>
      <path class="cls-1" d="M.29,36.5h.95c1.01,0,1.73-.29,2.16-.87.43-.58.88-2.18,1.33-4.82l3.44-20.24c.06-.44.11-.83.15-1.17.03-.34.05-.62.05-.83,0-.72-.2-1.23-.61-1.54-.41-.31-1.08-.46-2.03-.46h-.44l.29-1.71c2.18.08,4.19.14,6.03.18,1.84.04,3.6.06,5.27.06,1.03,0,4.42-.06,10.18-.2l1.66-.05c-.26,1.04-.48,2.14-.67,3.28-.19,1.15-.33,2.34-.43,3.58l-1.86.07c.02-.13.03-.26.04-.4,0-.14.01-.35.01-.62,0-1.35-.44-2.27-1.31-2.75-.87-.48-3.15-.72-6.85-.72h-1.29c-.42,0-.89,0-1.39.02-.5.02-1.16.05-1.95.1-.36,1.99-.71,3.99-1.06,6.02-.35,2.03-.7,4.06-1.04,6.12.11,0,.29,0,.54.02,1.9.08,3.57.12,5,.12h.76c2.47,0,4.04-.22,4.7-.66s1.09-1.27,1.31-2.49l1.59.37c-.41,1.43-.73,2.85-.98,4.26-.24,1.41-.4,2.8-.46,4.19l-1.71.1c.02-.08.02-.18.02-.29.05-.5.07-.85.07-1.05,0-.93-.33-1.55-.98-1.86-.65-.31-2.44-.46-5.37-.46h-.63c-.68,0-1.36,0-2.04.02-.68.02-1.4.04-2.16.07-.47,2.56-.89,4.93-1.26,7.13s-.68,4.29-.94,6.27c1.07.13,2.18.22,3.31.28,1.13.06,2.64.09,4.53.09,3.03,0,5.04-.34,6.05-1.03,1.01-.68,1.79-2.09,2.34-4.22l1.71.29c-.44,1.5-.79,2.84-1.04,4.03-.25,1.19-.44,2.31-.57,3.37-2.6-.1-5.02-.17-7.25-.22-2.23-.05-4.3-.07-6.2-.07-1.43,0-2.96.02-4.59.06-1.63.04-3.86.12-6.69.23l.29-1.61Z"/>
      <path class="cls-1" d="M45.4,18.55l-1.37,1.29-.17-.15c-1.86-1.69-3.26-2.54-4.22-2.54s-1.67.27-2.26.82c-.59.54-.89,1.24-.89,2.09,0,1.3,1.13,2.9,3.39,4.79.28.23.48.4.61.51,1.68,1.43,2.78,2.56,3.31,3.37.53.81.79,1.69.79,2.64,0,1.81-.89,3.49-2.67,5.05s-3.81,2.34-6.09,2.34c-1.61,0-2.95-.28-4-.83-1.06-.55-1.59-1.23-1.59-2.03,0-.31.05-.58.15-.81.1-.23.32-.51.66-.85l1.29-1.2c1.07,1.19,1.97,2.02,2.69,2.49.72.47,1.42.71,2.1.71,1.03,0,1.9-.35,2.62-1.04.72-.69,1.09-1.51,1.09-2.45,0-1.07-1.12-2.6-3.34-4.59-.59-.52-1.03-.93-1.34-1.22-1.3-1.17-2.2-2.15-2.69-2.93s-.73-1.57-.73-2.37c0-1.74.88-3.37,2.65-4.88s3.7-2.27,5.8-2.27c1.4,0,2.57.26,3.5.78.94.52,1.4,1.13,1.4,1.83,0,.28-.06.53-.17.77-.11.24-.29.46-.51.67Z"/>
      <path class="cls-1" d="M64.93,18.7l-1.29,1.27c-1.07-1.09-1.93-1.81-2.58-2.17-.64-.36-1.3-.54-1.96-.54-1.5,0-2.8,1.11-3.91,3.33-1.11,2.22-1.66,4.96-1.66,8.22,0,2.18.28,3.83.85,4.93.57,1.11,1.41,1.66,2.51,1.66.62,0,1.46-.35,2.54-1.06,1.07-.71,2.21-1.68,3.39-2.92l1,1.73c-1.89,2-3.5,3.45-4.83,4.33-1.33.89-2.56,1.33-3.66,1.33-1.76,0-3.16-.76-4.21-2.29-1.05-1.53-1.57-3.6-1.57-6.2,0-4.46,1.14-8.22,3.43-11.28,2.29-3.06,5.11-4.59,8.46-4.59,1.22,0,2.27.26,3.14.78.87.52,1.31,1.12,1.31,1.78,0,.26-.07.52-.21.78-.14.26-.39.56-.74.9Z"/>
      <path class="cls-1" d="M80.62,14.5c2.42,0,4.27.75,5.53,2.26,1.26,1.5,1.89,3.71,1.89,6.6,0,1.66-.33,3.43-.98,5.31-.65,1.88-1.53,3.58-2.64,5.09-1.19,1.63-2.54,2.88-4.04,3.75-1.51.87-3.09,1.31-4.75,1.31-2.18,0-3.92-.79-5.21-2.37-1.29-1.58-1.94-3.69-1.94-6.35,0-1.97.32-3.89.95-5.76.63-1.87,1.55-3.56,2.73-5.08,1.17-1.51,2.5-2.69,3.99-3.52s2.97-1.25,4.46-1.25ZM79.57,16.87c-1.89,0-3.52,1.3-4.88,3.89s-2.05,5.79-2.05,9.58c0,2,.35,3.54,1.04,4.6.69,1.06,1.7,1.59,3.02,1.59,1.99,0,3.67-1.27,5.07-3.83s2.09-5.68,2.09-9.38c0-2.2-.35-3.83-1.05-4.88-.7-1.05-1.77-1.58-3.22-1.58Z"/>
      <path class="cls-1" d="M100.92,20.17l-2.15,14.4c-.36,2.49-.74,4.54-1.15,6.14-.41,1.6-.87,2.9-1.39,3.89-1.06,2.03-2.41,3.64-4.04,4.81s-3.34,1.76-5.11,1.76c-.96,0-1.77-.22-2.44-.66s-1-.98-1-1.61c0-.36.06-.66.18-.92.12-.25.35-.52.67-.82l1.05-.95c.67.8,1.29,1.37,1.88,1.72.59.35,1.2.53,1.86.53,1.2,0,2.16-.66,2.86-1.99.7-1.33,1.42-4.15,2.15-8.46l1-5.59c.55-3.27,1.02-6.18,1.39-8.73.37-2.55.56-3.99.56-4.33,0-.39-.09-.7-.27-.94-.18-.24-.41-.35-.68-.35-.31,0-1.06.35-2.25,1.05-.33.2-.58.34-.76.44l-.76-1.39,2.81-1.86c.96-.62,1.75-1.07,2.38-1.37s1.15-.44,1.58-.44c.63,0,1.12.23,1.45.68.33.46.5,1.12.5,1.98,0,.39-.02.84-.07,1.34-.05.5-.13,1.06-.24,1.66ZM101.44,1.1l1.39,1.56c.39.41.66.77.82,1.09.15.32.23.64.23.96,0,.34-.12.67-.35.98-.24.31-.58.6-1.04.88l-2.15,1.2-1.56-1.86c-.33-.41-.54-.73-.63-.96-.1-.24-.15-.48-.15-.75,0-.37.1-.7.29-.99.2-.28.53-.56,1-.84l2.15-1.27Z"/>
      <path class="cls-1" d="M128.55,34.01l-1.56,1.51c-1.16,1.16-2.08,1.96-2.77,2.4-.69.45-1.31.67-1.87.67-.83,0-1.49-.35-1.98-1.06-.49-.71-.73-1.68-.73-2.92,0-.47.02-.96.05-1.46.03-.5.08-1.02.15-1.54-3.06,2.96-5.2,4.87-6.41,5.71s-2.23,1.27-3.04,1.27c-1.24,0-2.17-.54-2.8-1.61s-.94-2.67-.94-4.79c0-1.92.25-3.77.74-5.55.5-1.78,1.22-3.46,2.19-5.04,1.38-2.21,2.97-3.91,4.77-5.08s3.71-1.76,5.73-1.76c.44,0,.92.04,1.44.13.52.09,1.07.22,1.66.4l3.42-1.44c-.96,4.59-1.73,8.71-2.29,12.35-.57,3.65-.85,6.04-.85,7.18,0,.52.08.91.26,1.17.17.26.44.39.79.39.26,0,.61-.16,1.05-.49.44-.33,1.17-.98,2.2-1.95l.81,1.49ZM120.03,28.91c.29-1.48.59-3.1.89-4.85.3-1.75.62-3.73.96-5.94-.75-.42-1.36-.71-1.82-.87-.46-.16-.92-.23-1.38-.23-2.1,0-3.95,1.42-5.54,4.25-1.6,2.83-2.39,6.18-2.39,10.03,0,1.22.13,2.14.4,2.75.27.61.68.92,1.23.92s1.48-.5,2.73-1.49c1.25-.99,2.89-2.51,4.91-4.57Z"/>
      <path class="cls-1" d="M154.28,25.42l-7.46,3.86v.24c0,1.94.3,3.41.92,4.42.61,1.01,1.49,1.51,2.65,1.51.68,0,1.54-.31,2.58-.92,1.03-.61,2.36-1.6,3.97-2.97l.85,1.54c-2.33,2.15-4.18,3.64-5.55,4.47s-2.62,1.25-3.75,1.25c-1.71,0-3.1-.74-4.17-2.22-1.06-1.48-1.6-3.43-1.6-5.83,0-1.71.28-3.54.84-5.5.56-1.96,1.29-3.67,2.19-5.14,1.12-1.79,2.41-3.17,3.86-4.15,1.45-.98,2.95-1.46,4.49-1.46s2.9.5,3.97,1.5c1.07,1,1.6,2.22,1.6,3.65,0,1.16-.32,2.11-.96,2.87-.64.76-2.12,1.72-4.42,2.89ZM146.95,27.1l.24-.12c5.78-2.96,8.67-5.25,8.67-6.86,0-.86-.31-1.61-.93-2.25s-1.34-.95-2.17-.95c-1.28,0-2.43.89-3.46,2.66-1.02,1.77-1.81,4.28-2.36,7.52Z"/>
      <path class="cls-1" d="M173.02,34.11l-2.27,2.15c-1.03.98-1.83,1.65-2.42,2.01-.59.37-1.11.55-1.56.55-.94,0-1.67-.35-2.16-1.05s-.74-1.72-.74-3.05c0-1.09.37-3.51,1.1-7.25.41-2.07.72-3.7.95-4.91l1-5.49c.63-3.56,1.13-6.45,1.48-8.67.35-2.21.53-3.56.53-4.03,0-.52-.12-.9-.37-1.15s-.63-.37-1.15-.37c-.1,0-.29,0-.59.02-.29.02-.53.02-.71.02l-.15-1.34c1.06-.15,2.22-.35,3.49-.6,1.27-.25,2.76-.57,4.47-.96-1.77,8.87-3.23,16.5-4.36,22.88-1.13,6.38-1.7,9.99-1.7,10.84,0,.46.08.82.26,1.09.17.27.4.4.7.4.18,0,.42-.09.71-.27.29-.18.65-.46,1.07-.83l1.66-1.34.76,1.34Z"/>
      <path class="cls-1" d="M210.33,34.01l-1.56,1.51c-1.16,1.16-2.08,1.96-2.77,2.4-.69.45-1.31.67-1.87.67-.83,0-1.49-.35-1.98-1.06-.49-.71-.73-1.68-.73-2.92,0-.47.02-.96.05-1.46.03-.5.08-1.02.15-1.54-3.06,2.96-5.2,4.87-6.41,5.71s-2.23,1.27-3.04,1.27c-1.24,0-2.17-.54-2.8-1.61s-.94-2.67-.94-4.79c0-1.92.25-3.77.74-5.55.5-1.78,1.22-3.46,2.19-5.04,1.38-2.21,2.97-3.91,4.77-5.08s3.71-1.76,5.73-1.76c.44,0,.92.04,1.44.13.52.09,1.07.22,1.66.4l3.42-1.44c-.96,4.59-1.73,8.71-2.29,12.35-.57,3.65-.85,6.04-.85,7.18,0,.52.08.91.26,1.17.17.26.44.39.79.39.26,0,.61-.16,1.05-.49.44-.33,1.17-.98,2.2-1.95l.81,1.49ZM201.81,28.91c.29-1.48.59-3.1.89-4.85.3-1.75.62-3.73.96-5.94-.75-.42-1.36-.71-1.82-.87-.46-.16-.92-.23-1.38-.23-2.1,0-3.95,1.42-5.54,4.25-1.6,2.83-2.39,6.18-2.39,10.03,0,1.22.13,2.14.4,2.75.27.61.68.92,1.23.92s1.48-.5,2.73-1.49c1.25-.99,2.89-2.51,4.91-4.57ZM204.72,1.27l3.74,1.93-8.54,8.62-1.59-.85,6.4-9.69Z"/>
      <path class="cls-1" d="M213.99,38.77c1.03-4.23,1.82-7.97,2.39-11.22.57-3.25.85-5.69.85-7.34,0-.7-.1-1.22-.31-1.58-.2-.35-.5-.52-.89-.52-.29,0-1.12.42-2.47,1.27l-.2.12-.85-1.39.37-.27c2.93-2.2,4.83-3.3,5.69-3.3.8,0,1.37.26,1.72.77.35.51.53,1.36.53,2.55,0,1.04-.03,2.01-.1,2.92-.07.9-.16,1.68-.29,2.33,2.23-3.68,3.82-6.03,4.76-7.04.94-1.02,1.82-1.53,2.64-1.53.55,0,1.02.2,1.39.61.37.41.56.9.56,1.49,0,.36-.09.79-.28,1.31-.19.51-.58,1.36-1.18,2.55-.29-.41-.59-.71-.9-.9-.31-.2-.62-.29-.93-.29-.6,0-1.31.42-2.14,1.26-.82.84-2.11,2.52-3.87,5.04-.55,2.25-1.02,4.38-1.39,6.41-.38,2.03-.66,3.94-.85,5.75l-4.25,1Z"/>
      <path class="cls-1" d="M242.98,0c-.39,1.86-.74,3.59-1.05,5.2-.31,1.61-.56,3-.76,4.15l-1.83,10.72,2.64-2.42c1.56-1.4,2.76-2.32,3.6-2.77.84-.45,1.67-.67,2.5-.67,1.59,0,2.83.66,3.7,1.99.87,1.33,1.31,3.2,1.31,5.6,0,4.56-1.38,8.53-4.13,11.93-2.75,3.39-5.91,5.09-9.47,5.09-1.37,0-2.57-.31-3.6-.92-1.03-.61-1.93-1.56-2.7-2.84l4.64-28.44c.1-.59.17-1.07.22-1.44.05-.37.07-.66.07-.85,0-.54-.13-.92-.39-1.16-.26-.24-.68-.35-1.25-.35-.31,0-.55,0-.71.02-.16.02-.33.04-.49.07l-.15-1.34c1.14-.16,2.35-.37,3.62-.62,1.28-.25,2.68-.57,4.21-.94ZM237.54,34.35c.52.6,1.09,1.05,1.7,1.36.61.3,1.26.45,1.94.45,2.2,0,4.02-1.28,5.48-3.83,1.46-2.55,2.19-5.83,2.19-9.81,0-1.58-.21-2.77-.62-3.59-.42-.81-1.03-1.22-1.84-1.22-.62,0-1.5.38-2.64,1.15-1.14.77-2.69,2.02-4.66,3.76l-1.1,7.1c-.16.99-.28,1.86-.34,2.59-.07.73-.1,1.42-.1,2.05Z"/>
      <path class="cls-1" d="M268.88,14.5c2.42,0,4.27.75,5.53,2.26,1.26,1.5,1.89,3.71,1.89,6.6,0,1.66-.33,3.43-.98,5.31-.65,1.88-1.53,3.58-2.64,5.09-1.19,1.63-2.54,2.88-4.04,3.75-1.51.87-3.09,1.31-4.75,1.31-2.18,0-3.92-.79-5.21-2.37-1.29-1.58-1.94-3.69-1.94-6.35,0-1.97.32-3.89.95-5.76.63-1.87,1.55-3.56,2.73-5.08,1.17-1.51,2.5-2.69,3.99-3.52s2.97-1.25,4.46-1.25ZM267.83,16.87c-1.89,0-3.52,1.3-4.88,3.89s-2.05,5.79-2.05,9.58c0,2,.35,3.54,1.04,4.6.69,1.06,1.7,1.59,3.02,1.59,1.99,0,3.67-1.27,5.07-3.83s2.09-5.68,2.09-9.38c0-2.2-.35-3.83-1.05-4.88-.7-1.05-1.77-1.58-3.22-1.58Z"/>
      <path class="cls-1" d="M290.5,34.11l-2.27,2.15c-1.03.98-1.83,1.65-2.42,2.01-.59.37-1.11.55-1.56.55-.94,0-1.67-.35-2.16-1.05s-.74-1.72-.74-3.05c0-1.09.37-3.51,1.1-7.25.41-2.07.72-3.7.95-4.91l1-5.49c.63-3.56,1.13-6.45,1.48-8.67.35-2.21.53-3.56.53-4.03,0-.52-.12-.9-.37-1.15s-.63-.37-1.15-.37c-.1,0-.29,0-.59.02-.29.02-.53.02-.71.02l-.15-1.34c1.06-.15,2.22-.35,3.49-.6,1.27-.25,2.76-.57,4.47-.96-1.77,8.87-3.23,16.5-4.36,22.88-1.13,6.38-1.7,9.99-1.7,10.84,0,.46.08.82.26,1.09.17.27.4.4.7.4.18,0,.42-.09.71-.27.29-.18.65-.46,1.07-.83l1.66-1.34.76,1.34Z"/>
      <path class="cls-1" d="M315.86,32.57l.85,1.44c-2,2.07-3.39,3.39-4.17,3.96s-1.47.85-2.08.85c-.86,0-1.55-.36-2.08-1.09-.52-.72-.78-1.7-.78-2.92,0-1.53.48-4.08,1.45-7.67.97-3.58,1.45-6.16,1.45-7.74,0-.41-.1-.73-.29-.98s-.45-.37-.76-.37c-.26,0-.6.11-1.03.32-.42.21-.95.54-1.59.98l-.73-1.29,3.25-2.37c.62-.46,1.16-.79,1.61-.99.46-.2.89-.31,1.29-.31.76,0,1.37.31,1.82.94.45.63.67,1.49.67,2.58,0,1.19-.42,3.52-1.27,6.98l-.44,1.76c-.46,1.84-.8,3.36-1.04,4.57-.24,1.21-.35,2.04-.35,2.49,0,.41.09.74.27,1,.18.26.41.39.68.39.26,0,.6-.16,1.03-.49.42-.33,1.16-1.01,2.22-2.05ZM315.66,1.1l1.39,1.56c.39.41.66.77.82,1.09.15.32.23.64.23.96,0,.34-.12.67-.35.98-.24.31-.58.6-1.04.88l-2.15,1.2-1.56-1.86c-.33-.41-.54-.73-.63-.96-.1-.24-.15-.48-.15-.75,0-.37.1-.7.29-.99.2-.28.53-.56,1-.84l2.15-1.27Z"/>
      <path class="cls-1" d="M334.11,31.86l-4.15,3.76c-1.22,1.11-2.19,1.87-2.92,2.29s-1.4.63-2.04.63c-1.46,0-2.59-.62-3.37-1.87-.78-1.25-1.17-3.04-1.17-5.38,0-4.62,1.17-8.59,3.5-11.91s5.12-4.98,8.34-4.98c.65,0,1.31.08,1.99.26.68.17,1.38.42,2.11.74l1.39-8.84c.05-.34.08-.69.11-1.04.02-.35.04-.7.04-1.06,0-.65-.13-1.1-.39-1.34-.26-.24-.74-.37-1.44-.37-.21,0-.43,0-.65.01-.22,0-.46.02-.72.04l-.1-1.44c1.35-.13,2.71-.31,4.09-.54,1.38-.23,2.76-.5,4.16-.83-1.51,7.81-2.76,14.86-3.74,21.16-.98,6.29-1.46,10.11-1.46,11.46,0,.83.08,1.41.23,1.75.15.33.41.5.77.5.2,0,.43-.08.7-.24.27-.16.61-.43,1.01-.81l1.49-1.34.81,1.39-2.81,2.76c-.98.94-1.68,1.55-2.12,1.81-.44.26-.86.39-1.27.39-.86,0-1.49-.41-1.89-1.22s-.6-2.08-.6-3.78c0-.37,0-.71.02-1.01.02-.3.04-.61.07-.94ZM334.06,29.37l1.83-11.06c-.9-.52-1.69-.9-2.39-1.14-.7-.24-1.35-.35-1.95-.35-2,0-3.69,1.28-5.05,3.85-1.37,2.56-2.05,5.76-2.05,9.58,0,1.55.18,2.72.55,3.52.37.8.91,1.2,1.62,1.2.49,0,1.4-.5,2.72-1.49,1.33-.99,2.9-2.36,4.72-4.1Z"/>
      <path class="cls-1" d="M357.02,25.42l-7.46,3.86v.24c0,1.94.3,3.41.92,4.42.61,1.01,1.49,1.51,2.65,1.51.68,0,1.54-.31,2.58-.92,1.03-.61,2.36-1.6,3.97-2.97l.85,1.54c-2.33,2.15-4.18,3.64-5.55,4.47s-2.62,1.25-3.75,1.25c-1.71,0-3.1-.74-4.17-2.22-1.06-1.48-1.6-3.43-1.6-5.83,0-1.71.28-3.54.84-5.5.56-1.96,1.29-3.67,2.19-5.14,1.12-1.79,2.41-3.17,3.86-4.15,1.45-.98,2.95-1.46,4.49-1.46s2.9.5,3.97,1.5c1.07,1,1.6,2.22,1.6,3.65,0,1.16-.32,2.11-.96,2.87-.64.76-2.12,1.72-4.42,2.89ZM349.68,27.1l.24-.12c5.78-2.96,8.67-5.25,8.67-6.86,0-.86-.31-1.61-.93-2.25s-1.34-.95-2.17-.95c-1.28,0-2.43.89-3.46,2.66-1.02,1.77-1.81,4.28-2.36,7.52Z"/>
      <path class="cls-1" d="M387.15,34.01l-1.56,1.51c-1.16,1.16-2.08,1.96-2.77,2.4-.69.45-1.31.67-1.87.67-.83,0-1.49-.35-1.98-1.06-.49-.71-.73-1.68-.73-2.92,0-.47.02-.96.05-1.46.03-.5.08-1.02.15-1.54-3.06,2.96-5.2,4.87-6.41,5.71s-2.23,1.27-3.04,1.27c-1.24,0-2.17-.54-2.8-1.61s-.94-2.67-.94-4.79c0-1.92.25-3.77.74-5.55.5-1.78,1.22-3.46,2.19-5.04,1.38-2.21,2.97-3.91,4.77-5.08s3.71-1.76,5.73-1.76c.44,0,.92.04,1.44.13.52.09,1.07.22,1.66.4l3.42-1.44c-.96,4.59-1.73,8.71-2.29,12.35-.57,3.65-.85,6.04-.85,7.18,0,.52.08.91.26,1.17.17.26.44.39.79.39.26,0,.61-.16,1.05-.49.44-.33,1.17-.98,2.2-1.95l.81,1.49ZM378.63,28.91c.29-1.48.59-3.1.89-4.85.3-1.75.62-3.73.96-5.94-.75-.42-1.36-.71-1.82-.87-.46-.16-.92-.23-1.38-.23-2.1,0-3.95,1.42-5.54,4.25-1.6,2.83-2.39,6.18-2.39,10.03,0,1.22.13,2.14.4,2.75.27.61.68.92,1.23.92s1.48-.5,2.73-1.49c1.25-.99,2.89-2.51,4.91-4.57Z"/>
      <path class="cls-1" d="M400.16,34.11l-2.27,2.15c-1.03.98-1.83,1.65-2.42,2.01-.59.37-1.11.55-1.56.55-.94,0-1.67-.35-2.16-1.05s-.74-1.72-.74-3.05c0-1.09.37-3.51,1.1-7.25.41-2.07.72-3.7.95-4.91l1-5.49c.63-3.56,1.13-6.45,1.48-8.67.35-2.21.53-3.56.53-4.03,0-.52-.12-.9-.37-1.15s-.63-.37-1.15-.37c-.1,0-.29,0-.59.02-.29.02-.53.02-.71.02l-.15-1.34c1.06-.15,2.22-.35,3.49-.6,1.27-.25,2.76-.57,4.47-.96-1.77,8.87-3.23,16.5-4.36,22.88-1.13,6.38-1.7,9.99-1.7,10.84,0,.46.08.82.26,1.09.17.27.4.4.7.4.18,0,.42-.09.71-.27.29-.18.65-.46,1.07-.83l1.66-1.34.76,1.34Z"/>
      <path class="cls-1" d="M428.51,32.01c-2.13,2.29-3.9,3.96-5.3,4.99-1.4,1.03-2.56,1.55-3.49,1.55-1.3,0-2.32-.66-3.05-1.96-.73-1.31-1.1-3.12-1.1-5.43,0-4.48,1.25-8.38,3.74-11.71,2.49-3.33,5.37-4.99,8.64-4.99.65,0,1.31.09,1.98.27.67.18,1.39.46,2.17.83l3.37-1.95c-.5,2.18-1.15,5.69-1.93,10.52l-.12.78-1.71,10.55c-.67,4.1-1.12,6.94-1.36,8.52-.24,1.58-.35,2.57-.35,2.98,0,.76.18,1.3.54,1.6.36.3.98.45,1.88.45h.49l-.42,1.66c-1.04-.05-1.97-.09-2.8-.11-.82-.03-1.5-.04-2.04-.04-.81,0-1.73.02-2.73.07-1.01.05-2.13.12-3.37.22l.37-1.73h.29c2.29,0,3.68-1.37,4.15-4.1.02-.13.03-.24.05-.32l2.1-12.65ZM428.85,29.2l1.81-11.08c-.8-.42-1.52-.74-2.16-.94-.64-.2-1.24-.3-1.79-.3-1.17,0-2.18.35-3.02,1.05-.84.7-1.57,1.8-2.18,3.3-.55,1.33-1,2.86-1.33,4.57s-.5,3.3-.5,4.79.17,2.52.5,3.31c.33.79.79,1.18,1.38,1.18.54,0,1.38-.46,2.51-1.37,1.14-.91,2.73-2.41,4.79-4.49Z"/>
      <path class="cls-1" d="M462.12,34.01l-3.37,3.15c-.6.59-1.14,1-1.62,1.25s-.97.37-1.48.37c-.73,0-1.32-.35-1.77-1.06-.45-.71-.67-1.66-.67-2.84,0-.34.03-.75.08-1.23.06-.48.17-1.23.35-2.26-3.01,3.08-5.14,5.08-6.4,6.01-1.25.93-2.32,1.39-3.2,1.39-.93,0-1.7-.43-2.32-1.29-.62-.86-.93-1.97-.93-3.32,0-1.14.49-3.7,1.46-7.69.24-.94.42-1.66.54-2.15.34-1.35.59-2.44.76-3.26.16-.82.24-1.44.24-1.84,0-.33-.08-.59-.24-.79-.16-.2-.37-.31-.61-.31-.16,0-.48.11-.95.34-.47.23-1.12.58-1.95,1.05l-.68-1.34c1.51-1.12,2.84-2,3.98-2.62,1.14-.63,1.94-.94,2.42-.94.67,0,1.19.29,1.57.85.38.57.57,1.36.57,2.37,0,1.27-.5,3.73-1.5,7.37-1,3.65-1.5,6.38-1.5,8.2,0,.57.1.99.29,1.26.2.27.5.4.9.4.46,0,1.23-.45,2.33-1.35,1.1-.9,2.94-2.63,5.53-5.19.62-2.93,1.12-5.41,1.5-7.43.38-2.03.68-3.84.89-5.43l4.39-1.05-.54,2.42c-.93,3.96-1.43,6.16-1.51,6.62l-.59,3.12c-.29,1.48-.53,2.9-.7,4.25-.17,1.35-.26,2.3-.26,2.86,0,.38.07.67.22.88.15.21.34.32.59.32.23,0,.65-.22,1.27-.66.62-.44,1.33-1.03,2.12-1.78l.76,1.39Z"/>
      <path class="cls-1" d="M476.63,25.42l-7.46,3.86v.24c0,1.94.3,3.41.92,4.42.61,1.01,1.49,1.51,2.65,1.51.68,0,1.54-.31,2.58-.92,1.03-.61,2.36-1.6,3.97-2.97l.85,1.54c-2.33,2.15-4.18,3.64-5.55,4.47s-2.62,1.25-3.75,1.25c-1.71,0-3.1-.74-4.17-2.22-1.06-1.48-1.6-3.43-1.6-5.83,0-1.71.28-3.54.84-5.5.56-1.96,1.29-3.67,2.19-5.14,1.12-1.79,2.41-3.17,3.86-4.15,1.45-.98,2.95-1.46,4.49-1.46s2.9.5,3.97,1.5c1.07,1,1.6,2.22,1.6,3.65,0,1.16-.32,2.11-.96,2.87-.64.76-2.12,1.72-4.42,2.89ZM469.29,27.1l.24-.12c5.78-2.96,8.67-5.25,8.67-6.86,0-.86-.31-1.61-.93-2.25s-1.34-.95-2.17-.95c-1.28,0-2.43.89-3.46,2.66-1.02,1.77-1.81,4.28-2.36,7.52Z"/>
      <path class="cls-1" d="M510.98,18.55l-1.37,1.29-.17-.15c-1.86-1.69-3.26-2.54-4.22-2.54s-1.67.27-2.26.82c-.59.54-.89,1.24-.89,2.09,0,1.3,1.13,2.9,3.39,4.79.28.23.48.4.61.51,1.68,1.43,2.78,2.56,3.31,3.37.53.81.79,1.69.79,2.64,0,1.81-.89,3.49-2.67,5.05s-3.81,2.34-6.09,2.34c-1.61,0-2.95-.28-4-.83-1.06-.55-1.59-1.23-1.59-2.03,0-.31.05-.58.15-.81.1-.23.32-.51.66-.85l1.29-1.2c1.07,1.19,1.97,2.02,2.69,2.49.72.47,1.42.71,2.1.71,1.03,0,1.9-.35,2.62-1.04.72-.69,1.09-1.51,1.09-2.45,0-1.07-1.12-2.6-3.34-4.59-.59-.52-1.03-.93-1.34-1.22-1.3-1.17-2.2-2.15-2.69-2.93s-.73-1.57-.73-2.37c0-1.74.88-3.37,2.65-4.88s3.7-2.27,5.8-2.27c1.4,0,2.57.26,3.5.78.94.52,1.4,1.13,1.4,1.83,0,.28-.06.53-.17.77-.11.24-.29.46-.51.67Z"/>
      <path class="cls-1" d="M525.01,32.57l.85,1.44c-2,2.07-3.39,3.39-4.17,3.96s-1.47.85-2.08.85c-.86,0-1.55-.36-2.08-1.09-.52-.72-.78-1.7-.78-2.92,0-1.53.48-4.08,1.45-7.67.97-3.58,1.45-6.16,1.45-7.74,0-.41-.1-.73-.29-.98s-.45-.37-.76-.37c-.26,0-.6.11-1.03.32-.42.21-.95.54-1.59.98l-.73-1.29,3.25-2.37c.62-.46,1.16-.79,1.61-.99.46-.2.89-.31,1.29-.31.76,0,1.37.31,1.82.94.45.63.67,1.49.67,2.58,0,1.19-.42,3.52-1.27,6.98l-.44,1.76c-.46,1.84-.8,3.36-1.04,4.57-.24,1.21-.35,2.04-.35,2.49,0,.41.09.74.27,1,.18.26.41.39.68.39.26,0,.6-.16,1.03-.49.42-.33,1.16-1.01,2.22-2.05ZM524.82,1.1l1.39,1.56c.39.41.66.77.82,1.09.15.32.23.64.23.96,0,.34-.12.67-.35.98-.24.31-.58.6-1.04.88l-2.15,1.2-1.56-1.86c-.33-.41-.54-.73-.63-.96-.1-.24-.15-.48-.15-.75,0-.37.1-.7.29-.99.2-.28.53-.56,1-.84l2.15-1.27Z"/>
      <path class="cls-1" d="M530.35,38.82c.52-2.41,1.1-5.4,1.73-8.96.08-.47.14-.81.17-1.03l.46-2.51c.26-1.51.46-2.87.61-4.08.15-1.2.22-2.02.22-2.44,0-.49-.1-.89-.29-1.21-.2-.32-.45-.48-.76-.48-.18,0-.44.08-.78.26-.34.17-.91.52-1.71,1.04l-.71-1.29c.41-.29.97-.72,1.68-1.27,2.08-1.59,3.49-2.39,4.22-2.39.68,0,1.23.29,1.64.87.41.58.61,1.36.61,2.33,0,.77-.11,2.09-.32,3.98-.03.28-.06.49-.07.63.52-.57,1.25-1.37,2.17-2.39,3.27-3.61,5.49-5.42,6.67-5.42.96,0,1.74.41,2.34,1.23.6.82.9,1.9.9,3.23,0,.47-.02.99-.05,1.55-.03.56-.1,1.24-.2,2.04.26-.29.63-.72,1.12-1.29,3.79-4.51,6.44-6.76,7.93-6.76.98,0,1.77.41,2.38,1.22.61.81.92,1.88.92,3.2,0,1.89-.39,4.51-1.17,7.87-.78,3.36-1.17,5.65-1.17,6.87,0,.49.08.88.24,1.18.16.3.37.45.61.45.21,0,.6-.23,1.16-.7.56-.46,1.22-1.11,1.99-1.94l.83,1.49c-2,2.08-3.36,3.39-4.07,3.92-.71.53-1.31.79-1.82.79-.93,0-1.64-.35-2.15-1.04-.5-.69-.76-1.66-.76-2.92,0-1.84.41-4.48,1.22-7.91.81-3.43,1.22-5.76,1.22-6.98,0-.59-.11-1.04-.32-1.37-.21-.33-.5-.49-.88-.49s-1.03.43-1.98,1.28c-.94.85-2.83,2.79-5.66,5.82-.57,3.06-1,5.54-1.28,7.45s-.49,3.57-.62,5l-4.3,1.15c.96-5.01,1.71-9.16,2.25-12.45.54-3.29.81-5.39.81-6.3,0-.6-.11-1.08-.33-1.43-.22-.35-.49-.52-.82-.52-.46,0-2.58,1.87-6.37,5.62l-1.15,1.12c-.6,3.17-1.06,5.72-1.37,7.64-.31,1.92-.53,3.61-.66,5.05l-4.37,1.27Z"/>
      <path class="cls-1" d="M577.9,0c-.39,1.86-.74,3.59-1.05,5.2-.31,1.61-.56,3-.76,4.15l-1.83,10.72,2.64-2.42c1.56-1.4,2.76-2.32,3.6-2.77.84-.45,1.67-.67,2.5-.67,1.59,0,2.83.66,3.7,1.99.87,1.33,1.31,3.2,1.31,5.6,0,4.56-1.38,8.53-4.13,11.93-2.75,3.39-5.91,5.09-9.47,5.09-1.37,0-2.57-.31-3.6-.92-1.03-.61-1.93-1.56-2.7-2.84l4.64-28.44c.1-.59.17-1.07.22-1.44.05-.37.07-.66.07-.85,0-.54-.13-.92-.39-1.16-.26-.24-.68-.35-1.25-.35-.31,0-.55,0-.71.02-.16.02-.33.04-.49.07l-.15-1.34c1.14-.16,2.35-.37,3.62-.62,1.28-.25,2.68-.57,4.21-.94ZM572.46,34.35c.52.6,1.09,1.05,1.7,1.36.61.3,1.26.45,1.94.45,2.2,0,4.02-1.28,5.48-3.83,1.46-2.55,2.19-5.83,2.19-9.81,0-1.58-.21-2.77-.62-3.59-.42-.81-1.03-1.22-1.84-1.22-.62,0-1.5.38-2.64,1.15-1.14.77-2.69,2.02-4.66,3.76l-1.1,7.1c-.16.99-.28,1.86-.34,2.59-.07.73-.1,1.42-.1,2.05Z"/>
      <path class="cls-1" d="M603.8,14.5c2.42,0,4.27.75,5.53,2.26,1.26,1.5,1.89,3.71,1.89,6.6,0,1.66-.33,3.43-.98,5.31-.65,1.88-1.53,3.58-2.64,5.09-1.19,1.63-2.54,2.88-4.04,3.75-1.51.87-3.09,1.31-4.75,1.31-2.18,0-3.92-.79-5.21-2.37-1.29-1.58-1.94-3.69-1.94-6.35,0-1.97.32-3.89.95-5.76.63-1.87,1.55-3.56,2.73-5.08,1.17-1.51,2.5-2.69,3.99-3.52s2.97-1.25,4.46-1.25ZM602.75,16.87c-1.89,0-3.52,1.3-4.88,3.89s-2.05,5.79-2.05,9.58c0,2,.35,3.54,1.04,4.6.69,1.06,1.7,1.59,3.02,1.59,1.99,0,3.67-1.27,5.07-3.83s2.09-5.68,2.09-9.38c0-2.2-.35-3.83-1.05-4.88-.7-1.05-1.77-1.58-3.22-1.58Z"/>
      <path class="cls-1" d="M625.42,34.11l-2.27,2.15c-1.03.98-1.83,1.65-2.42,2.01-.59.37-1.11.55-1.56.55-.94,0-1.67-.35-2.16-1.05s-.74-1.72-.74-3.05c0-1.09.37-3.51,1.1-7.25.41-2.07.72-3.7.95-4.91l1-5.49c.63-3.56,1.13-6.45,1.48-8.67.35-2.21.53-3.56.53-4.03,0-.52-.12-.9-.37-1.15s-.63-.37-1.15-.37c-.1,0-.29,0-.59.02-.29.02-.53.02-.71.02l-.15-1.34c1.06-.15,2.22-.35,3.49-.6,1.27-.25,2.76-.57,4.47-.96-1.77,8.87-3.23,16.5-4.36,22.88-1.13,6.38-1.7,9.99-1.7,10.84,0,.46.08.82.26,1.09.17.27.4.4.7.4.18,0,.42-.09.71-.27.29-.18.65-.46,1.07-.83l1.66-1.34.76,1.34Z"/>
      <path class="cls-1" d="M639.06,32.57l.85,1.44c-2,2.07-3.39,3.39-4.17,3.96s-1.47.85-2.08.85c-.86,0-1.55-.36-2.08-1.09-.52-.72-.78-1.7-.78-2.92,0-1.53.48-4.08,1.45-7.67.97-3.58,1.45-6.16,1.45-7.74,0-.41-.1-.73-.29-.98s-.45-.37-.76-.37c-.26,0-.6.11-1.03.32-.42.21-.95.54-1.59.98l-.73-1.29,3.25-2.37c.62-.46,1.16-.79,1.61-.99.46-.2.89-.31,1.29-.31.76,0,1.37.31,1.82.94.45.63.67,1.49.67,2.58,0,1.19-.42,3.52-1.27,6.98l-.44,1.76c-.46,1.84-.8,3.36-1.04,4.57-.24,1.21-.35,2.04-.35,2.49,0,.41.09.74.27,1,.18.26.41.39.68.39.26,0,.6-.16,1.03-.49.42-.33,1.16-1.01,2.22-2.05ZM638.87,1.1l1.39,1.56c.39.41.66.77.82,1.09.15.32.23.64.23.96,0,.34-.12.67-.35.98-.24.31-.58.6-1.04.88l-2.15,1.2-1.56-1.86c-.33-.41-.54-.73-.63-.96-.1-.24-.15-.48-.15-.75,0-.37.1-.7.29-.99.2-.28.53-.56,1-.84l2.15-1.27Z"/>
      <path class="cls-1" d="M659.05,18.7l-1.29,1.27c-1.07-1.09-1.93-1.81-2.58-2.17-.64-.36-1.3-.54-1.96-.54-1.5,0-2.8,1.11-3.91,3.33-1.11,2.22-1.66,4.96-1.66,8.22,0,2.18.28,3.83.85,4.93.57,1.11,1.41,1.66,2.51,1.66.62,0,1.46-.35,2.54-1.06,1.07-.71,2.21-1.68,3.39-2.92l1,1.73c-1.89,2-3.5,3.45-4.83,4.33-1.33.89-2.56,1.33-3.66,1.33-1.76,0-3.16-.76-4.21-2.29-1.05-1.53-1.57-3.6-1.57-6.2,0-4.46,1.14-8.22,3.43-11.28,2.29-3.06,5.11-4.59,8.46-4.59,1.22,0,2.27.26,3.14.78.87.52,1.31,1.12,1.31,1.78,0,.26-.07.52-.21.78-.14.26-.39.56-.74.9Z"/>
      <path class="cls-1" d="M673.92,25.42l-7.46,3.86v.24c0,1.94.3,3.41.92,4.42.61,1.01,1.49,1.51,2.65,1.51.68,0,1.54-.31,2.58-.92,1.03-.61,2.36-1.6,3.97-2.97l.85,1.54c-2.33,2.15-4.18,3.64-5.55,4.47s-2.62,1.25-3.75,1.25c-1.71,0-3.1-.74-4.17-2.22-1.06-1.48-1.6-3.43-1.6-5.83,0-1.71.28-3.54.84-5.5.56-1.96,1.29-3.67,2.19-5.14,1.12-1.79,2.41-3.17,3.86-4.15,1.45-.98,2.95-1.46,4.49-1.46s2.9.5,3.97,1.5c1.07,1,1.6,2.22,1.6,3.65,0,1.16-.32,2.11-.96,2.87-.64.76-2.12,1.72-4.42,2.89ZM666.59,27.1l.24-.12c5.78-2.96,8.67-5.25,8.67-6.86,0-.86-.31-1.61-.93-2.25s-1.34-.95-2.17-.95c-1.28,0-2.43.89-3.46,2.66-1.02,1.77-1.81,4.28-2.36,7.52Z"/>
      <path class="cls-1" d="M704.37,34.11l-2.27,2.15c-1.03.98-1.83,1.65-2.42,2.01-.59.37-1.11.55-1.56.55-.94,0-1.67-.35-2.16-1.05s-.74-1.72-.74-3.05c0-1.09.37-3.51,1.1-7.25.41-2.07.72-3.7.95-4.91l1-5.49c.63-3.56,1.13-6.45,1.48-8.67.35-2.21.53-3.56.53-4.03,0-.52-.12-.9-.37-1.15s-.63-.37-1.15-.37c-.1,0-.29,0-.59.02-.29.02-.53.02-.71.02l-.15-1.34c1.06-.15,2.22-.35,3.49-.6,1.27-.25,2.76-.57,4.47-.96-1.77,8.87-3.23,16.5-4.36,22.88-1.13,6.38-1.7,9.99-1.7,10.84,0,.46.08.82.26,1.09.17.27.4.4.7.4.18,0,.42-.09.71-.27.29-.18.65-.46,1.07-.83l1.66-1.34.76,1.34Z"/>
      <path class="cls-1" d="M729.97,34.01l-1.56,1.51c-1.16,1.16-2.08,1.96-2.77,2.4-.69.45-1.31.67-1.87.67-.83,0-1.49-.35-1.98-1.06-.49-.71-.73-1.68-.73-2.92,0-.47.02-.96.05-1.46.03-.5.08-1.02.15-1.54-3.06,2.96-5.2,4.87-6.41,5.71s-2.23,1.27-3.04,1.27c-1.24,0-2.17-.54-2.8-1.61s-.94-2.67-.94-4.79c0-1.92.25-3.77.74-5.55.5-1.78,1.22-3.46,2.19-5.04,1.38-2.21,2.97-3.91,4.77-5.08s3.71-1.76,5.73-1.76c.44,0,.92.04,1.44.13.52.09,1.07.22,1.66.4l3.42-1.44c-.96,4.59-1.73,8.71-2.29,12.35-.57,3.65-.85,6.04-.85,7.18,0,.52.08.91.26,1.17.17.26.44.39.79.39.26,0,.61-.16,1.05-.49.44-.33,1.17-.98,2.2-1.95l.81,1.49ZM721.45,28.91c.29-1.48.59-3.1.89-4.85.3-1.75.62-3.73.96-5.94-.75-.42-1.36-.71-1.82-.87-.46-.16-.92-.23-1.38-.23-2.1,0-3.95,1.42-5.54,4.25-1.6,2.83-2.39,6.18-2.39,10.03,0,1.22.13,2.14.4,2.75.27.61.68.92,1.23.92s1.48-.5,2.73-1.49c1.25-.99,2.89-2.51,4.91-4.57Z"/>
      <path class="cls-1" d="M755.7,25.42l-7.46,3.86v.24c0,1.94.31,3.41.92,4.42.61,1.01,1.49,1.51,2.65,1.51.68,0,1.54-.31,2.58-.92,1.03-.61,2.36-1.6,3.97-2.97l.85,1.54c-2.33,2.15-4.18,3.64-5.55,4.47-1.38.83-2.62,1.25-3.75,1.25-1.71,0-3.1-.74-4.17-2.22-1.06-1.48-1.6-3.43-1.6-5.83,0-1.71.28-3.54.84-5.5.56-1.96,1.29-3.67,2.18-5.14,1.12-1.79,2.41-3.17,3.86-4.15,1.45-.98,2.95-1.46,4.49-1.46s2.9.5,3.97,1.5c1.07,1,1.6,2.22,1.6,3.65,0,1.16-.32,2.11-.96,2.87-.64.76-2.12,1.72-4.42,2.89ZM748.37,27.1l.24-.12c5.78-2.96,8.67-5.25,8.67-6.86,0-.86-.31-1.61-.93-2.25-.62-.63-1.34-.95-2.17-.95-1.28,0-2.44.89-3.46,2.66-1.02,1.77-1.81,4.28-2.36,7.52Z"/>
      <path class="cls-1" d="M778.34,18.55l-1.37,1.29-.17-.15c-1.86-1.69-3.26-2.54-4.22-2.54s-1.66.27-2.26.82c-.59.54-.89,1.24-.89,2.09,0,1.3,1.13,2.9,3.39,4.79.28.23.48.4.61.51,1.68,1.43,2.78,2.56,3.31,3.37.53.81.79,1.69.79,2.64,0,1.81-.89,3.49-2.67,5.05-1.78,1.56-3.81,2.34-6.09,2.34-1.61,0-2.95-.28-4-.83-1.06-.55-1.59-1.23-1.59-2.03,0-.31.05-.58.15-.81.1-.23.32-.51.66-.85l1.29-1.2c1.07,1.19,1.97,2.02,2.69,2.49.72.47,1.42.71,2.1.71,1.03,0,1.9-.35,2.62-1.04.72-.69,1.09-1.51,1.09-2.45,0-1.07-1.12-2.6-3.34-4.59-.59-.52-1.03-.93-1.34-1.22-1.3-1.17-2.2-2.15-2.69-2.93s-.73-1.57-.73-2.37c0-1.74.88-3.37,2.65-4.88,1.77-1.51,3.7-2.27,5.8-2.27,1.4,0,2.57.26,3.5.78.94.52,1.4,1.13,1.4,1.83,0,.28-.06.53-.17.77-.11.24-.29.46-.51.67Z"/>
      <path class="cls-1" d="M793.94,25.42l-7.46,3.86v.24c0,1.94.31,3.41.92,4.42.61,1.01,1.49,1.51,2.65,1.51.68,0,1.54-.31,2.58-.92,1.03-.61,2.36-1.6,3.97-2.97l.85,1.54c-2.33,2.15-4.18,3.64-5.55,4.47-1.38.83-2.62,1.25-3.75,1.25-1.71,0-3.1-.74-4.17-2.22-1.06-1.48-1.6-3.43-1.6-5.83,0-1.71.28-3.54.84-5.5.56-1.96,1.29-3.67,2.18-5.14,1.12-1.79,2.41-3.17,3.86-4.15,1.45-.98,2.95-1.46,4.49-1.46s2.9.5,3.97,1.5c1.07,1,1.6,2.22,1.6,3.65,0,1.16-.32,2.11-.96,2.87-.64.76-2.12,1.72-4.42,2.89ZM786.61,27.1l.24-.12c5.78-2.96,8.67-5.25,8.67-6.86,0-.86-.31-1.61-.93-2.25-.62-.63-1.34-.95-2.17-.95-1.28,0-2.44.89-3.46,2.66-1.02,1.77-1.81,4.28-2.36,7.52Z"/>
      <path class="cls-1" d="M809.82,21.51l3.96-3.86c1.38-1.32,2.43-2.19,3.14-2.61.71-.42,1.38-.63,2.01-.63,1.07,0,1.95.47,2.62,1.42.68.94,1.01,2.19,1.01,3.74s-.4,4.02-1.2,7.31c-.8,3.29-1.2,5.64-1.2,7.04,0,.42.08.74.24.96.16.22.4.33.71.33.15,0,.33-.06.55-.18.22-.12.43-.29.65-.5l1.86-1.81.85,1.29-2.66,2.71c-.63.65-1.27,1.16-1.89,1.54-.63.37-1.18.56-1.65.56-.81,0-1.48-.35-1.99-1.06-.51-.71-.77-1.64-.77-2.8,0-1.38.42-3.82,1.25-7.31.83-3.49,1.25-6.03,1.25-7.63,0-.6-.13-1.09-.38-1.45-.25-.37-.59-.55-1.01-.55-.63,0-2.58,1.51-5.83,4.52-.86.8-1.54,1.42-2.03,1.88l-1.54,8.59c-.03.16-.08.41-.15.73-.34,1.74-.55,3.08-.61,4l-4.35,1.07c1.07-4.67,1.92-8.73,2.55-12.18.63-3.45.94-5.71.94-6.79,0-.65-.07-1.12-.22-1.4-.15-.28-.38-.43-.71-.43-.2,0-.52.11-.96.34-.45.23-1.01.56-1.7,1l-.66-1.29c.18-.15.44-.36.78-.63,2.51-2.02,4.18-3.03,5.03-3.03s1.42.31,1.81.92c.39.61.59,1.56.59,2.84,0,.46-.02.97-.07,1.54-.05.57-.12,1.17-.22,1.81Z"/>
      <path class="cls-1" d="M843.65,18.7l-1.29,1.27c-1.07-1.09-1.93-1.81-2.58-2.17-.64-.36-1.3-.54-1.96-.54-1.5,0-2.8,1.11-3.91,3.33-1.11,2.22-1.66,4.96-1.66,8.22,0,2.18.28,3.83.85,4.93.57,1.11,1.41,1.66,2.51,1.66.62,0,1.46-.35,2.54-1.06,1.07-.71,2.21-1.68,3.39-2.92l1,1.73c-1.89,2-3.5,3.45-4.83,4.33-1.33.89-2.56,1.33-3.66,1.33-1.76,0-3.16-.76-4.21-2.29-1.05-1.53-1.58-3.6-1.58-6.2,0-4.46,1.14-8.22,3.43-11.28,2.29-3.06,5.11-4.59,8.46-4.59,1.22,0,2.27.26,3.14.78.87.52,1.31,1.12,1.31,1.78,0,.26-.07.52-.21.78-.14.26-.39.56-.75.9Z"/>
      <path class="cls-1" d="M856.95,32.57l.85,1.44c-2,2.07-3.39,3.39-4.17,3.96s-1.47.85-2.08.85c-.86,0-1.55-.36-2.08-1.09-.52-.72-.78-1.7-.78-2.92,0-1.53.48-4.08,1.45-7.67.97-3.58,1.45-6.16,1.45-7.74,0-.41-.1-.73-.29-.98s-.45-.37-.76-.37c-.26,0-.6.11-1.03.32-.42.21-.95.54-1.59.98l-.73-1.29,3.25-2.37c.62-.46,1.16-.79,1.61-.99.46-.2.89-.31,1.29-.31.76,0,1.37.31,1.82.94.45.63.67,1.49.67,2.58,0,1.19-.42,3.52-1.27,6.98l-.44,1.76c-.46,1.84-.8,3.36-1.04,4.57-.24,1.21-.35,2.04-.35,2.49,0,.41.09.74.27,1,.18.26.41.39.68.39.26,0,.6-.16,1.03-.49.42-.33,1.16-1.01,2.22-2.05ZM856.75,1.1l1.39,1.56c.39.41.66.77.82,1.09.16.32.23.64.23.96,0,.34-.12.67-.35.98-.24.31-.58.6-1.04.88l-2.15,1.2-1.56-1.86c-.33-.41-.54-.73-.63-.96-.1-.24-.15-.48-.15-.75,0-.37.1-.7.29-.99.2-.28.53-.56,1-.84l2.15-1.27Z"/>
      <path class="cls-1" d="M883.41,34.01l-1.56,1.51c-1.16,1.16-2.08,1.96-2.77,2.4-.69.45-1.31.67-1.87.67-.83,0-1.49-.35-1.98-1.06-.49-.71-.73-1.68-.73-2.92,0-.47.02-.96.05-1.46.03-.5.08-1.02.15-1.54-3.06,2.96-5.2,4.87-6.41,5.71-1.21.85-2.23,1.27-3.04,1.27-1.24,0-2.17-.54-2.79-1.61-.63-1.07-.94-2.67-.94-4.79,0-1.92.25-3.77.75-5.55.5-1.78,1.22-3.46,2.18-5.04,1.38-2.21,2.97-3.91,4.77-5.08,1.8-1.17,3.71-1.76,5.73-1.76.44,0,.92.04,1.44.13.52.09,1.07.22,1.66.4l3.42-1.44c-.96,4.59-1.73,8.71-2.29,12.35-.57,3.65-.85,6.04-.85,7.18,0,.52.08.91.26,1.17.17.26.43.39.79.39.26,0,.61-.16,1.05-.49.44-.33,1.17-.98,2.2-1.95l.81,1.49ZM874.89,28.91c.29-1.48.59-3.1.89-4.85.3-1.75.62-3.73.96-5.94-.75-.42-1.35-.71-1.82-.87-.46-.16-.92-.23-1.38-.23-2.1,0-3.95,1.42-5.54,4.25-1.6,2.83-2.39,6.18-2.39,10.03,0,1.22.13,2.14.4,2.75.27.61.68.92,1.23.92s1.48-.5,2.73-1.49c1.25-.99,2.89-2.51,4.91-4.57Z"/>
      <path class="cls-1" d="M911.32,31.86l-4.15,3.76c-1.22,1.11-2.19,1.87-2.92,2.29-.72.42-1.4.63-2.04.63-1.46,0-2.59-.62-3.37-1.87-.78-1.25-1.17-3.04-1.17-5.38,0-4.62,1.17-8.59,3.5-11.91,2.34-3.32,5.12-4.98,8.34-4.98.65,0,1.31.08,1.99.26.67.17,1.38.42,2.11.74l1.39-8.84c.05-.34.08-.69.11-1.04.02-.35.04-.7.04-1.06,0-.65-.13-1.1-.39-1.34-.26-.24-.74-.37-1.44-.37-.21,0-.43,0-.65.01-.22,0-.46.02-.72.04l-.1-1.44c1.35-.13,2.71-.31,4.09-.54,1.38-.23,2.76-.5,4.16-.83-1.51,7.81-2.76,14.86-3.74,21.16-.98,6.29-1.46,10.11-1.46,11.46,0,.83.08,1.41.23,1.75.16.33.41.5.77.5.2,0,.43-.08.7-.24.27-.16.61-.43,1.01-.81l1.49-1.34.81,1.39-2.81,2.76c-.98.94-1.68,1.55-2.12,1.81-.44.26-.86.39-1.27.39-.86,0-1.49-.41-1.89-1.22-.4-.81-.6-2.08-.6-3.78,0-.37,0-.71.02-1.01.02-.3.04-.61.07-.94ZM911.28,29.37l1.83-11.06c-.9-.52-1.69-.9-2.39-1.14-.7-.24-1.35-.35-1.95-.35-2,0-3.69,1.28-5.05,3.85-1.37,2.56-2.05,5.76-2.05,9.58,0,1.55.18,2.72.55,3.52.37.8.91,1.2,1.62,1.2.49,0,1.4-.5,2.72-1.49,1.33-.99,2.9-2.36,4.72-4.1Z"/>
      <path class="cls-1" d="M934.23,25.42l-7.46,3.86v.24c0,1.94.31,3.41.92,4.42.61,1.01,1.49,1.51,2.65,1.51.68,0,1.54-.31,2.58-.92,1.03-.61,2.36-1.6,3.97-2.97l.85,1.54c-2.33,2.15-4.18,3.64-5.55,4.47-1.38.83-2.62,1.25-3.75,1.25-1.71,0-3.1-.74-4.17-2.22-1.06-1.48-1.6-3.43-1.6-5.83,0-1.71.28-3.54.84-5.5.56-1.96,1.29-3.67,2.18-5.14,1.12-1.79,2.41-3.17,3.86-4.15,1.45-.98,2.95-1.46,4.49-1.46s2.9.5,3.97,1.5c1.07,1,1.6,2.22,1.6,3.65,0,1.16-.32,2.11-.96,2.87-.64.76-2.12,1.72-4.42,2.89ZM926.89,27.1l.24-.12c5.78-2.96,8.67-5.25,8.67-6.86,0-.86-.31-1.61-.93-2.25-.62-.63-1.34-.95-2.17-.95-1.28,0-2.44.89-3.46,2.66-1.02,1.77-1.81,4.28-2.36,7.52Z"/>
      <path class="cls-1" d="M968.58,18.55l-1.37,1.29-.17-.15c-1.86-1.69-3.26-2.54-4.22-2.54s-1.66.27-2.26.82c-.59.54-.89,1.24-.89,2.09,0,1.3,1.13,2.9,3.39,4.79.28.23.48.4.61.51,1.68,1.43,2.78,2.56,3.31,3.37.53.81.79,1.69.79,2.64,0,1.81-.89,3.49-2.67,5.05-1.78,1.56-3.81,2.34-6.09,2.34-1.61,0-2.95-.28-4-.83-1.06-.55-1.59-1.23-1.59-2.03,0-.31.05-.58.15-.81.1-.23.32-.51.66-.85l1.29-1.2c1.07,1.19,1.97,2.02,2.69,2.49.72.47,1.42.71,2.1.71,1.03,0,1.9-.35,2.62-1.04.72-.69,1.09-1.51,1.09-2.45,0-1.07-1.12-2.6-3.34-4.59-.59-.52-1.03-.93-1.34-1.22-1.3-1.17-2.2-2.15-2.69-2.93s-.73-1.57-.73-2.37c0-1.74.88-3.37,2.65-4.88,1.77-1.51,3.7-2.27,5.8-2.27,1.4,0,2.57.26,3.5.78.94.52,1.4,1.13,1.4,1.83,0,.28-.06.53-.17.77-.11.24-.29.46-.51.67Z"/>
      <path class="cls-1" d="M995.57,34.01l-3.37,3.15c-.6.59-1.14,1-1.62,1.25-.48.24-.97.37-1.48.37-.73,0-1.32-.35-1.77-1.06-.45-.71-.67-1.66-.67-2.84,0-.34.03-.75.09-1.23.06-.48.17-1.23.35-2.26-3.01,3.08-5.14,5.08-6.4,6.01-1.25.93-2.32,1.39-3.2,1.39-.93,0-1.7-.43-2.32-1.29-.62-.86-.93-1.97-.93-3.32,0-1.14.49-3.7,1.46-7.69.24-.94.42-1.66.54-2.15.34-1.35.59-2.44.76-3.26.16-.82.24-1.44.24-1.84,0-.33-.08-.59-.24-.79-.16-.2-.37-.31-.61-.31-.16,0-.48.11-.95.34-.47.23-1.12.58-1.95,1.05l-.68-1.34c1.51-1.12,2.84-2,3.98-2.62,1.14-.63,1.94-.94,2.42-.94.67,0,1.19.29,1.58.85.38.57.57,1.36.57,2.37,0,1.27-.5,3.73-1.5,7.37-1,3.65-1.5,6.38-1.5,8.2,0,.57.1.99.29,1.26.2.27.5.4.9.4.46,0,1.23-.45,2.33-1.35,1.1-.9,2.94-2.63,5.53-5.19.62-2.93,1.12-5.41,1.5-7.43.38-2.03.68-3.84.89-5.43l4.39-1.05-.54,2.42c-.93,3.96-1.43,6.16-1.51,6.62l-.59,3.12c-.29,1.48-.52,2.9-.7,4.25-.17,1.35-.26,2.3-.26,2.86,0,.38.07.67.22.88.15.21.34.32.59.32.23,0,.65-.22,1.27-.66.62-.44,1.33-1.03,2.12-1.78l.76,1.39Z"/>
      <path class="cls-1" d="M1012.97,18.55l-1.37,1.29-.17-.15c-1.86-1.69-3.26-2.54-4.22-2.54s-1.66.27-2.26.82c-.59.54-.89,1.24-.89,2.09,0,1.3,1.13,2.9,3.39,4.79.28.23.48.4.61.51,1.68,1.43,2.78,2.56,3.31,3.37.53.81.79,1.69.79,2.64,0,1.81-.89,3.49-2.67,5.05-1.78,1.56-3.81,2.34-6.09,2.34-1.61,0-2.95-.28-4-.83-1.06-.55-1.59-1.23-1.59-2.03,0-.31.05-.58.15-.81.1-.23.32-.51.66-.85l1.29-1.2c1.07,1.19,1.97,2.02,2.69,2.49.72.47,1.42.71,2.1.71,1.03,0,1.9-.35,2.62-1.04.72-.69,1.09-1.51,1.09-2.45,0-1.07-1.12-2.6-3.34-4.59-.59-.52-1.03-.93-1.34-1.22-1.3-1.17-2.2-2.15-2.69-2.93s-.73-1.57-.73-2.37c0-1.74.88-3.37,2.65-4.88,1.77-1.51,3.7-2.27,5.8-2.27,1.4,0,2.57.26,3.5.78.94.52,1.4,1.13,1.4,1.83,0,.28-.06.53-.17.77-.11.24-.29.46-.51.67Z"/>
      <path class="cls-1" d="M1043.19,18.55l-1.37,1.29-.17-.15c-1.86-1.69-3.26-2.54-4.22-2.54s-1.66.27-2.26.82c-.59.54-.89,1.24-.89,2.09,0,1.3,1.13,2.9,3.39,4.79.28.23.48.4.61.51,1.68,1.43,2.78,2.56,3.31,3.37.53.81.79,1.69.79,2.64,0,1.81-.89,3.49-2.67,5.05-1.78,1.56-3.81,2.34-6.09,2.34-1.61,0-2.95-.28-4-.83-1.06-.55-1.59-1.23-1.59-2.03,0-.31.05-.58.15-.81.1-.23.32-.51.66-.85l1.29-1.2c1.07,1.19,1.97,2.02,2.69,2.49.72.47,1.42.71,2.1.71,1.03,0,1.9-.35,2.62-1.04.72-.69,1.09-1.51,1.09-2.45,0-1.07-1.12-2.6-3.34-4.59-.59-.52-1.03-.93-1.34-1.22-1.3-1.17-2.2-2.15-2.69-2.93s-.73-1.57-.73-2.37c0-1.74.88-3.37,2.65-4.88,1.77-1.51,3.7-2.27,5.8-2.27,1.4,0,2.57.26,3.5.78.94.52,1.4,1.13,1.4,1.83,0,.28-.06.53-.17.77-.11.24-.29.46-.51.67Z"/>
      <path class="cls-1" d="M1058.79,25.42l-7.46,3.86v.24c0,1.94.31,3.41.92,4.42.61,1.01,1.49,1.51,2.65,1.51.68,0,1.54-.31,2.58-.92,1.03-.61,2.36-1.6,3.97-2.97l.85,1.54c-2.33,2.15-4.18,3.64-5.55,4.47-1.38.83-2.62,1.25-3.75,1.25-1.71,0-3.1-.74-4.17-2.22-1.06-1.48-1.6-3.43-1.6-5.83,0-1.71.28-3.54.84-5.5.56-1.96,1.29-3.67,2.18-5.14,1.12-1.79,2.41-3.17,3.86-4.15,1.45-.98,2.95-1.46,4.49-1.46s2.9.5,3.97,1.5c1.07,1,1.6,2.22,1.6,3.65,0,1.16-.32,2.11-.96,2.87-.64.76-2.12,1.72-4.42,2.89ZM1051.46,27.1l.24-.12c5.78-2.96,8.67-5.25,8.67-6.86,0-.86-.31-1.61-.93-2.25-.62-.63-1.34-.95-2.17-.95-1.28,0-2.44.89-3.46,2.66-1.02,1.77-1.81,4.28-2.36,7.52Z"/>
      <path class="cls-1" d="M1068.17,38.77c1.03-4.23,1.82-7.97,2.39-11.22.57-3.25.85-5.69.85-7.34,0-.7-.1-1.22-.31-1.58-.2-.35-.5-.52-.89-.52-.29,0-1.12.42-2.47,1.27l-.2.12-.85-1.39.37-.27c2.93-2.2,4.83-3.3,5.69-3.3.8,0,1.37.26,1.72.77.35.51.53,1.36.53,2.55,0,1.04-.03,2.01-.1,2.92-.07.9-.16,1.68-.29,2.33,2.23-3.68,3.82-6.03,4.76-7.04.94-1.02,1.82-1.53,2.64-1.53.55,0,1.02.2,1.39.61.37.41.56.9.56,1.49,0,.36-.09.79-.28,1.31-.19.51-.58,1.36-1.18,2.55-.29-.41-.59-.71-.9-.9-.31-.2-.62-.29-.93-.29-.6,0-1.31.42-2.14,1.26-.82.84-2.11,2.52-3.87,5.04-.55,2.25-1.02,4.38-1.39,6.41-.38,2.03-.66,3.94-.85,5.75l-4.25,1Z"/>
      <path class="cls-1" d="M1096.86,25.42l-7.46,3.86v.24c0,1.94.31,3.41.92,4.42.61,1.01,1.49,1.51,2.65,1.51.68,0,1.54-.31,2.58-.92,1.03-.61,2.36-1.6,3.97-2.97l.85,1.54c-2.33,2.15-4.18,3.64-5.55,4.47-1.38.83-2.62,1.25-3.75,1.25-1.71,0-3.1-.74-4.17-2.22-1.06-1.48-1.6-3.43-1.6-5.83,0-1.71.28-3.54.84-5.5.56-1.96,1.29-3.67,2.18-5.14,1.12-1.79,2.41-3.17,3.86-4.15,1.45-.98,2.95-1.46,4.49-1.46s2.9.5,3.97,1.5c1.07,1,1.6,2.22,1.6,3.65,0,1.16-.32,2.11-.96,2.87-.64.76-2.12,1.72-4.42,2.89ZM1089.53,27.1l.24-.12c5.78-2.96,8.67-5.25,8.67-6.86,0-.86-.31-1.61-.93-2.25-.62-.63-1.34-.95-2.17-.95-1.28,0-2.44.89-3.46,2.66-1.02,1.77-1.81,4.28-2.36,7.52Z"/>
      <path class="cls-1" d="M1119.5,18.55l-1.37,1.29-.17-.15c-1.86-1.69-3.26-2.54-4.22-2.54s-1.66.27-2.26.82c-.59.54-.89,1.24-.89,2.09,0,1.3,1.13,2.9,3.39,4.79.28.23.48.4.61.51,1.68,1.43,2.78,2.56,3.31,3.37.53.81.79,1.69.79,2.64,0,1.81-.89,3.49-2.67,5.05-1.78,1.56-3.81,2.34-6.09,2.34-1.61,0-2.95-.28-4-.83-1.06-.55-1.59-1.23-1.59-2.03,0-.31.05-.58.15-.81.1-.23.32-.51.66-.85l1.29-1.2c1.07,1.19,1.97,2.02,2.69,2.49.72.47,1.42.71,2.1.71,1.03,0,1.9-.35,2.62-1.04.72-.69,1.09-1.51,1.09-2.45,0-1.07-1.12-2.6-3.34-4.59-.59-.52-1.03-.93-1.34-1.22-1.3-1.17-2.2-2.15-2.69-2.93s-.73-1.57-.73-2.37c0-1.74.88-3.37,2.65-4.88,1.77-1.51,3.7-2.27,5.8-2.27,1.4,0,2.57.26,3.5.78.94.52,1.4,1.13,1.4,1.83,0,.28-.06.53-.17.77-.11.24-.29.46-.51.67Z"/>
      <path class="cls-1" d="M1148.25,32.01c-2.13,2.29-3.9,3.96-5.3,4.99-1.4,1.03-2.56,1.55-3.49,1.55-1.3,0-2.32-.66-3.05-1.96-.73-1.31-1.1-3.12-1.1-5.43,0-4.48,1.25-8.38,3.74-11.71,2.49-3.33,5.37-4.99,8.64-4.99.65,0,1.31.09,1.98.27.67.18,1.39.46,2.17.83l3.37-1.95c-.5,2.18-1.15,5.69-1.93,10.52l-.12.78-1.71,10.55c-.67,4.1-1.12,6.94-1.36,8.52-.24,1.58-.35,2.57-.35,2.98,0,.76.18,1.3.54,1.6.36.3.98.45,1.88.45h.49l-.42,1.66c-1.04-.05-1.97-.09-2.79-.11-.82-.03-1.5-.04-2.04-.04-.81,0-1.73.02-2.73.07-1.01.05-2.13.12-3.37.22l.37-1.73h.29c2.29,0,3.68-1.37,4.15-4.1.02-.13.03-.24.05-.32l2.1-12.65ZM1148.59,29.2l1.81-11.08c-.8-.42-1.52-.74-2.16-.94-.64-.2-1.24-.3-1.79-.3-1.17,0-2.18.35-3.01,1.05-.84.7-1.57,1.8-2.19,3.3-.55,1.33-1,2.86-1.33,4.57-.33,1.71-.5,3.3-.5,4.79s.17,2.52.5,3.31c.33.79.79,1.18,1.38,1.18.54,0,1.38-.46,2.51-1.37,1.14-.91,2.73-2.41,4.79-4.49Z"/>
      <path class="cls-1" d="M1181.86,34.01l-3.37,3.15c-.6.59-1.14,1-1.62,1.25-.48.24-.97.37-1.48.37-.73,0-1.32-.35-1.77-1.06-.45-.71-.67-1.66-.67-2.84,0-.34.03-.75.09-1.23.06-.48.17-1.23.35-2.26-3.01,3.08-5.14,5.08-6.4,6.01-1.25.93-2.32,1.39-3.2,1.39-.93,0-1.7-.43-2.32-1.29-.62-.86-.93-1.97-.93-3.32,0-1.14.49-3.7,1.46-7.69.24-.94.42-1.66.54-2.15.34-1.35.59-2.44.76-3.26.16-.82.24-1.44.24-1.84,0-.33-.08-.59-.24-.79-.16-.2-.37-.31-.61-.31-.16,0-.48.11-.95.34-.47.23-1.12.58-1.95,1.05l-.68-1.34c1.51-1.12,2.84-2,3.98-2.62,1.14-.63,1.94-.94,2.42-.94.67,0,1.19.29,1.58.85.38.57.57,1.36.57,2.37,0,1.27-.5,3.73-1.5,7.37-1,3.65-1.5,6.38-1.5,8.2,0,.57.1.99.29,1.26.2.27.5.4.9.4.46,0,1.23-.45,2.33-1.35,1.1-.9,2.94-2.63,5.53-5.19.62-2.93,1.12-5.41,1.5-7.43.38-2.03.68-3.84.89-5.43l4.39-1.05-.54,2.42c-.93,3.96-1.43,6.16-1.51,6.62l-.59,3.12c-.29,1.48-.52,2.9-.7,4.25-.17,1.35-.26,2.3-.26,2.86,0,.38.07.67.22.88.15.21.34.32.59.32.23,0,.65-.22,1.27-.66.62-.44,1.33-1.03,2.12-1.78l.76,1.39Z"/>
      <path class="cls-1" d="M1196.36,25.42l-7.46,3.86v.24c0,1.94.31,3.41.92,4.42.61,1.01,1.49,1.51,2.65,1.51.68,0,1.54-.31,2.58-.92,1.03-.61,2.36-1.6,3.97-2.97l.85,1.54c-2.33,2.15-4.18,3.64-5.55,4.47-1.38.83-2.62,1.25-3.75,1.25-1.71,0-3.1-.74-4.17-2.22-1.06-1.48-1.6-3.43-1.6-5.83,0-1.71.28-3.54.84-5.5.56-1.96,1.29-3.67,2.18-5.14,1.12-1.79,2.41-3.17,3.86-4.15,1.45-.98,2.95-1.46,4.49-1.46s2.9.5,3.97,1.5c1.07,1,1.6,2.22,1.6,3.65,0,1.16-.32,2.11-.96,2.87-.64.76-2.12,1.72-4.42,2.89ZM1189.03,27.1l.24-.12c5.78-2.96,8.67-5.25,8.67-6.86,0-.86-.31-1.61-.93-2.25-.62-.63-1.34-.95-2.17-.95-1.28,0-2.44.89-3.46,2.66-1.02,1.77-1.81,4.28-2.36,7.52Z"/>
      <path class="cls-1" d="M1205.75,38.77c1.03-4.23,1.82-7.97,2.39-11.22.57-3.25.85-5.69.85-7.34,0-.7-.1-1.22-.31-1.58-.2-.35-.5-.52-.89-.52-.29,0-1.12.42-2.47,1.27l-.2.12-.85-1.39.37-.27c2.93-2.2,4.83-3.3,5.69-3.3.8,0,1.37.26,1.72.77.35.51.53,1.36.53,2.55,0,1.04-.03,2.01-.1,2.92-.07.9-.16,1.68-.29,2.33,2.23-3.68,3.82-6.03,4.76-7.04.94-1.02,1.82-1.53,2.64-1.53.55,0,1.02.2,1.39.61.37.41.56.9.56,1.49,0,.36-.09.79-.28,1.31-.19.51-.58,1.36-1.18,2.55-.29-.41-.59-.71-.9-.9-.31-.2-.62-.29-.93-.29-.6,0-1.31.42-2.14,1.26-.82.84-2.11,2.52-3.87,5.04-.55,2.25-1.02,4.38-1.39,6.41-.38,2.03-.66,3.94-.85,5.75l-4.25,1Z"/>
      <path class="cls-1" d="M1233.74,32.57l.85,1.44c-2,2.07-3.39,3.39-4.17,3.96s-1.47.85-2.08.85c-.86,0-1.55-.36-2.08-1.09-.52-.72-.78-1.7-.78-2.92,0-1.53.48-4.08,1.45-7.67.97-3.58,1.45-6.16,1.45-7.74,0-.41-.1-.73-.29-.98s-.45-.37-.76-.37c-.26,0-.6.11-1.03.32-.42.21-.95.54-1.59.98l-.73-1.29,3.25-2.37c.62-.46,1.16-.79,1.61-.99.46-.2.89-.31,1.29-.31.76,0,1.37.31,1.82.94.45.63.67,1.49.67,2.58,0,1.19-.42,3.52-1.27,6.98l-.44,1.76c-.46,1.84-.8,3.36-1.04,4.57-.24,1.21-.35,2.04-.35,2.49,0,.41.09.74.27,1,.18.26.41.39.68.39.26,0,.6-.16,1.03-.49.42-.33,1.16-1.01,2.22-2.05ZM1233.55,1.1l1.39,1.56c.39.41.66.77.82,1.09.16.32.23.64.23.96,0,.34-.12.67-.35.98-.24.31-.58.6-1.04.88l-2.15,1.2-1.56-1.86c-.33-.41-.54-.73-.63-.96-.1-.24-.15-.48-.15-.75,0-.37.1-.7.29-.99.2-.28.53-.56,1-.84l2.15-1.27Z"/>
      <path class="cls-1" d="M1252,31.86l-4.15,3.76c-1.22,1.11-2.19,1.87-2.92,2.29-.72.42-1.4.63-2.04.63-1.46,0-2.59-.62-3.37-1.87-.78-1.25-1.17-3.04-1.17-5.38,0-4.62,1.17-8.59,3.5-11.91,2.34-3.32,5.12-4.98,8.34-4.98.65,0,1.31.08,1.99.26.67.17,1.38.42,2.11.74l1.39-8.84c.05-.34.08-.69.11-1.04.02-.35.04-.7.04-1.06,0-.65-.13-1.1-.39-1.34-.26-.24-.74-.37-1.44-.37-.21,0-.43,0-.65.01-.22,0-.46.02-.72.04l-.1-1.44c1.35-.13,2.71-.31,4.09-.54,1.38-.23,2.76-.5,4.16-.83-1.51,7.81-2.76,14.86-3.74,21.16-.98,6.29-1.46,10.11-1.46,11.46,0,.83.08,1.41.23,1.75.16.33.41.5.77.5.2,0,.43-.08.7-.24.27-.16.61-.43,1.01-.81l1.49-1.34.81,1.39-2.81,2.76c-.98.94-1.68,1.55-2.12,1.81-.44.26-.86.39-1.27.39-.86,0-1.49-.41-1.89-1.22-.4-.81-.6-2.08-.6-3.78,0-.37,0-.71.02-1.01.02-.3.04-.61.07-.94ZM1251.95,29.37l1.83-11.06c-.9-.52-1.69-.9-2.39-1.14-.7-.24-1.35-.35-1.95-.35-2,0-3.69,1.28-5.05,3.85-1.37,2.56-2.05,5.76-2.05,9.58,0,1.55.18,2.72.55,3.52.37.8.91,1.2,1.62,1.2.49,0,1.4-.5,2.72-1.49,1.33-.99,2.9-2.36,4.72-4.1Z"/>
      <path class="cls-1" d="M1275.72,14.5c2.42,0,4.27.75,5.53,2.26,1.26,1.5,1.89,3.71,1.89,6.6,0,1.66-.33,3.43-.98,5.31-.65,1.88-1.53,3.58-2.64,5.09-1.19,1.63-2.54,2.88-4.04,3.75-1.5.87-3.09,1.31-4.75,1.31-2.18,0-3.92-.79-5.21-2.37-1.29-1.58-1.94-3.69-1.94-6.35,0-1.97.32-3.89.95-5.76.63-1.87,1.55-3.56,2.73-5.08,1.17-1.51,2.5-2.69,3.99-3.52,1.49-.83,2.97-1.25,4.46-1.25ZM1274.67,16.87c-1.89,0-3.52,1.3-4.88,3.89s-2.05,5.79-2.05,9.58c0,2,.35,3.54,1.04,4.6.69,1.06,1.7,1.59,3.01,1.59,1.99,0,3.67-1.27,5.07-3.83,1.39-2.55,2.09-5.68,2.09-9.38,0-2.2-.35-3.83-1.05-4.88-.7-1.05-1.77-1.58-3.22-1.58Z"/>
      <path class="cls-1" d="M1301.25,18.55l-1.37,1.29-.17-.15c-1.86-1.69-3.26-2.54-4.22-2.54s-1.66.27-2.26.82c-.59.54-.89,1.24-.89,2.09,0,1.3,1.13,2.9,3.39,4.79.28.23.48.4.61.51,1.68,1.43,2.78,2.56,3.31,3.37.53.81.79,1.69.79,2.64,0,1.81-.89,3.49-2.67,5.05-1.78,1.56-3.81,2.34-6.09,2.34-1.61,0-2.95-.28-4-.83-1.06-.55-1.59-1.23-1.59-2.03,0-.31.05-.58.15-.81.1-.23.32-.51.66-.85l1.29-1.2c1.07,1.19,1.97,2.02,2.69,2.49.72.47,1.42.71,2.1.71,1.03,0,1.9-.35,2.62-1.04.72-.69,1.09-1.51,1.09-2.45,0-1.07-1.12-2.6-3.34-4.59-.59-.52-1.03-.93-1.34-1.22-1.3-1.17-2.2-2.15-2.69-2.93s-.73-1.57-.73-2.37c0-1.74.88-3.37,2.65-4.88,1.77-1.51,3.7-2.27,5.8-2.27,1.4,0,2.57.26,3.5.78.94.52,1.4,1.13,1.4,1.83,0,.28-.06.53-.17.77-.11.24-.29.46-.51.67Z"/>
      <path class="cls-1" d="M1310.38,31.96l1.37,1.51c.42.44.71.81.87,1.12.16.31.23.63.23.98,0,.46-.14.86-.43,1.22-.28.36-.76.72-1.43,1.07l-1.81.95-1.39-1.46c-.41-.41-.7-.78-.88-1.11-.18-.33-.27-.68-.27-1.04,0-.46.13-.86.4-1.21.27-.35.7-.68,1.28-.99l2.05-1.05Z"/>
    </g>
  </g>
</svg>