<?xml version="1.0" encoding="UTF-8"?>
<svg id="Capa_2" data-name="Capa 2" xmlns="http://www.w3.org/2000/svg" viewBox="0 0 675.35 69.83">
  <defs>
    <style>
      .cls-1 {
        fill: #344021;
      }
    </style>
  </defs>
  <g id="Slide_4" data-name="Slide 4">
    <g>
      <path class="cls-1" d="M60.61,19.38c0,6.46-2.72,11.81-8.17,16.05-5.07,3.93-10.92,5.89-17.57,5.89-1.33,0-4.02-.51-8.08-1.52-.76-.19-1.24.22-1.42,1.24l-3.9,19.64c-.25,1.21.32,2.22,1.71,3.05.57.32,1.93.83,4.08,1.53l-.85,2.38c-5.83-.32-10.17-.47-13.02-.47s-7.44.16-13.39.47v-2.28c3.1-.83,5.04-1.52,5.79-2.09,1.33-.89,2.25-2.57,2.75-5.04L17.58,15.79c.13-.57.19-1.11.19-1.62,0-2.41-1.9-4.22-5.7-5.42l1.04-2.38c5.45.25,9.5.38,12.16.38,2.22,0,5.54-.06,9.98-.19,4.43-.13,7.76-.19,9.97-.19,4.37,0,7.95,1.04,10.74,3.13,3.1,2.34,4.65,5.64,4.65,9.88ZM46.46,19.38c0-3.17-.94-5.68-2.8-7.55-1.87-1.87-4.39-2.8-7.55-2.8-2.6,0-4.18,1.36-4.75,4.08l-4.56,21.94c-.19.89.19,1.62,1.14,2.19.95.57,1.9.85,2.85.85,4.43,0,8.2-2.03,11.3-6.08,2.91-3.8,4.37-8.01,4.37-12.63Z"/>
      <path class="cls-1" d="M93.76,33.63c0,5.19-3.07,9.09-9.21,11.69-3.29,1.46-8.61,2.72-15.96,3.8-.19,2.66-.29,4.05-.29,4.18,0,2.66.76,5.07,2.28,7.22,1.65,2.41,3.74,3.61,6.27,3.61,2.34,0,4.78-1.17,7.32-3.51,2.22-2.03,3.89-4.28,5.04-6.75l1.71.38c-3.42,9.31-10.01,13.96-19.76,13.96-4.43,0-8.04-1.34-10.83-4.04-2.79-2.69-4.18-6.25-4.18-10.69,0-7.54,2.57-14.38,7.7-20.52,5.32-6.4,11.68-9.59,19.09-9.59,3.1,0,5.68.94,7.74,2.8,2.06,1.87,3.09,4.35,3.09,7.46ZM85.21,30.12c0-2.79-1.11-4.18-3.33-4.18-3.1,0-6.02,2.76-8.74,8.27-1.9,3.93-3.29,8.11-4.18,12.54,4.05-.32,7.77-2.17,11.16-5.56s5.08-7.08,5.08-11.07Z"/>
      <path class="cls-1" d="M139.65,27.93c0,2.98-1.27,6.59-3.8,10.83l-2.28-.29c-.19-2.53-1.49-3.8-3.9-3.8-3.8,0-7.44,4.62-10.92,13.87-1.08,2.85-2.95,9.28-5.61,19.29l-11.88-1.04,6.94-31.45c.13-.63.19-1.23.19-1.8,0-2.47-1.9-4.21-5.7-5.23l1.04-2.38c5.89,0,11.91-.85,18.05-2.56.38.38.47,1.08.29,2.09-.25,1.33-1.74,7.98-4.46,19.95,5.89-14.69,11.62-22.04,17.19-22.04,3.23,0,4.85,1.52,4.85,4.56Z"/>
      <path class="cls-1" d="M174.13,29.92c0,1.9-1.02,4.08-3.04,6.56l-3.23-1.62v-1.42c.06-2.03-.62-3.82-2.04-5.37-1.42-1.55-3.09-2.33-4.99-2.33-1.52,0-2.8.55-3.85,1.66-1.04,1.11-1.57,2.42-1.57,3.94,0,1.71,1.36,3.83,4.08,6.37,4.5,4.31,7,6.75,7.5,7.32,2.66,3.17,3.99,6.43,3.99,9.79,0,4.43-1.87,7.88-5.61,10.35-3.17,2.09-7.06,3.17-11.68,3.23-5.19.06-10.04-1.43-14.54-4.47l2.56-10.07,4.75,1.71c.51,6.84,3.1,10.26,7.79,10.26,1.65,0,3.12-.6,4.42-1.8,1.3-1.2,1.95-2.63,1.95-4.28,0-1.9-1.39-4.18-4.18-6.84-2.53-2.47-5.1-4.91-7.7-7.32-2.79-3.1-4.18-6.11-4.18-9.02,0-4.43,1.93-7.85,5.79-10.26,3.23-2.03,7.22-3.04,11.97-3.04,2.72,0,5.19.44,7.41,1.33,2.91,1.2,4.37,2.98,4.37,5.32Z"/>
      <path class="cls-1" d="M223.63,40.09c0,7.35-2.51,13.84-7.52,19.48-5.21,5.83-11.46,8.74-18.76,8.74-4.95,0-9.05-1.58-12.28-4.75-3.24-3.17-4.86-7.22-4.86-12.16,0-7.35,2.57-13.87,7.71-19.57s11.36-8.55,18.66-8.55c5.01,0,9.11,1.55,12.28,4.65,3.17,3.1,4.76,7.16,4.76,12.16ZM211.66,35.82c0-6.65-1.99-9.98-5.96-9.98s-7.28,4.05-10.12,12.16c-2.27,6.52-3.4,12.22-3.4,17.1,0,7.16,1.98,10.74,5.96,10.74s7.28-4.18,10.12-12.54c2.27-6.65,3.4-12.48,3.4-17.48Z"/>
      <path class="cls-1" d="M278.92,29.66c0,1.78-.82,5.59-2.47,11.43-2.22,8-3.36,12.06-3.42,12.19-.76,3.24-1.14,5.37-1.14,6.38,0,1.84.63,2.76,1.9,2.76.89,0,2.28-.7,4.18-2.09v3.13c-4.81,3.93-9.12,5.89-12.92,5.89-2.03,0-3.44-.35-4.23-1.05-.79-.7-1.19-2.06-1.19-4.1,0-3.62,1.03-8.92,3.09-15.9,2.06-6.98,3.09-12.16,3.09-15.52,0-1.84-.67-2.76-1.99-2.76-2.91,0-6.78,4.29-11.59,12.86-2.53,4.51-5.42,12.83-8.64,24.95l-11.88-.95,6.93-31.54c.13-.63.19-1.2.19-1.71,0-2.53-1.9-4.31-5.7-5.32l1.04-2.38c5.89,0,11.91-.85,18.05-2.56.25.95.35,1.65.29,2.09-.19,1.2-1.68,7.85-4.46,19.95,3.61-6.42,6.78-11.16,9.5-14.22,4.69-5.22,9.47-7.82,14.34-7.82,2.03,0,3.71.54,5.04,1.62s2,2.63,2,4.67Z"/>
      <path class="cls-1" d="M334.3,24.42c-1.71,6.46-4.15,16.21-7.31,29.26-.51,2.34-.76,4.15-.76,5.42,0,2.03.57,3.04,1.71,3.04.82,0,2.15-.6,3.99-1.8v3.04c-5.29,4.31-9.48,6.46-12.57,6.46-3.59,0-5.42-1.84-5.48-5.51-.06-4.18,1.17-10.04,3.71-17.58h-.29c-2.53,5.38-5.38,9.97-8.55,13.77-4.5,5.38-8.93,8.08-13.3,8.08-2.79,0-4.97-1.11-6.56-3.33-1.33-1.96-2-4.43-2-7.41,0-8.8,2.41-16.53,7.22-23.18,5.32-7.41,12.22-11.12,20.71-11.12,1.27,0,2.8.35,4.61,1.05,1.8.7,2.74,1.04,2.8,1.04.51,0,.76-.41.76-1.24h11.3ZM316.25,26.41c-4.69,0-8.87,4.02-12.54,12.06-3.1,6.84-4.66,12.95-4.66,18.33,0,2.98.86,4.47,2.57,4.47,2.09,0,4.66-2.22,7.7-6.65,2.15-3.17,3.96-6.4,5.41-9.69,2.91-6.65,4.37-11.56,4.37-14.72,0-2.53-.95-3.8-2.85-3.8Z"/>
      <path class="cls-1" d="M367.46,2.18c-2.47,11.34-6.14,28.37-11.02,51.11-.51,2.34-.76,4.28-.76,5.79,0,2.15.54,3.26,1.62,3.33.63.06,2.03-.63,4.18-2.09v3.13c-4.5,3.67-8.8,5.64-12.92,5.89-3.04.19-4.56-2.09-4.56-6.84,0-2.6.57-6.81,1.71-12.63l7.41-37.91c.13-.7.19-1.33.19-1.9,0-1.65-.6-2.88-1.81-3.71-.7-.44-2.03-.92-3.99-1.42l1.04-2.38c6.27,0,12.48-.86,18.62-2.57.38.51.47,1.24.29,2.18Z"/>
      <path class="cls-1" d="M395.29,25.55c-.89,4.18-2.94,13.43-6.17,27.74-.63,2.72-.95,4.72-.95,5.99,0,1.96.57,3.01,1.71,3.13.63.06,2.03-.63,4.18-2.09v3.13c-4.81,3.93-9.09,5.89-12.83,5.89-1.96,0-3.36-.32-4.18-.95-.82-.63-1.24-1.93-1.24-3.9,0-3.61.7-8.58,2.09-14.92,1.2-4.75,2.38-9.5,3.51-14.25.13-.63.19-1.23.19-1.8,0-2.47-1.9-4.21-5.7-5.23l1.04-2.38c5.89,0,11.91-.85,18.05-2.56.38.51.48,1.24.29,2.18ZM397.48,10.92c0,1.96-.73,3.69-2.19,5.18-1.46,1.49-3.17,2.23-5.13,2.23-1.58,0-2.88-.54-3.89-1.62-1.01-1.08-1.52-2.41-1.52-3.99,0-1.9.73-3.59,2.19-5.08,1.46-1.49,3.13-2.23,5.03-2.23,1.65,0,2.98.51,3.99,1.52,1.01,1.01,1.52,2.34,1.52,3.99Z"/>
      <path class="cls-1" d="M441.93,25.17c1.08,0,1.62.44,1.62,1.33,0,1.2-.6,2.38-1.8,3.52-1.84,1.52-4.59,3.86-8.27,7.03-5.45,4.94-11.91,11.59-19.38,19.95,2.22,0,4.12.13,5.7.38.76.13,2.5.57,5.22,1.33,2.09.57,3.83.86,5.23.86s2.88-1.01,4.46-3.04c1.58-2.03,2.41-3.77,2.47-5.23h2.38c0,11.4-3.39,17.1-10.17,17.1-1.77,0-4.26-.62-7.46-1.85-3.2-1.24-5.62-1.85-7.27-1.85-1.52,0-3.48.51-5.89,1.52-2.79,1.27-4.72,2-5.8,2.19l-2.09-1.98c.51-1.01,1.6-2.25,3.28-3.73,1.68-1.48,3.09-2.47,4.23-2.98,5.7-6.61,13.4-14.48,23.08-23.61h-3.13c-1.96.06-4.43-.17-7.41-.71-2.98-.54-5.19-.81-6.65-.81-4.5,0-6.62,1.87-6.37,5.6h-1.8c-.51-2.03-.76-4.02-.76-5.98,0-7.09,3.39-10.64,10.17-10.64,1.9,0,4.61.65,8.12,1.95,3.51,1.3,6.25,1.95,8.22,1.95,1.2,0,2.9-.38,5.08-1.14,2.19-.76,3.85-1.14,4.99-1.14Z"/>
      <path class="cls-1" d="M494.18,24.42c-1.71,6.46-4.15,16.21-7.32,29.26-.51,2.34-.76,4.15-.76,5.42,0,2.03.57,3.04,1.71,3.04.82,0,2.15-.6,3.99-1.8v3.04c-5.29,4.31-9.48,6.46-12.57,6.46-3.59,0-5.42-1.84-5.48-5.51-.06-4.18,1.17-10.04,3.71-17.58h-.29c-2.53,5.38-5.38,9.97-8.55,13.77-4.5,5.38-8.93,8.08-13.3,8.08-2.79,0-4.97-1.11-6.55-3.33-1.33-1.96-2-4.43-2-7.41,0-8.8,2.41-16.53,7.22-23.18,5.32-7.41,12.22-11.12,20.71-11.12,1.27,0,2.8.35,4.61,1.05,1.8.7,2.74,1.04,2.8,1.04.51,0,.76-.41.76-1.24h11.3ZM476.13,26.41c-4.69,0-8.87,4.02-12.54,12.06-3.1,6.84-4.66,12.95-4.66,18.33,0,2.98.86,4.47,2.57,4.47,2.09,0,4.65-2.22,7.69-6.65,2.15-3.17,3.96-6.4,5.42-9.69,2.91-6.65,4.37-11.56,4.37-14.72,0-2.53-.95-3.8-2.85-3.8Z"/>
      <path class="cls-1" d="M537.98,29.36c0,1.96-1.17,4.34-3.52,7.12l-3.33-1.62c.25-.57.38-1.3.38-2.19,0-1.65-.48-3.17-1.43-4.56-1.14-1.46-2.5-2.19-4.08-2.19-3.8,0-7,3.48-9.59,10.45-2.03,5.64-3.04,10.77-3.04,15.39,0,7.92,2.57,11.88,7.7,11.88s9.66-3.48,13.21-10.45l1.61.29c-3.17,9.82-9.66,14.72-19.47,14.72-4.81,0-8.66-1.36-11.54-4.08-2.88-2.72-4.32-6.49-4.32-11.3,0-7.66,2.63-14.49,7.89-20.47,5.26-5.99,11.68-8.98,19.28-8.98,2.47,0,4.66.38,6.56,1.14,2.47,1.08,3.71,2.69,3.71,4.85Z"/>
      <path class="cls-1" d="M568.28,25.55c-.89,4.18-2.94,13.43-6.17,27.74-.63,2.72-.95,4.72-.95,5.99,0,1.96.57,3.01,1.71,3.13.63.06,2.03-.63,4.18-2.09v3.13c-4.81,3.93-9.09,5.89-12.83,5.89-1.96,0-3.36-.32-4.18-.95-.82-.63-1.24-1.93-1.24-3.9,0-3.61.7-8.58,2.09-14.92,1.2-4.75,2.38-9.5,3.51-14.25.13-.63.19-1.23.19-1.8,0-2.47-1.9-4.21-5.7-5.23l1.04-2.38c5.89,0,11.91-.85,18.05-2.56.38.51.48,1.24.29,2.18ZM570.47,10.92c0,1.96-.73,3.69-2.19,5.18-1.46,1.49-3.17,2.23-5.13,2.23-1.58,0-2.88-.54-3.89-1.62-1.01-1.08-1.52-2.41-1.52-3.99,0-1.9.73-3.59,2.19-5.08,1.46-1.49,3.13-2.23,5.03-2.23,1.65,0,2.98.51,3.99,1.52,1.01,1.01,1.52,2.34,1.52,3.99Z"/>
      <path class="cls-1" d="M620.06,40.09c0,7.35-2.51,13.84-7.52,19.48-5.21,5.83-11.46,8.74-18.76,8.74-4.95,0-9.05-1.58-12.28-4.75-3.24-3.17-4.86-7.22-4.86-12.16,0-7.35,2.57-13.87,7.71-19.57s11.36-8.55,18.66-8.55c5.01,0,9.11,1.55,12.28,4.65,3.17,3.1,4.76,7.16,4.76,12.16ZM608.09,35.82c0-6.65-1.99-9.98-5.96-9.98s-7.28,4.05-10.12,12.16c-2.27,6.52-3.4,12.22-3.4,17.1,0,7.16,1.98,10.74,5.96,10.74s7.28-4.18,10.12-12.54c2.27-6.65,3.4-12.48,3.4-17.48ZM619.68,4.18l-19.85,14.73-2.19-.95,14.25-14.92,7.79,1.14Z"/>
      <path class="cls-1" d="M675.35,29.66c0,1.78-.82,5.59-2.47,11.43-2.22,8-3.36,12.06-3.42,12.19-.76,3.24-1.14,5.37-1.14,6.38,0,1.84.63,2.76,1.9,2.76.89,0,2.28-.7,4.18-2.09v3.13c-4.81,3.93-9.12,5.89-12.92,5.89-2.03,0-3.44-.35-4.23-1.05-.79-.7-1.19-2.06-1.19-4.1,0-3.62,1.03-8.92,3.09-15.9,2.06-6.98,3.09-12.16,3.09-15.52,0-1.84-.67-2.76-2-2.76-2.91,0-6.78,4.29-11.59,12.86-2.53,4.51-5.42,12.83-8.65,24.95l-11.88-.95,6.94-31.54c.13-.63.19-1.2.19-1.71,0-2.53-1.9-4.31-5.7-5.32l1.04-2.38c5.89,0,11.91-.85,18.05-2.56.25.95.35,1.65.28,2.09-.19,1.2-1.68,7.85-4.46,19.95,3.61-6.42,6.78-11.16,9.5-14.22,4.69-5.22,9.47-7.82,14.35-7.82,2.03,0,3.71.54,5.03,1.62,1.33,1.08,2,2.63,2,4.67Z"/>
    </g>
  </g>
</svg>