<?xml version="1.0" encoding="UTF-8"?>
<svg id="Capa_2" data-name="Capa 2" xmlns="http://www.w3.org/2000/svg" viewBox="0 0 294.21 33.39">
  <defs>
    <style>
      .cls-1 {
        fill: #f2e9ce;
      }
    </style>
  </defs>
  <g id="Slide_4" data-name="Slide 4">
    <g id="AC">
      <g id="A1_Pino_Piñonero" data-name="A1 Pino Piñonero">
        <g>
          <path class="cls-1" d="M8.69,5.98c1.29-.66,2.74-1.3,4.34-1.91s3.24-1.15,4.91-1.62c1.67-.46,3.31-.84,4.93-1.12s3.09-.43,4.41-.43c1.44,0,2.9.11,4.37.34,1.47.22,2.81.6,4.03,1.12,1.21.53,2.21,1.21,2.97,2.05.76.84,1.15,1.88,1.15,3.11,0,1.41-.31,2.68-.92,3.8s-1.43,2.11-2.45,2.97c-1.02.85-2.18,1.58-3.49,2.18-1.3.6-2.65,1.1-4.03,1.51-1.38.41-2.74.7-4.07.88s-2.56.29-3.67.32c-.24,0-.36-.12-.36-.36,0-.18.06-.34.18-.47.12-.13.3-.2.54-.2,1.35-.06,2.72-.34,4.12-.86,1.4-.51,2.66-1.21,3.8-2.09s2.08-1.94,2.81-3.17c.74-1.23,1.1-2.59,1.1-4.09,0-.81-.18-1.51-.54-2.09-.36-.58-.83-1.09-1.42-1.51-.58-.42-1.26-.76-2.02-1.04-.77-.27-1.55-.48-2.36-.63l.04.18c-.96.66-1.84,1.56-2.63,2.7-.79,1.14-1.45,2.6-1.96,4.37-.81,2.82-1.63,5.38-2.45,7.67-.82,2.29-1.7,4.3-2.63,6.03-.93,1.73-1.94,3.14-3.04,4.25-1.09,1.11-2.32,1.89-3.67,2.34.9.18,1.8.27,2.7.27s1.88-.04,2.83-.14c.96-.09,1.84-.15,2.66-.18.69,0,1.04.24,1.04.72,0,.27-.11.55-.32.83s-.47.55-.79.79c-.31.24-.67.44-1.08.61-.4.17-.82.25-1.24.25-1.65,0-3.35-.05-5.09-.16-1.74-.11-3.53-.16-5.35-.16-.9,0-1.81.02-2.72.07s-1.84.13-2.77.25c-.18.03-.32-.07-.41-.29-.09-.22-.13-.5-.13-.83,0-.54.1-1.05.29-1.53.19-.48.44-.72.74-.72.6.03,1.35.14,2.25.34.9.2,1.8.29,2.7.29,1.05,0,2.02-.22,2.9-.65.88-.43,1.54-1.27,1.96-2.5.66-2.01,1.24-3.94,1.73-5.78.49-1.84,1.01-3.6,1.55-5.26s1.14-3.22,1.8-4.68c.66-1.45,1.48-2.77,2.45-3.94.97-1.17,2.15-2.2,3.53-3.08s3.04-1.58,5-2.09c-1.17-.18-2.31-.27-3.42-.27-1.26,0-2.46.2-3.6.61-1.14.4-2.22.92-3.24,1.53-1.02.62-1.96,1.29-2.84,2.03-.87.74-1.65,1.43-2.34,2.09-.69.66-1.28,1.22-1.78,1.69-.49.46-.88.76-1.15.88-.45,0-.77-.17-.97-.52-.2-.34-.29-.76-.29-1.24,0-.69.14-1.39.43-2.09.28-.71.61-1.15.97-1.33Z"/>
          <path class="cls-1" d="M42.21,16.92c.21-.63.32-1.19.32-1.67,0-.75-.24-1.26-.72-1.53-.48-.27-1.05-.41-1.71-.41-.18,0-.27-.07-.27-.22,0-.24.15-.39.45-.45.96-.12,1.82-.24,2.59-.36.76-.12,1.5-.25,2.21-.38.7-.14,1.38-.29,2.02-.45s1.31-.35,2-.56c.12-.06.28-.09.5-.09.27,0,.36.15.27.45l-4.27,13.09c-.24.87-.47,1.7-.67,2.47-.21.78-.32,1.46-.32,2.03,0,.45.08.81.25,1.08.17.27.43.4.79.4s.73-.15,1.12-.45c.39-.3.79-.7,1.21-1.19.42-.5.87-1.07,1.35-1.71.48-.64.99-1.3,1.53-1.96.21-.15.33-.22.36-.22.15,0,.25.08.32.25.06.17.06.28,0,.34-.72,1.08-1.43,2.11-2.14,3.08-.71.98-1.42,1.82-2.14,2.54-.72.72-1.48,1.3-2.27,1.73s-1.64.65-2.54.65c-1.26,0-2.17-.32-2.72-.95-.56-.63-.83-1.58-.83-2.83,0-1.56.43-3.67,1.3-6.34l2.03-6.34ZM44.78,5.22c.54-.6,1.03-1.21,1.48-1.84.45-.63.91-1.19,1.37-1.69.46-.5.96-.9,1.48-1.22.52-.31,1.12-.47,1.78-.47.84,0,1.5.21,1.98.63.48.42.72.97.72,1.67s-.24,1.37-.72,1.96c-.48.58-1.07,1.09-1.78,1.51-.71.42-1.46.74-2.27.97-.81.23-1.54.34-2.21.34-.6,0-1.1-.09-1.51-.27-.41-.18-.61-.48-.61-.9,0-.18.09-.41.27-.67Z"/>
          <path class="cls-1" d="M56.83,17.01c.09-.33.17-.63.22-.9.06-.27.09-.52.09-.76,0-.6-.2-1.06-.58-1.4-.39-.33-1.07-.5-2.03-.5-.12,0-.18-.07-.18-.22,0-.27.15-.43.45-.5,1.8-.21,3.38-.45,4.75-.72,1.37-.27,2.74-.61,4.12-1.04.18-.06.35-.09.5-.09.3,0,.4.15.31.45l-4.32,12.73h.13c.81-1.56,1.6-3.13,2.36-4.7.76-1.58,1.55-3,2.36-4.28.81-1.27,1.68-2.32,2.61-3.13.93-.81,1.99-1.21,3.19-1.21.57,0,1.1.06,1.6.18.5.12.93.32,1.31.61.37.29.67.69.88,1.21.21.53.31,1.19.31,2,0,.6-.07,1.32-.22,2.16s-.39,1.79-.72,2.83l-1.49,4.59c-.3.87-.55,1.7-.74,2.5-.2.8-.29,1.48-.29,2.05,0,.96.34,1.44,1.04,1.44.36,0,.73-.15,1.12-.45.39-.3.79-.7,1.21-1.19.42-.5.86-1.07,1.33-1.71.46-.64.98-1.3,1.55-1.96.15-.15.27-.22.36-.22.15,0,.25.08.29.25.04.17.04.28-.02.34-.72,1.08-1.43,2.11-2.14,3.08-.71.98-1.42,1.82-2.14,2.54-.72.72-1.48,1.3-2.27,1.73s-1.64.65-2.54.65c-1.26,0-2.17-.32-2.72-.95s-.83-1.58-.83-2.83c0-.78.12-1.7.36-2.77.24-1.06.57-2.26.99-3.58l1.17-3.38c.45-1.38.79-2.5,1.01-3.38.22-.87.34-1.56.34-2.07s-.11-.85-.32-1.04c-.21-.18-.48-.27-.81-.27-.36,0-.8.27-1.31.81s-1.06,1.25-1.64,2.14c-.58.89-1.19,1.9-1.82,3.04-.63,1.14-1.24,2.32-1.84,3.53s-1.18,2.42-1.75,3.62c-.57,1.2-1.08,2.29-1.53,3.29l-.9,2.75c-.09.27-.24.49-.45.65-.21.17-.45.23-.72.2l-3.24-.31c-.42-.06-.73-.25-.92-.56-.2-.32-.22-.7-.07-1.15l4.59-14.13Z"/>
          <path class="cls-1" d="M78.88,26.32c0-1.74.32-3.53.97-5.38.64-1.85,1.54-3.53,2.7-5.06,1.15-1.53,2.53-2.78,4.12-3.76,1.59-.97,3.33-1.46,5.22-1.46,2.25,0,3.99.62,5.22,1.85,1.23,1.23,1.84,2.97,1.84,5.22,0,1.77-.31,3.58-.94,5.42-.63,1.84-1.52,3.53-2.68,5.04s-2.53,2.75-4.12,3.71c-1.59.96-3.35,1.44-5.26,1.44-2.22,0-3.95-.61-5.2-1.82-1.25-1.22-1.87-2.95-1.87-5.2ZM84.6,27.94c0,1.41.18,2.51.54,3.29.36.78.88,1.17,1.58,1.17.99,0,1.88-.57,2.68-1.71.79-1.14,1.48-2.55,2.05-4.23.57-1.68,1.01-3.47,1.33-5.38.32-1.9.47-3.62.47-5.15,0-1.35-.17-2.43-.49-3.24-.33-.81-.8-1.21-1.4-1.21-.66,0-1.29.26-1.89.79-.6.53-1.15,1.23-1.64,2.12-.5.89-.95,1.9-1.35,3.04-.41,1.14-.74,2.33-1.01,3.56-.27,1.23-.48,2.45-.63,3.64-.15,1.2-.23,2.31-.23,3.33Z"/>
          <path class="cls-1" d="M115.92,5.98c1.29-.66,2.74-1.3,4.34-1.91,1.6-.62,3.24-1.15,4.9-1.62,1.67-.46,3.31-.84,4.93-1.12,1.62-.29,3.09-.43,4.41-.43,1.44,0,2.89.11,4.37.34,1.47.22,2.81.6,4.03,1.12,1.21.53,2.21,1.21,2.97,2.05.76.84,1.15,1.88,1.15,3.11,0,1.41-.31,2.68-.92,3.8-.62,1.12-1.43,2.11-2.45,2.97-1.02.85-2.18,1.58-3.49,2.18-1.3.6-2.65,1.1-4.03,1.51-1.38.41-2.74.7-4.07.88s-2.56.29-3.67.32c-.24,0-.36-.12-.36-.36,0-.18.06-.34.18-.47.12-.13.3-.2.54-.2,1.35-.06,2.72-.34,4.12-.86,1.39-.51,2.66-1.21,3.8-2.09,1.14-.88,2.08-1.94,2.81-3.17.73-1.23,1.1-2.59,1.1-4.09,0-.81-.18-1.51-.54-2.09-.36-.58-.83-1.09-1.42-1.51-.58-.42-1.26-.76-2.03-1.04-.76-.27-1.55-.48-2.36-.63l.04.18c-.96.66-1.84,1.56-2.63,2.7-.8,1.14-1.45,2.6-1.96,4.37-.81,2.82-1.63,5.38-2.45,7.67-.83,2.29-1.7,4.3-2.63,6.03-.93,1.73-1.94,3.14-3.04,4.25-1.1,1.11-2.32,1.89-3.67,2.34.9.18,1.8.27,2.7.27s1.87-.04,2.83-.14c.96-.09,1.84-.15,2.65-.18.69,0,1.04.24,1.04.72,0,.27-.11.55-.31.83-.21.29-.47.55-.79.79-.32.24-.68.44-1.08.61-.41.17-.82.25-1.24.25-1.65,0-3.35-.05-5.08-.16-1.74-.11-3.53-.16-5.36-.16-.9,0-1.81.02-2.72.07-.92.04-1.84.13-2.77.25-.18.03-.31-.07-.4-.29-.09-.22-.14-.5-.14-.83,0-.54.1-1.05.29-1.53.2-.48.44-.72.74-.72.6.03,1.35.14,2.25.34.9.2,1.8.29,2.7.29,1.05,0,2.02-.22,2.9-.65s1.54-1.27,1.96-2.5c.66-2.01,1.24-3.94,1.73-5.78.5-1.84,1.01-3.6,1.55-5.26.54-1.67,1.14-3.22,1.8-4.68.66-1.45,1.48-2.77,2.45-3.94.97-1.17,2.15-2.2,3.53-3.08,1.38-.88,3.04-1.58,5-2.09-1.17-.18-2.31-.27-3.42-.27-1.26,0-2.46.2-3.6.61-1.14.4-2.22.92-3.24,1.53-1.02.62-1.96,1.29-2.83,2.03-.87.74-1.65,1.43-2.34,2.09-.69.66-1.28,1.22-1.78,1.69-.5.46-.88.76-1.15.88-.45,0-.77-.17-.97-.52-.2-.34-.29-.76-.29-1.24,0-.69.14-1.39.43-2.09s.61-1.15.97-1.33Z"/>
          <path class="cls-1" d="M149.44,16.92c.21-.63.31-1.19.31-1.67,0-.75-.24-1.26-.72-1.53-.48-.27-1.05-.41-1.71-.41-.18,0-.27-.07-.27-.22,0-.24.15-.39.45-.45.96-.12,1.82-.24,2.59-.36.76-.12,1.5-.25,2.21-.38.7-.14,1.38-.29,2.02-.45.65-.17,1.31-.35,2-.56.12-.06.29-.09.49-.09.27,0,.36.15.27.45l-4.27,13.09c-.24.87-.47,1.7-.68,2.47-.21.78-.31,1.46-.31,2.03,0,.45.08.81.25,1.08.17.27.43.4.79.4s.73-.15,1.12-.45c.39-.3.79-.7,1.21-1.19.42-.5.87-1.07,1.35-1.71.48-.64.99-1.3,1.53-1.96.21-.15.33-.22.36-.22.15,0,.25.08.31.25.06.17.06.28,0,.34-.72,1.08-1.43,2.11-2.14,3.08-.71.98-1.42,1.82-2.14,2.54-.72.72-1.48,1.3-2.27,1.73-.8.43-1.64.65-2.54.65-1.26,0-2.17-.32-2.72-.95s-.83-1.58-.83-2.83c0-1.56.43-3.67,1.3-6.34l2.03-6.34ZM152.01,5.22c.54-.6,1.04-1.21,1.48-1.84.45-.63.91-1.19,1.37-1.69.46-.5.96-.9,1.48-1.22.53-.31,1.12-.47,1.78-.47.84,0,1.5.21,1.98.63s.72.97.72,1.67-.24,1.37-.72,1.96-1.07,1.09-1.78,1.51-1.46.74-2.27.97c-.81.23-1.55.34-2.21.34-.6,0-1.1-.09-1.51-.27-.41-.18-.61-.48-.61-.9,0-.18.09-.41.27-.67Z"/>
          <path class="cls-1" d="M164.16,17.01c.09-.33.16-.63.22-.9.06-.27.09-.52.09-.76,0-.6-.2-1.06-.58-1.4-.39-.33-1.07-.5-2.03-.5-.12,0-.18-.07-.18-.22,0-.27.15-.43.45-.5,1.8-.21,3.38-.45,4.75-.72,1.36-.27,2.74-.61,4.12-1.04.18-.06.34-.09.49-.09.3,0,.41.15.32.45l-4.32,12.73h.13c.81-1.56,1.6-3.13,2.36-4.7.77-1.58,1.55-3,2.36-4.28.81-1.27,1.68-2.32,2.61-3.13.93-.81,2-1.21,3.2-1.21.57,0,1.1.06,1.6.18.5.12.93.32,1.3.61s.67.69.88,1.21c.21.53.31,1.19.31,2,0,.6-.08,1.32-.22,2.16-.15.84-.39,1.79-.72,2.83l-1.48,4.59c-.3.87-.55,1.7-.74,2.5-.2.8-.29,1.48-.29,2.05,0,.96.34,1.44,1.04,1.44.36,0,.73-.15,1.12-.45.39-.3.79-.7,1.21-1.19.42-.5.86-1.07,1.33-1.71.46-.64.98-1.3,1.55-1.96.15-.15.27-.22.36-.22.15,0,.25.08.29.25.04.17.04.28-.02.34-.72,1.08-1.43,2.11-2.14,3.08-.71.98-1.42,1.82-2.14,2.54-.72.72-1.48,1.3-2.27,1.73-.8.43-1.64.65-2.54.65-1.26,0-2.17-.32-2.72-.95-.56-.63-.83-1.58-.83-2.83,0-.78.12-1.7.36-2.77.24-1.06.57-2.26.99-3.58l1.17-3.38c.45-1.38.79-2.5,1.01-3.38s.34-1.56.34-2.07-.11-.85-.31-1.04c-.21-.18-.48-.27-.81-.27-.36,0-.79.27-1.3.81s-1.06,1.25-1.64,2.14c-.59.89-1.19,1.9-1.82,3.04-.63,1.14-1.25,2.32-1.85,3.53s-1.19,2.42-1.75,3.62c-.57,1.2-1.08,2.29-1.53,3.29l-.9,2.75c-.09.27-.24.49-.45.65-.21.17-.45.23-.72.2l-3.24-.31c-.42-.06-.73-.25-.92-.56-.2-.32-.22-.7-.07-1.15l4.59-14.13ZM176.67,1.66c.66,0,1.19.1,1.6.29.4.2.76.42,1.08.67.31.26.62.48.92.67.3.2.68.29,1.12.29.51,0,.98-.14,1.42-.43.43-.28.8-.59,1.1-.92.12-.09.25-.17.38-.25.13-.07.26-.11.38-.11.18,0,.31.05.38.16.07.11.04.25-.11.43-.57.96-1.3,1.83-2.18,2.61s-1.85,1.17-2.9,1.17c-.66,0-1.19-.11-1.58-.34-.39-.22-.73-.47-1.04-.74-.3-.27-.6-.52-.9-.74-.3-.22-.68-.34-1.12-.34-.57,0-1.08.15-1.53.45-.45.3-.82.62-1.12.94-.3.24-.57.36-.81.36-.39,0-.48-.18-.27-.54.6-.99,1.34-1.84,2.23-2.57.88-.72,1.87-1.08,2.95-1.08Z"/>
          <path class="cls-1" d="M186.12,26.32c0-1.74.32-3.53.97-5.38.64-1.85,1.54-3.53,2.7-5.06,1.15-1.53,2.53-2.78,4.12-3.76,1.59-.97,3.33-1.46,5.22-1.46,2.25,0,3.99.62,5.22,1.85s1.85,2.97,1.85,5.22c0,1.77-.32,3.58-.95,5.42-.63,1.84-1.52,3.53-2.68,5.04s-2.53,2.75-4.12,3.71c-1.59.96-3.35,1.44-5.27,1.44-2.22,0-3.95-.61-5.2-1.82-1.24-1.22-1.87-2.95-1.87-5.2ZM191.83,27.94c0,1.41.18,2.51.54,3.29.36.78.88,1.17,1.58,1.17.99,0,1.88-.57,2.68-1.71.79-1.14,1.48-2.55,2.05-4.23.57-1.68,1.01-3.47,1.33-5.38.31-1.9.47-3.62.47-5.15,0-1.35-.17-2.43-.5-3.24-.33-.81-.79-1.21-1.39-1.21-.66,0-1.29.26-1.89.79-.6.53-1.15,1.23-1.64,2.12-.49.89-.94,1.9-1.35,3.04-.4,1.14-.74,2.33-1.01,3.56-.27,1.23-.48,2.45-.63,3.64-.15,1.2-.22,2.31-.22,3.33Z"/>
          <path class="cls-1" d="M212.22,17.01c.09-.33.16-.63.22-.9.06-.27.09-.52.09-.76,0-.6-.2-1.06-.58-1.4-.39-.33-1.06-.5-2.03-.5-.12,0-.18-.07-.18-.22,0-.27.15-.43.45-.5,1.8-.21,3.38-.45,4.75-.72,1.37-.27,2.74-.61,4.12-1.04.18-.06.35-.09.5-.09.3,0,.4.15.31.45l-4.32,12.73h.13c.81-1.56,1.6-3.13,2.36-4.7s1.55-3,2.36-4.28c.81-1.27,1.68-2.32,2.61-3.13.93-.81,1.99-1.21,3.2-1.21.57,0,1.1.06,1.6.18.49.12.93.32,1.3.61.38.29.67.69.88,1.21.21.53.31,1.19.31,2,0,.6-.07,1.32-.22,2.16s-.39,1.79-.72,2.83l-1.48,4.59c-.3.87-.55,1.7-.74,2.5-.2.8-.29,1.48-.29,2.05,0,.96.35,1.44,1.04,1.44.36,0,.73-.15,1.12-.45s.79-.7,1.21-1.19c.42-.5.86-1.07,1.33-1.71.46-.64.98-1.3,1.55-1.96.15-.15.27-.22.36-.22.15,0,.25.08.29.25.04.17.04.28-.02.34-.72,1.08-1.43,2.11-2.14,3.08-.71.98-1.42,1.82-2.14,2.54-.72.72-1.48,1.3-2.27,1.73s-1.64.65-2.54.65c-1.26,0-2.17-.32-2.72-.95s-.83-1.58-.83-2.83c0-.78.12-1.7.36-2.77.24-1.06.57-2.26.99-3.58l1.17-3.38c.45-1.38.79-2.5,1.01-3.38.22-.87.34-1.56.34-2.07s-.11-.85-.31-1.04c-.21-.18-.48-.27-.81-.27-.36,0-.79.27-1.3.81s-1.06,1.25-1.64,2.14c-.58.89-1.19,1.9-1.82,3.04-.63,1.14-1.24,2.32-1.84,3.53-.6,1.21-1.19,2.42-1.76,3.62-.57,1.2-1.08,2.29-1.53,3.29l-.9,2.75c-.09.27-.24.49-.45.65-.21.17-.45.23-.72.2l-3.24-.31c-.42-.06-.73-.25-.92-.56-.2-.32-.22-.7-.07-1.15l4.59-14.13Z"/>
          <path class="cls-1" d="M234,26.95c0-1.98.4-3.94,1.19-5.87s1.87-3.67,3.22-5.2c1.35-1.53,2.93-2.77,4.75-3.71s3.74-1.42,5.78-1.42c1.71,0,3.07.32,4.1.97,1.02.65,1.53,1.52,1.53,2.63,0,.87-.22,1.64-.68,2.29-.45.66-1.05,1.25-1.8,1.75-.75.51-1.6.95-2.54,1.33s-1.93.7-2.95.97c-1.02.27-2.02.5-2.99.68-.98.18-1.87.34-2.68.49-.36,1.08-.64,2.1-.83,3.06-.2.96-.29,1.79-.29,2.47,0,1.23.25,2.19.77,2.88.51.69,1.3,1.04,2.38,1.04.69,0,1.4-.16,2.14-.5.73-.33,1.45-.78,2.14-1.35.69-.57,1.34-1.21,1.96-1.94.61-.72,1.16-1.45,1.64-2.2.06-.06.13-.13.22-.2.09-.07.21-.11.36-.11.18,0,.27.06.27.18,0,.09-.04.21-.13.36-.57.87-1.21,1.77-1.93,2.7-.72.93-1.55,1.77-2.48,2.52-.93.75-1.95,1.37-3.06,1.85-1.11.48-2.33.72-3.65.72-1.98,0-3.55-.56-4.7-1.69-1.16-1.12-1.73-2.69-1.73-4.7ZM241.24,20.92c.99-.3,2.01-.65,3.06-1.06,1.05-.41,2-.91,2.86-1.51.86-.6,1.56-1.32,2.12-2.16.55-.84.83-1.84.83-3.01,0-1.02-.53-1.53-1.57-1.53-.72,0-1.43.27-2.14.81s-1.37,1.25-2,2.14c-.63.89-1.21,1.88-1.73,2.97-.53,1.1-1,2.21-1.42,3.35Z"/>
          <path class="cls-1" d="M259.15,16.96c.3-.81.45-1.47.45-1.98,0-.6-.23-1.01-.7-1.24s-1.13-.35-2-.38c-.21,0-.29-.09-.23-.27.09-.21.24-.34.45-.41,1.8-.21,3.34-.45,4.63-.72,1.29-.27,2.62-.61,4.01-1.04.18-.06.34-.09.49-.09.3,0,.4.15.31.45l-3.01,9.49h.18c.45-.84,1.01-1.84,1.69-2.99.67-1.15,1.44-2.26,2.29-3.33.86-1.06,1.82-1.96,2.9-2.7,1.08-.73,2.25-1.1,3.51-1.1.72,0,1.24.16,1.57.47.33.32.5.7.5,1.15,0,.36-.09.72-.27,1.08-.18.36-.43.7-.74,1.01-.31.32-.71.57-1.17.76-.46.2-.98.29-1.55.29-.99,0-1.92.18-2.79.54-.87.36-1.69.84-2.45,1.44-.76.6-1.47,1.31-2.12,2.14-.64.83-1.25,1.7-1.82,2.63l-3.38,10.12c-.09.27-.24.49-.45.65-.21.17-.45.23-.72.2l-3.15-.31c-.48-.06-.81-.25-.99-.56-.18-.32-.2-.7-.04-1.15l4.59-14.17Z"/>
          <path class="cls-1" d="M274.14,26.32c0-1.74.32-3.53.97-5.38.64-1.85,1.54-3.53,2.7-5.06,1.15-1.53,2.53-2.78,4.12-3.76,1.59-.97,3.33-1.46,5.22-1.46,2.25,0,3.99.62,5.22,1.85s1.85,2.97,1.85,5.22c0,1.77-.32,3.58-.95,5.42-.63,1.84-1.52,3.53-2.68,5.04s-2.53,2.75-4.12,3.71c-1.59.96-3.35,1.44-5.27,1.44-2.22,0-3.95-.61-5.2-1.82-1.24-1.22-1.87-2.95-1.87-5.2ZM279.85,27.94c0,1.41.18,2.51.54,3.29.36.78.88,1.17,1.58,1.17.99,0,1.88-.57,2.68-1.71.79-1.14,1.48-2.55,2.05-4.23.57-1.68,1.01-3.47,1.33-5.38.31-1.9.47-3.62.47-5.15,0-1.35-.17-2.43-.5-3.24-.33-.81-.79-1.21-1.39-1.21-.66,0-1.29.26-1.89.79-.6.53-1.15,1.23-1.64,2.12-.49.89-.94,1.9-1.35,3.04-.4,1.14-.74,2.33-1.01,3.56-.27,1.23-.48,2.45-.63,3.64-.15,1.2-.22,2.31-.22,3.33Z"/>
        </g>
      </g>
    </g>
  </g>
</svg>