<?xml version="1.0" encoding="UTF-8"?>
<svg id="Capa_2" data-name="Capa 2" xmlns="http://www.w3.org/2000/svg" viewBox="0 0 295.47 36.67">
  <defs>
    <style>
      .cls-1 {
        fill: #f2e9ce;
      }
    </style>
  </defs>
  <g id="Slide_4" data-name="Slide 4">
    <g id="AC">
      <g id="A2_Eldarica" data-name="A2 Eldarica">
        <g>
          <path class="cls-1" d="M8.69,9.27c1.29-.66,2.74-1.3,4.34-1.91,1.6-.62,3.24-1.15,4.91-1.62,1.66-.46,3.31-.84,4.93-1.12,1.62-.29,3.09-.43,4.41-.43,1.44,0,2.9.11,4.37.34,1.47.22,2.81.6,4.03,1.12,1.21.53,2.21,1.21,2.97,2.05.77.84,1.15,1.88,1.15,3.11,0,1.41-.31,2.68-.92,3.8s-1.43,2.11-2.45,2.97c-1.02.85-2.18,1.58-3.49,2.18-1.3.6-2.65,1.1-4.03,1.51-1.38.41-2.74.7-4.07.88-1.34.18-2.56.29-3.67.32-.24,0-.36-.12-.36-.36,0-.18.06-.34.18-.47.12-.13.3-.2.54-.2,1.35-.06,2.72-.34,4.12-.86,1.4-.51,2.66-1.21,3.8-2.09,1.14-.88,2.08-1.94,2.81-3.17.74-1.23,1.1-2.59,1.1-4.09,0-.81-.18-1.51-.54-2.09s-.83-1.09-1.42-1.51c-.59-.42-1.26-.76-2.03-1.04-.77-.27-1.55-.48-2.36-.63l.04.18c-.96.66-1.84,1.56-2.63,2.7-.8,1.14-1.45,2.6-1.96,4.37-.81,2.82-1.63,5.38-2.45,7.67s-1.7,4.3-2.63,6.03c-.93,1.73-1.94,3.14-3.04,4.25-1.09,1.11-2.32,1.89-3.67,2.34.9.18,1.8.27,2.7.27s1.88-.04,2.84-.14c.96-.09,1.84-.15,2.65-.18.69,0,1.04.24,1.04.72,0,.27-.11.55-.31.83-.21.29-.47.55-.79.79-.32.24-.67.44-1.08.61s-.82.25-1.24.25c-1.65,0-3.35-.05-5.08-.16-1.74-.11-3.53-.16-5.35-.16-.9,0-1.81.02-2.72.07-.92.04-1.84.13-2.77.25-.18.03-.32-.07-.41-.29-.09-.22-.14-.5-.14-.83,0-.54.1-1.05.29-1.53.2-.48.44-.72.74-.72.6.03,1.35.14,2.25.34.9.2,1.8.29,2.7.29,1.05,0,2.02-.22,2.9-.65.88-.43,1.54-1.27,1.96-2.5.66-2.01,1.24-3.94,1.73-5.78s1.01-3.6,1.55-5.26c.54-1.67,1.14-3.22,1.8-4.68.66-1.45,1.48-2.77,2.45-3.94s2.15-2.2,3.53-3.08c1.38-.88,3.04-1.58,4.99-2.09-1.17-.18-2.31-.27-3.42-.27-1.26,0-2.46.2-3.6.61-1.14.4-2.22.92-3.24,1.53-1.02.62-1.96,1.29-2.83,2.03-.87.74-1.65,1.43-2.34,2.09s-1.28,1.22-1.78,1.69-.88.76-1.15.88c-.45,0-.77-.17-.97-.52-.2-.34-.29-.76-.29-1.24,0-.69.14-1.39.43-2.09.28-.71.61-1.15.97-1.33Z"/>
          <path class="cls-1" d="M42.21,20.21c.21-.63.31-1.19.31-1.67,0-.75-.24-1.26-.72-1.53-.48-.27-1.05-.41-1.71-.41-.18,0-.27-.07-.27-.22,0-.24.15-.39.45-.45.96-.12,1.82-.24,2.59-.36.76-.12,1.5-.25,2.21-.38.7-.14,1.38-.29,2.02-.45.64-.17,1.31-.35,2-.56.12-.06.28-.09.49-.09.27,0,.36.15.27.45l-4.27,13.09c-.24.87-.47,1.7-.68,2.47-.21.78-.31,1.46-.31,2.03,0,.45.08.81.25,1.08.17.27.43.4.79.4s.73-.15,1.12-.45c.39-.3.79-.7,1.21-1.19.42-.5.87-1.07,1.35-1.71.48-.64.99-1.3,1.53-1.96.21-.15.33-.22.36-.22.15,0,.25.08.31.25.06.17.06.28,0,.34-.72,1.08-1.43,2.11-2.14,3.08-.71.98-1.42,1.82-2.14,2.54s-1.48,1.3-2.27,1.73-1.64.65-2.54.65c-1.26,0-2.17-.32-2.72-.95-.56-.63-.83-1.58-.83-2.83,0-1.56.43-3.67,1.3-6.34l2.03-6.34ZM44.78,8.5c.54-.6,1.04-1.21,1.48-1.84.45-.63.91-1.19,1.37-1.69.46-.5.96-.9,1.48-1.22.53-.31,1.12-.47,1.78-.47.84,0,1.5.21,1.98.63s.72.97.72,1.67-.24,1.37-.72,1.96-1.07,1.09-1.78,1.51-1.46.74-2.27.97c-.81.23-1.55.34-2.21.34-.6,0-1.1-.09-1.51-.27-.41-.18-.61-.48-.61-.9,0-.18.09-.41.27-.67Z"/>
          <path class="cls-1" d="M56.83,20.29c.09-.33.17-.63.22-.9.06-.27.09-.52.09-.76,0-.6-.2-1.06-.59-1.4-.39-.33-1.06-.5-2.02-.5-.12,0-.18-.07-.18-.22,0-.27.15-.43.45-.5,1.8-.21,3.38-.45,4.75-.72,1.37-.27,2.74-.61,4.12-1.04.18-.06.34-.09.5-.09.3,0,.4.15.31.45l-4.32,12.73h.13c.81-1.56,1.6-3.13,2.36-4.7.77-1.58,1.55-3,2.36-4.28.81-1.27,1.68-2.32,2.61-3.13.93-.81,1.99-1.21,3.2-1.21.57,0,1.1.06,1.6.18.49.12.93.32,1.3.61s.67.69.88,1.21c.21.53.32,1.19.32,2,0,.6-.08,1.32-.23,2.16s-.39,1.79-.72,2.83l-1.49,4.59c-.3.87-.55,1.7-.74,2.5-.2.8-.29,1.48-.29,2.05,0,.96.34,1.44,1.03,1.44.36,0,.74-.15,1.12-.45.39-.3.79-.7,1.22-1.19.42-.5.86-1.07,1.33-1.71.46-.64.98-1.3,1.55-1.96.15-.15.27-.22.36-.22.15,0,.25.08.29.25.04.17.04.28-.02.34-.72,1.08-1.43,2.11-2.14,3.08-.71.98-1.42,1.82-2.14,2.54-.72.72-1.48,1.3-2.27,1.73s-1.64.65-2.54.65c-1.26,0-2.17-.32-2.72-.95-.56-.63-.83-1.58-.83-2.83,0-.78.12-1.7.36-2.77.24-1.06.57-2.26.99-3.58l1.17-3.38c.45-1.38.79-2.5,1.01-3.38s.34-1.56.34-2.07-.11-.85-.32-1.04c-.21-.18-.48-.27-.81-.27-.36,0-.8.27-1.31.81-.51.54-1.06,1.25-1.64,2.14-.58.89-1.19,1.9-1.82,3.04-.63,1.14-1.25,2.32-1.84,3.53-.6,1.21-1.19,2.42-1.76,3.62-.57,1.2-1.08,2.29-1.53,3.29l-.9,2.75c-.09.27-.24.49-.45.65-.21.17-.45.23-.72.2l-3.24-.31c-.42-.06-.73-.25-.92-.56-.2-.32-.22-.7-.07-1.15l4.59-14.13Z"/>
          <path class="cls-1" d="M78.88,29.61c0-1.74.32-3.53.97-5.38.64-1.85,1.54-3.53,2.7-5.06,1.15-1.53,2.53-2.78,4.12-3.76,1.59-.97,3.33-1.46,5.22-1.46,2.25,0,3.99.62,5.22,1.85,1.23,1.23,1.84,2.97,1.84,5.22,0,1.77-.32,3.58-.94,5.42-.63,1.84-1.52,3.53-2.68,5.04-1.16,1.51-2.53,2.75-4.12,3.71-1.59.96-3.35,1.44-5.27,1.44-2.22,0-3.95-.61-5.2-1.82-1.25-1.22-1.87-2.95-1.87-5.2ZM84.6,31.23c0,1.41.18,2.51.54,3.29.36.78.88,1.17,1.58,1.17.99,0,1.88-.57,2.68-1.71.79-1.14,1.48-2.55,2.05-4.23.57-1.68,1.01-3.47,1.33-5.38.32-1.9.47-3.62.47-5.15,0-1.35-.17-2.43-.5-3.24-.33-.81-.79-1.21-1.39-1.21-.66,0-1.29.26-1.89.79-.6.53-1.15,1.23-1.64,2.12-.49.89-.95,1.9-1.35,3.04-.41,1.14-.74,2.33-1.01,3.56-.27,1.23-.48,2.45-.63,3.64-.15,1.2-.22,2.31-.22,3.33Z"/>
          <path class="cls-1" d="M115.92,9.27c.87-.66,1.92-1.29,3.15-1.89,1.23-.6,2.56-1.12,3.98-1.58,1.43-.45,2.88-.81,4.37-1.08,1.49-.27,2.9-.41,4.25-.41,3.48,0,6.8.12,9.97.36,3.16.24,6.01.44,8.53.58.42.48.63,1.08.63,1.8,0,.36-.07.74-.2,1.12-.13.39-.36.74-.68,1.04-.31.3-.71.55-1.17.74-.46.2-1.04.29-1.73.29-.87,0-1.78-.12-2.72-.36-.94-.24-1.93-.54-2.95-.9-1.02-.36-2.06-.75-3.13-1.17-1.07-.42-2.17-.79-3.31-1.12-.81.69-1.55,1.56-2.23,2.61-.68,1.05-1.22,2.34-1.64,3.87-.3,1.05-.59,2.05-.88,2.99-.29.95-.58,1.85-.88,2.72,1.14,0,2.4-.03,3.78-.09,1.38-.06,2.69-.13,3.94-.2,1.24-.08,2.32-.13,3.24-.18.91-.04,1.45-.07,1.6-.07.51,0,.76.21.76.63,0,.51-.29,1.1-.88,1.76s-1.28,1.11-2.09,1.35c-.33,0-.92-.1-1.78-.29-.85-.19-1.82-.41-2.88-.65-1.07-.24-2.15-.47-3.24-.7-1.1-.22-2.05-.37-2.86-.43-1.29,3.63-2.68,6.54-4.16,8.73-1.49,2.19-3.29,3.63-5.42,4.32,1.11.12,2.35.21,3.74.27,1.38.06,2.83.09,4.37.09,1.38,0,2.78-.01,4.21-.04,1.42-.03,2.8-.07,4.14-.11,1.33-.04,2.56-.09,3.69-.13s2.09-.08,2.9-.11c.69,0,1.04.26,1.04.77,0,.27-.1.56-.29.88-.2.32-.46.62-.79.92s-.7.55-1.1.74c-.41.2-.82.29-1.24.29-.84,0-2.02-.02-3.53-.04-1.51-.03-3.2-.07-5.06-.11-1.86-.05-3.83-.08-5.92-.11s-4.13-.04-6.14-.04-3.89.02-5.65.07-3.26.13-4.52.25h-.04c-.15,0-.26-.11-.34-.32-.08-.21-.11-.48-.11-.81,0-.27.03-.56.09-.88.06-.31.13-.6.22-.85.09-.25.2-.47.32-.65.12-.18.25-.27.41-.27.6.03,1.34.14,2.23.34.88.2,1.79.29,2.72.29,1.02,0,1.98-.21,2.88-.63.9-.42,1.54-1.24,1.94-2.47.93-2.85,1.72-5.54,2.38-8.06.66-2.52,1.46-4.81,2.41-6.88.94-2.07,2.15-3.87,3.62-5.4,1.47-1.53,3.48-2.75,6.03-3.65-.87-.24-1.75-.43-2.66-.56s-1.82-.2-2.74-.2c-1.26,0-2.42.2-3.47.61-1.05.4-2,.92-2.86,1.53-.85.62-1.63,1.29-2.32,2.03-.69.74-1.3,1.43-1.82,2.09-.53.66-.97,1.22-1.33,1.69-.36.46-.66.76-.9.88-.45,0-.77-.16-.97-.47-.2-.32-.29-.71-.29-1.19,0-.66.14-1.34.43-2.05s.61-1.19.97-1.46Z"/>
          <path class="cls-1" d="M151.92,15.43c.9-2.64,2.11-4.93,3.62-6.86,1.51-1.94,3.16-3.54,4.95-4.82,1.79-1.27,3.63-2.22,5.54-2.83,1.9-.61,3.7-.92,5.38-.92,1.35,0,2.29.17,2.81.5s.79.75.79,1.26c0,.45-.12.88-.36,1.28s-.55.76-.95,1.06c-.39.3-.84.53-1.35.7-.51.17-1.02.25-1.53.25-.63,0-1.21-.14-1.76-.41-.54-.27-1.04-.58-1.51-.92-.46-.34-.9-.65-1.3-.92-.4-.27-.77-.41-1.1-.41-.72,0-1.37.21-1.94.63-.57.42-1.1,1.04-1.6,1.87-.49.83-.98,1.86-1.46,3.11s-.99,2.69-1.53,4.34l-4.77,14.49c-.84,2.49-1.26,4.26-1.26,5.31,0,.99.36,1.48,1.08,1.48.36,0,.73-.14,1.12-.43.39-.29.79-.68,1.21-1.17.42-.5.87-1.06,1.35-1.71.48-.65.99-1.31,1.53-2,.15-.15.31-.16.47-.02.16.13.2.26.11.38-.72,1.08-1.43,2.11-2.12,3.08-.69.98-1.39,1.82-2.12,2.54-.72.72-1.48,1.3-2.27,1.73s-1.64.65-2.54.65c-1.14,0-2-.38-2.57-1.12-.57-.75-.85-1.8-.85-3.15,0-1.59.39-3.54,1.17-5.85l3.73-11.12Z"/>
          <path class="cls-1" d="M159.66,30.87c0-1.92.4-3.87,1.21-5.85.81-1.98,1.9-3.78,3.26-5.4,1.36-1.62,2.95-2.95,4.75-3.98,1.8-1.03,3.71-1.55,5.71-1.55,1.02,0,1.95.19,2.79.56s1.53.94,2.07,1.69l.58-1.67c.9-2.46,2.09-4.61,3.58-6.46,1.48-1.84,3.11-3.38,4.88-4.59,1.77-1.21,3.59-2.12,5.47-2.72,1.88-.6,3.65-.9,5.33-.9,1.35,0,2.29.17,2.81.5s.79.74.79,1.21-.14.92-.43,1.33c-.29.41-.64.76-1.06,1.06s-.87.53-1.35.7c-.48.17-.93.25-1.35.25-.63,0-1.21-.14-1.73-.41-.53-.27-1.03-.58-1.51-.92-.48-.34-.93-.65-1.35-.92-.42-.27-.81-.41-1.17-.41-.72,0-1.38.26-1.98.79-.6.53-1.16,1.24-1.67,2.14-.51.9-.99,1.96-1.44,3.17-.45,1.21-.9,2.5-1.35,3.85l-4.95,15.3c-.27.78-.5,1.53-.68,2.25s-.29,1.36-.31,1.91c-.03.56.03,1,.18,1.33.15.33.43.49.86.49.36,0,.73-.15,1.1-.45s.77-.7,1.19-1.19c.42-.5.87-1.07,1.35-1.71.48-.64,1-1.3,1.57-1.96.15-.15.27-.22.36-.22s.16.04.2.11.07.16.09.25,0,.17-.02.23c-.72,1.08-1.43,2.11-2.14,3.08-.71.98-1.42,1.82-2.14,2.54-.72.72-1.48,1.3-2.27,1.73s-1.64.65-2.54.65-1.55-.23-2.03-.67c-.48-.45-.8-1.08-.97-1.89-.17-.81-.17-1.79,0-2.95.16-1.15.47-2.42.92-3.8l1.39-4.23h-.18c-.93,2.1-1.82,3.98-2.68,5.62-.86,1.65-1.72,3.05-2.59,4.21-.87,1.16-1.8,2.04-2.79,2.66s-2.12.92-3.38.92c-1.95,0-3.51-.44-4.68-1.33-1.17-.88-1.76-2.33-1.76-4.34ZM165.42,31.14c0,1.35.3,2.31.9,2.88.6.57,1.29.86,2.07.86.69,0,1.46-.47,2.29-1.42s1.7-2.17,2.59-3.67c.88-1.5,1.77-3.17,2.65-5s1.73-3.63,2.54-5.4l.49-1.62c-.3-.63-.73-1.12-1.28-1.48-.56-.36-1.19-.54-1.91-.54-.93,0-1.84.25-2.72.76-.88.51-1.71,1.18-2.47,2-.76.83-1.46,1.78-2.09,2.86-.63,1.08-1.17,2.19-1.62,3.33-.45,1.14-.8,2.26-1.06,3.38-.26,1.11-.38,2.13-.38,3.06Z"/>
          <path class="cls-1" d="M187.47,30.96c0-1.95.38-3.92,1.15-5.92.77-1.99,1.82-3.8,3.17-5.42,1.35-1.62,2.94-2.95,4.77-3.98,1.83-1.03,3.81-1.55,5.94-1.55,1.35,0,2.42.2,3.22.58s1.45.97,1.96,1.75h.09c.3-.24.66-.53,1.08-.88.42-.34.81-.68,1.17-1.01.33-.27.72-.41,1.17-.41h.49c.33,0,.49.12.49.36,0,.06-.01.15-.04.27l-4.18,12.87c-.66,1.98-1.01,3.24-1.04,3.78-.03.54-.04.84-.04.9,0,.87.39,1.3,1.17,1.3.36,0,.73-.15,1.12-.45.39-.3.8-.7,1.24-1.19.44-.5.88-1.07,1.35-1.71.46-.64.97-1.3,1.51-1.96.06-.06.12-.09.18-.09.09,0,.19.04.31.13.12.09.18.17.18.22,0,.03-.02.06-.04.09-.72,1.08-1.43,2.11-2.12,3.08-.69.98-1.4,1.83-2.14,2.57-.74.74-1.5,1.31-2.29,1.73-.8.42-1.64.63-2.54.63-1.74,0-2.61-1.04-2.61-3.11,0-1.26.31-2.89.94-4.9l1.76-4.73h-.09c-1.95,4.11-3.83,7.24-5.65,9.38-1.81,2.15-3.67,3.22-5.56,3.22s-3.31-.43-4.43-1.31c-1.12-.87-1.69-2.29-1.69-4.27ZM193,32.08c0,1.05.21,1.77.63,2.16s.91.58,1.48.58c1.26,0,2.74-1.15,4.43-3.44,1.69-2.29,3.43-5.51,5.2-9.65l.67-2.16c.12-.6.18-1.12.18-1.57,0-.6-.14-1.2-.43-1.8-.29-.6-.97-.9-2.05-.9-.93,0-1.83.3-2.7.9-.87.6-1.68,1.39-2.43,2.36s-1.43,2.07-2.05,3.29c-.62,1.21-1.14,2.45-1.58,3.69-.44,1.25-.77,2.45-1.01,3.6-.24,1.16-.36,2.14-.36,2.95Z"/>
          <path class="cls-1" d="M219.19,20.25c.3-.81.45-1.47.45-1.98,0-.6-.23-1.01-.7-1.24s-1.13-.35-2-.38c-.21,0-.29-.09-.23-.27.09-.21.24-.34.45-.41,1.8-.21,3.34-.45,4.63-.72,1.29-.27,2.62-.61,4.01-1.04.18-.06.34-.09.49-.09.3,0,.4.15.31.45l-3.01,9.49h.18c.45-.84,1.01-1.84,1.69-2.99.67-1.15,1.44-2.26,2.29-3.33.86-1.06,1.82-1.96,2.9-2.7,1.08-.73,2.25-1.1,3.51-1.1.72,0,1.24.16,1.57.47.33.32.5.7.5,1.15,0,.36-.09.72-.27,1.08-.18.36-.43.7-.74,1.01-.31.32-.71.57-1.17.76-.46.2-.98.29-1.55.29-.99,0-1.92.18-2.79.54-.87.36-1.69.84-2.45,1.44-.76.6-1.47,1.31-2.12,2.14-.64.83-1.25,1.7-1.82,2.63l-3.38,10.12c-.09.27-.24.49-.45.65-.21.17-.45.23-.72.2l-3.15-.31c-.48-.06-.81-.25-.99-.56-.18-.32-.2-.7-.04-1.15l4.59-14.17Z"/>
          <path class="cls-1" d="M238.9,20.21c.21-.63.31-1.19.31-1.67,0-.75-.24-1.26-.72-1.53-.48-.27-1.05-.41-1.71-.41-.18,0-.27-.07-.27-.22,0-.24.15-.39.45-.45.96-.12,1.82-.24,2.59-.36.77-.12,1.5-.25,2.21-.38.71-.14,1.38-.29,2.03-.45.64-.17,1.31-.35,2-.56.12-.06.29-.09.5-.09.27,0,.36.15.27.45l-4.28,13.09c-.24.87-.46,1.7-.67,2.47-.21.78-.32,1.46-.32,2.03,0,.45.08.81.25,1.08.16.27.43.4.79.4s.73-.15,1.12-.45.79-.7,1.21-1.19c.42-.5.87-1.07,1.35-1.71.48-.64.99-1.3,1.53-1.96.21-.15.33-.22.36-.22.15,0,.25.08.31.25.06.17.06.28,0,.34-.72,1.08-1.43,2.11-2.14,3.08-.71.98-1.42,1.82-2.14,2.54-.72.72-1.48,1.3-2.27,1.73s-1.64.65-2.54.65c-1.26,0-2.17-.32-2.72-.95s-.83-1.58-.83-2.83c0-1.56.44-3.67,1.3-6.34l2.03-6.34ZM241.47,8.5c.54-.6,1.04-1.21,1.49-1.84.45-.63.91-1.19,1.37-1.69.46-.5.96-.9,1.49-1.22.52-.31,1.12-.47,1.78-.47.84,0,1.5.21,1.98.63.48.42.72.97.72,1.67s-.24,1.37-.72,1.96c-.48.58-1.07,1.09-1.78,1.51-.71.42-1.46.74-2.27.97-.81.23-1.54.34-2.21.34-.6,0-1.1-.09-1.51-.27-.4-.18-.61-.48-.61-.9,0-.18.09-.41.27-.67Z"/>
          <path class="cls-1" d="M248.94,29.43c0-2.01.39-3.94,1.17-5.8.78-1.86,1.84-3.5,3.17-4.93,1.33-1.42,2.9-2.57,4.7-3.42,1.8-.86,3.73-1.28,5.8-1.28s3.37.31,4.16.92c.79.62,1.19,1.28,1.19,2,0,.6-.2,1.13-.61,1.6-.41.46-.92.7-1.55.7-.39,0-.69-.1-.9-.32-.21-.21-.37-.47-.47-.79-.11-.32-.2-.66-.27-1.04-.08-.38-.19-.72-.34-1.04-.15-.31-.35-.58-.61-.79-.26-.21-.62-.32-1.1-.32-1.29,0-2.46.47-3.51,1.42-1.05.94-1.93,2.13-2.65,3.55-.72,1.43-1.28,2.98-1.67,4.66-.39,1.68-.58,3.27-.58,4.77,0,3.51,1.12,5.26,3.38,5.26,1.2,0,2.4-.33,3.6-.99,1.2-.66,2.43-1.72,3.69-3.19.12-.12.27-.18.45-.18s.27.08.27.23c0,.12-.03.22-.09.31-.69.9-1.39,1.71-2.12,2.43-.72.72-1.49,1.33-2.32,1.84-.82.51-1.72.9-2.68,1.17-.96.27-2.03.41-3.2.41-.96,0-1.86-.16-2.7-.47s-1.57-.77-2.21-1.37c-.63-.6-1.12-1.35-1.48-2.25-.36-.9-.54-1.94-.54-3.11Z"/>
          <path class="cls-1" d="M269.01,30.96c0-1.95.38-3.92,1.15-5.92.77-1.99,1.82-3.8,3.17-5.42,1.35-1.62,2.94-2.95,4.77-3.98,1.83-1.03,3.81-1.55,5.94-1.55,1.35,0,2.42.2,3.22.58s1.45.97,1.96,1.75h.09c.3-.24.66-.53,1.08-.88.42-.34.81-.68,1.17-1.01.33-.27.72-.41,1.17-.41h.49c.33,0,.49.12.49.36,0,.06-.01.15-.04.27l-4.18,12.87c-.66,1.98-1.01,3.24-1.04,3.78-.03.54-.04.84-.04.9,0,.87.39,1.3,1.17,1.3.36,0,.73-.15,1.12-.45.39-.3.8-.7,1.24-1.19.44-.5.88-1.07,1.35-1.71.46-.64.97-1.3,1.51-1.96.06-.06.12-.09.18-.09.09,0,.19.04.31.13.12.09.18.17.18.22,0,.03-.02.06-.04.09-.72,1.08-1.43,2.11-2.12,3.08-.69.98-1.4,1.83-2.14,2.57-.74.74-1.5,1.31-2.29,1.73-.8.42-1.64.63-2.54.63-1.74,0-2.61-1.04-2.61-3.11,0-1.26.31-2.89.94-4.9l1.76-4.73h-.09c-1.95,4.11-3.83,7.24-5.65,9.38-1.81,2.15-3.67,3.22-5.56,3.22s-3.31-.43-4.43-1.31c-1.12-.87-1.69-2.29-1.69-4.27ZM274.54,32.08c0,1.05.21,1.77.63,2.16s.91.58,1.48.58c1.26,0,2.74-1.15,4.43-3.44,1.69-2.29,3.43-5.51,5.2-9.65l.67-2.16c.12-.6.18-1.12.18-1.57,0-.6-.14-1.2-.43-1.8-.29-.6-.97-.9-2.05-.9-.93,0-1.83.3-2.7.9-.87.6-1.68,1.39-2.43,2.36s-1.43,2.07-2.05,3.29c-.62,1.21-1.14,2.45-1.58,3.69-.44,1.25-.77,2.45-1.01,3.6-.24,1.16-.36,2.14-.36,2.95Z"/>
        </g>
      </g>
    </g>
  </g>
</svg>