<?xml version="1.0" encoding="UTF-8"?>
<svg id="Capa_2" data-name="Capa 2" xmlns="http://www.w3.org/2000/svg" viewBox="0 0 174.69 42.3">
  <defs>
    <style>
      .cls-1 {
        fill: #f2e9ce;
      }
    </style>
  </defs>
  <g id="Slide_4" data-name="Slide 4">
    <g id="AC">
      <g id="A3_Grevillia" data-name="A3 Grevillia">
        <g>
          <path class="cls-1" d="M0,25.38c0-3,.57-5.79,1.71-8.37,1.14-2.58,2.69-4.82,4.66-6.73,1.96-1.91,4.27-3.4,6.91-4.5,2.64-1.09,5.46-1.64,8.46-1.64.6,0,1.31.03,2.12.09.81.06,1.63.13,2.48.23.84.09,1.65.2,2.43.34.78.13,1.44.28,1.98.43.6.18,1.09.42,1.49.72.39.3.58.67.58,1.12s-.14.87-.43,1.26c-.29.39-.63.74-1.04,1.04-.41.3-.85.53-1.33.7-.48.17-.92.25-1.3.25-.66,0-1.25-.26-1.78-.79-.53-.53-1.06-1.09-1.6-1.71-.54-.62-1.13-1.19-1.78-1.71-.65-.53-1.42-.79-2.32-.79-1.53,0-2.96.31-4.28.92s-2.51,1.45-3.58,2.5c-1.07,1.05-2.01,2.26-2.84,3.62s-1.52,2.8-2.07,4.3c-.55,1.5-.97,3.02-1.26,4.54-.29,1.53-.43,2.97-.43,4.32,0,1.47.19,2.78.56,3.94.38,1.16.9,2.12,1.58,2.88.67.77,1.46,1.35,2.36,1.75.9.41,1.88.61,2.93.61,1.44,0,2.77-.31,3.98-.94s2.27-1.67,3.17-3.11l1.21-3.78c.45-1.32.68-2.43.68-3.33,0-.69-.16-1.22-.47-1.58-.31-.36-.86-.55-1.64-.58-1.02-.06-2.05-.12-3.11-.18-1.05-.06-2.08-.09-3.1-.09-.12,0-.2-.04-.25-.13s-.07-.18-.07-.27c0-.15.04-.28.13-.4.09-.12.21-.21.36-.27,2.13,0,4.3-.03,6.5-.09,2.21-.06,4.21-.12,6.03-.18,1.82-.06,3.33-.12,4.54-.18,1.22-.06,1.91-.09,2.09-.09.48,0,.72.2.72.58,0,.21-.09.47-.27.77s-.41.58-.7.85c-.29.27-.62.5-1.01.7-.39.2-.79.29-1.21.29-.51,0-1.02-.02-1.53-.07s-1.05-.1-1.62-.16c-.24.36-.51.92-.81,1.69-.3.76-.62,1.67-.95,2.72l-4.68,14.58c-.09.3-.3.52-.63.65-.33.13-.71.2-1.12.2-.3,0-.6-.04-.9-.11-.3-.08-.56-.18-.79-.32s-.38-.27-.47-.41c-.09-.13-.13-.28-.13-.43,0-.09.01-.18.04-.27l2.88-8.77h-.13c-.45.72-1,1.37-1.64,1.96-.65.58-1.36,1.07-2.14,1.46s-1.61.69-2.5.9c-.89.21-1.78.32-2.68.32-1.89,0-3.59-.27-5.08-.81-1.5-.54-2.76-1.3-3.78-2.29-1.02-.99-1.8-2.17-2.34-3.55s-.81-2.91-.81-4.59Z"/>
          <path class="cls-1" d="M37.17,20.25c.3-.81.45-1.47.45-1.98,0-.6-.23-1.01-.7-1.24s-1.13-.35-2-.38c-.21,0-.29-.09-.22-.27.09-.21.24-.34.45-.41,1.8-.21,3.35-.45,4.63-.72,1.29-.27,2.62-.61,4.01-1.04.18-.06.34-.09.49-.09.3,0,.41.15.32.45l-3.01,9.49h.18c.45-.84,1.01-1.84,1.69-2.99.67-1.15,1.44-2.26,2.29-3.33.86-1.06,1.82-1.96,2.9-2.7,1.08-.73,2.25-1.1,3.51-1.1.72,0,1.25.16,1.58.47.33.32.49.7.49,1.15,0,.36-.09.72-.27,1.08-.18.36-.43.7-.74,1.01s-.71.57-1.17.76c-.47.2-.98.29-1.55.29-.99,0-1.92.18-2.79.54s-1.69.84-2.45,1.44c-.76.6-1.47,1.31-2.11,2.14-.65.83-1.25,1.7-1.82,2.63l-3.38,10.12c-.09.27-.24.49-.45.65-.21.17-.45.23-.72.2l-3.15-.31c-.48-.06-.81-.25-.99-.56-.18-.32-.2-.7-.04-1.15l4.59-14.17Z"/>
          <path class="cls-1" d="M51.57,30.24c0-1.98.4-3.94,1.19-5.87.79-1.93,1.87-3.67,3.22-5.2,1.35-1.53,2.93-2.77,4.75-3.71s3.74-1.42,5.78-1.42c1.71,0,3.08.32,4.1.97,1.02.65,1.53,1.52,1.53,2.63,0,.87-.22,1.64-.67,2.29-.45.66-1.05,1.25-1.8,1.75-.75.51-1.6.95-2.54,1.33-.94.38-1.93.7-2.95.97-1.02.27-2.02.5-2.99.68-.97.18-1.87.34-2.68.49-.36,1.08-.64,2.1-.83,3.06-.2.96-.29,1.79-.29,2.47,0,1.23.25,2.19.77,2.88.51.69,1.3,1.04,2.38,1.04.69,0,1.4-.16,2.14-.5.74-.33,1.45-.78,2.14-1.35.69-.57,1.34-1.21,1.96-1.94.61-.72,1.16-1.45,1.64-2.2.06-.06.13-.13.22-.2.09-.07.21-.11.36-.11.18,0,.27.06.27.18,0,.09-.05.21-.14.36-.57.87-1.21,1.77-1.93,2.7-.72.93-1.55,1.77-2.48,2.52-.93.75-1.95,1.37-3.06,1.85-1.11.48-2.33.72-3.64.72-1.98,0-3.55-.56-4.7-1.69-1.16-1.12-1.73-2.69-1.73-4.7ZM58.82,24.21c.99-.3,2.01-.65,3.06-1.06,1.05-.41,2-.91,2.86-1.51.86-.6,1.56-1.32,2.12-2.16.55-.84.83-1.84.83-3.01,0-1.02-.53-1.53-1.57-1.53-.72,0-1.43.27-2.14.81-.71.54-1.37,1.25-2,2.14-.63.89-1.21,1.88-1.73,2.97-.53,1.1-1,2.21-1.42,3.35Z"/>
          <path class="cls-1" d="M76.63,20.21c-.06-.84-.13-1.54-.2-2.09-.08-.55-.19-1-.34-1.33-.15-.33-.34-.56-.56-.7-.23-.13-.53-.2-.92-.2-.27,0-.52.02-.74.04-.22.03-.41.04-.56.04s-.22-.07-.22-.22v-.14c.09-.18.25-.3.5-.36.96-.27,1.9-.5,2.81-.67.92-.18,1.69-.27,2.32-.27s1.12.11,1.58.32.82.55,1.1,1.04c.29.48.5,1.12.65,1.91s.22,1.79.22,2.99c0,2.31-.08,4.54-.25,6.68-.17,2.15-.29,4.18-.38,6.1h.09c2.34-2.28,4.12-4.54,5.33-6.77,1.21-2.23,1.82-4.27,1.82-6.1,0-.63-.06-1.24-.18-1.84-.12-.6-.26-1.15-.43-1.64-.17-.5-.31-.93-.43-1.3-.12-.38-.18-.64-.18-.79,0-.18.1-.32.31-.43s.46-.19.77-.27c.3-.07.63-.13.99-.16.36-.03.67-.04.95-.04.57,0,1.04.08,1.42.25.38.17.56.46.56.88,0,1.23-.34,2.74-1.04,4.54-.69,1.8-1.61,3.67-2.74,5.6-1.14,1.93-2.44,3.83-3.89,5.69s-2.93,3.45-4.43,4.77c-.3.27-.62.44-.97.52s-.73.11-1.15.11c-.27,0-.56-.06-.86-.18s-.45-.27-.45-.45c-.06-1.5-.1-2.87-.11-4.12s-.04-2.47-.07-3.67c-.03-1.2-.06-2.42-.09-3.67-.03-1.25-.11-2.6-.23-4.07Z"/>
          <path class="cls-1" d="M97.74,20.21c.21-.63.31-1.19.31-1.67,0-.75-.24-1.26-.72-1.53-.48-.27-1.05-.41-1.71-.41-.18,0-.27-.07-.27-.22,0-.24.15-.39.45-.45.96-.12,1.82-.24,2.59-.36.76-.12,1.5-.25,2.21-.38.7-.14,1.38-.29,2.02-.45.65-.17,1.31-.35,2-.56.12-.06.29-.09.49-.09.27,0,.36.15.27.45l-4.27,13.09c-.24.87-.47,1.7-.68,2.47-.21.78-.31,1.46-.31,2.03,0,.45.08.81.25,1.08.17.27.43.4.79.4s.73-.15,1.12-.45c.39-.3.79-.7,1.21-1.19.42-.5.87-1.07,1.35-1.71.48-.64.99-1.3,1.53-1.96.21-.15.33-.22.36-.22.15,0,.25.08.31.25.06.17.06.28,0,.34-.72,1.08-1.43,2.11-2.14,3.08-.71.98-1.42,1.82-2.14,2.54-.72.72-1.48,1.3-2.27,1.73-.8.43-1.64.65-2.54.65-1.26,0-2.17-.32-2.72-.95s-.83-1.58-.83-2.83c0-1.56.43-3.67,1.3-6.34l2.03-6.34ZM100.3,8.5c.54-.6,1.04-1.21,1.48-1.84.45-.63.91-1.19,1.37-1.69.46-.5.96-.9,1.48-1.22.53-.31,1.12-.47,1.78-.47.84,0,1.5.21,1.98.63s.72.97.72,1.67-.24,1.37-.72,1.96-1.07,1.09-1.78,1.51-1.46.74-2.27.97c-.81.23-1.55.34-2.21.34-.6,0-1.1-.09-1.51-.27-.41-.18-.61-.48-.61-.9,0-.18.09-.41.27-.67Z"/>
          <path class="cls-1" d="M112.68,15.43c.9-2.64,2.11-4.93,3.62-6.86,1.51-1.94,3.16-3.54,4.95-4.82,1.79-1.27,3.63-2.22,5.54-2.83,1.9-.61,3.7-.92,5.38-.92,1.35,0,2.29.17,2.81.5s.79.75.79,1.26c0,.45-.12.88-.36,1.28s-.55.76-.95,1.06c-.39.3-.84.53-1.35.7-.51.17-1.02.25-1.53.25-.63,0-1.21-.14-1.76-.41-.54-.27-1.04-.58-1.51-.92-.46-.34-.9-.65-1.3-.92-.4-.27-.77-.41-1.1-.41-.72,0-1.37.21-1.94.63-.57.42-1.1,1.04-1.6,1.87-.49.83-.98,1.86-1.46,3.11s-.99,2.69-1.53,4.34l-4.77,14.49c-.84,2.49-1.26,4.26-1.26,5.31,0,.99.36,1.48,1.08,1.48.36,0,.73-.14,1.12-.43.39-.29.79-.68,1.21-1.17.42-.5.87-1.06,1.35-1.71.48-.65.99-1.31,1.53-2,.15-.15.31-.16.47-.02.16.13.2.26.11.38-.72,1.08-1.43,2.11-2.12,3.08-.69.98-1.39,1.82-2.12,2.54-.72.72-1.48,1.3-2.27,1.73s-1.64.65-2.54.65c-1.14,0-2-.38-2.57-1.12-.57-.75-.85-1.8-.85-3.15,0-1.59.39-3.54,1.17-5.85l3.73-11.12Z"/>
          <path class="cls-1" d="M125.95,15.43c.9-2.64,2.11-4.93,3.62-6.86,1.52-1.94,3.17-3.54,4.95-4.82,1.78-1.27,3.63-2.22,5.53-2.83,1.91-.61,3.7-.92,5.38-.92,1.35,0,2.29.17,2.81.5.52.33.79.75.79,1.26,0,.45-.12.88-.36,1.28-.24.41-.56.76-.95,1.06-.39.3-.84.53-1.35.7-.51.17-1.02.25-1.53.25-.63,0-1.21-.14-1.75-.41s-1.04-.58-1.51-.92c-.46-.34-.9-.65-1.3-.92-.41-.27-.77-.41-1.1-.41-.72,0-1.37.21-1.94.63-.57.42-1.1,1.04-1.6,1.87-.5.83-.98,1.86-1.46,3.11-.48,1.25-.99,2.69-1.53,4.34l-4.77,14.49c-.84,2.49-1.26,4.26-1.26,5.31,0,.99.36,1.48,1.08,1.48.36,0,.73-.14,1.12-.43.39-.29.79-.68,1.21-1.17.42-.5.87-1.06,1.35-1.71s.99-1.31,1.53-2c.15-.15.31-.16.47-.02.16.13.2.26.11.38-.72,1.08-1.43,2.11-2.12,3.08-.69.98-1.39,1.82-2.12,2.54-.72.72-1.48,1.3-2.27,1.73s-1.64.65-2.54.65c-1.14,0-2-.38-2.56-1.12-.57-.75-.86-1.8-.86-3.15,0-1.59.39-3.54,1.17-5.85l3.73-11.12Z"/>
          <path class="cls-1" d="M138.91,20.21c.21-.63.31-1.19.31-1.67,0-.75-.25-1.26-.74-1.53-.49-.27-1.07-.41-1.73-.41-.18,0-.27-.07-.27-.22,0-.24.16-.39.49-.45.96-.12,1.82-.24,2.59-.36.77-.12,1.5-.25,2.21-.38.71-.14,1.38-.29,2.03-.45s1.3-.35,1.96-.56c.18-.06.35-.09.5-.09.27,0,.36.15.27.45l-4.23,13.09c-.27.87-.51,1.7-.72,2.47-.21.78-.32,1.46-.32,2.03,0,.45.08.81.25,1.08.16.27.44.4.83.4.36,0,.73-.15,1.1-.45.38-.3.77-.7,1.19-1.19.42-.5.87-1.07,1.35-1.71.48-.64,1.01-1.3,1.58-1.96.15-.15.27-.22.36-.22.15,0,.25.08.29.25.04.17.04.28-.02.34-.72,1.08-1.43,2.11-2.14,3.08-.71.98-1.42,1.82-2.14,2.54-.72.72-1.48,1.3-2.27,1.73s-1.64.65-2.54.65c-1.26,0-2.17-.32-2.72-.95s-.83-1.58-.83-2.83c0-.78.11-1.7.34-2.77.22-1.06.55-2.26.97-3.58l2.07-6.34Z"/>
          <path class="cls-1" d="M148.23,30.96c0-1.95.38-3.92,1.15-5.92.76-1.99,1.82-3.8,3.17-5.42,1.35-1.62,2.94-2.95,4.77-3.98,1.83-1.03,3.81-1.55,5.94-1.55,1.35,0,2.42.2,3.22.58s1.45.97,1.96,1.75h.09c.3-.24.66-.53,1.08-.88.42-.34.81-.68,1.17-1.01.33-.27.72-.41,1.17-.41h.5c.33,0,.49.12.49.36,0,.06-.02.15-.04.27l-4.19,12.87c-.66,1.98-1.01,3.24-1.04,3.78-.03.54-.04.84-.04.9,0,.87.39,1.3,1.17,1.3.36,0,.73-.15,1.12-.45s.8-.7,1.24-1.19c.43-.5.88-1.07,1.35-1.71.46-.64.97-1.3,1.51-1.96.06-.06.12-.09.18-.09.09,0,.2.04.31.13.12.09.18.17.18.22,0,.03-.02.06-.05.09-.72,1.08-1.42,2.11-2.11,3.08-.69.98-1.4,1.83-2.14,2.57s-1.5,1.31-2.29,1.73-1.64.63-2.54.63c-1.74,0-2.61-1.04-2.61-3.11,0-1.26.31-2.89.95-4.9l1.75-4.73h-.09c-1.95,4.11-3.83,7.24-5.65,9.38-1.82,2.15-3.67,3.22-5.56,3.22s-3.31-.43-4.43-1.31c-1.12-.87-1.69-2.29-1.69-4.27ZM153.76,32.08c0,1.05.21,1.77.63,2.16s.92.58,1.49.58c1.26,0,2.74-1.15,4.43-3.44,1.7-2.29,3.43-5.51,5.2-9.65l.68-2.16c.12-.6.18-1.12.18-1.57,0-.6-.14-1.2-.43-1.8-.29-.6-.97-.9-2.05-.9-.93,0-1.83.3-2.7.9-.87.6-1.68,1.39-2.43,2.36s-1.43,2.07-2.05,3.29c-.62,1.21-1.14,2.45-1.57,3.69-.44,1.25-.77,2.45-1.01,3.6-.24,1.16-.36,2.14-.36,2.95Z"/>
        </g>
      </g>
    </g>
  </g>
</svg>