<?xml version="1.0" encoding="UTF-8"?>
<svg id="Capa_2" data-name="Capa 2" xmlns="http://www.w3.org/2000/svg" viewBox="0 0 276.3 37.98">
  <defs>
    <style>
      .cls-1 {
        fill: #f2e9ce;
      }
    </style>
  </defs>
  <g id="Slide_4" data-name="Slide 4">
    <g id="AC">
      <g id="A4_Acacia_Verde" data-name="A4 Acacia Verde">
        <g>
          <path class="cls-1" d="M27.27,9.63c-.24-1.41-.9-2.34-1.98-2.79s-2.59-.67-4.54-.67h-1.08c-.21,0-.32-.08-.32-.23,0-.03.02-.07.04-.13.09-.24.26-.36.5-.36,1.08-.12,2.32-.31,3.71-.58,1.4-.27,2.74-.4,4.03-.4.72,0,1.41.06,2.07.18.66.12,1.25.34,1.75.65.51.32.92.74,1.24,1.26.31.53.49,1.18.52,1.96l.81,20.83c.06,2.16.39,3.75.99,4.77.6,1.02,1.41,1.53,2.43,1.53.27,0,.66-.07,1.17-.22.18,0,.27.06.27.18,0,.06-.02.13-.05.22-.06.09-.12.16-.18.2-.06.04-.17.1-.32.16-.78.45-1.59.81-2.43,1.08-.84.27-1.65.41-2.43.41s-1.57-.16-2.27-.47c-.71-.32-1.33-.83-1.87-1.55-.54-.72-.97-1.66-1.3-2.81-.33-1.15-.5-2.57-.5-4.25l-.04-3.19h-7.42c-1.32,2.46-2.61,4.51-3.87,6.14-1.26,1.63-2.54,2.92-3.83,3.87-1.29.94-2.63,1.61-4.03,2s-2.9.58-4.52.58c-1.38,0-2.36-.25-2.95-.76-.58-.51-.88-1.09-.88-1.75,0-.72.28-1.32.83-1.8.55-.48,1.19-.72,1.91-.72s1.35.08,1.89.25c.54.17,1.04.34,1.51.52.46.18.92.35,1.35.52.44.17.91.25,1.42.25.87,0,1.73-.19,2.59-.56.85-.38,1.72-1.01,2.61-1.91.88-.9,1.82-2.08,2.81-3.53.99-1.45,2.05-3.26,3.2-5.42l7.15-13.41ZM27.5,24.3l-.09-12.78h-.09l-6.66,12.74,6.84.04Z"/>
          <path class="cls-1" d="M39.38,29.43c0-2.01.39-3.94,1.17-5.8.78-1.86,1.84-3.5,3.17-4.93s2.9-2.57,4.7-3.42c1.8-.86,3.74-1.28,5.8-1.28s3.37.31,4.16.92c.79.62,1.19,1.28,1.19,2,0,.6-.2,1.13-.61,1.6s-.92.7-1.55.7c-.39,0-.69-.1-.9-.32-.21-.21-.37-.47-.47-.79-.11-.32-.2-.66-.27-1.04-.07-.38-.19-.72-.34-1.04-.15-.31-.35-.58-.61-.79-.25-.21-.62-.32-1.1-.32-1.29,0-2.46.47-3.51,1.42-1.05.94-1.94,2.13-2.66,3.55-.72,1.43-1.28,2.98-1.66,4.66-.39,1.68-.59,3.27-.59,4.77,0,3.51,1.12,5.26,3.38,5.26,1.2,0,2.4-.33,3.6-.99,1.2-.66,2.43-1.72,3.69-3.19.12-.12.27-.18.45-.18s.27.08.27.23c0,.12-.03.22-.09.31-.69.9-1.4,1.71-2.12,2.43-.72.72-1.49,1.33-2.32,1.84-.83.51-1.72.9-2.68,1.17-.96.27-2.03.41-3.2.41-.96,0-1.86-.16-2.7-.47s-1.58-.77-2.21-1.37c-.63-.6-1.12-1.35-1.49-2.25-.36-.9-.54-1.94-.54-3.11Z"/>
          <path class="cls-1" d="M59.45,30.96c0-1.95.38-3.92,1.15-5.92.76-1.99,1.82-3.8,3.17-5.42,1.35-1.62,2.94-2.95,4.77-3.98,1.83-1.03,3.81-1.55,5.94-1.55,1.35,0,2.42.2,3.22.58.79.39,1.45.97,1.96,1.75h.09c.3-.24.66-.53,1.08-.88.42-.34.81-.68,1.17-1.01.33-.27.72-.41,1.17-.41h.5c.33,0,.5.12.5.36,0,.06-.02.15-.04.27l-4.19,12.87c-.66,1.98-1,3.24-1.04,3.78-.03.54-.04.84-.04.9,0,.87.39,1.3,1.17,1.3.36,0,.74-.15,1.12-.45.39-.3.8-.7,1.24-1.19.43-.5.88-1.07,1.35-1.71.46-.64.97-1.3,1.51-1.96.06-.06.12-.09.18-.09.09,0,.2.04.31.13.12.09.18.17.18.22,0,.03-.02.06-.04.09-.72,1.08-1.42,2.11-2.12,3.08-.69.98-1.4,1.83-2.14,2.57-.73.74-1.5,1.31-2.29,1.73s-1.64.63-2.54.63c-1.74,0-2.61-1.04-2.61-3.11,0-1.26.31-2.89.95-4.9l1.75-4.73h-.09c-1.95,4.11-3.83,7.24-5.65,9.38-1.82,2.15-3.67,3.22-5.56,3.22s-3.31-.43-4.43-1.31c-1.12-.87-1.69-2.29-1.69-4.27ZM64.98,32.08c0,1.05.21,1.77.63,2.16.42.39.92.58,1.49.58,1.26,0,2.74-1.15,4.43-3.44,1.7-2.29,3.43-5.51,5.2-9.65l.68-2.16c.12-.6.18-1.12.18-1.57,0-.6-.14-1.2-.43-1.8-.29-.6-.97-.9-2.05-.9-.93,0-1.83.3-2.7.9-.87.6-1.68,1.39-2.43,2.36s-1.43,2.07-2.05,3.29c-.62,1.21-1.14,2.45-1.57,3.69-.44,1.25-.77,2.45-1.01,3.6-.24,1.16-.36,2.14-.36,2.95Z"/>
          <path class="cls-1" d="M85.77,29.43c0-2.01.39-3.94,1.17-5.8.78-1.86,1.84-3.5,3.17-4.93,1.33-1.42,2.9-2.57,4.7-3.42,1.8-.86,3.73-1.28,5.8-1.28s3.37.31,4.16.92c.79.62,1.19,1.28,1.19,2,0,.6-.2,1.13-.61,1.6s-.92.7-1.55.7c-.39,0-.69-.1-.9-.32-.21-.21-.37-.47-.47-.79-.11-.32-.2-.66-.27-1.04-.08-.38-.19-.72-.34-1.04-.15-.31-.35-.58-.61-.79-.26-.21-.62-.32-1.1-.32-1.29,0-2.46.47-3.51,1.42-1.05.94-1.93,2.13-2.65,3.55-.72,1.43-1.28,2.98-1.67,4.66-.39,1.68-.58,3.27-.58,4.77,0,3.51,1.12,5.26,3.38,5.26,1.2,0,2.4-.33,3.6-.99,1.2-.66,2.43-1.72,3.69-3.19.12-.12.27-.18.45-.18s.27.08.27.23c0,.12-.03.22-.09.31-.69.9-1.39,1.71-2.12,2.43s-1.49,1.33-2.32,1.84c-.83.51-1.72.9-2.68,1.17-.96.27-2.02.41-3.19.41-.96,0-1.86-.16-2.7-.47s-1.57-.77-2.2-1.37c-.63-.6-1.12-1.35-1.49-2.25-.36-.9-.54-1.94-.54-3.11Z"/>
          <path class="cls-1" d="M111.06,20.21c.21-.63.31-1.19.31-1.67,0-.75-.24-1.26-.72-1.53-.48-.27-1.05-.41-1.71-.41-.18,0-.27-.07-.27-.22,0-.24.15-.39.45-.45.96-.12,1.82-.24,2.59-.36.77-.12,1.5-.25,2.21-.38.71-.14,1.38-.29,2.03-.45.64-.17,1.31-.35,2-.56.12-.06.29-.09.5-.09.27,0,.36.15.27.45l-4.28,13.09c-.24.87-.47,1.7-.68,2.47-.21.78-.31,1.46-.31,2.03,0,.45.08.81.25,1.08.16.27.43.4.79.4s.73-.15,1.12-.45c.39-.3.79-.7,1.21-1.19.42-.5.87-1.07,1.35-1.71.48-.64.99-1.3,1.53-1.96.21-.15.33-.22.36-.22.15,0,.25.08.31.25.06.17.06.28,0,.34-.72,1.08-1.43,2.11-2.14,3.08-.71.98-1.42,1.82-2.14,2.54-.72.72-1.48,1.3-2.27,1.73s-1.64.65-2.54.65c-1.26,0-2.17-.32-2.72-.95s-.83-1.58-.83-2.83c0-1.56.43-3.67,1.3-6.34l2.03-6.34ZM113.62,8.5c.54-.6,1.04-1.21,1.49-1.84.45-.63.91-1.19,1.37-1.69.46-.5.96-.9,1.49-1.22.52-.31,1.12-.47,1.78-.47.84,0,1.5.21,1.98.63.48.42.72.97.72,1.67s-.24,1.37-.72,1.96c-.48.58-1.07,1.09-1.78,1.51s-1.46.74-2.27.97c-.81.23-1.55.34-2.21.34-.6,0-1.1-.09-1.51-.27-.41-.18-.61-.48-.61-.9,0-.18.09-.41.27-.67Z"/>
          <path class="cls-1" d="M120.42,30.96c0-1.95.38-3.92,1.15-5.92.76-1.99,1.82-3.8,3.17-5.42,1.35-1.62,2.94-2.95,4.77-3.98,1.83-1.03,3.81-1.55,5.94-1.55,1.35,0,2.42.2,3.22.58.79.39,1.45.97,1.96,1.75h.09c.3-.24.66-.53,1.08-.88.42-.34.81-.68,1.17-1.01.33-.27.72-.41,1.17-.41h.5c.33,0,.49.12.49.36,0,.06-.02.15-.04.27l-4.19,12.87c-.66,1.98-1.01,3.24-1.04,3.78-.03.54-.04.84-.04.9,0,.87.39,1.3,1.17,1.3.36,0,.73-.15,1.12-.45s.8-.7,1.24-1.19c.43-.5.88-1.07,1.35-1.71.46-.64.97-1.3,1.51-1.96.06-.06.12-.09.18-.09.09,0,.2.04.31.13.12.09.18.17.18.22,0,.03-.02.06-.05.09-.72,1.08-1.42,2.11-2.11,3.08-.69.98-1.4,1.83-2.14,2.57s-1.5,1.31-2.29,1.73-1.64.63-2.54.63c-1.74,0-2.61-1.04-2.61-3.11,0-1.26.31-2.89.95-4.9l1.75-4.73h-.09c-1.95,4.11-3.83,7.24-5.65,9.38-1.82,2.15-3.67,3.22-5.56,3.22s-3.31-.43-4.43-1.31c-1.12-.87-1.69-2.29-1.69-4.27ZM125.96,32.08c0,1.05.21,1.77.63,2.16.42.39.92.58,1.49.58,1.26,0,2.74-1.15,4.43-3.44,1.7-2.29,3.43-5.51,5.2-9.65l.68-2.16c.12-.6.18-1.12.18-1.57,0-.6-.14-1.2-.43-1.8-.29-.6-.97-.9-2.05-.9-.93,0-1.83.3-2.7.9-.87.6-1.68,1.39-2.43,2.36s-1.43,2.07-2.05,3.29c-.62,1.21-1.14,2.45-1.57,3.69-.44,1.25-.77,2.45-1.01,3.6-.24,1.16-.36,2.14-.36,2.95Z"/>
          <path class="cls-1" d="M170.73,11.83c-.03-.87-.07-1.64-.13-2.32-.06-.68-.18-1.25-.36-1.71s-.45-.83-.81-1.08-.84-.4-1.44-.43c-.51-.03-.91-.06-1.19-.09s-.55-.05-.79-.07c-.24-.02-.5-.03-.79-.04-.29-.02-.68-.02-1.19-.02-.15-.06-.22-.22-.22-.49,0-.21.04-.42.13-.63.09-.21.24-.34.45-.4,2.13,0,4.27,0,6.43-.02,2.16-.01,4.13-.03,5.92-.04s3.27-.03,4.46-.04c1.19-.02,1.87-.02,2.05-.02.45,0,.68.2.68.58,0,.24-.08.51-.25.81-.16.3-.4.58-.7.86-.3.27-.64.49-1.04.67-.39.18-.79.27-1.21.27-.48,0-.97-.02-1.48-.07s-1.07-.1-1.67-.16c-.24.36-.37.92-.38,1.69-.02.76-.02,1.69-.02,2.77l.04,18.36h.09l11.66-17.82c1.05-1.62,2.09-3.11,3.13-4.46,1.04-1.35,2.12-2.51,3.26-3.49s2.34-1.73,3.6-2.27c1.26-.54,2.61-.81,4.05-.81,1.11,0,1.9.18,2.38.54s.72.79.72,1.3c0,.78-.35,1.38-1.04,1.8-.69.42-1.39.63-2.12.63-1.83,0-3.34.04-4.52.11-1.19.08-2.23.34-3.13.81-.9.47-1.77,1.19-2.61,2.18s-1.86,2.38-3.06,4.19l-15.12,22.86c-.27.42-.62.63-1.04.63h-1.49c-.18,0-.34-.06-.47-.18-.14-.12-.2-.27-.2-.45l-.59-23.94Z"/>
          <path class="cls-1" d="M188.01,30.24c0-1.98.4-3.94,1.19-5.87s1.87-3.67,3.22-5.2c1.35-1.53,2.93-2.77,4.75-3.71,1.81-.95,3.74-1.42,5.78-1.42,1.71,0,3.08.32,4.1.97,1.02.65,1.53,1.52,1.53,2.63,0,.87-.22,1.64-.67,2.29-.45.66-1.05,1.25-1.8,1.75-.75.51-1.6.95-2.54,1.33-.95.38-1.93.7-2.95.97-1.02.27-2.02.5-2.99.68-.97.18-1.87.34-2.68.49-.36,1.08-.64,2.1-.83,3.06s-.29,1.79-.29,2.47c0,1.23.26,2.19.77,2.88.51.69,1.3,1.04,2.38,1.04.69,0,1.4-.16,2.14-.5.73-.33,1.45-.78,2.14-1.35.69-.57,1.34-1.21,1.96-1.94.62-.72,1.16-1.45,1.64-2.2.06-.06.13-.13.22-.2.09-.07.21-.11.36-.11.18,0,.27.06.27.18,0,.09-.04.21-.13.36-.57.87-1.21,1.77-1.94,2.7s-1.54,1.77-2.47,2.52c-.93.75-1.95,1.37-3.06,1.85-1.11.48-2.32.72-3.64.72-1.98,0-3.55-.56-4.7-1.69s-1.73-2.69-1.73-4.7ZM195.26,24.21c.99-.3,2.01-.65,3.06-1.06,1.05-.41,2-.91,2.86-1.51.86-.6,1.56-1.32,2.12-2.16.55-.84.83-1.84.83-3.01,0-1.02-.53-1.53-1.58-1.53-.72,0-1.43.27-2.14.81-.71.54-1.37,1.25-2,2.14-.63.89-1.21,1.88-1.73,2.97-.53,1.1-1,2.21-1.42,3.35Z"/>
          <path class="cls-1" d="M213.16,20.25c.3-.81.45-1.47.45-1.98,0-.6-.23-1.01-.7-1.24s-1.13-.35-2-.38c-.21,0-.29-.09-.22-.27.09-.21.24-.34.45-.41,1.8-.21,3.35-.45,4.63-.72,1.29-.27,2.62-.61,4.01-1.04.18-.06.34-.09.49-.09.3,0,.41.15.32.45l-3.02,9.49h.18c.45-.84,1.01-1.84,1.69-2.99.68-1.15,1.44-2.26,2.29-3.33.86-1.06,1.82-1.96,2.9-2.7,1.08-.73,2.25-1.1,3.51-1.1.72,0,1.25.16,1.58.47.33.32.49.7.49,1.15,0,.36-.09.72-.27,1.08-.18.36-.43.7-.74,1.01-.31.32-.71.57-1.17.76-.46.2-.98.29-1.55.29-.99,0-1.92.18-2.79.54-.87.36-1.69.84-2.45,1.44-.77.6-1.47,1.31-2.12,2.14-.65.83-1.25,1.7-1.82,2.63l-3.38,10.12c-.09.27-.24.49-.45.65-.21.17-.45.23-.72.2l-3.15-.31c-.48-.06-.81-.25-.99-.56-.18-.32-.2-.7-.04-1.15l4.59-14.17Z"/>
          <path class="cls-1" d="M227.7,30.87c0-1.92.4-3.87,1.21-5.85.81-1.98,1.9-3.78,3.26-5.4,1.36-1.62,2.95-2.95,4.75-3.98,1.8-1.03,3.71-1.55,5.71-1.55,1.02,0,1.95.19,2.79.56s1.53.94,2.07,1.69l.58-1.67c.9-2.46,2.09-4.61,3.58-6.46,1.48-1.84,3.11-3.38,4.88-4.59,1.77-1.21,3.59-2.12,5.47-2.72,1.88-.6,3.65-.9,5.33-.9,1.35,0,2.29.17,2.81.5s.79.74.79,1.21-.14.92-.43,1.33c-.29.41-.64.76-1.06,1.06s-.87.53-1.35.7c-.48.17-.93.25-1.35.25-.63,0-1.21-.14-1.73-.41-.53-.27-1.03-.58-1.51-.92-.48-.34-.93-.65-1.35-.92-.42-.27-.81-.41-1.17-.41-.72,0-1.38.26-1.98.79-.6.53-1.16,1.24-1.67,2.14-.51.9-.99,1.96-1.44,3.17-.45,1.21-.9,2.5-1.35,3.85l-4.95,15.3c-.27.78-.5,1.53-.68,2.25s-.29,1.36-.31,1.91c-.03.56.03,1,.18,1.33.15.33.43.49.86.49.36,0,.73-.15,1.1-.45s.77-.7,1.19-1.19c.42-.5.87-1.07,1.35-1.71.48-.64,1-1.3,1.57-1.96.15-.15.27-.22.36-.22s.16.04.2.11.07.16.09.25,0,.17-.02.23c-.72,1.08-1.43,2.11-2.14,3.08-.71.98-1.42,1.82-2.14,2.54-.72.72-1.48,1.3-2.27,1.73s-1.64.65-2.54.65-1.55-.23-2.03-.67c-.48-.45-.8-1.08-.97-1.89-.17-.81-.17-1.79,0-2.95.16-1.15.47-2.42.92-3.8l1.39-4.23h-.18c-.93,2.1-1.82,3.98-2.68,5.62-.86,1.65-1.72,3.05-2.59,4.21-.87,1.16-1.8,2.04-2.79,2.66s-2.12.92-3.38.92c-1.95,0-3.51-.44-4.68-1.33-1.17-.88-1.76-2.33-1.76-4.34ZM233.46,31.14c0,1.35.3,2.31.9,2.88.6.57,1.29.86,2.07.86.69,0,1.46-.47,2.29-1.42s1.7-2.17,2.59-3.67c.88-1.5,1.77-3.17,2.65-5s1.73-3.63,2.54-5.4l.49-1.62c-.3-.63-.73-1.12-1.28-1.48-.56-.36-1.19-.54-1.91-.54-.93,0-1.84.25-2.72.76-.88.51-1.71,1.18-2.47,2-.76.83-1.46,1.78-2.09,2.86-.63,1.08-1.17,2.19-1.62,3.33-.45,1.14-.8,2.26-1.06,3.38-.26,1.11-.38,2.13-.38,3.06Z"/>
          <path class="cls-1" d="M255.73,30.24c0-1.98.4-3.94,1.19-5.87s1.87-3.67,3.22-5.2c1.35-1.53,2.93-2.77,4.75-3.71s3.74-1.42,5.78-1.42c1.71,0,3.07.32,4.1.97,1.02.65,1.53,1.52,1.53,2.63,0,.87-.22,1.64-.68,2.29-.45.66-1.05,1.25-1.8,1.75-.75.51-1.6.95-2.54,1.33s-1.93.7-2.95.97c-1.02.27-2.02.5-2.99.68-.98.18-1.87.34-2.68.49-.36,1.08-.64,2.1-.83,3.06-.2.96-.29,1.79-.29,2.47,0,1.23.25,2.19.77,2.88.51.69,1.3,1.04,2.38,1.04.69,0,1.4-.16,2.14-.5.73-.33,1.45-.78,2.14-1.35.69-.57,1.34-1.21,1.96-1.94.61-.72,1.16-1.45,1.64-2.2.06-.06.13-.13.22-.2.09-.07.21-.11.36-.11.18,0,.27.06.27.18,0,.09-.04.21-.13.36-.57.87-1.21,1.77-1.93,2.7-.72.93-1.55,1.77-2.48,2.52-.93.75-1.95,1.37-3.06,1.85-1.11.48-2.33.72-3.65.72-1.98,0-3.55-.56-4.7-1.69-1.16-1.12-1.73-2.69-1.73-4.7ZM262.98,24.21c.99-.3,2.01-.65,3.06-1.06,1.05-.41,2-.91,2.86-1.51.86-.6,1.56-1.32,2.12-2.16.55-.84.83-1.84.83-3.01,0-1.02-.53-1.53-1.57-1.53-.72,0-1.43.27-2.14.81s-1.37,1.25-2,2.14c-.63.89-1.21,1.88-1.73,2.97-.53,1.1-1,2.21-1.42,3.35Z"/>
        </g>
      </g>
    </g>
  </g>
</svg>