<?xml version="1.0" encoding="UTF-8"?>
<svg id="Capa_2" data-name="Capa 2" xmlns="http://www.w3.org/2000/svg" viewBox="0 0 245.97 44.73">
  <defs>
    <style>
      .cls-1 {
        fill: #f2e9ce;
      }
    </style>
  </defs>
  <g id="Slide_4" data-name="Slide 4">
    <g id="AC">
      <g id="A5_Pino_Greggi" data-name="A5 Pino Greggi">
        <g>
          <path class="cls-1" d="M8.69,5.98c1.29-.66,2.74-1.3,4.34-1.91,1.6-.62,3.24-1.15,4.91-1.62,1.66-.46,3.31-.84,4.93-1.12,1.62-.29,3.09-.43,4.41-.43,1.44,0,2.9.11,4.37.34,1.47.22,2.81.6,4.03,1.12,1.21.53,2.21,1.21,2.97,2.05.77.84,1.15,1.88,1.15,3.11,0,1.41-.31,2.68-.92,3.8s-1.43,2.11-2.45,2.97c-1.02.85-2.18,1.58-3.49,2.18-1.3.6-2.65,1.1-4.03,1.51-1.38.41-2.74.7-4.07.88-1.34.18-2.56.29-3.67.32-.24,0-.36-.12-.36-.36,0-.18.06-.34.18-.47.12-.13.3-.2.54-.2,1.35-.06,2.72-.34,4.12-.86,1.4-.51,2.66-1.21,3.8-2.09,1.14-.88,2.08-1.94,2.81-3.17.74-1.23,1.1-2.59,1.1-4.09,0-.81-.18-1.51-.54-2.09s-.83-1.09-1.42-1.51c-.59-.42-1.26-.76-2.03-1.04-.77-.27-1.55-.48-2.36-.63l.04.18c-.96.66-1.84,1.56-2.63,2.7-.8,1.14-1.45,2.6-1.96,4.37-.81,2.82-1.63,5.38-2.45,7.67s-1.7,4.3-2.63,6.03c-.93,1.73-1.94,3.14-3.04,4.25-1.09,1.11-2.32,1.89-3.67,2.34.9.18,1.8.27,2.7.27s1.88-.04,2.84-.14c.96-.09,1.84-.15,2.65-.18.69,0,1.04.24,1.04.72,0,.27-.11.55-.31.83-.21.29-.47.55-.79.79-.32.24-.67.44-1.08.61s-.82.25-1.24.25c-1.65,0-3.35-.05-5.08-.16-1.74-.11-3.53-.16-5.35-.16-.9,0-1.81.02-2.72.07-.92.04-1.84.13-2.77.25-.18.03-.32-.07-.41-.29-.09-.22-.14-.5-.14-.83,0-.54.1-1.05.29-1.53.2-.48.44-.72.74-.72.6.03,1.35.14,2.25.34.9.2,1.8.29,2.7.29,1.05,0,2.02-.22,2.9-.65.88-.43,1.54-1.27,1.96-2.5.66-2.01,1.24-3.94,1.73-5.78s1.01-3.6,1.55-5.26c.54-1.67,1.14-3.22,1.8-4.68.66-1.45,1.48-2.77,2.45-3.94s2.15-2.2,3.53-3.08c1.38-.88,3.04-1.58,4.99-2.09-1.17-.18-2.31-.27-3.42-.27-1.26,0-2.46.2-3.6.61-1.14.4-2.22.92-3.24,1.53-1.02.62-1.96,1.29-2.83,2.03-.87.74-1.65,1.43-2.34,2.09s-1.28,1.22-1.78,1.69-.88.76-1.15.88c-.45,0-.77-.17-.97-.52-.2-.34-.29-.76-.29-1.24,0-.69.14-1.39.43-2.09.28-.71.61-1.15.97-1.33Z"/>
          <path class="cls-1" d="M42.21,16.92c.21-.63.31-1.19.31-1.67,0-.75-.24-1.26-.72-1.53-.48-.27-1.05-.41-1.71-.41-.18,0-.27-.07-.27-.22,0-.24.15-.39.45-.45.96-.12,1.82-.24,2.59-.36.76-.12,1.5-.25,2.21-.38.7-.14,1.38-.29,2.02-.45.64-.17,1.31-.35,2-.56.12-.06.28-.09.49-.09.27,0,.36.15.27.45l-4.27,13.09c-.24.87-.47,1.7-.68,2.47-.21.78-.31,1.46-.31,2.03,0,.45.08.81.25,1.08.17.27.43.4.79.4s.73-.15,1.12-.45c.39-.3.79-.7,1.21-1.19.42-.5.87-1.07,1.35-1.71.48-.64.99-1.3,1.53-1.96.21-.15.33-.22.36-.22.15,0,.25.08.31.25.06.17.06.28,0,.34-.72,1.08-1.43,2.11-2.14,3.08-.71.98-1.42,1.82-2.14,2.54s-1.48,1.3-2.27,1.73-1.64.65-2.54.65c-1.26,0-2.17-.32-2.72-.95-.56-.63-.83-1.58-.83-2.83,0-1.56.43-3.67,1.3-6.34l2.03-6.34ZM44.78,5.22c.54-.6,1.04-1.21,1.48-1.84.45-.63.91-1.19,1.37-1.69.46-.5.96-.9,1.48-1.22.53-.31,1.12-.47,1.78-.47.84,0,1.5.21,1.98.63s.72.97.72,1.67-.24,1.37-.72,1.96-1.07,1.09-1.78,1.51-1.46.74-2.27.97c-.81.23-1.55.34-2.21.34-.6,0-1.1-.09-1.51-.27-.41-.18-.61-.48-.61-.9,0-.18.09-.41.27-.67Z"/>
          <path class="cls-1" d="M56.83,17.01c.09-.33.17-.63.22-.9.06-.27.09-.52.09-.76,0-.6-.2-1.06-.59-1.4-.39-.33-1.06-.5-2.02-.5-.12,0-.18-.07-.18-.22,0-.27.15-.43.45-.5,1.8-.21,3.38-.45,4.75-.72,1.37-.27,2.74-.61,4.12-1.04.18-.06.34-.09.5-.09.3,0,.4.15.31.45l-4.32,12.73h.13c.81-1.56,1.6-3.13,2.36-4.7.77-1.58,1.55-3,2.36-4.28.81-1.27,1.68-2.32,2.61-3.13.93-.81,1.99-1.21,3.2-1.21.57,0,1.1.06,1.6.18.49.12.93.32,1.3.61s.67.69.88,1.21c.21.53.32,1.19.32,2,0,.6-.08,1.32-.23,2.16s-.39,1.79-.72,2.83l-1.49,4.59c-.3.87-.55,1.7-.74,2.5-.2.8-.29,1.48-.29,2.05,0,.96.34,1.44,1.03,1.44.36,0,.74-.15,1.12-.45.39-.3.79-.7,1.22-1.19.42-.5.86-1.07,1.33-1.71.46-.64.98-1.3,1.55-1.96.15-.15.27-.22.36-.22.15,0,.25.08.29.25.04.17.04.28-.02.34-.72,1.08-1.43,2.11-2.14,3.08-.71.98-1.42,1.82-2.14,2.54-.72.72-1.48,1.3-2.27,1.73s-1.64.65-2.54.65c-1.26,0-2.17-.32-2.72-.95-.56-.63-.83-1.58-.83-2.83,0-.78.12-1.7.36-2.77.24-1.06.57-2.26.99-3.58l1.17-3.38c.45-1.38.79-2.5,1.01-3.38s.34-1.56.34-2.07-.11-.85-.32-1.04c-.21-.18-.48-.27-.81-.27-.36,0-.8.27-1.31.81-.51.54-1.06,1.25-1.64,2.14-.58.89-1.19,1.9-1.82,3.04-.63,1.14-1.25,2.32-1.84,3.53-.6,1.21-1.19,2.42-1.76,3.62-.57,1.2-1.08,2.29-1.53,3.29l-.9,2.75c-.09.27-.24.49-.45.65-.21.17-.45.23-.72.2l-3.24-.31c-.42-.06-.73-.25-.92-.56-.2-.32-.22-.7-.07-1.15l4.59-14.13Z"/>
          <path class="cls-1" d="M78.88,26.32c0-1.74.32-3.53.97-5.38.64-1.85,1.54-3.53,2.7-5.06,1.15-1.53,2.53-2.78,4.12-3.76,1.59-.97,3.33-1.46,5.22-1.46,2.25,0,3.99.62,5.22,1.85,1.23,1.23,1.84,2.97,1.84,5.22,0,1.77-.32,3.58-.94,5.42-.63,1.84-1.52,3.53-2.68,5.04-1.16,1.51-2.53,2.75-4.12,3.71-1.59.96-3.35,1.44-5.27,1.44-2.22,0-3.95-.61-5.2-1.82-1.25-1.22-1.87-2.95-1.87-5.2ZM84.6,27.94c0,1.41.18,2.51.54,3.29.36.78.88,1.17,1.58,1.17.99,0,1.88-.57,2.68-1.71.79-1.14,1.48-2.55,2.05-4.23.57-1.68,1.01-3.47,1.33-5.38.32-1.9.47-3.62.47-5.15,0-1.35-.17-2.43-.5-3.24-.33-.81-.79-1.21-1.39-1.21-.66,0-1.29.26-1.89.79-.6.53-1.15,1.23-1.64,2.12-.49.89-.95,1.9-1.35,3.04-.41,1.14-.74,2.33-1.01,3.56-.27,1.23-.48,2.45-.63,3.64-.15,1.2-.22,2.31-.22,3.33Z"/>
          <path class="cls-1" d="M112.5,22.09c0-3,.57-5.79,1.71-8.37,1.14-2.58,2.69-4.82,4.66-6.73,1.96-1.91,4.27-3.4,6.91-4.5,2.64-1.09,5.46-1.64,8.46-1.64.6,0,1.3.03,2.12.09.81.06,1.63.13,2.47.23.84.09,1.65.2,2.43.34.78.13,1.44.28,1.98.43.6.18,1.09.42,1.48.72.39.3.59.67.59,1.12s-.14.87-.43,1.26c-.29.39-.63.74-1.04,1.04-.41.3-.85.53-1.33.7s-.92.25-1.3.25c-.66,0-1.25-.26-1.78-.79-.53-.53-1.06-1.09-1.6-1.71s-1.13-1.19-1.78-1.71c-.65-.53-1.42-.79-2.32-.79-1.53,0-2.96.31-4.27.92-1.32.62-2.51,1.45-3.58,2.5-1.07,1.05-2.01,2.26-2.84,3.62-.82,1.37-1.51,2.8-2.07,4.3-.56,1.5-.98,3.02-1.26,4.54-.29,1.53-.43,2.97-.43,4.32,0,1.47.19,2.78.56,3.94.38,1.16.9,2.12,1.58,2.88.67.77,1.46,1.35,2.36,1.75.9.41,1.87.61,2.92.61,1.44,0,2.77-.31,3.98-.94s2.27-1.67,3.17-3.11l1.22-3.78c.45-1.32.67-2.43.67-3.33,0-.69-.16-1.22-.47-1.58-.31-.36-.86-.55-1.64-.58-1.02-.06-2.05-.12-3.1-.18-1.05-.06-2.09-.09-3.11-.09-.12,0-.2-.04-.25-.13s-.07-.18-.07-.27c0-.15.05-.28.14-.4s.21-.21.36-.27c2.13,0,4.3-.03,6.5-.09,2.21-.06,4.21-.12,6.03-.18,1.81-.06,3.33-.12,4.54-.18,1.21-.06,1.91-.09,2.09-.09.48,0,.72.2.72.58,0,.21-.09.47-.27.77-.18.3-.41.58-.7.85-.29.27-.62.5-1.01.7-.39.2-.79.29-1.21.29-.51,0-1.02-.02-1.53-.07s-1.05-.1-1.62-.16c-.24.36-.51.92-.81,1.69-.3.76-.62,1.67-.95,2.72l-4.68,14.58c-.09.3-.3.52-.63.65-.33.13-.71.2-1.12.2-.3,0-.6-.04-.9-.11-.3-.08-.56-.18-.79-.32-.23-.13-.38-.27-.47-.41-.09-.13-.13-.28-.13-.43,0-.09.01-.18.04-.27l2.88-8.77h-.13c-.45.72-1,1.37-1.64,1.96s-1.36,1.07-2.14,1.46c-.78.39-1.61.69-2.5.9-.88.21-1.78.32-2.68.32-1.89,0-3.58-.27-5.08-.81-1.5-.54-2.76-1.3-3.78-2.29-1.02-.99-1.8-2.17-2.34-3.55-.54-1.38-.81-2.91-.81-4.59Z"/>
          <path class="cls-1" d="M149.67,16.96c.3-.81.45-1.47.45-1.98,0-.6-.23-1.01-.7-1.24s-1.13-.35-2-.38c-.21,0-.29-.09-.22-.27.09-.21.24-.34.45-.41,1.8-.21,3.35-.45,4.63-.72,1.29-.27,2.62-.61,4.01-1.04.18-.06.34-.09.49-.09.3,0,.41.15.32.45l-3.02,9.49h.18c.45-.84,1.01-1.84,1.69-2.99.68-1.15,1.44-2.26,2.29-3.33.86-1.06,1.82-1.96,2.9-2.7,1.08-.73,2.25-1.1,3.51-1.1.72,0,1.25.16,1.58.47.33.32.49.7.49,1.15,0,.36-.09.72-.27,1.08-.18.36-.43.7-.74,1.01-.31.32-.71.57-1.17.76-.46.2-.98.29-1.55.29-.99,0-1.92.18-2.79.54-.87.36-1.69.84-2.45,1.44-.77.6-1.47,1.31-2.12,2.14-.65.83-1.25,1.7-1.82,2.63l-3.38,10.12c-.09.27-.24.49-.45.65-.21.17-.45.23-.72.2l-3.15-.31c-.48-.06-.81-.25-.99-.56-.18-.32-.2-.7-.04-1.15l4.59-14.17Z"/>
          <path class="cls-1" d="M164.07,26.95c0-1.98.4-3.94,1.19-5.87s1.87-3.67,3.22-5.2c1.35-1.53,2.93-2.77,4.75-3.71,1.81-.95,3.74-1.42,5.78-1.42,1.71,0,3.08.32,4.1.97,1.02.65,1.53,1.52,1.53,2.63,0,.87-.22,1.64-.67,2.29-.45.66-1.05,1.25-1.8,1.75-.75.51-1.6.95-2.54,1.33-.95.38-1.93.7-2.95.97-1.02.27-2.02.5-2.99.68-.97.18-1.87.34-2.68.49-.36,1.08-.64,2.1-.83,3.06s-.29,1.79-.29,2.47c0,1.23.26,2.19.77,2.88.51.69,1.3,1.04,2.38,1.04.69,0,1.4-.16,2.14-.5.73-.33,1.45-.78,2.14-1.35.69-.57,1.34-1.21,1.96-1.94.62-.72,1.16-1.45,1.64-2.2.06-.06.13-.13.22-.2.09-.07.21-.11.36-.11.18,0,.27.06.27.18,0,.09-.04.21-.13.36-.57.87-1.21,1.77-1.94,2.7s-1.54,1.77-2.47,2.52c-.93.75-1.95,1.37-3.06,1.85-1.11.48-2.32.72-3.64.72-1.98,0-3.55-.56-4.7-1.69s-1.73-2.69-1.73-4.7ZM171.31,20.92c.99-.3,2.01-.65,3.06-1.06,1.05-.41,2-.91,2.86-1.51.86-.6,1.56-1.32,2.12-2.16.55-.84.83-1.84.83-3.01,0-1.02-.53-1.53-1.58-1.53-.72,0-1.43.27-2.14.81-.71.54-1.37,1.25-2,2.14-.63.89-1.21,1.88-1.73,2.97-.53,1.1-1,2.21-1.42,3.35Z"/>
          <path class="cls-1" d="M186.3,19.44c0-1.44.35-2.7,1.06-3.78s1.61-1.98,2.72-2.7c1.11-.72,2.32-1.26,3.64-1.62,1.32-.36,2.61-.54,3.87-.54.96,0,1.84.09,2.65.27h.72c1.08,0,2-.23,2.77-.7.76-.46,1.45-.98,2.05-1.55.6-.57,1.15-1.09,1.66-1.55.51-.46,1.04-.7,1.58-.7.42,0,.74.13.97.41.22.27.34.62.34,1.04,0,.66-.2,1.25-.61,1.78-.4.53-.91.95-1.51,1.28-.6.33-1.27.58-2,.77-.74.18-1.42.27-2.05.27-.21,0-.45,0-.72-.02-.27-.01-.51-.05-.72-.11.57.36,1.02.82,1.35,1.37.33.56.5,1.22.5,2,0,1.41-.32,2.65-.97,3.71-.64,1.07-1.48,1.96-2.5,2.68-1.02.72-2.16,1.27-3.42,1.64-1.26.38-2.52.59-3.78.65-.27.12-.58.28-.95.47-.36.2-.69.41-.99.63-.3.23-.56.47-.77.72-.21.26-.31.52-.31.79,0,.36.28.62.85.76.57.15,1.5.23,2.79.23s2.6.11,3.76.34c1.15.23,2.16.56,3.01,1.01.86.45,1.52,1.02,2,1.71.48.69.72,1.52.72,2.47,0,1.29-.29,2.48-.88,3.56-.58,1.08-1.36,2.05-2.32,2.9-.96.85-2.05,1.6-3.28,2.23-1.23.63-2.51,1.16-3.83,1.6-1.32.43-2.62.76-3.89.97s-2.42.32-3.44.32c-1.17,0-2.3-.11-3.4-.32s-2.06-.54-2.9-.99-1.51-1.01-2.03-1.67c-.51-.66-.76-1.44-.76-2.34,0-1.35.38-2.48,1.12-3.4.75-.92,1.67-1.68,2.77-2.3,1.09-.62,2.28-1.1,3.55-1.46,1.27-.36,2.45-.66,3.53-.9.24-.06.45-.09.63-.09.12,0,.24.02.36.07s.18.14.18.29c0,.12-.07.2-.22.22-.84.27-1.69.63-2.54,1.08-.85.45-1.63.99-2.32,1.62-.69.63-1.25,1.35-1.67,2.16-.42.81-.63,1.71-.63,2.7,0,.78.17,1.45.52,2,.34.55.79,1.01,1.33,1.37.54.36,1.16.63,1.85.81s1.39.27,2.12.27c1.17,0,2.38-.18,3.62-.54,1.24-.36,2.38-.89,3.42-1.58,1.04-.69,1.88-1.55,2.54-2.57.66-1.02.99-2.19.99-3.51,0-.75-.16-1.38-.49-1.89-.33-.51-.76-.92-1.28-1.24-.53-.31-1.12-.56-1.78-.74s-1.33-.34-2.03-.5c-.54-.12-1.11-.24-1.71-.36-.6-.12-1.16-.29-1.67-.5s-.93-.5-1.26-.86c-.33-.36-.49-.85-.49-1.48,0-.9.42-1.68,1.26-2.34.84-.66,1.92-1.24,3.24-1.75-.78-.06-1.53-.19-2.25-.38-.72-.2-1.35-.48-1.89-.86-.54-.38-.97-.84-1.3-1.39-.33-.56-.49-1.21-.49-1.96ZM191.52,20.83c0,.93.2,1.57.61,1.93.41.36.94.54,1.6.54.81,0,1.57-.34,2.27-1.01.7-.67,1.32-1.5,1.84-2.47s.93-2,1.21-3.06c.29-1.06.43-2,.43-2.81s-.2-1.45-.61-1.84c-.4-.39-.95-.58-1.64-.58-.84,0-1.61.34-2.32,1.01-.71.67-1.31,1.49-1.82,2.45-.51.96-.9,1.98-1.17,3.06-.27,1.08-.41,2.01-.41,2.79Z"/>
          <path class="cls-1" d="M208.84,19.44c0-1.44.35-2.7,1.06-3.78.7-1.08,1.61-1.98,2.72-2.7,1.11-.72,2.33-1.26,3.65-1.62,1.32-.36,2.61-.54,3.87-.54.96,0,1.85.09,2.65.27h.72c1.08,0,2-.23,2.77-.7.77-.46,1.45-.98,2.05-1.55.6-.57,1.16-1.09,1.67-1.55.51-.46,1.04-.7,1.57-.7.42,0,.74.13.97.41.22.27.34.62.34,1.04,0,.66-.2,1.25-.61,1.78-.4.53-.91.95-1.51,1.28-.6.33-1.27.58-2,.77-.73.18-1.42.27-2.05.27-.21,0-.45,0-.72-.02-.27-.01-.51-.05-.72-.11.57.36,1.02.82,1.35,1.37.33.56.49,1.22.49,2,0,1.41-.32,2.65-.97,3.71-.65,1.07-1.48,1.96-2.5,2.68s-2.16,1.27-3.42,1.64c-1.26.38-2.52.59-3.78.65-.27.12-.59.28-.95.47-.36.2-.69.41-.99.63-.3.23-.55.47-.77.72-.21.26-.31.52-.31.79,0,.36.29.62.86.76.57.15,1.5.23,2.79.23s2.6.11,3.76.34c1.15.23,2.16.56,3.02,1.01s1.52,1.02,2,1.71c.48.69.72,1.52.72,2.47,0,1.29-.29,2.48-.88,3.56-.59,1.08-1.36,2.05-2.32,2.9-.96.85-2.05,1.6-3.29,2.23s-2.51,1.16-3.82,1.6c-1.32.43-2.62.76-3.89.97-1.28.21-2.42.32-3.44.32-1.17,0-2.3-.11-3.4-.32-1.1-.21-2.06-.54-2.9-.99-.84-.45-1.52-1.01-2.03-1.67-.51-.66-.77-1.44-.77-2.34,0-1.35.38-2.48,1.12-3.4.75-.92,1.67-1.68,2.77-2.3,1.1-.62,2.28-1.1,3.55-1.46s2.45-.66,3.53-.9c.24-.06.45-.09.63-.09.12,0,.24.02.36.07.12.04.18.14.18.29,0,.12-.08.2-.22.22-.84.27-1.69.63-2.54,1.08s-1.63.99-2.32,1.62c-.69.63-1.24,1.35-1.66,2.16-.42.81-.63,1.71-.63,2.7,0,.78.17,1.45.52,2,.35.55.79,1.01,1.33,1.37.54.36,1.15.63,1.85.81.69.18,1.39.27,2.11.27,1.17,0,2.38-.18,3.62-.54,1.24-.36,2.38-.89,3.42-1.58,1.04-.69,1.88-1.55,2.54-2.57.66-1.02.99-2.19.99-3.51,0-.75-.17-1.38-.5-1.89-.33-.51-.76-.92-1.28-1.24-.53-.31-1.12-.56-1.78-.74-.66-.18-1.34-.34-2.03-.5-.54-.12-1.11-.24-1.71-.36s-1.15-.29-1.66-.5-.93-.5-1.26-.86c-.33-.36-.5-.85-.5-1.48,0-.9.42-1.68,1.26-2.34.84-.66,1.92-1.24,3.24-1.75-.78-.06-1.53-.19-2.25-.38-.72-.2-1.35-.48-1.89-.86-.54-.38-.98-.84-1.3-1.39-.33-.56-.5-1.21-.5-1.96ZM214.06,20.83c0,.93.2,1.57.61,1.93.4.36.94.54,1.6.54.81,0,1.57-.34,2.27-1.01s1.32-1.5,1.85-2.47c.52-.97.93-2,1.21-3.06.29-1.06.43-2,.43-2.81s-.2-1.45-.61-1.84c-.41-.39-.95-.58-1.64-.58-.84,0-1.61.34-2.32,1.01s-1.31,1.49-1.82,2.45c-.51.96-.9,1.98-1.17,3.06s-.4,2.01-.4,2.79Z"/>
          <path class="cls-1" d="M234.58,16.92c.21-.63.31-1.19.31-1.67,0-.75-.24-1.26-.72-1.53-.48-.27-1.05-.41-1.71-.41-.18,0-.27-.07-.27-.22,0-.24.15-.39.45-.45.96-.12,1.82-.24,2.59-.36.76-.12,1.5-.25,2.21-.38.7-.14,1.38-.29,2.02-.45.65-.17,1.31-.35,2-.56.12-.06.29-.09.49-.09.27,0,.36.15.27.45l-4.27,13.09c-.24.87-.47,1.7-.68,2.47-.21.78-.31,1.46-.31,2.03,0,.45.08.81.25,1.08.17.27.43.4.79.4s.73-.15,1.12-.45c.39-.3.79-.7,1.21-1.19.42-.5.87-1.07,1.35-1.71.48-.64.99-1.3,1.53-1.96.21-.15.33-.22.36-.22.15,0,.25.08.31.25.06.17.06.28,0,.34-.72,1.08-1.43,2.11-2.14,3.08-.71.98-1.42,1.82-2.14,2.54-.72.72-1.48,1.3-2.27,1.73-.8.43-1.64.65-2.54.65-1.26,0-2.17-.32-2.72-.95s-.83-1.58-.83-2.83c0-1.56.43-3.67,1.3-6.34l2.03-6.34ZM237.15,5.22c.54-.6,1.04-1.21,1.48-1.84.45-.63.91-1.19,1.37-1.69.46-.5.96-.9,1.48-1.22.53-.31,1.12-.47,1.78-.47.84,0,1.5.21,1.98.63s.72.97.72,1.67-.24,1.37-.72,1.96-1.07,1.09-1.78,1.51-1.46.74-2.27.97c-.81.23-1.55.34-2.21.34-.6,0-1.1-.09-1.51-.27-.41-.18-.61-.48-.61-.9,0-.18.09-.41.27-.67Z"/>
        </g>
      </g>
    </g>
  </g>
</svg>