<?xml version="1.0" encoding="UTF-8"?>
<svg id="Capa_2" data-name="Capa 2" xmlns="http://www.w3.org/2000/svg" viewBox="0 0 453.82 52.2">
  <defs>
    <style>
      .cls-1 {
        fill: #f2e9ce;
      }
    </style>
  </defs>
  <g id="Slide_4" data-name="Slide 4">
    <g id="AC">
      <g id="A6_Árbol_Guayacán_Rosa" data-name="A6 Árbol Guayacán Rosa">
        <g>
          <path class="cls-1" d="M27.27,14.17c-.24-1.41-.9-2.34-1.98-2.79s-2.6-.67-4.54-.67h-1.08c-.21,0-.32-.08-.32-.23,0-.03.01-.07.04-.13.09-.24.25-.36.5-.36,1.08-.12,2.32-.31,3.71-.58,1.39-.27,2.74-.4,4.03-.4.72,0,1.41.06,2.07.18.66.12,1.24.34,1.75.65.51.32.92.74,1.24,1.26.32.53.49,1.18.52,1.96l.81,20.83c.06,2.16.39,3.75.99,4.77.6,1.02,1.41,1.53,2.43,1.53.27,0,.66-.07,1.17-.22.18,0,.27.06.27.18,0,.06-.02.13-.04.22-.06.09-.12.16-.18.2-.06.04-.17.1-.32.16-.78.45-1.59.81-2.43,1.08-.84.27-1.65.41-2.43.41s-1.57-.16-2.27-.47c-.71-.32-1.33-.83-1.87-1.55s-.98-1.66-1.3-2.81c-.33-1.15-.5-2.57-.5-4.25l-.04-3.19h-7.42c-1.32,2.46-2.61,4.51-3.87,6.14-1.26,1.63-2.54,2.92-3.83,3.87-1.29.94-2.63,1.61-4.03,2-1.4.39-2.9.58-4.52.58-1.38,0-2.36-.25-2.95-.76-.58-.51-.88-1.09-.88-1.75,0-.72.28-1.32.83-1.8.55-.48,1.19-.72,1.91-.72s1.35.08,1.89.25,1.04.34,1.51.52c.46.18.92.35,1.35.52s.91.25,1.42.25c.87,0,1.73-.19,2.59-.56.86-.38,1.72-1.01,2.61-1.91.88-.9,1.82-2.08,2.81-3.53.99-1.45,2.05-3.26,3.2-5.42l7.15-13.41ZM27.5,28.84l-.09-12.78h-.09l-6.66,12.74,6.84.04ZM34.29,1.26c.33-.42.7-.74,1.1-.95.41-.21.82-.31,1.24-.31.63,0,1.09.1,1.39.29.3.2.45.46.45.79,0,.57-.36,1.18-1.08,1.84-.72.66-1.56,1.29-2.52,1.89-.96.6-1.91,1.14-2.86,1.62-.95.48-1.63.81-2.05.99-.15.06-.31.13-.5.2-.18.08-.34.11-.5.11-.27,0-.4-.09-.4-.27,0-.15.09-.29.27-.41.66-.57,1.24-1.08,1.73-1.53.5-.45.95-.9,1.35-1.35.4-.45.79-.91,1.17-1.37.37-.46.77-.98,1.19-1.55Z"/>
          <path class="cls-1" d="M45.94,24.79c.3-.81.45-1.47.45-1.98,0-.6-.23-1.01-.7-1.24-.47-.22-1.13-.35-2-.38-.21,0-.29-.09-.22-.27.09-.21.24-.34.45-.41,1.8-.21,3.35-.45,4.64-.72,1.29-.27,2.62-.61,4-1.04.18-.06.34-.09.5-.09.3,0,.4.15.31.45l-3.01,9.49h.18c.45-.84,1.01-1.84,1.69-2.99.67-1.15,1.44-2.26,2.29-3.33.86-1.06,1.82-1.96,2.9-2.7,1.08-.73,2.25-1.1,3.51-1.1.72,0,1.24.16,1.58.47.33.32.49.7.49,1.15,0,.36-.09.72-.27,1.08-.18.36-.43.7-.74,1.01s-.71.57-1.17.76c-.47.2-.98.29-1.55.29-.99,0-1.92.18-2.79.54-.87.36-1.69.84-2.45,1.44-.76.6-1.47,1.31-2.11,2.14-.65.83-1.25,1.7-1.82,2.63l-3.38,10.12c-.09.27-.24.49-.45.65-.21.17-.45.23-.72.2l-3.15-.31c-.48-.06-.81-.25-.99-.56-.18-.32-.2-.7-.04-1.15l4.59-14.17Z"/>
          <path class="cls-1" d="M66.01,19.93c.9-2.64,2.1-4.93,3.6-6.86,1.5-1.94,3.14-3.53,4.93-4.79,1.78-1.26,3.63-2.2,5.54-2.81,1.9-.61,3.7-.92,5.38-.92,1.35,0,2.29.17,2.81.5.52.33.79.74.79,1.21s-.14.92-.43,1.33c-.29.41-.64.76-1.06,1.06-.42.3-.87.53-1.35.7-.48.17-.93.25-1.35.25-.63,0-1.21-.14-1.75-.41-.54-.27-1.04-.58-1.51-.92-.46-.34-.9-.65-1.3-.92-.41-.27-.77-.41-1.1-.41-.72,0-1.36.21-1.91.63-.56.42-1.08,1.04-1.58,1.87-.5.83-.98,1.86-1.46,3.11s-1,2.69-1.58,4.34l-5.98,17.05h.18c.42-.78.92-1.7,1.49-2.77.57-1.06,1.21-2.16,1.93-3.29.72-1.12,1.49-2.23,2.32-3.33.83-1.09,1.69-2.08,2.59-2.95s1.81-1.57,2.75-2.09c.93-.52,1.87-.79,2.83-.79.69,0,1.35.11,1.98.31.63.21,1.19.54,1.67.99s.86,1.03,1.12,1.73c.27.71.41,1.55.41,2.54,0,2.19-.43,4.3-1.28,6.34-.86,2.04-2.03,3.84-3.51,5.4-1.49,1.56-3.23,2.81-5.22,3.76-2,.95-4.12,1.42-6.37,1.42-.87,0-1.76-.08-2.68-.25s-1.79-.4-2.61-.72c-.83-.31-1.59-.7-2.3-1.17-.71-.46-1.3-.98-1.78-1.55l5.81-17.59ZM65.83,37.84c1.26,1.41,2.64,2.12,4.14,2.12.96,0,1.87-.25,2.75-.77.87-.51,1.69-1.18,2.45-2s1.46-1.78,2.07-2.86c.61-1.08,1.15-2.18,1.6-3.31.45-1.12.79-2.23,1.04-3.31s.36-2.05.36-2.92c0-1.14-.2-2.04-.61-2.7-.41-.66-1-.99-1.78-.99-.63,0-1.4.44-2.32,1.3-.92.87-1.9,2.04-2.95,3.51s-2.13,3.17-3.24,5.08c-1.11,1.92-2.16,3.95-3.15,6.08l-.36.76Z"/>
          <path class="cls-1" d="M86.94,34.15c0-1.74.32-3.53.97-5.38.65-1.85,1.54-3.53,2.7-5.06,1.15-1.53,2.53-2.78,4.12-3.76,1.59-.97,3.33-1.46,5.22-1.46,2.25,0,3.99.62,5.22,1.85,1.23,1.23,1.84,2.97,1.84,5.22,0,1.77-.31,3.58-.94,5.42-.63,1.84-1.52,3.53-2.68,5.04-1.16,1.51-2.53,2.75-4.12,3.71-1.59.96-3.35,1.44-5.27,1.44-2.22,0-3.95-.61-5.2-1.82-1.25-1.22-1.87-2.95-1.87-5.2ZM92.65,35.77c0,1.41.18,2.51.54,3.29.36.78.88,1.17,1.58,1.17.99,0,1.88-.57,2.68-1.71.79-1.14,1.48-2.55,2.05-4.23.57-1.68,1.01-3.47,1.33-5.38.32-1.9.47-3.62.47-5.15,0-1.35-.17-2.43-.5-3.24-.33-.81-.79-1.21-1.39-1.21-.66,0-1.29.26-1.89.79-.6.53-1.15,1.23-1.64,2.12-.49.89-.94,1.9-1.35,3.04-.41,1.14-.74,2.33-1.01,3.56-.27,1.23-.48,2.45-.63,3.64-.15,1.2-.22,2.31-.22,3.33Z"/>
          <path class="cls-1" d="M113.35,19.98c.9-2.64,2.11-4.93,3.62-6.86,1.51-1.94,3.16-3.54,4.95-4.82,1.79-1.27,3.63-2.22,5.54-2.83,1.91-.61,3.7-.92,5.38-.92,1.35,0,2.29.17,2.81.5.52.33.79.75.79,1.26,0,.45-.12.88-.36,1.28-.24.41-.56.76-.95,1.06-.39.3-.84.53-1.35.7-.51.17-1.02.25-1.53.25-.63,0-1.21-.14-1.75-.41-.54-.27-1.04-.58-1.51-.92-.47-.34-.9-.65-1.3-.92-.41-.27-.77-.41-1.1-.41-.72,0-1.37.21-1.94.63-.57.42-1.1,1.04-1.6,1.87-.49.83-.98,1.86-1.46,3.11-.48,1.25-.99,2.69-1.53,4.34l-4.77,14.49c-.84,2.49-1.26,4.26-1.26,5.31,0,.99.36,1.48,1.08,1.48.36,0,.74-.14,1.12-.43s.79-.68,1.21-1.17c.42-.5.87-1.06,1.35-1.71.48-.65.99-1.31,1.53-2,.15-.15.31-.16.47-.02s.2.26.11.38c-.72,1.08-1.43,2.11-2.12,3.08-.69.98-1.4,1.82-2.12,2.54-.72.72-1.48,1.3-2.27,1.73s-1.64.65-2.54.65c-1.14,0-2-.38-2.57-1.12-.57-.75-.86-1.8-.86-3.15,0-1.59.39-3.54,1.17-5.85l3.73-11.12Z"/>
          <path class="cls-1" d="M133.83,29.92c0-3,.57-5.79,1.71-8.37,1.14-2.58,2.69-4.82,4.66-6.73,1.96-1.91,4.27-3.4,6.91-4.5,2.64-1.09,5.46-1.64,8.46-1.64.6,0,1.3.03,2.12.09.81.06,1.63.13,2.47.23.84.09,1.65.2,2.43.34s1.44.28,1.98.43c.6.18,1.09.42,1.49.72.39.3.58.67.58,1.12s-.14.87-.43,1.26c-.29.39-.63.74-1.04,1.04-.41.3-.85.53-1.33.7-.48.17-.92.25-1.31.25-.66,0-1.25-.26-1.78-.79s-1.06-1.09-1.6-1.71-1.13-1.19-1.78-1.71c-.65-.53-1.42-.79-2.32-.79-1.53,0-2.96.31-4.28.92s-2.51,1.45-3.58,2.5c-1.07,1.05-2.01,2.26-2.83,3.62s-1.52,2.8-2.07,4.3c-.55,1.5-.97,3.02-1.26,4.54-.29,1.53-.43,2.97-.43,4.32,0,1.47.19,2.78.56,3.94.38,1.16.9,2.12,1.58,2.88.67.77,1.46,1.35,2.36,1.75.9.41,1.88.61,2.93.61,1.44,0,2.77-.31,3.98-.94,1.21-.63,2.27-1.67,3.17-3.11l1.21-3.78c.45-1.32.68-2.43.68-3.33,0-.69-.16-1.22-.47-1.58-.32-.36-.86-.55-1.64-.58-1.02-.06-2.06-.12-3.11-.18-1.05-.06-2.08-.09-3.1-.09-.12,0-.2-.04-.25-.13s-.07-.18-.07-.27c0-.15.04-.28.13-.4.09-.12.21-.21.36-.27,2.13,0,4.3-.03,6.5-.09,2.21-.06,4.21-.12,6.03-.18,1.82-.06,3.33-.12,4.54-.18,1.22-.06,1.91-.09,2.09-.09.48,0,.72.2.72.58,0,.21-.09.47-.27.77s-.41.58-.7.85c-.29.27-.62.5-1.01.7-.39.2-.79.29-1.21.29-.51,0-1.02-.02-1.53-.07-.51-.04-1.05-.1-1.62-.16-.24.36-.51.92-.81,1.69-.3.76-.62,1.67-.95,2.72l-4.68,14.58c-.09.3-.3.52-.63.65-.33.13-.71.2-1.12.2-.3,0-.6-.04-.9-.11-.3-.08-.56-.18-.79-.32-.23-.13-.38-.27-.47-.41-.09-.13-.13-.28-.13-.43,0-.09.01-.18.04-.27l2.88-8.77h-.13c-.45.72-1,1.37-1.64,1.96-.65.58-1.36,1.07-2.14,1.46-.78.39-1.61.69-2.5.9-.88.21-1.78.32-2.68.32-1.89,0-3.59-.27-5.08-.81-1.5-.54-2.76-1.3-3.78-2.29-1.02-.99-1.8-2.17-2.34-3.55s-.81-2.91-.81-4.59Z"/>
          <path class="cls-1" d="M170.86,24.84c.27-.87.41-1.54.41-2.03,0-.63-.2-1.06-.61-1.28-.41-.23-1.04-.35-1.91-.38-.15,0-.21-.09-.18-.27.09-.24.24-.38.45-.41,1.8-.21,3.35-.45,4.66-.72,1.31-.27,2.65-.62,4.03-1.04.12-.06.28-.09.49-.09.27,0,.36.15.27.45l-4.41,13.59c-.63,1.92-.95,3.41-.95,4.46,0,.72.14,1.23.41,1.53.27.3.63.45,1.08.45.6,0,1.27-.44,2-1.33.73-.88,1.5-2.03,2.29-3.44.79-1.41,1.6-2.99,2.43-4.73.83-1.74,1.61-3.45,2.36-5.13l.41-1.39c.21-.63.35-1.19.43-1.69.07-.5.18-.92.31-1.28.13-.36.35-.65.65-.88.3-.23.77-.4,1.4-.52.03,0,.19,0,.47-.02.28-.01.59-.02.92-.02s.64,0,.92-.02c.29-.01.44-.02.47-.02.09,0,.22,0,.38.02.17.02.34.04.52.09.18.04.33.1.45.16.12.06.17.12.13.18l-4.23,13.09c-.27.87-.51,1.7-.72,2.47-.21.78-.32,1.46-.32,2.03,0,.45.08.81.25,1.08.16.27.44.4.83.4.36,0,.73-.15,1.1-.45.38-.3.77-.7,1.19-1.19.42-.5.87-1.07,1.35-1.71.48-.64,1-1.3,1.58-1.96.15-.15.27-.22.36-.22.15,0,.25.08.29.25.05.17.04.28-.02.34-.72,1.08-1.43,2.11-2.14,3.08-.71.98-1.42,1.82-2.14,2.54-.72.72-1.48,1.3-2.27,1.73-.8.43-1.64.65-2.54.65-1.17,0-2.01-.29-2.52-.86-.51-.57-.77-1.39-.77-2.47,0-1.65.53-3.92,1.58-6.79l1.8-5.04h-.13c-.63,1.53-1.33,3.18-2.09,4.95-.76,1.77-1.61,3.41-2.54,4.9-.93,1.5-1.94,2.75-3.04,3.74-1.1.99-2.27,1.49-3.53,1.49-.57,0-1.15-.08-1.73-.23s-1.11-.4-1.58-.76-.84-.84-1.12-1.44c-.29-.6-.43-1.35-.43-2.25,0-.51.05-1.07.16-1.69.1-.61.28-1.31.52-2.09l2.56-7.83Z"/>
          <path class="cls-1" d="M192.82,35.5c0-1.95.38-3.92,1.15-5.92.77-1.99,1.82-3.8,3.17-5.42,1.35-1.62,2.94-2.95,4.77-3.98,1.83-1.03,3.81-1.55,5.94-1.55,1.35,0,2.42.2,3.22.58.79.39,1.45.97,1.96,1.75h.09c.3-.24.66-.53,1.08-.88.42-.34.81-.68,1.17-1.01.33-.27.72-.41,1.17-.41h.5c.33,0,.5.12.5.36,0,.06-.02.15-.04.27l-4.18,12.87c-.66,1.98-1.01,3.24-1.04,3.78-.03.54-.04.84-.04.9,0,.87.39,1.3,1.17,1.3.36,0,.73-.15,1.12-.45.39-.3.8-.7,1.24-1.19.43-.5.88-1.07,1.35-1.71.46-.64.97-1.3,1.51-1.96.06-.06.12-.09.18-.09.09,0,.2.04.32.13.12.09.18.17.18.22,0,.03-.02.06-.04.09-.72,1.08-1.42,2.11-2.12,3.08-.69.98-1.4,1.83-2.14,2.57-.74.74-1.5,1.31-2.29,1.73-.8.42-1.64.63-2.54.63-1.74,0-2.61-1.04-2.61-3.11,0-1.26.32-2.89.95-4.9l1.75-4.73h-.09c-1.95,4.11-3.83,7.24-5.65,9.38-1.82,2.15-3.67,3.22-5.56,3.22s-3.31-.43-4.43-1.31c-1.12-.87-1.69-2.29-1.69-4.27ZM198.36,36.63c0,1.05.21,1.77.63,2.16s.92.58,1.49.58c1.26,0,2.74-1.15,4.43-3.44,1.69-2.29,3.43-5.51,5.2-9.65l.67-2.16c.12-.6.18-1.12.18-1.57,0-.6-.14-1.2-.43-1.8-.29-.6-.97-.9-2.05-.9-.93,0-1.83.3-2.7.9-.87.6-1.68,1.39-2.43,2.36-.75.97-1.43,2.07-2.05,3.29-.62,1.21-1.14,2.45-1.57,3.69-.44,1.25-.77,2.45-1.01,3.6-.24,1.16-.36,2.14-.36,2.95Z"/>
          <path class="cls-1" d="M222.97,24.71c-.15-1.65-.38-2.78-.7-3.38-.32-.6-.83-.9-1.55-.9h-.23l-.58.09h-.27c-.18,0-.27-.1-.27-.31,0-.18.18-.32.54-.41.96-.24,1.9-.46,2.81-.65s1.69-.29,2.32-.29c1.2,0,2.08.45,2.65,1.35.57.9.86,2.54.86,4.9v.58c0,1.2-.08,2.43-.25,3.69s-.25,2.5-.25,3.73c0,.96,0,1.88.02,2.75.01.87.11,1.62.29,2.25h.09c.72-.99,1.44-2.09,2.16-3.31.72-1.21,1.37-2.47,1.96-3.78.58-1.31,1.06-2.63,1.42-3.98.36-1.35.54-2.66.54-3.92,0-.93-.09-1.73-.27-2.41-.18-.67-.27-1.1-.27-1.28s.1-.32.29-.43c.19-.1.43-.19.72-.27.29-.07.58-.13.9-.16.31-.03.58-.04.79-.04.69,0,1.24.09,1.67.27.42.18.63.45.63.81,0,.42-.13,1.04-.41,1.87-.27.83-.65,1.78-1.12,2.86s-1.03,2.26-1.67,3.53c-.63,1.28-1.32,2.56-2.07,3.85-.75,1.29-1.52,2.57-2.32,3.85-.8,1.28-1.6,2.45-2.41,3.53-1.32,1.8-2.68,3.5-4.09,5.08s-2.85,2.98-4.32,4.16c-1.47,1.18-2.96,2.12-4.46,2.81-1.5.69-2.99,1.03-4.46,1.03-1.05,0-1.8-.24-2.25-.72-.45-.48-.67-1.02-.67-1.62,0-.63.27-1.24.81-1.82s1.28-.88,2.21-.88c.54,0,.98.12,1.33.36s.65.5.9.79.5.55.72.79c.23.24.5.36.83.36.45,0,1.06-.2,1.82-.61.76-.4,1.62-.98,2.56-1.73.95-.75,1.95-1.63,3.02-2.65,1.06-1.02,2.12-2.15,3.17-3.38-.69-.03-1.24-.36-1.64-.99-.41-.63-.71-1.42-.92-2.38-.21-.96-.35-2.03-.43-3.22-.08-1.18-.11-2.38-.11-3.58s0-2.13.02-2.79c.01-.66.02-1.09.02-1.31,0-.81-.03-1.51-.09-2.11Z"/>
          <path class="cls-1" d="M237.87,35.5c0-1.95.38-3.92,1.15-5.92.76-1.99,1.82-3.8,3.17-5.42,1.35-1.62,2.94-2.95,4.77-3.98,1.83-1.03,3.81-1.55,5.94-1.55,1.35,0,2.42.2,3.22.58s1.45.97,1.96,1.75h.09c.3-.24.66-.53,1.08-.88.42-.34.81-.68,1.17-1.01.33-.27.72-.41,1.17-.41h.5c.33,0,.49.12.49.36,0,.06-.01.15-.04.27l-4.18,12.87c-.66,1.98-1.01,3.24-1.04,3.78-.03.54-.04.84-.04.9,0,.87.39,1.3,1.17,1.3.36,0,.73-.15,1.12-.45.39-.3.8-.7,1.24-1.19.43-.5.88-1.07,1.35-1.71.46-.64.97-1.3,1.51-1.96.06-.06.12-.09.18-.09.09,0,.19.04.31.13s.18.17.18.22c0,.03-.02.06-.05.09-.72,1.08-1.42,2.11-2.11,3.08-.69.98-1.4,1.83-2.14,2.57-.74.74-1.5,1.31-2.29,1.73-.8.42-1.64.63-2.54.63-1.74,0-2.61-1.04-2.61-3.11,0-1.26.31-2.89.94-4.9l1.75-4.73h-.09c-1.95,4.11-3.83,7.24-5.65,9.38-1.82,2.15-3.67,3.22-5.56,3.22s-3.31-.43-4.43-1.31c-1.12-.87-1.69-2.29-1.69-4.27ZM243.4,36.63c0,1.05.21,1.77.63,2.16s.92.58,1.49.58c1.26,0,2.74-1.15,4.43-3.44,1.69-2.29,3.43-5.51,5.2-9.65l.67-2.16c.12-.6.18-1.12.18-1.57,0-.6-.14-1.2-.43-1.8-.29-.6-.97-.9-2.05-.9-.93,0-1.83.3-2.7.9-.87.6-1.68,1.39-2.43,2.36s-1.43,2.07-2.05,3.29c-.62,1.21-1.14,2.45-1.58,3.69-.44,1.25-.77,2.45-1.01,3.6-.24,1.16-.36,2.14-.36,2.95Z"/>
          <path class="cls-1" d="M264.19,33.97c0-2.01.39-3.94,1.17-5.8.78-1.86,1.84-3.5,3.17-4.93s2.9-2.57,4.7-3.42c1.8-.86,3.73-1.28,5.8-1.28s3.37.31,4.16.92c.79.62,1.19,1.28,1.19,2,0,.6-.2,1.13-.61,1.6-.41.46-.92.7-1.55.7-.39,0-.69-.1-.9-.32-.21-.21-.37-.47-.47-.79-.11-.32-.2-.66-.27-1.04-.08-.38-.19-.72-.34-1.04-.15-.31-.35-.58-.61-.79s-.62-.32-1.1-.32c-1.29,0-2.46.47-3.51,1.42-1.05.94-1.93,2.13-2.66,3.55-.72,1.43-1.28,2.98-1.67,4.66-.39,1.68-.58,3.27-.58,4.77,0,3.51,1.12,5.26,3.38,5.26,1.2,0,2.4-.33,3.6-.99,1.2-.66,2.43-1.72,3.69-3.19.12-.12.27-.18.45-.18s.27.08.27.23c0,.12-.03.22-.09.31-.69.9-1.39,1.71-2.11,2.43-.72.72-1.49,1.33-2.32,1.84-.83.51-1.72.9-2.68,1.17-.96.27-2.03.41-3.2.41-.96,0-1.86-.16-2.7-.47s-1.58-.77-2.21-1.37c-.63-.6-1.12-1.35-1.48-2.25-.36-.9-.54-1.94-.54-3.11Z"/>
          <path class="cls-1" d="M284.26,35.5c0-1.95.38-3.92,1.15-5.92.76-1.99,1.82-3.8,3.17-5.42,1.35-1.62,2.94-2.95,4.77-3.98,1.83-1.03,3.81-1.55,5.94-1.55,1.35,0,2.42.2,3.22.58s1.45.97,1.96,1.75h.09c.3-.24.66-.53,1.08-.88.42-.34.81-.68,1.17-1.01.33-.27.72-.41,1.17-.41h.5c.33,0,.49.12.49.36,0,.06-.01.15-.04.27l-4.18,12.87c-.66,1.98-1.01,3.24-1.04,3.78-.03.54-.04.84-.04.9,0,.87.39,1.3,1.17,1.3.36,0,.73-.15,1.12-.45.39-.3.8-.7,1.24-1.19.43-.5.88-1.07,1.35-1.71.46-.64.97-1.3,1.51-1.96.06-.06.12-.09.18-.09.09,0,.19.04.31.13s.18.17.18.22c0,.03-.02.06-.05.09-.72,1.08-1.42,2.11-2.11,3.08-.69.98-1.4,1.83-2.14,2.57-.74.74-1.5,1.31-2.29,1.73-.8.42-1.64.63-2.54.63-1.74,0-2.61-1.04-2.61-3.11,0-1.26.31-2.89.94-4.9l1.75-4.73h-.09c-1.95,4.11-3.83,7.24-5.65,9.38-1.82,2.15-3.67,3.22-5.56,3.22s-3.31-.43-4.43-1.31c-1.12-.87-1.69-2.29-1.69-4.27ZM289.8,36.63c0,1.05.21,1.77.63,2.16s.92.58,1.49.58c1.26,0,2.74-1.15,4.43-3.44,1.69-2.29,3.43-5.51,5.2-9.65l.67-2.16c.12-.6.18-1.12.18-1.57,0-.6-.14-1.2-.43-1.8-.29-.6-.97-.9-2.05-.9-.93,0-1.83.3-2.7.9-.87.6-1.68,1.39-2.43,2.36s-1.43,2.07-2.05,3.29c-.62,1.21-1.14,2.45-1.58,3.69-.44,1.25-.77,2.45-1.01,3.6-.24,1.16-.36,2.14-.36,2.95ZM306,9.67c.33-.42.7-.74,1.1-.95.41-.21.8-.31,1.19-.31.57,0,.95.08,1.15.22.2.15.29.34.29.58,0,.3-.17.65-.5,1.06-.33.41-.76.83-1.28,1.28-.53.45-1.1.9-1.73,1.35-.63.45-1.25.87-1.85,1.26-.6.39-1.14.74-1.62,1.04s-.84.51-1.08.63c-.15.09-.31.16-.49.2-.18.04-.35.07-.5.07-.3,0-.45-.09-.45-.27,0-.12.09-.24.27-.36.63-.57,1.19-1.09,1.69-1.55.5-.46.96-.91,1.4-1.35s.84-.88,1.21-1.35.77-.98,1.19-1.55Z"/>
          <path class="cls-1" d="M315.99,24.84c.09-.33.16-.63.22-.9.06-.27.09-.52.09-.76,0-.6-.2-1.06-.58-1.4-.39-.33-1.06-.5-2.02-.5-.12,0-.18-.07-.18-.22,0-.27.15-.43.45-.5,1.8-.21,3.38-.45,4.75-.72,1.36-.27,2.74-.61,4.12-1.04.18-.06.34-.09.5-.09.3,0,.41.15.31.45l-4.32,12.73h.13c.81-1.56,1.6-3.13,2.36-4.7.77-1.58,1.55-3,2.36-4.28.81-1.27,1.68-2.32,2.61-3.13.93-.81,2-1.21,3.2-1.21.57,0,1.1.06,1.6.18.49.12.93.32,1.3.61.38.29.67.69.88,1.21.21.53.32,1.19.32,2,0,.6-.08,1.32-.22,2.16-.15.84-.39,1.79-.72,2.83l-1.48,4.59c-.3.87-.55,1.7-.74,2.5-.2.8-.29,1.48-.29,2.05,0,.96.34,1.44,1.04,1.44.36,0,.73-.15,1.12-.45.39-.3.79-.7,1.21-1.19.42-.5.86-1.07,1.33-1.71.46-.64.98-1.3,1.55-1.96.15-.15.27-.22.36-.22.15,0,.25.08.29.25.04.17.04.28-.02.34-.72,1.08-1.43,2.11-2.14,3.08-.71.98-1.42,1.82-2.14,2.54s-1.48,1.3-2.27,1.73-1.64.65-2.54.65c-1.26,0-2.17-.32-2.72-.95-.56-.63-.83-1.58-.83-2.83,0-.78.12-1.7.36-2.77.24-1.06.57-2.26.99-3.58l1.17-3.38c.45-1.38.79-2.5,1.01-3.38.22-.87.34-1.56.34-2.07s-.11-.85-.31-1.04c-.21-.18-.48-.27-.81-.27-.36,0-.79.27-1.3.81-.51.54-1.06,1.25-1.64,2.14-.58.89-1.19,1.9-1.82,3.04-.63,1.14-1.25,2.32-1.84,3.53-.6,1.21-1.19,2.42-1.75,3.62-.57,1.2-1.08,2.29-1.53,3.29l-.9,2.75c-.09.27-.24.49-.45.65-.21.17-.45.23-.72.2l-3.24-.31c-.42-.06-.73-.25-.92-.56-.2-.32-.22-.7-.07-1.15l4.59-14.13Z"/>
          <path class="cls-1" d="M353.74,13.81c1.29-.66,2.74-1.3,4.34-1.91s3.24-1.15,4.91-1.62c1.67-.46,3.31-.84,4.93-1.12s3.09-.43,4.41-.43c1.41,0,2.83.11,4.27.34,1.44.22,2.75.6,3.92,1.12,1.17.53,2.12,1.2,2.86,2.02.74.83,1.1,1.84,1.1,3.04,0,1.47-.53,2.74-1.58,3.8-1.05,1.07-2.32,1.96-3.8,2.68-1.49.72-3.02,1.28-4.61,1.69-1.59.41-2.94.7-4.05.88l-.04.09c1.89.24,3.42.79,4.59,1.64,1.17.85,2.12,1.86,2.83,3.01.72,1.16,1.29,2.37,1.71,3.65s.83,2.45,1.24,3.51c.4,1.07.86,1.95,1.37,2.66.51.71,1.23,1.06,2.16,1.06.57,0,1.17-.11,1.8-.32.12-.06.22-.07.29-.02.07.04.08.13.02.25v.04c0,.24-.12.41-.36.5-.81.24-1.58.43-2.29.56-.72.14-1.65.2-2.79.2-1.89,0-3.38-.39-4.46-1.17-1.08-.78-1.94-1.76-2.59-2.95-.65-1.18-1.15-2.47-1.51-3.87-.36-1.4-.75-2.69-1.17-3.89-.42-1.2-.98-2.22-1.67-3.06-.69-.84-1.67-1.3-2.92-1.39-.27-.06-.41-.2-.41-.41,0-.45.24-.67.72-.67,1.14-.06,2.35-.26,3.62-.61,1.27-.34,2.47-.85,3.58-1.51,1.11-.66,2.02-1.49,2.75-2.47.72-.99,1.08-2.16,1.08-3.51,0-.78-.17-1.45-.5-2.02-.33-.57-.77-1.06-1.33-1.46-.55-.41-1.18-.74-1.89-1.01-.71-.27-1.45-.48-2.23-.63l.04.18c-.96.66-1.84,1.56-2.63,2.7-.8,1.14-1.45,2.6-1.96,4.37-.81,2.82-1.63,5.38-2.45,7.67-.83,2.29-1.7,4.3-2.63,6.03-.93,1.73-1.94,3.14-3.04,4.25-1.1,1.11-2.32,1.89-3.67,2.34.9.18,1.8.27,2.7.27s1.87-.04,2.83-.14c.96-.09,1.84-.15,2.66-.18.69,0,1.03.24,1.03.72,0,.27-.11.55-.31.83-.21.29-.47.55-.79.79-.32.24-.68.44-1.08.61-.41.17-.82.25-1.24.25-1.65,0-3.34-.05-5.08-.16-1.74-.11-3.53-.16-5.35-.16-.9,0-1.81.02-2.72.07s-1.84.13-2.77.25c-.18.03-.31-.07-.41-.29-.09-.22-.13-.5-.13-.83,0-.54.1-1.05.29-1.53.19-.48.44-.72.74-.72.6.03,1.35.14,2.25.34.9.2,1.8.29,2.7.29,1.05,0,2.02-.22,2.9-.65.88-.43,1.54-1.27,1.96-2.5.66-2.01,1.24-3.94,1.73-5.78.5-1.84,1.01-3.6,1.55-5.26s1.14-3.22,1.8-4.68c.66-1.45,1.48-2.77,2.45-3.94.97-1.17,2.14-2.19,3.51-3.06s3.02-1.56,4.97-2.07c-.6-.12-1.19-.2-1.75-.25-.57-.04-1.11-.07-1.62-.07-1.26,0-2.46.2-3.6.61-1.14.4-2.22.92-3.24,1.53-1.02.62-1.97,1.29-2.83,2.03-.87.74-1.65,1.43-2.34,2.09-.69.66-1.28,1.22-1.78,1.69s-.88.76-1.15.88c-.45,0-.77-.17-.97-.52-.2-.34-.29-.76-.29-1.24,0-.69.14-1.39.43-2.09.28-.71.61-1.15.97-1.33Z"/>
          <path class="cls-1" d="M386.73,34.15c0-1.74.32-3.53.97-5.38.64-1.85,1.54-3.53,2.7-5.06,1.15-1.53,2.53-2.78,4.12-3.76,1.59-.97,3.33-1.46,5.22-1.46,2.25,0,3.99.62,5.22,1.85,1.23,1.23,1.84,2.97,1.84,5.22,0,1.77-.32,3.58-.95,5.42-.63,1.84-1.52,3.53-2.68,5.04-1.16,1.51-2.53,2.75-4.12,3.71-1.59.96-3.34,1.44-5.26,1.44-2.22,0-3.95-.61-5.2-1.82-1.25-1.22-1.87-2.95-1.87-5.2ZM392.44,35.77c0,1.41.18,2.51.54,3.29.36.78.88,1.17,1.58,1.17.99,0,1.88-.57,2.68-1.71.79-1.14,1.48-2.55,2.05-4.23.57-1.68,1.01-3.47,1.33-5.38.32-1.9.47-3.62.47-5.15,0-1.35-.17-2.43-.5-3.24-.33-.81-.79-1.21-1.39-1.21-.66,0-1.29.26-1.89.79-.6.53-1.15,1.23-1.64,2.12-.5.89-.94,1.9-1.35,3.04-.41,1.14-.74,2.33-1.01,3.56-.27,1.23-.48,2.45-.63,3.64-.15,1.2-.22,2.31-.22,3.33Z"/>
          <path class="cls-1" d="M411.03,26.68c0-1.38.33-2.58.99-3.6s1.51-1.87,2.54-2.54,2.18-1.18,3.44-1.51c1.26-.33,2.47-.49,3.65-.49,1.71,0,3.04.2,4,.61.96.4,1.44,1.09,1.44,2.05,0,.72-.2,1.26-.61,1.62-.41.36-.83.54-1.28.54-.54,0-.98-.27-1.3-.81-.06-1.02-.37-1.73-.92-2.14-.56-.41-1.25-.61-2.09-.61-.57,0-1.11.09-1.62.27-.51.18-.97.44-1.37.77s-.73.74-.97,1.21c-.24.48-.36,1.02-.36,1.62,0,.45.12.86.36,1.24s.55.72.92,1.04c.38.31.79.6,1.24.85.45.26.88.52,1.3.79.45.3.9.61,1.35.92.45.32.86.67,1.24,1.06.38.39.67.83.9,1.3.23.48.34,1.04.34,1.67,0,1.5-.37,2.8-1.1,3.89-.74,1.1-1.68,2-2.83,2.7-1.16.71-2.42,1.22-3.8,1.55s-2.7.5-3.96.5c-1.77,0-3.16-.22-4.16-.65-1.01-.43-1.51-1.16-1.51-2.18,0-.36.08-.75.23-1.17.15-.42.36-.8.63-1.15.27-.34.58-.63.92-.86.34-.22.71-.34,1.1-.34.48,0,.65.21.5.63s-.31.76-.47,1.01c-.17.26-.25.64-.25,1.15,0,.45.1.82.31,1.1.21.29.48.52.81.7.33.18.69.31,1.08.38.39.08.78.11,1.17.11.69,0,1.36-.11,2-.32.65-.21,1.22-.52,1.71-.92.49-.4.89-.9,1.19-1.48.3-.58.45-1.24.45-1.96,0-.48-.11-.91-.34-1.28-.23-.38-.51-.71-.86-1.01-.34-.3-.73-.58-1.15-.83s-.84-.52-1.26-.79c-.45-.27-.88-.55-1.3-.85-.42-.3-.8-.64-1.15-1.01-.35-.38-.62-.79-.83-1.24s-.31-.96-.31-1.53Z"/>
          <path class="cls-1" d="M427.36,35.5c0-1.95.38-3.92,1.15-5.92.76-1.99,1.82-3.8,3.17-5.42,1.35-1.62,2.94-2.95,4.77-3.98,1.83-1.03,3.81-1.55,5.94-1.55,1.35,0,2.42.2,3.22.58s1.45.97,1.96,1.75h.09c.3-.24.66-.53,1.08-.88.42-.34.81-.68,1.17-1.01.33-.27.72-.41,1.17-.41h.5c.33,0,.49.12.49.36,0,.06-.01.15-.04.27l-4.18,12.87c-.66,1.98-1.01,3.24-1.04,3.78-.03.54-.04.84-.04.9,0,.87.39,1.3,1.17,1.3.36,0,.73-.15,1.12-.45.39-.3.8-.7,1.24-1.19.43-.5.88-1.07,1.35-1.71.46-.64.97-1.3,1.51-1.96.06-.06.12-.09.18-.09.09,0,.19.04.31.13s.18.17.18.22c0,.03-.02.06-.05.09-.72,1.08-1.42,2.11-2.11,3.08-.69.98-1.4,1.83-2.14,2.57-.74.74-1.5,1.31-2.29,1.73-.8.42-1.64.63-2.54.63-1.74,0-2.61-1.04-2.61-3.11,0-1.26.31-2.89.94-4.9l1.75-4.73h-.09c-1.95,4.11-3.83,7.24-5.65,9.38-1.82,2.15-3.67,3.22-5.56,3.22s-3.31-.43-4.43-1.31c-1.12-.87-1.69-2.29-1.69-4.27ZM432.9,36.63c0,1.05.21,1.77.63,2.16s.92.58,1.49.58c1.26,0,2.74-1.15,4.43-3.44,1.69-2.29,3.43-5.51,5.2-9.65l.67-2.16c.12-.6.18-1.12.18-1.57,0-.6-.14-1.2-.43-1.8-.29-.6-.97-.9-2.05-.9-.93,0-1.83.3-2.7.9-.87.6-1.68,1.39-2.43,2.36s-1.43,2.07-2.05,3.29c-.62,1.21-1.14,2.45-1.58,3.69-.44,1.25-.77,2.45-1.01,3.6-.24,1.16-.36,2.14-.36,2.95Z"/>
        </g>
      </g>
    </g>
  </g>
</svg>