<?xml version="1.0" encoding="UTF-8"?>
<svg id="Capa_2" data-name="Capa 2" xmlns="http://www.w3.org/2000/svg" viewBox="0 0 531.67 52.2">
  <defs>
    <style>
      .cls-1 {
        fill: #f2e9ce;
      }
    </style>
  </defs>
  <g id="Slide_4" data-name="Slide 4">
    <g id="AC">
      <g id="A8_Árbol_Guayacán_Amarillo" data-name="A8 Árbol Guayacán Amarillo">
        <g>
          <path class="cls-1" d="M27.27,14.17c-.24-1.41-.9-2.34-1.98-2.79-1.08-.45-2.59-.68-4.54-.68h-1.08c-.21,0-.31-.07-.31-.22,0-.03.01-.07.04-.13.09-.24.25-.36.5-.36,1.08-.12,2.32-.31,3.71-.58,1.4-.27,2.74-.4,4.03-.4.72,0,1.41.06,2.07.18s1.25.34,1.75.65.92.73,1.24,1.26c.31.53.49,1.18.52,1.96l.81,20.84c.06,2.16.39,3.75.99,4.77.6,1.02,1.41,1.53,2.43,1.53.27,0,.66-.07,1.17-.22.18,0,.27.06.27.18,0,.06-.02.13-.05.22-.06.09-.12.16-.18.2-.06.04-.17.1-.31.16-.78.45-1.59.81-2.43,1.08-.84.27-1.65.4-2.43.4s-1.57-.16-2.27-.47c-.71-.31-1.33-.83-1.87-1.55-.54-.72-.98-1.66-1.31-2.81-.33-1.15-.5-2.57-.5-4.25l-.04-3.2h-7.42c-1.32,2.46-2.61,4.51-3.87,6.14s-2.54,2.93-3.83,3.87c-1.29.94-2.63,1.61-4.03,2-1.39.39-2.9.58-4.52.58-1.38,0-2.36-.25-2.95-.76-.58-.51-.88-1.1-.88-1.76,0-.72.28-1.32.83-1.8.55-.48,1.19-.72,1.91-.72s1.35.08,1.89.25c.54.16,1.04.34,1.51.52.46.18.92.35,1.35.52.43.16.91.25,1.42.25.87,0,1.73-.19,2.59-.56.85-.38,1.72-1.01,2.61-1.91s1.82-2.08,2.81-3.53c.99-1.45,2.05-3.26,3.2-5.42l7.16-13.41ZM27.5,28.84l-.09-12.78h-.09l-6.66,12.73,6.84.04ZM34.29,1.26c.33-.42.7-.74,1.1-.95.41-.21.82-.31,1.24-.31.63,0,1.09.1,1.39.29.3.2.45.46.45.79,0,.57-.36,1.18-1.08,1.84s-1.56,1.29-2.52,1.89-1.91,1.14-2.86,1.62c-.94.48-1.63.81-2.05.99-.15.06-.32.13-.5.2-.18.07-.35.11-.5.11-.27,0-.41-.09-.41-.27,0-.15.09-.29.27-.4.66-.57,1.24-1.08,1.73-1.53.5-.45.94-.9,1.35-1.35.41-.45.79-.91,1.17-1.37s.77-.98,1.19-1.55Z"/>
          <path class="cls-1" d="M45.95,24.79c.3-.81.45-1.47.45-1.98,0-.6-.23-1.01-.7-1.24s-1.13-.35-2-.38c-.21,0-.29-.09-.23-.27.09-.21.24-.34.45-.4,1.8-.21,3.34-.45,4.63-.72s2.62-.61,4-1.04c.18-.06.34-.09.5-.09.3,0,.41.15.32.45l-3.02,9.49h.18c.45-.84,1.01-1.84,1.69-2.99s1.44-2.27,2.29-3.33c.85-1.06,1.82-1.96,2.9-2.7,1.08-.73,2.25-1.1,3.51-1.1.72,0,1.25.16,1.58.47s.5.7.5,1.15c0,.36-.09.72-.27,1.08-.18.36-.43.7-.74,1.01-.31.31-.71.57-1.17.76-.47.2-.98.29-1.55.29-.99,0-1.92.18-2.79.54-.87.36-1.69.84-2.45,1.44s-1.47,1.31-2.12,2.14c-.65.83-1.25,1.7-1.82,2.63l-3.38,10.12c-.09.27-.24.49-.45.65-.21.17-.45.23-.72.2l-3.15-.31c-.48-.06-.81-.25-.99-.56-.18-.32-.2-.7-.05-1.15l4.59-14.17Z"/>
          <path class="cls-1" d="M66.01,19.93c.9-2.64,2.1-4.93,3.6-6.86,1.5-1.94,3.14-3.53,4.93-4.79s3.63-2.2,5.54-2.81,3.7-.92,5.38-.92c1.35,0,2.29.16,2.81.49.52.33.79.74.79,1.21s-.14.92-.43,1.33c-.29.4-.64.76-1.06,1.06-.42.3-.87.53-1.35.7-.48.17-.93.25-1.35.25-.63,0-1.21-.13-1.75-.4-.54-.27-1.04-.58-1.51-.92-.47-.34-.9-.65-1.3-.92-.41-.27-.77-.4-1.1-.4-.72,0-1.36.21-1.91.63-.56.42-1.08,1.04-1.58,1.87-.49.83-.98,1.86-1.46,3.11-.48,1.25-1.01,2.69-1.58,4.34l-5.99,17.05h.18c.42-.78.91-1.7,1.48-2.77s1.21-2.16,1.94-3.29c.72-1.12,1.49-2.23,2.32-3.33.82-1.1,1.69-2.08,2.59-2.95.9-.87,1.82-1.57,2.75-2.09.93-.52,1.88-.79,2.83-.79.69,0,1.35.11,1.98.31.63.21,1.18.54,1.67.99.48.45.85,1.03,1.12,1.73.27.71.41,1.55.41,2.54,0,2.19-.43,4.3-1.28,6.35-.85,2.04-2.02,3.84-3.51,5.4-1.49,1.56-3.23,2.81-5.22,3.76-2,.95-4.12,1.42-6.37,1.42-.87,0-1.76-.08-2.68-.25-.92-.16-1.79-.4-2.61-.72s-1.59-.71-2.29-1.17c-.71-.46-1.3-.98-1.78-1.55l5.8-17.6ZM65.83,37.84c1.26,1.41,2.64,2.12,4.14,2.12.96,0,1.88-.25,2.75-.77.87-.51,1.69-1.18,2.45-2,.77-.82,1.46-1.78,2.07-2.86.61-1.08,1.15-2.18,1.6-3.31s.79-2.23,1.04-3.31c.24-1.08.36-2.05.36-2.92,0-1.14-.2-2.04-.61-2.7-.4-.66-1-.99-1.78-.99-.63,0-1.4.44-2.32,1.3-.92.87-1.9,2.04-2.95,3.51-1.05,1.47-2.13,3.16-3.24,5.08-1.11,1.92-2.16,3.95-3.15,6.08l-.36.76Z"/>
          <path class="cls-1" d="M86.94,34.15c0-1.74.32-3.53.97-5.38.64-1.85,1.54-3.53,2.7-5.06,1.15-1.53,2.53-2.78,4.12-3.76,1.59-.97,3.33-1.46,5.22-1.46,2.25,0,3.99.62,5.22,1.85,1.23,1.23,1.84,2.97,1.84,5.22,0,1.77-.32,3.58-.95,5.42-.63,1.84-1.52,3.53-2.68,5.04-1.16,1.52-2.53,2.75-4.12,3.71-1.59.96-3.35,1.44-5.26,1.44-2.22,0-3.95-.61-5.2-1.82s-1.87-2.95-1.87-5.2ZM92.65,35.77c0,1.41.18,2.51.54,3.29.36.78.88,1.17,1.58,1.17.99,0,1.88-.57,2.68-1.71.79-1.14,1.48-2.55,2.05-4.23.57-1.68,1.01-3.47,1.33-5.38.31-1.9.47-3.62.47-5.15,0-1.35-.17-2.43-.5-3.24-.33-.81-.8-1.21-1.4-1.21-.66,0-1.29.26-1.89.79-.6.53-1.15,1.23-1.64,2.12s-.95,1.9-1.35,3.04c-.41,1.14-.74,2.33-1.01,3.55-.27,1.23-.48,2.45-.63,3.64-.15,1.2-.23,2.31-.23,3.33Z"/>
          <path class="cls-1" d="M113.35,19.98c.9-2.64,2.11-4.93,3.62-6.86,1.51-1.94,3.17-3.54,4.95-4.82,1.78-1.27,3.63-2.22,5.54-2.83,1.9-.62,3.7-.92,5.38-.92,1.35,0,2.29.16,2.81.49.52.33.79.75.79,1.26,0,.45-.12.88-.36,1.28-.24.4-.56.76-.95,1.06-.39.3-.84.53-1.35.7-.51.17-1.02.25-1.53.25-.63,0-1.21-.13-1.75-.4-.54-.27-1.04-.58-1.51-.92-.46-.34-.9-.65-1.3-.92s-.77-.4-1.1-.4c-.72,0-1.37.21-1.93.63-.57.42-1.1,1.04-1.6,1.87-.5.83-.98,1.86-1.46,3.11-.48,1.25-.99,2.69-1.53,4.34l-4.77,14.49c-.84,2.49-1.26,4.26-1.26,5.31,0,.99.36,1.48,1.08,1.48.36,0,.73-.14,1.12-.43.39-.29.79-.68,1.21-1.17.42-.5.87-1.06,1.35-1.71.48-.64.99-1.31,1.53-2,.15-.15.31-.16.47-.02.16.13.2.26.11.38-.72,1.08-1.42,2.11-2.12,3.08-.69.98-1.39,1.82-2.11,2.54-.72.72-1.48,1.3-2.27,1.73-.8.44-1.64.65-2.54.65-1.14,0-2-.38-2.57-1.12-.57-.75-.85-1.8-.85-3.15,0-1.59.39-3.54,1.17-5.85l3.74-11.12Z"/>
          <path class="cls-1" d="M133.83,29.92c0-3,.57-5.79,1.71-8.37,1.14-2.58,2.69-4.82,4.66-6.73,1.96-1.9,4.27-3.4,6.91-4.5,2.64-1.09,5.46-1.64,8.46-1.64.6,0,1.31.03,2.12.09.81.06,1.63.13,2.48.23.84.09,1.65.2,2.43.34.78.13,1.44.28,1.98.43.6.18,1.09.42,1.49.72.39.3.58.67.58,1.12s-.14.87-.43,1.26c-.29.39-.63.74-1.04,1.04-.4.3-.85.53-1.33.7-.48.17-.92.25-1.3.25-.66,0-1.25-.26-1.78-.79-.53-.53-1.06-1.1-1.6-1.71s-1.13-1.19-1.78-1.71c-.65-.53-1.42-.79-2.32-.79-1.53,0-2.96.31-4.27.92-1.32.62-2.51,1.45-3.58,2.5-1.07,1.05-2.01,2.26-2.84,3.62s-1.51,2.8-2.07,4.3c-.56,1.5-.98,3.02-1.26,4.54-.29,1.53-.43,2.97-.43,4.32,0,1.47.19,2.78.56,3.94.38,1.16.9,2.12,1.58,2.88.67.77,1.46,1.35,2.36,1.75.9.41,1.87.61,2.92.61,1.44,0,2.77-.31,3.98-.94,1.21-.63,2.27-1.67,3.17-3.11l1.21-3.78c.45-1.32.67-2.43.67-3.33,0-.69-.16-1.22-.47-1.58-.31-.36-.86-.55-1.64-.58-1.02-.06-2.05-.12-3.1-.18-1.05-.06-2.09-.09-3.11-.09-.12,0-.2-.04-.25-.13s-.07-.18-.07-.27c0-.15.04-.29.13-.4.09-.12.21-.21.36-.27,2.13,0,4.3-.03,6.5-.09,2.21-.06,4.21-.12,6.03-.18,1.81-.06,3.33-.12,4.54-.18s1.91-.09,2.09-.09c.48,0,.72.2.72.58,0,.21-.09.47-.27.77-.18.3-.41.59-.7.86s-.62.5-1.01.7-.79.29-1.21.29c-.51,0-1.02-.02-1.53-.07-.51-.04-1.05-.1-1.62-.16-.24.36-.51.92-.81,1.69-.3.76-.62,1.67-.94,2.72l-4.68,14.58c-.09.3-.3.52-.63.65-.33.13-.71.2-1.12.2-.3,0-.6-.04-.9-.11-.3-.08-.56-.18-.79-.32-.22-.13-.38-.27-.47-.4s-.13-.28-.13-.43c0-.09.01-.18.04-.27l2.88-8.78h-.13c-.45.72-1,1.37-1.64,1.96-.65.59-1.36,1.07-2.14,1.46-.78.39-1.61.69-2.5.9-.89.21-1.78.31-2.68.31-1.89,0-3.58-.27-5.08-.81-1.5-.54-2.76-1.3-3.78-2.29-1.02-.99-1.8-2.17-2.34-3.55-.54-1.38-.81-2.91-.81-4.59Z"/>
          <path class="cls-1" d="M170.86,24.84c.27-.87.41-1.54.41-2.03,0-.63-.2-1.06-.61-1.28-.4-.22-1.04-.35-1.91-.38-.15,0-.21-.09-.18-.27.09-.24.24-.38.45-.4,1.8-.21,3.35-.45,4.66-.72s2.65-.62,4.03-1.04c.12-.06.29-.09.5-.09.27,0,.36.15.27.45l-4.41,13.59c-.63,1.92-.95,3.4-.95,4.46,0,.72.13,1.23.41,1.53.27.3.63.45,1.08.45.6,0,1.27-.44,2-1.33.73-.88,1.5-2.03,2.29-3.44s1.6-2.98,2.43-4.72,1.61-3.45,2.36-5.13l.4-1.39c.21-.63.35-1.19.43-1.69.07-.49.18-.92.32-1.28.13-.36.35-.65.65-.88.3-.22.76-.4,1.39-.52.03,0,.19,0,.47-.02s.59-.02.92-.02.64,0,.92-.02.44-.02.47-.02c.09,0,.22,0,.38.02.16.02.34.04.52.09s.33.1.45.16c.12.06.16.12.13.18l-4.23,13.09c-.27.87-.51,1.7-.72,2.47-.21.78-.31,1.46-.31,2.03,0,.45.08.81.25,1.08.16.27.44.4.83.4.36,0,.73-.15,1.1-.45.38-.3.77-.7,1.19-1.19.42-.5.87-1.07,1.35-1.71.48-.64,1-1.3,1.58-1.96.15-.15.27-.22.36-.22.15,0,.25.08.29.25.04.17.04.28-.02.34-.72,1.08-1.43,2.11-2.14,3.08-.71.98-1.42,1.82-2.14,2.54-.72.72-1.48,1.3-2.27,1.73-.79.44-1.64.65-2.54.65-1.17,0-2.01-.29-2.52-.86-.51-.57-.76-1.39-.76-2.47,0-1.65.52-3.91,1.58-6.79l1.8-5.04h-.13c-.63,1.53-1.33,3.18-2.09,4.95-.76,1.77-1.61,3.41-2.54,4.9-.93,1.5-1.94,2.75-3.04,3.74-1.1.99-2.27,1.48-3.53,1.48-.57,0-1.15-.07-1.73-.22s-1.11-.4-1.58-.77c-.47-.36-.84-.84-1.12-1.44-.29-.6-.43-1.35-.43-2.25,0-.51.05-1.07.16-1.69s.28-1.31.52-2.09l2.57-7.83Z"/>
          <path class="cls-1" d="M192.82,35.5c0-1.95.38-3.92,1.15-5.92.76-1.99,1.82-3.8,3.17-5.42,1.35-1.62,2.94-2.95,4.77-3.98,1.83-1.04,3.81-1.55,5.94-1.55,1.35,0,2.42.2,3.22.59.79.39,1.45.97,1.96,1.75h.09c.3-.24.66-.53,1.08-.88.42-.34.81-.68,1.17-1.01.33-.27.72-.41,1.17-.41h.5c.33,0,.5.12.5.36,0,.06-.02.15-.04.27l-4.19,12.87c-.66,1.98-1,3.24-1.04,3.78-.03.54-.04.84-.04.9,0,.87.39,1.3,1.17,1.3.36,0,.74-.15,1.12-.45.39-.3.8-.7,1.24-1.19.43-.5.88-1.07,1.35-1.71.46-.64.97-1.3,1.51-1.96.06-.06.12-.09.18-.09.09,0,.19.04.31.13s.18.16.18.22c0,.03-.02.06-.04.09-.72,1.08-1.43,2.11-2.12,3.08-.69.98-1.4,1.83-2.14,2.57-.74.73-1.5,1.31-2.29,1.73s-1.64.63-2.54.63c-1.74,0-2.61-1.04-2.61-3.11,0-1.26.31-2.89.95-4.9l1.75-4.72h-.09c-1.95,4.11-3.83,7.24-5.65,9.38s-3.67,3.22-5.56,3.22-3.31-.43-4.43-1.3c-1.12-.87-1.69-2.29-1.69-4.28ZM198.36,36.63c0,1.05.21,1.77.63,2.16.42.39.91.59,1.48.59,1.26,0,2.74-1.15,4.43-3.44,1.69-2.29,3.43-5.51,5.2-9.65l.68-2.16c.12-.6.18-1.12.18-1.57,0-.6-.14-1.2-.43-1.8s-.97-.9-2.05-.9c-.93,0-1.83.3-2.7.9-.87.6-1.68,1.39-2.43,2.36s-1.43,2.07-2.05,3.29c-.62,1.21-1.14,2.45-1.58,3.69-.44,1.24-.77,2.45-1.01,3.6s-.36,2.14-.36,2.95Z"/>
          <path class="cls-1" d="M222.97,24.71c-.15-1.65-.38-2.78-.7-3.38-.31-.6-.83-.9-1.55-.9h-.22l-.58.09h-.27c-.18,0-.27-.11-.27-.31,0-.18.18-.32.54-.41.96-.24,1.9-.46,2.81-.65.92-.2,1.69-.29,2.32-.29,1.2,0,2.08.45,2.66,1.35.57.9.85,2.54.85,4.9v.58c0,1.2-.08,2.43-.25,3.69-.17,1.26-.25,2.5-.25,3.73,0,.96,0,1.88.02,2.74.02.87.11,1.62.29,2.25h.09c.72-.99,1.44-2.09,2.16-3.31s1.37-2.47,1.96-3.78c.58-1.31,1.06-2.63,1.42-3.98.36-1.35.54-2.66.54-3.92,0-.93-.09-1.73-.27-2.41-.18-.67-.27-1.1-.27-1.28s.1-.32.29-.43.43-.2.72-.27c.28-.07.58-.13.9-.16.32-.03.58-.04.79-.04.69,0,1.24.09,1.67.27.42.18.63.45.63.81,0,.42-.13,1.04-.41,1.87-.27.83-.65,1.78-1.12,2.86-.48,1.08-1.04,2.26-1.67,3.53s-1.32,2.56-2.07,3.85-1.52,2.57-2.32,3.85-1.6,2.45-2.41,3.53c-1.32,1.8-2.69,3.5-4.09,5.09-1.41,1.59-2.85,2.98-4.32,4.16s-2.96,2.12-4.46,2.81-2.99,1.04-4.46,1.04c-1.05,0-1.8-.24-2.25-.72s-.67-1.02-.67-1.62c0-.63.27-1.24.81-1.82.54-.59,1.28-.88,2.2-.88.54,0,.98.12,1.33.36s.64.5.9.79.5.55.72.79c.22.24.5.36.83.36.45,0,1.06-.2,1.82-.61.77-.4,1.62-.98,2.57-1.73s1.95-1.63,3.01-2.65,2.12-2.14,3.17-3.38c-.69-.03-1.24-.36-1.64-.99-.41-.63-.71-1.42-.92-2.38-.21-.96-.35-2.03-.43-3.22-.08-1.19-.11-2.38-.11-3.58s0-2.13.02-2.79c.02-.66.02-1.1.02-1.31,0-.81-.03-1.51-.09-2.11Z"/>
          <path class="cls-1" d="M237.87,35.5c0-1.95.38-3.92,1.15-5.92.77-1.99,1.82-3.8,3.17-5.42s2.94-2.95,4.77-3.98,3.81-1.55,5.94-1.55c1.35,0,2.42.2,3.22.59.79.39,1.45.97,1.96,1.75h.09c.3-.24.66-.53,1.08-.88.42-.34.81-.68,1.17-1.01.33-.27.72-.41,1.17-.41h.5c.33,0,.5.12.5.36,0,.06-.02.15-.04.27l-4.18,12.87c-.66,1.98-1.01,3.24-1.04,3.78-.03.54-.04.84-.04.9,0,.87.39,1.3,1.17,1.3.36,0,.73-.15,1.12-.45.39-.3.8-.7,1.24-1.19.43-.5.88-1.07,1.35-1.71s.97-1.3,1.51-1.96c.06-.06.12-.09.18-.09.09,0,.2.04.32.13.12.09.18.16.18.22,0,.03-.02.06-.04.09-.72,1.08-1.42,2.11-2.12,3.08-.69.98-1.4,1.83-2.14,2.57-.74.73-1.5,1.31-2.29,1.73-.8.42-1.64.63-2.54.63-1.74,0-2.61-1.04-2.61-3.11,0-1.26.32-2.89.95-4.9l1.75-4.72h-.09c-1.95,4.11-3.83,7.24-5.65,9.38-1.82,2.14-3.67,3.22-5.56,3.22s-3.31-.43-4.43-1.3c-1.12-.87-1.69-2.29-1.69-4.28ZM243.4,36.63c0,1.05.21,1.77.63,2.16.42.39.92.59,1.49.59,1.26,0,2.74-1.15,4.43-3.44,1.69-2.29,3.43-5.51,5.2-9.65l.67-2.16c.12-.6.18-1.12.18-1.57,0-.6-.14-1.2-.43-1.8-.29-.6-.97-.9-2.05-.9-.93,0-1.83.3-2.7.9s-1.68,1.39-2.43,2.36c-.75.97-1.43,2.07-2.05,3.29-.62,1.21-1.14,2.45-1.57,3.69-.44,1.24-.77,2.45-1.01,3.6-.24,1.15-.36,2.14-.36,2.95Z"/>
          <path class="cls-1" d="M264.19,33.97c0-2.01.39-3.95,1.17-5.8.78-1.86,1.84-3.5,3.17-4.93,1.33-1.43,2.9-2.57,4.7-3.42,1.8-.86,3.73-1.28,5.8-1.28s3.37.31,4.16.92c.79.62,1.19,1.28,1.19,2,0,.6-.2,1.13-.61,1.6-.41.46-.92.7-1.55.7-.39,0-.69-.11-.9-.32-.21-.21-.37-.47-.47-.79s-.2-.66-.27-1.04c-.08-.38-.19-.72-.34-1.04-.15-.31-.35-.58-.61-.79-.25-.21-.62-.31-1.1-.31-1.29,0-2.46.47-3.51,1.42-1.05.94-1.93,2.13-2.66,3.55-.72,1.43-1.28,2.98-1.67,4.66-.39,1.68-.58,3.27-.58,4.77,0,3.51,1.12,5.26,3.38,5.26,1.2,0,2.4-.33,3.6-.99,1.2-.66,2.43-1.72,3.69-3.19.12-.12.27-.18.45-.18s.27.08.27.23c0,.12-.03.22-.09.31-.69.9-1.39,1.71-2.11,2.43-.72.72-1.49,1.34-2.32,1.85s-1.72.9-2.68,1.17c-.96.27-2.03.4-3.2.4-.96,0-1.86-.16-2.7-.47-.84-.31-1.57-.77-2.2-1.37-.63-.6-1.12-1.35-1.49-2.25-.36-.9-.54-1.94-.54-3.11Z"/>
          <path class="cls-1" d="M284.26,35.5c0-1.95.38-3.92,1.15-5.92.76-1.99,1.82-3.8,3.17-5.42,1.35-1.62,2.94-2.95,4.77-3.98,1.83-1.04,3.81-1.55,5.94-1.55,1.35,0,2.42.2,3.22.59.79.39,1.45.97,1.96,1.75h.09c.3-.24.66-.53,1.08-.88.42-.34.81-.68,1.17-1.01.33-.27.72-.41,1.17-.41h.5c.33,0,.49.12.49.36,0,.06-.01.15-.04.27l-4.18,12.87c-.66,1.98-1.01,3.24-1.04,3.78-.03.54-.04.84-.04.9,0,.87.39,1.3,1.17,1.3.36,0,.73-.15,1.12-.45.39-.3.8-.7,1.24-1.19.43-.5.88-1.07,1.35-1.71.46-.64.97-1.3,1.51-1.96.06-.06.12-.09.18-.09.09,0,.19.04.31.13s.18.16.18.22c0,.03-.02.06-.05.09-.72,1.08-1.42,2.11-2.11,3.08-.69.98-1.4,1.83-2.14,2.57-.74.73-1.5,1.31-2.29,1.73-.8.42-1.64.63-2.54.63-1.74,0-2.61-1.04-2.61-3.11,0-1.26.31-2.89.94-4.9l1.75-4.72h-.09c-1.95,4.11-3.83,7.24-5.65,9.38s-3.67,3.22-5.56,3.22-3.31-.43-4.43-1.3c-1.12-.87-1.69-2.29-1.69-4.28ZM289.8,36.63c0,1.05.21,1.77.63,2.16.42.39.92.59,1.49.59,1.26,0,2.74-1.15,4.43-3.44,1.69-2.29,3.43-5.51,5.2-9.65l.67-2.16c.12-.6.18-1.12.18-1.57,0-.6-.14-1.2-.43-1.8s-.97-.9-2.05-.9c-.93,0-1.83.3-2.7.9-.87.6-1.68,1.39-2.43,2.36s-1.43,2.07-2.05,3.29c-.62,1.21-1.14,2.45-1.58,3.69-.44,1.24-.77,2.45-1.01,3.6-.24,1.15-.36,2.14-.36,2.95ZM306,9.67c.33-.42.7-.73,1.1-.95.41-.21.8-.31,1.19-.31.57,0,.95.08,1.15.22.2.15.29.35.29.59,0,.3-.17.65-.5,1.06-.33.41-.76.83-1.28,1.28-.53.45-1.1.9-1.73,1.35-.63.45-1.25.87-1.85,1.26-.6.39-1.14.74-1.62,1.04-.48.3-.84.51-1.08.63-.15.09-.31.16-.49.2-.18.04-.35.07-.5.07-.3,0-.45-.09-.45-.27,0-.12.09-.24.27-.36.63-.57,1.19-1.09,1.69-1.55.5-.46.96-.91,1.4-1.35.43-.43.84-.88,1.21-1.35s.77-.98,1.19-1.55Z"/>
          <path class="cls-1" d="M315.99,24.84c.09-.33.16-.63.22-.9.06-.27.09-.53.09-.77,0-.6-.2-1.06-.58-1.39s-1.06-.5-2.02-.5c-.12,0-.18-.07-.18-.22,0-.27.15-.43.45-.49,1.8-.21,3.38-.45,4.75-.72,1.36-.27,2.74-.61,4.12-1.04.18-.06.34-.09.5-.09.3,0,.41.15.31.45l-4.32,12.73h.13c.81-1.56,1.6-3.13,2.36-4.7.77-1.57,1.55-3,2.36-4.28.81-1.27,1.68-2.32,2.61-3.13.93-.81,2-1.21,3.2-1.21.57,0,1.1.06,1.6.18.49.12.93.32,1.3.61.38.29.67.69.88,1.21.21.53.32,1.19.32,2,0,.6-.08,1.32-.22,2.16-.15.84-.39,1.79-.72,2.83l-1.48,4.59c-.3.87-.55,1.7-.74,2.5s-.29,1.48-.29,2.05c0,.96.34,1.44,1.04,1.44.36,0,.73-.15,1.12-.45.39-.3.79-.7,1.21-1.19.42-.5.86-1.07,1.33-1.71s.98-1.3,1.55-1.96c.15-.15.27-.22.36-.22.15,0,.25.08.29.25.04.17.04.28-.02.34-.72,1.08-1.43,2.11-2.14,3.08-.71.98-1.42,1.82-2.14,2.54-.72.72-1.48,1.3-2.27,1.73-.79.44-1.64.65-2.54.65-1.26,0-2.17-.31-2.72-.95-.56-.63-.83-1.57-.83-2.83,0-.78.12-1.7.36-2.77s.57-2.26.99-3.58l1.17-3.38c.45-1.38.79-2.5,1.01-3.38.22-.87.34-1.56.34-2.07s-.11-.85-.31-1.04c-.21-.18-.48-.27-.81-.27-.36,0-.79.27-1.3.81-.51.54-1.06,1.25-1.64,2.14-.58.89-1.19,1.9-1.82,3.04-.63,1.14-1.25,2.32-1.84,3.53-.6,1.21-1.19,2.42-1.75,3.62-.57,1.2-1.08,2.29-1.53,3.29l-.9,2.74c-.09.27-.24.49-.45.65-.21.17-.45.23-.72.2l-3.24-.31c-.42-.06-.73-.25-.92-.56-.2-.32-.22-.7-.07-1.15l4.59-14.13Z"/>
          <path class="cls-1" d="M372.06,14.17c-.24-1.41-.9-2.34-1.98-2.79-1.08-.45-2.6-.68-4.54-.68h-1.08c-.21,0-.32-.07-.32-.22,0-.03.01-.07.04-.13.09-.24.25-.36.5-.36,1.08-.12,2.32-.31,3.71-.58,1.39-.27,2.74-.4,4.03-.4.72,0,1.41.06,2.07.18s1.25.34,1.76.65c.51.31.92.73,1.24,1.26.31.53.49,1.18.52,1.96l.81,20.84c.06,2.16.39,3.75.99,4.77.6,1.02,1.41,1.53,2.43,1.53.27,0,.66-.07,1.17-.22.18,0,.27.06.27.18,0,.06-.02.13-.04.22-.06.09-.12.16-.18.2s-.17.1-.31.16c-.78.45-1.59.81-2.43,1.08-.84.27-1.65.4-2.43.4s-1.57-.16-2.27-.47-1.33-.83-1.87-1.55c-.54-.72-.98-1.66-1.31-2.81-.33-1.15-.49-2.57-.49-4.25l-.04-3.2h-7.43c-1.32,2.46-2.61,4.51-3.87,6.14-1.26,1.63-2.54,2.93-3.82,3.87-1.29.94-2.63,1.61-4.03,2-1.39.39-2.9.58-4.52.58-1.38,0-2.36-.25-2.95-.76-.58-.51-.88-1.1-.88-1.76,0-.72.28-1.32.83-1.8.55-.48,1.19-.72,1.91-.72s1.35.08,1.89.25c.54.16,1.04.34,1.51.52.46.18.91.35,1.35.52.43.16.91.25,1.42.25.87,0,1.73-.19,2.59-.56.86-.38,1.72-1.01,2.61-1.91.88-.9,1.82-2.08,2.81-3.53.99-1.45,2.05-3.26,3.19-5.42l7.16-13.41ZM372.28,28.84l-.09-12.78h-.09l-6.66,12.73,6.84.04Z"/>
          <path class="cls-1" d="M390.73,24.84c.15-.42.27-.79.36-1.12.09-.33.14-.64.14-.95,0-.51-.22-.88-.65-1.12-.44-.24-1.15-.36-2.14-.36-.15,0-.23-.06-.23-.18.03-.12.09-.24.18-.36.09-.12.19-.18.31-.18,1.77-.24,3.34-.49,4.73-.74,1.38-.26,2.76-.59,4.14-1.01.18-.06.34-.09.5-.09.3,0,.41.15.31.45l-4.32,12.73h.13c.81-1.56,1.58-3.13,2.29-4.7.72-1.57,1.46-3,2.23-4.28.76-1.27,1.6-2.32,2.5-3.13.9-.81,1.95-1.21,3.15-1.21.54,0,1.06.06,1.55.18.5.12.92.33,1.28.63s.65.71.88,1.21c.22.51.34,1.17.34,1.98,0,1.26-.33,2.92-.99,4.99l-1.44,4.32h.18c.81-1.56,1.57-3.13,2.27-4.7.71-1.57,1.44-3,2.21-4.28.77-1.27,1.6-2.32,2.5-3.13.9-.81,1.95-1.21,3.15-1.21.54,0,1.06.06,1.55.18.5.12.92.32,1.28.61.36.29.65.69.88,1.21.22.53.34,1.19.34,2,0,1.26-.33,2.92-.99,4.99l-1.49,4.59c-.3.87-.54,1.7-.72,2.47-.18.78-.27,1.46-.27,2.03,0,.48.07.85.2,1.1.13.25.4.38.79.38.36,0,.73-.15,1.12-.45.39-.3.79-.7,1.21-1.19.42-.5.86-1.07,1.33-1.71.46-.64.98-1.3,1.55-1.96.15-.15.27-.22.36-.22.15,0,.25.08.29.25.04.17.04.28-.02.34-.72,1.08-1.42,2.11-2.11,3.08-.69.98-1.4,1.82-2.14,2.54-.74.72-1.5,1.3-2.29,1.73-.79.44-1.64.65-2.54.65-1.26,0-2.17-.31-2.72-.95-.55-.63-.83-1.57-.83-2.83,0-1.62.45-3.73,1.35-6.35l1.17-3.38c.48-1.38.83-2.5,1.04-3.35.21-.86.32-1.54.32-2.05s-.1-.86-.29-1.06-.46-.29-.79-.29c-.36,0-.79.29-1.28.86s-1.03,1.32-1.6,2.25c-.57.93-1.16,2-1.78,3.2-.62,1.2-1.22,2.43-1.82,3.69-.6,1.26-1.18,2.51-1.73,3.76s-1.06,2.36-1.51,3.35l-.68,2.12c-.21.6-.6.87-1.17.81l-3.06-.31c-.48-.06-.82-.24-1.01-.54-.2-.3-.22-.67-.07-1.12l3.51-11.29c.42-1.41.74-2.55.97-3.42.22-.87.34-1.56.34-2.07,0-.48-.1-.81-.29-.99-.2-.18-.44-.27-.74-.27-.36,0-.79.29-1.28.86-.49.57-1.03,1.33-1.6,2.27-.57.95-1.16,2.02-1.78,3.22s-1.22,2.44-1.82,3.71c-.6,1.28-1.18,2.54-1.73,3.78-.56,1.25-1.06,2.36-1.51,3.35l-.67,2.03c-.21.6-.6.87-1.17.81l-3.15-.31c-.48-.06-.82-.24-1.01-.54-.2-.3-.22-.66-.07-1.08l4.59-14.22Z"/>
          <path class="cls-1" d="M423.76,35.5c0-1.95.38-3.92,1.15-5.92.76-1.99,1.82-3.8,3.17-5.42,1.35-1.62,2.94-2.95,4.77-3.98,1.83-1.04,3.81-1.55,5.94-1.55,1.35,0,2.42.2,3.22.59.79.39,1.45.97,1.96,1.75h.09c.3-.24.66-.53,1.08-.88.42-.34.81-.68,1.17-1.01.33-.27.72-.41,1.17-.41h.5c.33,0,.49.12.49.36,0,.06-.01.15-.04.27l-4.18,12.87c-.66,1.98-1.01,3.24-1.04,3.78-.03.54-.04.84-.04.9,0,.87.39,1.3,1.17,1.3.36,0,.73-.15,1.12-.45.39-.3.8-.7,1.24-1.19.43-.5.88-1.07,1.35-1.71.46-.64.97-1.3,1.51-1.96.06-.06.12-.09.18-.09.09,0,.19.04.31.13s.18.16.18.22c0,.03-.02.06-.05.09-.72,1.08-1.42,2.11-2.11,3.08-.69.98-1.4,1.83-2.14,2.57-.74.73-1.5,1.31-2.29,1.73-.8.42-1.64.63-2.54.63-1.74,0-2.61-1.04-2.61-3.11,0-1.26.31-2.89.94-4.9l1.75-4.72h-.09c-1.95,4.11-3.83,7.24-5.65,9.38s-3.67,3.22-5.56,3.22-3.31-.43-4.43-1.3c-1.12-.87-1.69-2.29-1.69-4.28ZM429.3,36.63c0,1.05.21,1.77.63,2.16.42.39.92.59,1.49.59,1.26,0,2.74-1.15,4.43-3.44,1.69-2.29,3.43-5.51,5.2-9.65l.67-2.16c.12-.6.18-1.12.18-1.57,0-.6-.14-1.2-.43-1.8s-.97-.9-2.05-.9c-.93,0-1.83.3-2.7.9-.87.6-1.68,1.39-2.43,2.36s-1.43,2.07-2.05,3.29c-.62,1.21-1.14,2.45-1.58,3.69-.44,1.24-.77,2.45-1.01,3.6-.24,1.15-.36,2.14-.36,2.95Z"/>
          <path class="cls-1" d="M455.49,24.79c.3-.81.45-1.47.45-1.98,0-.6-.23-1.01-.7-1.24s-1.13-.35-2-.38c-.21,0-.29-.09-.23-.27.09-.21.24-.34.45-.4,1.8-.21,3.34-.45,4.63-.72s2.62-.61,4.01-1.04c.18-.06.34-.09.49-.09.3,0,.41.15.32.45l-3.01,9.49h.18c.45-.84,1.01-1.84,1.69-2.99s1.44-2.27,2.29-3.33c.86-1.06,1.82-1.96,2.9-2.7,1.08-.73,2.25-1.1,3.51-1.1.72,0,1.25.16,1.58.47s.5.7.5,1.15c0,.36-.09.72-.27,1.08s-.43.7-.74,1.01c-.31.31-.71.57-1.17.76-.46.2-.98.29-1.55.29-.99,0-1.92.18-2.79.54-.87.36-1.69.84-2.45,1.44-.76.6-1.47,1.31-2.12,2.14-.65.83-1.25,1.7-1.82,2.63l-3.38,10.12c-.09.27-.24.49-.45.65-.21.17-.45.23-.72.2l-3.15-.31c-.48-.06-.81-.25-.99-.56-.18-.32-.2-.7-.04-1.15l4.59-14.17Z"/>
          <path class="cls-1" d="M475.2,24.75c.21-.63.31-1.19.31-1.67,0-.75-.24-1.26-.72-1.53-.48-.27-1.05-.41-1.71-.41-.18,0-.27-.07-.27-.22,0-.24.15-.39.45-.45.96-.12,1.82-.24,2.59-.36.76-.12,1.5-.25,2.21-.38.7-.14,1.38-.29,2.02-.45.65-.16,1.31-.35,2-.56.12-.06.29-.09.5-.09.27,0,.36.15.27.45l-4.27,13.09c-.24.87-.47,1.7-.67,2.47-.21.78-.32,1.46-.32,2.03,0,.45.08.81.25,1.08s.43.4.79.4.73-.15,1.12-.45c.39-.3.79-.7,1.21-1.19.42-.5.87-1.07,1.35-1.71s.99-1.3,1.53-1.96c.21-.15.33-.22.36-.22.15,0,.25.08.31.25.06.17.06.28,0,.34-.72,1.08-1.43,2.11-2.14,3.08-.71.98-1.42,1.82-2.14,2.54-.72.72-1.48,1.3-2.27,1.73-.8.44-1.64.65-2.54.65-1.26,0-2.17-.31-2.72-.95-.55-.63-.83-1.57-.83-2.83,0-1.56.43-3.68,1.3-6.35l2.03-6.34ZM477.76,13.05c.54-.6,1.04-1.21,1.49-1.84.45-.63.91-1.19,1.37-1.69.46-.5.96-.9,1.49-1.22.52-.31,1.12-.47,1.78-.47.84,0,1.5.21,1.98.63.48.42.72.97.72,1.67s-.24,1.37-.72,1.96c-.48.58-1.07,1.09-1.78,1.51-.71.42-1.46.74-2.27.97-.81.22-1.55.34-2.21.34-.6,0-1.1-.09-1.51-.27-.41-.18-.61-.48-.61-.9,0-.18.09-.41.27-.68Z"/>
          <path class="cls-1" d="M490.14,19.98c.9-2.64,2.11-4.93,3.62-6.86,1.51-1.94,3.17-3.54,4.95-4.82,1.78-1.27,3.63-2.22,5.53-2.83s3.7-.92,5.38-.92c1.35,0,2.29.16,2.81.49.52.33.79.75.79,1.26,0,.45-.12.88-.36,1.28-.24.4-.56.76-.95,1.06-.39.3-.84.53-1.35.7-.51.17-1.02.25-1.53.25-.63,0-1.21-.13-1.75-.4-.54-.27-1.04-.58-1.51-.92-.46-.34-.9-.65-1.3-.92s-.77-.4-1.1-.4c-.72,0-1.37.21-1.94.63-.57.42-1.1,1.04-1.6,1.87-.5.83-.98,1.86-1.46,3.11-.48,1.25-.99,2.69-1.53,4.34l-4.77,14.49c-.84,2.49-1.26,4.26-1.26,5.31,0,.99.36,1.48,1.08,1.48.36,0,.73-.14,1.12-.43.39-.29.79-.68,1.21-1.17.42-.5.87-1.06,1.35-1.71.48-.64.99-1.31,1.53-2,.15-.15.31-.16.47-.02.16.13.2.26.11.38-.72,1.08-1.43,2.11-2.12,3.08-.69.98-1.39,1.82-2.12,2.54-.72.72-1.48,1.3-2.27,1.73-.79.44-1.64.65-2.54.65-1.14,0-2-.38-2.57-1.12-.57-.75-.85-1.8-.85-3.15,0-1.59.39-3.54,1.17-5.85l3.73-11.12Z"/>
          <path class="cls-1" d="M503.41,19.98c.9-2.64,2.11-4.93,3.62-6.86,1.51-1.94,3.17-3.54,4.95-4.82,1.78-1.27,3.63-2.22,5.53-2.83s3.7-.92,5.38-.92c1.35,0,2.29.16,2.81.49.52.33.79.75.79,1.26,0,.45-.12.88-.36,1.28-.24.4-.56.76-.95,1.06-.39.3-.84.53-1.35.7-.51.17-1.02.25-1.53.25-.63,0-1.21-.13-1.75-.4-.54-.27-1.04-.58-1.51-.92-.46-.34-.9-.65-1.3-.92s-.77-.4-1.1-.4c-.72,0-1.37.21-1.94.63-.57.42-1.1,1.04-1.6,1.87-.5.83-.98,1.86-1.46,3.11-.48,1.25-.99,2.69-1.53,4.34l-4.77,14.49c-.84,2.49-1.26,4.26-1.26,5.31,0,.99.36,1.48,1.08,1.48.36,0,.73-.14,1.12-.43.39-.29.79-.68,1.21-1.17.42-.5.87-1.06,1.35-1.71.48-.64.99-1.31,1.53-2,.15-.15.31-.16.47-.02.16.13.2.26.11.38-.72,1.08-1.43,2.11-2.12,3.08-.69.98-1.39,1.82-2.12,2.54-.72.72-1.48,1.3-2.27,1.73-.79.44-1.64.65-2.54.65-1.14,0-2-.38-2.57-1.12-.57-.75-.85-1.8-.85-3.15,0-1.59.39-3.54,1.17-5.85l3.73-11.12Z"/>
          <path class="cls-1" d="M511.6,34.15c0-1.74.32-3.53.97-5.38.64-1.85,1.54-3.53,2.7-5.06,1.15-1.53,2.53-2.78,4.12-3.76s3.33-1.46,5.22-1.46c2.25,0,3.99.62,5.22,1.85,1.23,1.23,1.84,2.97,1.84,5.22,0,1.77-.32,3.58-.95,5.42-.63,1.84-1.52,3.53-2.68,5.04-1.16,1.52-2.53,2.75-4.12,3.71s-3.34,1.44-5.26,1.44c-2.22,0-3.95-.61-5.2-1.82-1.25-1.21-1.87-2.95-1.87-5.2ZM517.32,35.77c0,1.41.18,2.51.54,3.29.36.78.88,1.17,1.58,1.17.99,0,1.88-.57,2.68-1.71s1.48-2.55,2.05-4.23c.57-1.68,1.01-3.47,1.33-5.38s.47-3.62.47-5.15c0-1.35-.17-2.43-.5-3.24s-.79-1.21-1.39-1.21c-.66,0-1.29.26-1.89.79-.6.53-1.15,1.23-1.64,2.12s-.94,1.9-1.35,3.04-.74,2.33-1.01,3.55c-.27,1.23-.48,2.45-.63,3.64-.15,1.2-.22,2.31-.22,3.33Z"/>
        </g>
      </g>
    </g>
  </g>
</svg>