<?xml version="1.0" encoding="UTF-8"?>
<svg id="Capa_2" data-name="Capa 2" xmlns="http://www.w3.org/2000/svg" viewBox="0 0 399.78 56.57">
  <defs>
    <style>
      .cls-1 {
        fill: #fff;
        stroke: #263530;
        stroke-miterlimit: 10;
        stroke-width: 2px;
      }

      .cls-2 {
        fill: #263530;
      }
    </style>
  </defs>
  <g id="Slide_1" data-name="Slide 1">
    <g id="Menú_redondeado" data-name="Menú redondeado">
      <g id="Headline">
        <g id="Plantar_un_memorial_Hover" data-name="Plantar un memorial Hover">
          <rect class="cls-1" x="1" y="1" width="397.78" height="54.57" rx="8.94" ry="8.94"/>
          <g>
            <path class="cls-2" d="M49.82,26.13c0,3.8-2.76,6.1-7.34,6.1h-4.35v5.3h-2.51v-17.5h6.86c4.57,0,7.34,2.3,7.34,6.1ZM47.3,26.13c0-2.5-1.68-3.92-4.9-3.92h-4.27v7.85h4.27c3.22,0,4.9-1.42,4.9-3.92Z"/>
            <path class="cls-2" d="M53.41,18.98h2.41v18.55h-2.41v-18.55Z"/>
            <path class="cls-2" d="M70.97,29.53v8h-2.29v-1.75c-.8,1.2-2.29,1.9-4.37,1.9-3.02,0-4.93-1.6-4.93-3.9,0-2.12,1.38-3.87,5.35-3.87h3.82v-.48c0-2.02-1.18-3.2-3.57-3.2-1.58,0-3.19.55-4.22,1.42l-1-1.8c1.38-1.1,3.37-1.7,5.5-1.7,3.64,0,5.7,1.75,5.7,5.37ZM68.56,33.48v-1.85h-3.72c-2.39,0-3.07.92-3.07,2.05,0,1.32,1.11,2.15,2.94,2.15s3.24-.82,3.85-2.35Z"/>
            <path class="cls-2" d="M88.09,29.91v7.62h-2.41v-7.35c0-2.6-1.31-3.87-3.59-3.87-2.56,0-4.22,1.52-4.22,4.4v6.82h-2.41v-13.25h2.31v2c.98-1.35,2.69-2.12,4.8-2.12,3.24,0,5.53,1.85,5.53,5.75Z"/>
            <path class="cls-2" d="M100.05,36.76c-.73.62-1.83.92-2.92.92-2.69,0-4.22-1.47-4.22-4.15v-7.27h-2.26v-1.97h2.26v-2.9h2.41v2.9h3.82v1.97h-3.82v7.17c0,1.42.75,2.22,2.09,2.22.7,0,1.38-.23,1.88-.62l.75,1.72Z"/>
            <path class="cls-2" d="M113.52,29.53v8h-2.29v-1.75c-.8,1.2-2.29,1.9-4.37,1.9-3.02,0-4.93-1.6-4.93-3.9,0-2.12,1.38-3.87,5.35-3.87h3.82v-.48c0-2.02-1.18-3.2-3.57-3.2-1.58,0-3.19.55-4.22,1.42l-1-1.8c1.38-1.1,3.37-1.7,5.5-1.7,3.64,0,5.7,1.75,5.7,5.37ZM111.11,33.48v-1.85h-3.72c-2.39,0-3.07.92-3.07,2.05,0,1.32,1.11,2.15,2.94,2.15s3.24-.82,3.85-2.35Z"/>
            <path class="cls-2" d="M125.16,24.16v2.32c-.2-.02-.38-.02-.55-.02-2.59,0-4.2,1.57-4.2,4.47v6.6h-2.41v-13.25h2.31v2.22c.85-1.55,2.51-2.35,4.85-2.35Z"/>
            <path class="cls-2" d="M147.47,24.28v13.25h-2.29v-2c-.98,1.37-2.64,2.15-4.52,2.15-3.44,0-5.73-1.87-5.73-5.77v-7.62h2.41v7.35c0,2.6,1.31,3.9,3.59,3.9,2.51,0,4.12-1.55,4.12-4.4v-6.85h2.41Z"/>
            <path class="cls-2" d="M164.71,29.91v7.62h-2.41v-7.35c0-2.6-1.31-3.87-3.59-3.87-2.56,0-4.22,1.52-4.22,4.4v6.82h-2.41v-13.25h2.31v2c.98-1.35,2.69-2.12,4.8-2.12,3.24,0,5.53,1.85,5.53,5.75Z"/>
            <path class="cls-2" d="M186.5,29.53v8h-2.29v-1.75c-.8,1.2-2.29,1.9-4.37,1.9-3.02,0-4.93-1.6-4.93-3.9,0-2.12,1.38-3.87,5.35-3.87h3.82v-.48c0-2.02-1.18-3.2-3.57-3.2-1.58,0-3.19.55-4.22,1.42l-1-1.8c1.38-1.1,3.37-1.7,5.5-1.7,3.64,0,5.7,1.75,5.7,5.37ZM184.09,33.48v-1.85h-3.72c-2.39,0-3.07.92-3.07,2.05,0,1.32,1.11,2.15,2.94,2.15s3.24-.82,3.85-2.35ZM181.35,22.36h-2.26l3.42-3.25h3.07l-4.22,3.25Z"/>
            <path class="cls-2" d="M198.13,24.16v2.32c-.2-.02-.38-.02-.55-.02-2.59,0-4.2,1.57-4.2,4.47v6.6h-2.41v-13.25h2.31v2.22c.85-1.55,2.51-2.35,4.85-2.35Z"/>
            <path class="cls-2" d="M214.9,30.91c0,4.05-2.84,6.77-6.74,6.77-1.96,0-3.67-.75-4.75-2.25v2.1h-2.31v-18.55h2.41v7.3c1.11-1.42,2.76-2.12,4.65-2.12,3.9,0,6.74,2.7,6.74,6.75ZM212.46,30.91c0-2.82-1.94-4.65-4.5-4.65s-4.47,1.82-4.47,4.65,1.93,4.67,4.47,4.67,4.5-1.85,4.5-4.67Z"/>
            <path class="cls-2" d="M217.01,30.91c0-3.95,2.94-6.75,6.94-6.75s6.91,2.8,6.91,6.75-2.92,6.77-6.91,6.77-6.94-2.82-6.94-6.77ZM228.42,30.91c0-2.82-1.91-4.65-4.47-4.65s-4.5,1.82-4.5,4.65,1.94,4.67,4.5,4.67,4.47-1.85,4.47-4.67Z"/>
            <path class="cls-2" d="M234.2,18.98h2.41v18.55h-2.41v-18.55Z"/>
            <path class="cls-2" d="M264.63,37.53l-.03-12.75-6.36,10.62h-1.16l-6.36-10.55v12.67h-2.41v-17.5h2.06l7.34,12.3,7.24-12.3h2.06l.03,17.5h-2.41Z"/>
            <path class="cls-2" d="M283.95,31.71h-10.81c.3,2.32,2.19,3.87,4.83,3.87,1.56,0,2.87-.52,3.85-1.6l1.33,1.55c-1.21,1.4-3.04,2.15-5.25,2.15-4.3,0-7.16-2.82-7.16-6.77s2.84-6.75,6.68-6.75,6.58,2.75,6.58,6.82c0,.2-.03.5-.05.72ZM273.15,29.98h8.54c-.25-2.22-1.94-3.8-4.27-3.8s-4.02,1.55-4.27,3.8Z"/>
            <path class="cls-2" d="M309.46,29.91v7.62h-2.41v-7.35c0-2.6-1.26-3.87-3.44-3.87-2.41,0-4,1.52-4,4.4v6.82h-2.41v-7.35c0-2.6-1.26-3.87-3.44-3.87-2.41,0-4,1.52-4,4.4v6.82h-2.41v-13.25h2.31v1.97c.96-1.35,2.59-2.1,4.6-2.1s3.74.8,4.62,2.45c1-1.5,2.87-2.45,5.13-2.45,3.24,0,5.45,1.85,5.45,5.75Z"/>
            <path class="cls-2" d="M312.75,30.91c0-3.95,2.94-6.75,6.94-6.75s6.91,2.8,6.91,6.75-2.92,6.77-6.91,6.77-6.94-2.82-6.94-6.77ZM324.16,30.91c0-2.82-1.91-4.65-4.47-4.65s-4.5,1.82-4.5,4.65,1.94,4.67,4.5,4.67,4.47-1.85,4.47-4.67Z"/>
            <path class="cls-2" d="M337.1,24.16v2.32c-.2-.02-.38-.02-.55-.02-2.59,0-4.2,1.57-4.2,4.47v6.6h-2.41v-13.25h2.31v2.22c.85-1.55,2.51-2.35,4.85-2.35Z"/>
            <path class="cls-2" d="M339.64,20.18c0-.88.7-1.57,1.63-1.57s1.63.67,1.63,1.52c0,.9-.68,1.6-1.63,1.6s-1.63-.67-1.63-1.55ZM340.07,24.28h2.41v13.25h-2.41v-13.25Z"/>
            <path class="cls-2" d="M357.63,29.53v8h-2.29v-1.75c-.8,1.2-2.29,1.9-4.37,1.9-3.02,0-4.93-1.6-4.93-3.9,0-2.12,1.38-3.87,5.35-3.87h3.82v-.48c0-2.02-1.18-3.2-3.57-3.2-1.58,0-3.19.55-4.22,1.42l-1-1.8c1.38-1.1,3.37-1.7,5.5-1.7,3.64,0,5.7,1.75,5.7,5.37ZM355.22,33.48v-1.85h-3.72c-2.39,0-3.07.92-3.07,2.05,0,1.32,1.11,2.15,2.94,2.15s3.24-.82,3.85-2.35Z"/>
            <path class="cls-2" d="M362.11,18.98h2.41v18.55h-2.41v-18.55Z"/>
          </g>
        </g>
      </g>
    </g>
  </g>
</svg>