<?xml version="1.0" encoding="UTF-8"?>
<svg id="Capa_2" data-name="Capa 2" xmlns="http://www.w3.org/2000/svg" viewBox="0 0 136.26 21.53">
  <defs>
    <style>
      .cls-1 {
        fill: #263530;
      }
    </style>
  </defs>
  <g id="Slide_1" data-name="Slide 1">
    <g id="Menú_redondeado" data-name="Menú redondeado">
      <g id="Headline">
        <g id="Contacto">
          <g>
            <path class="cls-1" d="M0,10.77C0,4.57,4.74,0,11.16,0c3.1,0,5.9,1.03,7.78,3.08l-1.43,1.42c-1.73-1.75-3.86-2.51-6.29-2.51C6.08,2,2.22,5.75,2.22,10.77s3.86,8.77,9,8.77c2.43,0,4.56-.76,6.29-2.54l1.43,1.42c-1.88,2.06-4.68,3.12-7.81,3.12C4.74,21.53,0,16.97,0,10.77Z"/>
            <path class="cls-1" d="M20.97,13.4c0-4.72,3.46-8.07,8.15-8.07s8.12,3.36,8.12,8.07-3.43,8.11-8.12,8.11-8.15-3.39-8.15-8.11ZM35.05,13.4c0-3.72-2.52-6.2-5.93-6.2s-5.96,2.48-5.96,6.2,2.55,6.2,5.96,6.2,5.93-2.48,5.93-6.2Z"/>
            <path class="cls-1" d="M56.35,12.13v9.22h-2.16v-9.01c0-3.36-1.76-5.08-4.8-5.08-3.43,0-5.59,2.12-5.59,5.75v8.35h-2.16V5.44h2.07v2.93c1.15-1.94,3.31-3.05,6.08-3.05,3.89,0,6.57,2.24,6.57,6.8Z"/>
            <path class="cls-1" d="M70.64,20.38c-.85.76-2.13,1.12-3.37,1.12-3.01,0-4.68-1.69-4.68-4.63V7.26h-2.86v-1.81h2.86V1.97h2.16v3.48h4.86v1.81h-4.86v9.5c0,1.88.97,2.9,2.77,2.9.88,0,1.76-.27,2.37-.82l.76,1.54Z"/>
            <path class="cls-1" d="M86.63,11.49v9.86h-2.07v-2.48c-.97,1.63-2.86,2.63-5.5,2.63-3.62,0-5.84-1.88-5.84-4.63,0-2.45,1.58-4.51,6.17-4.51h5.08v-.97c0-2.72-1.55-4.2-4.53-4.2-2.07,0-4.01.73-5.32,1.88l-.97-1.6c1.61-1.36,3.98-2.15,6.5-2.15,4.13,0,6.47,2.06,6.47,6.17ZM84.47,16.57v-2.6h-5.02c-3.1,0-4.1,1.21-4.1,2.84,0,1.85,1.49,2.99,4.04,2.99s4.22-1.15,5.08-3.24Z"/>
            <path class="cls-1" d="M90.94,13.4c0-4.75,3.47-8.07,8.24-8.07,2.71,0,4.98,1.06,6.26,3.15l-1.61,1.09c-1.09-1.6-2.8-2.36-4.65-2.36-3.5,0-6.05,2.48-6.05,6.2s2.55,6.2,6.05,6.2c1.85,0,3.56-.73,4.65-2.33l1.61,1.09c-1.28,2.06-3.56,3.15-6.26,3.15-4.77,0-8.24-3.36-8.24-8.11Z"/>
            <path class="cls-1" d="M118.27,20.38c-.85.76-2.13,1.12-3.37,1.12-3.01,0-4.68-1.69-4.68-4.63V7.26h-2.86v-1.81h2.86V1.97h2.16v3.48h4.86v1.81h-4.86v9.5c0,1.88.97,2.9,2.77,2.9.88,0,1.76-.27,2.37-.82l.76,1.54Z"/>
            <path class="cls-1" d="M120,13.4c0-4.72,3.46-8.07,8.15-8.07s8.12,3.36,8.12,8.07-3.43,8.11-8.12,8.11-8.15-3.39-8.15-8.11ZM134.07,13.4c0-3.72-2.52-6.2-5.93-6.2s-5.96,2.48-5.96,6.2,2.55,6.2,5.96,6.2,5.93-2.48,5.93-6.2Z"/>
          </g>
        </g>
      </g>
    </g>
  </g>
</svg>