<?xml version="1.0" encoding="UTF-8"?>
<svg id="Capa_2" data-name="Capa 2" xmlns="http://www.w3.org/2000/svg" xmlns:xlink="http://www.w3.org/1999/xlink" viewBox="0 0 1576.66 85.63">
  <defs>
    <style>
      .cls-1 {
        filter: url(#drop-shadow-1);
      }

      .cls-2 {
        fill: #fff;
      }
    </style>
    <filter id="drop-shadow-1" x="-30.03" y="-30.06" width="1667" height="176" filterUnits="userSpaceOnUse">
      <feOffset dx="15" dy="15"/>
      <feGaussianBlur result="blur" stdDeviation="15"/>
      <feFlood flood-color="#000" flood-opacity=".74"/>
      <feComposite in2="blur" operator="in"/>
      <feComposite in="SourceGraphic"/>
    </filter>
  </defs>
  <g id="Slide_1" data-name="Slide 1">
    <g class="cls-1">
      <path class="cls-2" d="M40.11,12.2v17.48h-2.92V12.28c0-5.6-3.08-8.2-7.68-8.2-4.84,0-8,2.64-8,8.84v16.76h-2.92V12.28c0-5.6-2.92-8.2-7.56-8.2S2.96,6.72,2.96,12.92v16.76H0V1.68h2.84v4.68C4.4,3.12,7.52,1.44,11.68,1.44c4.4,0,7.64,1.92,9,5.24,1.64-3.48,5-5.24,9.28-5.24,6.28,0,10.16,3.64,10.16,10.76Z"/>
      <path class="cls-2" d="M63.88,24.6l1.6,1.84c-1.88,2.24-4.76,3.44-8.08,3.44-6.56,0-11.08-4.48-11.08-10.72s4.36-10.68,10.4-10.68c5.64,0,9.88,4.12,10.08,10.04l-17.28,3.36c1.04,3.4,4,5.48,7.92,5.48,2.6,0,4.88-.92,6.44-2.76ZM49.08,18.96c0,.32,0,.6.04.88l14.84-2.88c-.6-3.44-3.36-6.04-7.24-6.04-4.48,0-7.64,3.28-7.64,8.04Z"/>
      <path class="cls-2" d="M107.31,17.48v12.2h-2.84v-11.92c0-4.44-2.24-6.72-6.04-6.72-4.32,0-7.04,2.8-7.04,7.6v11.04h-2.84v-11.92c0-4.44-2.24-6.72-6.08-6.72-4.28,0-7.04,2.8-7.04,7.6v11.04h-2.84V8.64h2.72v3.84c1.48-2.52,4.2-4,7.72-4s6.2,1.48,7.48,4.44c1.52-2.72,4.52-4.44,8.32-4.44,5.12,0,8.48,2.96,8.48,9Z"/>
      <path class="cls-2" d="M113,19.16c0-6.24,4.56-10.68,10.72-10.68s10.68,4.44,10.68,10.68-4.52,10.72-10.68,10.72-10.72-4.48-10.72-10.72ZM131.52,19.16c0-4.92-3.32-8.2-7.8-8.2s-7.84,3.28-7.84,8.2,3.36,8.2,7.84,8.2,7.8-3.28,7.8-8.2Z"/>
      <path class="cls-2" d="M150.8,8.48v2.76c-.24,0-.48-.04-.68-.04-4.4,0-7.08,2.8-7.08,7.76v10.72h-2.84V8.64h2.72v4.12c1.32-2.8,4-4.28,7.88-4.28Z"/>
      <path class="cls-2" d="M155.28,2c0-1.08.92-2,2.08-2s2.08.88,2.08,1.96c0,1.16-.88,2.08-2.08,2.08s-2.08-.92-2.08-2.04ZM155.92,8.64h2.84v21.04h-2.84V8.64Z"/>
      <path class="cls-2" d="M185.88,8.64v21.04h-2.72v-4.16c-1.72,2.84-4.64,4.36-8.12,4.36-6,0-10.48-4.36-10.48-10.72s4.48-10.68,10.48-10.68c3.36,0,6.24,1.44,8,4.16v-4h2.84ZM183.08,19.16c0-4.92-3.36-8.2-7.8-8.2s-7.84,3.28-7.84,8.2,3.36,8.2,7.84,8.2,7.8-3.28,7.8-8.2Z"/>
      <path class="cls-2" d="M193.8,23.84V0h2.84v23.6c0,2.48,1.16,3.84,3.52,3.84.76,0,1.48-.16,1.92-.36l.2,2.36c-.8.28-1.72.44-2.56.44-3.84,0-5.92-2.28-5.92-6.04Z"/>
      <path class="cls-2" d="M257.35,12.2v17.48h-2.92V12.28c0-5.6-3.08-8.2-7.68-8.2-4.84,0-8,2.64-8,8.84v16.76h-2.92V12.28c0-5.6-2.92-8.2-7.56-8.2s-8.08,2.64-8.08,8.84v16.76h-2.96V1.68h2.84v4.68c1.56-3.24,4.68-4.92,8.84-4.92,4.4,0,7.64,1.92,9,5.24,1.64-3.48,5-5.24,9.28-5.24,6.28,0,10.16,3.64,10.16,10.76Z"/>
      <path class="cls-2" d="M284.88,8.64v21.04h-2.72v-4.16c-1.72,2.84-4.64,4.36-8.12,4.36-6,0-10.48-4.36-10.48-10.72s4.48-10.68,10.48-10.68c3.36,0,6.24,1.44,8,4.16v-4h2.84ZM282.08,19.16c0-4.92-3.36-8.2-7.8-8.2s-7.84,3.28-7.84,8.2,3.36,8.2,7.84,8.2,7.8-3.28,7.8-8.2Z"/>
      <path class="cls-2" d="M311.99,0v29.67h-2.72v-4.16c-1.72,2.84-4.64,4.36-8.12,4.36-6,0-10.48-4.36-10.48-10.72s4.48-10.68,10.48-10.68c3.36,0,6.24,1.44,8,4.16V0h2.84ZM309.19,19.16c0-4.92-3.36-8.2-7.8-8.2s-7.84,3.28-7.84,8.2,3.36,8.2,7.84,8.2,7.8-3.28,7.8-8.2Z"/>
      <path class="cls-2" d="M335.36,24.6l1.6,1.84c-1.88,2.24-4.76,3.44-8.08,3.44-6.56,0-11.08-4.48-11.08-10.72s4.36-10.68,10.4-10.68c5.64,0,9.88,4.12,10.08,10.04l-17.28,3.36c1.04,3.4,4,5.48,7.92,5.48,2.6,0,4.88-.92,6.44-2.76ZM320.56,18.96c0,.32,0,.6.04.88l14.84-2.88c-.6-3.44-3.36-6.04-7.24-6.04-4.48,0-7.64,3.28-7.64,8.04Z"/>
      <path class="cls-2" d="M354.67,8.48v2.76c-.24,0-.48-.04-.68-.04-4.4,0-7.08,2.8-7.08,7.76v10.72h-2.84V8.64h2.72v4.12c1.32-2.8,4-4.28,7.88-4.28Z"/>
      <path class="cls-2" d="M378.79,8.64v21.04h-2.72v-4.16c-1.72,2.84-4.64,4.36-8.12,4.36-6,0-10.48-4.36-10.48-10.72s4.48-10.68,10.48-10.68c3.36,0,6.24,1.44,8,4.16v-4h2.84ZM375.99,19.16c0-4.92-3.36-8.2-7.8-8.2s-7.84,3.28-7.84,8.2,3.36,8.2,7.84,8.2,7.8-3.28,7.8-8.2Z"/>
      <path class="cls-2" d="M383.8,27.28l1.28-2.24c1.68,1.32,4.52,2.36,7.48,2.36,4,0,5.64-1.36,5.64-3.44,0-5.48-13.64-1.16-13.64-9.48,0-3.44,2.96-6,8.32-6,2.72,0,5.68.76,7.44,1.96l-1.24,2.28c-1.84-1.28-4.04-1.8-6.2-1.8-3.8,0-5.48,1.48-5.48,3.48,0,5.68,13.64,1.4,13.64,9.48,0,3.64-3.2,6-8.68,6-3.48,0-6.84-1.12-8.56-2.6Z"/>
      <path class="cls-2" d="M432.19,24.6l1.6,1.84c-1.88,2.24-4.76,3.44-8.08,3.44-6.56,0-11.08-4.48-11.08-10.72s4.36-10.68,10.4-10.68c5.64,0,9.88,4.12,10.08,10.04l-17.28,3.36c1.04,3.4,4,5.48,7.92,5.48,2.6,0,4.88-.92,6.44-2.76ZM417.4,18.96c0,.32,0,.6.04.88l14.84-2.88c-.6-3.44-3.36-6.04-7.24-6.04-4.48,0-7.64,3.28-7.64,8.04Z"/>
      <path class="cls-2" d="M438,27.28l1.28-2.24c1.68,1.32,4.52,2.36,7.48,2.36,4,0,5.64-1.36,5.64-3.44,0-5.48-13.64-1.16-13.64-9.48,0-3.44,2.96-6,8.32-6,2.72,0,5.68.76,7.44,1.96l-1.24,2.28c-1.84-1.28-4.04-1.8-6.2-1.8-3.8,0-5.48,1.48-5.48,3.48,0,5.68,13.64,1.4,13.64,9.48,0,3.64-3.2,6-8.68,6-3.48,0-6.84-1.12-8.56-2.6Z"/>
      <path class="cls-2" d="M489.91,8.64v21.04h-2.72v-3.84c-1.48,2.56-4.2,4.04-7.56,4.04-5.36,0-8.88-3-8.88-9.04v-12.2h2.84v11.92c0,4.48,2.32,6.76,6.32,6.76,4.4,0,7.16-2.84,7.16-7.64v-11.04h2.84Z"/>
      <path class="cls-2" d="M517.23,17.48v12.2h-2.84v-11.92c0-4.44-2.32-6.72-6.32-6.72-4.52,0-7.36,2.8-7.36,7.6v11.04h-2.84V8.64h2.72v3.88c1.52-2.56,4.36-4.04,8-4.04,5.12,0,8.64,2.96,8.64,9Z"/>
      <path class="cls-2" d="M556.75,19.16c0,6.36-4.48,10.72-10.48,10.72-3.48,0-6.4-1.52-8.12-4.36v4.16h-2.72V0h2.84v12.64c1.76-2.72,4.64-4.16,8-4.16,6,0,10.48,4.32,10.48,10.68ZM553.91,19.16c0-4.92-3.4-8.2-7.84-8.2s-7.84,3.28-7.84,8.2,3.36,8.2,7.84,8.2,7.84-3.28,7.84-8.2Z"/>
      <path class="cls-2" d="M560.43,19.16c0-6.24,4.56-10.68,10.72-10.68s10.68,4.44,10.68,10.68-4.52,10.72-10.68,10.72-10.72-4.48-10.72-10.72ZM578.95,19.16c0-4.92-3.32-8.2-7.8-8.2s-7.84,3.28-7.84,8.2,3.36,8.2,7.84,8.2,7.8-3.28,7.8-8.2Z"/>
      <path class="cls-2" d="M584.71,27.28l1.28-2.24c1.68,1.32,4.52,2.36,7.48,2.36,4,0,5.64-1.36,5.64-3.44,0-5.48-13.64-1.16-13.64-9.48,0-3.44,2.96-6,8.32-6,2.72,0,5.68.76,7.44,1.96l-1.24,2.28c-1.84-1.28-4.04-1.8-6.2-1.8-3.8,0-5.48,1.48-5.48,3.48,0,5.68,13.64,1.4,13.64,9.48,0,3.64-3.2,6-8.68,6-3.48,0-6.84-1.12-8.56-2.6Z"/>
      <path class="cls-2" d="M626.39,8.64v28.79h-2.84v-11.72c-1.76,2.72-4.64,4.16-8,4.16-6,0-10.48-4.32-10.48-10.72s4.48-10.68,10.48-10.68c3.48,0,6.4,1.52,8.12,4.32v-4.16h2.72ZM623.59,19.16c0-4.88-3.36-8.2-7.8-8.2s-7.84,3.32-7.84,8.2,3.36,8.2,7.84,8.2,7.8-3.28,7.8-8.2Z"/>
      <path class="cls-2" d="M653.27,8.64v21.04h-2.72v-3.84c-1.48,2.56-4.2,4.04-7.56,4.04-5.36,0-8.88-3-8.88-9.04v-12.2h2.84v11.92c0,4.48,2.32,6.76,6.32,6.76,4.4,0,7.16-2.84,7.16-7.64v-11.04h2.84Z"/>
      <path class="cls-2" d="M676.67,24.6l1.6,1.84c-1.88,2.24-4.76,3.44-8.08,3.44-6.56,0-11.08-4.48-11.08-10.72s4.36-10.68,10.4-10.68c5.64,0,9.88,4.12,10.08,10.04l-17.28,3.36c1.04,3.4,4,5.48,7.92,5.48,2.6,0,4.88-.92,6.44-2.76ZM661.87,18.96c0,.32,0,.6.04.88l14.84-2.88c-.6-3.44-3.36-6.04-7.24-6.04-4.48,0-7.64,3.28-7.64,8.04Z"/>
      <path class="cls-2" d="M693.75,19.16c0-6.28,4.56-10.68,10.84-10.68,3.56,0,6.56,1.4,8.24,4.16l-2.12,1.44c-1.44-2.12-3.68-3.12-6.12-3.12-4.6,0-7.96,3.28-7.96,8.2s3.36,8.2,7.96,8.2c2.44,0,4.68-.96,6.12-3.08l2.12,1.44c-1.68,2.72-4.68,4.16-8.24,4.16-6.28,0-10.84-4.44-10.84-10.72Z"/>
      <path class="cls-2" d="M715.91,19.16c0-6.24,4.56-10.68,10.72-10.68s10.68,4.44,10.68,10.68-4.52,10.72-10.68,10.72-10.72-4.48-10.72-10.72ZM734.43,19.16c0-4.92-3.32-8.2-7.8-8.2s-7.84,3.28-7.84,8.2,3.36,8.2,7.84,8.2,7.8-3.28,7.8-8.2Z"/>
      <path class="cls-2" d="M762.47,17.48v12.2h-2.84v-11.92c0-4.44-2.32-6.72-6.32-6.72-4.52,0-7.36,2.8-7.36,7.6v11.04h-2.84V8.64h2.72v3.88c1.52-2.56,4.36-4.04,8-4.04,5.12,0,8.64,2.96,8.64,9Z"/>
      <path class="cls-2" d="M804.91,17.48v12.2h-2.84v-11.92c0-4.44-2.24-6.72-6.04-6.72-4.32,0-7.04,2.8-7.04,7.6v11.04h-2.84v-11.92c0-4.44-2.24-6.72-6.08-6.72-4.28,0-7.04,2.8-7.04,7.6v11.04h-2.84V8.64h2.72v3.84c1.48-2.52,4.2-4,7.72-4s6.2,1.48,7.48,4.44c1.52-2.72,4.52-4.44,8.32-4.44,5.12,0,8.48,2.96,8.48,9Z"/>
      <path class="cls-2" d="M828.15,24.6l1.6,1.84c-1.88,2.24-4.76,3.44-8.08,3.44-6.56,0-11.08-4.48-11.08-10.72s4.36-10.68,10.4-10.68c5.64,0,9.88,4.12,10.08,10.04l-17.28,3.36c1.04,3.4,4,5.48,7.92,5.48,2.6,0,4.88-.92,6.44-2.76ZM813.35,18.96c0,.32,0,.6.04.88l14.84-2.88c-.6-3.44-3.36-6.04-7.24-6.04-4.48,0-7.64,3.28-7.64,8.04Z"/>
      <path class="cls-2" d="M871.58,17.48v12.2h-2.84v-11.92c0-4.44-2.24-6.72-6.04-6.72-4.32,0-7.04,2.8-7.04,7.6v11.04h-2.84v-11.92c0-4.44-2.24-6.72-6.08-6.72-4.28,0-7.04,2.8-7.04,7.6v11.04h-2.84V8.64h2.72v3.84c1.48-2.52,4.2-4,7.72-4s6.2,1.48,7.48,4.44c1.52-2.72,4.52-4.44,8.32-4.44,5.12,0,8.48,2.96,8.48,9Z"/>
      <path class="cls-2" d="M877.27,19.16c0-6.24,4.56-10.68,10.72-10.68s10.68,4.44,10.68,10.68-4.52,10.72-10.68,10.72-10.72-4.48-10.72-10.72ZM895.79,19.16c0-4.92-3.32-8.2-7.8-8.2s-7.84,3.28-7.84,8.2,3.36,8.2,7.84,8.2,7.8-3.28,7.8-8.2Z"/>
      <path class="cls-2" d="M915.07,8.48v2.76c-.24,0-.48-.04-.68-.04-4.4,0-7.08,2.8-7.08,7.76v10.72h-2.84V8.64h2.72v4.12c1.32-2.8,4-4.28,7.88-4.28Z"/>
      <path class="cls-2" d="M939.19,8.64v21.04h-2.72v-4.16c-1.72,2.84-4.64,4.36-8.12,4.36-6,0-10.48-4.36-10.48-10.72s4.48-10.68,10.48-10.68c3.36,0,6.24,1.44,8,4.16v-4h2.84ZM936.39,19.16c0-4.92-3.36-8.2-7.8-8.2s-7.84,3.28-7.84,8.2,3.36,8.2,7.84,8.2,7.8-3.28,7.8-8.2Z"/>
      <path class="cls-2" d="M957.47,28.4c-1.08,1-2.76,1.48-4.4,1.48-3.96,0-6.16-2.24-6.16-6.12V4.04h2.84v4.6h6.36v2.4h-6.36v12.56c0,2.48,1.24,3.84,3.6,3.84,1.2,0,2.32-.36,3.12-1.08l1,2.04Z"/>
      <path class="cls-2" d="M961.99,2c0-1.08.92-2,2.08-2s2.08.88,2.08,1.96c0,1.16-.88,2.08-2.08,2.08s-2.08-.92-2.08-2.04ZM962.63,8.64h2.84v21.04h-2.84V8.64Z"/>
      <path class="cls-2" d="M991.07,8.64l-9.36,21.04h-2.92l-9.32-21.04h2.96l7.88,17.92,7.96-17.92h2.8Z"/>
      <path class="cls-2" d="M992.35,19.16c0-6.24,4.56-10.68,10.72-10.68s10.68,4.44,10.68,10.68-4.52,10.72-10.68,10.72-10.72-4.48-10.72-10.72ZM1010.87,19.16c0-4.92-3.32-8.2-7.8-8.2s-7.84,3.28-7.84,8.2,3.36,8.2,7.84,8.2,7.8-3.28,7.8-8.2Z"/>
      <path class="cls-2" d="M1021.39,27.67c0,.68-.16,1.2-.56,2.32l-1.68,5.52h-1.92l1.36-5.8c-.84-.24-1.44-1-1.44-2.04,0-1.24.92-2.16,2.12-2.16s2.12.96,2.12,2.16Z"/>
      <path class="cls-2" d="M1035.79,19.16c0-6.28,4.56-10.68,10.84-10.68,3.56,0,6.56,1.4,8.24,4.16l-2.12,1.44c-1.44-2.12-3.68-3.12-6.12-3.12-4.6,0-7.96,3.28-7.96,8.2s3.36,8.2,7.96,8.2c2.44,0,4.68-.96,6.12-3.08l2.12,1.44c-1.68,2.72-4.68,4.16-8.24,4.16-6.28,0-10.84-4.44-10.84-10.72Z"/>
      <path class="cls-2" d="M1079.38,8.64v21.04h-2.72v-3.84c-1.48,2.56-4.2,4.04-7.56,4.04-5.36,0-8.88-3-8.88-9.04v-12.2h2.84v11.92c0,4.48,2.32,6.76,6.32,6.76,4.4,0,7.16-2.84,7.16-7.64v-11.04h2.84Z"/>
      <path class="cls-2" d="M1086.71,2c0-1.08.92-2,2.08-2s2.08.88,2.08,1.96c0,1.16-.88,2.08-2.08,2.08s-2.08-.92-2.08-2.04ZM1087.35,8.64h2.84v21.04h-2.84V8.64Z"/>
      <path class="cls-2" d="M1117.3,0v29.67h-2.72v-4.16c-1.72,2.84-4.64,4.36-8.12,4.36-6,0-10.48-4.36-10.48-10.72s4.48-10.68,10.48-10.68c3.36,0,6.24,1.44,8,4.16V0h2.84ZM1114.5,19.16c0-4.92-3.36-8.2-7.8-8.2s-7.84,3.28-7.84,8.2,3.36,8.2,7.84,8.2,7.8-3.28,7.8-8.2Z"/>
      <path class="cls-2" d="M1144.42,8.64v21.04h-2.72v-4.16c-1.72,2.84-4.64,4.36-8.12,4.36-6,0-10.48-4.36-10.48-10.72s4.48-10.68,10.48-10.68c3.36,0,6.24,1.44,8,4.16v-4h2.84ZM1141.62,19.16c0-4.92-3.36-8.2-7.8-8.2s-7.84,3.28-7.84,8.2,3.36,8.2,7.84,8.2,7.8-3.28,7.8-8.2Z"/>
      <path class="cls-2" d="M1171.54,0v29.67h-2.72v-4.16c-1.72,2.84-4.64,4.36-8.12,4.36-6,0-10.48-4.36-10.48-10.72s4.48-10.68,10.48-10.68c3.36,0,6.24,1.44,8,4.16V0h2.84ZM1168.74,19.16c0-4.92-3.36-8.2-7.8-8.2s-7.84,3.28-7.84,8.2,3.36,8.2,7.84,8.2,7.8-3.28,7.8-8.2Z"/>
      <path class="cls-2" d="M1177.35,19.16c0-6.24,4.56-10.68,10.72-10.68s10.68,4.44,10.68,10.68-4.52,10.72-10.68,10.72-10.72-4.48-10.72-10.72ZM1195.86,19.16c0-4.92-3.32-8.2-7.8-8.2s-7.84,3.28-7.84,8.2,3.36,8.2,7.84,8.2,7.8-3.28,7.8-8.2Z"/>
      <path class="cls-2" d="M1201.63,27.28l1.28-2.24c1.68,1.32,4.52,2.36,7.48,2.36,4,0,5.64-1.36,5.64-3.44,0-5.48-13.64-1.16-13.64-9.48,0-3.44,2.96-6,8.32-6,2.72,0,5.68.76,7.44,1.96l-1.24,2.28c-1.84-1.28-4.04-1.8-6.2-1.8-3.8,0-5.48,1.48-5.48,3.48,0,5.68,13.64,1.4,13.64,9.48,0,3.64-3.2,6-8.68,6-3.48,0-6.84-1.12-8.56-2.6Z"/>
      <path class="cls-2" d="M1243.3,8.64v21.04h-2.72v-4.16c-1.72,2.84-4.64,4.36-8.12,4.36-6,0-10.48-4.36-10.48-10.72s4.48-10.68,10.48-10.68c3.36,0,6.24,1.44,8,4.16v-4h2.84ZM1240.5,19.16c0-4.92-3.36-8.2-7.8-8.2s-7.84,3.28-7.84,8.2,3.36,8.2,7.84,8.2,7.8-3.28,7.8-8.2Z"/>
      <path class="cls-2" d="M1285.94,17.48v12.2h-2.84v-11.92c0-4.44-2.24-6.72-6.04-6.72-4.32,0-7.04,2.8-7.04,7.6v11.04h-2.84v-11.92c0-4.44-2.24-6.72-6.08-6.72-4.28,0-7.04,2.8-7.04,7.6v11.04h-2.84V8.64h2.72v3.84c1.48-2.52,4.2-4,7.72-4s6.2,1.48,7.48,4.44c1.52-2.72,4.52-4.44,8.32-4.44,5.12,0,8.48,2.96,8.48,9Z"/>
      <path class="cls-2" d="M1309.18,24.6l1.6,1.84c-1.88,2.24-4.76,3.44-8.08,3.44-6.56,0-11.08-4.48-11.08-10.72s4.36-10.68,10.4-10.68c5.64,0,9.88,4.12,10.08,10.04l-17.28,3.36c1.04,3.4,4,5.48,7.92,5.48,2.6,0,4.88-.92,6.44-2.76ZM1294.39,18.96c0,.32,0,.6.04.88l14.84-2.88c-.6-3.44-3.36-6.04-7.24-6.04-4.48,0-7.64,3.28-7.64,8.04Z"/>
      <path class="cls-2" d="M1337.26,17.48v12.2h-2.84v-11.92c0-4.44-2.32-6.72-6.32-6.72-4.52,0-7.36,2.8-7.36,7.6v11.04h-2.84V8.64h2.72v3.88c1.52-2.56,4.36-4.04,8-4.04,5.12,0,8.64,2.96,8.64,9Z"/>
      <path class="cls-2" d="M1355.34,28.4c-1.08,1-2.76,1.48-4.4,1.48-3.96,0-6.16-2.24-6.16-6.12V4.04h2.84v4.6h6.36v2.4h-6.36v12.56c0,2.48,1.24,3.84,3.6,3.84,1.2,0,2.32-.36,3.12-1.08l1,2.04Z"/>
      <path class="cls-2" d="M1375.18,24.6l1.6,1.84c-1.88,2.24-4.76,3.44-8.08,3.44-6.56,0-11.08-4.48-11.08-10.72s4.36-10.68,10.4-10.68c5.64,0,9.88,4.12,10.08,10.04l-17.28,3.36c1.04,3.4,4,5.48,7.92,5.48,2.6,0,4.88-.92,6.44-2.76ZM1360.38,18.96c0,.32,0,.6.04.88l14.84-2.88c-.6-3.44-3.36-6.04-7.24-6.04-4.48,0-7.64,3.28-7.64,8.04Z"/>
      <path class="cls-2" d="M1413.58,0v29.67h-2.72v-4.16c-1.72,2.84-4.64,4.36-8.12,4.36-6,0-10.48-4.36-10.48-10.72s4.48-10.68,10.48-10.68c3.36,0,6.24,1.44,8,4.16V0h2.84ZM1410.78,19.16c0-4.92-3.36-8.2-7.8-8.2s-7.84,3.28-7.84,8.2,3.36,8.2,7.84,8.2,7.8-3.28,7.8-8.2Z"/>
      <path class="cls-2" d="M1420.86,2c0-1.08.92-2,2.08-2s2.08.88,2.08,1.96c0,1.16-.88,2.08-2.08,2.08s-2.08-.92-2.08-2.04ZM1421.5,8.64h2.84v21.04h-2.84V8.64Z"/>
      <path class="cls-2" d="M1429.34,27.28l1.28-2.24c1.68,1.32,4.52,2.36,7.48,2.36,4,0,5.64-1.36,5.64-3.44,0-5.48-13.64-1.16-13.64-9.48,0-3.44,2.96-6,8.32-6,2.72,0,5.68.76,7.44,1.96l-1.24,2.28c-1.84-1.28-4.04-1.8-6.2-1.8-3.8,0-5.48,1.48-5.48,3.48,0,5.68,13.64,1.4,13.64,9.48,0,3.64-3.2,6-8.68,6-3.48,0-6.84-1.12-8.56-2.6Z"/>
      <path class="cls-2" d="M1467.26,24.6l1.6,1.84c-1.88,2.24-4.76,3.44-8.08,3.44-6.56,0-11.08-4.48-11.08-10.72s4.36-10.68,10.4-10.68c5.64,0,9.88,4.12,10.08,10.04l-17.28,3.36c1.04,3.4,4,5.48,7.92,5.48,2.6,0,4.88-.92,6.44-2.76ZM1452.46,18.96c0,.32,0,.6.04.88l14.84-2.88c-.6-3.44-3.36-6.04-7.24-6.04-4.48,0-7.64,3.28-7.64,8.04Z"/>
      <path class="cls-2" d="M1495.34,17.48v12.2h-2.84v-11.92c0-4.44-2.32-6.72-6.32-6.72-4.52,0-7.36,2.8-7.36,7.6v11.04h-2.84V8.64h2.72v3.88c1.52-2.56,4.36-4.04,8-4.04,5.12,0,8.64,2.96,8.64,9ZM1481.02,5h-1.72c.08-2.68,1.48-4.4,3.6-4.4,2.48,0,3.68,2.72,5.24,2.72,1.2,0,2-.96,2.08-2.48h1.72c-.08,2.6-1.48,4.32-3.6,4.32-2.48,0-3.64-2.72-5.24-2.72-1.2,0-2,.96-2.08,2.56Z"/>
      <path class="cls-2" d="M1522.34,8.64v21.04h-2.72v-4.16c-1.72,2.84-4.64,4.36-8.12,4.36-6,0-10.48-4.36-10.48-10.72s4.48-10.68,10.48-10.68c3.36,0,6.24,1.44,8,4.16v-4h2.84ZM1519.54,19.16c0-4.92-3.36-8.2-7.8-8.2s-7.84,3.28-7.84,8.2,3.36,8.2,7.84,8.2,7.8-3.28,7.8-8.2Z"/>
      <path class="cls-2" d="M1549.46,0v29.67h-2.72v-4.16c-1.72,2.84-4.64,4.36-8.12,4.36-6,0-10.48-4.36-10.48-10.72s4.48-10.68,10.48-10.68c3.36,0,6.24,1.44,8,4.16V0h2.84ZM1546.66,19.16c0-4.92-3.36-8.2-7.8-8.2s-7.84,3.28-7.84,8.2,3.36,8.2,7.84,8.2,7.8-3.28,7.8-8.2Z"/>
      <path class="cls-2" d="M1555.26,19.16c0-6.24,4.56-10.68,10.72-10.68s10.68,4.44,10.68,10.68-4.52,10.72-10.68,10.72-10.72-4.48-10.72-10.72ZM1573.78,19.16c0-4.92-3.32-8.2-7.8-8.2s-7.84,3.28-7.84,8.2,3.36,8.2,7.84,8.2,7.8-3.28,7.8-8.2Z"/>
      <path class="cls-2" d="M197.36,59.28c0,5.96-4.32,9.56-11.44,9.56h-7.52v8.84h-2.96v-28h10.48c7.12,0,11.44,3.6,11.44,9.6ZM194.4,59.28c0-4.48-2.96-7.04-8.56-7.04h-7.44v14h7.44c5.6,0,8.56-2.56,8.56-6.96Z"/>
      <path class="cls-2" d="M222.24,56.64v21.04h-2.72v-4.16c-1.72,2.84-4.64,4.36-8.12,4.36-6,0-10.48-4.36-10.48-10.72s4.48-10.68,10.48-10.68c3.36,0,6.24,1.44,8,4.16v-4h2.84ZM219.44,67.16c0-4.92-3.36-8.2-7.8-8.2s-7.84,3.28-7.84,8.2,3.36,8.2,7.84,8.2,7.8-3.28,7.8-8.2Z"/>
      <path class="cls-2" d="M240.76,56.48v2.76c-.24,0-.48-.04-.68-.04-4.4,0-7.08,2.8-7.08,7.76v10.72h-2.84v-21.04h2.72v4.12c1.32-2.8,4-4.28,7.88-4.28Z"/>
      <path class="cls-2" d="M264.88,56.64v21.04h-2.72v-4.16c-1.72,2.84-4.64,4.36-8.12,4.36-6,0-10.48-4.36-10.48-10.72s4.48-10.68,10.48-10.68c3.36,0,6.24,1.44,8,4.16v-4h2.84ZM262.08,67.16c0-4.92-3.36-8.2-7.8-8.2s-7.84,3.28-7.84,8.2,3.36,8.2,7.84,8.2,7.8-3.28,7.8-8.2Z"/>
      <path class="cls-2" d="M281.16,67.16c0-6.24,4.56-10.68,10.72-10.68s10.68,4.44,10.68,10.68-4.52,10.72-10.68,10.72-10.72-4.48-10.72-10.72ZM299.68,67.16c0-4.92-3.32-8.2-7.8-8.2s-7.84,3.28-7.84,8.2,3.36,8.2,7.84,8.2,7.8-3.28,7.8-8.2Z"/>
      <path class="cls-2" d="M311.12,54.16v2.48h6.48v2.4h-6.4v18.64h-2.84v-23.64c0-3.76,2.24-6.24,6.36-6.24,1.56,0,3.16.44,4.2,1.32l-.96,2.12c-.8-.68-1.92-1.04-3.12-1.04-2.44,0-3.72,1.36-3.72,3.96Z"/>
      <path class="cls-2" d="M335.24,56.48v2.76c-.24,0-.48-.04-.68-.04-4.4,0-7.08,2.8-7.08,7.76v10.72h-2.84v-21.04h2.72v4.12c1.32-2.8,4-4.28,7.88-4.28Z"/>
      <path class="cls-2" d="M355.6,72.6l1.6,1.84c-1.88,2.24-4.76,3.44-8.08,3.44-6.56,0-11.08-4.48-11.08-10.72s4.36-10.68,10.4-10.68c5.64,0,9.88,4.12,10.08,10.04l-17.28,3.36c1.04,3.4,4,5.48,7.92,5.48,2.6,0,4.88-.92,6.44-2.76ZM340.8,66.96c0,.32,0,.6.04.88l14.84-2.88c-.6-3.44-3.36-6.04-7.24-6.04-4.48,0-7.64,3.28-7.64,8.04Z"/>
      <path class="cls-2" d="M362.2,67.16c0-6.28,4.56-10.68,10.84-10.68,3.56,0,6.56,1.4,8.24,4.16l-2.12,1.44c-1.44-2.12-3.68-3.12-6.12-3.12-4.6,0-7.96,3.28-7.96,8.2s3.36,8.2,7.96,8.2c2.44,0,4.68-.96,6.12-3.08l2.12,1.44c-1.68,2.72-4.68,4.16-8.24,4.16-6.28,0-10.84-4.44-10.84-10.72Z"/>
      <path class="cls-2" d="M401.92,72.6l1.6,1.84c-1.88,2.24-4.76,3.44-8.08,3.44-6.56,0-11.08-4.48-11.08-10.72s4.36-10.68,10.4-10.68c5.64,0,9.88,4.12,10.08,10.04l-17.28,3.36c1.04,3.4,4,5.48,7.92,5.48,2.6,0,4.88-.92,6.44-2.76ZM387.12,66.96c0,.32,0,.6.04.88l14.84-2.88c-.6-3.44-3.36-6.04-7.24-6.04-4.48,0-7.64,3.28-7.64,8.04Z"/>
      <path class="cls-2" d="M421.24,56.48v2.76c-.24,0-.48-.04-.68-.04-4.4,0-7.08,2.8-7.08,7.76v10.72h-2.84v-21.04h2.72v4.12c1.32-2.8,4-4.28,7.88-4.28Z"/>
      <path class="cls-2" d="M456.11,56.64v21.04h-2.72v-3.84c-1.48,2.56-4.2,4.04-7.56,4.04-5.36,0-8.88-3-8.88-9.04v-12.2h2.84v11.92c0,4.48,2.32,6.76,6.32,6.76,4.4,0,7.16-2.84,7.16-7.64v-11.04h2.84Z"/>
      <path class="cls-2" d="M483.43,65.48v12.2h-2.84v-11.92c0-4.44-2.32-6.72-6.32-6.72-4.52,0-7.36,2.8-7.36,7.6v11.04h-2.84v-21.04h2.72v3.88c1.52-2.56,4.36-4.04,8-4.04,5.12,0,8.64,2.96,8.64,9Z"/>
      <path class="cls-2" d="M520.83,56.64v21.04h-2.72v-4.16c-1.72,2.84-4.64,4.36-8.12,4.36-6,0-10.48-4.36-10.48-10.72s4.48-10.68,10.48-10.68c3.36,0,6.24,1.44,8,4.16v-4h2.84ZM518.03,67.16c0-4.92-3.36-8.2-7.8-8.2s-7.84,3.28-7.84,8.2,3.36,8.2,7.84,8.2,7.8-3.28,7.8-8.2Z"/>
      <path class="cls-2" d="M563.47,65.48v12.2h-2.84v-11.92c0-4.44-2.24-6.72-6.04-6.72-4.32,0-7.04,2.8-7.04,7.6v11.04h-2.84v-11.92c0-4.44-2.24-6.72-6.08-6.72-4.28,0-7.04,2.8-7.04,7.6v11.04h-2.84v-21.04h2.72v3.84c1.48-2.52,4.2-4,7.72-4s6.2,1.48,7.48,4.44c1.52-2.72,4.52-4.44,8.32-4.44,5.12,0,8.48,2.96,8.48,9Z"/>
      <path class="cls-2" d="M592.51,67.16c0,6.36-4.48,10.72-10.48,10.72-3.48,0-6.4-1.52-8.12-4.36v4.16h-2.72v-29.67h2.84v12.64c1.76-2.72,4.64-4.16,8-4.16,6,0,10.48,4.32,10.48,10.68ZM589.67,67.16c0-4.92-3.4-8.2-7.84-8.2s-7.84,3.28-7.84,8.2,3.36,8.2,7.84,8.2,7.84-3.28,7.84-8.2Z"/>
      <path class="cls-2" d="M597.67,50c0-1.08.92-2,2.08-2s2.08.88,2.08,1.96c0,1.16-.88,2.08-2.08,2.08s-2.08-.92-2.08-2.04ZM598.31,56.64h2.84v21.04h-2.84v-21.04Z"/>
      <path class="cls-2" d="M624.51,72.6l1.6,1.84c-1.88,2.24-4.76,3.44-8.08,3.44-6.56,0-11.08-4.48-11.08-10.72s4.36-10.68,10.4-10.68c5.64,0,9.88,4.12,10.08,10.04l-17.28,3.36c1.04,3.4,4,5.48,7.92,5.48,2.6,0,4.88-.92,6.44-2.76ZM609.71,66.96c0,.32,0,.6.04.88l14.84-2.88c-.6-3.44-3.36-6.04-7.24-6.04-4.48,0-7.64,3.28-7.64,8.04Z"/>
      <path class="cls-2" d="M652.59,65.48v12.2h-2.84v-11.92c0-4.44-2.32-6.72-6.32-6.72-4.52,0-7.36,2.8-7.36,7.6v11.04h-2.84v-21.04h2.72v3.88c1.52-2.56,4.36-4.04,8-4.04,5.12,0,8.64,2.96,8.64,9Z"/>
      <path class="cls-2" d="M670.67,76.4c-1.08,1-2.76,1.48-4.4,1.48-3.96,0-6.16-2.24-6.16-6.12v-19.72h2.84v4.6h6.36v2.4h-6.36v12.56c0,2.48,1.24,3.84,3.6,3.84,1.2,0,2.32-.36,3.12-1.08l1,2.04Z"/>
      <path class="cls-2" d="M690.51,72.6l1.6,1.84c-1.88,2.24-4.76,3.44-8.08,3.44-6.56,0-11.08-4.48-11.08-10.72s4.36-10.68,10.4-10.68c5.64,0,9.88,4.12,10.08,10.04l-17.28,3.36c1.04,3.4,4,5.48,7.92,5.48,2.6,0,4.88-.92,6.44-2.76ZM675.71,66.96c0,.32,0,.6.04.88l14.84-2.88c-.6-3.44-3.36-6.04-7.24-6.04-4.48,0-7.64,3.28-7.64,8.04Z"/>
      <path class="cls-2" d="M728.91,48v29.67h-2.72v-4.16c-1.72,2.84-4.64,4.36-8.12,4.36-6,0-10.48-4.36-10.48-10.72s4.48-10.68,10.48-10.68c3.36,0,6.24,1.44,8,4.16v-12.64h2.84ZM726.11,67.16c0-4.92-3.36-8.2-7.8-8.2s-7.84,3.28-7.84,8.2,3.36,8.2,7.84,8.2,7.8-3.28,7.8-8.2Z"/>
      <path class="cls-2" d="M752.27,72.6l1.6,1.84c-1.88,2.24-4.76,3.44-8.08,3.44-6.56,0-11.08-4.48-11.08-10.72s4.36-10.68,10.4-10.68c5.64,0,9.88,4.12,10.08,10.04l-17.28,3.36c1.04,3.4,4,5.48,7.92,5.48,2.6,0,4.88-.92,6.44-2.76ZM737.47,66.96c0,.32,0,.6.04.88l14.84-2.88c-.6-3.44-3.36-6.04-7.24-6.04-4.48,0-7.64,3.28-7.64,8.04Z"/>
      <path class="cls-2" d="M768.55,75.28l1.28-2.24c1.68,1.32,4.52,2.36,7.48,2.36,4,0,5.64-1.36,5.64-3.44,0-5.48-13.64-1.16-13.64-9.48,0-3.44,2.96-6,8.32-6,2.72,0,5.68.76,7.44,1.96l-1.24,2.28c-1.84-1.28-4.04-1.8-6.2-1.8-3.8,0-5.48,1.48-5.48,3.48,0,5.68,13.64,1.4,13.64,9.48,0,3.64-3.2,6-8.68,6-3.48,0-6.84-1.12-8.56-2.6Z"/>
      <path class="cls-2" d="M806.47,72.6l1.6,1.84c-1.88,2.24-4.76,3.44-8.08,3.44-6.56,0-11.08-4.48-11.08-10.72s4.36-10.68,10.4-10.68c5.64,0,9.88,4.12,10.08,10.04l-17.28,3.36c1.04,3.4,4,5.48,7.92,5.48,2.6,0,4.88-.92,6.44-2.76ZM791.67,66.96c0,.32,0,.6.04.88l14.84-2.88c-.6-3.44-3.36-6.04-7.24-6.04-4.48,0-7.64,3.28-7.64,8.04Z"/>
      <path class="cls-2" d="M825.79,56.48v2.76c-.24,0-.48-.04-.68-.04-4.4,0-7.08,2.8-7.08,7.76v10.72h-2.84v-21.04h2.72v4.12c1.32-2.8,4-4.28,7.88-4.28Z"/>
      <path class="cls-2" d="M846.15,72.6l1.6,1.84c-1.88,2.24-4.76,3.44-8.08,3.44-6.56,0-11.08-4.48-11.08-10.72s4.36-10.68,10.4-10.68c5.64,0,9.88,4.12,10.08,10.04l-17.28,3.36c1.04,3.4,4,5.48,7.92,5.48,2.6,0,4.88-.92,6.44-2.76ZM831.35,66.96c0,.32,0,.6.04.88l14.84-2.88c-.6-3.44-3.36-6.04-7.24-6.04-4.48,0-7.64,3.28-7.64,8.04Z"/>
      <path class="cls-2" d="M874.23,65.48v12.2h-2.84v-11.92c0-4.44-2.32-6.72-6.32-6.72-4.52,0-7.36,2.8-7.36,7.6v11.04h-2.84v-21.04h2.72v3.88c1.52-2.56,4.36-4.04,8-4.04,5.12,0,8.64,2.96,8.64,9Z"/>
      <path class="cls-2" d="M881.31,50c0-1.08.92-2,2.08-2s2.08.88,2.08,1.96c0,1.16-.88,2.08-2.08,2.08s-2.08-.92-2.08-2.04ZM881.95,56.64h2.84v21.04h-2.84v-21.04Z"/>
      <path class="cls-2" d="M911.91,48v29.67h-2.72v-4.16c-1.72,2.84-4.64,4.36-8.12,4.36-6,0-10.48-4.36-10.48-10.72s4.48-10.68,10.48-10.68c3.36,0,6.24,1.44,8,4.16v-12.64h2.84ZM909.11,67.16c0-4.92-3.36-8.2-7.8-8.2s-7.84,3.28-7.84,8.2,3.36,8.2,7.84,8.2,7.8-3.28,7.8-8.2Z"/>
      <path class="cls-2" d="M939.03,56.64v21.04h-2.72v-4.16c-1.72,2.84-4.64,4.36-8.12,4.36-6,0-10.48-4.36-10.48-10.72s4.48-10.68,10.48-10.68c3.36,0,6.24,1.44,8,4.16v-4h2.84ZM936.23,67.16c0-4.92-3.36-8.2-7.8-8.2s-7.84,3.28-7.84,8.2,3.36,8.2,7.84,8.2,7.8-3.28,7.8-8.2Z"/>
      <path class="cls-2" d="M966.15,48v29.67h-2.72v-4.16c-1.72,2.84-4.64,4.36-8.12,4.36-6,0-10.48-4.36-10.48-10.72s4.48-10.68,10.48-10.68c3.36,0,6.24,1.44,8,4.16v-12.64h2.84ZM963.35,67.16c0-4.92-3.36-8.2-7.8-8.2s-7.84,3.28-7.84,8.2,3.36,8.2,7.84,8.2,7.8-3.28,7.8-8.2Z"/>
      <path class="cls-2" d="M976.51,75.67c0,.68-.16,1.2-.56,2.32l-1.68,5.52h-1.92l1.36-5.8c-.84-.24-1.44-1-1.44-2.04,0-1.24.92-2.16,2.12-2.16s2.12.96,2.12,2.16Z"/>
      <path class="cls-2" d="M990.91,67.16c0-6.28,4.56-10.68,10.84-10.68,3.56,0,6.56,1.4,8.24,4.16l-2.12,1.44c-1.44-2.12-3.68-3.12-6.12-3.12-4.6,0-7.96,3.28-7.96,8.2s3.36,8.2,7.96,8.2c2.44,0,4.68-.96,6.12-3.08l2.12,1.44c-1.68,2.72-4.68,4.16-8.24,4.16-6.28,0-10.84-4.44-10.84-10.72Z"/>
      <path class="cls-2" d="M1013.07,67.16c0-6.24,4.56-10.68,10.72-10.68s10.68,4.44,10.68,10.68-4.52,10.72-10.68,10.72-10.72-4.48-10.72-10.72ZM1031.58,67.16c0-4.92-3.32-8.2-7.8-8.2s-7.84,3.28-7.84,8.2,3.36,8.2,7.84,8.2,7.8-3.28,7.8-8.2Z"/>
      <path class="cls-2" d="M1059.62,65.48v12.2h-2.84v-11.92c0-4.44-2.32-6.72-6.32-6.72-4.52,0-7.36,2.8-7.36,7.6v11.04h-2.84v-21.04h2.72v3.88c1.52-2.56,4.36-4.04,8-4.04,5.12,0,8.64,2.96,8.64,9Z"/>
      <path class="cls-2" d="M1082.86,72.6l1.6,1.84c-1.88,2.24-4.76,3.44-8.08,3.44-6.56,0-11.08-4.48-11.08-10.72s4.36-10.68,10.4-10.68c5.64,0,9.88,4.12,10.08,10.04l-17.28,3.36c1.04,3.4,4,5.48,7.92,5.48,2.6,0,4.88-.92,6.44-2.76ZM1068.07,66.96c0,.32,0,.6.04.88l14.84-2.88c-.6-3.44-3.36-6.04-7.24-6.04-4.48,0-7.64,3.28-7.64,8.04Z"/>
      <path class="cls-2" d="M1104.38,77.67l-6.68-8.8-6.72,8.8h-3.2l8.32-10.8-7.92-10.24h3.2l6.32,8.24,6.32-8.24h3.12l-7.92,10.24,8.4,10.8h-3.24Z"/>
      <path class="cls-2" d="M1111.71,50c0-1.08.92-2,2.08-2s2.08.88,2.08,1.96c0,1.16-.88,2.08-2.08,2.08s-2.08-.92-2.08-2.04ZM1112.35,56.64h2.84v21.04h-2.84v-21.04Z"/>
      <path class="cls-2" d="M1120.99,67.16c0-6.24,4.56-10.68,10.72-10.68s10.68,4.44,10.68,10.68-4.52,10.72-10.68,10.72-10.72-4.48-10.72-10.72ZM1139.5,67.16c0-4.92-3.32-8.2-7.8-8.2s-7.84,3.28-7.84,8.2,3.36,8.2,7.84,8.2,7.8-3.28,7.8-8.2ZM1134.54,48.44h3.8l-6.48,4.96h-2.8l5.48-4.96Z"/>
      <path class="cls-2" d="M1167.54,65.48v12.2h-2.84v-11.92c0-4.44-2.32-6.72-6.32-6.72-4.52,0-7.36,2.8-7.36,7.6v11.04h-2.84v-21.04h2.72v3.88c1.52-2.56,4.36-4.04,8-4.04,5.12,0,8.64,2.96,8.64,9Z"/>
      <path class="cls-2" d="M1204.7,56.64v18.48c0,7.24-3.32,10.52-9.8,10.52-3.6,0-7.16-1.16-9.2-3.24l1.44-2.16c1.8,1.8,4.56,2.88,7.64,2.88,4.88,0,7.08-2.44,7.08-7.64v-2.44c-1.48,2.44-4.16,3.84-7.44,3.84-5.36,0-8.88-3-8.88-9.04v-11.2h2.84v10.92c0,4.48,2.32,6.76,6.32,6.76,4.4,0,7.16-2.84,7.16-7.64v-10.04h2.84Z"/>
      <path class="cls-2" d="M1242.34,56.64v21.04h-2.72v-4.16c-1.72,2.84-4.64,4.36-8.12,4.36-6,0-10.48-4.36-10.48-10.72s4.48-10.68,10.48-10.68c3.36,0,6.24,1.44,8,4.16v-4h2.84ZM1239.54,67.16c0-4.92-3.36-8.2-7.8-8.2s-7.84,3.28-7.84,8.2,3.36,8.2,7.84,8.2,7.8-3.28,7.8-8.2Z"/>
      <path class="cls-2" d="M1260.86,56.48v2.76c-.24,0-.48-.04-.68-.04-4.4,0-7.08,2.8-7.08,7.76v10.72h-2.84v-21.04h2.72v4.12c1.32-2.8,4-4.28,7.88-4.28Z"/>
      <path class="cls-2" d="M1300.7,65.48v12.2h-2.84v-11.92c0-4.44-2.24-6.72-6.04-6.72-4.32,0-7.04,2.8-7.04,7.6v11.04h-2.84v-11.92c0-4.44-2.24-6.72-6.08-6.72-4.28,0-7.04,2.8-7.04,7.6v11.04h-2.84v-21.04h2.72v3.84c1.48-2.52,4.2-4,7.72-4s6.2,1.48,7.48,4.44c1.52-2.72,4.52-4.44,8.32-4.44,5.12,0,8.48,2.96,8.48,9Z"/>
      <path class="cls-2" d="M1306.38,67.16c0-6.24,4.56-10.68,10.72-10.68s10.68,4.44,10.68,10.68-4.52,10.72-10.68,10.72-10.72-4.48-10.72-10.72ZM1324.9,67.16c0-4.92-3.32-8.2-7.8-8.2s-7.84,3.28-7.84,8.2,3.36,8.2,7.84,8.2,7.8-3.28,7.8-8.2Z"/>
      <path class="cls-2" d="M1352.94,65.48v12.2h-2.84v-11.92c0-4.44-2.32-6.72-6.32-6.72-4.52,0-7.36,2.8-7.36,7.6v11.04h-2.84v-21.04h2.72v3.88c1.52-2.56,4.36-4.04,8-4.04,5.12,0,8.64,2.96,8.64,9Z"/>
      <path class="cls-2" d="M1364.98,48.44h3.8l-6.48,4.96h-2.8l5.48-4.96ZM1360.66,56.64h2.84v21.04h-2.84v-21.04Z"/>
      <path class="cls-2" d="M1390.62,56.64v21.04h-2.72v-4.16c-1.72,2.84-4.64,4.36-8.12,4.36-6,0-10.48-4.36-10.48-10.72s4.48-10.68,10.48-10.68c3.36,0,6.24,1.44,8,4.16v-4h2.84ZM1387.82,67.16c0-4.92-3.36-8.2-7.8-8.2s-7.84,3.28-7.84,8.2,3.36,8.2,7.84,8.2,7.8-3.28,7.8-8.2Z"/>
      <path class="cls-2" d="M1396.7,75.67c0-1.24.96-2.16,2.12-2.16s2.16.92,2.16,2.16-1,2.2-2.16,2.2-2.12-.96-2.12-2.2Z"/>
    </g>
  </g>
</svg>