<?xml version="1.0" encoding="UTF-8"?>
<svg id="Capa_2" data-name="Capa 2" xmlns="http://www.w3.org/2000/svg" viewBox="0 0 138.42 21.32">
  <defs>
    <style>
      .cls-1 {
        fill: #263530;
      }
    </style>
  </defs>
  <g id="Slide_1" data-name="Slide 1">
    <g id="Menú_redondeado" data-name="Menú redondeado">
      <g id="Headline">
        <g id="Mascotas">
          <g>
            <path class="cls-1" d="M22.1,0v21.17h-2.16V4.23l-8.36,14.24h-1.06L2.16,4.32v16.85H0V0h1.85l9.24,15.7L20.24,0h1.85Z"/>
            <path class="cls-1" d="M40.64,11.31v9.86h-2.07v-2.48c-.97,1.63-2.86,2.63-5.5,2.63-3.62,0-5.84-1.88-5.84-4.63,0-2.45,1.58-4.51,6.17-4.51h5.08v-.97c0-2.72-1.55-4.2-4.53-4.2-2.07,0-4.01.73-5.32,1.88l-.97-1.6c1.61-1.36,3.98-2.15,6.5-2.15,4.13,0,6.47,2.06,6.47,6.17ZM38.48,16.39v-2.6h-5.01c-3.1,0-4.1,1.21-4.1,2.84,0,1.85,1.49,2.99,4.04,2.99s4.23-1.15,5.08-3.24Z"/>
            <path class="cls-1" d="M44.29,19.36l.97-1.69c1.28,1,3.43,1.78,5.68,1.78,3.04,0,4.29-1.03,4.29-2.6,0-4.14-10.36-.88-10.36-7.17,0-2.6,2.25-4.54,6.32-4.54,2.07,0,4.32.57,5.65,1.48l-.94,1.72c-1.4-.97-3.07-1.36-4.71-1.36-2.89,0-4.17,1.12-4.17,2.63,0,4.29,10.37,1.06,10.37,7.17,0,2.75-2.43,4.54-6.6,4.54-2.64,0-5.2-.85-6.5-1.97Z"/>
            <path class="cls-1" d="M59.76,13.22c0-4.75,3.46-8.07,8.24-8.07,2.71,0,4.98,1.06,6.26,3.15l-1.61,1.09c-1.09-1.6-2.8-2.36-4.65-2.36-3.5,0-6.05,2.48-6.05,6.2s2.55,6.2,6.05,6.2c1.85,0,3.56-.73,4.65-2.33l1.61,1.09c-1.28,2.06-3.56,3.15-6.26,3.15-4.77,0-8.24-3.36-8.24-8.11Z"/>
            <path class="cls-1" d="M76.6,13.22c0-4.72,3.46-8.07,8.15-8.07s8.12,3.36,8.12,8.07-3.44,8.11-8.12,8.11-8.15-3.39-8.15-8.11ZM90.67,13.22c0-3.72-2.52-6.2-5.93-6.2s-5.96,2.48-5.96,6.2,2.55,6.2,5.96,6.2,5.93-2.48,5.93-6.2Z"/>
            <path class="cls-1" d="M105.68,20.2c-.85.76-2.13,1.12-3.37,1.12-3.01,0-4.68-1.69-4.68-4.63V7.08h-2.86v-1.81h2.86V1.78h2.16v3.48h4.86v1.81h-4.86v9.5c0,1.88.97,2.9,2.77,2.9.88,0,1.76-.27,2.37-.82l.76,1.54Z"/>
            <path class="cls-1" d="M121.67,11.31v9.86h-2.07v-2.48c-.97,1.63-2.86,2.63-5.5,2.63-3.62,0-5.84-1.88-5.84-4.63,0-2.45,1.58-4.51,6.17-4.51h5.08v-.97c0-2.72-1.55-4.2-4.53-4.2-2.07,0-4.01.73-5.32,1.88l-.97-1.6c1.61-1.36,3.98-2.15,6.5-2.15,4.13,0,6.47,2.06,6.47,6.17ZM119.51,16.39v-2.6h-5.01c-3.1,0-4.1,1.21-4.1,2.84,0,1.85,1.49,2.99,4.04,2.99s4.23-1.15,5.08-3.24Z"/>
            <path class="cls-1" d="M125.32,19.36l.97-1.69c1.28,1,3.43,1.78,5.68,1.78,3.04,0,4.29-1.03,4.29-2.6,0-4.14-10.36-.88-10.36-7.17,0-2.6,2.25-4.54,6.32-4.54,2.07,0,4.32.57,5.65,1.48l-.94,1.72c-1.4-.97-3.07-1.36-4.71-1.36-2.89,0-4.16,1.12-4.16,2.63,0,4.29,10.36,1.06,10.36,7.17,0,2.75-2.43,4.54-6.6,4.54-2.64,0-5.2-.85-6.5-1.97Z"/>
          </g>
        </g>
      </g>
    </g>
  </g>
</svg>