<?xml version="1.0" encoding="UTF-8"?>
<svg id="Capa_2" data-name="Capa 2" xmlns="http://www.w3.org/2000/svg" viewBox="0 0 250.79 22.56">
  <defs>
    <style>
      .cls-1 {
        fill: #263530;
      }
    </style>
  </defs>
  <g id="Slide_1" data-name="Slide 1">
    <g id="Menú_redondeado" data-name="Menú redondeado">
      <g id="Headline">
        <g id="Nichos_memorial" data-name="Nichos memorial">
          <g>
            <path class="cls-1" d="M17.78,1.27v21.14h-1.85L2.25,5.25v17.15H0V1.27h1.85l13.71,17.15V1.27h2.22Z"/>
            <path class="cls-1" d="M23.77,1.51c0-.82.7-1.51,1.58-1.51s1.58.66,1.58,1.48c0,.88-.67,1.57-1.58,1.57s-1.58-.69-1.58-1.54ZM24.26,6.52h2.16v15.88h-2.16V6.52Z"/>
            <path class="cls-1" d="M30.82,14.46c0-4.74,3.47-8.06,8.24-8.06,2.71,0,4.98,1.06,6.26,3.14l-1.61,1.09c-1.09-1.6-2.8-2.36-4.65-2.36-3.5,0-6.05,2.48-6.05,6.19s2.55,6.19,6.05,6.19c1.85,0,3.56-.72,4.65-2.33l1.61,1.09c-1.28,2.05-3.56,3.14-6.26,3.14-4.77,0-8.24-3.35-8.24-8.09Z"/>
            <path class="cls-1" d="M64.01,13.2v9.21h-2.16v-9c0-3.35-1.76-5.07-4.8-5.07-3.44,0-5.59,2.11-5.59,5.74v8.33h-2.16V0h2.16v9.3c1.19-1.84,3.28-2.9,5.99-2.9,3.89,0,6.57,2.23,6.57,6.79Z"/>
            <path class="cls-1" d="M68.33,14.46c0-4.71,3.46-8.06,8.15-8.06s8.12,3.35,8.12,8.06-3.43,8.09-8.12,8.09-8.15-3.38-8.15-8.09ZM82.4,14.46c0-3.71-2.52-6.19-5.93-6.19s-5.96,2.48-5.96,6.19,2.55,6.19,5.96,6.19,5.93-2.48,5.93-6.19Z"/>
            <path class="cls-1" d="M86.78,20.59l.97-1.69c1.28,1,3.43,1.78,5.68,1.78,3.04,0,4.29-1.03,4.29-2.6,0-4.14-10.37-.88-10.37-7.16,0-2.6,2.25-4.53,6.32-4.53,2.07,0,4.32.57,5.65,1.48l-.94,1.72c-1.4-.97-3.07-1.36-4.71-1.36-2.89,0-4.16,1.12-4.16,2.63,0,4.29,10.36,1.06,10.36,7.16,0,2.75-2.43,4.53-6.6,4.53-2.64,0-5.2-.85-6.5-1.96Z"/>
            <path class="cls-1" d="M134.38,1.27v21.14h-2.16V5.5l-8.36,14.22h-1.06l-8.36-14.13v16.82h-2.16V1.27h1.85l9.24,15.67,9.15-15.67h1.85Z"/>
            <path class="cls-1" d="M154.77,15.13h-13.37c.24,3.32,2.8,5.53,6.29,5.53,1.95,0,3.68-.69,4.89-2.08l1.22,1.39c-1.43,1.69-3.65,2.6-6.17,2.6-4.98,0-8.39-3.38-8.39-8.09s3.31-8.06,7.81-8.06,7.75,3.29,7.75,8.06c0,.18-.03.42-.03.66ZM141.4,13.53h11.34c-.27-3.11-2.55-5.28-5.68-5.28s-5.38,2.17-5.65,5.28Z"/>
            <path class="cls-1" d="M185.59,13.2v9.21h-2.16v-9c0-3.35-1.7-5.07-4.59-5.07-3.28,0-5.35,2.11-5.35,5.74v8.33h-2.16v-9c0-3.35-1.7-5.07-4.62-5.07-3.25,0-5.35,2.11-5.35,5.74v8.33h-2.16V6.52h2.07v2.9c1.12-1.9,3.19-3.02,5.87-3.02s4.71,1.12,5.68,3.35c1.16-2.05,3.43-3.35,6.32-3.35,3.89,0,6.44,2.23,6.44,6.79Z"/>
            <path class="cls-1" d="M189.91,14.46c0-4.71,3.46-8.06,8.15-8.06s8.12,3.35,8.12,8.06-3.43,8.09-8.12,8.09-8.15-3.38-8.15-8.09ZM203.98,14.46c0-3.71-2.52-6.19-5.93-6.19s-5.96,2.48-5.96,6.19,2.55,6.19,5.96,6.19,5.93-2.48,5.93-6.19Z"/>
            <path class="cls-1" d="M218.63,6.4v2.08c-.18,0-.37-.03-.52-.03-3.34,0-5.38,2.11-5.38,5.86v8.09h-2.16V6.52h2.07v3.11c1-2.11,3.04-3.23,5.99-3.23Z"/>
            <path class="cls-1" d="M222.04,1.51c0-.82.7-1.51,1.58-1.51s1.58.66,1.58,1.48c0,.88-.67,1.57-1.58,1.57s-1.58-.69-1.58-1.54ZM222.52,6.52h2.16v15.88h-2.16V6.52Z"/>
            <path class="cls-1" d="M242.76,12.56v9.84h-2.07v-2.48c-.97,1.63-2.86,2.63-5.5,2.63-3.62,0-5.84-1.87-5.84-4.62,0-2.45,1.58-4.5,6.17-4.5h5.08v-.97c0-2.72-1.55-4.2-4.53-4.2-2.07,0-4.01.72-5.32,1.87l-.97-1.6c1.61-1.36,3.98-2.14,6.5-2.14,4.13,0,6.47,2.05,6.47,6.16ZM240.61,17.64v-2.6h-5.02c-3.1,0-4.1,1.21-4.1,2.84,0,1.84,1.49,2.99,4.04,2.99s4.23-1.15,5.08-3.23Z"/>
            <path class="cls-1" d="M248.63,0h2.16v22.41h-2.16V0Z"/>
          </g>
        </g>
      </g>
    </g>
  </g>
</svg>