<?xml version="1.0" encoding="UTF-8"?>
<svg id="Capa_2" data-name="Capa 2" xmlns="http://www.w3.org/2000/svg" viewBox="0 0 262.25 27.28">
  <defs>
    <style>
      .cls-1 {
        fill: #263530;
      }
    </style>
  </defs>
  <g id="Slide_1" data-name="Slide 1">
    <g id="Menú_redondeado" data-name="Menú redondeado">
      <g id="Headline">
        <g id="Quiénes_somos" data-name="Quiénes somos">
          <g>
            <path class="cls-1" d="M0,22.2c.03-4.93,5.53-5.17,5.56-9.28h2.25c0,4.75-5.56,5.2-5.56,9.04,0,1.91,1.79,3.42,4.89,3.42,2.58,0,4.47-.85,5.81-2.45l1.61,1.21c-1.64,2-4.16,3.15-7.57,3.15-4.26,0-6.99-2.03-6.99-5.08ZM5.11,7.98c0-.88.67-1.57,1.58-1.57s1.58.7,1.58,1.57-.7,1.54-1.58,1.54-1.58-.7-1.58-1.54Z"/>
            <path class="cls-1" d="M38.27,24.22c-1.31,1.57-3.1,2.42-5.17,2.42-2.49,0-4.56-1.12-7.36-4.02-6.23-.18-10.79-4.72-10.79-10.77S19.7,1.09,26.14,1.09s11.16,4.57,11.16,10.77c0,5.41-3.62,9.56-8.78,10.55,1.61,1.69,3.1,2.45,4.62,2.45,1.61,0,2.92-.64,4.04-1.94l1.09,1.3ZM26.14,20.63c5.11,0,8.91-3.75,8.91-8.77s-3.8-8.77-8.91-8.77-8.97,3.75-8.97,8.77,3.83,8.77,8.97,8.77Z"/>
            <path class="cls-1" d="M56.29,6.53v15.91h-2.07v-2.9c-1.12,1.94-3.19,3.05-5.74,3.05-4.07,0-6.75-2.27-6.75-6.83V6.53h2.16v9.01c0,3.39,1.76,5.11,4.8,5.11,3.34,0,5.44-2.15,5.44-5.78V6.53h2.16Z"/>
            <path class="cls-1" d="M61.85,1.51c0-.82.7-1.51,1.58-1.51s1.58.67,1.58,1.48c0,.88-.67,1.57-1.58,1.57s-1.58-.7-1.58-1.54ZM62.34,6.53h2.16v15.91h-2.16V6.53Z"/>
            <path class="cls-1" d="M84.44,15.15h-13.37c.24,3.33,2.8,5.53,6.29,5.53,1.95,0,3.68-.7,4.89-2.09l1.22,1.39c-1.43,1.69-3.65,2.6-6.17,2.6-4.99,0-8.39-3.39-8.39-8.11s3.31-8.07,7.81-8.07,7.75,3.3,7.75,8.07c0,.18-.03.42-.03.67ZM71.06,13.55h11.34c-.27-3.11-2.55-5.29-5.68-5.29s-5.38,2.18-5.65,5.29ZM76.87,4.08h-2.13l4.16-3.75h2.89l-4.92,3.75Z"/>
            <path class="cls-1" d="M103.59,13.22v9.22h-2.16v-9.01c0-3.36-1.76-5.08-4.8-5.08-3.44,0-5.59,2.12-5.59,5.75v8.35h-2.16V6.53h2.07v2.93c1.15-1.94,3.31-3.05,6.08-3.05,3.89,0,6.57,2.24,6.57,6.8Z"/>
            <path class="cls-1" d="M123.43,15.15h-13.37c.24,3.33,2.8,5.53,6.29,5.53,1.95,0,3.68-.7,4.89-2.09l1.22,1.39c-1.43,1.69-3.65,2.6-6.17,2.6-4.98,0-8.39-3.39-8.39-8.11s3.31-8.07,7.81-8.07,7.75,3.3,7.75,8.07c0,.18-.03.42-.03.67ZM110.06,13.55h11.34c-.27-3.11-2.55-5.29-5.68-5.29s-5.38,2.18-5.65,5.29Z"/>
            <path class="cls-1" d="M125.65,20.63l.97-1.69c1.28,1,3.44,1.78,5.68,1.78,3.04,0,4.29-1.03,4.29-2.6,0-4.14-10.36-.88-10.36-7.17,0-2.6,2.25-4.54,6.32-4.54,2.07,0,4.32.57,5.65,1.48l-.94,1.72c-1.4-.97-3.07-1.36-4.71-1.36-2.89,0-4.16,1.12-4.16,2.63,0,4.29,10.36,1.06,10.36,7.17,0,2.75-2.43,4.54-6.6,4.54-2.64,0-5.2-.85-6.5-1.97Z"/>
            <path class="cls-1" d="M148.48,20.63l.97-1.69c1.28,1,3.43,1.78,5.68,1.78,3.04,0,4.29-1.03,4.29-2.6,0-4.14-10.37-.88-10.37-7.17,0-2.6,2.25-4.54,6.32-4.54,2.07,0,4.32.57,5.65,1.48l-.94,1.72c-1.4-.97-3.07-1.36-4.71-1.36-2.89,0-4.16,1.12-4.16,2.63,0,4.29,10.36,1.06,10.36,7.17,0,2.75-2.43,4.54-6.6,4.54-2.64,0-5.2-.85-6.5-1.97Z"/>
            <path class="cls-1" d="M163.95,14.49c0-4.72,3.47-8.07,8.15-8.07s8.12,3.36,8.12,8.07-3.43,8.11-8.12,8.11-8.15-3.39-8.15-8.11ZM178.02,14.49c0-3.72-2.52-6.2-5.93-6.2s-5.96,2.48-5.96,6.2,2.55,6.2,5.96,6.2,5.93-2.48,5.93-6.2Z"/>
            <path class="cls-1" d="M211,13.22v9.22h-2.16v-9.01c0-3.36-1.7-5.08-4.59-5.08-3.28,0-5.35,2.12-5.35,5.75v8.35h-2.16v-9.01c0-3.36-1.7-5.08-4.62-5.08-3.25,0-5.35,2.12-5.35,5.75v8.35h-2.16V6.53h2.07v2.9c1.12-1.91,3.19-3.02,5.87-3.02s4.71,1.12,5.68,3.36c1.15-2.06,3.43-3.36,6.32-3.36,3.89,0,6.44,2.24,6.44,6.8Z"/>
            <path class="cls-1" d="M215.32,14.49c0-4.72,3.46-8.07,8.15-8.07s8.12,3.36,8.12,8.07-3.43,8.11-8.12,8.11-8.15-3.39-8.15-8.11ZM229.39,14.49c0-3.72-2.52-6.2-5.93-6.2s-5.96,2.48-5.96,6.2,2.55,6.2,5.96,6.2,5.93-2.48,5.93-6.2Z"/>
            <path class="cls-1" d="M233.77,20.63l.97-1.69c1.28,1,3.44,1.78,5.68,1.78,3.04,0,4.29-1.03,4.29-2.6,0-4.14-10.36-.88-10.36-7.17,0-2.6,2.25-4.54,6.32-4.54,2.07,0,4.32.57,5.65,1.48l-.94,1.72c-1.4-.97-3.07-1.36-4.71-1.36-2.89,0-4.16,1.12-4.16,2.63,0,4.29,10.36,1.06,10.36,7.17,0,2.75-2.43,4.54-6.6,4.54-2.64,0-5.2-.85-6.5-1.97Z"/>
            <path class="cls-1" d="M260,6.68c0-2.18-1.79-3.69-4.89-3.69-2.58,0-4.47.85-5.81,2.45l-1.61-1.21c1.64-2,4.16-3.15,7.57-3.15,4.25,0,6.99,2.03,6.99,5.26,0,5.17-5.56,5.41-5.56,9.74h-2.25c0-4.99,5.56-5.44,5.56-9.41ZM253.98,21.02c0-.88.7-1.54,1.58-1.54s1.61.67,1.61,1.54-.7,1.57-1.61,1.57-1.58-.73-1.58-1.57Z"/>
          </g>
        </g>
      </g>
    </g>
  </g>
</svg>