<?xml version="1.0" encoding="UTF-8"?>
<svg id="Capa_2" data-name="Capa 2" xmlns="http://www.w3.org/2000/svg" viewBox="0 0 57.28 57.28">
  <defs>
    <style>
      .cls-1 {
        fill: #f1b649;
      }
    </style>
  </defs>
  <g id="Ordenador_escritorio" data-name="Ordenador escritorio">
    <g id="_3_Opciones" data-name="3 Opciones">
      <g>
        <path class="cls-1" d="M0,28.64c0,15.79,12.85,28.64,28.64,28.64s28.64-12.85,28.64-28.64S44.43,0,28.64,0,0,12.85,0,28.64ZM53.7,28.64c0,13.82-11.24,25.06-25.06,25.06S3.58,42.46,3.58,28.64,14.82,3.58,28.64,3.58s25.06,11.24,25.06,25.06Z"/>
        <path class="cls-1" d="M16.64,32.75c-.7.7-.7,1.83,0,2.53s1.83.7,2.53,0l9.47-9.47,9.47,9.47c.7.7,1.83.7,2.53,0,.35-.35.52-.81.52-1.27,0-.46-.17-.92-.52-1.27l-10.74-10.74c-.7-.7-1.83-.7-2.53,0l-10.74,10.74Z"/>
      </g>
    </g>
  </g>
</svg>