<?xml version="1.0" encoding="UTF-8"?>
<svg id="Capa_2" data-name="Capa 2" xmlns="http://www.w3.org/2000/svg" viewBox="0 0 157.18 152.96">
  <defs>
    <style>
      .cls-1 {
        fill: #688c4f;
      }
    </style>
  </defs>
  <g id="Slide_2" data-name="Slide 2">
    <g id="Carrusel_IMG_2_R" data-name="Carrusel IMG 2 R">
      <path class="cls-1" d="M156.63,89.89c-1.09-2.57-3.58-4.22-6.36-4.22h-.11c-15.89.26-28.79,2.8-39.42,7.77-2.97,1.39-5.82,3.05-8.57,4.9,0,0,.02-.01.03-.02,1.69-1.66,2.37-4.24,1.83-6.9-.22-1.08-.61-2.07-1.06-2.98,4.14-3.27,6.33-8.93,5.4-14.13,1.23-.91,2.35-2.02,3.18-3.43.96-1.64,1.39-3.41,1.77-4.97l.5-2.06c.53-2.19,1.19-4.92.46-7.71-.3-1.14-.89-2.25-1.68-3.18,1.55-1.5,2.69-3.43,3.16-5.55.68-3.08-.08-6.41-1.93-8.95,2-2.89,2.58-6.68,1.66-10.06.12-.13.25-.24.34-.4,1.26-2.27,1.3-5.17.13-7.73-1.18-2.57-3.41-4.42-5.95-4.95-2.55-.53-5.33.29-7.43,2.17-1.33,1.19-2.26,2.7-2.7,4.31-3.17.39-6.17,2.07-8.09,4.65-1.83,2.46-2.59,5.63-2.19,8.66-2.42.85-4.58,2.39-6.16,4.45-1.81,2.36-2.68,5.13-3.45,7.58l-3.14,10.03c-.43,1.38-1.4,4.56-.25,7.29-.83,1.02-1.52,2.15-2.04,3.36-.05-1.62-.36-3.23-.92-4.76,2.24-2.32,2.45-5.98,2.52-7.56l.52-11.54c.12-2.8.26-5.96-.71-9.03-.86-2.74-2.55-5.15-4.77-6.92,1.6-2.95,2.03-6.52,1.07-9.76-1.01-3.37-3.5-6.21-6.64-7.75.18-1.82-.2-3.75-1.13-5.5-1.43-2.66-3.92-4.49-6.66-4.89-2.75-.4-5.66.65-7.78,2.8-2.12,2.15-3.13,5.07-2.7,7.81.04.23.14.42.23.62-2.27,3.15-3.08,7.35-2.04,11.09-2.88,1.88-4.94,5.02-5.39,8.44-.31,2.39.17,4.85,1.27,6.99-1.23.64-2.3,1.59-3.06,2.7-1.77,2.56-2.11,5.58-2.38,8.01l-.26,2.31c-.19,1.74-.41,3.7-.04,5.73.33,1.79,1.09,3.38,2.05,4.79-2.97,5.02-2.83,11.75.31,16.66-.84.8-1.66,1.69-2.33,2.77-.04.06-.06.13-.09.2-6.25-7.38-14.86-13.91-26.33-19.89-2.3-1.2-5.06-.89-7.03.8-1.97,1.68-2.71,4.35-1.89,6.81.26.76.48,1.39.67,1.79,1.65,3.71,3.38,7.38,5.13,10.92,3.46,7,7.21,13.92,11.15,20.54,7.89,13.25,16.74,25.71,26.31,37.03.24.28.58.71.98,1.22,4.53,5.68,7.53,8.82,10.17,9.24.07.73.33,1.45.88,2.09.82.96,1.96,1.4,3.46,1.4,2.92,0,7.24-1.68,13.35-4.51.7-.32,1.27-.59,1.67-.76,15.75-6.74,31.34-15.04,46.35-24.66,7.47-4.79,14.93-9.99,22.16-15.46,3.67-2.78,7.36-5.68,10.94-8.63.4-.32.95-.85,1.6-1.49,2-1.99,2.58-4.96,1.48-7.57ZM73.57,89.29c.31-.62.61-1.25.81-1.87.46-1.41.48-2.79.39-4.09.74-1.57,1.58-3.54,1.42-5.7,0-.03-.01-.06-.02-.1.63,0,1.24-.22,1.72-.64.69-.61,1.01-1.53.84-2.43-.68-3.76,1.8-8,5.42-9.26,1.37-.48,2.09-1.97,1.61-3.34-.48-1.36-1.96-2.09-3.34-1.61-.38.13-.73.32-1.1.48.08-.53.22-1.18.49-2.02l3.14-10.03c.67-2.13,1.36-4.34,2.6-5.96,1.31-1.71,3.37-2.86,5.5-3.1.83-.09,1.56-.57,1.98-1.28.42-.72.47-1.59.15-2.35-.88-2.06-.57-4.65.76-6.44,1.34-1.8,3.7-2.85,5.95-2.58.78.08,1.57-.18,2.13-.74.56-.56.85-1.33.77-2.12-.09-.94.38-1.96,1.25-2.74.87-.78,1.93-1.15,2.87-.94.92.19,1.77.94,2.26,2,.19.42.29.84.34,1.26-.51.02-1.02.14-1.45.47-1.16.86-1.4,2.51-.54,3.67,1.86,2.5,1.41,6.64-.95,8.68-.59.51-.92,1.25-.91,2.02.01.78.37,1.5.96,1.99,1.63,1.33,2.45,3.69,2,5.74-.45,2.05-2.19,3.85-4.23,4.37-1.36.35-2.21,1.71-1.92,3.08.29,1.37,1.6,2.27,3.01,2.04.51-.11,1.45.7,1.72,1.71.4,1.5-.07,3.44-.48,5.14l-.5,2.05c-.32,1.33-.62,2.58-1.2,3.55-1.33,2.25-4.32,3.45-7.53,4.57-1.36.48-2.09,1.97-1.61,3.34.38,1.08,1.39,1.76,2.47,1.76.29,0,.58-.05.86-.15.64-.23,1.37-.48,2.11-.77-.09,3.36-2.03,6.78-5.02,8.25-.65.32-1.15.91-1.35,1.61-.21.7-.11,1.46.26,2.08.7,1.18,1.43,2.41,1.67,3.57.18.86.03,1.72-.37,2.11-.73.71-2.73.58-3.81.5l-6.88-.48c-1.14-.08-2.55-.18-3.23-.67-.52-.51-1.23-2.34-1.26-3.16.61-1.04.43-2.4-.49-3.25-1.06-.98-2.72-.91-3.7.16-.82.9-1.16,2.14-1.01,3.7.05.51.16,1.07.32,1.65-.71-.18-1.43-.37-2.14-.56-1.75-.46-2.65-.99-3.05-1.36,0-.38-.01-.74-.05-1.1.11-.24.22-.48.34-.73ZM100.58,99.45c-7.6,5.36-14.5,12.11-21.21,18.85,2.98-6.39,5.67-12.85,7.65-18.51.14.01.31.03.44.04l6.89.48c.5.03,1.12.08,1.8.08,1.36,0,2.97-.19,4.43-.94ZM48.67,136.96c-.45-.56-.82-1.02-1.08-1.34-9.39-11.1-18.07-23.33-25.81-36.33-3.87-6.51-7.56-13.3-10.96-20.19-1.72-3.47-3.41-7.08-5.04-10.74-.13-.3-.29-.76-.48-1.32-.2-.6.12-.98.32-1.16.14-.12.38-.27.7-.27.15,0,.32.04.51.13,11.56,6.02,20.02,12.55,25.88,19.95,5.24,6.63,7.41,15.13,9.7,24.13,1.05,4.13,2.14,8.41,3.57,12.65.9,2.67,2.17,5.34,3.41,7.93,1.95,4.1,3.97,8.34,4.5,12.54-1.25-1.22-2.99-3.22-5.21-6ZM54.11,128.17c-1.22-2.56-2.37-4.98-3.17-7.35-1.36-4.06-2.43-8.24-3.46-12.28-1.34-5.25-2.65-10.32-4.53-15.09l6.52,1.87c1.09.31,2.43.67,3.87.76.19.19.39.37.63.49-.12,7.04.24,13.5.67,20.88.24,4.08.5,8.45.69,13.33-.4-.87-.81-1.74-1.22-2.61ZM58.87,84.83c-1.18.49-1.82,1.75-1.56,2.96-.3.87-1.87,2.67-2.59,2.98-.97.29-2.25-.04-3.82-.49l-7.29-2.09c-1.75-.5-3.44-1.1-3.91-2.08-.3-.63-.13-1.66.42-2.56.71-1.15,1.94-2.16,3.12-3.13.57-.46.91-1.14.95-1.87s-.22-1.44-.72-1.97c-2.69-2.81-3.39-7.36-2.02-11.02.76.68,1.5,1.29,2.17,1.83.49.4,1.07.59,1.65.59.76,0,1.51-.33,2.03-.96.92-1.12.75-2.77-.37-3.68-2.93-2.39-5.61-4.79-6.15-7.7-.23-1.26-.07-2.68.09-4.19l.26-2.31c.21-1.94.46-4.14,1.48-5.61.69-1,2.06-1.59,2.76-1.2,1.23.7,2.78.3,3.52-.89.74-1.19.41-2.76-.75-3.55-1.99-1.35-3.16-3.96-2.84-6.34.31-2.38,2.12-4.6,4.39-5.39.73-.26,1.31-.82,1.59-1.55.28-.72.22-1.53-.16-2.21-1.73-3.1-.61-7.71,2.36-9.67,1.21-.8,1.54-2.42.75-3.63-.36-.54-.89-.88-1.47-1.04.22-.52.54-1.03.99-1.48.96-.97,2.18-1.46,3.3-1.3,1.11.16,2.15.98,2.8,2.18.64,1.2.74,2.53.26,3.54-.34.71-.34,1.54,0,2.25s.98,1.23,1.75,1.42c2.48.6,4.63,2.64,5.36,5.08.73,2.44.05,5.33-1.69,7.19-.57.61-.81,1.45-.66,2.26.15.82.68,1.51,1.42,1.88,2.18,1.07,3.92,3.1,4.65,5.42.69,2.18.58,4.75.47,7.22l-.52,11.54c-.05,1.22-.19,2.12-.36,2.77-.4-.43-.81-.85-1.28-1.22-1.12-.91-2.77-.74-3.69.38-.91,1.12-.74,2.77.38,3.69,3.36,2.73,4.36,8.18,2.2,11.91-.46.79-.47,1.77-.04,2.57.44.8,1.27,1.32,2.18,1.36.05,0,.25.12.45.5.12.23.2.47.21.72.08,1.11-.59,2.49-1.18,3.71-.05.1-.08.21-.12.32-.02.06-.05.11-.06.17-.07.23-.11.47-.11.72,0,.05.02.08.03.13,0,.04-.02.08-.01.13.11,1.11.13,1.99-.11,2.73-.12.38-.32.75-.5,1.12-.27.54-.52,1.09-.71,1.65,0,.02-.02.04-.02.06-.02.06-.06.12-.08.18-.02.06-.04.12-.05.19-.2.67-.28,1.33-.24,2.02.02.24.11.45.16.67-.29.53-1.69.95-4.32.7l-2.87-.27c.49-.64.91-1.3,1.2-1.91.71-1.48.83-2.82.34-3.99-.56-1.34-2.08-1.96-3.43-1.41ZM59.2,97.25l3.94.37c.68.06,1.31.09,1.9.09,2.98,0,4.87-.77,6.09-1.77,1.06.65,2.32,1.2,3.89,1.61,2.22.57,4.42,1.14,6.63,1.72-3.59,9.91-9.23,22.17-14.63,31.65-2.08,2.28-4.19,4.73-6.22,7.34-.17-8.22-.57-14.99-.93-21.13-.41-7.05-.75-13.26-.67-19.88ZM151.45,93.74c-.5.49-.91.9-1.22,1.15-3.54,2.9-7.17,5.77-10.79,8.5-7.12,5.39-14.46,10.51-21.82,15.23-14.77,9.46-30.1,17.62-45.59,24.25-.43.18-1.05.47-1.81.82-4.46,2.06-7.67,3.34-9.58,3.82.15-.25.33-.54.55-.87,2.96-4.46,6.42-8.62,9.79-12.31,0,0,0,0,0-.01,2.24-2.45,4.45-4.71,6.43-6.68,1.4-1.39,2.79-2.79,4.18-4.19,10.16-10.22,19.75-19.86,31.35-25.28,9.95-4.65,22.14-7.03,37.28-7.28h.03c.99,0,1.4.71,1.53,1.02s.36,1.11-.35,1.82Z"/>
    </g>
  </g>
</svg>