<?xml version="1.0" encoding="UTF-8"?>
<svg id="Capa_2" data-name="Capa 2" xmlns="http://www.w3.org/2000/svg" viewBox="0 0 714.05 169.05">
  <defs>
    <style>
      .cls-1 {
        fill: #657332;
      }

      .cls-2 {
        fill: #263530;
      }
    </style>
  </defs>
  <g id="Slide_2" data-name="Slide 2">
    <g id="Carrusel_IMG_2" data-name="Carrusel IMG 2">
      <g>
        <path class="cls-1" d="M145.47,29.04c.21.04.36.06.44.07.08,0,.17,0,.25,0,1.32,0,2.91-1.56,4.76-4.68.48-.83.87-1.47,1.16-1.93l5.39-8.85c1.4-2.31,2.62-4.37,3.66-6.17,1.04-1.81,1.78-3.18,2.22-4.11h4.35c.1,1.09.24,2.2.4,3.34s.41,2.62.74,4.44l1.93,11.19c.07.37.15.87.26,1.51.56,3.47,1.49,5.21,2.77,5.21.16,0,.28,0,.36,0s.16-.02.23-.03l-.24,1.65c-1.22-.08-2.29-.14-3.21-.18s-1.68-.06-2.28-.06c-.7,0-1.52.02-2.47.06-.95.04-2.04.1-3.27.18l.28-1.65h.53c1.01,0,1.7-.15,2.06-.44s.55-.84.55-1.64c0-.17,0-.33-.02-.47-.01-.14-.03-.3-.06-.47l-.77-5.07c-.84-.01-1.8-.03-2.89-.05-1.09-.02-1.72-.03-1.91-.03-.84,0-1.64,0-2.4,0-.76,0-1.56.02-2.4.05l-2.42,4.38c-.31.58-.55,1.07-.7,1.46-.15.4-.23.74-.23,1.03,0,.39.18.7.55.91.37.22.88.33,1.55.33h.43l-.28,1.65c-1.06-.08-2-.14-2.8-.18s-1.48-.06-2.04-.06-1.2.02-1.99.06c-.79.04-1.72.1-2.79.18l.28-1.65ZM157.19,18.74h2.34c1.55,0,2.7,0,3.46,0,.76,0,1.47-.02,2.12-.05l-1.65-10.81-6.27,10.87Z"/>
        <path class="cls-1" d="M188.75,25.98c-1.81,1.87-3.3,3.21-4.48,3.99-1.18.79-2.25,1.18-3.21,1.18-1.09,0-1.97-.54-2.65-1.61-.68-1.07-1.02-2.5-1.02-4.27,0-1.91.34-3.74,1.02-5.49s1.66-3.32,2.93-4.72c1.06-1.17,2.21-2.05,3.44-2.65,1.23-.6,2.52-.89,3.85-.89.64,0,1.27.08,1.87.24.6.16,1.22.4,1.87.73l3.3-1.4c-.5,2.35-1.02,5.19-1.55,8.53-.07.37-.11.64-.14.81l-1.2,7.37-.26,1.55c-.77,4.84-1.16,7.52-1.16,8.06,0,.66.15,1.11.45,1.36.3.25.85.37,1.65.37h.43l-.35,1.65c-.1,0-.27,0-.49-.02-2.23-.09-3.84-.14-4.84-.14-.54,0-1.24.02-2.1.06s-1.88.1-3.05.18l.37-1.73h.59c1.67,0,2.7-1.19,3.11-3.58.01-.12.03-.22.04-.3l1.57-9.3ZM189.1,23.44l1.42-8.46c-.67-.38-1.24-.65-1.7-.81-.46-.16-.91-.24-1.33-.24-.85,0-1.58.26-2.19.77-.61.51-1.16,1.34-1.66,2.5-.47,1.05-.85,2.23-1.12,3.54-.27,1.31-.41,2.55-.41,3.72,0,1.04.12,1.82.37,2.36.25.54.61.81,1.08.81.43,0,1.03-.28,1.79-.84.76-.56,2.01-1.67,3.76-3.35Z"/>
        <path class="cls-1" d="M218.52,27.31l-2.54,2.22c-.65.55-1.24.96-1.75,1.22-.51.26-1,.39-1.47.39-.77,0-1.4-.31-1.89-.93-.49-.62-.73-1.45-.73-2.47,0-.34.01-.69.04-1.04.03-.35.07-.7.12-1.04-2.33,2.27-4.04,3.78-5.12,4.52-1.08.75-1.99,1.12-2.72,1.12-.88,0-1.62-.39-2.21-1.18-.6-.79-.89-1.79-.89-3.01,0-1.07.37-3.07,1.12-6,.09-.35.16-.63.22-.83.33-1.3.56-2.26.71-2.89.14-.63.22-1.04.22-1.24,0-.35-.07-.63-.2-.82-.13-.19-.32-.29-.57-.29-.18,0-.5.09-.96.27-.46.18-.96.43-1.49.75l-.53-1.38.65-.41c2.7-1.74,4.42-2.62,5.15-2.62s1.33.28,1.78.84c.45.56.68,1.29.68,2.19,0,1.11-.35,2.92-1.04,5.43-.7,2.5-1.04,4.28-1.04,5.33,0,.52.09.92.28,1.18.18.26.47.39.85.39.43,0,1.1-.33,2.01-.98s2.04-1.64,3.42-2.97c.33-1.51.64-3.1.94-4.79.3-1.68.62-3.57.96-5.65l4.92-.96c-.14.52-.35,1.39-.62,2.6s-.59,2.73-.95,4.58l-.49,2.38c-.28,1.39-.48,2.5-.61,3.33s-.2,1.45-.2,1.86c0,.37.06.65.19.83.12.19.3.29.54.29.22,0,.56-.14,1.01-.43.45-.29,1-.72,1.64-1.3l.61,1.5Z"/>
        <path class="cls-1" d="M229.55,25.78l.67,1.53c-1.66,1.56-2.93,2.61-3.79,3.15-.87.54-1.66.81-2.4.81-.8,0-1.43-.28-1.89-.85-.46-.56-.69-1.34-.69-2.34,0-.85.36-2.71,1.08-5.58.09-.37.16-.64.2-.81.37-1.46.64-2.63.83-3.54s.28-1.55.28-1.95c0-.33-.08-.59-.26-.8-.17-.2-.39-.3-.67-.3-.22,0-.5.07-.85.22-.34.14-.79.39-1.34.73l-.65-1.38,2.71-1.77c.62-.42,1.2-.73,1.74-.94.54-.21,1.03-.31,1.46-.31.8,0,1.44.26,1.92.77.48.51.72,1.2.72,2.06,0,.64-.29,2.14-.88,4.48-.24.93-.41,1.67-.53,2.2-.37,1.51-.63,2.66-.78,3.46-.15.8-.23,1.38-.23,1.73s.07.65.2.86.32.3.57.3.57-.13.96-.39c.39-.26.93-.71,1.61-1.34ZM229.65.61l3.48,1.69-7.02,7.06-1.57-.69,5.11-8.06Z"/>
        <path class="cls-1" d="M253.95,27.31l-1.65,1.49c-.93.84-1.73,1.45-2.39,1.82-.66.37-1.28.56-1.84.56-.8,0-1.46-.36-1.97-1.09s-.77-1.67-.77-2.82c0-.86.29-2.73.87-5.58.33-1.6.58-2.86.75-3.79l.55-3.19c.62-3.28,1.07-5.77,1.36-7.49.29-1.72.43-2.82.43-3.3,0-.38-.12-.67-.34-.88-.23-.21-.55-.31-.95-.31-.14,0-.41.01-.79.04-.14.01-.26.03-.33.04l-.22-1.49c1.26-.13,2.56-.3,3.9-.52,1.34-.22,2.73-.47,4.16-.78-2.07,10.58-3.39,17.43-3.95,20.56-.56,3.13-.85,5.02-.85,5.67,0,.42.08.75.25.99.16.24.38.36.64.36.14,0,.34-.07.58-.21s.52-.34.84-.6l1.12-.92.61,1.46Z"/>
        <path class="cls-1" d="M274.4,11.21c-.85,4.37-1.47,7.75-1.87,10.15-.39,2.4-.59,4.04-.59,4.92,0,.41.07.71.21.92s.34.31.6.31c.2,0,.45-.1.76-.31s.9-.71,1.78-1.49l.65,1.57-1.32,1.24c-1.1,1.02-1.99,1.74-2.65,2.16-.67.42-1.27.63-1.79.63-.84,0-1.49-.32-1.94-.95s-.68-1.54-.68-2.72c0-.21,0-.47.03-.8.02-.32.05-.68.09-1.07-2.33,2.19-4.05,3.64-5.14,4.36s-2.06,1.07-2.9,1.07c-1.1,0-1.97-.48-2.61-1.43-.64-.96-.95-2.27-.95-3.93s.27-3.27.81-4.82c.54-1.55,1.32-2.99,2.34-4.33,1.23-1.6,2.61-2.84,4.12-3.72,1.51-.88,3.04-1.32,4.59-1.32.51,0,1.02.06,1.53.17.51.11,1.04.29,1.59.52l3.34-1.12ZM269.33,14.94c-.47-.33-.92-.56-1.35-.71s-.86-.22-1.31-.22c-1.5,0-2.86,1.1-4.1,3.3s-1.86,4.71-1.86,7.53c0,.9.12,1.59.35,2.04.24.46.59.69,1.06.69.41,0,1.08-.35,2.02-1.05.94-.7,2.17-1.79,3.69-3.25.2-.94.41-2.07.65-3.37s.52-2.96.85-4.96Z"/>
        <path class="cls-1" d="M289.54,31.23c.24-1.05.47-2.17.7-3.36.23-1.19.51-2.71.84-4.54l.41-2.24c.16-.97.28-1.81.37-2.51s.14-1.24.14-1.6c0-.52-.08-.91-.24-1.14-.16-.24-.41-.35-.77-.35-.24,0-.52.07-.85.2-.33.13-.69.32-1.08.57l-.61-1.42c.45-.3,1.05-.72,1.81-1.26,1.9-1.36,3.19-2.04,3.87-2.04s1.29.3,1.76.9c.46.6.7,1.38.7,2.32,0,.39-.08,1.11-.24,2.16-.04.26-.07.47-.1.61.24-.24.57-.59,1-1.06,3.13-3.29,5.27-4.94,6.41-4.94.94,0,1.69.39,2.24,1.18.55.79.83,1.87.83,3.25,0,.26,0,.52-.03.79-.02.26-.05.54-.09.83l.77-.83c3.24-3.47,5.47-5.21,6.71-5.21.98,0,1.77.35,2.35,1.04.58.7.88,1.64.88,2.83,0,1.26-.32,3.16-.94,5.71-.63,2.55-.94,4.34-.94,5.36,0,.35.07.64.22.85s.33.31.55.31.54-.15.96-.45.94-.75,1.57-1.36l.65,1.5-.2.18c-2.69,2.49-4.5,3.74-5.45,3.74-.88,0-1.56-.33-2.05-.98-.48-.66-.73-1.57-.73-2.73,0-1.25.28-3.09.85-5.54.56-2.45.85-4.2.85-5.25,0-.37-.08-.67-.23-.89s-.34-.34-.58-.34c-.6,0-1.99,1.02-4.15,3.07-.56.53-1.01.94-1.34,1.24-.08.5-.2,1.22-.37,2.16-.7,4.01-1.12,6.78-1.28,8.3l-4.78.98c1.07-5.57,1.75-9.21,2.04-10.92.28-1.71.42-2.91.42-3.59,0-.37-.08-.67-.26-.89s-.39-.34-.65-.34c-.59,0-1.95.99-4.07,2.97-.62.58-1.09,1.02-1.44,1.34-.45,2.32-.8,4.32-1.07,5.99-.27,1.67-.48,3.15-.62,4.43l-4.76,1.02Z"/>
        <path class="cls-1" d="M331.5,20.67l-5.88,2.81v.53c0,1.23.25,2.2.74,2.9.49.7,1.17,1.05,2.04,1.05.64,0,1.4-.25,2.28-.76s1.99-1.33,3.32-2.47l.77,1.65c-1.81,1.71-3.4,2.95-4.76,3.74s-2.61,1.18-3.74,1.18c-1.61,0-2.91-.63-3.89-1.89-.98-1.26-1.47-2.94-1.47-5.05,0-1.36.26-2.82.79-4.38.52-1.56,1.22-2.93,2.08-4.11,1.01-1.39,2.16-2.46,3.45-3.21,1.29-.75,2.61-1.13,3.96-1.13,1.43,0,2.63.43,3.61,1.29.98.86,1.46,1.89,1.46,3.1,0,1.63-1.56,3.2-4.68,4.72l-.08.04ZM325.7,21.55l.2-.1c4.22-2.12,6.33-3.83,6.33-5.13,0-.63-.23-1.18-.69-1.66-.46-.48-1-.72-1.61-.72-1,0-1.87.67-2.62,2-.75,1.33-1.29,3.2-1.61,5.61Z"/>
        <path class="cls-1" d="M338.58,31.23c.24-1.05.47-2.17.7-3.36.23-1.19.51-2.71.84-4.54l.41-2.24c.16-.97.28-1.81.37-2.51.09-.7.14-1.24.14-1.6,0-.52-.08-.91-.24-1.14-.16-.24-.41-.35-.77-.35-.24,0-.52.07-.85.2-.33.13-.69.32-1.08.57l-.61-1.42c.45-.3,1.05-.72,1.81-1.26,1.9-1.36,3.19-2.04,3.87-2.04s1.29.3,1.76.9c.47.6.7,1.38.7,2.32,0,.39-.08,1.11-.24,2.16-.04.26-.07.47-.1.61.24-.24.57-.59,1-1.06,3.13-3.29,5.27-4.94,6.41-4.94.94,0,1.69.39,2.24,1.18.55.79.83,1.87.83,3.25,0,.26,0,.52-.03.79-.02.26-.05.54-.09.83l.77-.83c3.24-3.47,5.47-5.21,6.71-5.21.98,0,1.77.35,2.35,1.04.58.7.88,1.64.88,2.83,0,1.26-.31,3.16-.94,5.71s-.94,4.34-.94,5.36c0,.35.07.64.22.85.14.21.33.31.55.31s.54-.15.96-.45c.42-.3.94-.75,1.57-1.36l.65,1.5-.2.18c-2.69,2.49-4.5,3.74-5.45,3.74-.88,0-1.56-.33-2.04-.98-.49-.66-.73-1.57-.73-2.73,0-1.25.28-3.09.85-5.54.56-2.45.85-4.2.85-5.25,0-.37-.08-.67-.23-.89-.15-.23-.34-.34-.58-.34-.6,0-1.99,1.02-4.15,3.07-.56.53-1.01.94-1.34,1.24-.08.5-.2,1.22-.37,2.16-.69,4.01-1.12,6.78-1.28,8.3l-4.78.98c1.08-5.57,1.75-9.21,2.04-10.92.28-1.71.42-2.91.42-3.59,0-.37-.09-.67-.26-.89s-.39-.34-.65-.34c-.59,0-1.95.99-4.07,2.97-.62.58-1.1,1.02-1.44,1.34-.45,2.32-.8,4.32-1.07,5.99-.27,1.67-.47,3.15-.62,4.43l-4.76,1.02Z"/>
        <path class="cls-1" d="M370.12,23.93c0-1.78.37-3.51,1.11-5.17.74-1.67,1.79-3.12,3.16-4.37,1.01-.94,2.11-1.66,3.29-2.14,1.19-.48,2.41-.73,3.67-.73,2.16,0,3.86.65,5.1,1.95,1.24,1.3,1.86,3.08,1.86,5.35,0,3.38-1.1,6.32-3.29,8.8s-4.83,3.73-7.89,3.73c-2.16,0-3.87-.67-5.12-2-1.25-1.33-1.88-3.14-1.88-5.42ZM378.12,28.96c1.5,0,2.75-1,3.78-3.01,1.02-2,1.53-4.48,1.53-7.41,0-1.51-.26-2.65-.77-3.43-.51-.78-1.26-1.17-2.24-1.17-1.55,0-2.84.98-3.88,2.94-1.04,1.96-1.56,4.43-1.56,7.4,0,1.53.27,2.7.81,3.49s1.32,1.19,2.34,1.19Z"/>
        <path class="cls-1" d="M391.2,31.23c.84-3.38,1.51-6.41,2-9.08.5-2.67.75-4.47.75-5.4,0-.46-.09-.82-.28-1.08-.18-.26-.43-.39-.75-.39-.29,0-.92.31-1.89.92-.14.08-.25.14-.31.2l-.69-1.46.06-.04c2.97-2.2,4.9-3.3,5.78-3.3.72,0,1.26.26,1.62.78.36.52.54,1.28.54,2.29,0,.47-.04,1.04-.12,1.71-.08.67-.2,1.46-.35,2.36,1.77-2.9,3.09-4.8,3.96-5.72.87-.92,1.7-1.38,2.49-1.38.52,0,.96.19,1.3.57s.51.88.51,1.49c0,.34-.12.79-.36,1.35-.24.56-.63,1.28-1.17,2.15-.29-.35-.58-.62-.87-.79s-.58-.26-.87-.26c-.56,0-1.2.35-1.91,1.06-.71.71-1.66,1.95-2.85,3.72-.43,1.77-.8,3.42-1.09,4.96-.29,1.54-.52,3.01-.68,4.39l-4.84.92Z"/>
        <path class="cls-1" d="M416.47,25.78l.67,1.53c-1.67,1.56-2.93,2.61-3.79,3.15-.87.54-1.67.81-2.4.81-.8,0-1.43-.28-1.89-.85s-.69-1.34-.69-2.34c0-.85.36-2.71,1.08-5.58.09-.37.16-.64.2-.81.37-1.46.64-2.63.83-3.54s.28-1.55.28-1.95c0-.33-.09-.59-.26-.8-.17-.2-.39-.3-.67-.3-.22,0-.5.07-.84.22-.34.14-.79.39-1.34.73l-.65-1.38,2.71-1.77c.62-.42,1.2-.73,1.74-.94.54-.21,1.03-.31,1.46-.31.8,0,1.44.26,1.92.77.48.51.72,1.2.72,2.06,0,.64-.29,2.14-.88,4.48-.24.93-.41,1.67-.53,2.2-.37,1.51-.62,2.66-.78,3.46-.15.8-.23,1.38-.23,1.73s.07.65.2.86.32.3.57.3.57-.13.96-.39c.39-.26.93-.71,1.61-1.34ZM415.74.41l1.46,1.46c.33.33.57.64.73.93s.24.6.24.92c0,.38-.13.73-.39,1.04-.26.31-.67.62-1.22.92l-1.99,1.08-1.36-1.48-.08-.08c-.62-.67-.92-1.25-.92-1.73,0-.39.12-.75.37-1.08.25-.33.63-.63,1.14-.91l2.03-1.08Z"/>
        <path class="cls-1" d="M437.68,11.21c-.85,4.37-1.47,7.75-1.87,10.15-.39,2.4-.59,4.04-.59,4.92,0,.41.07.71.21.92s.34.31.6.31c.2,0,.45-.1.76-.31s.9-.71,1.78-1.49l.65,1.57-1.32,1.24c-1.1,1.02-1.99,1.74-2.65,2.16-.67.42-1.27.63-1.79.63-.84,0-1.49-.32-1.94-.95s-.68-1.54-.68-2.72c0-.21,0-.47.03-.8.02-.32.05-.68.09-1.07-2.33,2.19-4.05,3.64-5.14,4.36s-2.06,1.07-2.9,1.07c-1.1,0-1.97-.48-2.61-1.43-.64-.96-.95-2.27-.95-3.93s.27-3.27.81-4.82c.54-1.55,1.32-2.99,2.34-4.33,1.23-1.6,2.61-2.84,4.12-3.72,1.51-.88,3.04-1.32,4.59-1.32.51,0,1.02.06,1.53.17.51.11,1.04.29,1.59.52l3.34-1.12ZM432.61,14.94c-.47-.33-.92-.56-1.35-.71s-.86-.22-1.31-.22c-1.5,0-2.86,1.1-4.1,3.3s-1.86,4.71-1.86,7.53c0,.9.12,1.59.35,2.04.24.46.59.69,1.06.69.41,0,1.08-.35,2.02-1.05.94-.7,2.17-1.79,3.69-3.25.2-.94.41-2.07.65-3.37s.52-2.96.85-4.96Z"/>
        <path class="cls-1" d="M455.62,14.47c-.5,0-1,.01-1.5.03s-1.01.05-1.52.09l.35-1.85c.62-.05,1.17-.17,1.67-.34s.98-.44,1.44-.8c.97-3.58,2.44-6.37,4.42-8.38,1.97-2.01,4.22-3.01,6.73-3.01.6,0,1.15.06,1.65.19s.98.33,1.46.62c1-.24,1.85-.42,2.55-.54.7-.12,1.35-.21,1.96-.26-1.84,9.18-3.08,15.62-3.75,19.32-.66,3.7-.99,6-.99,6.89,0,.43.08.77.23,1.01.15.24.37.36.66.36.13,0,.32-.08.58-.23.26-.15.55-.36.88-.62l1-.84.59,1.43-1.59,1.5c-.9.81-1.69,1.41-2.36,1.8s-1.27.58-1.79.58c-.85,0-1.54-.35-2.07-1.04-.53-.7-.8-1.61-.8-2.75,0-.81.31-2.79.92-5.94.32-1.59.56-2.84.73-3.76l.61-3.48c.04-.22.12-.66.24-1.3.54-3.01,1.01-5.81,1.42-8.4-.51-.55-1.05-.96-1.61-1.22-.56-.26-1.18-.39-1.85-.39-1.55,0-2.72.68-3.53,2.04-.81,1.36-1.41,3.75-1.8,7.19.8,0,1.62,0,2.46-.03s1.68-.05,2.54-.09l-.35,2.26c-.49-.01-.95-.02-1.39-.03-.44,0-.85-.01-1.23-.01-.2,0-.55,0-1.05.02-.5.01-.92.02-1.25.02-1.04,7.71-1.93,13.04-2.69,15.99-.76,2.95-1.68,5.22-2.77,6.8-.92,1.31-1.88,2.29-2.87,2.94-1,.65-2.06.97-3.19.97-.81,0-1.5-.2-2.05-.61s-.84-.9-.84-1.49c0-.2.07-.41.2-.65.13-.24.32-.48.57-.73l.92-.88c.48.51.93.88,1.33,1.11s.8.34,1.21.34c1.04,0,1.82-.59,2.37-1.78.54-1.19,1.01-3.5,1.41-6.95l1.79-15.1Z"/>
        <path class="cls-1" d="M476.32,23.93c0-1.78.37-3.51,1.11-5.17.74-1.67,1.79-3.12,3.16-4.37,1.01-.94,2.11-1.66,3.29-2.14,1.19-.48,2.41-.73,3.67-.73,2.16,0,3.86.65,5.1,1.95,1.24,1.3,1.86,3.08,1.86,5.35,0,3.38-1.1,6.32-3.29,8.8s-4.83,3.73-7.89,3.73c-2.16,0-3.87-.67-5.12-2-1.25-1.33-1.88-3.14-1.88-5.42ZM484.33,28.96c1.5,0,2.75-1,3.78-3.01,1.02-2,1.53-4.48,1.53-7.41,0-1.51-.26-2.65-.77-3.43-.51-.78-1.26-1.17-2.24-1.17-1.55,0-2.84.98-3.88,2.94-1.04,1.96-1.56,4.43-1.56,7.4,0,1.53.27,2.7.81,3.49s1.32,1.19,2.34,1.19Z"/>
        <path class="cls-1" d="M497.4,31.23c.84-3.38,1.51-6.41,2-9.08.5-2.67.75-4.47.75-5.4,0-.46-.09-.82-.28-1.08-.18-.26-.43-.39-.75-.39-.29,0-.92.31-1.89.92-.14.08-.25.14-.31.2l-.69-1.46.06-.04c2.97-2.2,4.9-3.3,5.78-3.3.72,0,1.26.26,1.62.78.36.52.54,1.28.54,2.29,0,.47-.04,1.04-.12,1.71-.08.67-.2,1.46-.35,2.36,1.77-2.9,3.09-4.8,3.96-5.72.87-.92,1.7-1.38,2.49-1.38.52,0,.96.19,1.3.57s.51.88.51,1.49c0,.34-.12.79-.36,1.35-.24.56-.63,1.28-1.17,2.15-.29-.35-.58-.62-.87-.79s-.58-.26-.87-.26c-.56,0-1.2.35-1.91,1.06-.71.71-1.66,1.95-2.85,3.72-.43,1.77-.8,3.42-1.09,4.96-.29,1.54-.52,3.01-.68,4.39l-4.84.92Z"/>
        <path class="cls-1" d="M523.75,20.67l-5.88,2.81v.53c0,1.23.25,2.2.74,2.9s1.17,1.05,2.04,1.05c.64,0,1.4-.25,2.28-.76.88-.5,1.99-1.33,3.32-2.47l.77,1.65c-1.81,1.71-3.39,2.95-4.76,3.74s-2.61,1.18-3.74,1.18c-1.61,0-2.91-.63-3.89-1.89-.98-1.26-1.47-2.94-1.47-5.05,0-1.36.26-2.82.79-4.38.52-1.56,1.22-2.93,2.08-4.11,1.01-1.39,2.16-2.46,3.45-3.21,1.29-.75,2.61-1.13,3.96-1.13,1.43,0,2.63.43,3.61,1.29.98.86,1.46,1.89,1.46,3.1,0,1.63-1.56,3.2-4.68,4.72l-.08.04ZM517.95,21.55l.2-.1c4.22-2.12,6.33-3.83,6.33-5.13,0-.63-.23-1.18-.69-1.66s-1-.72-1.61-.72c-1,0-1.87.67-2.62,2-.75,1.33-1.29,3.2-1.61,5.61Z"/>
        <path class="cls-1" d="M543.96,15.71l-1.26,1.08c-.71-.88-1.32-1.49-1.83-1.84s-1.03-.52-1.55-.52c-1.3,0-2.35.82-3.15,2.45-.8,1.63-1.2,3.79-1.2,6.48,0,1.42.23,2.51.69,3.28s1.1,1.16,1.93,1.16c.55,0,1.24-.27,2.06-.81.83-.54,1.79-1.33,2.89-2.38l.88,1.81c-1.68,1.74-3.14,3-4.38,3.77-1.25.77-2.43,1.15-3.54,1.15-1.56,0-2.84-.67-3.83-2-1-1.33-1.49-3.07-1.49-5.22,0-1.7.34-3.39,1.02-5.04s1.63-3.12,2.85-4.38c1.02-1.06,2.13-1.86,3.33-2.39,1.2-.53,2.49-.8,3.88-.8,1.08,0,1.97.24,2.67.71s1.06,1.06,1.06,1.75c0,.31-.08.6-.24.87-.16.26-.43.55-.81.87Z"/>
        <path class="cls-1" d="M557,20.67l-5.88,2.81v.53c0,1.23.25,2.2.74,2.9.49.7,1.17,1.05,2.04,1.05.64,0,1.4-.25,2.28-.76s1.99-1.33,3.32-2.47l.77,1.65c-1.81,1.71-3.4,2.95-4.76,3.74s-2.61,1.18-3.74,1.18c-1.61,0-2.91-.63-3.89-1.89-.98-1.26-1.47-2.94-1.47-5.05,0-1.36.26-2.82.79-4.38.52-1.56,1.22-2.93,2.08-4.11,1.01-1.39,2.16-2.46,3.45-3.21,1.29-.75,2.61-1.13,3.96-1.13,1.43,0,2.63.43,3.61,1.29.98.86,1.46,1.89,1.46,3.1,0,1.63-1.56,3.2-4.68,4.72l-.08.04ZM551.2,21.55l.2-.1c4.22-2.12,6.33-3.83,6.33-5.13,0-.63-.23-1.18-.69-1.66-.46-.48-1-.72-1.61-.72-1,0-1.87.67-2.62,2-.75,1.33-1.29,3.2-1.61,5.61Z"/>
        <path class="cls-1" d="M568.07,23.81l1.38,1.36c.38.37.66.71.83,1.03s.26.67.26,1.03c0,.5-.14.92-.43,1.27s-.79.71-1.5,1.07l-1.87,1.12-1.4-1.53c-.46-.45-.76-.81-.89-1.08s-.21-.57-.21-.88c0-.5.15-.94.45-1.32.3-.38.77-.73,1.42-1.06l1.97-1Z"/>
        <path class="cls-2" d="M23.75,47.88c-.3.96-.55,1.91-.76,2.85-.2.94-.35,1.88-.44,2.81l-1.34-.2c.03-.22.05-.44.06-.65.01-.21.02-.42.02-.63,0-1.21-.58-2.16-1.74-2.86s-2.72-1.05-4.69-1.05c-3.43,0-6.12,1.21-8.05,3.64-1.93,2.43-2.9,5.78-2.9,10.05,0,3.12.76,5.59,2.28,7.41,1.52,1.82,3.58,2.73,6.17,2.73,1.89,0,3.49-.46,4.8-1.37s2.25-2.23,2.81-3.94l1.24.28c-.2.66-.37,1.35-.53,2.09-.16.74-.31,1.63-.47,2.66-1.6.84-3.11,1.47-4.53,1.9s-2.74.64-3.96.64c-3.54,0-6.38-1.08-8.51-3.25-2.14-2.17-3.21-5.04-3.21-8.62,0-2.12.41-4.21,1.24-6.27.83-2.06,1.97-3.86,3.44-5.41,1.51-1.57,3.26-2.78,5.26-3.62,2-.84,4.13-1.26,6.38-1.26,1.22,0,2.44.17,3.67.51,1.23.34,2.48.86,3.77,1.55Z"/>
        <path class="cls-2" d="M42.69,70.1l-1.26,1.22c-.93.93-1.67,1.58-2.23,1.94-.56.36-1.06.54-1.5.54-.67,0-1.2-.29-1.59-.86-.39-.57-.59-1.35-.59-2.35,0-.38.01-.77.04-1.18.03-.41.07-.82.12-1.24-2.46,2.39-4.19,3.92-5.16,4.6-.98.68-1.79,1.02-2.45,1.02-1,0-1.75-.43-2.25-1.3-.51-.87-.76-2.15-.76-3.85,0-1.55.2-3.04.6-4.47.4-1.44.99-2.79,1.76-4.06,1.12-1.78,2.4-3.15,3.84-4.09,1.45-.94,2.99-1.42,4.61-1.42.35,0,.74.04,1.16.11.42.07.87.18,1.34.32l2.75-1.16c-.77,3.7-1.39,7.01-1.85,9.95s-.69,4.86-.69,5.78c0,.42.07.73.21.94.14.21.35.32.64.32.21,0,.49-.13.85-.39s.94-.79,1.77-1.57l.65,1.2ZM35.83,65.99c.24-1.19.48-2.49.72-3.9.24-1.41.5-3,.78-4.79-.6-.34-1.09-.57-1.46-.7-.37-.12-.74-.19-1.11-.19-1.69,0-3.18,1.14-4.46,3.42-1.29,2.28-1.93,4.97-1.93,8.08,0,.98.11,1.72.33,2.21.22.49.55.74.99.74s1.19-.4,2.2-1.2c1.01-.8,2.33-2.03,3.95-3.68Z"/>
        <path class="cls-2" d="M55.14,68.37l-3.34,3.03c-.98.89-1.77,1.51-2.35,1.85-.58.34-1.13.51-1.64.51-1.18,0-2.08-.5-2.71-1.5s-.94-2.45-.94-4.34c0-3.72.94-6.92,2.82-9.6,1.88-2.67,4.12-4.01,6.71-4.01.52,0,1.06.07,1.6.21s1.11.34,1.7.6l1.12-7.12c.04-.28.07-.55.09-.83.02-.28.03-.57.03-.86,0-.52-.1-.88-.31-1.08-.21-.2-.6-.29-1.16-.29-.17,0-.34,0-.52,0-.18,0-.37.02-.58.03l-.08-1.16c1.09-.11,2.19-.25,3.29-.43,1.11-.18,2.22-.41,3.35-.67-1.22,6.29-2.22,11.97-3.01,17.04s-1.18,8.14-1.18,9.23c0,.67.06,1.14.19,1.41.12.27.33.4.62.4.16,0,.34-.07.56-.2.22-.13.49-.35.82-.65l1.2-1.08.65,1.12-2.26,2.22c-.79.76-1.36,1.25-1.71,1.46-.35.21-.7.31-1.02.31-.69,0-1.2-.33-1.52-.98-.32-.66-.48-1.67-.48-3.05,0-.3,0-.57.02-.82.01-.24.03-.5.06-.76ZM55.1,66.37l1.47-8.91c-.72-.42-1.36-.72-1.93-.91-.56-.19-1.09-.29-1.57-.29-1.61,0-2.97,1.03-4.07,3.1-1.1,2.07-1.65,4.64-1.65,7.72,0,1.25.15,2.19.44,2.83s.73.96,1.31.96c.39,0,1.12-.4,2.19-1.2,1.07-.8,2.34-1.9,3.8-3.3Z"/>
        <path class="cls-2" d="M81.35,70.1l-1.26,1.22c-.93.93-1.67,1.58-2.23,1.94-.56.36-1.06.54-1.5.54-.67,0-1.2-.29-1.59-.86-.39-.57-.59-1.35-.59-2.35,0-.38.01-.77.04-1.18.03-.41.07-.82.12-1.24-2.46,2.39-4.19,3.92-5.16,4.6-.98.68-1.79,1.02-2.45,1.02-1,0-1.75-.43-2.25-1.3-.51-.87-.76-2.15-.76-3.85,0-1.55.2-3.04.6-4.47.4-1.44.99-2.79,1.76-4.06,1.12-1.78,2.4-3.15,3.84-4.09,1.45-.94,2.99-1.42,4.61-1.42.35,0,.74.04,1.16.11.42.07.87.18,1.34.32l2.75-1.16c-.77,3.7-1.39,7.01-1.85,9.95s-.69,4.86-.69,5.78c0,.42.07.73.21.94.14.21.35.32.64.32.21,0,.49-.13.85-.39s.94-.79,1.77-1.57l.65,1.2ZM74.48,65.99c.24-1.19.48-2.49.72-3.9.24-1.41.5-3,.78-4.79-.6-.34-1.09-.57-1.46-.7-.37-.12-.74-.19-1.11-.19-1.69,0-3.18,1.14-4.46,3.42-1.29,2.28-1.93,4.97-1.93,8.08,0,.98.11,1.72.33,2.21.22.49.55.74.99.74s1.19-.4,2.2-1.2c1.01-.8,2.33-2.03,3.95-3.68Z"/>
        <path class="cls-2" d="M100.86,63.18l-6.01,3.11v.2c0,1.56.25,2.75.74,3.56.49.81,1.2,1.22,2.13,1.22.55,0,1.24-.25,2.07-.74.83-.49,1.9-1.29,3.2-2.39l.69,1.24c-1.88,1.73-3.37,2.93-4.47,3.6s-2.11,1-3.02,1c-1.38,0-2.5-.6-3.36-1.79-.86-1.19-1.29-2.76-1.29-4.7,0-1.38.23-2.85.68-4.43.45-1.58,1.04-2.96,1.76-4.14.9-1.44,1.94-2.56,3.11-3.34,1.17-.79,2.37-1.18,3.62-1.18s2.34.4,3.2,1.21c.86.81,1.29,1.79,1.29,2.94,0,.93-.26,1.7-.78,2.31-.52.61-1.71,1.39-3.56,2.33ZM94.95,64.54l.2-.1c4.65-2.39,6.98-4.23,6.98-5.53,0-.69-.25-1.3-.75-1.81-.5-.51-1.08-.77-1.75-.77-1.03,0-1.96.71-2.78,2.14-.82,1.43-1.46,3.45-1.9,6.06Z"/>
        <path class="cls-2" d="M118.49,57.66l-1.1,1.04-.14-.12c-1.49-1.36-2.63-2.04-3.4-2.04-.73,0-1.34.22-1.82.66-.48.44-.72,1-.72,1.68,0,1.05.91,2.33,2.73,3.85.22.18.39.32.49.41,1.35,1.15,2.24,2.06,2.66,2.71s.64,1.36.64,2.12c0,1.46-.72,2.81-2.15,4.07-1.44,1.26-3.07,1.89-4.91,1.89-1.3,0-2.37-.22-3.22-.67-.85-.45-1.28-.99-1.28-1.63,0-.25.04-.46.12-.65.08-.18.26-.41.53-.69l1.04-.96c.87.96,1.59,1.63,2.16,2.01s1.14.57,1.69.57c.83,0,1.53-.28,2.11-.84.58-.56.88-1.22.88-1.98,0-.87-.9-2.1-2.69-3.7-.47-.42-.83-.75-1.08-.98-1.05-.94-1.77-1.73-2.16-2.36-.39-.63-.59-1.26-.59-1.91,0-1.4.71-2.71,2.13-3.93,1.42-1.22,2.98-1.83,4.67-1.83,1.13,0,2.07.21,2.82.63.75.42,1.13.91,1.13,1.47,0,.22-.05.43-.14.62-.09.19-.23.37-.41.54Z"/>
        <path class="cls-2" d="M127.3,52.31l1.46.51c-.24.77-.45,1.57-.64,2.38s-.37,1.67-.54,2.58l-.32,1.99.35-.39c2.96-3.2,5.11-4.8,6.45-4.8,1.21,0,2.19.6,2.94,1.79.75,1.19,1.13,2.78,1.13,4.76,0,1.49-.29,3.04-.87,4.65-.58,1.61-1.35,3.03-2.32,4.26-1,1.26-2.07,2.22-3.23,2.88-1.16.66-2.35.99-3.57.99-.46,0-.92-.06-1.4-.19-.47-.12-.99-.32-1.55-.58l-.96,6.29c-.04.24-.07.45-.09.65-.02.2-.03.37-.03.51,0,.64.15,1.08.46,1.31.31.23.9.34,1.76.34h.63l-.28,1.36c-.77-.05-1.54-.09-2.3-.12-.76-.03-1.52-.04-2.28-.04-.46,0-1.39.03-2.79.1-.62.03-1.09.04-1.44.06l.24-1.36h.61c.75,0,1.26-.14,1.54-.43.28-.29.5-.87.66-1.75l3.3-19.49c.04-.2.09-.49.16-.88.24-1.4.46-2.54.69-3.42l-3.34,2.32-.35-1.32c1.02-.75,2.03-1.53,3.02-2.36.99-.83,1.96-1.69,2.9-2.6ZM125.53,70.95c.62.35,1.21.62,1.77.79.56.17,1.1.25,1.61.25,1.61,0,2.99-1.08,4.13-3.25,1.14-2.17,1.71-4.8,1.71-7.89,0-1.18-.15-2.07-.45-2.66-.3-.59-.75-.88-1.36-.88-.76,0-2.43,1.2-5.01,3.6-.45.41-.79.72-1.04.94l-1.36,9.1Z"/>
        <path class="cls-2" d="M158.35,70.1l-1.26,1.22c-.93.93-1.67,1.58-2.23,1.94-.56.36-1.06.54-1.5.54-.67,0-1.2-.29-1.59-.86-.39-.57-.59-1.35-.59-2.35,0-.38.01-.77.04-1.18.03-.41.06-.82.12-1.24-2.46,2.39-4.19,3.92-5.16,4.6-.98.68-1.79,1.02-2.45,1.02-1,0-1.75-.43-2.25-1.3-.5-.87-.76-2.15-.76-3.85,0-1.55.2-3.04.6-4.47.4-1.44.99-2.79,1.76-4.06,1.11-1.78,2.39-3.15,3.84-4.09,1.45-.94,2.99-1.42,4.61-1.42.35,0,.74.04,1.16.11.42.07.87.18,1.34.32l2.75-1.16c-.77,3.7-1.39,7.01-1.85,9.95s-.69,4.86-.69,5.78c0,.42.07.73.21.94.14.21.35.32.64.32.21,0,.49-.13.85-.39s.94-.79,1.77-1.57l.65,1.2ZM151.49,65.99c.24-1.19.47-2.49.72-3.9s.5-3,.78-4.79c-.6-.34-1.09-.57-1.46-.7-.37-.12-.74-.19-1.11-.19-1.69,0-3.18,1.14-4.46,3.42-1.29,2.28-1.93,4.97-1.93,8.08,0,.98.11,1.72.32,2.21.22.49.55.74.99.74s1.19-.4,2.2-1.2c1.01-.8,2.33-2.03,3.95-3.68Z"/>
        <path class="cls-2" d="M172.19,57.77l-1.04,1.02c-.87-.88-1.56-1.46-2.07-1.75-.52-.29-1.04-.43-1.58-.43-1.21,0-2.26.89-3.15,2.68-.89,1.79-1.34,4-1.34,6.62,0,1.76.23,3.08.69,3.97.46.89,1.13,1.34,2.03,1.34.5,0,1.18-.29,2.04-.86s1.78-1.35,2.73-2.35l.81,1.4c-1.52,1.61-2.82,2.78-3.89,3.49-1.08.71-2.06,1.07-2.95,1.07-1.42,0-2.55-.62-3.39-1.85-.85-1.23-1.27-2.9-1.27-4.99,0-3.59.92-6.62,2.76-9.08,1.84-2.46,4.11-3.7,6.81-3.7.98,0,1.83.21,2.53.63.7.42,1.05.9,1.05,1.44,0,.21-.06.42-.17.63-.11.21-.31.45-.6.73Z"/>
        <path class="cls-2" d="M182.3,68.94l.69,1.16c-1.61,1.67-2.73,2.73-3.36,3.19s-1.19.69-1.67.69c-.7,0-1.25-.29-1.67-.88s-.63-1.37-.63-2.35c0-1.23.39-3.29,1.17-6.17.78-2.88,1.17-4.96,1.17-6.23,0-.33-.08-.59-.24-.79s-.36-.29-.61-.29c-.21,0-.49.08-.83.26-.34.17-.77.43-1.28.79l-.59-1.04,2.62-1.91c.5-.37.93-.63,1.3-.8.37-.16.71-.25,1.04-.25.62,0,1.1.25,1.46.76.36.5.54,1.2.54,2.07,0,.96-.34,2.83-1.02,5.62-.16.63-.28,1.1-.35,1.42-.37,1.48-.65,2.71-.84,3.68s-.29,1.64-.29,2.01c0,.33.07.6.22.81.14.21.33.31.55.31.21,0,.48-.13.83-.39.34-.26.94-.81,1.79-1.65ZM182.14,43.6l1.12,1.26c.31.33.53.62.66.88.12.26.19.51.19.78,0,.28-.1.54-.29.79-.19.25-.47.48-.84.71l-1.73.96-1.26-1.49c-.26-.33-.43-.59-.51-.78-.08-.19-.12-.39-.12-.6,0-.3.08-.57.24-.8s.43-.46.81-.68l1.73-1.02Z"/>
        <path class="cls-2" d="M195.29,54.39c1.95,0,3.44.61,4.45,1.82,1.02,1.21,1.52,2.99,1.52,5.32,0,1.34-.26,2.76-.79,4.28-.52,1.51-1.23,2.88-2.12,4.1-.96,1.31-2.04,2.32-3.25,3.02-1.21.7-2.49,1.05-3.83,1.05-1.76,0-3.16-.64-4.2-1.91-1.04-1.27-1.56-2.98-1.56-5.11,0-1.59.25-3.13.77-4.64.51-1.51,1.25-2.87,2.2-4.09.94-1.22,2.02-2.16,3.21-2.83,1.2-.67,2.4-1,3.59-1ZM194.45,56.3c-1.52,0-2.83,1.04-3.93,3.13s-1.65,4.66-1.65,7.72c0,1.61.28,2.85.84,3.7s1.37,1.28,2.43,1.28c1.6,0,2.96-1.03,4.08-3.08,1.12-2.05,1.68-4.57,1.68-7.55,0-1.77-.28-3.08-.85-3.93-.56-.85-1.43-1.27-2.59-1.27Z"/>
        <path class="cls-2" d="M221.74,42.75c-.62,2.79-1.04,4.75-1.28,5.87-.24,1.12-.41,1.95-.51,2.49l-1.73,8.97,3.3-3.15c1.1-1.05,1.94-1.74,2.51-2.08.57-.33,1.12-.5,1.64-.5.88,0,1.59.37,2.13,1.12s.82,1.74.82,2.99-.32,3.24-.96,5.89c-.64,2.65-.96,4.54-.96,5.67,0,.34.07.6.2.78s.31.27.55.27c.13,0,.28-.05.45-.15.17-.1.35-.23.53-.4l1.47-1.46.69,1.04-2.12,2.18c-.52.52-1.04.94-1.54,1.24-.5.3-.95.45-1.33.45-.64,0-1.17-.29-1.58-.86-.41-.57-.62-1.32-.62-2.25,0-1.11.33-3.08,1-5.89s1-4.86,1-6.14c0-.49-.11-.88-.31-1.17-.21-.29-.48-.44-.81-.44-.49,0-1.72.92-3.72,2.75-1.11,1.04-2.03,1.86-2.73,2.48l-1.22,6.86c-.03.2-.07.49-.14.87-.24,1.27-.37,2.25-.41,2.93l-3.5.9c.56-2.49,1.26-6.06,2.1-10.7l.22-1.22.9-4.92c.5-2.8.91-5.22,1.24-7.25.33-2.03.49-3.19.49-3.46,0-.46-.1-.8-.3-1.01-.2-.22-.52-.32-.95-.32-.22,0-.4,0-.54,0s-.28.02-.42.03l-.12-1.16c1.14-.16,2.26-.34,3.36-.54,1.1-.2,2.17-.44,3.21-.72Z"/>
        <path class="cls-2" d="M250.21,70.1l-1.26,1.22c-.93.93-1.68,1.58-2.23,1.94s-1.06.54-1.5.54c-.67,0-1.2-.29-1.59-.86s-.59-1.35-.59-2.35c0-.38.01-.77.04-1.18s.07-.82.12-1.24c-2.46,2.39-4.19,3.92-5.16,4.6-.98.68-1.79,1.02-2.45,1.02-1,0-1.75-.43-2.25-1.3-.5-.87-.76-2.15-.76-3.85,0-1.55.2-3.04.6-4.47.4-1.44.99-2.79,1.76-4.06,1.11-1.78,2.4-3.15,3.84-4.09,1.45-.94,2.98-1.42,4.61-1.42.35,0,.74.04,1.16.11.42.07.87.18,1.34.32l2.75-1.16c-.77,3.7-1.39,7.01-1.85,9.95s-.69,4.86-.69,5.78c0,.42.07.73.21.94.14.21.35.32.64.32.21,0,.49-.13.85-.39.35-.26.94-.79,1.77-1.57l.65,1.2ZM243.35,65.99c.24-1.19.48-2.49.72-3.9s.5-3,.78-4.79c-.6-.34-1.09-.57-1.46-.7-.37-.12-.74-.19-1.11-.19-1.69,0-3.18,1.14-4.46,3.42-1.29,2.28-1.93,4.97-1.93,8.08,0,.98.11,1.72.32,2.21.22.49.55.74.99.74s1.19-.4,2.2-1.2c1.01-.8,2.33-2.03,3.95-3.68Z"/>
        <path class="cls-2" d="M272.06,57.66l-1.1,1.04-.14-.12c-1.49-1.36-2.63-2.04-3.4-2.04-.73,0-1.34.22-1.82.66-.48.44-.72,1-.72,1.68,0,1.05.91,2.33,2.73,3.85.22.18.39.32.49.41,1.35,1.15,2.24,2.06,2.66,2.71s.64,1.36.64,2.12c0,1.46-.72,2.81-2.15,4.07-1.44,1.26-3.07,1.89-4.91,1.89-1.3,0-2.37-.22-3.22-.67-.85-.45-1.28-.99-1.28-1.63,0-.25.04-.46.12-.65.08-.18.26-.41.53-.69l1.04-.96c.87.96,1.59,1.63,2.16,2.01s1.14.57,1.69.57c.83,0,1.53-.28,2.11-.84.58-.56.88-1.22.88-1.98,0-.87-.9-2.1-2.69-3.7-.47-.42-.83-.75-1.08-.98-1.05-.94-1.77-1.73-2.16-2.36-.39-.63-.59-1.26-.59-1.91,0-1.4.71-2.71,2.13-3.93,1.42-1.22,2.98-1.83,4.67-1.83,1.13,0,2.07.21,2.82.63.75.42,1.13.91,1.13,1.47,0,.22-.05.43-.14.62-.09.19-.23.37-.41.54Z"/>
        <path class="cls-2" d="M282.76,68.94l.69,1.16c-1.61,1.67-2.73,2.73-3.36,3.19-.63.46-1.19.69-1.67.69-.7,0-1.25-.29-1.67-.88-.42-.58-.63-1.37-.63-2.35,0-1.23.39-3.29,1.17-6.17.78-2.88,1.17-4.96,1.17-6.23,0-.33-.08-.59-.24-.79-.16-.2-.36-.29-.61-.29-.21,0-.48.08-.83.26-.34.17-.77.43-1.28.79l-.59-1.04,2.62-1.91c.5-.37.93-.63,1.3-.8.37-.16.71-.25,1.04-.25.62,0,1.1.25,1.46.76.36.5.54,1.2.54,2.07,0,.96-.34,2.83-1.02,5.62-.16.63-.28,1.1-.35,1.42-.37,1.48-.65,2.71-.84,3.68-.19.97-.29,1.64-.29,2.01,0,.33.07.6.22.81.14.21.33.31.55.31.21,0,.48-.13.83-.39.34-.26.94-.81,1.79-1.65ZM282.6,43.6l1.12,1.26c.31.33.54.62.66.88s.19.51.19.78c0,.28-.09.54-.29.79-.19.25-.47.48-.84.71l-1.73.96-1.26-1.49c-.26-.33-.43-.59-.51-.78-.08-.19-.12-.39-.12-.6,0-.3.08-.57.24-.8.16-.23.43-.46.81-.68l1.73-1.02Z"/>
        <path class="cls-2" d="M296.86,68.37l-3.34,3.03c-.98.89-1.77,1.51-2.35,1.85-.58.34-1.13.51-1.64.51-1.18,0-2.08-.5-2.71-1.5s-.94-2.45-.94-4.34c0-3.72.94-6.92,2.82-9.6,1.88-2.67,4.12-4.01,6.71-4.01.53,0,1.06.07,1.6.21.54.14,1.11.34,1.7.6l1.12-7.12c.04-.28.07-.55.09-.83.02-.28.03-.57.03-.86,0-.52-.11-.88-.31-1.08-.21-.2-.6-.29-1.16-.29-.17,0-.34,0-.52,0-.18,0-.37.02-.58.03l-.08-1.16c1.09-.11,2.19-.25,3.29-.43s2.22-.41,3.35-.67c-1.22,6.29-2.22,11.97-3.01,17.04-.79,5.07-1.18,8.14-1.18,9.23,0,.67.06,1.14.19,1.41.12.27.33.4.62.4.16,0,.34-.07.56-.2s.49-.35.82-.65l1.2-1.08.65,1.12-2.26,2.22c-.79.76-1.36,1.25-1.71,1.46-.35.21-.69.31-1.02.31-.7,0-1.2-.33-1.52-.98-.32-.66-.48-1.67-.48-3.05,0-.3,0-.57.02-.82.01-.24.03-.5.06-.76ZM296.82,66.37l1.47-8.91c-.72-.42-1.36-.72-1.93-.91-.56-.19-1.09-.29-1.57-.29-1.61,0-2.97,1.03-4.07,3.1-1.1,2.07-1.65,4.64-1.65,7.72,0,1.25.15,2.19.44,2.83s.73.96,1.31.96c.39,0,1.12-.4,2.19-1.2,1.07-.8,2.34-1.9,3.8-3.3Z"/>
        <path class="cls-2" d="M315.36,54.39c1.95,0,3.44.61,4.45,1.82,1.02,1.21,1.52,2.99,1.52,5.32,0,1.34-.26,2.76-.79,4.28-.52,1.51-1.23,2.88-2.12,4.1-.96,1.31-2.04,2.32-3.25,3.02-1.21.7-2.49,1.05-3.83,1.05-1.76,0-3.16-.64-4.2-1.91-1.04-1.27-1.56-2.98-1.56-5.11,0-1.59.25-3.13.77-4.64s1.25-2.87,2.2-4.09c.94-1.22,2.01-2.16,3.21-2.83,1.2-.67,2.39-1,3.59-1ZM314.51,56.3c-1.52,0-2.83,1.04-3.93,3.13-1.1,2.09-1.65,4.66-1.65,7.72,0,1.61.28,2.85.84,3.7.56.85,1.37,1.28,2.43,1.28,1.6,0,2.96-1.03,4.08-3.08,1.12-2.05,1.68-4.57,1.68-7.55,0-1.77-.28-3.08-.85-3.93s-1.43-1.27-2.6-1.27Z"/>
        <path class="cls-2" d="M338.66,52.31l1.46.51c-.24.77-.45,1.57-.64,2.38-.19.81-.37,1.67-.54,2.58l-.31,1.99.35-.39c2.96-3.2,5.11-4.8,6.45-4.8,1.21,0,2.19.6,2.94,1.79.75,1.19,1.13,2.78,1.13,4.76,0,1.49-.29,3.04-.87,4.65-.58,1.61-1.35,3.03-2.32,4.26-1,1.26-2.07,2.22-3.23,2.88-1.16.66-2.35.99-3.57.99-.46,0-.92-.06-1.4-.19-.47-.12-.99-.32-1.55-.58l-.96,6.29c-.04.24-.07.45-.09.65-.02.2-.03.37-.03.51,0,.64.15,1.08.46,1.31s.9.34,1.76.34h.63l-.28,1.36c-.77-.05-1.54-.09-2.3-.12-.76-.03-1.52-.04-2.28-.04-.46,0-1.39.03-2.79.1-.62.03-1.09.04-1.44.06l.24-1.36h.61c.75,0,1.26-.14,1.54-.43.28-.29.5-.87.66-1.75l3.3-19.49c.04-.2.09-.49.16-.88.24-1.4.46-2.54.69-3.42l-3.34,2.32-.35-1.32c1.02-.75,2.03-1.53,3.02-2.36.99-.83,1.96-1.69,2.9-2.6ZM336.89,70.95c.62.35,1.21.62,1.77.79.56.17,1.1.25,1.61.25,1.61,0,2.99-1.08,4.13-3.25,1.14-2.17,1.71-4.8,1.71-7.89,0-1.18-.15-2.07-.45-2.66-.3-.59-.75-.88-1.36-.88-.76,0-2.43,1.2-5.01,3.6-.45.41-.79.72-1.04.94l-1.36,9.1Z"/>
        <path class="cls-2" d="M361.34,63.18l-6,3.11v.2c0,1.56.25,2.75.74,3.56s1.2,1.22,2.13,1.22c.55,0,1.24-.25,2.08-.74.83-.49,1.9-1.29,3.2-2.39l.69,1.24c-1.88,1.73-3.37,2.93-4.47,3.6-1.11.67-2.11,1-3.02,1-1.38,0-2.5-.6-3.35-1.79-.86-1.19-1.29-2.76-1.29-4.7,0-1.38.23-2.85.68-4.43s1.04-2.96,1.76-4.14c.9-1.44,1.94-2.56,3.11-3.34,1.17-.79,2.37-1.18,3.62-1.18s2.34.4,3.2,1.21c.86.81,1.29,1.79,1.29,2.94,0,.93-.26,1.7-.78,2.31-.52.61-1.7,1.39-3.56,2.33ZM355.43,64.54l.2-.1c4.65-2.39,6.98-4.23,6.98-5.53,0-.69-.25-1.3-.75-1.81-.5-.51-1.08-.77-1.75-.77-1.03,0-1.96.71-2.78,2.14-.82,1.43-1.46,3.45-1.9,6.06Z"/>
        <path class="cls-2" d="M373.52,60.03l3.19-3.11c1.11-1.06,1.96-1.76,2.53-2.1s1.11-.51,1.62-.51c.87,0,1.57.38,2.11,1.14.54.76.82,1.76.82,3.01s-.32,3.24-.96,5.89c-.64,2.65-.96,4.54-.96,5.67,0,.34.07.6.2.78s.32.27.57.27c.12,0,.27-.05.44-.15.18-.1.35-.23.52-.4l1.49-1.46.69,1.04-2.14,2.18c-.51.52-1.02.94-1.52,1.24-.5.3-.95.45-1.33.45-.66,0-1.19-.29-1.6-.86-.41-.57-.62-1.32-.62-2.25,0-1.11.33-3.08,1-5.89s1-4.86,1-6.14c0-.49-.1-.88-.3-1.17s-.47-.44-.82-.44c-.51,0-2.08,1.21-4.7,3.64-.7.64-1.24,1.15-1.63,1.51l-1.24,6.92c-.03.13-.07.33-.12.59-.28,1.4-.44,2.48-.49,3.22l-3.5.87c.87-3.76,1.55-7.03,2.05-9.81.5-2.78.76-4.6.76-5.47,0-.52-.06-.9-.18-1.13-.12-.23-.31-.34-.57-.34-.16,0-.42.09-.78.28s-.82.45-1.37.81l-.53-1.04c.14-.12.35-.29.63-.51,2.02-1.63,3.37-2.44,4.05-2.44s1.14.25,1.46.74c.31.49.47,1.25.47,2.29,0,.37-.02.78-.06,1.24-.04.46-.1.94-.18,1.46Z"/>
        <path class="cls-2" d="M399.34,57.66l-1.1,1.04-.14-.12c-1.49-1.36-2.63-2.04-3.4-2.04-.73,0-1.34.22-1.82.66-.48.44-.72,1-.72,1.68,0,1.05.91,2.33,2.73,3.85.22.18.39.32.49.41,1.35,1.15,2.24,2.06,2.66,2.71s.64,1.36.64,2.12c0,1.46-.72,2.81-2.15,4.07-1.44,1.26-3.07,1.89-4.91,1.89-1.3,0-2.37-.22-3.22-.67-.85-.45-1.28-.99-1.28-1.63,0-.25.04-.46.12-.65.08-.18.26-.41.53-.69l1.04-.96c.87.96,1.59,1.63,2.16,2.01.58.38,1.14.57,1.69.57.83,0,1.53-.28,2.11-.84.58-.56.88-1.22.88-1.98,0-.87-.9-2.1-2.69-3.7-.47-.42-.83-.75-1.08-.98-1.05-.94-1.77-1.73-2.16-2.36s-.59-1.26-.59-1.91c0-1.4.71-2.71,2.13-3.93,1.42-1.22,2.98-1.83,4.67-1.83,1.13,0,2.07.21,2.82.63.75.42,1.13.91,1.13,1.47,0,.22-.05.43-.14.62-.09.19-.23.37-.41.54Z"/>
        <path class="cls-2" d="M419.67,70.1l-1.26,1.22c-.93.93-1.67,1.58-2.23,1.94s-1.06.54-1.5.54c-.67,0-1.2-.29-1.59-.86-.39-.57-.59-1.35-.59-2.35,0-.38.01-.77.04-1.18s.07-.82.12-1.24c-2.46,2.39-4.19,3.92-5.16,4.6-.98.68-1.79,1.02-2.45,1.02-1,0-1.75-.43-2.25-1.3s-.76-2.15-.76-3.85c0-1.55.2-3.04.6-4.47.4-1.44.99-2.79,1.76-4.06,1.11-1.78,2.4-3.15,3.84-4.09,1.45-.94,2.99-1.42,4.61-1.42.35,0,.74.04,1.16.11.42.07.87.18,1.34.32l2.75-1.16c-.77,3.7-1.39,7.01-1.85,9.95s-.69,4.86-.69,5.78c0,.42.07.73.21.94.14.21.35.32.64.32.21,0,.49-.13.85-.39.35-.26.94-.79,1.77-1.57l.65,1.2ZM412.81,65.99c.24-1.19.47-2.49.72-3.9.24-1.41.5-3,.78-4.79-.6-.34-1.09-.57-1.46-.7-.37-.12-.74-.19-1.11-.19-1.69,0-3.18,1.14-4.46,3.42-1.29,2.28-1.93,4.97-1.93,8.08,0,.98.11,1.72.33,2.21.22.49.55.74.99.74s1.19-.4,2.2-1.2c1.01-.8,2.33-2.03,3.95-3.68Z"/>
        <path class="cls-2" d="M432.12,68.37l-3.34,3.03c-.98.89-1.77,1.51-2.35,1.85-.58.34-1.13.51-1.64.51-1.18,0-2.08-.5-2.71-1.5s-.94-2.45-.94-4.34c0-3.72.94-6.92,2.82-9.6,1.88-2.67,4.12-4.01,6.71-4.01.53,0,1.06.07,1.6.21.54.14,1.11.34,1.7.6l1.12-7.12c.04-.28.07-.55.09-.83.02-.28.03-.57.03-.86,0-.52-.11-.88-.31-1.08-.21-.2-.6-.29-1.16-.29-.17,0-.34,0-.52,0-.18,0-.37.02-.58.03l-.08-1.16c1.09-.11,2.19-.25,3.29-.43s2.22-.41,3.35-.67c-1.22,6.29-2.22,11.97-3.01,17.04-.79,5.07-1.18,8.14-1.18,9.23,0,.67.06,1.14.19,1.41.12.27.33.4.62.4.16,0,.34-.07.56-.2s.49-.35.82-.65l1.2-1.08.65,1.12-2.26,2.22c-.79.76-1.36,1.25-1.71,1.46-.35.21-.69.31-1.02.31-.7,0-1.2-.33-1.52-.98-.32-.66-.48-1.67-.48-3.05,0-.3,0-.57.02-.82.01-.24.03-.5.06-.76ZM432.08,66.37l1.47-8.91c-.72-.42-1.36-.72-1.93-.91-.56-.19-1.09-.29-1.57-.29-1.61,0-2.97,1.03-4.07,3.1-1.1,2.07-1.65,4.64-1.65,7.72,0,1.25.15,2.19.44,2.83s.73.96,1.31.96c.39,0,1.12-.4,2.19-1.2,1.07-.8,2.34-1.9,3.8-3.3Z"/>
        <path class="cls-2" d="M450.62,54.39c1.95,0,3.44.61,4.45,1.82s1.52,2.99,1.52,5.32c0,1.34-.26,2.76-.79,4.28-.53,1.51-1.23,2.88-2.12,4.1-.96,1.31-2.04,2.32-3.25,3.02s-2.49,1.05-3.82,1.05c-1.76,0-3.16-.64-4.2-1.91s-1.56-2.98-1.56-5.11c0-1.59.26-3.13.77-4.64.51-1.51,1.25-2.87,2.2-4.09.94-1.22,2.01-2.16,3.21-2.83,1.2-.67,2.4-1,3.59-1ZM449.78,56.3c-1.52,0-2.83,1.04-3.93,3.13-1.1,2.09-1.65,4.66-1.65,7.72,0,1.61.28,2.85.83,3.7s1.37,1.28,2.43,1.28c1.6,0,2.96-1.03,4.08-3.08,1.12-2.05,1.68-4.57,1.68-7.55,0-1.77-.28-3.08-.85-3.93-.56-.85-1.43-1.27-2.6-1.27Z"/>
        <path class="cls-2" d="M473.92,52.31l1.46.51c-.24.77-.45,1.57-.64,2.38-.19.81-.37,1.67-.54,2.58l-.31,1.99.35-.39c2.96-3.2,5.11-4.8,6.45-4.8,1.21,0,2.19.6,2.94,1.79.75,1.19,1.13,2.78,1.13,4.76,0,1.49-.29,3.04-.87,4.65-.58,1.61-1.35,3.03-2.32,4.26-1,1.26-2.07,2.22-3.23,2.88-1.16.66-2.35.99-3.57.99-.46,0-.92-.06-1.4-.19-.47-.12-.99-.32-1.55-.58l-.96,6.29c-.04.24-.07.45-.09.65-.02.2-.03.37-.03.51,0,.64.15,1.08.46,1.31s.9.34,1.76.34h.63l-.28,1.36c-.77-.05-1.54-.09-2.3-.12-.76-.03-1.52-.04-2.28-.04-.46,0-1.39.03-2.79.1-.62.03-1.09.04-1.44.06l.24-1.36h.61c.75,0,1.26-.14,1.54-.43.28-.29.5-.87.66-1.75l3.3-19.49c.04-.2.09-.49.16-.88.24-1.4.46-2.54.69-3.42l-3.34,2.32-.35-1.32c1.02-.75,2.03-1.53,3.02-2.36.99-.83,1.96-1.69,2.9-2.6ZM472.15,70.95c.62.35,1.21.62,1.77.79.56.17,1.1.25,1.61.25,1.61,0,2.99-1.08,4.13-3.25,1.14-2.17,1.71-4.8,1.71-7.89,0-1.18-.15-2.07-.45-2.66-.3-.59-.75-.88-1.36-.88-.76,0-2.43,1.2-5.01,3.6-.45.41-.79.72-1.04.94l-1.36,9.1Z"/>
        <path class="cls-2" d="M504.97,70.1l-1.26,1.22c-.93.93-1.67,1.58-2.23,1.94s-1.06.54-1.5.54c-.67,0-1.2-.29-1.59-.86-.39-.57-.59-1.35-.59-2.35,0-.38.01-.77.04-1.18s.07-.82.12-1.24c-2.46,2.39-4.19,3.92-5.16,4.6-.98.68-1.79,1.02-2.45,1.02-1,0-1.75-.43-2.25-1.3s-.76-2.15-.76-3.85c0-1.55.2-3.04.6-4.47.4-1.44.99-2.79,1.76-4.06,1.11-1.78,2.4-3.15,3.84-4.09,1.45-.94,2.99-1.42,4.61-1.42.35,0,.74.04,1.16.11.42.07.87.18,1.34.32l2.75-1.16c-.77,3.7-1.39,7.01-1.85,9.95s-.69,4.86-.69,5.78c0,.42.07.73.21.94.14.21.35.32.64.32.21,0,.49-.13.85-.39.35-.26.94-.79,1.77-1.57l.65,1.2ZM498.11,65.99c.24-1.19.47-2.49.72-3.9.24-1.41.5-3,.78-4.79-.6-.34-1.09-.57-1.46-.7-.37-.12-.74-.19-1.11-.19-1.69,0-3.18,1.14-4.46,3.42-1.29,2.28-1.93,4.97-1.93,8.08,0,.98.11,1.72.33,2.21.22.49.55.74.99.74s1.19-.4,2.2-1.2c1.01-.8,2.33-2.03,3.95-3.68Z"/>
        <path class="cls-2" d="M507.31,73.94c.83-3.41,1.47-6.42,1.93-9.04s.69-4.58.69-5.91c0-.56-.08-.99-.25-1.27-.16-.28-.4-.42-.72-.42-.24,0-.9.34-1.99,1.02l-.16.1-.69-1.12.29-.22c2.36-1.77,3.89-2.65,4.58-2.65.64,0,1.11.21,1.39.62s.42,1.1.42,2.05c0,.84-.03,1.62-.08,2.35s-.13,1.35-.24,1.88c1.8-2.96,3.07-4.85,3.83-5.67.76-.82,1.47-1.23,2.12-1.23.45,0,.82.16,1.12.49.3.33.45.73.45,1.2,0,.29-.07.64-.23,1.05-.15.41-.47,1.1-.95,2.06-.24-.33-.48-.57-.73-.73-.25-.16-.5-.24-.75-.24-.48,0-1.06.34-1.72,1.01s-1.7,2.03-3.12,4.06c-.45,1.81-.82,3.53-1.12,5.16-.3,1.63-.53,3.18-.69,4.63l-3.42.81Z"/>
        <path class="cls-2" d="M538.89,70.1l-1.26,1.22c-.93.93-1.67,1.58-2.23,1.94-.56.36-1.06.54-1.5.54-.67,0-1.2-.29-1.59-.86-.39-.57-.59-1.35-.59-2.35,0-.38.01-.77.04-1.18.03-.41.06-.82.12-1.24-2.46,2.39-4.19,3.92-5.16,4.6-.98.68-1.79,1.02-2.45,1.02-1,0-1.75-.43-2.25-1.3-.5-.87-.76-2.15-.76-3.85,0-1.55.2-3.04.6-4.47.4-1.44.99-2.79,1.76-4.06,1.11-1.78,2.39-3.15,3.84-4.09,1.45-.94,2.99-1.42,4.61-1.42.35,0,.74.04,1.16.11.42.07.87.18,1.34.32l2.75-1.16c-.77,3.7-1.39,7.01-1.85,9.95s-.69,4.86-.69,5.78c0,.42.07.73.21.94.14.21.35.32.64.32.21,0,.49-.13.85-.39s.94-.79,1.77-1.57l.65,1.2ZM532.03,65.99c.24-1.19.47-2.49.72-3.9s.5-3,.78-4.79c-.6-.34-1.09-.57-1.46-.7-.37-.12-.74-.19-1.11-.19-1.69,0-3.18,1.14-4.46,3.42-1.29,2.28-1.93,4.97-1.93,8.08,0,.98.11,1.72.32,2.21.22.49.55.74.99.74s1.19-.4,2.2-1.2c1.01-.8,2.33-2.03,3.95-3.68Z"/>
        <path class="cls-2" d="M557.14,68.94l.69,1.16c-1.61,1.67-2.73,2.73-3.36,3.19-.63.46-1.19.69-1.67.69-.7,0-1.25-.29-1.67-.88-.42-.58-.63-1.37-.63-2.35,0-1.23.39-3.29,1.17-6.17.78-2.88,1.17-4.96,1.17-6.23,0-.33-.08-.59-.24-.79-.16-.2-.36-.29-.61-.29-.21,0-.48.08-.83.26-.34.17-.77.43-1.28.79l-.59-1.04,2.62-1.91c.5-.37.93-.63,1.3-.8.37-.16.71-.25,1.04-.25.62,0,1.1.25,1.46.76.36.5.54,1.2.54,2.07,0,.96-.34,2.83-1.02,5.62-.16.63-.28,1.1-.35,1.42-.37,1.48-.65,2.71-.84,3.68-.19.97-.29,1.64-.29,2.01,0,.33.07.6.22.81.14.21.33.31.55.31.21,0,.48-.13.83-.39.34-.26.94-.81,1.79-1.65ZM556.98,43.6l1.12,1.26c.31.33.54.62.66.88s.19.51.19.78c0,.28-.09.54-.29.79-.19.25-.47.48-.84.71l-1.73.96-1.26-1.49c-.26-.33-.43-.59-.51-.78-.08-.19-.12-.39-.12-.6,0-.3.08-.57.24-.8.16-.23.43-.46.81-.68l1.73-1.02Z"/>
        <path class="cls-2" d="M566.36,60.03l3.19-3.11c1.11-1.06,1.96-1.76,2.53-2.1s1.11-.51,1.62-.51c.87,0,1.57.38,2.11,1.14.54.76.82,1.76.82,3.01s-.32,3.24-.96,5.89-.96,4.54-.96,5.67c0,.34.07.6.2.78s.32.27.57.27c.12,0,.27-.05.44-.15s.35-.23.52-.4l1.49-1.46.69,1.04-2.14,2.18c-.51.52-1.02.94-1.52,1.24-.5.3-.95.45-1.33.45-.66,0-1.19-.29-1.6-.86s-.62-1.32-.62-2.25c0-1.11.33-3.08,1-5.89.67-2.81,1-4.86,1-6.14,0-.49-.1-.88-.3-1.17-.2-.29-.48-.44-.82-.44-.51,0-2.08,1.21-4.7,3.64-.7.64-1.24,1.15-1.63,1.51l-1.24,6.92c-.03.13-.07.33-.12.59-.28,1.4-.44,2.48-.49,3.22l-3.5.87c.87-3.76,1.55-7.03,2.05-9.81.5-2.78.76-4.6.76-5.47,0-.52-.06-.9-.18-1.13-.12-.23-.31-.34-.57-.34-.16,0-.42.09-.78.28-.36.18-.82.45-1.37.81l-.53-1.04c.14-.12.35-.29.63-.51,2.02-1.63,3.37-2.44,4.05-2.44s1.14.25,1.46.74c.31.49.47,1.25.47,2.29,0,.37-.02.78-.06,1.24s-.1.94-.18,1.46Z"/>
        <path class="cls-2" d="M589.19,49.89c-.25.88-.6,2.25-1.04,4.13-.13.55-.23.96-.29,1.22.77,0,1.56,0,2.37-.03s1.66-.05,2.55-.09l-.47,1.97c-.35-.01-.75-.02-1.18-.02h-3.66c-.62,2.7-1.07,5.06-1.37,7.08-.29,2.02-.44,3.71-.44,5.07,0,.58.09,1.03.29,1.36.19.33.46.49.8.49.26,0,.67-.21,1.24-.63.56-.42,1.33-1.09,2.3-2.03l.69,1.26c-1.89,1.94-3.19,3.18-3.89,3.71-.71.53-1.3.8-1.79.8-.9,0-1.63-.43-2.16-1.28-.54-.85-.81-2.01-.81-3.48,0-.96.15-2.33.45-4.12.3-1.79.87-4.56,1.71-8.33-.21,0-.48,0-.82.02-.33.01-.56.02-.68.02h-1.36l.24-1.32c.6-.03,1.16-.13,1.66-.31s1.01-.47,1.52-.87c.12-.47.25-.97.4-1.48s.32-1.07.52-1.64l3.22-1.5Z"/>
        <path class="cls-2" d="M603.45,63.18l-6,3.11v.2c0,1.56.25,2.75.74,3.56s1.2,1.22,2.13,1.22c.55,0,1.24-.25,2.08-.74.83-.49,1.9-1.29,3.2-2.39l.69,1.24c-1.88,1.73-3.37,2.93-4.47,3.6-1.11.67-2.11,1-3.02,1-1.38,0-2.5-.6-3.35-1.79-.86-1.19-1.29-2.76-1.29-4.7,0-1.38.23-2.85.68-4.43s1.04-2.96,1.76-4.14c.9-1.44,1.94-2.56,3.11-3.34,1.17-.79,2.37-1.18,3.62-1.18s2.34.4,3.2,1.21c.86.81,1.29,1.79,1.29,2.94,0,.93-.26,1.7-.78,2.31-.52.61-1.7,1.39-3.56,2.33ZM597.55,64.54l.2-.1c4.65-2.39,6.98-4.23,6.98-5.53,0-.69-.25-1.3-.75-1.81-.5-.51-1.08-.77-1.75-.77-1.03,0-1.96.71-2.78,2.14-.82,1.43-1.46,3.45-1.9,6.06Z"/>
        <path class="cls-2" d="M627.16,54.61l-.85,2.2s-.07,0-.12.02c-.51.04-.9.06-1.18.06-.34,0-1.13-.09-2.36-.27h-.06c.52.47.9.99,1.14,1.55.24.56.35,1.25.35,2.06,0,1.53-.4,2.9-1.21,4.09-.81,1.19-1.93,2.08-3.37,2.67-.35.14-.84.35-1.46.61-2.84,1.15-4.27,1.91-4.27,2.26s.74.8,2.22,1.38c.51.2.91.35,1.2.47,3.11,1.27,5.1,2.28,5.97,3.02.87.74,1.31,1.62,1.31,2.62,0,1.67-1.04,3.18-3.14,4.53-2.09,1.36-4.53,2.04-7.33,2.04-2.18,0-3.96-.48-5.34-1.46-1.38-.97-2.07-2.2-2.07-3.68,0-.98.51-1.91,1.53-2.78,1.02-.87,2.78-1.86,5.27-2.96-1.07-.49-1.85-.93-2.33-1.33-.48-.4-.72-.8-.72-1.21s.28-.79.83-1.2c.55-.41,1.75-1.02,3.6-1.83-.08.01-.16.02-.25.03-.09,0-.22,0-.4,0-1.17,0-2.08-.39-2.74-1.17-.66-.78-.99-1.87-.99-3.25,0-2.4.8-4.45,2.39-6.15s3.5-2.56,5.73-2.56c.72,0,1.69.11,2.91.33,1.22.22,2.08.32,2.58.32.39,0,.85-.04,1.37-.11.52-.07,1.11-.18,1.78-.32ZM614.83,73.72c-1.91.98-3.22,1.81-3.93,2.47s-1.06,1.36-1.06,2.09c0,.94.58,1.76,1.75,2.44,1.17.68,2.61,1.02,4.33,1.02,1.55,0,2.83-.34,3.86-1.03s1.54-1.54,1.54-2.55-1.6-2.22-4.8-3.66c-.72-.33-1.29-.59-1.69-.79ZM618.09,55.89c-1.26,0-2.31.7-3.16,2.11-.85,1.41-1.27,3.16-1.27,5.26,0,1.09.23,1.92.7,2.51.47.58,1.13.88,2,.88,1.34,0,2.44-.68,3.29-2.05.86-1.36,1.29-3.1,1.29-5.21,0-1.1-.25-1.96-.75-2.58-.5-.62-1.2-.92-2.1-.92Z"/>
        <path class="cls-2" d="M628.89,73.94c.83-3.41,1.47-6.42,1.93-9.04s.69-4.58.69-5.91c0-.56-.08-.99-.25-1.27-.16-.28-.4-.42-.72-.42-.24,0-.9.34-1.99,1.02l-.16.1-.69-1.12.29-.22c2.36-1.77,3.89-2.65,4.58-2.65.64,0,1.1.21,1.39.62.28.41.42,1.1.42,2.05,0,.84-.03,1.62-.08,2.35s-.13,1.35-.24,1.88c1.8-2.96,3.07-4.85,3.83-5.67.76-.82,1.47-1.23,2.12-1.23.45,0,.82.16,1.12.49.3.33.45.73.45,1.2,0,.29-.08.64-.23,1.05-.15.41-.47,1.1-.95,2.06-.24-.33-.48-.57-.73-.73-.25-.16-.5-.24-.75-.24-.49,0-1.06.34-1.72,1.01s-1.7,2.03-3.12,4.06c-.45,1.81-.82,3.53-1.12,5.16s-.53,3.18-.69,4.63l-3.42.81Z"/>
        <path class="cls-2" d="M660.47,70.1l-1.26,1.22c-.93.93-1.68,1.58-2.23,1.94s-1.06.54-1.5.54c-.67,0-1.2-.29-1.59-.86s-.59-1.35-.59-2.35c0-.38.01-.77.04-1.18s.07-.82.12-1.24c-2.46,2.39-4.19,3.92-5.16,4.6-.98.68-1.79,1.02-2.45,1.02-1,0-1.75-.43-2.25-1.3-.5-.87-.76-2.15-.76-3.85,0-1.55.2-3.04.6-4.47.4-1.44.99-2.79,1.76-4.06,1.11-1.78,2.4-3.15,3.84-4.09,1.45-.94,2.98-1.42,4.61-1.42.35,0,.74.04,1.16.11.42.07.87.18,1.34.32l2.75-1.16c-.77,3.7-1.39,7.01-1.85,9.95s-.69,4.86-.69,5.78c0,.42.07.73.21.94.14.21.35.32.64.32.21,0,.49-.13.85-.39.35-.26.94-.79,1.77-1.57l.65,1.2ZM653.61,65.99c.24-1.19.48-2.49.72-3.9s.5-3,.78-4.79c-.6-.34-1.09-.57-1.46-.7-.37-.12-.74-.19-1.11-.19-1.69,0-3.18,1.14-4.46,3.42-1.29,2.28-1.93,4.97-1.93,8.08,0,.98.11,1.72.32,2.21.22.49.55.74.99.74s1.19-.4,2.2-1.2c1.01-.8,2.33-2.03,3.95-3.68Z"/>
        <path class="cls-2" d="M662.81,73.94c.83-3.41,1.47-6.42,1.93-9.04.46-2.62.69-4.58.69-5.91,0-.56-.08-.99-.25-1.27-.16-.28-.4-.42-.72-.42-.24,0-.9.34-1.99,1.02l-.16.1-.69-1.12.29-.22c2.36-1.77,3.89-2.65,4.58-2.65.64,0,1.1.21,1.39.62s.42,1.1.42,2.05c0,.84-.03,1.62-.08,2.35-.05.73-.13,1.35-.24,1.88,1.8-2.96,3.07-4.85,3.83-5.67s1.47-1.23,2.12-1.23c.45,0,.82.16,1.12.49.3.33.45.73.45,1.2,0,.29-.08.64-.23,1.05-.15.41-.47,1.1-.95,2.06-.24-.33-.48-.57-.73-.73-.25-.16-.5-.24-.75-.24-.49,0-1.06.34-1.72,1.01s-1.7,2.03-3.12,4.06c-.45,1.81-.82,3.53-1.12,5.16-.3,1.63-.53,3.18-.69,4.63l-3.42.81Z"/>
        <path class="cls-2" d="M694.03,70.18l-1.83,1.73c-.83.79-1.47,1.33-1.95,1.62s-.89.44-1.26.44c-.76,0-1.34-.28-1.74-.85-.4-.56-.6-1.38-.6-2.46,0-.88.29-2.82.88-5.84.33-1.66.58-2.98.77-3.95l.81-4.42c.51-2.87.91-5.2,1.19-6.98.28-1.78.42-2.86.42-3.25,0-.42-.1-.73-.29-.92-.2-.2-.5-.29-.92-.29-.08,0-.24,0-.47.02-.24.01-.43.02-.57.02l-.12-1.08c.85-.12,1.79-.28,2.81-.48,1.02-.2,2.22-.46,3.6-.78-1.43,7.14-2.6,13.29-3.51,18.42-.91,5.14-1.37,8.05-1.37,8.73,0,.37.07.66.21.88.14.22.32.32.56.32.14,0,.33-.07.57-.22.24-.14.52-.37.87-.67l1.34-1.08.61,1.08Z"/>
        <path class="cls-2" d="M714.05,70.1l-1.26,1.22c-.93.93-1.68,1.58-2.23,1.94s-1.06.54-1.5.54c-.67,0-1.2-.29-1.59-.86s-.59-1.35-.59-2.35c0-.38.01-.77.04-1.18s.07-.82.12-1.24c-2.46,2.39-4.19,3.92-5.16,4.6-.98.68-1.79,1.02-2.45,1.02-1,0-1.75-.43-2.25-1.3-.5-.87-.76-2.15-.76-3.85,0-1.55.2-3.04.6-4.47.4-1.44.99-2.79,1.76-4.06,1.11-1.78,2.4-3.15,3.84-4.09,1.45-.94,2.98-1.42,4.61-1.42.35,0,.74.04,1.16.11.42.07.87.18,1.34.32l2.75-1.16c-.77,3.7-1.39,7.01-1.85,9.95s-.69,4.86-.69,5.78c0,.42.07.73.21.94.14.21.35.32.64.32.21,0,.49-.13.85-.39.35-.26.94-.79,1.77-1.57l.65,1.2ZM707.19,65.99c.24-1.19.48-2.49.72-3.9s.5-3,.78-4.79c-.6-.34-1.09-.57-1.46-.7-.37-.12-.74-.19-1.11-.19-1.69,0-3.18,1.14-4.46,3.42-1.29,2.28-1.93,4.97-1.93,8.08,0,.98.11,1.72.32,2.21.22.49.55.74.99.74s1.19-.4,2.2-1.2c1.01-.8,2.33-2.03,3.95-3.68Z"/>
        <path class="cls-2" d="M39.43,85.42c-.31,1.49-.6,2.89-.85,4.19-.25,1.3-.45,2.41-.61,3.34l-1.47,8.63,2.12-1.95c1.26-1.13,2.22-1.87,2.9-2.23.67-.36,1.35-.54,2.02-.54,1.28,0,2.28.53,2.98,1.6s1.05,2.57,1.05,4.51c0,3.67-1.11,6.87-3.32,9.61-2.21,2.73-4.76,4.1-7.63,4.1-1.1,0-2.07-.25-2.9-.74-.83-.49-1.56-1.25-2.17-2.29l3.74-22.91c.08-.47.14-.86.18-1.16s.06-.53.06-.69c0-.43-.1-.74-.31-.93-.21-.19-.54-.29-1-.29-.25,0-.44,0-.57.02-.13.01-.26.03-.39.06l-.12-1.08c.92-.13,1.89-.3,2.92-.5s2.16-.46,3.39-.76ZM35.04,113.09c.42.49.88.85,1.37,1.09.49.24,1.01.36,1.56.36,1.77,0,3.24-1.03,4.41-3.09,1.17-2.06,1.76-4.69,1.76-7.9,0-1.27-.17-2.24-.5-2.89s-.83-.98-1.48-.98c-.5,0-1.21.31-2.12.92-.92.62-2.17,1.63-3.76,3.03l-.88,5.72c-.13.8-.22,1.49-.28,2.08s-.08,1.14-.08,1.65Z"/>
        <path class="cls-2" d="M59.02,105.89l-6,3.11v.2c0,1.56.25,2.75.74,3.56s1.2,1.22,2.13,1.22c.55,0,1.24-.25,2.08-.74.83-.49,1.9-1.29,3.2-2.39l.69,1.24c-1.88,1.73-3.37,2.93-4.47,3.6-1.11.67-2.11,1-3.02,1-1.38,0-2.5-.6-3.35-1.79-.86-1.19-1.29-2.76-1.29-4.7,0-1.38.23-2.85.68-4.43s1.04-2.96,1.76-4.14c.9-1.44,1.94-2.56,3.11-3.34,1.17-.79,2.37-1.18,3.62-1.18s2.34.4,3.2,1.21c.86.81,1.29,1.79,1.29,2.94,0,.93-.26,1.7-.78,2.31-.52.61-1.7,1.39-3.56,2.33ZM53.11,107.25l.2-.1c4.65-2.39,6.98-4.23,6.98-5.53,0-.69-.25-1.3-.75-1.81-.5-.51-1.08-.77-1.75-.77-1.03,0-1.96.71-2.78,2.14-.82,1.43-1.46,3.45-1.9,6.06Z"/>
        <path class="cls-2" d="M73.5,112.89l-1.83,1.73c-.83.79-1.47,1.33-1.95,1.62-.47.29-.89.44-1.26.44-.76,0-1.34-.28-1.74-.85s-.6-1.38-.6-2.46c0-.88.29-2.82.88-5.84.33-1.66.58-2.98.77-3.95l.81-4.42c.51-2.87.91-5.2,1.19-6.98.28-1.78.42-2.86.42-3.25,0-.42-.1-.73-.29-.92s-.5-.29-.92-.29c-.08,0-.24,0-.47.02-.24.01-.43.02-.57.02l-.12-1.08c.85-.12,1.79-.28,2.81-.48,1.02-.2,2.22-.46,3.6-.78-1.43,7.14-2.6,13.29-3.51,18.42s-1.37,8.05-1.37,8.73c0,.37.07.66.21.88.14.22.32.32.56.32.14,0,.33-.07.57-.22.24-.14.52-.37.87-.67l1.34-1.08.61,1.08Z"/>
        <path class="cls-2" d="M84.34,112.89l-1.83,1.73c-.83.79-1.47,1.33-1.95,1.62-.47.29-.89.44-1.26.44-.76,0-1.34-.28-1.74-.85-.4-.56-.6-1.38-.6-2.46,0-.88.29-2.82.88-5.84.33-1.66.58-2.98.77-3.95l.81-4.42c.51-2.87.91-5.2,1.19-6.98.28-1.78.42-2.86.42-3.25,0-.42-.1-.73-.29-.92-.2-.2-.51-.29-.92-.29-.08,0-.24,0-.47.02s-.43.02-.57.02l-.12-1.08c.85-.12,1.79-.28,2.81-.48,1.02-.2,2.22-.46,3.6-.78-1.43,7.14-2.6,13.29-3.51,18.42s-1.37,8.05-1.37,8.73c0,.37.07.66.21.88.14.22.32.32.56.32.14,0,.33-.07.57-.22.24-.14.53-.37.87-.67l1.34-1.08.61,1.08Z"/>
        <path class="cls-2" d="M95.98,105.89l-6,3.11v.2c0,1.56.25,2.75.74,3.56s1.2,1.22,2.13,1.22c.55,0,1.24-.25,2.08-.74.83-.49,1.9-1.29,3.2-2.39l.69,1.24c-1.88,1.73-3.37,2.93-4.47,3.6-1.11.67-2.11,1-3.02,1-1.38,0-2.5-.6-3.35-1.79-.86-1.19-1.29-2.76-1.29-4.7,0-1.38.23-2.85.68-4.43s1.04-2.96,1.76-4.14c.9-1.44,1.94-2.56,3.11-3.34,1.17-.79,2.37-1.18,3.62-1.18s2.34.4,3.2,1.21c.86.81,1.29,1.79,1.29,2.94,0,.93-.26,1.7-.78,2.31-.52.61-1.7,1.39-3.56,2.33ZM90.08,107.25l.2-.1c4.65-2.39,6.98-4.23,6.98-5.53,0-.69-.25-1.3-.75-1.81-.5-.51-1.08-.77-1.75-.77-1.03,0-1.96.71-2.78,2.14-.82,1.43-1.46,3.45-1.9,6.06Z"/>
        <path class="cls-2" d="M100.48,115.84c3.81-4.22,6.63-7.38,8.46-9.47,1.82-2.09,3.43-4,4.82-5.71-.43-.05-1.07-.12-1.91-.22-2.37-.26-3.89-.39-4.56-.39-.93,0-1.62.2-2.07.61-.45.41-.78,1.13-.99,2.16l-1.24-.24.39-1.77c.35-1.47.8-2.47,1.34-3,.54-.53,1.34-.8,2.42-.8.72,0,2.01.18,3.86.55,1.85.37,3.29.55,4.3.55.6,0,1.09-.1,1.46-.31.37-.21.8-.62,1.29-1.22l1.2,1c-3.68,4.1-6.48,7.26-8.39,9.46-1.91,2.2-3.5,4.1-4.79,5.68,1.51.24,2.87.42,4.09.56s2.16.21,2.81.21c1.13,0,1.96-.24,2.49-.73.53-.48.96-1.41,1.29-2.77l1.3.2c-.3,2.35-.82,4-1.54,4.95-.73.95-1.81,1.43-3.25,1.43-.9,0-2.28-.2-4.13-.61-1.85-.41-3.18-.61-4.01-.61-.71,0-1.31.12-1.82.37-.5.25-1.01.66-1.52,1.24l-1.28-1.12Z"/>
        <path class="cls-2" d="M137.82,112.81l-1.26,1.22c-.93.93-1.67,1.58-2.23,1.94-.56.36-1.06.54-1.5.54-.67,0-1.2-.29-1.59-.86-.39-.57-.59-1.35-.59-2.35,0-.38.01-.77.04-1.18.03-.41.07-.82.12-1.24-2.46,2.39-4.19,3.92-5.16,4.6-.98.68-1.79,1.02-2.45,1.02-1,0-1.75-.43-2.25-1.3-.51-.87-.76-2.15-.76-3.85,0-1.55.2-3.04.6-4.47.4-1.44.99-2.79,1.76-4.06,1.12-1.78,2.4-3.15,3.84-4.09,1.45-.94,2.99-1.42,4.61-1.42.35,0,.74.04,1.16.11.42.07.87.18,1.34.32l2.75-1.16c-.77,3.7-1.39,7.01-1.85,9.95s-.69,4.86-.69,5.78c0,.42.07.73.21.94.14.21.35.32.64.32.21,0,.49-.13.85-.39s.94-.79,1.77-1.57l.65,1.2ZM130.96,108.7c.24-1.19.48-2.49.72-3.9.24-1.41.5-3,.78-4.79-.6-.34-1.09-.57-1.46-.7-.37-.12-.74-.19-1.11-.19-1.69,0-3.18,1.14-4.46,3.42-1.29,2.28-1.93,4.97-1.93,8.08,0,.98.11,1.72.33,2.21.22.49.55.74.99.74s1.19-.4,2.2-1.2c1.01-.8,2.33-2.03,3.95-3.68Z"/>
        <path class="cls-2" d="M159.1,111.08l-3.34,3.03c-.98.89-1.77,1.51-2.35,1.85s-1.13.51-1.64.51c-1.18,0-2.08-.5-2.71-1.5-.63-1-.94-2.45-.94-4.34,0-3.72.94-6.92,2.82-9.6,1.88-2.67,4.12-4.01,6.71-4.01.52,0,1.06.07,1.6.21s1.11.34,1.7.6l1.12-7.12c.04-.28.07-.55.09-.83.02-.28.03-.57.03-.86,0-.52-.11-.88-.31-1.08-.21-.2-.6-.29-1.16-.29-.17,0-.34,0-.52,0-.18,0-.37.02-.58.03l-.08-1.16c1.09-.11,2.19-.25,3.29-.43s2.22-.41,3.35-.67c-1.22,6.29-2.22,11.97-3.01,17.04-.79,5.07-1.18,8.14-1.18,9.23,0,.67.06,1.14.19,1.41.12.27.33.4.62.4.16,0,.34-.07.56-.2.22-.13.49-.35.82-.65l1.2-1.08.65,1.12-2.26,2.22c-.79.76-1.36,1.25-1.71,1.46-.35.21-.69.31-1.02.31-.7,0-1.2-.33-1.52-.98s-.48-1.67-.48-3.05c0-.3,0-.57.02-.82.01-.24.03-.5.06-.76ZM159.06,109.08l1.47-8.91c-.72-.42-1.36-.72-1.93-.91-.56-.19-1.09-.29-1.57-.29-1.61,0-2.97,1.03-4.07,3.1-1.1,2.07-1.65,4.64-1.65,7.72,0,1.25.15,2.19.44,2.83s.73.96,1.31.96c.39,0,1.12-.4,2.19-1.2,1.07-.8,2.34-1.9,3.8-3.3Z"/>
        <path class="cls-2" d="M176.94,105.89l-6,3.11v.2c0,1.56.25,2.75.74,3.56.49.81,1.2,1.22,2.13,1.22.55,0,1.24-.25,2.08-.74.83-.49,1.9-1.29,3.2-2.39l.69,1.24c-1.88,1.73-3.37,2.93-4.47,3.6-1.11.67-2.12,1-3.02,1-1.38,0-2.5-.6-3.35-1.79-.86-1.19-1.29-2.76-1.29-4.7,0-1.38.23-2.85.68-4.43.45-1.58,1.04-2.96,1.76-4.14.9-1.44,1.94-2.56,3.11-3.34,1.17-.79,2.37-1.18,3.62-1.18s2.34.4,3.2,1.21c.86.81,1.29,1.79,1.29,2.94,0,.93-.26,1.7-.78,2.31-.52.61-1.7,1.39-3.56,2.33ZM171.03,107.25l.2-.1c4.65-2.39,6.98-4.23,6.98-5.53,0-.69-.25-1.3-.75-1.81-.5-.51-1.08-.77-1.75-.77-1.03,0-1.96.71-2.78,2.14-.82,1.43-1.46,3.45-1.9,6.06Z"/>
        <path class="cls-2" d="M200.25,112.89l-1.83,1.73c-.83.79-1.47,1.33-1.95,1.62s-.89.44-1.26.44c-.76,0-1.34-.28-1.74-.85-.4-.56-.6-1.38-.6-2.46,0-.88.29-2.82.88-5.84.33-1.66.58-2.98.77-3.95l.81-4.42c.51-2.87.91-5.2,1.19-6.98.28-1.78.42-2.86.42-3.25,0-.42-.1-.73-.29-.92-.2-.2-.5-.29-.92-.29-.08,0-.24,0-.47.02-.24.01-.43.02-.57.02l-.12-1.08c.85-.12,1.79-.28,2.81-.48,1.02-.2,2.22-.46,3.6-.78-1.43,7.14-2.6,13.29-3.51,18.42-.91,5.14-1.37,8.05-1.37,8.73,0,.37.07.66.21.88.14.22.32.32.56.32.14,0,.33-.07.57-.22.24-.14.52-.37.87-.67l1.34-1.08.61,1.08Z"/>
        <path class="cls-2" d="M220.27,112.81l-1.26,1.22c-.93.93-1.67,1.58-2.23,1.94-.56.36-1.06.54-1.5.54-.67,0-1.2-.29-1.59-.86-.39-.57-.59-1.35-.59-2.35,0-.38.01-.77.04-1.18.03-.41.06-.82.12-1.24-2.46,2.39-4.19,3.92-5.16,4.6-.98.68-1.79,1.02-2.45,1.02-1,0-1.75-.43-2.25-1.3-.5-.87-.76-2.15-.76-3.85,0-1.55.2-3.04.6-4.47.4-1.44.99-2.79,1.76-4.06,1.11-1.78,2.39-3.15,3.84-4.09,1.45-.94,2.99-1.42,4.61-1.42.35,0,.74.04,1.16.11.42.07.87.18,1.34.32l2.75-1.16c-.77,3.7-1.39,7.01-1.85,9.95s-.69,4.86-.69,5.78c0,.42.07.73.21.94.14.21.35.32.64.32.21,0,.49-.13.85-.39s.94-.79,1.77-1.57l.65,1.2ZM213.41,108.7c.24-1.19.47-2.49.72-3.9s.5-3,.78-4.79c-.6-.34-1.09-.57-1.46-.7-.37-.12-.74-.19-1.11-.19-1.69,0-3.18,1.14-4.46,3.42-1.29,2.28-1.93,4.97-1.93,8.08,0,.98.11,1.72.32,2.21.22.49.55.74.99.74s1.19-.4,2.2-1.2c1.01-.8,2.33-2.03,3.95-3.68Z"/>
        <path class="cls-2" d="M236.67,102.75l3.19-3.11c1.11-1.06,1.96-1.76,2.53-2.1s1.11-.51,1.62-.51c.87,0,1.57.38,2.11,1.14.54.76.82,1.76.82,3.01s-.32,3.24-.96,5.89-.96,4.54-.96,5.67c0,.34.07.6.2.78s.32.27.57.27c.12,0,.27-.05.44-.15s.35-.23.52-.4l1.49-1.46.69,1.04-2.14,2.18c-.51.52-1.02.94-1.52,1.24-.5.3-.95.45-1.33.45-.66,0-1.19-.29-1.6-.86s-.62-1.32-.62-2.25c0-1.11.33-3.08,1-5.89.67-2.81,1-4.86,1-6.14,0-.49-.1-.88-.3-1.17-.2-.29-.48-.44-.82-.44-.51,0-2.08,1.21-4.7,3.64-.7.64-1.24,1.15-1.63,1.51l-1.24,6.92c-.03.13-.07.33-.12.59-.28,1.4-.44,2.48-.49,3.22l-3.5.87c.87-3.76,1.55-7.03,2.05-9.81.5-2.78.76-4.6.76-5.47,0-.52-.06-.9-.18-1.13-.12-.23-.31-.34-.57-.34-.16,0-.42.09-.78.28-.36.18-.82.45-1.37.81l-.53-1.04c.14-.12.35-.29.63-.51,2.02-1.63,3.37-2.44,4.05-2.44s1.14.25,1.46.74c.31.49.47,1.25.47,2.29,0,.37-.02.78-.06,1.24s-.1.94-.18,1.46Z"/>
        <path class="cls-2" d="M268.52,112.81l-1.26,1.22c-.93.93-1.68,1.58-2.23,1.94s-1.06.54-1.5.54c-.67,0-1.2-.29-1.59-.86s-.59-1.35-.59-2.35c0-.38.01-.77.04-1.18s.07-.82.12-1.24c-2.46,2.39-4.19,3.92-5.16,4.6-.98.68-1.79,1.02-2.45,1.02-1,0-1.75-.43-2.25-1.3-.5-.87-.76-2.15-.76-3.85,0-1.55.2-3.04.6-4.47.4-1.44.99-2.79,1.76-4.06,1.11-1.78,2.4-3.15,3.84-4.09,1.45-.94,2.98-1.42,4.61-1.42.35,0,.74.04,1.16.11.42.07.87.18,1.34.32l2.75-1.16c-.77,3.7-1.39,7.01-1.85,9.95s-.69,4.86-.69,5.78c0,.42.07.73.21.94.14.21.35.32.64.32.21,0,.49-.13.85-.39.35-.26.94-.79,1.77-1.57l.65,1.2ZM261.66,108.7c.24-1.19.48-2.49.72-3.9s.5-3,.78-4.79c-.6-.34-1.09-.57-1.46-.7-.37-.12-.74-.19-1.11-.19-1.69,0-3.18,1.14-4.46,3.42-1.29,2.28-1.93,4.97-1.93,8.08,0,.98.11,1.72.32,2.21.22.49.55.74.99.74s1.19-.4,2.2-1.2c1.01-.8,2.33-2.03,3.95-3.68Z"/>
        <path class="cls-2" d="M278.55,92.6c-.25.88-.6,2.25-1.04,4.13-.13.55-.23.96-.29,1.22.77,0,1.56,0,2.37-.03s1.65-.05,2.55-.09l-.47,1.97c-.35-.01-.75-.02-1.18-.02h-3.66c-.62,2.7-1.07,5.06-1.37,7.08-.29,2.02-.44,3.71-.44,5.07,0,.58.09,1.03.28,1.36.19.33.46.49.8.49.26,0,.68-.21,1.24-.63.56-.42,1.33-1.09,2.3-2.03l.69,1.26c-1.89,1.94-3.18,3.18-3.89,3.71-.71.53-1.3.8-1.79.8-.9,0-1.62-.43-2.16-1.28-.54-.85-.81-2.01-.81-3.48,0-.96.15-2.33.45-4.12.3-1.79.87-4.56,1.71-8.33-.21,0-.48,0-.82.02-.33.01-.56.02-.68.02h-1.36l.24-1.32c.6-.03,1.16-.13,1.66-.31.5-.18,1.01-.47,1.52-.87.12-.47.25-.97.4-1.48.15-.52.32-1.07.52-1.64l3.22-1.5Z"/>
        <path class="cls-2" d="M301.99,112.81l-2.71,2.54c-.49.47-.92.81-1.31,1-.39.2-.78.29-1.19.29-.59,0-1.06-.29-1.43-.86-.36-.57-.54-1.33-.54-2.29,0-.28.02-.61.07-.99.04-.39.14-.99.29-1.82-2.43,2.48-4.14,4.09-5.15,4.84s-1.87,1.12-2.58,1.12c-.75,0-1.37-.35-1.87-1.04-.5-.69-.75-1.59-.75-2.67,0-.92.39-2.98,1.18-6.19.2-.76.34-1.34.43-1.73.28-1.09.48-1.96.61-2.62.13-.66.2-1.16.2-1.49,0-.26-.07-.47-.2-.64-.13-.16-.29-.25-.49-.25-.13,0-.39.09-.77.28s-.91.47-1.57.85l-.55-1.08c1.22-.91,2.29-1.61,3.21-2.11s1.57-.76,1.95-.76c.54,0,.96.23,1.27.69.31.46.46,1.09.46,1.91,0,1.02-.4,3-1.21,5.94-.81,2.94-1.21,5.14-1.21,6.61,0,.46.08.8.24,1.01.16.22.4.32.73.32.37,0,.99-.36,1.88-1.09s2.37-2.12,4.45-4.18c.5-2.36.9-4.36,1.21-5.99.31-1.63.55-3.09.72-4.38l3.54-.85-.43,1.95c-.75,3.19-1.15,4.96-1.22,5.33l-.47,2.52c-.24,1.19-.42,2.33-.56,3.42s-.21,1.85-.21,2.3c0,.3.06.54.18.71.12.17.28.26.47.26.18,0,.52-.18,1.02-.53.5-.35,1.07-.83,1.71-1.43l.61,1.12Z"/>
        <path class="cls-2" d="M304.72,116.65c.83-3.41,1.47-6.42,1.93-9.04s.69-4.58.69-5.91c0-.56-.08-.99-.25-1.27-.16-.28-.4-.42-.72-.42-.24,0-.9.34-1.99,1.02l-.16.1-.69-1.12.29-.22c2.36-1.77,3.89-2.65,4.58-2.65.64,0,1.11.21,1.39.62s.42,1.1.42,2.05c0,.84-.03,1.62-.08,2.35s-.13,1.35-.24,1.88c1.8-2.96,3.07-4.85,3.83-5.67.76-.82,1.47-1.23,2.12-1.23.45,0,.82.16,1.12.49.3.33.45.73.45,1.2,0,.29-.07.64-.23,1.05-.15.41-.47,1.1-.95,2.06-.24-.33-.48-.57-.73-.73-.25-.16-.5-.24-.75-.24-.48,0-1.06.34-1.72,1.01s-1.7,2.03-3.12,4.06c-.45,1.81-.82,3.53-1.12,5.16-.3,1.63-.53,3.18-.69,4.63l-3.42.81Z"/>
        <path class="cls-2" d="M336.3,112.81l-1.26,1.22c-.93.93-1.68,1.58-2.23,1.94s-1.06.54-1.5.54c-.67,0-1.2-.29-1.59-.86s-.59-1.35-.59-2.35c0-.38.01-.77.04-1.18s.07-.82.12-1.24c-2.46,2.39-4.19,3.92-5.16,4.6-.98.68-1.79,1.02-2.45,1.02-1,0-1.75-.43-2.25-1.3-.5-.87-.76-2.15-.76-3.85,0-1.55.2-3.04.6-4.47.4-1.44.99-2.79,1.76-4.06,1.11-1.78,2.4-3.15,3.84-4.09,1.45-.94,2.98-1.42,4.61-1.42.35,0,.74.04,1.16.11.42.07.87.18,1.34.32l2.75-1.16c-.77,3.7-1.39,7.01-1.85,9.95s-.69,4.86-.69,5.78c0,.42.07.73.21.94.14.21.35.32.64.32.21,0,.49-.13.85-.39.35-.26.94-.79,1.77-1.57l.65,1.2ZM329.44,108.7c.24-1.19.48-2.49.72-3.9s.5-3,.78-4.79c-.6-.34-1.09-.57-1.46-.7-.37-.12-.74-.19-1.11-.19-1.69,0-3.18,1.14-4.46,3.42-1.29,2.28-1.93,4.97-1.93,8.08,0,.98.11,1.72.32,2.21.22.49.55.74.99.74s1.19-.4,2.2-1.2c1.01-.8,2.33-2.03,3.95-3.68Z"/>
        <path class="cls-2" d="M346.17,112.89l-1.83,1.73c-.83.79-1.47,1.33-1.95,1.62-.47.29-.89.44-1.26.44-.76,0-1.34-.28-1.74-.85-.4-.56-.6-1.38-.6-2.46,0-.88.29-2.82.88-5.84.33-1.66.58-2.98.77-3.95l.81-4.42c.51-2.87.91-5.2,1.19-6.98.28-1.78.42-2.86.42-3.25,0-.42-.1-.73-.29-.92-.2-.2-.51-.29-.92-.29-.08,0-.24,0-.47.02s-.43.02-.57.02l-.12-1.08c.85-.12,1.79-.28,2.81-.48,1.02-.2,2.22-.46,3.6-.78-1.43,7.14-2.6,13.29-3.51,18.42s-1.37,8.05-1.37,8.73c0,.37.07.66.21.88.14.22.32.32.56.32.14,0,.33-.07.57-.22.24-.14.53-.37.87-.67l1.34-1.08.61,1.08Z"/>
        <path class="cls-2" d="M357.82,105.89l-6,3.11v.2c0,1.56.25,2.75.74,3.56s1.2,1.22,2.13,1.22c.55,0,1.24-.25,2.08-.74.83-.49,1.9-1.29,3.2-2.39l.69,1.24c-1.88,1.73-3.37,2.93-4.47,3.6-1.11.67-2.11,1-3.02,1-1.38,0-2.5-.6-3.35-1.79-.86-1.19-1.29-2.76-1.29-4.7,0-1.38.23-2.85.68-4.43s1.04-2.96,1.76-4.14c.9-1.44,1.94-2.56,3.11-3.34,1.17-.79,2.37-1.18,3.62-1.18s2.34.4,3.2,1.21c.86.81,1.29,1.79,1.29,2.94,0,.93-.26,1.7-.78,2.31-.52.61-1.7,1.39-3.56,2.33ZM351.91,107.25l.2-.1c4.65-2.39,6.98-4.23,6.98-5.53,0-.69-.25-1.3-.75-1.81-.5-.51-1.08-.77-1.75-.77-1.03,0-1.96.71-2.78,2.14-.82,1.43-1.46,3.45-1.9,6.06Z"/>
        <path class="cls-2" d="M362.32,115.84c3.81-4.22,6.63-7.38,8.46-9.47,1.82-2.09,3.43-4,4.82-5.71-.43-.05-1.07-.12-1.91-.22-2.37-.26-3.89-.39-4.56-.39-.93,0-1.62.2-2.07.61-.45.41-.78,1.13-.99,2.16l-1.24-.24.39-1.77c.35-1.47.8-2.47,1.34-3,.54-.53,1.34-.8,2.42-.8.72,0,2.01.18,3.86.55s3.29.55,4.3.55c.6,0,1.09-.1,1.46-.31.37-.21.8-.62,1.29-1.22l1.2,1c-3.68,4.1-6.48,7.26-8.39,9.46s-3.5,4.1-4.79,5.68c1.51.24,2.87.42,4.09.56,1.22.14,2.16.21,2.81.21,1.13,0,1.96-.24,2.49-.73.53-.48.96-1.41,1.29-2.77l1.3.2c-.3,2.35-.82,4-1.54,4.95-.73.95-1.81,1.43-3.25,1.43-.9,0-2.28-.2-4.13-.61-1.85-.41-3.19-.61-4.01-.61-.71,0-1.31.12-1.82.37-.5.25-1.01.66-1.52,1.24l-1.28-1.12Z"/>
        <path class="cls-2" d="M399.66,112.81l-1.26,1.22c-.93.93-1.67,1.58-2.23,1.94-.56.36-1.06.54-1.5.54-.67,0-1.2-.29-1.59-.86-.39-.57-.59-1.35-.59-2.35,0-.38.01-.77.04-1.18.03-.41.07-.82.12-1.24-2.46,2.39-4.19,3.92-5.16,4.6-.98.68-1.79,1.02-2.45,1.02-1,0-1.75-.43-2.25-1.3-.51-.87-.76-2.15-.76-3.85,0-1.55.2-3.04.6-4.47.4-1.44.99-2.79,1.76-4.06,1.12-1.78,2.4-3.15,3.84-4.09,1.45-.94,2.99-1.42,4.61-1.42.35,0,.74.04,1.16.11.42.07.87.18,1.34.32l2.75-1.16c-.77,3.7-1.39,7.01-1.85,9.95s-.69,4.86-.69,5.78c0,.42.07.73.21.94.14.21.35.32.64.32.21,0,.49-.13.85-.39s.94-.79,1.77-1.57l.65,1.2ZM392.79,108.7c.24-1.19.48-2.49.72-3.9.24-1.41.5-3,.78-4.79-.6-.34-1.09-.57-1.46-.7-.37-.12-.74-.19-1.11-.19-1.69,0-3.18,1.14-4.46,3.42-1.29,2.28-1.93,4.97-1.93,8.08,0,.98.11,1.72.33,2.21.22.49.55.74.99.74s1.19-.4,2.2-1.2c1.01-.8,2.33-2.03,3.95-3.68Z"/>
        <path class="cls-2" d="M422.33,100.48l-1.04,1.02c-.87-.88-1.56-1.46-2.07-1.75-.52-.29-1.04-.43-1.58-.43-1.21,0-2.25.89-3.15,2.68-.89,1.79-1.34,4-1.34,6.62,0,1.76.23,3.08.69,3.97.46.89,1.13,1.34,2.03,1.34.5,0,1.18-.29,2.04-.86s1.78-1.35,2.73-2.35l.81,1.4c-1.52,1.61-2.82,2.78-3.89,3.49-1.07.71-2.06,1.07-2.95,1.07-1.42,0-2.55-.62-3.39-1.85-.85-1.23-1.27-2.9-1.27-4.99,0-3.59.92-6.62,2.76-9.08,1.84-2.46,4.11-3.7,6.81-3.7.98,0,1.83.21,2.53.63.7.42,1.05.9,1.05,1.44,0,.21-.05.42-.17.63-.11.21-.31.45-.6.73Z"/>
        <path class="cls-2" d="M434.36,97.1c1.95,0,3.44.61,4.45,1.82,1.02,1.21,1.52,2.99,1.52,5.32,0,1.34-.26,2.76-.79,4.28-.52,1.51-1.23,2.88-2.12,4.1-.96,1.31-2.04,2.32-3.25,3.02-1.21.7-2.49,1.05-3.83,1.05-1.76,0-3.16-.64-4.2-1.91-1.04-1.27-1.56-2.98-1.56-5.11,0-1.59.25-3.13.77-4.64s1.25-2.87,2.2-4.09c.94-1.22,2.01-2.16,3.21-2.83,1.2-.67,2.39-1,3.59-1ZM433.52,99.01c-1.52,0-2.83,1.04-3.93,3.13-1.1,2.09-1.65,4.66-1.65,7.72,0,1.61.28,2.85.84,3.7.56.85,1.37,1.28,2.43,1.28,1.6,0,2.96-1.03,4.08-3.08,1.12-2.05,1.68-4.57,1.68-7.55,0-1.77-.28-3.08-.85-3.93s-1.43-1.27-2.6-1.27Z"/>
        <path class="cls-2" d="M448.87,102.75l3.19-3.11c1.11-1.06,1.96-1.76,2.53-2.1s1.11-.51,1.62-.51c.87,0,1.57.38,2.11,1.14.54.76.82,1.76.82,3.01s-.32,3.24-.96,5.89c-.64,2.65-.96,4.54-.96,5.67,0,.34.07.6.2.78s.32.27.57.27c.12,0,.27-.05.44-.15.18-.1.35-.23.52-.4l1.49-1.46.69,1.04-2.14,2.18c-.51.52-1.02.94-1.52,1.24-.5.3-.95.45-1.33.45-.66,0-1.19-.29-1.6-.86-.41-.57-.62-1.32-.62-2.25,0-1.11.33-3.08,1-5.89s1-4.86,1-6.14c0-.49-.1-.88-.3-1.17s-.47-.44-.82-.44c-.51,0-2.08,1.21-4.7,3.64-.7.64-1.24,1.15-1.63,1.51l-1.24,6.92c-.03.13-.07.33-.12.59-.28,1.4-.44,2.48-.49,3.22l-3.5.87c.87-3.76,1.55-7.03,2.05-9.81.5-2.78.76-4.6.76-5.47,0-.52-.06-.9-.18-1.13-.12-.23-.31-.34-.57-.34-.16,0-.42.09-.78.28s-.82.45-1.37.81l-.53-1.04c.14-.12.35-.29.63-.51,2.02-1.63,3.37-2.44,4.05-2.44s1.14.25,1.46.74c.31.49.47,1.25.47,2.29,0,.37-.02.78-.06,1.24-.04.46-.1.94-.18,1.46Z"/>
        <path class="cls-2" d="M481.19,105.89l-6,3.11v.2c0,1.56.25,2.75.74,3.56s1.2,1.22,2.13,1.22c.55,0,1.24-.25,2.08-.74.83-.49,1.9-1.29,3.2-2.39l.69,1.24c-1.88,1.73-3.37,2.93-4.47,3.6-1.11.67-2.11,1-3.02,1-1.38,0-2.5-.6-3.35-1.79-.86-1.19-1.29-2.76-1.29-4.7,0-1.38.23-2.85.68-4.43s1.04-2.96,1.76-4.14c.9-1.44,1.94-2.56,3.11-3.34,1.17-.79,2.37-1.18,3.62-1.18s2.34.4,3.2,1.21c.86.81,1.29,1.79,1.29,2.94,0,.93-.26,1.7-.78,2.31-.52.61-1.7,1.39-3.56,2.33ZM475.28,107.25l.2-.1c4.65-2.39,6.98-4.23,6.98-5.53,0-.69-.25-1.3-.75-1.81-.5-.51-1.08-.77-1.75-.77-1.03,0-1.96.71-2.78,2.14-.82,1.43-1.46,3.45-1.9,6.06Z"/>
        <path class="cls-2" d="M495.67,112.89l-1.83,1.73c-.83.79-1.47,1.33-1.95,1.62-.47.29-.89.44-1.26.44-.76,0-1.34-.28-1.74-.85s-.6-1.38-.6-2.46c0-.88.29-2.82.88-5.84.33-1.66.58-2.98.77-3.95l.81-4.42c.51-2.87.91-5.2,1.19-6.98.28-1.78.42-2.86.42-3.25,0-.42-.1-.73-.29-.92s-.5-.29-.92-.29c-.08,0-.24,0-.47.02-.24.01-.43.02-.57.02l-.12-1.08c.85-.12,1.79-.28,2.81-.48,1.02-.2,2.22-.46,3.6-.78-1.43,7.14-2.6,13.29-3.51,18.42s-1.37,8.05-1.37,8.73c0,.37.07.66.21.88.14.22.32.32.56.32.14,0,.33-.07.57-.22.24-.14.52-.37.87-.67l1.34-1.08.61,1.08Z"/>
        <path class="cls-2" d="M507.8,116.65c.83-3.41,1.47-6.42,1.93-9.04s.69-4.58.69-5.91c0-.56-.08-.99-.25-1.27-.16-.28-.4-.42-.72-.42-.24,0-.9.34-1.99,1.02l-.16.1-.69-1.12.29-.22c2.36-1.77,3.89-2.65,4.58-2.65.64,0,1.1.21,1.39.62.28.41.42,1.1.42,2.05,0,.84-.03,1.62-.08,2.35s-.13,1.35-.24,1.88c1.8-2.96,3.07-4.85,3.83-5.67.76-.82,1.47-1.23,2.12-1.23.45,0,.82.16,1.12.49.3.33.45.73.45,1.2,0,.29-.08.64-.23,1.05-.15.41-.47,1.1-.95,2.06-.24-.33-.48-.57-.73-.73-.25-.16-.5-.24-.75-.24-.49,0-1.06.34-1.72,1.01s-1.7,2.03-3.12,4.06c-.45,1.81-.82,3.53-1.12,5.16s-.53,3.18-.69,4.63l-3.42.81Z"/>
        <path class="cls-2" d="M531.01,105.89l-6,3.11v.2c0,1.56.25,2.75.74,3.56.49.81,1.2,1.22,2.13,1.22.55,0,1.24-.25,2.08-.74.83-.49,1.9-1.29,3.2-2.39l.69,1.24c-1.88,1.73-3.37,2.93-4.47,3.6-1.11.67-2.12,1-3.02,1-1.38,0-2.5-.6-3.35-1.79-.86-1.19-1.29-2.76-1.29-4.7,0-1.38.23-2.85.68-4.43.45-1.58,1.04-2.96,1.76-4.14.9-1.44,1.94-2.56,3.11-3.34,1.17-.79,2.37-1.18,3.62-1.18s2.34.4,3.2,1.21c.86.81,1.29,1.79,1.29,2.94,0,.93-.26,1.7-.78,2.31-.52.61-1.7,1.39-3.56,2.33ZM525.11,107.25l.2-.1c4.65-2.39,6.98-4.23,6.98-5.53,0-.69-.25-1.3-.75-1.81-.5-.51-1.08-.77-1.75-.77-1.03,0-1.96.71-2.78,2.14-.82,1.43-1.46,3.45-1.9,6.06Z"/>
        <path class="cls-2" d="M549.47,100.48l-1.04,1.02c-.87-.88-1.56-1.46-2.07-1.75-.52-.29-1.04-.43-1.58-.43-1.21,0-2.25.89-3.15,2.68-.89,1.79-1.34,4-1.34,6.62,0,1.76.23,3.08.69,3.97.46.89,1.13,1.34,2.03,1.34.5,0,1.18-.29,2.04-.86s1.78-1.35,2.73-2.35l.81,1.4c-1.52,1.61-2.82,2.78-3.89,3.49-1.07.71-2.06,1.07-2.95,1.07-1.42,0-2.55-.62-3.39-1.85-.85-1.23-1.27-2.9-1.27-4.99,0-3.59.92-6.62,2.76-9.08,1.84-2.46,4.11-3.7,6.81-3.7.98,0,1.83.21,2.53.63.7.42,1.05.9,1.05,1.44,0,.21-.05.42-.17.63-.11.21-.31.45-.6.73Z"/>
        <path class="cls-2" d="M570.02,112.81l-2.71,2.54c-.49.47-.92.81-1.31,1-.39.2-.78.29-1.19.29-.59,0-1.07-.29-1.43-.86s-.54-1.33-.54-2.29c0-.28.02-.61.07-.99.04-.39.14-.99.29-1.82-2.43,2.48-4.14,4.09-5.15,4.84s-1.87,1.12-2.58,1.12c-.75,0-1.37-.35-1.87-1.04-.5-.69-.75-1.59-.75-2.67,0-.92.39-2.98,1.18-6.19.2-.76.34-1.34.43-1.73.28-1.09.48-1.96.61-2.62s.2-1.16.2-1.49c0-.26-.07-.47-.2-.64s-.29-.25-.49-.25c-.13,0-.39.09-.77.28-.38.18-.91.47-1.57.85l-.55-1.08c1.22-.91,2.29-1.61,3.21-2.11.92-.5,1.57-.76,1.95-.76.54,0,.96.23,1.27.69s.46,1.09.46,1.91c0,1.02-.4,3-1.21,5.94-.81,2.94-1.21,5.14-1.21,6.61,0,.46.08.8.24,1.01.16.22.4.32.73.32.37,0,.99-.36,1.88-1.09s2.37-2.12,4.45-4.18c.5-2.36.9-4.36,1.21-5.99.31-1.63.55-3.09.72-4.38l3.54-.85-.43,1.95c-.75,3.19-1.15,4.96-1.22,5.33l-.47,2.52c-.24,1.19-.42,2.33-.56,3.42-.14,1.09-.21,1.85-.21,2.3,0,.3.06.54.18.71.12.17.28.26.47.26.18,0,.52-.18,1.02-.53.5-.35,1.07-.83,1.71-1.43l.61,1.12Z"/>
        <path class="cls-2" d="M581.1,105.89l-6,3.11v.2c0,1.56.25,2.75.74,3.56.49.81,1.2,1.22,2.13,1.22.55,0,1.24-.25,2.08-.74.83-.49,1.9-1.29,3.2-2.39l.69,1.24c-1.88,1.73-3.37,2.93-4.47,3.6-1.11.67-2.12,1-3.02,1-1.38,0-2.5-.6-3.35-1.79-.86-1.19-1.29-2.76-1.29-4.7,0-1.38.23-2.85.68-4.43.45-1.58,1.04-2.96,1.76-4.14.9-1.44,1.94-2.56,3.11-3.34,1.17-.79,2.37-1.18,3.62-1.18s2.34.4,3.2,1.21c.86.81,1.29,1.79,1.29,2.94,0,.93-.26,1.7-.78,2.31-.52.61-1.7,1.39-3.56,2.33ZM575.19,107.25l.2-.1c4.65-2.39,6.98-4.23,6.98-5.53,0-.69-.25-1.3-.75-1.81-.5-.51-1.08-.77-1.75-.77-1.03,0-1.96.71-2.78,2.14-.82,1.43-1.46,3.45-1.9,6.06Z"/>
        <path class="cls-2" d="M588.05,116.65c.83-3.41,1.47-6.42,1.93-9.04.46-2.62.69-4.58.69-5.91,0-.56-.08-.99-.25-1.27-.16-.28-.4-.42-.72-.42-.24,0-.9.34-1.99,1.02l-.16.1-.69-1.12.29-.22c2.36-1.77,3.89-2.65,4.58-2.65.64,0,1.1.21,1.39.62s.42,1.1.42,2.05c0,.84-.03,1.62-.08,2.35-.05.73-.13,1.35-.24,1.88,1.8-2.96,3.07-4.85,3.83-5.67s1.47-1.23,2.12-1.23c.45,0,.82.16,1.12.49.3.33.45.73.45,1.2,0,.29-.08.64-.23,1.05-.15.41-.47,1.1-.95,2.06-.24-.33-.48-.57-.73-.73-.25-.16-.5-.24-.75-.24-.49,0-1.06.34-1.72,1.01s-1.7,2.03-3.12,4.06c-.45,1.81-.82,3.53-1.12,5.16-.3,1.63-.53,3.18-.69,4.63l-3.42.81Z"/>
        <path class="cls-2" d="M613.02,111.08l-3.34,3.03c-.98.89-1.77,1.51-2.35,1.85s-1.13.51-1.64.51c-1.18,0-2.08-.5-2.71-1.5-.63-1-.94-2.45-.94-4.34,0-3.72.94-6.92,2.82-9.6,1.88-2.67,4.12-4.01,6.71-4.01.52,0,1.06.07,1.6.21s1.11.34,1.7.6l1.12-7.12c.04-.28.07-.55.09-.83.02-.28.03-.57.03-.86,0-.52-.11-.88-.31-1.08-.21-.2-.6-.29-1.16-.29-.17,0-.34,0-.52,0-.18,0-.37.02-.58.03l-.08-1.16c1.09-.11,2.19-.25,3.29-.43s2.22-.41,3.35-.67c-1.22,6.29-2.22,11.97-3.01,17.04-.79,5.07-1.18,8.14-1.18,9.23,0,.67.06,1.14.19,1.41.12.27.33.4.62.4.16,0,.34-.07.56-.2.22-.13.49-.35.82-.65l1.2-1.08.65,1.12-2.26,2.22c-.79.76-1.36,1.25-1.71,1.46-.35.21-.69.31-1.02.31-.7,0-1.2-.33-1.52-.98s-.48-1.67-.48-3.05c0-.3,0-.57.02-.82.01-.24.03-.5.06-.76ZM612.98,109.08l1.47-8.91c-.72-.42-1.36-.72-1.93-.91-.56-.19-1.09-.29-1.57-.29-1.61,0-2.97,1.03-4.07,3.1-1.1,2.07-1.65,4.64-1.65,7.72,0,1.25.15,2.19.44,2.83s.73.96,1.31.96c.39,0,1.12-.4,2.19-1.2,1.07-.8,2.34-1.9,3.8-3.3Z"/>
        <path class="cls-2" d="M631.52,97.1c1.95,0,3.44.61,4.45,1.82s1.52,2.99,1.52,5.32c0,1.34-.26,2.76-.79,4.28-.52,1.51-1.23,2.88-2.12,4.1-.96,1.31-2.04,2.32-3.25,3.02s-2.49,1.05-3.82,1.05c-1.76,0-3.16-.64-4.2-1.91-1.04-1.27-1.56-2.98-1.56-5.11,0-1.59.26-3.13.77-4.64s1.25-2.87,2.2-4.09c.94-1.22,2.02-2.16,3.21-2.83,1.2-.67,2.4-1,3.59-1ZM630.68,99.01c-1.52,0-2.83,1.04-3.93,3.13s-1.65,4.66-1.65,7.72c0,1.61.28,2.85.83,3.7.56.85,1.37,1.28,2.43,1.28,1.6,0,2.96-1.03,4.08-3.08,1.12-2.05,1.68-4.57,1.68-7.55,0-1.77-.28-3.08-.85-3.93s-1.43-1.27-2.59-1.27Z"/>
        <path class="cls-2" d="M659.74,111.08l-3.34,3.03c-.98.89-1.77,1.51-2.35,1.85-.58.34-1.13.51-1.64.51-1.18,0-2.08-.5-2.71-1.5s-.94-2.45-.94-4.34c0-3.72.94-6.92,2.82-9.6,1.88-2.67,4.12-4.01,6.71-4.01.52,0,1.06.07,1.6.21s1.11.34,1.7.6l1.12-7.12c.04-.28.07-.55.09-.83.02-.28.03-.57.03-.86,0-.52-.1-.88-.31-1.08-.21-.2-.6-.29-1.16-.29-.17,0-.34,0-.52,0-.18,0-.37.02-.58.03l-.08-1.16c1.09-.11,2.19-.25,3.29-.43,1.11-.18,2.22-.41,3.35-.67-1.22,6.29-2.22,11.97-3.01,17.04s-1.18,8.14-1.18,9.23c0,.67.06,1.14.19,1.41.12.27.33.4.62.4.16,0,.34-.07.56-.2.22-.13.49-.35.82-.65l1.2-1.08.65,1.12-2.26,2.22c-.79.76-1.36,1.25-1.71,1.46-.35.21-.7.31-1.02.31-.69,0-1.2-.33-1.52-.98-.32-.66-.48-1.67-.48-3.05,0-.3,0-.57.02-.82.01-.24.03-.5.06-.76ZM659.7,109.08l1.47-8.91c-.72-.42-1.36-.72-1.93-.91-.56-.19-1.09-.29-1.57-.29-1.61,0-2.97,1.03-4.07,3.1-1.1,2.07-1.65,4.64-1.65,7.72,0,1.25.15,2.19.44,2.83s.73.96,1.31.96c.39,0,1.12-.4,2.19-1.2,1.07-.8,2.34-1.9,3.8-3.3Z"/>
        <path class="cls-2" d="M677.58,105.89l-6,3.11v.2c0,1.56.25,2.75.74,3.56s1.2,1.22,2.13,1.22c.55,0,1.24-.25,2.08-.74.83-.49,1.9-1.29,3.2-2.39l.69,1.24c-1.88,1.73-3.37,2.93-4.47,3.6-1.11.67-2.11,1-3.02,1-1.38,0-2.5-.6-3.35-1.79-.86-1.19-1.29-2.76-1.29-4.7,0-1.38.23-2.85.68-4.43s1.04-2.96,1.76-4.14c.9-1.44,1.94-2.56,3.11-3.34,1.17-.79,2.37-1.18,3.62-1.18s2.34.4,3.2,1.21c.86.81,1.29,1.79,1.29,2.94,0,.93-.26,1.7-.78,2.31-.52.61-1.7,1.39-3.56,2.33ZM671.68,107.25l.2-.1c4.65-2.39,6.98-4.23,6.98-5.53,0-.69-.25-1.3-.75-1.81-.5-.51-1.08-.77-1.75-.77-1.03,0-1.96.71-2.78,2.14-.82,1.43-1.46,3.45-1.9,6.06Z"/>
        <path class="cls-2" d="M212.34,153.91c-1.72,1.85-3.14,3.19-4.27,4.02-1.13.83-2.06,1.25-2.81,1.25-1.05,0-1.87-.53-2.46-1.58-.59-1.06-.88-2.51-.88-4.38,0-3.6,1-6.75,3.01-9.43,2.01-2.68,4.33-4.02,6.96-4.02.52,0,1.06.07,1.59.22.54.14,1.12.37,1.75.67l2.71-1.57c-.41,1.76-.92,4.58-1.55,8.48l-.1.63-1.38,8.49c-.54,3.3-.9,5.59-1.09,6.86s-.29,2.07-.29,2.4c0,.62.14,1.04.43,1.29.29.24.79.36,1.51.36h.39l-.33,1.34c-.84-.04-1.59-.07-2.25-.09s-1.21-.03-1.64-.03c-.66,0-1.39.02-2.2.06s-1.72.1-2.71.18l.29-1.4h.24c1.85,0,2.96-1.1,3.34-3.3.01-.11.03-.19.04-.26l1.69-10.19ZM212.62,151.65l1.46-8.93c-.64-.34-1.22-.59-1.74-.76s-1-.25-1.45-.25c-.94,0-1.75.28-2.43.85-.68.56-1.26,1.45-1.76,2.65-.45,1.08-.8,2.3-1.07,3.68-.27,1.38-.4,2.66-.4,3.85s.13,2.03.4,2.67c.27.64.64.95,1.11.95.43,0,1.11-.37,2.03-1.1.92-.73,2.2-1.94,3.85-3.62Z"/>
        <path class="cls-2" d="M238.81,155.52l-2.71,2.54c-.49.47-.92.81-1.31,1-.39.2-.78.29-1.19.29-.59,0-1.06-.29-1.43-.86-.36-.57-.54-1.33-.54-2.29,0-.28.02-.61.07-.99.04-.39.14-.99.29-1.82-2.43,2.48-4.14,4.09-5.15,4.84s-1.87,1.12-2.58,1.12c-.75,0-1.37-.35-1.87-1.04-.5-.69-.75-1.59-.75-2.67,0-.92.39-2.98,1.18-6.19.2-.76.34-1.34.43-1.73.28-1.09.48-1.96.61-2.62.13-.66.2-1.16.2-1.49,0-.26-.07-.47-.2-.64-.13-.16-.29-.25-.49-.25-.13,0-.39.09-.77.28s-.91.47-1.57.85l-.55-1.08c1.22-.91,2.29-1.61,3.21-2.11s1.57-.76,1.95-.76c.54,0,.96.23,1.27.69.31.46.46,1.09.46,1.91,0,1.02-.4,3-1.21,5.94-.81,2.94-1.21,5.14-1.21,6.61,0,.46.08.8.24,1.01.16.22.4.32.73.32.37,0,.99-.36,1.88-1.09s2.37-2.12,4.45-4.18c.5-2.36.9-4.36,1.21-5.99.31-1.63.55-3.09.72-4.38l3.54-.85-.43,1.95c-.75,3.19-1.15,4.96-1.22,5.33l-.47,2.52c-.24,1.19-.42,2.33-.56,3.42s-.21,1.85-.21,2.3c0,.3.06.54.18.71.12.17.28.26.47.26.18,0,.52-.18,1.02-.53.5-.35,1.07-.83,1.71-1.43l.61,1.12Z"/>
        <path class="cls-2" d="M248.62,154.36l.69,1.16c-1.61,1.67-2.73,2.73-3.36,3.19s-1.19.69-1.67.69c-.7,0-1.25-.29-1.67-.88s-.63-1.37-.63-2.35c0-1.23.39-3.29,1.17-6.17.78-2.88,1.17-4.96,1.17-6.23,0-.33-.08-.59-.24-.79s-.36-.29-.61-.29c-.21,0-.49.08-.83.26-.34.17-.77.43-1.28.79l-.59-1.04,2.62-1.91c.5-.37.93-.63,1.3-.8.37-.16.71-.25,1.04-.25.62,0,1.1.25,1.46.76.36.5.54,1.2.54,2.07,0,.96-.34,2.83-1.02,5.62-.16.63-.28,1.1-.35,1.42-.37,1.48-.65,2.71-.84,3.68s-.29,1.64-.29,2.01c0,.33.07.6.22.81.14.21.33.31.55.31.21,0,.48-.13.83-.39.34-.26.94-.81,1.79-1.65ZM248.46,129.02l1.12,1.26c.31.33.53.62.66.88.12.26.19.51.19.78,0,.28-.1.54-.29.79-.19.25-.47.48-.84.71l-1.73.96-1.26-1.49c-.26-.33-.43-.59-.51-.78-.08-.19-.12-.39-.12-.6,0-.3.08-.57.24-.8s.43-.46.81-.68l1.73-1.02Z"/>
        <path class="cls-2" d="M260.96,148.6l-6,3.11v.2c0,1.56.25,2.75.74,3.56s1.2,1.22,2.13,1.22c.55,0,1.24-.25,2.08-.74.83-.49,1.9-1.29,3.2-2.39l.69,1.24c-1.88,1.73-3.37,2.93-4.47,3.6-1.11.67-2.11,1-3.02,1-1.38,0-2.5-.6-3.35-1.79-.86-1.19-1.29-2.76-1.29-4.7,0-1.38.23-2.85.68-4.43s1.04-2.96,1.76-4.14c.9-1.44,1.94-2.56,3.11-3.34,1.17-.79,2.37-1.18,3.62-1.18s2.34.4,3.2,1.21c.86.81,1.29,1.79,1.29,2.94,0,.93-.26,1.7-.78,2.31-.52.61-1.7,1.39-3.56,2.33ZM255.05,149.96l.2-.1c4.65-2.39,6.98-4.23,6.98-5.53,0-.69-.25-1.3-.75-1.81-.5-.51-1.08-.77-1.75-.77-1.03,0-1.96.71-2.78,2.14-.82,1.43-1.46,3.45-1.9,6.06Z"/>
        <path class="cls-2" d="M273.14,145.46l3.19-3.11c1.11-1.06,1.96-1.76,2.53-2.1s1.11-.51,1.62-.51c.87,0,1.57.38,2.11,1.14.54.76.82,1.76.82,3.01s-.32,3.24-.96,5.89c-.64,2.65-.96,4.54-.96,5.67,0,.34.07.6.2.78s.32.27.57.27c.12,0,.27-.05.44-.15.18-.1.35-.23.52-.4l1.49-1.46.69,1.04-2.14,2.18c-.51.52-1.02.94-1.52,1.24-.5.3-.95.45-1.33.45-.66,0-1.19-.29-1.6-.86-.41-.57-.62-1.32-.62-2.25,0-1.11.33-3.08,1-5.89s1-4.86,1-6.14c0-.49-.1-.88-.3-1.17s-.47-.44-.82-.44c-.51,0-2.08,1.21-4.7,3.64-.7.64-1.24,1.15-1.63,1.51l-1.24,6.92c-.03.13-.07.33-.12.59-.28,1.4-.44,2.48-.49,3.22l-3.5.87c.87-3.76,1.55-7.03,2.05-9.81.5-2.78.76-4.6.76-5.47,0-.52-.06-.9-.18-1.13-.12-.23-.31-.34-.57-.34-.16,0-.42.09-.78.28s-.82.45-1.37.81l-.53-1.04c.14-.12.35-.29.63-.51,2.02-1.63,3.37-2.44,4.05-2.44s1.14.25,1.46.74c.31.49.47,1.25.47,2.29,0,.37-.02.78-.06,1.24-.04.46-.1.94-.18,1.46Z"/>
        <path class="cls-2" d="M296.63,148.6l-6.01,3.11v.2c0,1.56.25,2.75.74,3.56.49.81,1.2,1.22,2.13,1.22.55,0,1.24-.25,2.07-.74.83-.49,1.9-1.29,3.2-2.39l.69,1.24c-1.88,1.73-3.37,2.93-4.47,3.6s-2.11,1-3.02,1c-1.38,0-2.5-.6-3.36-1.79-.86-1.19-1.29-2.76-1.29-4.7,0-1.38.23-2.85.68-4.43.45-1.58,1.04-2.96,1.76-4.14.9-1.44,1.94-2.56,3.11-3.34,1.17-.79,2.37-1.18,3.62-1.18s2.34.4,3.2,1.21c.86.81,1.29,1.79,1.29,2.94,0,.93-.26,1.7-.78,2.31-.52.61-1.71,1.39-3.56,2.33ZM290.72,149.96l.2-.1c4.65-2.39,6.98-4.23,6.98-5.53,0-.69-.25-1.3-.75-1.81-.5-.51-1.08-.77-1.75-.77-1.03,0-1.96.71-2.78,2.14-.82,1.43-1.46,3.45-1.9,6.06Z"/>
        <path class="cls-2" d="M314.26,143.08l-1.1,1.04-.14-.12c-1.49-1.36-2.63-2.04-3.4-2.04-.73,0-1.34.22-1.82.66-.48.44-.72,1-.72,1.68,0,1.05.91,2.33,2.73,3.85.22.18.39.32.49.41,1.35,1.15,2.24,2.06,2.66,2.71s.64,1.36.64,2.12c0,1.46-.72,2.81-2.15,4.07-1.44,1.26-3.07,1.89-4.91,1.89-1.3,0-2.37-.22-3.22-.67-.85-.45-1.28-.99-1.28-1.63,0-.25.04-.46.12-.65.08-.18.26-.41.53-.69l1.04-.96c.87.96,1.59,1.63,2.16,2.01s1.14.57,1.69.57c.83,0,1.53-.28,2.11-.84.58-.56.88-1.22.88-1.98,0-.87-.9-2.1-2.69-3.7-.47-.42-.83-.75-1.08-.98-1.05-.94-1.77-1.73-2.16-2.36-.39-.63-.59-1.26-.59-1.91,0-1.4.71-2.71,2.13-3.93,1.42-1.22,2.98-1.83,4.67-1.83,1.13,0,2.07.21,2.82.63.75.42,1.13.91,1.13,1.47,0,.22-.05.43-.14.62-.09.19-.23.37-.41.54Z"/>
        <path class="cls-2" d="M335.04,128.17c-.62,2.79-1.04,4.75-1.28,5.87-.24,1.12-.41,1.95-.51,2.49l-1.73,8.97,3.3-3.15c1.1-1.05,1.94-1.74,2.51-2.08.57-.33,1.12-.5,1.64-.5.88,0,1.59.37,2.13,1.12s.82,1.74.82,2.99-.32,3.24-.96,5.89-.96,4.54-.96,5.67c0,.34.06.6.2.78.13.18.31.27.55.27.13,0,.28-.05.45-.15.17-.1.35-.23.53-.4l1.47-1.46.69,1.04-2.12,2.18c-.53.52-1.04.94-1.54,1.24-.5.3-.95.45-1.33.45-.64,0-1.17-.29-1.58-.86s-.62-1.32-.62-2.25c0-1.11.33-3.08,1-5.89.67-2.81,1-4.86,1-6.14,0-.49-.1-.88-.31-1.17-.21-.29-.48-.44-.81-.44-.49,0-1.72.92-3.72,2.75-1.12,1.04-2.03,1.86-2.73,2.48l-1.22,6.86c-.03.2-.07.49-.14.87-.24,1.27-.38,2.25-.41,2.93l-3.5.9c.56-2.49,1.27-6.06,2.1-10.7l.22-1.22.9-4.92c.5-2.8.91-5.22,1.24-7.25.33-2.03.49-3.19.49-3.46,0-.46-.1-.8-.3-1.01-.2-.22-.52-.32-.95-.32-.22,0-.4,0-.54,0s-.28.02-.42.03l-.12-1.16c1.14-.16,2.26-.34,3.36-.54,1.1-.2,2.17-.44,3.21-.72Z"/>
        <path class="cls-2" d="M363.51,155.52l-1.26,1.22c-.93.93-1.67,1.58-2.23,1.94s-1.06.54-1.5.54c-.67,0-1.2-.29-1.59-.86-.39-.57-.59-1.35-.59-2.35,0-.38.01-.77.04-1.18s.07-.82.12-1.24c-2.46,2.39-4.19,3.92-5.16,4.6-.98.68-1.79,1.02-2.45,1.02-1,0-1.75-.43-2.25-1.3s-.76-2.15-.76-3.85c0-1.55.2-3.04.6-4.47.4-1.44.99-2.79,1.76-4.06,1.11-1.78,2.4-3.15,3.84-4.09,1.45-.94,2.99-1.42,4.61-1.42.35,0,.74.04,1.16.11.42.07.87.18,1.34.32l2.75-1.16c-.77,3.7-1.39,7.01-1.85,9.95s-.69,4.86-.69,5.78c0,.42.07.73.21.94.14.21.35.32.64.32.21,0,.49-.13.85-.39.35-.26.94-.79,1.77-1.57l.65,1.2ZM356.65,151.41c.24-1.19.47-2.49.72-3.9.24-1.41.5-3,.78-4.79-.6-.34-1.09-.57-1.46-.7-.37-.12-.74-.19-1.11-.19-1.69,0-3.18,1.14-4.46,3.42-1.29,2.28-1.93,4.97-1.93,8.08,0,.98.11,1.72.33,2.21.22.49.55.74.99.74s1.19-.4,2.2-1.2c1.01-.8,2.33-2.03,3.95-3.68Z"/>
        <path class="cls-2" d="M371.08,145.46l3.19-3.11c1.11-1.06,1.96-1.76,2.53-2.1s1.11-.51,1.62-.51c.87,0,1.57.38,2.11,1.14.54.76.82,1.76.82,3.01s-.32,3.24-.96,5.89-.96,4.54-.96,5.67c0,.34.07.6.2.78s.32.27.57.27c.12,0,.27-.05.44-.15s.35-.23.52-.4l1.49-1.46.69,1.04-2.14,2.18c-.51.52-1.02.94-1.52,1.24-.5.3-.95.45-1.33.45-.66,0-1.19-.29-1.6-.86s-.62-1.32-.62-2.25c0-1.11.33-3.08,1-5.89.67-2.81,1-4.86,1-6.14,0-.49-.1-.88-.3-1.17-.2-.29-.48-.44-.82-.44-.51,0-2.08,1.21-4.7,3.64-.7.64-1.24,1.15-1.63,1.51l-1.24,6.92c-.03.13-.07.33-.12.59-.28,1.4-.44,2.48-.49,3.22l-3.5.87c.87-3.76,1.55-7.03,2.05-9.81.5-2.78.76-4.6.76-5.47,0-.52-.06-.9-.18-1.13-.12-.23-.31-.34-.57-.34-.16,0-.42.09-.78.28-.36.18-.82.45-1.37.81l-.53-1.04c.14-.12.35-.29.63-.51,2.02-1.63,3.37-2.44,4.05-2.44s1.14.25,1.46.74c.31.49.47,1.25.47,2.29,0,.37-.02.78-.06,1.24s-.1.94-.18,1.46Z"/>
        <path class="cls-2" d="M400.25,137.73l1.46.51c-.24.77-.45,1.57-.64,2.38s-.37,1.67-.54,2.58l-.32,1.99.35-.39c2.96-3.2,5.11-4.8,6.45-4.8,1.21,0,2.19.6,2.94,1.79.75,1.19,1.13,2.78,1.13,4.76,0,1.49-.29,3.04-.87,4.65-.58,1.61-1.35,3.03-2.32,4.26-1,1.26-2.07,2.22-3.23,2.88-1.16.66-2.35.99-3.57.99-.46,0-.92-.06-1.4-.19-.47-.12-.99-.32-1.55-.58l-.96,6.29c-.04.24-.07.45-.09.65-.02.2-.03.37-.03.51,0,.64.15,1.08.46,1.31.31.23.9.34,1.76.34h.63l-.28,1.36c-.77-.05-1.54-.09-2.3-.12-.76-.03-1.52-.04-2.28-.04-.46,0-1.39.03-2.79.1-.62.03-1.09.04-1.44.06l.24-1.36h.61c.75,0,1.26-.14,1.54-.43.28-.29.5-.87.66-1.75l3.3-19.49c.04-.2.09-.49.16-.88.24-1.4.46-2.54.69-3.42l-3.34,2.32-.35-1.32c1.02-.75,2.03-1.53,3.02-2.36.99-.83,1.96-1.69,2.9-2.6ZM398.48,156.37c.62.35,1.21.62,1.77.79.56.17,1.1.25,1.61.25,1.61,0,2.99-1.08,4.13-3.25,1.14-2.17,1.71-4.8,1.71-7.89,0-1.18-.15-2.07-.45-2.66-.3-.59-.75-.88-1.36-.88-.76,0-2.43,1.2-5.01,3.6-.45.41-.79.72-1.04.94l-1.36,9.1Z"/>
        <path class="cls-2" d="M431.29,155.52l-1.26,1.22c-.93.93-1.67,1.58-2.23,1.94s-1.06.54-1.5.54c-.67,0-1.2-.29-1.59-.86-.39-.57-.59-1.35-.59-2.35,0-.38.01-.77.04-1.18s.07-.82.12-1.24c-2.46,2.39-4.19,3.92-5.16,4.6-.98.68-1.79,1.02-2.45,1.02-1,0-1.75-.43-2.25-1.3s-.76-2.15-.76-3.85c0-1.55.2-3.04.6-4.47.4-1.44.99-2.79,1.76-4.06,1.11-1.78,2.4-3.15,3.84-4.09,1.45-.94,2.99-1.42,4.61-1.42.35,0,.74.04,1.16.11.42.07.87.18,1.34.32l2.75-1.16c-.77,3.7-1.39,7.01-1.85,9.95s-.69,4.86-.69,5.78c0,.42.07.73.21.94.14.21.35.32.64.32.21,0,.49-.13.85-.39.35-.26.94-.79,1.77-1.57l.65,1.2ZM424.43,151.41c.24-1.19.47-2.49.72-3.9.24-1.41.5-3,.78-4.79-.6-.34-1.09-.57-1.46-.7-.37-.12-.74-.19-1.11-.19-1.69,0-3.18,1.14-4.46,3.42-1.29,2.28-1.93,4.97-1.93,8.08,0,.98.11,1.72.33,2.21.22.49.55.74.99.74s1.19-.4,2.2-1.2c1.01-.8,2.33-2.03,3.95-3.68Z"/>
        <path class="cls-2" d="M433.63,159.36c.83-3.41,1.47-6.42,1.93-9.04s.69-4.58.69-5.91c0-.56-.08-.99-.25-1.27-.16-.28-.4-.42-.72-.42-.24,0-.9.34-1.99,1.02l-.16.1-.69-1.12.29-.22c2.36-1.77,3.89-2.65,4.58-2.65.64,0,1.11.21,1.39.62s.42,1.1.42,2.05c0,.84-.03,1.62-.08,2.35s-.13,1.35-.24,1.88c1.8-2.96,3.07-4.85,3.83-5.67.76-.82,1.47-1.23,2.12-1.23.45,0,.82.16,1.12.49.3.33.45.73.45,1.2,0,.29-.07.64-.23,1.05-.15.41-.47,1.1-.95,2.06-.24-.33-.48-.57-.73-.73-.25-.16-.5-.24-.75-.24-.48,0-1.06.34-1.72,1.01s-1.7,2.03-3.12,4.06c-.45,1.81-.82,3.53-1.12,5.16-.3,1.63-.53,3.18-.69,4.63l-3.42.81Z"/>
        <path class="cls-2" d="M456.19,135.31c-.25.88-.6,2.25-1.04,4.13-.13.55-.23.96-.29,1.22.77,0,1.56,0,2.37-.03s1.66-.05,2.55-.09l-.47,1.97c-.35-.01-.75-.02-1.18-.02h-3.66c-.62,2.7-1.07,5.06-1.37,7.08-.29,2.02-.44,3.71-.44,5.07,0,.58.09,1.03.29,1.36.19.33.46.49.8.49.26,0,.67-.21,1.24-.63.56-.42,1.33-1.09,2.3-2.03l.69,1.26c-1.89,1.94-3.19,3.18-3.89,3.71-.71.53-1.3.8-1.79.8-.9,0-1.63-.43-2.16-1.28-.54-.85-.81-2.01-.81-3.48,0-.96.15-2.33.45-4.12.3-1.79.87-4.56,1.71-8.33-.21,0-.48,0-.82.02-.33.01-.56.02-.68.02h-1.36l.24-1.32c.6-.03,1.16-.13,1.66-.31s1.01-.47,1.52-.87c.12-.47.25-.97.4-1.48s.32-1.07.52-1.64l3.22-1.5Z"/>
        <path class="cls-2" d="M469.19,154.36l.69,1.16c-1.61,1.67-2.73,2.73-3.36,3.19s-1.19.69-1.67.69c-.7,0-1.25-.29-1.67-.88s-.63-1.37-.63-2.35c0-1.23.39-3.29,1.17-6.17.78-2.88,1.17-4.96,1.17-6.23,0-.33-.08-.59-.24-.79s-.36-.29-.61-.29c-.21,0-.49.08-.83.26-.34.17-.77.43-1.28.79l-.59-1.04,2.62-1.91c.5-.37.93-.63,1.3-.8.37-.16.71-.25,1.04-.25.62,0,1.1.25,1.46.76.36.5.54,1.2.54,2.07,0,.96-.34,2.83-1.02,5.62-.16.63-.28,1.1-.35,1.42-.37,1.48-.65,2.71-.84,3.68s-.29,1.64-.29,2.01c0,.33.07.6.22.81.14.21.33.31.55.31.21,0,.48-.13.83-.39.34-.26.94-.81,1.79-1.65ZM469.03,129.02l1.12,1.26c.31.33.53.62.66.88.12.26.19.51.19.78,0,.28-.1.54-.29.79-.19.25-.47.48-.84.71l-1.73.96-1.26-1.49c-.26-.33-.43-.59-.51-.78-.08-.19-.12-.39-.12-.6,0-.3.08-.57.24-.8s.43-.46.81-.68l1.73-1.02Z"/>
        <path class="cls-2" d="M483.28,153.79l-3.34,3.03c-.98.89-1.77,1.51-2.35,1.85s-1.13.51-1.64.51c-1.18,0-2.08-.5-2.71-1.5-.63-1-.94-2.45-.94-4.34,0-3.72.94-6.92,2.82-9.6,1.88-2.67,4.12-4.01,6.71-4.01.52,0,1.06.07,1.6.21s1.11.34,1.7.6l1.12-7.12c.04-.28.07-.55.09-.83.02-.28.03-.57.03-.86,0-.52-.11-.88-.31-1.08-.21-.2-.6-.29-1.16-.29-.17,0-.34,0-.52,0-.18,0-.37.02-.58.03l-.08-1.16c1.09-.11,2.19-.25,3.29-.43s2.22-.41,3.35-.67c-1.22,6.29-2.22,11.97-3.01,17.04-.79,5.07-1.18,8.14-1.18,9.23,0,.67.06,1.14.19,1.41.12.27.33.4.62.4.16,0,.34-.07.56-.2.22-.13.49-.35.82-.65l1.2-1.08.65,1.12-2.26,2.22c-.79.76-1.36,1.25-1.71,1.46-.35.21-.69.31-1.02.31-.7,0-1.2-.33-1.52-.98s-.48-1.67-.48-3.05c0-.3,0-.57.02-.82.01-.24.03-.5.06-.76ZM483.24,151.79l1.47-8.91c-.72-.42-1.36-.72-1.93-.91-.56-.19-1.09-.29-1.57-.29-1.61,0-2.97,1.03-4.07,3.1-1.1,2.07-1.65,4.64-1.65,7.72,0,1.25.15,2.19.44,2.83s.73.96,1.31.96c.39,0,1.12-.4,2.19-1.2,1.07-.8,2.34-1.9,3.8-3.3Z"/>
        <path class="cls-2" d="M501.79,139.81c1.95,0,3.44.61,4.45,1.82s1.52,2.99,1.52,5.32c0,1.34-.26,2.76-.79,4.28-.53,1.51-1.23,2.88-2.12,4.1-.96,1.31-2.04,2.32-3.25,3.02s-2.49,1.05-3.82,1.05c-1.76,0-3.16-.64-4.2-1.91s-1.56-2.98-1.56-5.11c0-1.59.26-3.13.77-4.64.51-1.51,1.25-2.87,2.2-4.09.94-1.22,2.01-2.16,3.21-2.83,1.2-.67,2.4-1,3.59-1ZM500.94,141.72c-1.52,0-2.83,1.04-3.93,3.13-1.1,2.09-1.65,4.66-1.65,7.72,0,1.61.28,2.85.83,3.7s1.37,1.28,2.43,1.28c1.6,0,2.96-1.03,4.08-3.08,1.12-2.05,1.68-4.57,1.68-7.55,0-1.77-.28-3.08-.85-3.93-.56-.85-1.43-1.27-2.6-1.27Z"/>
        <path class="cls-2" d="M514.19,153.87l1.1,1.22c.34.35.57.66.7.91s.19.51.19.79c0,.37-.12.7-.34.98-.23.29-.61.58-1.15.87l-1.46.77-1.12-1.18c-.33-.33-.56-.63-.71-.89-.14-.27-.22-.55-.22-.84,0-.37.11-.69.32-.97.22-.28.56-.55,1.03-.8l1.65-.85Z"/>
      </g>
    </g>
  </g>
</svg>